<svg width="50" height="50" viewBox="0 0 50 50" fill="none" xmlns="http://www.w3.org/2000/svg">
<circle cx="25" cy="25" r="25" fill="#CBD6FF"/>
<path d="M36.9596 24.4275C36.9596 26.1371 36.619 27.7937 35.9461 29.3516C35.8241 29.6347 35.5454 29.818 35.2371 29.818H29.8616L26.1155 27.1018L18.1096 21.2963L14.5392 18.251C14.2342 17.9908 14.1788 17.5406 14.4117 17.2143C15.5382 15.6363 17.0388 14.3257 18.7511 13.4242C20.5207 12.4924 22.5195 12 24.5321 12C25.0659 12 25.5944 12.0334 26.1155 12.0997C27.8734 12.3215 29.5454 12.9121 31.0401 13.8343C31.0831 13.8608 31.1261 13.8879 31.169 13.915C31.2051 13.9378 31.2412 13.9611 31.2778 13.985C31.3293 14.0179 31.3807 14.0519 31.4317 14.0863C31.4709 14.1129 31.5102 14.1394 31.5495 14.1665C31.6158 14.2121 31.6816 14.2583 31.7474 14.3055C31.7824 14.3305 31.8169 14.3554 31.8514 14.3809C31.9203 14.4313 31.9888 14.4827 32.0573 14.5347C32.1257 14.5862 32.1931 14.6393 32.26 14.6929C32.2939 14.7199 32.3279 14.7475 32.3624 14.7751C32.3947 14.8017 32.4271 14.8287 32.4595 14.8553C32.4929 14.8829 32.5258 14.9105 32.5587 14.9386C32.8209 15.1609 33.075 15.3949 33.3201 15.6401C35.667 17.9874 36.9596 21.108 36.9596 24.4275Z" fill="#FF5555"/>
<path d="M24.3288 25.7583C24.193 25.7593 24.0269 25.7736 23.8481 25.7901C23.3796 25.8336 22.823 25.892 22.4961 25.7583C22.4261 25.7296 20.0473 24.6403 16.3272 25.3051C15.9456 25.3732 15.6521 24.962 15.8758 24.6455L18.6507 20.718L19.0004 20.2299C19.0052 20.224 19.0105 20.2182 19.0163 20.2123C19.2328 20.0208 20.4781 20.535 20.6729 20.6241C21.2226 20.8756 21.7283 21.2216 22.1804 21.6206C22.9763 22.3236 23.6348 23.2172 23.9659 24.2307C24.0105 24.3665 24.0487 24.5045 24.081 24.644C24.1075 24.7596 24.2317 25.7583 24.3288 25.7583Z" fill="white"/>
<path d="M23.8497 25.7901L23.8826 25.138C23.4151 23.2755 21.992 21.5399 18.6523 20.718L19.002 20.2298C19.0068 20.224 19.0121 20.2181 19.0179 20.2123C19.3734 19.8138 19.7799 19.4498 20.2357 19.1298C22.0143 17.8803 24.1675 17.5614 26.1175 18.0713C27.686 18.4814 29.1234 19.428 30.1284 20.8591C31.9871 23.5047 31.7876 26.9792 29.8615 29.3813L31.0718 33.8739L31.4883 35.4185C31.8391 36.7202 30.8586 38 29.5105 38H22.277C20.9521 38 20.111 36.5808 20.7472 35.4186L21.592 33.874L22.6972 31.8545C22.6972 31.8545 23.2597 30.8484 23.6656 29.4285L23.8497 25.7901Z" fill="white"/>
<path d="M31.488 35.4186C31.8388 36.7203 30.8582 38 29.5101 38H26.1172V18.0713C27.6857 18.4814 29.1231 19.4281 30.1281 20.8591C31.9868 23.5048 31.7873 26.9792 29.8612 29.3813L31.0715 33.874L31.488 35.4186Z" fill="white"/>
<path d="M31.4872 35.4186H20.7461L21.5908 33.874H31.0707L31.4872 35.4186Z" fill="#C29B6C"/>
<path d="M24.019 29.1132C25.023 29.1132 25.8369 28.2993 25.8369 27.2953C25.8369 26.2913 25.023 25.4774 24.019 25.4774C23.0151 25.4774 22.2012 26.2913 22.2012 27.2953C22.2012 28.2993 23.0151 29.1132 24.019 29.1132Z" fill="#A68159"/>
<path d="M24.0189 25.4775C24.0165 25.4775 24.0142 25.4777 24.0117 25.4777V29.1132C24.0142 29.1132 24.0165 29.1134 24.0189 29.1134C25.023 29.1134 25.8368 28.2995 25.8368 27.2955C25.8368 26.2915 25.0229 25.4775 24.0189 25.4775Z" fill="#C29B6C"/>
</svg>
