<svg width="393" height="328" viewBox="0 0 393 328" fill="none" xmlns="http://www.w3.org/2000/svg">
<g opacity="0.504511">
<path fill-rule="evenodd" clip-rule="evenodd" d="M363.875 222.932C368.756 254.054 250.396 274.354 148.522 260.187C46.6469 246.02 -0.088419 190.698 48.5245 161.219C97.1374 131.741 358.995 191.81 363.875 222.932Z" fill="#F2F2F2"/>
</g>
<path fill-rule="evenodd" clip-rule="evenodd" d="M217.459 93.2446C219.301 92.0444 222.158 92.8093 224.012 93.5177C224.726 93.7909 226.552 94.6646 227.905 95.648C227.727 94.9664 227.567 94.2788 227.428 93.5856C226.855 90.7354 226.46 87.8312 226.271 84.9439C226.221 84.1907 226.286 83.3493 226.351 82.4968C226.373 82.208 226.395 81.918 226.413 81.6297C226.339 81.5615 226.289 81.4675 226.268 81.3401C226.26 81.3929 226.255 81.4353 226.252 81.4677C226.247 81.5195 226.244 81.5458 226.234 81.5485C226.224 81.5513 226.207 81.5291 226.173 81.4838C226.159 81.4665 226.144 81.4458 226.125 81.4218C224.754 79.6743 223.604 77.7052 223.446 75.5406C223.312 73.7048 225.081 70.2313 227.588 72.6359C228.709 73.7098 228.418 81.2517 226.733 81.7139C227.183 84.213 227.749 86.7079 228.458 89.1711C228.564 89.1551 228.673 89.1537 228.78 89.1661C228.77 88.5537 228.768 87.8855 228.798 87.6557C229.05 85.6763 230.989 81.6576 234.075 82.4378C236.447 83.0375 234.993 85.5058 234.186 86.5862C232.887 88.3256 231.417 89.0788 229.556 89.9833C229.519 90.3571 229.236 90.5744 228.903 90.645C230.149 94.623 231.786 98.5027 233.929 102.167L233.986 101.935L233.986 101.934C234.258 100.822 234.575 99.5252 234.776 99.2528C235.826 97.8272 238.151 96.0859 240.295 96.9294C244.798 98.7035 239.91 103.802 236.077 104.357C235.918 104.545 235.749 104.696 235.57 104.783C236.314 105.889 237.11 106.972 237.962 108.027C239.24 109.615 240.613 111.197 242.052 112.77C242.096 111.539 242.666 108.797 242.827 108.502C243.81 106.713 246.643 104.872 248.942 106.143C251.527 107.576 249.183 110.285 247.708 111.51C247.104 112.013 244.115 113.854 243.061 113.863C246.538 117.572 250.376 121.218 254.278 124.732C253.955 123.158 253.533 118.826 253.58 118.345C253.822 115.864 255.734 111.894 259.501 112.861C263.156 113.798 261.539 117.922 260.288 119.888C259.531 121.077 258.483 122.286 257.219 123.116C256.991 123.266 256.694 123.388 256.397 123.51L256.397 123.51C256.039 123.656 255.682 123.803 255.448 123.997C255.24 124.17 255.176 124.369 255.113 124.566C255.046 124.774 254.98 124.98 254.745 125.152C256.854 127.043 258.977 128.894 261.071 130.694C262.058 131.544 263.064 132.377 264.079 133.2C264.635 133.003 265.427 133.262 265.386 133.933C265.38 134.03 265.354 134.114 265.318 134.191C266.087 134.802 266.862 135.409 267.643 136.009C267.625 135.834 267.63 135.587 267.666 135.247C267.104 135.929 267.127 134.936 267.145 134.178C267.152 133.911 267.157 133.673 267.136 133.548C267.053 133.062 266.947 132.58 266.84 132.099L266.84 132.099C266.612 131.071 266.385 130.047 266.396 128.986C266.421 126.735 268.092 122.961 271.609 124.301C274.843 125.532 273.666 128.869 272.446 130.961C271.674 132.284 270.617 133.466 269.513 134.598C269.316 134.8 269.097 135.074 268.881 135.344L268.881 135.344C268.56 135.746 268.243 136.142 268.009 136.29C271.012 138.586 274.085 140.815 277.158 143.044C278.535 144.043 279.912 145.041 281.282 146.046C281.342 145.825 281.391 145.607 281.434 145.402C281.348 145.485 281.232 145.523 281.082 145.516C281.042 145.347 280.984 145.122 280.915 144.852C280.069 141.56 277.491 131.531 284.471 133.475C289.585 134.903 285.975 143.635 282.161 146.69C284.475 148.396 286.768 150.123 289.007 151.902C290.627 153.189 292.199 154.52 293.712 155.896C292.929 154.115 292.192 151.809 292.676 149.974C293.381 147.303 296.682 144.781 299.906 146.301C303.925 148.204 300.833 150.802 297.934 153.239C296.454 154.483 295.023 155.685 294.616 156.731C299.423 161.243 303.528 166.256 306.271 171.967C309.254 178.177 312.023 186.522 310.491 193.47C310.774 190.415 309.565 186.579 308.715 183.885C308.6 183.518 308.491 183.172 308.393 182.853C307.117 178.675 305.304 174.609 302.915 170.804C299.088 164.71 294.034 159.537 288.198 154.84C286.869 155.235 285.426 155.967 284.231 156.573L284.231 156.573C283.497 156.944 282.857 157.269 282.394 157.439C280.162 158.262 275.874 159.44 274.452 156.85C273.053 154.304 276.623 152.879 278.836 152.309C280.974 151.758 282.902 151.824 284.896 152.276C281.807 149.938 278.643 147.675 275.479 145.412C274.897 144.996 274.315 144.579 273.734 144.163C272.93 144.726 272.042 145.539 271.099 146.403L271.099 146.403C268.106 149.144 264.559 152.392 261.393 149.739C256.613 145.734 265.754 141.664 269.648 141.982C270.126 142.021 270.589 142.107 271.04 142.224C267.068 139.346 263.159 136.409 259.461 133.266C258.797 133.369 257.741 134.203 256.472 135.204C253.62 137.454 249.693 140.552 246.736 138.113C244.601 136.352 245.332 133.61 247.396 132.042C249.467 130.467 252.471 130.47 255.024 131C256.127 131.229 257.146 131.664 258.095 132.195L258.213 132.2C254.574 129.074 250.913 125.878 247.387 122.573C247.325 122.59 247.262 122.608 247.199 122.625C246.986 122.848 246.629 122.93 246.302 122.88C246.122 122.933 245.938 122.987 245.75 123.043C242.957 123.866 239.367 124.923 236.583 124.467C234.535 124.131 232.676 122.71 234.41 120.959C235.82 119.536 239.645 119.74 241.511 120.077C242.421 120.242 243.412 120.719 244.406 121.198C244.824 121.4 245.243 121.601 245.656 121.78C245.763 121.595 245.95 121.476 246.164 121.419C242.682 118.098 239.359 114.662 236.346 111.077C235.434 111.197 234.422 111.539 233.379 111.892C230.868 112.741 228.174 113.652 226.24 111.69C223.385 108.793 228.754 107.102 231.306 107.377C232.168 107.47 233.018 107.678 233.838 107.954C231.646 105.002 229.971 101.847 228.795 98.5331C228.783 98.538 228.773 98.543 228.762 98.5481C228.753 98.5522 228.745 98.5564 228.736 98.5605C228.727 98.5642 228.718 98.5679 228.709 98.5716C228.734 98.56 228.754 98.5477 228.777 98.5358C228.782 98.533 228.787 98.5303 228.793 98.5276C228.675 98.196 228.563 97.863 228.455 97.5288C228.256 97.4341 228.07 97.3644 227.98 97.3356C229.14 98.0181 224.248 98.3521 223.332 98.4146C221.306 98.5526 218.593 98.6042 217.107 97.1878C215.859 95.998 215.931 94.2402 217.459 93.2446ZM310.709 193.48C310.623 194.487 310.41 195.409 310.012 196.169C310.31 195.303 310.539 194.404 310.709 193.48Z" fill="#F2F2F2"/>
<path opacity="0.2" fill-rule="evenodd" clip-rule="evenodd" d="M125.492 28.9444C124.148 28.0772 122.062 28.6311 120.708 29.144C120.186 29.3418 118.853 29.9741 117.864 30.6856C117.995 30.1927 118.112 29.6955 118.214 29.1942C118.633 27.133 118.923 25.0329 119.062 22.945C119.099 22.4004 119.052 21.7919 119.005 21.1755L119.005 21.1754C118.989 20.9666 118.973 20.7569 118.96 20.5485C119.014 20.4992 119.051 20.4312 119.066 20.3391C119.072 20.3773 119.075 20.4079 119.078 20.4314C119.081 20.4688 119.083 20.4878 119.09 20.4898C119.098 20.4919 119.11 20.4758 119.135 20.443C119.145 20.4305 119.157 20.4155 119.171 20.3981C120.172 19.1341 121.013 17.7099 121.129 16.1446C121.228 14.8171 119.938 12.306 118.106 14.0455C117.287 14.8224 117.496 20.2758 118.726 20.6095C118.396 22.4168 117.982 24.221 117.464 26.0023C117.386 25.9908 117.307 25.9898 117.229 25.9989C117.236 25.556 117.237 25.0728 117.216 24.9067C117.033 23.4755 115.619 20.5702 113.365 21.1353C111.633 21.5697 112.693 23.3541 113.282 24.135C114.23 25.3924 115.303 25.9365 116.661 26.59C116.688 26.8603 116.895 27.0173 117.138 27.0683C116.227 29.9451 115.029 32.7511 113.463 35.4017L113.422 35.2333L113.422 35.2332C113.224 34.4289 112.993 33.4913 112.846 33.2944C112.08 32.2638 110.383 31.0054 108.817 31.6161C105.529 32.9003 109.095 36.5858 111.894 36.9856C112.01 37.1214 112.133 37.2306 112.264 37.2932C111.72 38.0933 111.138 38.8768 110.516 39.6402C109.583 40.7884 108.579 41.9329 107.528 43.0708C107.496 42.1811 107.081 40.1983 106.963 39.9853C106.247 38.6918 104.179 37.3614 102.5 38.2812C100.612 39.3184 102.322 41.2759 103.398 42.1617C103.839 42.5249 106.021 43.8555 106.791 43.8612C104.25 46.5445 101.446 49.182 98.5956 51.7242C98.8323 50.5865 99.1425 47.4538 99.1083 47.1061C98.9325 45.3116 97.5382 42.4418 94.7873 43.1424C92.1184 43.8211 93.2971 46.8025 94.2097 48.2235C94.7624 49.0836 95.5269 49.9574 96.4491 50.557C96.6154 50.665 96.8325 50.7531 97.0492 50.8412C97.3106 50.9473 97.5714 51.0532 97.7419 51.1934C97.8937 51.3185 97.9403 51.4621 97.9864 51.6045C98.0352 51.7549 98.0835 51.9039 98.255 52.0283C96.7143 53.3962 95.163 54.7356 93.6338 56.0379C92.9123 56.6525 92.1777 57.2552 91.4359 57.8505C91.0303 57.7085 90.4517 57.8957 90.4816 58.381C90.4859 58.4515 90.5052 58.5123 90.5311 58.568C89.969 59.0099 89.4032 59.4487 88.833 59.8828C88.8461 59.7564 88.8424 59.5782 88.8164 59.3321C89.2264 59.8251 89.2097 59.1068 89.1969 58.5592L89.1969 58.5591C89.1924 58.3657 89.1884 58.1936 89.2039 58.1037C89.2644 57.7518 89.3426 57.4034 89.4207 57.0555C89.5876 56.3122 89.7539 55.5713 89.746 54.8044C89.7291 53.1764 88.5105 50.448 85.942 51.4185C83.5802 52.3093 84.4379 54.7218 85.3277 56.2341C85.891 57.191 86.6621 58.0454 87.468 58.8634C87.6118 59.0094 87.7712 59.2071 87.9291 59.4028C88.1635 59.6934 88.3945 59.9797 88.5653 60.0863C86.372 61.7477 84.1271 63.3603 81.8821 64.9731L81.8809 64.974C80.8756 65.6961 79.8703 66.4183 78.8697 67.1448C78.8262 66.9855 78.7903 66.8274 78.7594 66.6795C78.8219 66.7392 78.907 66.7671 79.0163 66.7616C79.0455 66.6394 79.0877 66.4771 79.1384 66.2821L79.1385 66.2819C79.7578 63.9007 81.6444 56.648 76.5472 58.0557C72.8127 59.09 75.4445 65.4034 78.228 67.611C76.5373 68.8451 74.8626 70.0948 73.227 71.3819C72.0435 72.3131 70.895 73.2763 69.7901 74.2715C70.3623 72.9832 70.9017 71.3156 70.5491 69.9887C70.0357 68.0578 67.626 66.2355 65.2715 67.3354C62.3364 68.7124 64.5927 70.5904 66.7086 72.3514C67.7889 73.2506 68.8327 74.1194 69.13 74.8754C65.6177 78.1399 62.6185 81.7662 60.6135 85.8964C58.4328 90.388 56.4074 96.4228 57.5226 101.446C57.3174 99.2373 58.2021 96.4631 58.8234 94.5149C58.908 94.2496 58.9877 93.9996 59.0591 93.7684C59.9926 90.7468 61.3181 87.8066 63.064 85.0545C65.8607 80.6466 69.5536 76.9042 73.8165 73.506C74.7866 73.7914 75.84 74.32 76.7125 74.7578L76.7126 74.7578L76.7127 74.7579C77.2478 75.0264 77.7148 75.2607 78.0527 75.3839C79.6827 75.9777 82.8124 76.8285 83.8522 74.9554C84.8745 73.1135 82.2684 72.0848 80.6532 71.6728C79.0923 71.2752 77.6849 71.3239 76.2283 71.651C78.4847 69.9598 80.796 68.3222 83.1069 66.6848L83.1069 66.6848C83.532 66.3836 83.9571 66.0825 84.3817 65.781C84.9687 66.1877 85.6168 66.7757 86.305 67.4C88.4893 69.3813 91.077 71.7287 93.3904 69.809C96.8817 66.9118 90.2095 63.9716 87.366 64.2027C87.0169 64.2308 86.6792 64.2932 86.3498 64.378C89.2507 62.296 92.1068 60.1712 94.808 57.8971C95.2926 57.9716 96.0635 58.5739 96.9896 59.2975C99.0711 60.9237 101.936 63.1624 104.097 61.3978C105.656 60.124 105.124 58.1413 103.618 57.0082C102.106 55.8702 99.9127 55.873 98.0486 56.2574C97.2427 56.4227 96.4992 56.7379 95.8059 57.1219L95.7199 57.126C98.378 54.8645 101.052 52.5524 103.628 50.1614C103.673 50.1736 103.719 50.1861 103.765 50.1988C103.921 50.36 104.182 50.4189 104.42 50.3831C104.552 50.4211 104.686 50.4603 104.823 50.5003C106.862 51.0944 109.483 51.8581 111.515 51.5273C113.012 51.284 114.369 50.2553 113.104 48.9902C112.075 47.9613 109.282 48.1103 107.92 48.3547C107.255 48.4742 106.531 48.8196 105.805 49.1662L105.805 49.1663C105.5 49.3119 105.194 49.4577 104.893 49.587C104.814 49.4534 104.678 49.3677 104.522 49.3265C107.066 46.9239 109.493 44.4382 111.695 41.8447C112.361 41.9316 113.099 42.1786 113.861 42.4333C115.693 43.0463 117.66 43.7042 119.073 42.2849C121.159 40.1892 117.239 38.9682 115.376 39.168C114.747 39.2354 114.126 39.3864 113.527 39.5858C115.129 37.4507 116.353 35.1686 117.214 32.7721C117.222 32.7756 117.23 32.7793 117.237 32.7829C117.244 32.7859 117.25 32.7889 117.257 32.7918C117.263 32.7946 117.269 32.7973 117.277 32.7999C117.254 32.7896 117.236 32.7785 117.215 32.7681C117.301 32.5283 117.383 32.2875 117.462 32.0458C117.608 31.9772 117.744 31.9267 117.809 31.906C116.962 32.3998 120.534 32.6398 121.203 32.6847C122.681 32.7839 124.663 32.8203 125.748 31.7956C126.66 30.9349 126.607 29.6638 125.492 28.9444ZM57.3015 101.248C57.3668 101.919 57.5609 102.531 57.943 103.033C57.6625 102.46 57.4521 101.862 57.3015 101.248Z" fill="#C1DEE2"/>
<g opacity="0.7">
<path fill-rule="evenodd" clip-rule="evenodd" d="M303.525 170.119C308.832 169.844 315.395 172.942 315.961 178.71C316.373 182.902 316.245 187.081 316.882 191.267C317.391 194.611 318.467 197.822 319.935 200.869C321.347 203.799 324.275 206.293 325.037 209.423C325.523 211.417 325.251 214.223 324.581 216.174C323.767 218.545 324.2 218.358 325.822 220.348C329.001 224.248 331.863 228.248 333.887 232.906C336.803 239.615 338.714 247.458 337.632 254.802C337.495 255.735 337.331 259.082 336.047 259.316C334.613 259.577 335.284 257.663 335.36 257.045C335.848 253.1 336.282 249.651 335.693 245.644C333.422 230.184 322.331 219.999 315.109 206.877C314.712 206.201 313.874 204.59 313.292 203.527C312.372 201.848 311.447 198.655 310.201 197.411C307.856 195.066 310.012 199.779 310.469 200.679C311.047 201.817 311.683 203.027 312.275 204.024C314.984 208.646 318.009 213.692 320.807 218.457C308.705 221.215 300.181 206.665 296.934 197.1C294.258 189.219 291.056 170.794 303.525 170.119Z" fill="#69A1AC"/>
<path fill-rule="evenodd" clip-rule="evenodd" d="M374.655 155.484C365.783 156.188 360.087 162.042 357.436 170.23C356.007 174.643 355.843 179.176 355.049 183.71C353.855 190.533 351.285 195.703 346.262 200.563C344.706 202.069 343.559 203.614 342.744 205.268C341.126 206.919 339.718 208.787 338.683 211.071C337.362 213.988 336.988 217.488 338.514 220.396C338.924 221.178 339.948 222.748 341.008 223.461C337.037 231.919 334.853 241.183 335.099 250.436C335.248 256.021 335.52 261.608 335.839 267.186C335.924 268.684 336.412 271.157 337.145 268.645C337.815 266.348 336.974 262.741 336.896 260.341C336.518 248.648 336.194 238.016 341.008 227.091C341.512 225.946 342.048 224.81 342.605 223.683C342.638 223.664 342.668 223.641 342.699 223.619C342.72 223.636 342.739 223.653 342.761 223.669C342.796 223.606 342.845 223.53 342.902 223.446C343.062 223.281 343.201 223.072 343.334 222.84C343.761 222.248 344.244 221.553 344.247 221.172C344.247 221.169 344.245 221.165 344.245 221.162C347.225 216.298 350.638 211.702 354.124 207.195C354.098 207.228 357.905 202.044 357.317 204.911C357.033 206.293 354.232 208.924 353.101 210.387C350.599 213.643 347.661 217.768 345.219 221.757C344.89 221.946 344.426 222.873 344.091 223.564C343.905 223.913 343.732 224.266 343.562 224.573C352.214 227.432 358.944 221.674 363.533 214.977C363.539 214.969 363.544 214.961 363.549 214.953C364.946 213.102 366.376 211.265 368.163 209.802C371.145 207.361 374.338 206.931 377.854 205.729C387.441 202.454 391.518 190.028 392.812 180.809C394.273 170.408 387.128 154.459 374.655 155.484Z" fill="#89C5CC"/>
<path fill-rule="evenodd" clip-rule="evenodd" d="M357.13 126.357C348.025 135.833 343.626 148.977 340.142 161.334C336.252 175.136 333.682 189.15 333.584 203.499C333.519 212.927 333.263 222.413 333.813 231.83C334.008 235.174 334.341 238.524 334.872 241.833C334.915 242.105 336.101 249.492 337.236 247.77C337.881 246.791 336.02 240.107 335.88 238.994C335.089 232.724 334.905 226.407 334.943 220.092C335.007 209.693 334.7 199.348 335.754 188.987C335.911 187.441 336.036 185.816 336.403 184.303C336.793 182.694 336.296 183.396 337.567 182.759C338.802 182.14 340.328 182.228 341.609 181.452C346.69 178.37 349.29 170.455 351.313 165.262C353.627 159.323 355.033 152.99 356.157 146.74C356.982 142.149 357.571 137.585 357.905 132.934C358.01 131.468 358.016 129.935 358.305 128.494C358.382 128.105 358.772 127.417 358.757 127.073C358.727 126.344 358.288 125.915 358.252 125.303C357.87 125.646 357.496 125.998 357.13 126.357Z" fill="#89C5CC"/>
<path fill-rule="evenodd" clip-rule="evenodd" d="M307.481 252.618C307.481 268.29 320.186 280.995 335.858 280.995C351.53 280.995 364.235 268.29 364.235 252.618" fill="#89C5CC"/>
<path fill-rule="evenodd" clip-rule="evenodd" d="M355.304 227.773C362.327 227.255 370.17 232.921 373.558 238.817C376.289 243.571 375.829 249.813 374.142 254.864C373.012 258.245 370.547 263.066 366.436 263.113C361.292 263.172 361.044 256.815 360.945 253.098C360.813 248.158 360.188 243.854 356.295 240.486C355.814 240.07 355.31 239.681 354.806 239.292C354.358 238.946 353.91 238.601 353.479 238.237C353.411 238.179 353.341 238.121 353.272 238.063C351.895 236.905 350.449 235.69 350.273 233.783C350.018 231.019 351.578 230.522 353.96 231.035C354.037 231.052 354.246 231.131 354.53 231.238C355.746 231.699 358.342 232.683 357.851 231.507C357.667 231.064 356.991 230.713 356.139 230.45C353.933 230.21 351.302 229.932 350.546 230.098C342.384 231.888 339.207 243.193 338.363 250.376C338.272 251.152 338.198 251.929 338.134 252.708H336.635C336.739 250.827 336.876 248.949 337.19 247.089C338.393 239.974 342.154 229.524 350.403 228.37C350.708 228.327 351.827 228.319 353.183 228.399C353.826 228.04 354.545 227.823 355.304 227.773Z" fill="#69A1AC"/>
</g>
<g opacity="0.5">
<path fill-rule="evenodd" clip-rule="evenodd" d="M77.8305 118.293C79.4641 115.963 82.4955 110.048 84.7947 109.216C86.2756 108.68 85.8438 114.225 85.8621 115.282C85.9333 119.373 85.535 123.438 85.0432 127.494C84.1572 134.81 81.2598 141.326 77.286 147.552C75.2411 150.756 72.8426 153.999 69.5206 155.998C67.9915 156.919 66.1516 157.073 64.6414 157.866C62.8827 158.789 63.8405 158.043 63.0479 159.876C61.9472 162.42 61.5951 165.703 61.0859 168.418C58.7475 180.881 53.0864 246.766 54.0679 259.444C54.155 260.567 52.5882 260.836 52.51 259.464C52.0942 252.191 55.6917 201.821 57.5067 185.348C59.3217 168.876 61.1584 154.323 63.0001 148.625C65.2343 141.711 69.2694 133.396 72.6283 126.948C74.1885 123.953 75.8892 121.061 77.8305 118.293Z" fill="#69A1AC"/>
<path fill-rule="evenodd" clip-rule="evenodd" d="M89.9556 199.082C94.2063 195.961 98.8074 201.851 94.961 204.972C92.8345 206.698 90.6115 206.084 89.36 204.646C88.5476 205.636 87.7872 206.672 87.0565 207.547C84.8304 210.212 82.7264 212.94 80.7156 215.733C76.5384 221.534 72.9586 227.662 69.2157 233.679C65.522 239.617 61.8577 245.585 58.5098 251.674C55.6736 256.832 51.8933 262.901 50.9222 268.556C52.3955 256.562 57.9861 245.034 64.6434 234.461C71.2466 223.975 78.8245 212.522 89.0487 204.247C88.0081 202.716 87.9792 200.532 89.9556 199.082Z" fill="#C1DEE2"/>
<path fill-rule="evenodd" clip-rule="evenodd" d="M9.29485 169.832C11.6736 170.297 15.5603 175.678 17.5211 177.728C19.8513 180.165 21.9654 182.761 23.9582 185.482C28.2482 191.339 32.0849 197.565 35.3474 204.059C40.6661 214.644 44.9271 225.51 48.0195 237.037C49.9125 244.093 51.1381 251.406 51.8645 258.669C52.0016 260.038 53.4376 270.598 51.3685 270.882C49.5075 271.139 50.0823 262.864 49.9925 261.739C48.9777 249.041 45.9375 236.686 41.7087 224.718C40.7876 222.111 39.9319 218.917 38.4589 216.571C37.398 214.881 38.4512 215.47 36.587 214.831C34.9863 214.281 33.1625 214.416 31.5233 213.743C27.9623 212.283 25.111 209.448 22.6116 206.596C17.7545 201.054 13.9054 195.059 11.8991 187.958C10.7861 184.021 9.76333 180.06 9.19575 176.001C9.04893 174.952 7.76275 169.532 9.29485 169.832Z" fill="#69A1AC"/>
<path fill-rule="evenodd" clip-rule="evenodd" d="M18.6816 80.3029C27.6416 95.8419 35.0046 112.911 39.759 130.2C42.6396 140.675 44.654 151.423 46.6556 162.095C49.7546 178.617 52.6859 195.139 53.5197 211.956C54.3586 228.87 56.0174 248.378 50.479 264.669C53.2455 248.129 50.6116 230.524 50.1452 213.882C49.9224 205.937 49.2766 198.07 48.4294 190.172C47.6073 182.51 46.2643 174.885 45.0136 167.283C44.4043 163.581 43.7645 159.884 43.113 156.19C42.9186 155.088 42.8364 151.817 42.1372 151.064C41.4335 150.306 37.8429 149.997 36.7156 149.441C34.4457 148.321 32.3105 146.729 30.4208 145.048C26.7983 141.825 23.6469 137.615 21.1595 133.463C15.4044 123.859 13.1035 112.137 13.2198 101.013C13.2421 98.8537 16.7154 75.597 15.3205 75.2768C15.4045 75.1784 15.4839 75.0768 15.5588 74.9712C16.6149 76.7394 17.6512 78.5196 18.6816 80.3029Z" fill="#89C5CC"/>
<path fill-rule="evenodd" clip-rule="evenodd" d="M115.391 136.346C115.529 136.146 116.429 134.759 115.976 134.848C116.898 134.667 114.707 136.377 117.005 135.328C115.914 136.359 116.544 137.698 116.558 139.085C116.582 141.338 116.205 143.572 115.781 145.776C115.111 149.26 114.112 152.647 112.663 155.887C109.504 162.949 104.139 169.747 97.7707 174.162C94.6267 176.342 91.5455 177.084 87.9598 178.088C85.6949 178.722 85.5153 179.893 84.3131 182.091C81.8102 186.669 79.3519 191.23 77.1446 195.962C74.5089 201.612 71.9502 207.269 69.5367 213.019C61.406 232.388 54.7883 252.454 51.3129 273.22C51.2278 260.983 54.0588 248.379 57.6298 236.714C60.231 228.216 63.6174 220.024 67.2293 211.914C68.1045 209.95 69.4308 207.423 69.8025 205.254C70.0627 203.734 69.2671 202.272 68.9028 200.672C67.4825 194.437 67.5842 187.453 68.8314 181.186C70.2065 174.275 74.1833 171.067 80.9105 170.088C83.3708 169.73 86.4978 169.861 88.7538 168.812C91.2116 167.67 92.2255 163.915 93.6231 161.505C97.3771 155.03 101.837 148.82 106.959 143.365C108.377 141.854 109.902 140.461 111.52 139.169C112.54 138.354 114.695 137.35 115.391 136.346Z" fill="#89C5CC"/>
<path fill-rule="evenodd" clip-rule="evenodd" d="M38.034 262.231C37.8609 261.057 38.7705 260.004 39.9568 260.004H63.8311C65.0175 260.004 65.927 261.057 65.754 262.231L63.9087 274.744C63.3462 278.558 60.073 281.384 56.2174 281.384H47.5706C43.715 281.384 40.4418 278.558 39.8793 274.744L38.034 262.231Z" fill="#C1DEE2"/>
</g>
<path fill-rule="evenodd" clip-rule="evenodd" d="M18.4326 266.4C18.4326 274.675 19.0856 281.383 27.8506 281.383C36.6155 281.383 37.2685 274.675 37.2685 266.4" fill="#F2F2F2"/>
<path fill-rule="evenodd" clip-rule="evenodd" d="M30.4577 261.237C30.1364 261.793 29.8499 262.36 29.5969 262.935C29.5879 261.75 29.6534 260.557 29.8323 259.348C30.138 257.276 30.6049 255.215 31.0436 253.158C31.359 251.679 31.3391 249.023 32.5358 247.845C32.8639 247.59 32.9429 248.089 32.9429 248.306C32.9471 248.352 32.942 247.421 32.6235 247.583C30.7302 248.561 30.1167 251.636 29.5105 253.175C28.6262 255.422 27.8737 257.719 27.5638 260.057C27.4855 260.648 27.4429 261.238 27.4331 261.828C27.3687 261.67 27.3083 261.511 27.2414 261.354C26.1487 258.791 24.6739 256.29 22.8346 253.984C22.3819 253.416 16.6893 247.817 16.2437 248.674C16.2877 248.798 16.3797 248.902 16.5201 248.984C16.5284 248.993 16.5286 248.988 16.5238 248.974C16.8581 249.514 17.8087 250.348 18.1048 250.821C18.8499 252.012 19.429 253.276 20.0175 254.516C21.261 257.135 22.4144 259.782 23.5326 262.433C23.793 263.051 24.0643 263.665 24.3412 264.277C21.4872 260.161 17.68 256.424 12.439 254.284C14.229 255.195 15.4026 256.908 16.6115 258.22C18.0695 259.803 19.6051 261.342 21.0659 262.923C22.7888 264.788 24.8161 266.751 26.4734 268.814C28.0786 272.185 29.6385 275.558 30.6015 279.101C30.2069 277.877 30.5705 276.186 30.503 274.901C30.4494 273.878 30.3299 272.864 30.1661 271.852C30.3686 272.309 30.5431 272.766 30.6221 273.191C30.5499 272.478 30.4668 271.769 30.3775 271.065C30.6067 270.405 30.8318 269.79 30.9839 269.283C31.7631 266.681 32.691 264.125 33.9546 261.633C35.1239 259.329 36.4651 257.053 37.9265 254.847C38.6083 253.819 39.2994 252.794 39.9861 251.767C40.4356 251.095 40.8636 250.019 41.4895 249.376C37.4441 253.074 33.0242 256.8 30.4577 261.237Z" fill="#F2F2F2"/>
<path fill-rule="evenodd" clip-rule="evenodd" d="M381.196 48.8594C380.036 44.9912 377.313 41.9635 374.487 39.1894C368.984 33.789 366.025 30.4499 364.064 22.55C362.911 17.9038 361.737 12.9804 358.079 9.60954C355.415 7.15483 350.831 5.09244 347.269 6.85021C341.789 10.1209 340.318 16.833 340.87 22.8432C341.555 30.2925 345.035 34.8857 351.72 37.6295C355.487 39.1748 357.99 41.2138 360.035 44.7667C361.671 47.6077 362.624 51.1652 364.679 53.7407C367.752 57.5907 371.597 59.3022 376.337 58.6626C371.897 50.495 366.711 42.2506 360.455 35.3738C359.869 34.6824 356.415 32.0362 357.112 30.8579C357.879 29.5606 361.425 34.434 361.4 34.4045C363.218 36.4914 364.9 38.709 366.552 40.948C366.548 40.9501 366.543 40.9513 366.539 40.9536C368.239 43.251 369.927 45.5823 371.582 47.9428C372.251 48.9413 372.903 49.9525 373.527 50.9891C374.442 52.5102 375.894 56.8273 377.392 57.7626C377.713 57.9626 378.009 58.0743 378.286 58.1205C379.308 59.7936 380.302 61.4803 381.248 63.1868C383.717 67.6439 385.837 72.35 386.81 77.3821C387.094 78.8508 386.893 84.3448 387.895 85.4051C389.728 87.3444 389.191 83.6098 389.082 82.4826C388.171 73.1479 384.82 65.1953 379.955 57.3477C381.449 55.3955 381.665 50.4268 381.196 48.8594Z" fill="#F2F2F2"/>
<path fill-rule="evenodd" clip-rule="evenodd" d="M318.416 53.3698C320.348 51.0929 324.993 50.7066 327.834 50.859C331.35 51.0476 334.961 51.9034 338.305 52.9382C343.815 54.6426 349.169 57.7531 354.021 60.7636C354.606 61.1264 361.81 65.4589 361.172 66.2192C360.541 66.9725 353.468 61.8262 351.892 60.9392C348.529 59.0459 345.444 56.8068 341.737 55.5565C337.898 54.2617 333.838 53.749 329.801 53.7843C329.283 53.789 327.593 53.4277 327.557 54.1942C327.521 54.9438 330.317 54.5527 330.81 54.5572C332.847 54.5759 334.896 54.7676 336.903 55.1205C340.665 55.7817 344.201 57.1137 347.423 59.1567C346.524 61.2468 344.369 62.2106 342.109 61.6875C340.155 61.2352 338.25 60.1202 336.337 59.7977C335.02 59.5757 333.7 59.7078 332.423 60.079C329.052 61.0585 327.109 63.065 323.403 61.6693C320.498 60.5751 315.64 56.6441 318.416 53.3698Z" fill="#F2F2F2"/>
<path fill-rule="evenodd" clip-rule="evenodd" d="M310.106 16.6825C305.815 16.3696 301.023 19.794 298.954 23.3577C297.285 26.2309 297.566 30.0039 298.597 33.0564C299.287 35.1 300.793 38.0138 303.305 38.0422C306.447 38.0777 306.599 34.2355 306.659 31.9893C306.74 29.0031 307.122 26.4017 309.5 24.3662C309.794 24.115 310.102 23.8798 310.41 23.6446C310.684 23.4359 310.957 23.2271 311.221 23.0072C311.263 22.9721 311.305 22.9369 311.347 22.9017C312.188 22.2023 313.072 21.4678 313.179 20.3151C313.335 18.6445 312.382 18.3439 310.927 18.6543C310.88 18.6643 310.752 18.7121 310.579 18.7771C309.835 19.0558 308.249 19.6505 308.549 18.9396C308.662 18.6717 309.075 18.4595 309.596 18.3004C310.943 18.1555 312.551 17.9873 313.013 18.0878C317.999 19.1699 319.94 26.0028 320.456 30.344C320.514 30.8355 320.561 31.3287 320.602 31.8227H321.516C321.452 30.6626 321.368 29.5043 321.172 28.3572C320.437 24.057 318.14 17.7413 313.1 17.0433C312.914 17.0173 312.23 17.0129 311.402 17.061C311.009 16.844 310.569 16.7127 310.106 16.6825Z" fill="#F2F2F2"/>
<path fill-rule="evenodd" clip-rule="evenodd" d="M122.907 173.545C125.735 175.251 128.514 176.076 129.818 175.739C133.089 174.896 133.389 162.923 130.859 158.204C128.329 153.484 115.32 151.427 114.664 160.778C114.437 164.023 115.798 166.919 117.81 169.283L114.202 186.111H124.682L122.907 173.545Z" fill="#B28B67"/>
<path fill-rule="evenodd" clip-rule="evenodd" d="M131.847 160.322C131.743 159.71 131.49 159.031 131.285 158.452C131.021 157.706 130.622 157.033 130.182 156.399C129.355 155.205 128.362 154.127 127.266 153.233C125.264 151.599 122.715 150.656 120.209 150.962C118.944 151.117 117.716 151.6 116.67 152.404C115.726 153.13 114.817 154.199 113.594 154.276C112.263 154.36 111.043 153.184 109.976 152.458C108.772 151.64 107.492 151.043 106.086 150.811C103.729 150.423 101.516 151.22 99.892 153.154C98.164 155.213 96.9079 158.232 98.0427 160.96C98.2536 161.467 98.525 161.894 98.9144 162.248C99.2716 162.573 99.8171 162.919 99.9619 163.438C100.116 163.99 99.6563 164.702 99.4781 165.199C99.2228 165.913 99.0132 166.662 99.0878 167.437C99.2102 168.71 100.01 169.926 100.854 170.763C101.713 171.614 102.771 172.103 103.9 172.328C104.655 172.478 105.425 172.561 106.192 172.505C106.572 172.477 106.908 172.371 107.277 172.287C107.635 172.205 107.836 172.3 108.14 172.497C109.553 173.411 111.072 173.765 112.704 173.629C114.081 173.514 115.668 173.18 116.792 172.236C118.039 171.187 118.014 169.741 117.721 168.196C118.032 168.351 118.892 168.446 118.378 167.831C118.174 167.588 117.79 167.489 117.528 167.345C117.224 167.179 116.915 166.963 116.679 166.691C115.724 165.593 116.688 163.357 117.887 162.989C119.669 162.442 120.068 164.964 121.34 165.616C122.072 165.991 122.837 165.478 123.385 164.955C124.118 164.254 124.619 163.325 125.051 162.379C125.406 161.601 125.737 160.812 126.1 160.037C126.269 159.675 126.856 158.653 126.561 158.244C127.837 157.989 129.259 158.52 130.358 159.216C130.812 159.503 131.159 159.821 131.401 160.329C131.453 160.437 131.566 160.761 131.708 160.774C131.972 160.799 131.873 160.476 131.847 160.322Z" fill="#191847"/>
<path fill-rule="evenodd" clip-rule="evenodd" d="M87.6728 241.169C84.2379 241.169 81.4532 243.954 81.4532 247.389V289.134C81.4532 292.569 84.2379 295.354 87.6728 295.354H139.424C142.859 295.354 145.643 292.569 145.643 289.134V247.389C145.643 243.954 142.859 241.169 139.424 241.169H87.6728ZM95.2338 253.404C94.375 253.404 93.6789 254.1 93.6789 254.959V281.564C93.6789 282.422 94.375 283.118 95.2338 283.118H131.861C132.719 283.118 133.416 282.422 133.416 281.564V254.959C133.416 254.1 132.719 253.404 131.861 253.404H95.2338Z" fill="#C5CFD6"/>
<path fill-rule="evenodd" clip-rule="evenodd" d="M188.94 293.169C180.331 282.648 174.506 274.849 171.465 269.771C166.257 261.075 161.996 253.338 160.651 250.382C157.443 243.334 168.034 240.034 170.431 243.321C174.059 248.297 181.807 263.954 193.674 290.292L188.94 293.169Z" fill="#B28B67"/>
<path fill-rule="evenodd" clip-rule="evenodd" d="M171.299 290.11L155.276 249.75C151.85 242.392 168.398 237.556 170.917 240.98C176.635 248.753 190.224 279.419 191.928 281.735L171.299 290.11Z" fill="#2F3676"/>
<path fill-rule="evenodd" clip-rule="evenodd" d="M128.627 282.016C131.748 277.46 143.1 262.132 149.284 255.79C151.061 253.968 152.794 252.219 154.434 250.589C159.308 245.744 169.014 253.887 164.149 258.3C152.033 269.29 134.355 284.126 132.878 285.449C130.808 287.303 126.665 284.879 128.627 282.016Z" fill="#B28B67"/>
<path fill-rule="evenodd" clip-rule="evenodd" d="M130.587 280.057C130.319 279.688 129.798 279.601 129.449 279.893C128.734 280.49 127.642 281.462 127.258 282.129C126.667 283.152 125.875 285.313 125.875 285.313C127.061 285.998 147.204 297.636 147.204 297.636C147.204 297.636 149.622 295.366 147.958 294.112C146.293 292.857 145.21 291.996 145.21 291.996L137.819 281.806C137.69 281.628 137.441 281.592 137.267 281.726L135.699 282.935C135.699 282.935 133.594 282.751 132.557 282.152C131.9 281.772 131.091 280.752 130.587 280.057Z" fill="#E4E4E4"/>
<path fill-rule="evenodd" clip-rule="evenodd" d="M186.352 291.066C185.936 290.88 185.441 291.066 185.284 291.494C184.964 292.368 184.504 293.756 184.504 294.526C184.504 295.708 184.897 297.976 184.897 297.976C186.268 297.976 209.526 297.976 209.526 297.976C209.526 297.976 210.486 294.8 208.418 294.546C206.349 294.293 204.981 294.089 204.981 294.089L193.489 288.962C193.289 288.873 193.055 288.967 192.971 289.169L192.217 291.001C192.217 291.001 190.302 291.895 189.105 291.895C188.346 291.895 187.136 291.417 186.352 291.066Z" fill="#E4E4E4"/>
<path fill-rule="evenodd" clip-rule="evenodd" d="M149.511 251.766C149.511 251.766 129.536 248.509 122.751 247.312C109.86 245.037 106.1 238.095 108.323 222.948L132.076 222.948C136.791 224.311 171.478 239.802 171.478 239.802C175.638 241.869 174.863 247.963 174.103 249.971C174.056 250.093 153.061 286.052 153.061 286.052L133.63 273.665L149.547 253.225C149.547 253.225 150.178 251.954 149.511 251.766Z" fill="#5C63AB"/>
<path fill-rule="evenodd" clip-rule="evenodd" d="M85.9936 242.003C87.2733 239.406 93.6667 205.971 93.6667 205.971L103.229 206.007C103.229 206.007 92.3046 241.424 91.631 243.095C90.756 245.265 92.2423 248.418 93.2502 250.556C93.4062 250.886 93.5506 251.193 93.6731 251.468C92.2746 252.094 91.6028 251.337 90.8946 250.539C90.0947 249.638 89.2482 248.684 87.2556 249.612C86.4858 249.97 85.7573 250.394 85.0456 250.808C82.5872 252.238 80.3287 253.551 77.2564 251.654C76.7694 251.354 76.2356 250.221 77.5252 249.336C80.7381 247.132 85.3681 243.273 85.9936 242.003ZM166.525 228.976L154.155 216.9L150.046 224.014L162.909 231.603C166.135 236.687 168.029 238.884 168.592 238.193C169.067 237.611 168.849 236.973 168.649 236.385C168.493 235.927 168.347 235.5 168.547 235.153C169.004 234.361 171.587 234.815 174.019 235.35C176.452 235.885 175.889 234.689 175.372 234.065C173.073 232.209 170.124 230.512 166.525 228.976Z" fill="#B28B67"/>
<path fill-rule="evenodd" clip-rule="evenodd" d="M122.802 178.828L126.578 178.18C132.526 199.221 163.088 213.563 164.964 221.429C165.652 224.313 163.577 225.772 164.649 226.65L159.741 230.245C158.91 229.275 157.136 231.05 153.432 229.808C149.729 228.567 122.802 203.742 122.802 178.828Z" fill="#FF9533"/>
<path fill-rule="evenodd" clip-rule="evenodd" d="M115.896 174.421C115.039 174.361 114.296 175.007 114.236 175.863L114.044 178.616C106.938 184.089 89.3258 200.441 84.7363 230.882C84.2542 234.079 85.1261 235.792 85.8227 237.161C86.2992 238.097 86.6938 238.872 86.5168 239.851L92.94 241.625C92.94 240.902 93.7495 240.352 94.7939 239.643C96.3126 238.611 98.3278 237.242 99.0729 234.513C99.7792 231.927 100.813 228.696 102.049 225.103C102.166 229.862 103.068 234.239 105.033 237.865C109.935 246.911 138.267 236.99 141.227 227.762C142.806 222.838 140.565 218.704 137.601 213.236C133.838 206.296 128.911 197.207 129.154 181.625L129.482 176.93C129.542 176.074 128.896 175.331 128.04 175.271L115.896 174.421Z" fill="#FFAA5C"/>
<path fill-rule="evenodd" clip-rule="evenodd" d="M245.995 145.972C243.163 147.678 240.381 148.503 239.075 148.166C235.8 147.322 235.499 135.34 238.033 130.617C240.567 125.893 253.595 123.835 254.251 133.193C254.479 136.442 253.115 139.341 251.1 141.706L254.713 158.547H244.217L245.995 145.972Z" fill="#B28B67"/>
<path fill-rule="evenodd" clip-rule="evenodd" d="M238.717 128.785C238.809 128.215 238.627 127.934 240.922 126.327C243.216 124.719 246.921 122.822 250.653 123.648C255.496 124.719 257.42 127.913 259.287 129.466C260.971 130.866 262.66 131.03 263.661 132.767C264.662 134.504 265.194 139.502 264.324 141.489C263.123 144.23 260.755 144.968 259.027 145.758C256.062 147.112 251.872 145.682 251.771 145.445C250.985 143.612 246.759 138.442 244.217 136.27C242.347 134.672 238.285 131.464 238.717 128.785Z" fill="#5C63AB"/>
<mask id="mask0" mask-type="alpha" maskUnits="userSpaceOnUse" x="238" y="123" width="27" height="24">
<path fill-rule="evenodd" clip-rule="evenodd" d="M238.717 128.785C238.809 128.215 238.627 127.934 240.922 126.327C243.216 124.719 246.921 122.822 250.653 123.648C255.496 124.719 257.42 127.913 259.287 129.466C260.971 130.866 262.66 131.03 263.661 132.767C264.662 134.504 265.194 139.502 264.324 141.489C263.123 144.23 260.755 144.968 259.027 145.758C256.062 147.112 251.872 145.682 251.771 145.445C250.985 143.612 246.759 138.442 244.217 136.27C242.347 134.672 238.285 131.464 238.717 128.785Z" fill="white"/>
</mask>
<g mask="url(#mask0)">
<path fill-rule="evenodd" clip-rule="evenodd" d="M234.82 171.241C247.731 155.318 250.769 136.115 250.769 136.115L254.658 138.575C254.658 138.575 249.875 159.56 234.82 171.241ZM229.908 179.99C250.802 161.631 255.785 141 255.785 141L260.283 142.326C260.283 142.326 254.084 165.397 229.908 179.99Z" fill="black" fill-opacity="0.2"/>
</g>
<path fill-rule="evenodd" clip-rule="evenodd" d="M261.695 195.476L245.263 249.301L237.303 295.076H231.061L239.473 195.476H261.695Z" fill="#997659"/>
<path fill-rule="evenodd" clip-rule="evenodd" d="M267.573 195.476C266.457 225.029 267.771 240.273 268.021 242.958C268.27 245.643 271.691 263.052 279.789 295.977L273.138 293.689C260.34 263.492 255.979 247.798 254.512 243.833C253.044 239.867 249.145 223.748 242.816 195.476H267.573Z" fill="#B28B67"/>
<path fill-rule="evenodd" clip-rule="evenodd" d="M278.622 293.124C279.038 292.938 279.534 293.124 279.69 293.551C280.011 294.427 280.471 295.817 280.471 296.588C280.471 297.771 280.077 300.042 280.077 300.042C278.707 300.042 255.448 300.042 255.448 300.042C255.448 300.042 254.488 296.862 256.557 296.608C258.625 296.355 259.993 296.15 259.993 296.15L271.485 291.017C271.685 290.928 271.92 291.022 272.003 291.224L272.758 293.059C272.758 293.059 274.673 293.954 275.87 293.954C276.628 293.954 277.838 293.475 278.622 293.124Z" fill="#E4E4E4"/>
<path fill-rule="evenodd" clip-rule="evenodd" d="M237.577 293.124C237.993 292.938 238.488 293.124 238.645 293.551C238.965 294.427 239.425 295.817 239.425 296.588C239.425 297.771 239.032 300.042 239.032 300.042C237.662 300.042 214.403 300.042 214.403 300.042C214.403 300.042 213.443 296.862 215.511 296.608C217.58 296.355 218.948 296.15 218.948 296.15L230.44 291.017C230.64 290.928 230.874 291.022 230.958 291.224L231.712 293.059C231.712 293.059 233.627 293.954 234.824 293.954C235.583 293.954 236.792 293.475 237.577 293.124Z" fill="#E4E4E4"/>
<path fill-rule="evenodd" clip-rule="evenodd" d="M263.878 195.476L256.891 222.899H235.551L238.733 195.476H263.878Z" fill="#69A1AC"/>
<path fill-rule="evenodd" clip-rule="evenodd" d="M267.808 195.476C271.257 205.832 269.118 222.899 269.118 222.899H247.342L241.354 195.476H267.808Z" fill="#89C5CC"/>
<path fill-rule="evenodd" clip-rule="evenodd" d="M201.38 151.876L218.486 154.488L215.275 162.046L201.458 156.342C195.451 156.826 192.554 156.635 192.766 155.77C192.946 155.04 193.587 154.83 194.178 154.637C194.638 154.486 195.068 154.345 195.224 153.977C195.581 153.136 193.663 151.347 191.77 149.727C189.877 148.107 191.172 147.837 191.982 147.875C194.851 148.593 197.984 149.927 201.38 151.876ZM211.606 195.24L223.997 183.173L228.109 190.279L215.226 197.864C211.994 202.944 210.097 205.139 209.533 204.45C209.058 203.868 209.276 203.23 209.477 202.643C209.633 202.185 209.779 201.758 209.579 201.412C209.121 200.621 206.535 201.075 204.099 201.61C201.663 202.145 202.227 200.95 202.745 200.327C205.047 198.472 208.001 196.776 211.606 195.24Z" fill="#B28B67"/>
<path fill-rule="evenodd" clip-rule="evenodd" d="M241.621 152.888C236.067 167.947 226.697 180.209 212.495 193.583L219.411 199.465C236.101 190.458 244.84 185.211 247.544 171.341C248.223 167.86 247.536 157.164 247.44 151.498L241.621 152.888Z" fill="#2026A2"/>
<path fill-rule="evenodd" clip-rule="evenodd" d="M269.207 196.582L235.861 201.269C235.861 201.269 242.344 165.184 240.783 152.294C240.73 151.856 241.43 150.973 241.801 151.023C245.88 151.578 250.081 149.016 250.081 149.016C259.77 160.597 264.699 175.838 269.207 196.582Z" fill="#F2F2F2"/>
<path fill-rule="evenodd" clip-rule="evenodd" d="M244.438 169.554C242.364 192.586 245.17 210.807 256.668 209.191L274.447 206.692C274.609 187.352 263.496 162.129 254.753 149.848C254.42 149.379 253.726 148.504 252.409 148.689L247.242 149.415C247.241 149.422 247.24 149.43 247.238 149.437C245.686 149.668 243.982 149.965 242.136 150.287C232.636 151.945 219.389 154.257 203.738 151.562L203.21 160.617C217.947 167.396 232.579 172.194 244.438 169.554Z" fill="#1F28CF"/>
</svg>
