<svg width="414" height="361" viewBox="0 0 414 361" fill="none" xmlns="http://www.w3.org/2000/svg">
<path d="M0 0H414V341.619C414 344.11 411.842 346.129 409.179 346.129H4.82096C2.15842 346.129 0 344.11 0 341.619V0Z" fill="#F5F5F5"/>
<g opacity="0.504511">
<path fill-rule="evenodd" clip-rule="evenodd" d="M388.215 265.841C393.636 300.413 262.155 322.964 148.987 307.226C35.818 291.489 -16.0983 230.033 37.9038 197.287C91.906 164.541 382.793 231.269 388.215 265.841Z" fill="#F2F2F2"/>
</g>
<path fill-rule="evenodd" clip-rule="evenodd" d="M225.567 121.778C227.613 120.445 230.787 121.294 232.846 122.081C233.64 122.385 235.668 123.355 237.172 124.448C236.973 123.691 236.796 122.927 236.641 122.157C236.005 118.991 235.567 115.765 235.356 112.557C235.301 111.72 235.372 110.786 235.445 109.839L235.445 109.838C235.469 109.517 235.494 109.195 235.514 108.875C235.431 108.8 235.376 108.695 235.353 108.554C235.344 108.612 235.339 108.659 235.335 108.695C235.329 108.753 235.326 108.782 235.315 108.785C235.305 108.788 235.286 108.764 235.247 108.713C235.232 108.694 235.215 108.671 235.194 108.645C233.672 106.703 232.393 104.516 232.218 102.111C232.069 100.072 234.034 96.2135 236.819 98.8846C238.065 100.078 237.741 108.456 235.87 108.969C236.37 111.745 236.998 114.517 237.786 117.253C237.904 117.235 238.024 117.234 238.143 117.247C238.132 116.567 238.131 115.825 238.163 115.57C238.444 113.371 240.597 108.906 244.026 109.773C246.66 110.439 245.046 113.181 244.149 114.381C242.706 116.314 241.073 117.15 239.006 118.155C238.964 118.57 238.65 118.812 238.28 118.89C239.664 123.309 241.483 127.619 243.863 131.69L243.926 131.431C244.229 130.196 244.581 128.755 244.804 128.452C245.971 126.869 248.554 124.934 250.935 125.871C255.937 127.842 250.508 133.506 246.249 134.122C246.072 134.331 245.885 134.499 245.686 134.595C246.513 135.824 247.397 137.027 248.344 138.2C249.763 139.963 251.288 141.72 252.886 143.468C252.936 142.101 253.569 139.055 253.748 138.727C254.84 136.74 257.987 134.694 260.54 136.106C263.412 137.699 260.808 140.707 259.17 142.069C258.499 142.627 255.178 144.672 254.007 144.682C257.87 148.802 262.134 152.852 266.469 156.756C266.109 155.008 265.64 150.196 265.693 149.662C265.962 146.905 268.086 142.495 272.271 143.569C276.33 144.61 274.534 149.191 273.145 151.375C272.303 152.696 271.139 154.039 269.735 154.961C269.482 155.127 269.152 155.263 268.822 155.398C268.424 155.561 268.027 155.724 267.768 155.94C267.537 156.132 267.466 156.353 267.395 156.571C267.321 156.802 267.248 157.031 266.986 157.223C269.329 159.323 271.688 161.38 274.014 163.379C275.111 164.323 276.228 165.249 277.356 166.162C277.973 165.944 278.853 166.231 278.807 166.977C278.801 167.085 278.771 167.179 278.732 167.264C279.587 167.943 280.447 168.616 281.314 169.283C281.294 169.089 281.3 168.815 281.34 168.437C280.716 169.195 280.742 168.091 280.762 167.25C280.769 166.953 280.775 166.688 280.752 166.55C280.66 166.009 280.541 165.474 280.423 164.94L280.423 164.94C280.169 163.798 279.917 162.66 279.93 161.482C279.957 158.981 281.814 154.788 285.72 156.278C289.313 157.645 288.006 161.351 286.651 163.675C285.793 165.146 284.619 166.459 283.392 167.716C283.173 167.94 282.93 168.244 282.69 168.545C282.333 168.992 281.981 169.431 281.721 169.595C285.057 172.146 288.471 174.622 291.885 177.098L291.886 177.099C293.415 178.208 294.944 179.317 296.466 180.433C296.533 180.188 296.587 179.945 296.634 179.718C296.539 179.81 296.41 179.852 296.243 179.844C296.199 179.656 296.135 179.407 296.058 179.107L296.058 179.107C295.118 175.449 292.254 164.309 300.008 166.468C305.689 168.054 301.679 177.755 297.442 181.148C300.013 183.043 302.56 184.962 305.047 186.938C306.847 188.368 308.594 189.847 310.274 191.375C309.404 189.396 308.585 186.835 309.123 184.796C309.906 181.829 313.574 179.028 317.155 180.716C321.619 182.83 318.185 185.716 314.964 188.423C313.319 189.805 311.73 191.141 311.277 192.302C316.618 197.315 321.178 202.884 324.225 209.228C327.538 216.126 330.614 225.396 328.913 233.114C329.227 229.721 327.884 225.459 326.94 222.467L326.94 222.466C326.812 222.059 326.691 221.675 326.582 221.32C325.165 216.679 323.151 212.163 320.497 207.936C316.246 201.166 310.631 195.419 304.148 190.202C302.672 190.641 301.069 191.454 299.741 192.127L299.741 192.127C298.927 192.54 298.216 192.9 297.702 193.089C295.221 194.003 290.459 195.312 288.879 192.435C287.325 189.606 291.291 188.024 293.748 187.39C296.124 186.778 298.265 186.852 300.481 187.354C297.049 184.757 293.534 182.243 290.02 179.729L290.019 179.728C289.373 179.266 288.727 178.804 288.081 178.341C287.188 178.966 286.201 179.87 285.154 180.829L285.154 180.83C281.829 183.875 277.889 187.483 274.371 184.535C269.062 180.087 279.216 175.565 283.542 175.918C284.073 175.961 284.587 176.057 285.088 176.187C280.677 172.99 276.333 169.728 272.226 166.236C271.488 166.351 270.315 167.277 268.905 168.389C265.737 170.889 261.375 174.33 258.09 171.62C255.719 169.665 256.531 166.618 258.823 164.877C261.124 163.127 264.461 163.13 267.297 163.72C268.523 163.973 269.654 164.457 270.708 165.046L270.76 165.049L270.839 165.052C266.797 161.58 262.73 158.03 258.813 154.358C258.779 154.368 258.744 154.377 258.71 154.387C258.675 154.396 258.64 154.406 258.604 154.416C258.368 154.664 257.971 154.754 257.608 154.699C257.408 154.758 257.203 154.818 256.994 154.88C253.892 155.794 249.904 156.969 246.812 156.462C244.536 156.089 242.471 154.51 244.397 152.565C245.964 150.984 250.213 151.211 252.285 151.586C253.296 151.769 254.397 152.299 255.502 152.831C255.966 153.054 256.431 153.278 256.89 153.477C257.009 153.271 257.217 153.14 257.454 153.076C253.586 149.387 249.895 145.57 246.548 141.587C245.535 141.721 244.411 142.101 243.252 142.493L243.252 142.493C240.463 143.436 237.47 144.448 235.322 142.268C232.15 139.05 238.115 137.172 240.95 137.477C241.907 137.58 242.851 137.812 243.763 138.118C241.327 134.839 239.466 131.334 238.16 127.653C238.147 127.658 238.135 127.664 238.123 127.669C238.105 127.678 238.087 127.687 238.064 127.696C238.084 127.686 238.101 127.677 238.118 127.668L238.118 127.667C238.131 127.66 238.144 127.653 238.157 127.647C238.027 127.278 237.902 126.908 237.783 126.537C237.561 126.432 237.354 126.354 237.255 126.323C238.543 127.081 233.109 127.452 232.091 127.521C229.841 127.675 226.827 127.732 225.176 126.158C223.789 124.837 223.87 122.884 225.567 121.778ZM329.155 233.125C329.059 234.243 328.822 235.268 328.38 236.112C328.712 235.151 328.966 234.151 329.155 233.125Z" fill="#F2F2F2"/>
<path opacity="0.2" fill-rule="evenodd" clip-rule="evenodd" d="M123.406 50.3487C121.913 49.3853 119.595 50.0007 118.091 50.5704C117.511 50.7901 116.03 51.4926 114.932 52.2829C115.077 51.7354 115.207 51.183 115.32 50.6262C115.786 48.3365 116.108 46.0036 116.263 43.6842C116.303 43.0792 116.252 42.4034 116.199 41.7187C116.181 41.4867 116.163 41.2537 116.149 41.0221C116.209 40.9673 116.25 40.8918 116.267 40.7894C116.273 40.8318 116.277 40.8659 116.28 40.8919C116.284 40.9335 116.286 40.9546 116.294 40.9568C116.302 40.9591 116.316 40.9412 116.344 40.9049C116.355 40.8909 116.368 40.8743 116.383 40.855C117.495 39.4508 118.429 37.8688 118.559 36.13C118.668 34.6553 117.235 31.8658 115.201 33.7982C114.29 34.6612 114.523 40.7192 115.889 41.0898C115.523 43.0974 115.063 45.1017 114.487 47.0805C114.4 47.0677 114.313 47.0666 114.226 47.0766C114.234 46.5847 114.235 46.0479 114.212 45.8634C114.008 44.2735 112.437 41.0461 109.934 41.6739C108.01 42.1564 109.188 44.1386 109.842 45.0062C110.895 46.4029 112.086 47.0074 113.596 47.7333C113.626 48.0335 113.855 48.208 114.125 48.2646C113.113 51.4604 111.783 54.5774 110.043 57.5219L109.997 57.3349L109.997 57.3346C109.777 56.4412 109.52 55.3997 109.357 55.181C108.506 54.0362 106.621 52.6383 104.882 53.3166C101.229 54.7432 105.191 58.8372 108.3 59.2814C108.429 59.4323 108.566 59.5535 108.711 59.6231C108.106 60.5119 107.46 61.3823 106.769 62.2303C105.732 63.5057 104.618 64.7771 103.45 66.0411C103.414 65.0528 102.953 62.8502 102.823 62.6136C102.026 61.1767 99.7293 59.6988 97.8644 60.7207C95.7671 61.8727 97.6669 64.0473 98.8622 65.0313C99.3521 65.4348 101.776 66.9129 102.631 66.9192C99.8086 69.9 96.6938 72.8299 93.527 75.6538C93.79 74.3901 94.1346 70.9101 94.0966 70.5239C93.9013 68.5304 92.3524 65.3425 89.2965 66.1208C86.3318 66.8747 87.6411 70.1865 88.6549 71.7651C89.2689 72.7205 90.1182 73.6912 91.1426 74.3573C91.3273 74.4772 91.5684 74.5752 91.8092 74.673C92.0996 74.7909 92.3893 74.9085 92.5786 75.0643C92.7474 75.2032 92.7991 75.3627 92.8503 75.5209C92.9045 75.688 92.9581 75.8535 93.1487 75.9917C91.4372 77.5113 89.7139 78.9992 88.0152 80.4458C87.2137 81.1286 86.3977 81.7981 85.5736 82.4593C85.123 82.3016 84.4803 82.5095 84.5135 83.0487C84.5183 83.127 84.5397 83.1945 84.5685 83.2565C83.944 83.7474 83.3155 84.2348 82.6822 84.7169C82.6967 84.5766 82.6926 84.3786 82.6637 84.1052C83.1192 84.6529 83.1006 83.8549 83.0864 83.2467C83.0814 83.0317 83.077 82.8405 83.0942 82.7406C83.1614 82.3497 83.2483 81.9627 83.335 81.5762C83.5204 80.7505 83.7051 79.9275 83.6964 79.0756C83.6776 77.2671 82.3239 74.2362 79.4706 75.3143C76.8471 76.3039 77.7998 78.9838 78.7883 80.6637C79.414 81.7268 80.2706 82.6759 81.1659 83.5845C81.3255 83.7467 81.5027 83.9663 81.678 84.1837L81.6781 84.1838L81.6781 84.1838C81.9385 84.5066 82.195 84.8246 82.3848 84.943C79.9483 86.7886 77.4546 88.58 74.9606 90.3716L74.96 90.372C73.8431 91.1744 72.7261 91.9768 71.6143 92.7841C71.5659 92.607 71.5261 92.4314 71.4917 92.2672C71.5612 92.3335 71.6558 92.3644 71.7771 92.3583C71.8096 92.2225 71.8565 92.0422 71.9129 91.8255C72.6009 89.1803 74.6966 81.1235 69.0344 82.6873C64.8859 83.8363 67.8094 90.8496 70.9015 93.302C69.0233 94.6728 67.163 96.0611 65.3461 97.4908C64.0314 98.5253 62.7555 99.5953 61.5281 100.701C62.1638 99.2697 62.763 97.4172 62.3713 95.9432C61.801 93.7983 59.1241 91.7739 56.5086 92.9957C53.2481 94.5255 55.7546 96.6116 58.105 98.5679C59.3051 99.5668 60.4646 100.532 60.7949 101.372C56.8932 104.998 53.5615 109.026 51.3342 113.614C48.9118 118.604 46.6619 125.308 47.9006 130.888C47.6728 128.434 48.6555 125.353 49.3456 123.188C49.4396 122.894 49.5282 122.616 49.6075 122.359C50.6445 119.003 52.1169 115.736 54.0564 112.679C57.1632 107.783 61.2655 103.625 66.0009 99.8505C67.0785 100.167 68.2487 100.755 69.218 101.241L69.218 101.241L69.2181 101.241C69.8126 101.539 70.3314 101.8 70.7068 101.936C72.5175 102.596 75.9941 103.541 77.1491 101.461C78.2848 99.4145 75.3898 98.2717 73.5956 97.814C71.8616 97.3723 70.2981 97.4264 68.6801 97.7898C71.1864 95.9113 73.7537 94.0922 76.3206 92.2735L76.3213 92.273L76.3254 92.2701C76.7962 91.9365 77.267 91.6029 77.7374 91.269C78.3894 91.7208 79.1094 92.374 79.8739 93.0675L79.8739 93.0675C82.3003 95.2685 85.1749 97.8761 87.7448 95.7436C91.6231 92.5253 84.2112 89.2591 81.0525 89.5157C80.6647 89.547 80.2895 89.6163 79.9237 89.7105C83.1462 87.3977 86.3189 85.0373 89.3195 82.5111C89.8578 82.5939 90.7142 83.263 91.743 84.0668C94.0552 85.8733 97.2382 88.3601 99.638 86.3999C101.37 84.9849 100.779 82.7824 99.1059 81.5237C97.4263 80.2595 94.9901 80.2627 92.9193 80.6896C92.0242 80.8732 91.1982 81.2234 90.4281 81.65L90.3325 81.6545C93.2853 79.1423 96.2561 76.5739 99.1176 73.9179C99.1675 73.9314 99.2187 73.9453 99.2699 73.9594C99.4428 74.1385 99.7323 74.2038 99.9975 74.1641C100.144 74.2064 100.293 74.2499 100.445 74.2943C102.71 74.9543 105.621 75.8026 107.879 75.4352C109.541 75.1648 111.05 74.0222 109.644 72.6168C108.501 71.4738 105.398 71.6394 103.885 71.9109C103.147 72.0435 102.343 72.4273 101.536 72.8123L101.536 72.8124C101.197 72.9741 100.857 73.1361 100.522 73.2798C100.435 73.1314 100.283 73.0361 100.11 72.9904C102.936 70.3214 105.633 67.5602 108.078 64.6791C108.818 64.7757 109.638 65.0501 110.484 65.3331C112.52 66.014 114.705 66.7448 116.275 65.1682C118.592 62.8401 114.238 61.4838 112.168 61.7057C111.468 61.7806 110.779 61.9483 110.114 62.1699C111.894 59.798 113.253 57.2629 114.209 54.6007C114.218 54.6047 114.227 54.6087 114.236 54.6128C114.249 54.6191 114.262 54.6255 114.279 54.6316C114.265 54.6251 114.252 54.6182 114.239 54.6114L114.239 54.6113C114.23 54.6063 114.221 54.6012 114.211 54.5963C114.306 54.33 114.398 54.0624 114.485 53.7939C114.647 53.7178 114.798 53.6617 114.87 53.6386C113.929 54.1872 117.897 54.4538 118.64 54.5037C120.283 54.6138 122.484 54.6543 123.69 53.516C124.703 52.5598 124.644 51.1479 123.406 50.3487ZM47.6547 130.668C47.7273 131.413 47.9429 132.093 48.3674 132.65C48.0558 132.013 47.8221 131.35 47.6547 130.668Z" fill="#C1DEE2"/>
<g opacity="0.7">
<path fill-rule="evenodd" clip-rule="evenodd" d="M321.174 207.173C327.069 206.867 334.36 210.308 334.989 216.717C335.446 221.373 335.304 226.015 336.011 230.665C336.577 234.38 337.773 237.947 339.403 241.332C340.972 244.586 344.225 247.357 345.071 250.834C345.61 253.049 345.308 256.166 344.564 258.333C343.66 260.968 344.141 260.759 345.943 262.97C349.474 267.303 352.654 271.746 354.902 276.92C358.141 284.373 360.264 293.085 359.062 301.244C358.909 302.28 358.728 305.998 357.301 306.258C355.708 306.548 356.453 304.422 356.538 303.735C357.08 299.352 357.562 295.522 356.908 291.07C354.385 273.897 342.065 262.582 334.042 248.006C333.601 247.254 332.67 245.465 332.023 244.284C331.001 242.42 329.974 238.872 328.59 237.49C325.985 234.886 328.38 240.121 328.888 241.12C329.53 242.385 330.236 243.728 330.894 244.836C333.904 249.971 337.263 255.577 340.372 260.87C326.928 263.933 317.46 247.771 313.852 237.145C310.879 228.39 307.323 207.922 321.174 207.173Z" fill="#69A1AC"/>
<path fill-rule="evenodd" clip-rule="evenodd" d="M400.188 190.916C390.333 191.698 384.006 198.201 381.061 207.296C379.473 212.198 379.291 217.234 378.409 222.271C377.082 229.85 374.227 235.593 368.647 240.992C366.919 242.665 365.645 244.382 364.74 246.218C362.943 248.052 361.378 250.128 360.229 252.665C358.761 255.906 358.345 259.794 360.041 263.024C360.496 263.893 361.633 265.636 362.812 266.428C358.4 275.825 355.974 286.116 356.247 296.393C356.413 302.598 356.716 308.804 357.069 315.001C357.164 316.665 357.706 319.412 358.52 316.622C359.265 314.07 358.33 310.063 358.244 307.397C357.824 294.407 357.464 282.597 362.811 270.461C363.372 269.189 363.966 267.927 364.585 266.675C364.622 266.654 364.656 266.629 364.69 266.604C364.713 266.622 364.735 266.642 364.758 266.66C364.798 266.589 364.852 266.505 364.915 266.411C365.093 266.228 365.248 265.997 365.395 265.738C365.87 265.081 366.406 264.309 366.409 263.886C366.409 263.883 366.407 263.878 366.407 263.874C369.718 258.471 373.509 253.365 377.382 248.36C377.352 248.396 381.582 242.637 380.928 245.822C380.613 247.357 377.502 250.279 376.245 251.905C373.466 255.522 370.202 260.104 367.489 264.536C367.124 264.745 366.609 265.775 366.236 266.542C366.03 266.931 365.838 267.323 365.649 267.664C375.26 270.84 382.736 264.443 387.834 257.004C387.84 256.995 387.845 256.986 387.851 256.977C389.403 254.922 390.992 252.88 392.977 251.255C396.29 248.544 399.837 248.066 403.742 246.731C414.392 243.092 418.921 229.29 420.359 219.048C421.981 207.494 414.044 189.776 400.188 190.916Z" fill="#89C5CC"/>
<path fill-rule="evenodd" clip-rule="evenodd" d="M380.721 158.559C370.607 169.087 365.72 183.688 361.85 197.415C357.529 212.746 354.674 228.314 354.565 244.255C354.493 254.727 354.208 265.265 354.819 275.726C355.036 279.441 355.407 283.162 355.995 286.838C356.044 287.14 357.361 295.345 358.622 293.433C359.339 292.346 357.271 284.921 357.115 283.684C356.236 276.719 356.032 269.702 356.075 262.686C356.146 251.135 355.805 239.642 356.976 228.134C357.15 226.415 357.288 224.61 357.697 222.929C358.13 221.142 357.578 221.922 358.99 221.215C360.361 220.527 362.056 220.625 363.479 219.762C369.124 216.34 372.012 207.547 374.259 201.778C376.83 195.181 378.392 188.146 379.64 181.203C380.556 176.102 381.212 171.032 381.582 165.866C381.699 164.237 381.706 162.535 382.026 160.933C382.112 160.502 382.545 159.738 382.529 159.355C382.496 158.546 382.007 158.07 381.967 157.389C381.544 157.77 381.128 158.161 380.721 158.559Z" fill="#89C5CC"/>
<path fill-rule="evenodd" clip-rule="evenodd" d="M325.568 298.818C325.568 316.228 339.682 330.341 357.091 330.341C374.501 330.341 388.614 316.228 388.614 298.818" fill="#89C5CC"/>
<path fill-rule="evenodd" clip-rule="evenodd" d="M378.694 271.218C386.496 270.643 395.209 276.937 398.972 283.487C402.006 288.768 401.494 295.702 399.621 301.313C398.366 305.069 395.627 310.424 391.06 310.477C385.347 310.542 385.071 303.48 384.961 299.352C384.814 293.863 384.12 289.082 379.795 285.341C379.261 284.879 378.701 284.447 378.141 284.014C377.643 283.631 377.146 283.247 376.667 282.843C376.591 282.778 376.514 282.714 376.437 282.649C374.908 281.363 373.301 280.013 373.106 277.895C372.822 274.824 374.556 274.272 377.202 274.842C377.287 274.861 377.519 274.949 377.834 275.068C379.186 275.58 382.07 276.673 381.524 275.367C381.319 274.874 380.568 274.484 379.622 274.192C377.171 273.926 374.249 273.616 373.409 273.801C364.342 275.79 360.813 288.349 359.875 296.328C359.774 297.189 359.692 298.053 359.621 298.918H357.955C358.071 296.829 358.223 294.742 358.573 292.676C359.909 284.772 364.087 273.164 373.25 271.881C373.588 271.834 374.832 271.826 376.338 271.914C377.052 271.515 377.852 271.274 378.694 271.218Z" fill="#69A1AC"/>
</g>
<g opacity="0.5">
<path fill-rule="evenodd" clip-rule="evenodd" d="M70.4594 149.6C72.274 147.013 75.6415 140.442 78.1956 139.517C79.8406 138.921 79.361 145.082 79.3813 146.256C79.4604 150.801 79.018 155.316 78.4717 159.822C77.4874 167.949 74.2689 175.187 69.8544 182.104C67.5829 185.663 64.9185 189.265 61.2282 191.486C59.5296 192.508 57.4857 192.68 55.8081 193.561C53.8544 194.587 54.9184 193.757 54.0379 195.793C52.8152 198.62 52.4241 202.266 51.8584 205.282C49.2608 219.127 42.9721 292.316 44.0624 306.399C44.1592 307.648 42.4186 307.946 42.3318 306.422C41.8699 298.342 45.8662 242.388 47.8825 224.09C49.8987 205.791 51.939 189.626 53.9848 183.295C56.4667 175.614 60.9491 166.378 64.6804 159.216C66.4136 155.888 68.3028 152.675 70.4594 149.6Z" fill="#69A1AC"/>
<path fill-rule="evenodd" clip-rule="evenodd" d="M83.929 239.347C88.651 235.88 93.7621 242.423 89.4892 245.89C87.1271 247.806 84.6576 247.125 83.2673 245.528C82.3648 246.628 81.5201 247.778 80.7085 248.75C78.2356 251.71 75.8983 254.741 73.6646 257.843C69.0243 264.287 65.0477 271.095 60.8899 277.779C56.7866 284.375 52.7162 291.005 48.9971 297.769C45.8464 303.499 41.647 310.24 40.5684 316.522C42.205 303.199 48.4153 290.393 55.8107 278.648C63.1459 266.999 71.5639 254.277 82.9215 245.084C81.7656 243.384 81.7335 240.958 83.929 239.347Z" fill="#C1DEE2"/>
<path fill-rule="evenodd" clip-rule="evenodd" d="M-5.67385 206.853C-3.03145 207.37 1.28621 213.347 3.46433 215.625C6.05289 218.331 8.40135 221.216 10.6151 224.239C15.3807 230.744 19.6427 237.661 23.2669 244.874C29.1753 256.633 33.9086 268.704 37.3439 281.509C39.4467 289.347 40.8082 297.471 41.615 305.538C41.7674 307.06 43.3626 318.79 41.0641 319.106C38.9968 319.391 39.6353 310.199 39.5356 308.949C38.4083 294.843 35.0311 281.119 30.3335 267.824C29.3102 264.928 28.3596 261.38 26.7233 258.774C25.5449 256.897 26.7148 257.551 24.6439 256.841C22.8658 256.23 20.8398 256.38 19.0189 255.632C15.0631 254.01 11.8957 250.861 9.11925 247.693C3.72362 241.537 -0.552135 234.877 -2.78091 226.989C-4.01728 222.615 -5.15344 218.216 -5.78393 213.707C-5.94703 212.541 -7.3758 206.52 -5.67385 206.853Z" fill="#69A1AC"/>
<path fill-rule="evenodd" clip-rule="evenodd" d="M4.75359 107.399C14.707 124.661 22.8862 143.623 28.1677 162.828C31.3676 174.464 33.6054 186.404 35.8288 198.258C39.2714 216.613 42.5276 234.966 43.4539 253.647C44.3858 272.436 46.2285 294.107 40.0761 312.204C43.1492 293.831 40.2234 274.274 39.7053 255.787C39.4578 246.961 38.7404 238.222 37.7993 229.448C36.8861 220.937 35.3941 212.466 34.0048 204.022C33.328 199.91 32.6172 195.803 31.8936 191.699C31.6775 190.475 31.5863 186.841 30.8095 186.005C30.0278 185.163 26.0392 184.82 24.7869 184.202C22.2654 182.957 19.8935 181.19 17.7943 179.322C13.7701 175.742 10.2693 171.065 7.50622 166.453C1.11307 155.784 -1.4429 142.763 -1.31371 130.406C-1.28889 128.007 2.56947 102.172 1.01989 101.816C1.11319 101.707 1.20144 101.594 1.28466 101.477C2.45782 103.441 3.60904 105.418 4.75359 107.399Z" fill="#89C5CC"/>
<path fill-rule="evenodd" clip-rule="evenodd" d="M112.184 169.655C112.337 169.434 113.337 167.893 112.833 167.992C113.858 167.791 111.424 169.691 113.977 168.525C112.765 169.67 113.465 171.158 113.481 172.699C113.507 175.201 113.089 177.682 112.617 180.131C111.873 184.001 110.763 187.764 109.153 191.363C105.644 199.208 99.6847 206.76 92.6102 211.664C89.1177 214.086 85.6949 214.91 81.7117 216.025C79.1957 216.729 78.9962 218.031 77.6607 220.472C74.8803 225.557 72.1495 230.624 69.6975 235.881C66.7696 242.158 63.9273 248.441 61.2462 254.829C52.2141 276.345 44.8628 298.635 41.0021 321.704C40.9076 308.11 44.0524 294.109 48.0192 281.151C50.9089 271.71 54.6706 262.61 58.6829 253.602C59.6552 251.419 61.1285 248.612 61.5414 246.202C61.8305 244.514 60.9467 242.891 60.542 241.112C58.9643 234.187 59.0772 226.429 60.4627 219.466C61.9902 211.789 66.4078 208.226 73.8809 207.138C76.6139 206.741 80.0876 206.886 82.5937 205.721C85.324 204.452 86.4503 200.281 88.0028 197.603C92.1729 190.411 97.1276 183.513 102.817 177.453C104.392 175.775 106.086 174.226 107.884 172.791C109.017 171.886 111.411 170.771 112.184 169.655Z" fill="#89C5CC"/>
<path fill-rule="evenodd" clip-rule="evenodd" d="M26.2516 309.497C26.0593 308.193 27.0697 307.022 28.3876 307.022H54.9086C56.2264 307.022 57.2368 308.193 57.0446 309.497L54.9947 323.396C54.3699 327.633 50.7339 330.772 46.4508 330.772H36.8454C32.5623 330.772 28.9263 327.633 28.3014 323.396L26.2516 309.497Z" fill="#C1DEE2"/>
</g>
<path fill-rule="evenodd" clip-rule="evenodd" d="M4.47656 314.129C4.47656 323.321 5.20197 330.773 14.9386 330.773C24.6752 330.773 25.4006 323.321 25.4006 314.129" fill="#F2F2F2"/>
<path fill-rule="evenodd" clip-rule="evenodd" d="M17.8346 308.393C17.4777 309.01 17.1595 309.639 16.8784 310.278C16.8685 308.963 16.9412 307.637 17.1399 306.294C17.4795 303.992 17.9982 301.703 18.4856 299.417C18.8359 297.775 18.8137 294.824 20.1431 293.515C20.5076 293.232 20.5954 293.787 20.5954 294.028C20.6 294.079 20.5944 293.045 20.2405 293.225C18.1373 294.311 17.4558 297.727 16.7825 299.437C15.8001 301.933 14.9642 304.485 14.62 307.082C14.533 307.738 14.4857 308.394 14.4747 309.048C14.4033 308.873 14.3361 308.697 14.2618 308.522C13.0479 305.675 11.4097 302.897 9.36651 300.335C8.8636 299.705 2.53993 293.485 2.0449 294.437C2.09375 294.575 2.19601 294.69 2.35194 294.781C2.3611 294.791 2.36136 294.785 2.35601 294.77C2.72741 295.37 3.78335 296.297 4.11226 296.822C4.94002 298.145 5.58335 299.549 6.23711 300.926C7.6184 303.836 8.89972 306.776 10.1419 309.721C10.4311 310.407 10.7325 311.09 11.0401 311.77C7.86973 307.197 3.64038 303.046 -2.18164 300.669C-0.193142 301.681 1.11056 303.584 2.45344 305.041C4.07309 306.799 5.77897 308.509 7.40167 310.265C9.31563 312.337 11.5677 314.518 13.4086 316.81C15.1918 320.554 16.9247 324.301 17.9944 328.237C17.5561 326.877 17.96 324.998 17.885 323.571C17.8255 322.435 17.6927 321.309 17.5108 320.184C17.7357 320.691 17.9295 321.199 18.0173 321.671C17.9371 320.879 17.8448 320.092 17.7456 319.31C18.0002 318.577 18.2503 317.893 18.4192 317.33C19.2848 314.44 20.3156 311.601 21.7193 308.833C23.0181 306.272 24.508 303.745 26.1315 301.294C26.8888 300.152 27.6565 299.013 28.4194 297.873C28.9188 297.127 29.3942 295.931 30.0894 295.216C25.5955 299.325 20.6857 303.463 17.8346 308.393Z" fill="#F2F2F2"/>
<path fill-rule="evenodd" clip-rule="evenodd" d="M407.457 72.471C406.169 68.1739 403.144 64.8106 400.004 61.729C393.892 55.7298 390.604 52.0205 388.426 43.2448C387.145 38.0837 385.841 32.6143 381.777 28.8698C378.819 26.143 373.726 23.852 369.769 25.8046C363.682 29.4379 362.047 36.8941 362.661 43.5706C363.422 51.8457 367.288 56.9482 374.713 59.9961C378.898 61.7127 381.679 63.9777 383.95 67.9245C385.767 71.0805 386.827 75.0324 389.11 77.8934C392.523 82.1702 396.794 84.0714 402.059 83.361C397.128 74.2879 391.366 65.1295 384.417 57.4903C383.766 56.7223 379.929 53.7828 380.703 52.4739C381.556 51.0327 385.495 56.4463 385.467 56.4136C387.486 58.7319 389.355 61.1953 391.19 63.6824C391.186 63.6849 391.18 63.6862 391.175 63.6887C393.064 66.2409 394.939 68.8306 396.777 71.4527C397.521 72.5619 398.245 73.6853 398.938 74.8368C399.954 76.5265 401.568 81.3222 403.232 82.3612C403.588 82.5833 403.917 82.7075 404.224 82.7587C405.36 84.6174 406.464 86.491 407.515 88.3867C410.258 93.3379 412.613 98.5657 413.694 104.156C414.009 105.787 413.786 111.89 414.899 113.068C416.936 115.222 416.339 111.074 416.217 109.822C415.206 99.4521 411.483 90.6179 406.078 81.9003C407.739 79.7317 407.978 74.2121 407.457 72.471Z" fill="#F2F2F2"/>
<path fill-rule="evenodd" clip-rule="evenodd" d="M337.717 77.4813C339.864 74.9521 345.024 74.5229 348.18 74.6922C352.086 74.9017 356.097 75.8524 359.812 77.0019C365.933 78.8953 371.88 82.3505 377.27 85.6949C377.92 86.0978 385.923 90.9106 385.214 91.7552C384.512 92.592 376.656 86.8752 374.905 85.8898C371.169 83.7866 367.742 81.2994 363.624 79.9105C359.359 78.4721 354.849 77.9026 350.365 77.9418C349.789 77.947 347.912 77.5457 347.872 78.3971C347.832 79.2299 350.938 78.7954 351.486 78.8004C353.748 78.8212 356.025 79.0341 358.255 79.4262C362.433 80.1606 366.362 81.6403 369.941 83.9098C368.942 86.2316 366.548 87.3022 364.037 86.7212C361.867 86.2187 359.751 84.9801 357.626 84.6219C356.162 84.3753 354.697 84.522 353.277 84.9343C349.533 86.0224 347.374 88.2513 343.258 86.7009C340.031 85.4854 334.634 81.1187 337.717 77.4813Z" fill="#F2F2F2"/>
<path fill-rule="evenodd" clip-rule="evenodd" d="M328.485 36.7272C323.719 36.3796 318.396 40.1837 316.097 44.1424C314.243 47.3342 314.556 51.5254 315.7 54.9163C316.467 57.1865 318.14 60.4233 320.93 60.4548C324.421 60.4943 324.589 56.2261 324.657 53.7309C324.747 50.4136 325.17 47.5239 327.813 45.2627C328.139 44.9837 328.481 44.7224 328.823 44.4611C329.127 44.2292 329.431 43.9973 329.724 43.7531C329.77 43.714 329.817 43.675 329.864 43.6358C330.799 42.8589 331.78 42.043 331.899 40.7625C332.073 38.9067 331.014 38.5728 329.397 38.9176C329.345 38.9287 329.203 38.9818 329.011 39.054C328.185 39.3636 326.423 40.0243 326.756 39.2345C326.882 38.937 327.34 38.7012 327.919 38.5245C329.416 38.3635 331.201 38.1766 331.715 38.2882C337.254 39.4904 339.41 47.0807 339.983 51.9032C340.048 52.4493 340.1 52.9972 340.145 53.546H341.16C341.089 52.2572 340.996 50.9705 340.779 49.6961C339.962 44.9193 337.41 37.9033 331.811 37.128C331.605 37.0991 330.845 37.0943 329.925 37.1476C329.489 36.9065 329 36.7607 328.485 36.7272Z" fill="#F2F2F2"/>
<path fill-rule="evenodd" clip-rule="evenodd" d="M189.726 123.882C193.245 126.003 196.702 127.028 198.325 126.609C202.394 125.56 202.768 110.674 199.619 104.806C196.471 98.9369 180.285 96.379 179.469 108.007C179.186 112.042 180.88 115.644 183.384 118.582L178.895 139.507H191.935L189.726 123.882Z" fill="#B28B67"/>
<path fill-rule="evenodd" clip-rule="evenodd" d="M190.376 109.292C191.504 107.612 192.587 106.331 193.995 105.587C199.728 105.678 200.399 104.65 200.399 101.186C199.473 100.523 196.206 99.4078 192.547 99.0939C190.681 98.5598 188.47 98.6603 186.34 99.5512C183.711 100.297 181.484 101.904 180.501 104.912C176.943 111.052 179.644 117.443 183.283 119.627C184.251 118.479 185.097 117.367 185.851 116.302C185.245 115.71 184.869 114.884 184.869 113.97C184.869 112.17 186.329 110.71 188.129 110.71C188.261 110.71 188.392 110.718 188.52 110.733C188.601 112.984 188.934 120.6 189.81 123.245C190.842 126.364 196.867 127.13 198.969 127.13C200.784 127.13 200.722 125.411 200.678 124.18C200.671 124.002 200.665 123.835 200.665 123.684C200.665 123.37 200.256 123.37 199.794 123.371C199.193 123.373 198.503 123.374 198.503 122.685C198.503 121.934 199.541 121.358 200.469 120.843C201.049 120.521 201.586 120.223 201.802 119.921C202.483 118.967 202.712 117.681 201.685 117.681C201.123 117.681 200.352 118.005 199.425 118.395C198.025 118.983 196.269 119.721 194.337 119.721C191.15 119.721 190.387 109.456 190.376 109.292Z" fill="#191847"/>
<path fill-rule="evenodd" clip-rule="evenodd" d="M174.547 184.603L194.245 253.729L208.618 304.679H219.1L203.828 184.603H174.547Z" fill="#191847"/>
<path fill-rule="evenodd" clip-rule="evenodd" d="M169.278 184.603C168.822 220.231 167.269 239.664 166.79 242.901C166.312 246.138 159.078 266.731 145.09 304.679H155.949C173.758 268.274 183.699 247.681 185.773 242.901C187.846 238.121 194.246 218.688 203.886 184.603H169.278Z" fill="#2F3676"/>
<path fill-rule="evenodd" clip-rule="evenodd" d="M144.121 314.459L144.664 303.049L156.074 303.049C164.19 308.754 177.264 312.285 177.264 312.285V314.459H156.618L149.554 313.372V314.459H144.121Z" fill="#191847"/>
<path fill-rule="evenodd" clip-rule="evenodd" d="M207.146 314.459L207.69 303.049L219.1 303.049C227.215 308.754 240.29 312.285 240.29 312.285V314.459H219.643L212.58 313.372V314.459H207.146Z" fill="#191847"/>
<path fill-rule="evenodd" clip-rule="evenodd" d="M132.367 204.319C134.393 201.342 146.115 169.683 146.115 169.683L155.738 171.08C155.738 171.08 140.243 204.699 139.124 206.639C137.671 209.159 138.957 213.299 139.828 216.106C139.963 216.54 140.088 216.943 140.192 217.302C138.36 217.831 137.663 216.783 136.929 215.678C136.099 214.429 135.221 213.108 132.605 213.906C131.595 214.214 130.624 214.609 129.675 214.996C126.399 216.331 123.389 217.557 119.931 214.689C119.383 214.235 118.921 212.748 120.664 211.882C125.004 209.724 131.376 205.774 132.367 204.319ZM236.785 189.604L220.383 175.699L215.901 184.88L232.525 193.176C236.969 199.203 239.511 201.763 240.15 200.858C240.689 200.094 240.364 199.321 240.064 198.61C239.83 198.055 239.612 197.538 239.831 197.09C240.33 196.069 243.574 196.407 246.64 196.859C249.705 197.312 248.903 195.878 248.207 195.149C245.193 193.045 241.385 191.197 236.785 189.604Z" fill="#B28B67"/>
<path fill-rule="evenodd" clip-rule="evenodd" d="M186.334 130.45L192.297 128.478C200.386 148.685 212.45 168.236 232.606 184.75L227.621 193.349C209.907 182.914 193.139 174.808 186.334 159.151C184.051 153.895 186.148 136.734 186.334 130.45Z" fill="#C5CFD6"/>
<path fill-rule="evenodd" clip-rule="evenodd" d="M165.854 187.32C165.854 187.32 191.476 190.037 206.189 187.32C207.404 187.096 207.595 185.061 207.032 183.68C198.256 162.177 192.238 143.414 192.238 128.479C189.823 129.696 183.784 128.844 183.784 128.844C172.964 144.235 167.99 161.895 165.854 187.32Z" fill="#323337"/>
<path fill-rule="evenodd" clip-rule="evenodd" d="M180.684 127.553C180.963 127.366 181.11 127.272 181.11 127.272L181.094 127.553H185.603C185.83 128.886 186.162 133.825 186.646 141.027C188.404 167.198 192.171 223.249 200.187 244.699H144.873C146.04 220.313 155.031 191.15 164.345 166.387C157.472 173.225 149.446 184.688 142.959 203.769L132.598 201.109C143.156 155.612 174.09 132.147 180.094 127.959C180.153 127.823 180.211 127.688 180.269 127.553H180.684Z" fill="#DDE3E9"/>
</svg>
