<svg width="414" height="347" viewBox="0 0 414 347" fill="none" xmlns="http://www.w3.org/2000/svg">
<mask id="mask0" mask-type="alpha" maskUnits="userSpaceOnUse" x="0" y="0" width="414" height="347">
<path d="M0 0H414V341.619C414 344.11 411.842 346.129 409.179 346.129H4.82096C2.15842 346.129 0 344.11 0 341.619V0Z" fill="#EE8282"/>
</mask>
<g mask="url(#mask0)">
<rect width="414" height="346.13" fill="#F7F7F7"/>
<g filter="url(#filter0_d)">
<rect x="55" y="-0.113281" width="144.925" height="102.532" rx="12.8165" fill="white"/>
</g>
<path fill-rule="evenodd" clip-rule="evenodd" d="M133.787 71.8882C140.687 76.0324 147.468 78.0347 150.65 77.2173C158.631 75.1677 159.365 46.0786 153.19 34.6108C147.015 23.143 115.269 18.1446 113.669 40.866C113.114 48.7518 116.437 55.7894 121.348 61.5319L112.543 102.419H138.118L133.787 71.8882Z" fill="#EFD1B4"/>
<path fill-rule="evenodd" clip-rule="evenodd" d="M164.521 18.7136C163.991 16.8588 162.566 15.2707 160.647 14.7996C160.181 14.6853 159.7 14.6392 159.221 14.6584C159.05 14.6652 159.001 14.7146 158.921 14.5949C158.861 14.5061 158.86 14.2893 158.836 14.185C158.759 13.8606 158.664 13.5403 158.546 13.2283C158.145 12.164 157.469 11.2222 156.656 10.4288C155.134 8.94447 153.077 7.92006 150.94 7.73473C149.771 7.63335 148.61 7.82266 147.504 8.20168C146.932 8.39789 146.377 8.64221 145.836 8.91233C145.674 8.99363 145.146 9.39183 144.982 9.36603C144.802 9.33758 144.439 8.89092 144.293 8.7788C142.48 7.39287 140.241 6.84796 137.982 6.86463C135.433 6.88338 132.979 7.01028 130.853 8.55847C130.403 8.88625 129.974 9.24513 129.566 9.62297C129.351 9.8219 129.143 10.0283 128.945 10.2432C128.825 10.3729 128.708 10.5056 128.596 10.6417C128.406 10.8729 128.436 10.9488 128.169 10.7875C127.146 10.1682 125.961 9.87858 124.767 10.0248C124.058 10.1117 123.368 10.3238 122.713 10.603C122.49 10.698 121.973 11.0771 121.736 11.0808C121.5 11.0844 120.991 10.733 120.748 10.6437C119.436 10.1611 118.022 10.0422 116.642 10.2651C115.22 10.4952 113.823 11.0607 112.617 11.8421C112.038 12.218 111.532 12.6345 111.126 13.1934C110.95 13.4347 110.792 13.69 110.593 13.9137C110.476 14.0448 110.246 14.1792 110.183 14.345C110.221 14.2457 108.628 13.6338 108.477 13.5947C107.676 13.3863 106.861 13.4285 106.077 13.6857C104.602 14.1692 103.334 15.2536 102.291 16.3654C101.756 16.9364 101.287 17.5676 100.89 18.2401C100.699 18.5623 100.525 18.8936 100.365 19.232C100.288 19.3959 100.237 19.601 100.135 19.7486C100.004 19.9389 99.9158 19.9426 99.6781 20.0255C98.4712 20.4468 97.371 21.1599 96.5331 22.1234C95.6856 23.0983 95.1357 24.2987 94.9051 25.5629C94.8916 25.6374 94.8835 25.946 94.8397 25.9863C94.7797 26.0418 94.537 26.0172 94.4452 26.028C94.1273 26.0651 93.8116 26.1204 93.5001 26.1939C92.9259 26.3293 92.367 26.5286 91.8383 26.7892C89.7773 27.8052 88.3035 29.7099 87.5822 31.8531C86.8253 34.1023 86.8387 36.6792 87.7433 38.8864C87.8895 39.2429 88.0633 39.589 88.2675 39.9163C88.3929 40.1173 88.4334 40.1178 88.352 40.3286C88.2612 40.5632 88.0954 40.7911 87.9877 41.0203C87.6361 41.7682 87.3903 42.5615 87.235 43.3717C86.9803 44.7008 86.8541 46.0974 87.1053 47.4366C87.222 48.0584 87.4253 48.6662 87.7355 49.2201C87.8936 49.5025 88.0786 49.7703 88.2876 50.018C88.396 50.1467 88.5112 50.2695 88.6317 50.3872C88.7006 50.4544 88.791 50.5133 88.8495 50.5884C88.9926 50.7715 89.0226 50.6209 88.9489 50.8898C88.8458 51.2657 88.612 51.6366 88.4688 52.0023C88.3213 52.3793 88.1879 52.7614 88.066 53.1472C87.819 53.9286 87.6101 54.7241 87.4796 55.5332C87.2288 57.0868 87.2728 58.7421 88.0104 60.168C88.3257 60.7778 88.7781 61.3129 89.3268 61.729C89.5954 61.9326 89.8863 62.1081 90.1914 62.2523C90.3482 62.3265 90.5484 62.3582 90.62 62.5093C90.697 62.6718 90.5827 62.9944 90.5566 63.1761C90.3298 64.7562 90.2161 66.4152 90.6875 67.9637C91.1217 69.3899 92.0778 70.6492 93.319 71.4829C95.7269 73.1002 98.9727 73.009 101.503 71.7142C102.162 71.3767 102.779 70.9576 103.33 70.4633C104.731 72.3431 107.615 72.2837 109.664 71.748C112.216 71.0808 114.263 69.3127 115.443 66.9898C117.057 68.9465 120.442 68.3116 121.561 66.1889C121.835 65.6694 121.997 65.0968 122.077 64.5174C122.119 64.2127 122.092 63.9053 122.124 63.6031C122.164 63.2179 122.423 62.8436 122.571 62.471C122.86 61.7458 123.04 60.9968 123.047 60.2146C123.051 59.8062 122.999 59.4082 122.96 59.0031C122.925 58.6385 123.027 58.2987 123.085 57.9388C122.43 58.0461 121.633 57.8703 121.016 57.6812C120.411 57.4957 119.844 57.007 119.417 56.5606C118.425 55.5242 117.819 54.1656 117.405 52.8135C116.496 49.8457 116.868 46.285 119.864 44.6562C121.26 43.8974 125.442 43.8999 127.104 44.2749C128.852 44.6692 130.833 48.5119 130.931 48.8731C130.991 49.0966 130.961 49.3733 131.167 49.5222C131.62 49.8497 132.367 49.2814 132.701 49.0009C133.278 48.5168 133.689 47.8726 134.045 47.2197C134.821 45.7973 135.447 44.2719 135.889 42.7148C136.229 41.5142 136.447 40.2762 136.892 39.1063C137.336 37.9422 138.034 36.9017 139.12 36.2422C140.302 35.5248 141.656 35.147 142.953 34.6961C144.239 34.2493 145.502 33.7032 146.499 32.7552C146.718 32.5467 146.931 32.3252 147.107 32.0797C147.247 31.886 147.384 31.515 147.596 31.3922C147.926 31.2011 148.407 31.6981 148.693 31.8785C150.1 32.7689 151.274 34.0107 152.22 35.3673C153.162 36.7165 153.935 38.0147 154.562 39.5213C155.028 40.6386 155.319 42.0696 156.138 42.9853C156.503 43.3942 159.221 43.6415 160.102 43.2846C160.982 42.9276 161.969 42.0007 162.264 41.4198C162.567 40.8253 162.639 40.1721 162.51 39.5213C162.434 39.1383 162.278 38.7806 162.194 38.4045C162.122 38.0886 162.057 37.79 161.903 37.5005C161.61 36.9521 161.11 36.5579 160.508 36.393C161.135 35.8169 161.655 35.1276 162.014 34.3572C162.388 33.5567 162.705 32.5833 162.794 31.7048C162.868 30.9912 162.755 30.2519 162.363 29.6386C161.951 28.9954 161.223 28.5757 160.592 28.1744C161.555 27.4237 162.38 26.5108 163.057 25.5001C164.375 23.5345 165.19 21.0569 164.521 18.7136Z" fill="#191847"/>
<g filter="url(#filter1_d)">
<rect x="55" y="126.08" width="144.925" height="102.532" rx="12.8165" fill="white"/>
</g>
<path fill-rule="evenodd" clip-rule="evenodd" d="M133.787 198.082C140.687 202.226 147.468 204.228 150.65 203.411C158.631 201.361 159.365 172.272 153.19 160.804C147.015 149.336 115.269 144.338 113.669 167.059C113.114 174.945 116.437 181.983 121.348 187.725L112.543 228.612H138.118L133.787 198.082Z" fill="#B28B67"/>
<path fill-rule="evenodd" clip-rule="evenodd" d="M102.52 159.496C101.694 158.681 101.243 157.516 100.854 156.411C100.449 155.263 100.056 154.103 99.7868 152.907C99.2498 150.519 99.2447 147.773 100.955 145.919C102.326 144.432 104.383 143.765 106.282 143.62C107.548 143.523 108.847 143.7 110.06 144.097C111.263 144.491 112.3 145.276 113.467 145.764C113.511 143.19 113.954 140.498 115.264 138.3C116.525 136.186 118.535 135 120.825 134.686C123.175 134.364 125.495 134.912 127.599 136.045C128.126 136.329 128.648 136.626 129.147 136.963C129.565 137.245 130 137.584 130.491 137.699C131.037 137.827 131.309 137.512 131.664 137.115C132.081 136.648 132.55 136.238 133.047 135.874C135.244 134.265 138.127 133.603 140.672 134.568C141.845 135.012 142.985 135.767 143.781 136.807C144.49 137.734 144.996 139.204 145.975 139.85C146.39 140.124 146.684 139.761 147.062 139.492C147.63 139.089 148.172 138.644 148.747 138.251C149.554 137.7 150.429 137.288 151.365 137.072C152.736 136.756 154.63 136.83 155.022 138.619C155.169 139.291 155.057 140.009 155.009 140.686C154.944 141.616 154.876 142.545 154.795 143.474C154.733 144.178 154.656 144.859 154.522 145.551C154.451 145.92 154.228 146.608 154.387 146.977C154.585 147.439 155.501 147.176 155.892 147.193C156.665 147.224 157.441 147.359 158.156 147.688C158.709 147.943 159.292 148.318 159.525 148.951C159.669 149.339 159.631 149.738 159.563 150.138C159.482 150.618 159.575 150.872 159.636 151.356C160.674 150.847 164.27 149.715 164.723 151.569C164.874 152.186 164.53 152.883 164.269 153.403C163.81 154.316 163.208 155.151 162.592 155.946C161.309 157.606 159.776 159.038 158.127 160.262C160.059 161.118 160.563 163.641 158.891 165.145C158.152 165.809 157.16 165.957 156.228 165.914C155.887 165.899 155.396 165.768 155.127 165.827C154.983 165.859 154.828 165.981 154.628 165.995C153.314 166.084 151.83 165.769 150.545 165.478C148.255 164.96 146.087 163.879 144.317 162.233C143.863 161.811 143.488 161.568 142.876 161.574C142.341 161.58 141.815 161.726 141.28 161.739C139.864 161.775 138.587 161.086 137.273 160.627C137.192 162.396 136.686 164.345 135.96 165.938C135.367 167.236 134.13 167.425 132.914 167.538C129.026 167.903 125.124 167.496 121.231 167.502C125 168.35 128.894 168.7 132.629 169.699C134.317 170.15 133.028 171.284 132.306 172.07C131.117 173.364 130.234 174.967 129.621 176.657C127.777 174.263 124.519 172.685 121.632 173.421C118.442 174.233 116.196 178.531 118.236 181.62C119.42 183.414 121.559 184.106 123.338 184.877C121.95 186.315 121.614 188.438 120.779 190.227C120.367 191.109 119.788 192.107 118.867 192.414C118.526 192.528 118.126 192.538 117.857 192.815C117.524 193.158 117.444 193.541 117.019 193.835C115.321 195.012 112.669 194.921 111.164 193.386C109.803 191.998 110.157 189.802 111.294 188.394C109.485 187.643 106.189 186.677 106.908 183.868C102.987 183.609 93.4688 177.274 98.7305 172.645C95.8429 171.019 93.1899 167.045 95.0448 163.542C96.473 160.845 99.7947 159.639 102.52 159.496Z" fill="#191847"/>
<g filter="url(#filter2_d)">
<rect x="55" y="252.273" width="144.925" height="102.532" rx="12.8165" fill="white"/>
</g>
<path fill-rule="evenodd" clip-rule="evenodd" d="M133.787 324.275C140.687 328.419 147.468 330.421 150.65 329.604C158.631 327.554 159.365 298.465 153.19 286.998C147.015 275.53 115.269 270.531 113.669 293.253C113.114 301.139 116.437 308.176 121.348 313.919L112.543 354.806H138.118L133.787 324.275Z" fill="#E8C19D"/>
<path fill-rule="evenodd" clip-rule="evenodd" d="M155.606 292.147C155.352 290.661 154.733 289.01 154.234 287.604C153.59 285.791 152.615 284.156 151.542 282.616C149.523 279.715 147.1 277.096 144.426 274.922C139.54 270.952 133.321 268.661 127.205 269.405C124.117 269.781 121.119 270.954 118.568 272.907C116.263 274.672 114.046 277.27 111.061 277.457C107.813 277.66 104.836 274.804 102.231 273.04C99.2947 271.051 96.1704 269.602 92.738 269.039C86.988 268.096 81.5863 270.031 77.6234 274.732C73.4064 279.733 70.341 287.069 73.1103 293.696C73.6251 294.928 74.2873 295.967 75.2377 296.827C76.1094 297.617 77.4406 298.457 77.794 299.718C78.1694 301.059 77.0481 302.788 76.6132 303.998C75.9903 305.731 75.4788 307.55 75.6607 309.434C75.9594 312.528 77.9108 315.481 79.9713 317.515C82.0681 319.584 84.6489 320.771 87.4053 321.318C89.2459 321.683 91.1269 321.884 92.9975 321.747C93.9261 321.679 94.7456 321.422 95.6453 321.218C96.5202 321.019 97.0092 321.251 97.7515 321.729C101.2 323.95 104.908 324.809 108.89 324.479C112.25 324.2 116.124 323.389 118.865 321.094C121.909 318.547 121.849 315.033 121.132 311.279C121.891 311.654 123.991 311.886 122.736 310.392C122.239 309.801 121.3 309.56 120.662 309.212C119.92 308.807 119.166 308.283 118.589 307.622C116.26 304.953 118.612 299.522 121.539 298.627C125.887 297.298 126.861 303.425 129.965 305.01C131.75 305.921 133.617 304.675 134.954 303.404C136.745 301.7 137.966 299.443 139.02 297.146C139.888 295.255 140.696 293.336 141.581 291.454C141.994 290.576 143.424 288.091 142.706 287.097C145.82 286.478 149.289 287.768 151.972 289.459C153.08 290.158 153.925 290.929 154.517 292.163C154.643 292.427 154.919 293.213 155.266 293.246C155.91 293.306 155.669 292.521 155.606 292.147Z" fill="#191847"/>
<g filter="url(#filter3_d)">
<rect x="215.699" y="-0.113281" width="144.925" height="102.532" rx="12.8165" fill="white"/>
</g>
<path fill-rule="evenodd" clip-rule="evenodd" d="M294.486 71.8882C301.387 76.0324 308.167 78.0347 311.35 77.2173C319.33 75.1677 320.064 46.0786 313.889 34.6108C307.714 23.143 275.969 18.1446 274.368 40.866C273.813 48.7518 277.136 55.7894 282.047 61.5319L273.242 102.419H298.817L294.486 71.8882Z" fill="#9D7B5C"/>
<path fill-rule="evenodd" clip-rule="evenodd" d="M303.789 22.1213C300.294 21.0595 295.221 20.6995 293.087 20.9431C294.301 18.0452 294.782 14.8166 294.39 11.673C294.008 8.61835 292.638 6.01745 291.371 3.29202C290.787 2.03577 290.125 0.786368 289.139 -0.174518C288.133 -1.15346 286.861 -1.79965 285.527 -2.10793C284.161 -2.42349 282.733 -2.39721 281.366 -2.11084C280.761 -1.98417 280.218 -1.70858 279.625 -1.55538C279.017 -1.39841 278.722 -1.77731 278.281 -2.15808C277.219 -3.07558 275.66 -3.5285 274.316 -3.69061C272.807 -3.87239 271.242 -3.64567 269.803 -3.15158C268.403 -2.67058 267.058 -1.88951 266.045 -0.751632C265.594 -0.245127 265.185 0.331387 264.919 0.967898C264.81 1.22911 264.792 1.38385 264.531 1.47954C264.289 1.56812 264.006 1.57069 263.756 1.65499C261.341 2.46978 259.277 4.32856 258.153 6.71516C257.497 8.10749 257.187 10.5589 257.272 13.3065C257.357 16.0541 259.847 23.2234 262.176 25.8385C264.255 28.1726 267.31 29.7129 270.259 30.3872C268.302 32.6163 266.999 35.4018 266.035 38.2347C264.989 41.312 264.341 44.5095 264.102 47.7673C263.875 50.8627 263.854 54.136 264.582 57.1653C265.263 59.9982 266.72 62.3221 269.153 63.7964C270.267 64.4718 271.466 64.9792 272.671 65.4429C273.86 65.8998 275.052 66.3441 276.296 66.6005C278.652 67.0856 281.366 67.0023 283.181 65.1341C283.835 64.4607 284.554 63.6144 285.031 62.7916C285.203 62.4958 285.306 62.3022 285.098 62.013C284.848 61.6667 284.444 61.4013 284.124 61.1303C282.294 59.5854 281.162 57.5229 280.877 55.0718C280.587 52.5849 281.257 49.375 283.684 48.2897C286.68 46.9499 289.979 48.4877 292.641 49.9212C293.773 45.9421 296.096 42.3593 299.739 40.5341C303.769 38.5149 308.393 38.2786 312.535 36.546C313.614 36.0945 314.713 35.582 315.508 34.6622C315.84 34.2777 316.229 33.779 316.362 33.2705C316.536 32.6026 316.104 32.0426 315.77 31.5219C313.999 28.7609 307.283 23.183 303.789 22.1213Z" fill="#191847"/>
<g filter="url(#filter4_d)">
<rect x="215.699" y="126.08" width="144.925" height="102.532" rx="12.8165" fill="white"/>
</g>
<path fill-rule="evenodd" clip-rule="evenodd" d="M294.486 198.082C301.387 202.226 308.167 204.228 311.35 203.411C319.33 201.361 320.064 172.272 313.889 160.804C307.714 149.336 275.969 144.338 274.368 167.059C273.813 174.945 277.136 181.983 282.047 187.725L273.242 228.612H298.817L294.486 198.082Z" fill="#F2B983"/>
<path fill-rule="evenodd" clip-rule="evenodd" d="M280.082 192.841C276.872 178.612 267.728 168.913 269.124 162.554C270.521 156.195 276.569 154.645 276.569 154.645C276.569 154.645 279.697 142.037 296.746 143.919C313.795 145.802 324.201 152.856 319.707 168.379C315.576 168.379 310.589 166.89 303.694 169.441C300.412 170.654 298.999 176.968 298.999 176.968H295.883C295.883 176.968 291.347 169.475 286.937 171.461C282.528 173.447 284.932 181.11 284.932 181.11L283.397 192.841H280.082Z" fill="#191847"/>
<g filter="url(#filter5_d)">
<rect x="215.699" y="252.273" width="144.925" height="102.532" rx="12.8165" fill="white"/>
</g>
<path fill-rule="evenodd" clip-rule="evenodd" d="M291.243 273.054C279.537 273.054 270.047 282.544 270.047 294.25V319.808C270.047 331.237 279.093 340.554 290.417 340.988C290.417 341.001 290.418 341.015 290.419 341.028H321.322C326.103 336.374 321.618 307.232 317.981 293.352C317.511 282.062 308.209 273.054 296.804 273.054H291.243Z" fill="#191847"/>
<path fill-rule="evenodd" clip-rule="evenodd" d="M294.486 324.275C301.387 328.419 308.167 330.421 311.35 329.604C319.33 327.554 320.064 298.465 313.889 286.998C307.714 275.53 275.969 270.531 274.368 293.253C273.813 301.139 277.136 308.176 282.047 313.919L273.242 354.806H298.817L294.486 324.275Z" fill="#FFE2C8"/>
<path fill-rule="evenodd" clip-rule="evenodd" d="M270.985 293.386C271.727 292.654 272.446 291.947 273.159 291.313L273.124 290.488C273.124 290.488 281.151 274.115 293.491 274.115C305.82 274.115 309.719 279.826 313.034 284.68L313.042 284.693C311.309 290.62 306.084 293.018 300.175 295.73C297.631 296.897 294.961 298.123 292.387 299.713C291.379 298.897 290.094 298.408 288.694 298.408C285.457 298.408 282.833 301.022 282.833 304.247C282.833 307.472 285.457 310.087 288.694 310.087C288.783 310.087 288.872 310.085 288.961 310.081C290.139 322.692 289.667 337.094 286.155 340.512H255.252C254.365 325.156 258.352 320.775 262.426 316.298C266.26 312.086 270.171 307.789 270.171 294.185C270.446 293.917 270.717 293.65 270.985 293.386Z" fill="#191847"/>
</g>
<defs>
<filter id="filter0_d" x="39.2258" y="-8.00038" width="176.474" height="134.081" filterUnits="userSpaceOnUse" color-interpolation-filters="sRGB">
<feFlood flood-opacity="0" result="BackgroundImageFix"/>
<feColorMatrix in="SourceAlpha" type="matrix" values="0 0 0 0 0 0 0 0 0 0 0 0 0 0 0 0 0 0 127 0"/>
<feOffset dy="7.8871"/>
<feGaussianBlur stdDeviation="7.8871"/>
<feColorMatrix type="matrix" values="0 0 0 0 0 0 0 0 0 0 0 0 0 0 0 0 0 0 0.1 0"/>
<feBlend mode="normal" in2="BackgroundImageFix" result="effect1_dropShadow"/>
<feBlend mode="normal" in="SourceGraphic" in2="effect1_dropShadow" result="shape"/>
</filter>
<filter id="filter1_d" x="39.2258" y="118.193" width="176.474" height="134.081" filterUnits="userSpaceOnUse" color-interpolation-filters="sRGB">
<feFlood flood-opacity="0" result="BackgroundImageFix"/>
<feColorMatrix in="SourceAlpha" type="matrix" values="0 0 0 0 0 0 0 0 0 0 0 0 0 0 0 0 0 0 127 0"/>
<feOffset dy="7.8871"/>
<feGaussianBlur stdDeviation="7.8871"/>
<feColorMatrix type="matrix" values="0 0 0 0 0 0 0 0 0 0 0 0 0 0 0 0 0 0 0.1 0"/>
<feBlend mode="normal" in2="BackgroundImageFix" result="effect1_dropShadow"/>
<feBlend mode="normal" in="SourceGraphic" in2="effect1_dropShadow" result="shape"/>
</filter>
<filter id="filter2_d" x="39.2258" y="244.386" width="176.474" height="134.081" filterUnits="userSpaceOnUse" color-interpolation-filters="sRGB">
<feFlood flood-opacity="0" result="BackgroundImageFix"/>
<feColorMatrix in="SourceAlpha" type="matrix" values="0 0 0 0 0 0 0 0 0 0 0 0 0 0 0 0 0 0 127 0"/>
<feOffset dy="7.8871"/>
<feGaussianBlur stdDeviation="7.8871"/>
<feColorMatrix type="matrix" values="0 0 0 0 0 0 0 0 0 0 0 0 0 0 0 0 0 0 0.1 0"/>
<feBlend mode="normal" in2="BackgroundImageFix" result="effect1_dropShadow"/>
<feBlend mode="normal" in="SourceGraphic" in2="effect1_dropShadow" result="shape"/>
</filter>
<filter id="filter3_d" x="199.925" y="-8.00038" width="176.474" height="134.081" filterUnits="userSpaceOnUse" color-interpolation-filters="sRGB">
<feFlood flood-opacity="0" result="BackgroundImageFix"/>
<feColorMatrix in="SourceAlpha" type="matrix" values="0 0 0 0 0 0 0 0 0 0 0 0 0 0 0 0 0 0 127 0"/>
<feOffset dy="7.8871"/>
<feGaussianBlur stdDeviation="7.8871"/>
<feColorMatrix type="matrix" values="0 0 0 0 0 0 0 0 0 0 0 0 0 0 0 0 0 0 0.1 0"/>
<feBlend mode="normal" in2="BackgroundImageFix" result="effect1_dropShadow"/>
<feBlend mode="normal" in="SourceGraphic" in2="effect1_dropShadow" result="shape"/>
</filter>
<filter id="filter4_d" x="199.925" y="118.193" width="176.474" height="134.081" filterUnits="userSpaceOnUse" color-interpolation-filters="sRGB">
<feFlood flood-opacity="0" result="BackgroundImageFix"/>
<feColorMatrix in="SourceAlpha" type="matrix" values="0 0 0 0 0 0 0 0 0 0 0 0 0 0 0 0 0 0 127 0"/>
<feOffset dy="7.8871"/>
<feGaussianBlur stdDeviation="7.8871"/>
<feColorMatrix type="matrix" values="0 0 0 0 0 0 0 0 0 0 0 0 0 0 0 0 0 0 0.1 0"/>
<feBlend mode="normal" in2="BackgroundImageFix" result="effect1_dropShadow"/>
<feBlend mode="normal" in="SourceGraphic" in2="effect1_dropShadow" result="shape"/>
</filter>
<filter id="filter5_d" x="199.925" y="244.386" width="176.474" height="134.081" filterUnits="userSpaceOnUse" color-interpolation-filters="sRGB">
<feFlood flood-opacity="0" result="BackgroundImageFix"/>
<feColorMatrix in="SourceAlpha" type="matrix" values="0 0 0 0 0 0 0 0 0 0 0 0 0 0 0 0 0 0 127 0"/>
<feOffset dy="7.8871"/>
<feGaussianBlur stdDeviation="7.8871"/>
<feColorMatrix type="matrix" values="0 0 0 0 0 0 0 0 0 0 0 0 0 0 0 0 0 0 0.1 0"/>
<feBlend mode="normal" in2="BackgroundImageFix" result="effect1_dropShadow"/>
<feBlend mode="normal" in="SourceGraphic" in2="effect1_dropShadow" result="shape"/>
</filter>
</defs>
</svg>
