<svg width="473" height="371" viewBox="0 0 473 371" fill="none" xmlns="http://www.w3.org/2000/svg">
<path fill-rule="evenodd" clip-rule="evenodd" d="M343.175 229.894C338.258 187.909 74.4373 106.874 25.46 146.641C-23.5175 186.408 23.5682 261.041 126.207 280.152C228.845 299.263 348.092 271.878 343.175 229.894Z" fill="#F2F2F2"/>
<path fill-rule="evenodd" clip-rule="evenodd" d="M120.261 200.801C124.802 165.133 368.426 96.291 413.654 130.075C458.882 163.858 447.434 234.919 352.653 251.155C257.872 267.39 115.721 236.469 120.261 200.801Z" fill="#DDE3E9" fill-opacity="0.5"/>
<path fill-rule="evenodd" clip-rule="evenodd" d="M324.691 86.5925C338.385 86.5925 349.487 75.4908 349.487 61.7962C349.487 48.1017 338.385 37 324.691 37C310.996 37 299.895 48.1017 299.895 61.7962C299.895 75.4908 310.996 86.5925 324.691 86.5925Z" fill="#F2F2F2"/>
<path fill-rule="evenodd" clip-rule="evenodd" d="M324.69 43.5493C325.465 43.5493 326.094 42.9209 326.094 42.1457C326.094 41.3706 325.465 40.7422 324.69 40.7422C323.915 40.7422 323.286 41.3706 323.286 42.1457C323.286 42.9209 323.915 43.5493 324.69 43.5493Z" fill="black" fill-opacity="0.1"/>
<path fill-rule="evenodd" clip-rule="evenodd" d="M305.041 63.1997C305.816 63.1997 306.445 62.5713 306.445 61.7961C306.445 61.021 305.816 60.3926 305.041 60.3926C304.266 60.3926 303.638 61.021 303.638 61.7961C303.638 62.5713 304.266 63.1997 305.041 63.1997Z" fill="black" fill-opacity="0.1"/>
<path fill-rule="evenodd" clip-rule="evenodd" d="M344.34 63.1997C345.115 63.1997 345.744 62.5713 345.744 61.7961C345.744 61.021 345.115 60.3926 344.34 60.3926C343.565 60.3926 342.937 61.021 342.937 61.7961C342.937 62.5713 343.565 63.1997 344.34 63.1997Z" fill="black" fill-opacity="0.1"/>
<path fill-rule="evenodd" clip-rule="evenodd" d="M324.69 82.8501C325.465 82.8501 326.094 82.2217 326.094 81.4465C326.094 80.6714 325.465 80.043 324.69 80.043C323.915 80.043 323.286 80.6714 323.286 81.4465C323.286 82.2217 323.915 82.8501 324.69 82.8501Z" fill="black" fill-opacity="0.1"/>
<path fill-rule="evenodd" clip-rule="evenodd" d="M324.69 44.9531L325.626 61.328H323.755L324.69 44.9531Z" fill="#AFB9C5"/>
<path fill-rule="evenodd" clip-rule="evenodd" d="M332.97 70.0757L324.369 62.7976L325.692 61.4743L332.97 70.0757Z" fill="#AFB9C5"/>
<path fill-rule="evenodd" clip-rule="evenodd" d="M324.691 63.6667C325.724 63.6667 326.562 62.8288 326.562 61.7952C326.562 60.7617 325.724 59.9238 324.691 59.9238C323.657 59.9238 322.819 60.7617 322.819 61.7952C322.819 62.8288 323.657 63.6667 324.691 63.6667Z" fill="#C5CFD6"/>
<g clip-path="url(#clip0)">
<path fill-rule="evenodd" clip-rule="evenodd" d="M169.159 98.0983C180.141 98.0983 189.043 93.3854 189.043 87.5716C189.043 81.7579 180.141 77.0449 169.159 77.0449C158.178 77.0449 149.276 81.7579 149.276 87.5716C149.276 93.3854 158.178 98.0983 169.159 98.0983Z" fill="#F2F2F2"/>
<path fill-rule="evenodd" clip-rule="evenodd" d="M192.317 94.8224C192.317 81.9029 181.949 71.4297 169.159 71.4297C156.368 71.4297 146 81.9029 146 94.8224" fill="#DDE3E9"/>
<rect x="167.989" width="2.33927" height="74.8566" fill="#DDE3E9"/>
</g>
<g opacity="0.7" clip-path="url(#clip1)">
<path fill-rule="evenodd" clip-rule="evenodd" d="M205.417 74.3889C213.626 74.3889 220.28 70.5855 220.28 65.8937C220.28 61.2019 213.626 57.3984 205.417 57.3984C197.209 57.3984 190.555 61.2019 190.555 65.8937C190.555 70.5855 197.209 74.3889 205.417 74.3889Z" fill="#F2F2F2"/>
<path fill-rule="evenodd" clip-rule="evenodd" d="M222.729 71.7455C222.729 61.3193 214.978 52.8672 205.418 52.8672C195.858 52.8672 188.108 61.3193 188.108 71.7455" fill="#DDE3E9"/>
<rect x="204.482" width="2.33927" height="63.6281" fill="#DDE3E9"/>
</g>
<g clip-path="url(#clip2)">
<path d="M352.071 161.952L370.048 151.675C371.199 151.017 372.612 151.017 373.763 151.675L417.075 176.435C419.407 177.768 420.846 180.248 420.846 182.934V334.948" stroke="#CBCBCB" stroke-width="3.74283"/>
<rect x="406.81" y="334.48" width="27.6034" height="3.27498" rx="1.40356" fill="#AFB9C5"/>
<path d="M335.462 156.853C341.491 150.823 351.267 150.823 357.296 156.853C363.326 162.882 363.326 172.658 357.296 178.687L348.033 187.95L326.199 166.116L335.462 156.853Z" fill="#C5CFD6"/>
<path fill-rule="evenodd" clip-rule="evenodd" d="M335.335 178.933C341.364 184.962 347.215 188.887 348.403 187.699C349.59 186.512 345.665 180.661 339.636 174.632C333.606 168.603 327.756 164.678 326.568 165.865C325.381 167.053 329.306 172.903 335.335 178.933Z" fill="#F2F2F2"/>
</g>
<path fill-rule="evenodd" clip-rule="evenodd" d="M65.1108 226.522C66.451 226.359 67.8814 226.416 69.1277 226.945C71.778 228.07 72.5313 231.201 72.4949 233.746C72.4558 236.485 71.8741 239.477 73.9566 241.684C74.9138 242.699 76.1046 243.475 77.0445 244.508C78.0489 245.612 78.837 246.876 79.4205 248.233C80.4919 250.724 81.0177 253.655 80.038 256.269C79.1754 258.571 77.0051 260.648 77.474 263.265C77.9632 265.995 80.7157 268.082 82.4366 270.116C84.3841 272.417 86.1773 275.358 86.4718 278.376C86.7543 281.268 85.4954 284.193 83.5633 286.38C79.703 290.748 73.9004 292.89 68.0496 292.877C65.5656 292.871 62.7531 292.759 60.6094 291.424C59.9468 291.011 59.5973 290.548 59.2034 289.905C58.8503 289.328 58.3838 288.952 57.8438 288.544C56.6575 287.647 55.8008 286.438 55.2541 285.085C53.131 279.83 54.8279 273.329 57.7997 268.662C58.5039 267.556 59.0805 266.492 58.7384 265.174C58.3814 263.799 57.504 262.558 56.7279 261.375C55.961 260.207 55.0856 259.092 54.4862 257.828C53.8584 256.504 53.6817 255.118 53.7926 253.669C54.001 250.948 55.1758 248.437 56.839 246.248C58.4409 244.14 60.3219 242.123 60.3261 239.361C60.3307 236.433 58.3736 233.829 59.2074 230.853C59.5526 229.62 60.246 228.356 61.3635 227.617C62.4353 226.908 63.8503 226.676 65.1108 226.522Z" fill="#DDE3E9"/>
<path fill-rule="evenodd" clip-rule="evenodd" d="M64.2352 231.203C64.2603 230.81 64.7267 230.574 65.0939 230.676C65.5771 230.811 65.5678 231.263 65.5551 231.665C65.516 232.902 65.695 234.104 65.9922 235.304C66.61 237.798 67.7518 240.096 68.6564 242.493C69.5602 244.887 69.9845 247.359 69.4543 249.892C68.9545 252.281 68.1692 254.608 67.6577 257C67.2068 259.108 66.7271 261.331 67.4137 263.433C68.0744 265.457 69.5351 267.106 70.5869 268.935C72.7643 272.721 73.7303 276.921 73.8595 281.244C73.9194 283.251 73.8655 285.277 73.3998 287.245C73.1318 288.379 72.7717 289.911 71.8003 290.693C71.3523 291.054 70.5862 291.179 70.2092 290.645C69.8553 290.143 70.1658 289.367 70.2782 288.833C70.7648 286.52 70.8627 284.157 70.7462 281.808C70.6334 279.533 70.3647 277.263 69.6487 275.09C68.9843 273.074 67.9748 271.263 66.7867 269.499C65.5761 267.702 64.3175 265.901 63.8172 263.771C63.309 261.608 63.7219 259.408 64.274 257.286C64.8579 255.042 65.6227 252.862 66.4133 250.679C67.1838 248.551 67.4569 246.538 67.0316 244.312C66.1913 239.913 63.9421 235.784 64.2352 231.203Z" fill="#C5CFD6"/>
<path fill-rule="evenodd" clip-rule="evenodd" d="M100.495 231.861C102.154 232.365 103.801 233.177 104.983 234.451C107.497 237.161 106.726 241.255 105.338 244.246C103.844 247.465 101.581 250.7 102.857 254.394C103.443 256.092 104.43 257.629 104.986 259.34C105.58 261.169 105.837 263.073 105.804 264.981C105.744 268.485 104.812 272.224 102.281 274.806C100.052 277.079 96.4089 278.407 95.5756 281.746C94.7063 285.229 96.8315 289.129 97.7751 292.429C98.843 296.164 99.3916 300.575 98.142 304.298C96.9446 307.865 93.9219 310.669 90.5002 312.25C83.6635 315.408 75.7256 314.922 68.8702 311.862C65.9597 310.563 62.7202 308.968 60.9114 306.274C60.3524 305.441 60.1871 304.712 60.0653 303.746C59.9561 302.88 59.6073 302.193 59.1899 301.429C58.2725 299.752 57.9065 297.876 57.9804 295.992C58.268 288.672 63.6947 281.866 69.6471 277.893C71.0574 276.952 72.296 275.994 72.5913 274.257C72.8998 272.444 72.5265 270.521 72.2413 268.718C71.9596 266.937 71.522 265.163 71.4869 263.357C71.4503 261.465 71.9757 259.734 72.8715 258.078C74.5544 254.968 77.2596 252.61 80.3671 250.887C83.3603 249.227 86.6327 247.82 88.0976 244.556C89.6504 241.096 88.7313 236.998 91.2825 233.912C92.3389 232.634 93.8206 231.499 95.5218 231.206C97.1534 230.926 98.9357 231.388 100.495 231.861Z" fill="#DDE3E9"/>
<path fill-rule="evenodd" clip-rule="evenodd" d="M97.1071 237.582C97.3424 237.13 98.0113 237.095 98.3869 237.409C98.8812 237.822 98.6338 238.352 98.4082 238.822C97.7148 240.266 97.2947 241.783 97.0139 243.36C96.4299 246.638 96.5613 249.958 96.364 253.27C96.1669 256.579 95.3684 259.729 93.4215 262.451C91.5861 265.018 89.4493 267.362 87.5985 269.926C85.9673 272.186 84.2421 274.567 83.9437 277.417C83.6563 280.16 84.5011 282.878 84.7731 285.595C85.3362 291.22 84.2659 296.701 82.1532 301.887C81.1719 304.296 80.048 306.666 78.4725 308.754C77.5654 309.956 76.3419 311.581 74.7962 311.999C74.0834 312.191 73.1222 311.937 72.9613 311.107C72.81 310.328 73.5795 309.572 73.9907 308.998C75.771 306.514 77.1234 303.766 78.2171 300.924C79.2766 298.171 80.1517 295.341 80.4523 292.393C80.7312 289.657 80.4992 286.983 80.0337 284.272C79.5593 281.509 79.031 278.716 79.5614 275.932C80.0999 273.105 81.7353 270.715 83.4921 268.491C85.3501 266.14 87.3859 263.96 89.4539 261.788C91.469 259.673 92.8426 257.432 93.5114 254.572C94.8327 248.923 94.3652 242.854 97.1071 237.582Z" fill="#C5CFD6"/>
<path fill-rule="evenodd" clip-rule="evenodd" d="M49.2252 252.641C51.9829 252.641 54.4074 254.102 56.078 256.177C58.0335 258.605 58.4285 261.57 59.2226 264.464C59.6177 265.904 60.2974 267.334 61.4883 268.313C62.5716 269.203 63.9468 269.381 65.2434 269.815C67.8347 270.684 69.9272 272.777 70.7535 275.331C71.7617 278.447 70.6939 281.588 70.8777 284.745C71.0465 287.645 73.9053 289.454 76.2054 290.844C78.4734 292.214 80.5165 293.497 81.1996 296.167C81.924 298.999 82.167 302.16 81.1637 304.957C79.4933 309.615 74.6047 311.666 69.881 311.984C65.5941 312.273 60.2039 311.82 56.9845 308.708C55.058 306.846 54.3604 304.242 54.4469 301.651C54.5007 300.039 54.8198 298.443 55.2325 296.886C55.525 295.783 55.9201 294.684 56.0327 293.544C56.3319 290.51 53.5279 289.927 51.1411 289.094C48.1082 288.035 45.9848 286.036 44.5084 283.25C43.1333 280.656 42.5564 277.745 43.3807 274.889C43.8017 273.431 44.5653 272.108 45.6008 270.983C46.0567 270.487 46.6992 270.074 47.1106 269.554C47.4946 269.068 47.411 268.438 47.2787 267.869C46.6667 265.24 44.76 263.063 44.0782 260.439C43.4626 258.07 43.8265 255.122 45.9921 253.594C46.9278 252.934 48.0816 252.648 49.2252 252.641Z" fill="#C5CFD6"/>
<path fill-rule="evenodd" clip-rule="evenodd" d="M52.9828 259.491C55.9056 262.605 56.7001 266.829 56.9333 270.923C57.0639 273.219 56.9279 275.641 57.6025 277.868C58.1796 279.774 59.5326 281.231 60.9272 282.608C63.7346 285.38 66.8655 288.198 67.6866 292.21C68.1684 294.564 67.8432 296.996 68.5089 299.324C69.1143 301.44 70.1801 303.52 71.4765 305.307C72.5203 306.746 73.8802 307.848 75.0212 309.19C75.3693 309.599 75.868 310.202 75.7243 310.78C75.5562 311.457 74.6938 311.672 74.0819 311.565C72.6552 311.317 71.4543 309.955 70.5215 308.965C69.1575 307.516 67.9984 305.959 67.0563 304.212C66.0104 302.271 65.1683 300.212 64.8085 298.035C64.4351 295.777 64.621 293.423 63.7683 291.256C62.3336 287.609 58.8536 285.457 56.3375 282.614C53.2027 279.072 53.6702 274.664 53.9913 270.307C54.1677 267.913 54.3431 265.209 53.1332 263.023C52.6714 262.188 51.6417 261.41 51.4431 260.462C51.2612 259.593 52.2539 258.715 52.9828 259.491Z" fill="#AFB9C5"/>
<path fill-rule="evenodd" clip-rule="evenodd" d="M56.1002 310.656C56.1002 328.462 59.0059 337.792 74.3463 337.792C89.6867 337.792 92.5925 328.462 92.5925 310.656H56.1002Z" fill="#89C5CC"/>
<rect x="119.258" y="284.924" width="17.7784" height="4.21068" rx="0.935707" fill="#AFB9C5"/>
<path fill-rule="evenodd" clip-rule="evenodd" d="M123.938 271.356H120.428C116.423 271.356 113.177 274.603 113.177 278.608C113.177 282.613 116.423 285.859 120.428 285.859H135.868C139.873 285.859 143.119 282.613 143.119 278.608C143.119 274.603 139.873 271.356 135.868 271.356H132.826C130.818 264.846 129.692 257.985 129.45 250.771H128.148V250.772H127.314C127.314 250.772 126.95 261.591 123.938 271.356Z" fill="#DDE3E9"/>
<path fill-rule="evenodd" clip-rule="evenodd" d="M111.597 218.338C111.597 218.338 119.639 217.553 127.681 217.553C135.722 217.553 143.764 218.338 143.764 218.338L145.927 255.511C145.927 255.511 136.804 256.385 127.681 256.385C118.557 256.385 109.434 255.511 109.434 255.511L111.597 218.338Z" fill="#C5CFD6"/>
<path fill-rule="evenodd" clip-rule="evenodd" d="M98.6748 337.792V299.428V289.135H108.5H157.157V299.428H157.156V337.792H147.331V299.428H108.5V337.792H98.6748Z" fill="#F2F2F2"/>
<path fill-rule="evenodd" clip-rule="evenodd" d="M322.528 205.951C326.661 215.771 333.686 222.594 337.406 232.804C339.613 238.859 340.532 245.443 340.588 252.186C340.618 255.848 340.555 259.513 340.537 263.176C340.521 266.747 340.424 270.296 340.121 273.845C339.816 277.413 339.475 280.938 339.324 284.527C339.207 287.324 339.154 290.578 338.206 293.129C337.452 295.158 335.536 295.455 335.027 292.994C334.745 291.626 334.78 290.099 334.811 288.693C334.851 286.89 334.956 285.089 335.01 283.285C335.225 276.049 334.946 268.81 335.092 261.571C335.234 254.498 336.143 247.432 335.137 240.406C334.307 234.604 332.196 229.622 329.771 224.845C327.437 220.25 324.898 215.766 323.321 210.539C322.868 209.038 322.518 207.482 322.35 205.868C322.423 205.834 322.483 205.861 322.528 205.951Z" fill="#C1DEE2"/>
<path fill-rule="evenodd" clip-rule="evenodd" d="M321.403 225.324C322.221 225.915 322.678 226.779 323.231 227.632C323.919 228.692 324.728 229.65 325.415 230.711C326.849 232.923 328.109 235.271 329.416 237.573C331.897 241.942 333.781 246.599 334.715 251.654C335.682 256.892 335.943 262.299 336.348 267.615C336.779 273.25 337.212 278.926 337.269 284.583C337.295 287.117 337.432 289.808 337.127 292.324C336.938 293.891 336.231 295.226 334.637 295.213C331.251 295.186 329.662 291.436 328.998 288.361C328.02 283.832 327.825 279.022 327.98 274.391C328.167 268.807 329.136 263.306 329.556 257.744C330 251.855 329.749 246.07 327.724 240.525C326.702 237.723 325.514 234.988 324.449 232.205C323.995 231.02 323.623 229.803 323.01 228.699C322.328 227.472 321.481 226.357 320.947 225.035C321.099 225.131 321.251 225.228 321.403 225.324Z" fill="#89C5CC"/>
<path fill-rule="evenodd" clip-rule="evenodd" d="M360.403 213.582C360.507 213.501 360.611 213.421 360.715 213.34C360.416 214.6 359.876 215.623 359.463 216.775C359.092 217.81 358.903 218.981 358.654 220.113C358.067 222.771 357.388 225.369 356.834 228.049C355.737 233.353 355.944 239.067 356.664 244.952C357.344 250.511 358.419 256.061 358.931 261.618C359.355 266.227 359.538 270.98 359.133 275.378C358.858 278.364 357.955 281.93 355.497 281.629C354.34 281.487 353.736 280.094 353.493 278.521C353.102 275.996 353.02 273.34 352.868 270.829C352.528 265.223 352.461 259.634 352.393 254.086C352.33 248.852 352.155 243.514 352.505 238.411C352.842 233.487 353.897 229.05 355.406 224.957C356.2 222.8 356.958 220.593 357.85 218.537C358.278 217.551 358.802 216.68 359.23 215.695C359.574 214.902 359.848 214.089 360.403 213.582Z" fill="#C1DEE2"/>
<path fill-rule="evenodd" clip-rule="evenodd" d="M322.448 241.551C322.895 240.8 323.881 243.278 324.031 243.59C323.967 243.435 323.904 243.28 323.839 243.126C324.728 244.603 325.541 246.141 326.046 247.836C326.547 249.513 326.976 251.224 327.445 252.913C328.326 256.083 329.462 259.162 330.26 262.36C331.037 265.476 331.233 268.539 331.045 271.762C330.849 275.112 330.73 278.514 330.958 281.862C331.067 283.461 331.587 284.95 331.943 286.49C332.299 288.031 332.58 289.592 333.002 291.114C333.098 290.916 333.111 291.579 333.11 291.629C333.108 292.009 333.055 292.328 332.932 292.689C332.618 293.616 332.03 294.403 331.135 294.659C329.518 295.121 328.017 293.65 327.495 292.097C326.747 289.868 326.335 287.405 325.978 285.063C325.651 282.915 325.574 280.754 325.671 278.576C325.862 274.282 326.64 270.044 326.85 265.751C327.079 261.077 326.153 256.685 325.377 252.136C325.004 249.943 324.647 247.772 323.92 245.683C323.626 244.838 323.242 244.091 322.84 243.31C322.611 242.866 322.148 242.073 322.448 241.551Z" fill="#C1DEE2"/>
<path fill-rule="evenodd" clip-rule="evenodd" d="M335.567 234.25C335.382 239.604 335.062 244.918 334.348 250.216C333.62 255.623 332.783 261.011 332.082 266.422C331.4 271.69 330.684 277.045 330.78 282.386C330.85 286.32 330.197 292.976 334.567 294.917C338.992 296.884 339.941 288.486 340.232 285.715C340.789 280.397 340.609 275.023 340.338 269.676C340.061 264.189 339.598 258.729 339.024 253.262C338.386 247.189 337.886 241.088 337.484 234.998C337.286 231.985 337.237 228.978 337.292 225.965C337.343 223.121 337.235 220.248 336.225 217.549C336.172 217.587 336.119 217.626 336.066 217.664" fill="#69A1AC"/>
<path fill-rule="evenodd" clip-rule="evenodd" d="M358.414 251.214C357.619 252.373 356.816 253.521 356.065 254.749C354.72 256.947 353.504 259.39 353.138 262.532C352.373 269.107 352.987 276.208 353.135 282.985C353.165 284.369 352.99 285.712 353.536 287.03C354.031 288.225 354.956 289.136 355.838 289.131C357.726 289.12 357.438 284.497 357.441 282.462C357.447 278.896 357.047 275.293 357.081 271.73C357.115 268.199 357.33 264.66 357.842 261.307C358.36 257.913 359.119 254.655 360.12 251.614C360.259 251.192 361.257 247.931 360.314 248.493" fill="#89C5CC"/>
<path fill-rule="evenodd" clip-rule="evenodd" d="M350.076 216.146C348.835 216.146 348.843 222.334 348.805 223.129C348.67 225.997 348.702 228.866 348.617 231.735C348.43 237.996 348.201 244.311 347.26 250.499C346.754 253.831 346.167 257.147 345.536 260.453C344.903 263.769 344.053 267.08 343.636 270.438C343.236 273.666 343.462 276.957 343.517 280.2C343.572 283.464 343.67 286.733 344.098 289.968C344.203 290.766 344.327 291.562 344.459 292.356C344.57 293.017 344.505 293.837 344.692 294.466C344.991 295.472 346.273 295.802 347.136 295.644C349.472 295.218 350.964 292.285 351.762 290.142C352.781 287.406 353.321 284.438 353.855 281.554C354.46 278.287 354.814 274.971 354.98 271.645C355.318 264.885 354.884 258.118 354.4 251.381C354.131 247.633 353.82 243.903 353.344 240.179C352.87 236.47 352.261 232.779 351.865 229.06C351.578 226.357 351.294 223.651 351.108 220.938C351.063 220.291 351.026 216.146 350.076 216.146Z" fill="#69A1AC"/>
<path fill-rule="evenodd" clip-rule="evenodd" d="M348.523 261.125C348.32 254.629 345.709 226.092 345.115 218.236C344.966 216.27 343.536 208.083 343.35 205.854C342.847 206.484 342.89 216.291 342.895 218.545C342.901 220.774 342.625 222.966 342.483 225.183C342.338 227.445 338.993 256.663 338.559 258.837C337.696 263.161 337.118 267.599 336.672 272.021C336.238 276.331 335.563 280.878 336.144 285.21C336.277 286.207 336.489 287.189 336.833 288.105C337.204 289.095 337.459 290.01 337.758 291.046C338.238 292.715 339.107 294.179 340.441 294.868C343.178 296.281 344.648 293.083 345.392 290.3C346.582 285.854 347.346 281.336 347.704 276.667C348.1 271.502 348.685 266.326 348.523 261.125Z" fill="#89C5CC"/>
<rect x="319.545" y="280.242" width="42.5747" height="42.5747" rx="0.935707" fill="white"/>
<rect x="314.866" y="284.922" width="4.67854" height="52.8675" rx="0.935707" fill="#C5CFD6"/>
<rect x="338.259" y="284.922" width="4.67854" height="52.8675" rx="0.935707" fill="#C5CFD6"/>
<rect x="362.119" y="284.922" width="4.67854" height="52.8675" rx="0.935707" fill="#C5CFD6"/>
<path fill-rule="evenodd" clip-rule="evenodd" d="M230.401 204.546C227.686 206.183 225.019 206.973 223.766 206.65C220.626 205.841 220.338 194.354 222.767 189.826C225.197 185.297 237.687 183.323 238.316 192.296C238.535 195.41 237.227 198.189 235.295 200.457L238.759 216.602H228.697L230.401 204.546Z" fill="#B28B67"/>
<path fill-rule="evenodd" clip-rule="evenodd" d="M236.07 202.478C237.332 196.859 240.93 193.029 240.381 190.518C239.831 188.006 237.452 187.394 237.452 187.394C237.452 187.394 236.221 182.416 229.513 183.159C222.806 183.903 218.712 186.688 220.48 192.818C222.105 192.818 224.067 192.23 226.78 193.237C228.071 193.716 228.627 196.21 228.627 196.21H229.853C229.853 196.21 231.638 193.251 233.373 194.035C235.107 194.819 234.161 197.845 234.161 197.845L234.765 202.478H236.07Z" fill="#191847"/>
<path fill-rule="evenodd" clip-rule="evenodd" d="M266.851 269.012C270.556 269.012 273.559 272.015 273.559 275.72V314.292C273.559 317.997 270.556 321 266.851 321H218.635C214.931 321 211.927 317.997 211.927 314.292V275.72C211.927 272.015 214.931 269.012 218.635 269.012H266.851ZM260.142 280.75C261.068 280.75 261.819 281.501 261.819 282.427V307.583C261.819 308.51 261.068 309.26 260.142 309.26H225.343C224.417 309.26 223.666 308.509 223.666 307.583V282.427C223.666 281.501 224.417 280.75 225.343 280.75H260.142Z" fill="#C5CFD6"/>
<path fill-rule="evenodd" clip-rule="evenodd" d="M170.354 318.903C178.62 308.809 184.213 301.326 187.133 296.453C192.133 288.11 196.225 280.687 197.516 277.851C200.596 271.089 190.427 267.922 188.126 271.076C184.642 275.85 177.203 290.873 165.809 316.144L170.354 318.903Z" fill="#B28B67"/>
<path fill-rule="evenodd" clip-rule="evenodd" d="M187.293 315.969L202.677 277.245C205.967 270.185 190.078 265.545 187.66 268.83C182.17 276.289 169.122 305.712 167.486 307.934L187.293 315.969Z" fill="#2F3676"/>
<path fill-rule="evenodd" clip-rule="evenodd" d="M228.264 308.203C225.268 303.831 214.368 289.125 208.431 283.04C206.725 281.292 205.06 279.613 203.486 278.049C198.806 273.401 189.486 281.214 194.158 285.448C205.791 295.993 222.764 310.228 224.183 311.497C226.17 313.276 230.148 310.95 228.264 308.203Z" fill="#B28B67"/>
<path fill-rule="evenodd" clip-rule="evenodd" d="M226.323 306.402C226.613 306.006 227.176 305.913 227.551 306.229C228.237 306.805 229.223 307.693 229.578 308.309C230.145 309.291 230.906 311.365 230.906 311.365C229.767 312.022 210.427 323.188 210.427 323.188C210.427 323.188 208.105 321.01 209.703 319.807C211.302 318.603 212.341 317.777 212.341 317.777L219.41 308.038C219.549 307.847 219.818 307.808 220.005 307.952L221.474 309.083C221.474 309.083 223.495 308.907 224.49 308.332C225.096 307.982 225.837 307.066 226.323 306.402Z" fill="#E4E4E4"/>
<path fill-rule="evenodd" clip-rule="evenodd" d="M172.748 316.926C173.197 316.729 173.731 316.929 173.898 317.39C174.204 318.232 174.613 319.494 174.613 320.206C174.613 321.34 174.235 323.515 174.235 323.515C172.92 323.515 150.588 323.515 150.588 323.515C150.588 323.515 149.666 320.468 151.652 320.225C153.638 319.982 154.952 319.786 154.952 319.786L165.943 314.887C166.159 314.79 166.411 314.891 166.501 315.11L167.208 316.823C167.208 316.823 169.046 317.681 170.196 317.681C170.895 317.681 171.995 317.258 172.748 316.926Z" fill="#E4E4E4"/>
<path fill-rule="evenodd" clip-rule="evenodd" d="M208.212 279.177C208.212 279.177 227.392 276.052 233.906 274.904C246.284 272.721 249.893 266.06 247.759 251.527L224.953 251.527C220.426 252.835 187.121 267.698 187.121 267.698C183.127 269.681 183.87 275.528 184.601 277.455C184.645 277.572 204.804 312.073 204.804 312.073L223.46 300.188L208.177 280.577C208.177 280.577 207.572 279.358 208.212 279.177Z" fill="#5C63AB"/>
<path fill-rule="evenodd" clip-rule="evenodd" d="M193.196 255.862L206.57 246.041L209.526 253.349L196.283 258.841C192.537 263.241 190.443 265.075 189.999 264.343C189.625 263.727 189.918 263.149 190.187 262.617C190.396 262.203 190.592 261.817 190.448 261.46C190.119 260.647 187.603 260.733 185.219 260.916C182.835 261.1 183.53 260.039 184.105 259.515C186.538 258.058 189.569 256.84 193.196 255.862ZM263.331 273.166C262.103 270.673 257.919 246.38 257.919 246.38L249.157 246.414C249.157 246.414 257.272 272.61 257.919 274.213C258.759 276.295 257.332 279.32 256.364 281.372C256.214 281.689 256.076 281.983 255.958 282.247C257.301 282.848 257.946 282.121 258.626 281.356C259.394 280.491 260.207 279.576 262.12 280.466C262.859 280.81 263.558 281.216 264.242 281.614C266.602 282.986 268.771 284.246 271.72 282.426C272.188 282.137 272.701 281.051 271.462 280.202C268.377 278.087 263.932 274.385 263.331 273.166Z" fill="#B28B67"/>
<path fill-rule="evenodd" clip-rule="evenodd" d="M233.019 209.615L229.393 208.994C215.942 220.614 210.417 242.937 193.929 254.763L197.898 259.682C226.501 256.14 233.591 228.911 233.019 209.615Z" fill="#E87613"/>
<path fill-rule="evenodd" clip-rule="evenodd" d="M248.822 255.175C248.822 255.175 227.017 255.175 216.744 255.175C215.278 255.175 215.554 253.058 215.766 251.99C218.211 239.664 227.758 226.376 227.758 208.83L237.011 207.379C244.664 219.688 247.311 234.843 248.822 255.175Z" fill="#DDE3E9"/>
<path fill-rule="evenodd" clip-rule="evenodd" d="M247.593 219.334C249.277 219.213 250.796 218.509 251.757 216.775C255.139 210.673 253.918 207.313 250.303 206.209C248.316 205.601 246.447 206.016 244.209 206.512C242.378 206.918 240.3 207.379 237.708 207.379C237.456 207.379 237.227 207.396 237.019 207.428L233.951 207.604C233.951 207.604 221.484 249.853 227.074 263.98H252.429C253.871 267.442 255.284 270.464 256.617 272.784H263.496C264.236 248.852 255.176 230.437 247.593 219.334Z" fill="#FF9B21"/>
<path fill-rule="evenodd" clip-rule="evenodd" d="M252.429 263.98C250.538 259.436 248.598 254.133 246.731 248.656C246.036 254.688 244.879 260.745 242.952 263.98H252.429Z" fill="black" fill-opacity="0.1"/>
<defs>
<clipPath id="clip0">
<rect width="46.3175" height="98.2493" fill="white" transform="translate(146)"/>
</clipPath>
<clipPath id="clip1">
<rect width="34.6212" height="74.3887" fill="white" transform="translate(188.107)"/>
</clipPath>
<clipPath id="clip2">
<rect width="110.58" height="192.756" fill="white" transform="translate(324 145)"/>
</clipPath>
</defs>
</svg>
