<svg width="320" height="315" viewBox="0 0 320 315" fill="none" xmlns="http://www.w3.org/2000/svg">
<rect x="2.48389" width="314.516" height="314.516" rx="7.51305" fill="#E0EAFF"/>
<path d="M63.5817 120.351L64.5441 128.171C65.4612 135.623 62.8378 143.074 57.4544 148.308C51.5666 154.032 49.0145 162.37 50.6894 170.409L51.3625 173.64C53.862 185.638 63.4067 194.909 75.4718 197.059L98.651 201.19C103.485 202.052 108.057 204.014 112.011 206.926L143.939 230.437C154.282 238.053 168.177 238.747 179.227 232.199L195.6 222.496C199.489 220.192 203.822 218.737 208.314 218.229L237.845 214.886C248.276 213.705 257.465 207.482 262.434 198.235C268.532 186.884 266.354 173.692 258.685 163.337C254.242 157.339 251.256 150.962 252.5 143.5C252.756 141.963 253.318 138.765 254.388 135.316C256.375 128.913 258.712 122.256 258.198 115.572C257.462 106.008 251.449 97.6547 242.614 93.9213L234.881 90.6538C226.378 87.061 216.738 87.3151 208.436 91.3507L188.802 100.895C186.608 101.961 184.299 102.774 181.921 103.316L162.636 107.709C152.238 110.079 141.343 107.112 133.582 99.7983L127.193 93.7778C122.507 89.3622 116.598 86.4628 110.238 85.4586L100.966 83.9946C89.2922 82.1514 77.5527 86.8926 70.4332 96.326L69.8 97.165C64.797 103.794 62.5672 112.108 63.5817 120.351Z" fill="white"/>
<g opacity="0.5">
<path fill-rule="evenodd" clip-rule="evenodd" d="M138.519 143.555C138.517 147.052 138.34 150.622 138.985 154.077C139.18 155.123 139.334 157.127 140.437 157.67C141.546 158.215 142.621 157.603 142.896 156.466C143.217 155.144 142.513 153.166 142.441 151.777C142.343 149.881 142.337 147.983 142.336 146.085C142.335 144.714 142.786 142.508 141.168 141.803C139.965 141.278 138.519 142.254 138.519 143.555Z" fill="#C1DEE2"/>
<path fill-rule="evenodd" clip-rule="evenodd" d="M193.809 138.024C182.222 139.187 170.468 139.429 158.838 140.035C153.463 140.316 146.966 139.958 141.902 142.039C140.962 142.425 137.593 144.576 140.328 145.452C141.18 145.725 142.046 144.806 142.746 144.499C143.911 143.987 145.261 143.829 146.504 143.629C157.071 141.932 168.123 142.227 178.799 141.434C181.535 141.231 184.271 141.022 187.001 140.753C188.951 140.562 193.051 139.156 194.85 139.875C197.926 141.103 197.854 149.086 197.915 151.831C197.946 153.251 196.568 158.347 199.308 157.83C201.5 157.417 200.706 152.122 200.535 150.674C200.087 146.878 199.322 137.465 193.809 138.024Z" fill="#C1DEE2"/>
<path fill-rule="evenodd" clip-rule="evenodd" d="M198.082 157.644C188.017 158.553 177.721 157.661 167.614 158.018C162.317 158.206 157.025 158.504 151.727 158.679C149.436 158.755 147.142 158.758 144.85 158.775C143.753 158.782 138.763 159.447 141.85 161.621C143.217 162.583 147.573 161.808 149.141 161.789C151.496 161.761 153.851 161.663 156.205 161.571C161.657 161.358 167.106 161.063 172.561 160.915C177.78 160.774 183.001 160.743 188.219 160.602C190.815 160.532 193.447 160.452 196.02 160.073C196.601 159.987 198.487 159.919 198.89 159.272C199.271 158.66 199.004 157.555 198.082 157.644Z" fill="#89C5CC"/>
<path fill-rule="evenodd" clip-rule="evenodd" d="M148.615 150.089C148.561 150.217 148.561 150.217 148.615 150.089V150.089ZM152.974 148.765C153.132 148.832 153.132 148.832 152.974 148.765V148.765ZM152.77 148.729C155.119 151.123 151.506 153.981 149.306 151.644C146.971 149.165 151.258 148.737 152.77 148.729ZM150.279 145.105C142.188 146.545 145.053 157.328 152.609 155.769C155.926 155.085 157.824 151.743 156.682 148.533C156.236 147.279 155.263 145.902 153.909 145.507C153.234 145.31 152.637 145.62 151.994 145.547C151.38 145.478 151.04 144.968 150.279 145.105Z" fill="#C1DEE2"/>
<path fill-rule="evenodd" clip-rule="evenodd" d="M181.242 148.142C176.363 148.157 171.484 148.365 166.606 148.457C165.109 148.485 161.264 147.816 161.258 150.175C161.251 152.695 165.535 151.764 166.96 151.73C171.799 151.615 176.65 151.403 181.469 150.942C182.687 150.825 186.901 151.026 186.897 149.371C186.892 147.617 182.225 148.142 181.242 148.142Z" fill="#C1DEE2"/>
<path fill-rule="evenodd" clip-rule="evenodd" d="M192.895 164.59C180.828 164.914 168.78 165.026 156.724 165.644C152.214 165.875 147.711 166.047 143.195 166.047C142.325 166.047 140.573 165.71 139.755 166.258C137.533 167.744 140.063 169.019 141.511 169.099C151.415 169.649 161.463 168.281 171.362 167.972C177.157 167.791 182.953 167.738 188.745 167.443C190.325 167.362 191.905 167.269 193.482 167.147C194.389 167.076 196.789 167.269 197.522 166.739C200.723 164.421 193.974 164.561 192.895 164.59Z" fill="#89C5CC"/>
<path fill-rule="evenodd" clip-rule="evenodd" d="M137.533 170.492C137.42 173.621 137.408 176.695 137.817 179.806C137.978 181.03 138.052 182.419 139.487 182.73C140.79 183.013 141.451 182.027 141.721 180.934C142.38 178.265 141.8 174.424 141.792 171.652C141.789 170.281 141.788 168.747 140.094 168.437C138.802 168.2 137.582 169.134 137.533 170.492Z" fill="#89C5CC"/>
<path fill-rule="evenodd" clip-rule="evenodd" d="M205.684 178.034C186.152 179.063 166.646 179.962 147.1 180.788C145.575 180.852 133.733 180.723 137.873 184.853C139.152 186.128 142.446 185.265 144.1 185.184C146.585 185.061 149.071 184.968 151.556 184.842C161.409 184.34 171.288 184.205 181.133 183.642C186.551 183.332 191.957 182.848 197.346 182.217C199.91 181.917 203.092 181.948 205.494 180.943C206.729 180.426 208.062 177.908 205.684 178.034Z" fill="#89C5CC"/>
<path fill-rule="evenodd" clip-rule="evenodd" d="M194.453 162.162C192.968 163.642 193.732 166.56 193.844 168.389C193.998 170.905 194.185 173.423 194.499 175.925C194.703 177.551 194.595 180.081 195.463 181.485C196.478 183.129 198.714 182.947 199.632 181.359C200.444 179.954 200.033 176.998 200.012 175.441C199.983 173.288 199.849 171.131 199.721 168.982C199.614 167.187 200.021 164.309 199.033 162.772C198.03 161.21 195.845 160.778 194.453 162.162Z" fill="#89C5CC"/>
<path fill-rule="evenodd" clip-rule="evenodd" d="M149.809 173.644C149.635 173.778 149.635 173.778 149.809 173.644V173.644ZM153.278 173.211C156.515 173.862 151.281 177.642 149.627 175.048C149.368 174.642 149.234 174.144 149.649 173.792C150.027 173.47 150.265 174.04 150.623 173.887C151.239 173.623 152.621 173.187 153.278 173.211ZM152.832 170.107C150.622 170.282 147.583 170.419 146.489 172.634C145.02 175.61 147.533 178.524 150.441 178.977C153.239 179.413 157.416 177.863 157.64 174.599C157.821 171.968 155.318 169.906 152.832 170.107Z" fill="#89C5CC"/>
<path fill-rule="evenodd" clip-rule="evenodd" d="M171.283 171.68C168.995 171.716 164.498 171.04 162.505 172.155C160.533 173.259 161.412 175.224 163.211 175.694C164.401 176.004 166.344 175.503 167.583 175.452C169.211 175.386 170.842 175.372 172.471 175.349C175.212 175.313 177.952 175.344 180.694 175.344C183.493 175.344 186.341 175.42 189.136 175.214C192.672 174.954 192.577 172.306 189.119 171.975C183.243 171.413 177.177 171.587 171.283 171.68Z" fill="#89C5CC"/>
<path fill-rule="evenodd" clip-rule="evenodd" d="M165.439 201.337C165.439 202.595 166.555 201.337 166.547 201.337C166.555 201.337 165.439 200.078 165.439 201.337Z" fill="#89C5CC"/>
<path fill-rule="evenodd" clip-rule="evenodd" d="M140.189 191.209C140.26 194.866 140.308 198.527 140.464 202.181C140.513 203.336 140.182 205.592 141.583 206.182C143.142 206.837 143.626 205.203 143.806 204.095C144.375 200.587 143.817 196.581 143.763 193.031C143.744 191.839 144.002 190.179 142.648 189.585C141.544 189.1 140.166 190 140.189 191.209Z" fill="#89C5CC"/>
<path fill-rule="evenodd" clip-rule="evenodd" d="M200.326 191.267C200.418 191.485 200.418 191.485 200.326 191.267V191.267ZM200.457 191.231C200.531 191.262 200.834 191.389 200.457 191.231V191.231ZM170.915 188.274C165.301 188.362 159.683 188.429 154.073 188.669C151.678 188.772 149.256 188.855 146.87 189.081C145.18 189.24 140.981 189.307 139.885 190.688C137.623 193.539 142.42 192.761 143.453 192.53C145.334 192.108 147.253 191.973 149.174 191.872C153.342 191.652 157.512 191.535 161.686 191.451C173.003 191.223 184.329 191.258 195.648 191.206C196.744 191.202 198.725 190.761 199.737 191.204C200.751 191.649 200.694 192.741 200.799 194.009C200.939 195.697 199.826 198.913 200.674 200.332C201.99 202.534 203.903 200.664 204.196 199.059C204.6 196.841 203.959 194.178 203.332 192.058C202.448 189.066 201.22 188.947 198.326 188.713C194.946 188.44 191.578 188.275 188.186 188.243C182.43 188.191 176.67 188.185 170.915 188.274Z" fill="#89C5CC"/>
<path fill-rule="evenodd" clip-rule="evenodd" d="M193.119 203.388C180.943 204.802 168.42 203.969 156.178 204.019C153.201 204.031 150.222 204.055 147.248 204.199C145.677 204.275 141.954 203.842 140.877 205.054C138.609 207.608 142.695 207.98 144.187 207.874C147.203 207.66 150.226 207.562 153.25 207.538C163.901 207.456 174.613 207.953 185.255 207.427C189.713 207.207 194.073 206.445 198.449 205.592C199.418 205.403 206.055 204.142 202.27 202.63C200.034 201.736 195.469 203.113 193.119 203.388Z" fill="#89C5CC"/>
<path fill-rule="evenodd" clip-rule="evenodd" d="M157.566 198.715C157.482 198.824 157.482 198.824 157.566 198.715V198.715ZM157.485 198.695C157.456 198.773 157.367 198.966 157.485 198.695V198.695ZM156.717 197.705C156.735 197.727 156.807 197.82 156.717 197.705V197.705ZM156.688 197.697C156.981 198.047 157.178 198.438 157.28 198.869C154.757 199.552 153.785 197.511 156.688 197.697ZM156.528 197.6C156.529 197.601 156.883 197.75 156.528 197.6V197.6ZM152.384 194.562C150.751 196.595 149.403 198.965 151.439 201.288C153.259 203.364 156.921 203.632 159.231 202.246C161.611 200.817 161.405 197.81 159.745 195.847C158.677 194.583 157.81 194.618 156.259 194.412C155.204 194.271 153.28 193.45 152.384 194.562Z" fill="#89C5CC"/>
<path fill-rule="evenodd" clip-rule="evenodd" d="M169.262 198.324C169.262 201.031 180.953 199.866 183.033 199.863C184.775 199.861 195.31 200.822 194.554 198.035C193.933 195.746 183.556 196.884 181.346 196.88C179.436 196.878 169.262 195.566 169.262 198.324Z" fill="#89C5CC"/>
</g>
<g opacity="0.5">
<path fill-rule="evenodd" clip-rule="evenodd" d="M108.388 91.3132C108.39 91.4433 108.392 91.5658 108.395 91.6783C108.456 94.1357 108.42 96.7191 108.221 99.1708C108.152 100.017 107.536 101.09 106.834 99.9233C106.525 99.4102 106.568 98.3566 106.6 97.5815C106.608 97.3737 106.616 97.186 106.616 97.034C106.615 96.1692 106.661 95.2956 106.706 94.4196C106.795 92.707 106.885 90.9855 106.631 89.3035C106.626 89.2695 106.621 89.2367 106.617 89.2052C106.507 88.4656 106.499 88.4145 105.686 88.4313C105.347 88.4383 105.008 88.4475 104.668 88.4567C104.335 88.4657 104.001 88.4747 103.668 88.4817C103.337 88.4886 103.006 88.495 102.674 88.5014C101.636 88.5214 100.597 88.5413 99.5588 88.5794C99.3855 88.5857 99.0622 88.6263 98.6543 88.6775C97.8386 88.7798 96.6846 88.9245 95.7132 88.9237C95.7135 88.9279 95.7138 88.932 95.7141 88.9362C95.7147 88.9437 95.7152 88.9513 95.7154 88.9589C95.7263 89.4951 95.5882 90.0936 95.4495 90.6949C95.3333 91.1985 95.2166 91.704 95.1867 92.1765C95.1155 93.3007 95.1147 94.4368 95.1139 95.5729C95.113 96.9563 95.112 98.3397 94.9839 99.7017C94.9776 99.7681 94.9739 99.8383 94.9701 99.9093C94.9695 99.9187 94.969 99.9282 94.9685 99.9377C95.0124 99.931 95.0552 99.9263 95.0962 99.9237C95.7962 99.8793 96.5021 99.8753 97.2069 99.8714C97.5957 99.8692 97.9841 99.867 98.3709 99.858C99.0656 99.842 99.7689 99.8427 100.475 99.8435C102.034 99.8451 103.606 99.8468 105.131 99.6672C105.581 99.6089 105.738 100.187 105.536 100.486C105.356 100.754 104.858 100.797 104.493 100.829C104.4 100.837 104.316 100.845 104.248 100.855C103.265 101 102.269 101.051 101.276 101.095C100.234 101.141 99.1915 101.176 98.1487 101.205C97.9006 101.212 97.5694 101.245 97.2022 101.282C96.2326 101.38 95.0119 101.504 94.406 101.229C93.7548 100.935 93.7701 100.608 94.0359 100.354C93.9193 100.098 93.901 99.7234 93.8867 99.4305C93.8812 99.3187 93.8763 99.2188 93.8668 99.1419C93.7222 97.9756 93.6351 96.8242 93.6331 95.6479C93.629 93.3437 93.6336 90.9507 94.271 88.7204C94.0157 88.6087 93.8617 88.4439 93.8624 88.2064C93.8653 87.0098 97.5895 87.0707 99.3598 87.0996C99.6764 87.1048 99.9304 87.109 100.09 87.1047C101.379 87.071 102.669 87.0666 103.959 87.0736C104.232 87.0751 104.535 87.0572 104.849 87.0388C105.518 86.9995 106.236 86.9573 106.813 87.0914C108.33 87.4436 108.366 89.8593 108.388 91.3132Z" fill="#89C5CC"/>
<path fill-rule="evenodd" clip-rule="evenodd" d="M117.875 87.354C119.284 87.2794 120.693 87.2623 122.103 87.2571C123.596 87.2496 125.091 87.2764 126.583 87.3223L126.618 87.3234C127.279 87.3432 130.954 87.4536 129.266 88.3695C129.167 88.4229 129.056 88.4676 128.935 88.5047C129.007 88.929 129.015 89.3673 129.004 89.5783C128.96 90.3783 128.931 91.1791 128.903 91.9798C128.883 92.5225 128.864 93.0652 128.84 93.6076C128.773 95.1063 128.71 96.6049 128.658 98.1044C128.652 98.2884 128.662 98.5291 128.673 98.7973L128.673 98.7974C128.708 99.6844 128.756 100.873 128.275 101.312C127.852 101.698 127.564 101.621 127.369 101.359C126.159 101.711 123.674 101.597 122.425 101.539C122.124 101.525 121.895 101.515 121.772 101.515C121.553 101.515 121.146 101.542 120.632 101.577C118.493 101.721 114.5 101.989 114.492 100.934C114.491 100.833 114.524 100.742 114.586 100.66C114.417 100.487 114.264 100.233 114.166 99.9164C113.815 98.779 113.781 97.5516 113.755 96.3722C113.719 94.7067 113.718 93.0393 113.718 91.3723C113.718 90.5155 113.717 89.6588 113.712 88.8026C113.484 88.4956 113.62 88.1445 113.905 87.8995C114.512 87.3781 116.02 87.3718 117.111 87.3673C117.404 87.366 117.668 87.3649 117.875 87.354ZM115.584 100.198C116.941 99.9079 119.228 100.001 120.453 100.051C120.774 100.064 121.022 100.074 121.162 100.074C122.413 100.069 123.665 100.086 124.916 100.136C125.045 100.141 125.237 100.137 125.463 100.131C125.917 100.12 126.509 100.105 127.012 100.16C127.005 100.092 127.001 100.029 126.998 99.9752C126.942 98.8621 126.982 97.7394 127.023 96.623L127.023 96.6224C127.031 96.3853 127.04 96.1484 127.047 95.912C127.074 95.0773 127.11 94.2429 127.146 93.4086L127.146 93.4085L127.146 93.4081C127.168 92.8829 127.19 92.3576 127.211 91.8322C127.22 91.6016 127.206 91.2885 127.191 90.9361C127.161 90.2191 127.124 89.3397 127.253 88.6646C126.79 88.6558 126.315 88.623 125.88 88.5929L125.88 88.5929C125.461 88.5639 125.078 88.5374 124.777 88.5374C124.395 88.5373 124.014 88.5362 123.632 88.535H123.632H123.632H123.632C122.575 88.5318 121.518 88.5285 120.46 88.5494L120.159 88.5553H120.159C118.703 88.5834 117.235 88.6117 115.791 88.8035C115.706 88.8148 115.604 88.8365 115.492 88.8629C115.65 89.5246 115.573 90.4576 115.505 91.2748C115.472 91.6714 115.441 92.0407 115.441 92.3384C115.439 94.1896 115.488 96.0335 115.536 97.8756C115.555 98.5724 115.573 99.269 115.589 99.9656C115.591 100.049 115.589 100.126 115.584 100.198Z" fill="#89C5CC"/>
<path fill-rule="evenodd" clip-rule="evenodd" d="M100.135 101.151C99.2093 101.692 99.7084 103.854 100.029 104.602C100.556 105.832 101.626 106.794 102.78 107.433C105.112 108.723 108.474 108.38 110.238 110.617C110.256 110.641 110.866 111.244 111.005 110.463C111.119 109.821 109.981 108.841 109.54 108.52C108.285 107.605 106.676 107.31 105.226 106.854C103.678 106.366 101.98 105.468 101.332 103.873C101.102 103.308 101.54 100.326 100.135 101.151Z" fill="#C1DEE2"/>
<path fill-rule="evenodd" clip-rule="evenodd" d="M121.292 102.19C120.443 102.424 121.004 103.591 121.003 104.175C121.001 104.904 120.768 105.667 120.319 106.249C119.18 107.724 116.949 107.945 115.276 108.368C114.062 108.675 111.156 109.334 111.043 110.977C110.916 112.811 113.481 110.579 113.698 110.487C116.095 109.608 119.197 109.438 121.048 107.502C121.812 106.703 122.263 105.636 122.335 104.536C122.375 103.916 122.382 101.892 121.292 102.19Z" fill="#C1DEE2"/>
<path fill-rule="evenodd" clip-rule="evenodd" d="M103.768 118.46C103.748 115.067 106.996 113.014 109.932 112.242C113.462 111.312 116.75 113.785 117.166 117.343C117.606 121.098 114.776 124.121 111.044 124.287C107.761 124.432 103.789 122.082 103.768 118.46ZM111.653 113.874C111.844 114.133 112.016 114.547 111.631 114.773C111.261 114.989 111.077 114.729 110.891 114.469C110.773 114.304 110.655 114.138 110.49 114.091C110.06 113.971 109.371 114.422 109.013 114.685C108.868 114.792 108.662 115.022 108.421 115.291C107.652 116.146 106.531 117.396 105.911 116.321C103.438 120.59 109.602 123.786 113.108 122.17C116.958 120.395 116.208 113.908 111.653 113.874Z" fill="#89C5CC"/>
<path fill-rule="evenodd" clip-rule="evenodd" d="M108.422 117.322C108.422 118.101 109.652 118.101 109.652 117.322C109.652 116.552 108.422 116.519 108.422 117.322Z" fill="#89C5CC"/>
<path fill-rule="evenodd" clip-rule="evenodd" d="M110.586 117.178C110.586 118.132 112.094 118.132 112.094 117.178C112.094 116.234 110.586 116.194 110.586 117.178Z" fill="#89C5CC"/>
<path fill-rule="evenodd" clip-rule="evenodd" d="M109.037 119.402C107.805 120.127 111.33 121.567 111.469 120.095C111.529 119.46 110.914 119.631 110.504 119.585C110.112 119.54 109.41 119.185 109.037 119.402Z" fill="#89C5CC"/>
<path fill-rule="evenodd" clip-rule="evenodd" d="M108.503 124.547C108.556 126.399 108.531 128.25 108.882 130.076C108.949 130.423 108.995 131.681 109.269 131.939C109.943 132.573 109.955 131.358 109.981 130.892C110.074 129.225 109.899 127.505 109.861 125.834C109.852 125.474 109.948 124.729 109.778 124.381C109.508 123.828 108.476 123.664 108.503 124.547Z" fill="#C1DEE2"/>
<path fill-rule="evenodd" clip-rule="evenodd" d="M107.184 123.043C104.482 126.077 100.76 125.853 97.0105 126.119C95.0295 126.259 93.0265 126.547 91.4324 127.829C90.691 128.425 90.0517 129.172 89.6222 130.022C89.4344 130.394 88.5438 132.541 89.8814 132.031C90.3558 131.851 90.8228 130.432 91.1296 130.012C91.714 129.212 92.4617 128.552 93.3587 128.123C95.0889 127.295 97.1549 127.309 99.031 127.204C100.992 127.095 103.097 126.992 104.9 126.139C105.748 125.738 106.543 125.238 107.226 124.593C107.47 124.362 107.993 123.971 108.031 123.618C108.076 123.216 107.689 122.478 107.184 123.043Z" fill="#C1DEE2"/>
<path fill-rule="evenodd" clip-rule="evenodd" d="M93.5408 132.353C91.002 132.438 88.4666 132.54 85.9314 132.701C85.4119 132.734 83.6797 132.629 84.1209 133.693C84.4745 134.547 86.587 133.982 87.2857 133.941C89.9275 133.784 92.5801 133.729 95.2162 133.492C95.8084 133.439 98.4851 133.46 97.3798 132.41C96.854 131.911 94.2673 132.328 93.5408 132.353Z" fill="#89C5CC"/>
<path fill-rule="evenodd" clip-rule="evenodd" d="M82.5088 133.578C81.7086 134.629 82.0763 137.183 82.1367 138.447C82.1953 139.671 81.9575 141.91 83.5557 142.1C83.0482 142.033 83.9409 142.131 84.0862 142.138C84.4107 142.156 84.7367 142.161 85.0616 142.165C85.8122 142.173 86.5632 142.163 87.3137 142.148C89.0138 142.114 90.7182 142.065 92.4161 141.971C93.1298 141.931 97.0017 141.964 97.155 141.223C97.3509 140.275 93.6385 140.811 92.974 140.841C91.3556 140.916 89.7346 140.931 88.1148 140.953C87.3119 140.963 86.5082 140.971 85.7053 140.955C85.3738 140.949 84.0609 141.085 83.8595 140.864C83.6876 140.675 83.8217 138.944 83.818 138.68C83.8062 137.816 83.8072 136.951 83.8379 136.088C83.8586 135.508 84.1727 134.402 83.9168 133.857C83.6679 133.326 82.9423 133.145 82.5088 133.578Z" fill="#89C5CC"/>
<path fill-rule="evenodd" clip-rule="evenodd" d="M95.581 133.627C95.6274 135.549 95.6418 137.511 96.0959 139.391C96.247 140.017 96.4588 141.307 97.0874 141.631C97.7473 141.971 98.317 141.486 98.36 140.832C98.4144 140.01 97.9742 138.931 97.884 138.088C97.7785 137.104 97.7172 136.119 97.6812 135.13C97.6539 134.387 97.8799 133.272 97.171 132.792C96.5342 132.361 95.5603 132.795 95.581 133.627Z" fill="#89C5CC"/>
<path fill-rule="evenodd" clip-rule="evenodd" d="M100.633 133.16C99.8435 133.946 100.196 136.436 100.295 137.447C100.367 138.187 101.178 141.828 102.391 139.929C102.928 139.09 102.246 136.869 102.251 135.889C102.254 135.266 102.475 134.477 102.368 133.878C102.228 133.086 101.349 132.444 100.633 133.16Z" fill="#89C5CC"/>
<path fill-rule="evenodd" clip-rule="evenodd" d="M106.1 132.51C108.471 132.265 110.846 132.081 113.231 132.059C113.345 132.058 113.465 132.056 113.59 132.055C115.225 132.034 117.681 132.003 118.781 133.23C119.38 133.899 119.652 134.932 119.888 135.833C119.932 136.001 119.975 136.165 120.019 136.32C120.056 136.453 120.105 136.605 120.157 136.769C120.404 137.542 120.738 138.589 120.399 139.237C120.213 139.592 119.914 139.895 119.46 139.769C119.354 139.74 119.271 139.702 119.206 139.658C119.38 139.846 119.457 140.114 119.344 140.377C119.125 140.884 118.436 140.895 117.892 140.903C117.76 140.905 117.637 140.907 117.531 140.916C115.721 141.067 113.902 141.168 112.084 141.183C111.219 141.191 110.354 141.184 109.489 141.177C108.598 141.17 107.708 141.162 106.817 141.171C106.171 141.177 105.512 141.239 104.854 141.3C104.022 141.378 103.191 141.456 102.382 141.422C101.777 141.398 101.131 141.199 101.285 140.418C101.41 139.78 102.01 139.724 102.549 139.674C102.596 139.67 102.642 139.665 102.687 139.661C104.402 139.486 106.117 139.424 107.839 139.431C111.459 139.443 115.075 139.424 118.694 139.405C118.843 139.418 118.983 139.474 119.098 139.561C118.968 139.403 118.971 139.192 118.973 138.968C118.975 138.867 118.976 138.762 118.965 138.659C118.943 138.451 118.922 138.244 118.902 138.037C118.835 137.354 118.769 136.676 118.639 135.988C118.619 135.885 118.6 135.77 118.58 135.65C118.461 134.936 118.304 133.991 117.737 133.605C117.167 133.218 116.048 133.237 115.176 133.251C114.941 133.255 114.724 133.259 114.54 133.254C112.214 133.194 109.874 133.359 107.558 133.57C107.38 133.586 107.202 133.601 107.024 133.617C106.143 133.694 105.257 133.771 104.389 133.928C104.23 133.957 103.987 134.042 103.709 134.139C102.968 134.398 101.975 134.744 101.637 134.362C100.519 133.098 105.433 132.578 106.1 132.51Z" fill="#89C5CC"/>
<path fill-rule="evenodd" clip-rule="evenodd" d="M131.331 129.629C131.434 129.761 131.434 129.761 131.331 129.629V129.629ZM115.282 121.794C113.842 122.641 116.508 125.125 117.187 125.509C118.715 126.374 120.815 126.504 122.522 126.748C124.681 127.055 127.031 127.169 129.107 127.876C129.991 128.178 130.553 128.649 131.132 129.372C131.425 129.738 132.132 131.318 132.775 130.944C134.071 130.191 130.58 127.031 129.811 126.691C128.063 125.919 125.996 125.703 124.127 125.403C122.389 125.124 120.613 124.916 118.918 124.425C117.985 124.154 117.323 123.718 116.785 122.883C116.451 122.363 116.176 121.272 115.282 121.794Z" fill="#C1DEE2"/>
<path fill-rule="evenodd" clip-rule="evenodd" d="M137.364 131.5C135.703 131.536 134.045 131.664 132.388 131.792C131.459 131.864 130.529 131.935 129.599 131.991C129.308 132.008 129.017 132.024 128.726 132.04L128.726 132.04C127.907 132.084 127.086 132.128 126.271 132.21C126.147 132.223 126.004 132.235 125.848 132.247C125.155 132.304 124.21 132.382 123.607 132.635C123.054 132.216 122.2 132.572 122.187 133.318C122.164 134.676 122.177 136.01 122.343 137.36C122.381 137.673 122.579 139.26 123.01 140.086C122.856 140.867 123.521 141.086 124.14 141.146C126.537 141.377 129.05 141.197 131.53 141.02C132.791 140.93 134.043 140.841 135.267 140.806C135.673 140.795 136.086 140.79 136.5 140.786C137.853 140.77 139.232 140.755 140.542 140.499C140.595 140.489 140.651 140.479 140.71 140.468C141.228 140.375 141.942 140.247 141.996 139.677C142.029 139.335 141.836 139.022 141.514 138.978C141.536 138.693 141.5 138.381 141.474 138.152C141.468 138.098 141.462 138.05 141.458 138.007C141.379 137.214 141.182 136.427 140.987 135.649C140.943 135.475 140.899 135.3 140.857 135.127C140.81 134.934 140.767 134.706 140.721 134.459L140.721 134.459C140.556 133.588 140.349 132.494 139.799 131.986C139.221 131.453 138.282 131.477 137.529 131.496C137.473 131.497 137.418 131.498 137.364 131.5ZM140.286 139.063C140.089 138.548 140.031 137.85 139.976 137.186V137.186C139.942 136.77 139.909 136.368 139.843 136.033C139.793 135.781 139.753 135.516 139.712 135.247C139.612 134.592 139.508 133.911 139.262 133.338C138.933 132.569 138.64 132.599 137.947 132.668C137.818 132.681 137.675 132.695 137.516 132.706C136.81 132.754 136.104 132.815 135.398 132.876C135.06 132.906 134.721 132.935 134.383 132.963C132.934 133.082 131.484 133.173 130.035 133.265C129.188 133.318 128.341 133.372 127.494 133.431C126.829 133.477 126.18 133.604 125.534 133.729C125.022 133.829 124.512 133.928 123.997 133.987C123.989 134.164 123.975 134.34 123.961 134.509L123.961 134.509C123.941 134.738 123.923 134.952 123.927 135.127C123.944 135.902 124.013 136.673 124.081 137.446L124.081 137.446C124.092 137.564 124.102 137.683 124.113 137.802C124.125 137.944 124.156 138.127 124.19 138.33C124.242 138.645 124.303 139.007 124.316 139.34C124.379 139.34 124.441 139.34 124.503 139.34C124.582 139.341 124.66 139.341 124.734 139.34C126.56 139.308 128.384 139.252 130.208 139.182C130.441 139.173 130.674 139.164 130.907 139.155C132.534 139.092 134.162 139.028 135.791 139.01C136.438 139.002 137.094 139.023 137.751 139.043C138.598 139.069 139.447 139.096 140.286 139.063Z" fill="#89C5CC"/>
</g>
<path fill-rule="evenodd" clip-rule="evenodd" d="M65.7487 143.96L105.677 132.712C113.186 127.059 120.248 122.954 126.862 120.397C128.779 120.071 131.939 120.337 127.91 124.763C123.88 129.189 119.841 134.026 120.938 135.932C122.034 137.838 126.17 136.49 127.31 139.498C128.069 141.504 121.232 142.808 106.8 143.41L75.6031 161.087L65.7487 143.96Z" fill="#B79C87"/>
<path fill-rule="evenodd" clip-rule="evenodd" d="M2.50002 89.1729L8.85936 89.1727C18.7222 127.765 45.9138 149.195 97.8239 133.351L111.972 182.845C63.2503 196.202 18.9429 185.286 2.49988 132.999C2.49988 132.999 2.50002 101.5 2.50002 89.1729Z" fill="#FFABAB"/>
<path fill-rule="evenodd" clip-rule="evenodd" d="M253.532 222.296L213.604 211.048C206.095 205.395 199.033 201.29 192.418 198.733C190.502 198.407 187.342 198.673 191.371 203.099C195.4 207.525 199.44 212.362 198.343 214.268C197.247 216.174 193.111 214.826 191.971 217.834C191.212 219.84 198.048 221.144 212.481 221.746L243.678 239.423L253.532 222.296Z" fill="#EECBAE"/>
<path fill-rule="evenodd" clip-rule="evenodd" d="M316.781 167.509L310.421 167.509C300.559 206.101 273.367 227.531 221.457 211.687L207.308 261.181C256.03 274.538 300.338 263.622 316.781 211.334C316.781 211.334 316.781 179.836 316.781 167.509Z" fill="#6DFF89"/>
<path fill-rule="evenodd" clip-rule="evenodd" d="M174.397 108.358C174.647 102.989 174.99 97.6271 175.171 92.2544C175.261 89.5921 175.331 86.9296 175.399 84.2667C175.414 83.6738 175.429 83.0811 175.443 82.4882C175.487 80.4738 175.248 80.309 177.275 80.1302C186.318 79.332 195.397 79.0674 204.452 78.3452C215.371 77.4742 226.348 76.8728 237.299 76.6032C242.165 76.4831 247.052 76.2346 251.919 76.3859C252.997 76.4194 255.114 76.1388 255.538 76.977C255.722 77.3391 255.337 78.5853 255.288 79.0031C255.136 80.3085 254.993 81.6184 254.905 82.9303C254.388 90.6677 254.696 98.6001 256.194 106.22C252.68 104.238 248.239 102.534 244.143 102.872C239.967 103.217 236.842 105.63 233.5 107.851C231.609 109.107 230.972 109.437 229.085 108.22C227.46 107.171 225.922 105.972 224.388 104.795C222.021 102.979 219.787 101.01 217.492 99.1057C213.272 95.6047 207.458 90.6214 201.629 92.0886C197.465 93.1369 193.619 95.4256 190.005 97.6656C184.635 100.993 179.774 105.069 174.397 108.358ZM246.772 74.0011C226.024 74.0011 205.431 76.0125 184.742 77.1006C182.581 77.2141 180.428 77.3814 178.274 77.5892C176.839 77.7278 173.33 77.1461 172.39 78.3722C171.762 79.1902 172.302 79.313 172.39 80.0902C172.501 81.0698 172.435 82.2304 172.406 83.2672C172.337 85.7655 172.265 88.2635 172.208 90.762C171.994 100.205 171.86 109.646 172.242 119.086C172.326 121.145 173.076 123.996 172.665 125.996C172.368 127.445 171.375 128.326 173.666 128.594C175.92 128.858 178.676 128.187 180.933 127.973C183.202 127.757 185.471 127.522 187.743 127.335C197.621 126.521 207.595 126.644 217.499 126.374C227.493 126.101 237.49 126.083 247.487 126.078C251.669 126.075 256.449 126.311 260.53 125.159C261.966 124.754 262.198 124.555 261.844 123.13C261.777 122.86 261.343 122.76 261.216 122.271C261.043 121.606 261.132 120.798 261.091 120.106C260.959 117.845 260.913 115.581 260.807 113.318C260.629 109.539 259.977 105.871 259.496 102.129C258.94 97.8079 258.968 93.4205 258.957 89.0712C258.95 86.6587 259.012 84.2543 259.206 81.8485C259.33 80.3056 260.09 78.0019 259.705 76.5629C259.513 75.8465 259.199 75.2783 258.453 74.9699C257.981 74.7744 257.583 74.9274 257.116 74.8779C256.562 74.8191 256.217 74.7414 255.553 74.5911C252.71 73.9466 249.669 74.0011 246.772 74.0011Z" fill="#C4E2E6"/>
</svg>
