<svg width="414" height="429" viewBox="0 0 414 429" fill="none" xmlns="http://www.w3.org/2000/svg">
<path fill-rule="evenodd" clip-rule="evenodd" d="M-43.3655 309.238C-30.4461 259.288 100.283 287.744 185.988 272.301C271.692 256.859 373.088 184.942 440.194 220.171C507.299 255.399 435.9 340.557 281.988 359.775C128.077 378.992 -56.285 359.188 -43.3655 309.238Z" fill="#F2F2F2"/>
<g opacity="0.5">
<path fill-rule="evenodd" clip-rule="evenodd" d="M67.6785 93.8046C66.8752 94.6067 67.1872 97.4572 67.1704 98.5121C67.1446 100.154 67.2467 101.782 67.384 103.418C67.476 104.514 67.9946 114.969 69.4377 114.166C70.2513 113.714 69.7412 110.689 69.7398 109.733C69.7365 107.606 69.648 105.484 69.5062 103.362C69.3744 101.392 69.2916 99.4449 69.3675 97.471C69.386 96.9892 69.8368 91.6425 67.6785 93.8046Z" fill="#89C5CC"/>
<path fill-rule="evenodd" clip-rule="evenodd" d="M102.663 92.5151C95.7616 92.57 88.8629 92.9105 81.9647 93.119C78.6453 93.2194 75.328 93.347 72.0122 93.5309C70.8823 93.5937 68.459 93.2319 67.5176 93.834C65.4279 95.1706 68.7981 95.4831 69.6965 95.4504C83.3481 94.9554 97.0044 94.3034 110.668 94.2726C117.37 94.2577 124.069 94.4485 130.772 94.4057C133.334 94.3894 136.172 93.2854 136.819 96.2679C137.549 99.6333 136.71 103.38 136.482 106.762C136.329 109.02 136.383 111.23 136.485 113.486C136.55 114.931 136.381 116.559 136.636 117.977C136.882 119.343 137.863 120.162 138.763 118.632C139.301 117.718 139.033 115.461 139.069 114.402C139.117 112.976 139.072 111.551 139.072 110.124C139.072 106.643 139.563 103.175 139.498 99.6944C139.456 97.4499 139.337 93.3809 136.506 92.8416C133.389 92.2476 129.557 92.8449 126.367 92.8084C118.462 92.7182 110.571 92.4533 102.663 92.5151Z" fill="#89C5CC"/>
<path fill-rule="evenodd" clip-rule="evenodd" d="M83.6462 114.291C81.0438 114.291 78.4412 114.306 75.8391 114.35C73.6074 114.387 70.0985 113.921 68.0213 114.72C66.5994 115.266 66.2216 116.854 68.0213 117.277C69.9842 117.738 72.9425 116.984 74.9962 116.948C85.2942 116.766 95.6913 116.529 105.975 117.18C115.611 117.79 125.432 118.382 135.083 117.738C135.895 117.684 140.036 117.519 138.146 115.967C137.044 115.061 132.576 115.657 131.143 115.613C126.09 115.461 121.032 115.427 115.98 115.235C110.994 115.046 106.031 114.486 101.043 114.347C95.2493 114.186 89.4423 114.291 83.6462 114.291Z" fill="#89C5CC"/>
<path fill-rule="evenodd" clip-rule="evenodd" d="M81.0428 99.489C85.0989 99.6661 89.1119 105.549 85.0079 108.392C81.1578 111.059 73.9421 108.136 76.083 102.963C75.7753 103.711 76.4721 102.15 76.4809 102.14C76.888 101.66 77.6191 101.129 78.1208 100.751C78.6951 100.319 79.2931 99.8423 79.9855 99.6254C80.4401 99.4831 80.3687 100.019 81.0428 99.489ZM79.0673 97.3677C77.1689 98.1089 76.3025 98.9451 74.9979 100.458C74.0952 101.505 72.9445 102.056 72.9547 103.471C72.9568 103.784 73.3592 104.128 73.4287 104.43C73.5247 104.847 73.4135 105.381 73.4896 105.824C74.2749 110.394 79.7282 111.935 83.7198 111.072C87.1969 110.321 89.7973 106.983 88.9919 103.354C88.1809 99.7 82.763 95.9222 79.0673 97.3677Z" fill="#89C5CC"/>
<path fill-rule="evenodd" clip-rule="evenodd" d="M77.376 103.748C77.376 105.392 79.9731 105.392 79.9731 103.748C79.9731 102.123 77.376 102.053 77.376 103.748Z" fill="#89C5CC"/>
<path fill-rule="evenodd" clip-rule="evenodd" d="M80.6255 103.415C80.6255 104.722 82.6891 104.722 82.6891 103.415C82.6891 102.124 80.6255 102.069 80.6255 103.415Z" fill="#89C5CC"/>
<path fill-rule="evenodd" clip-rule="evenodd" d="M81.2641 106.11C80.6033 106.364 79.7651 105.837 79.2225 106.184C78.2617 106.799 79.2249 107.356 79.7399 107.603C82.0587 108.716 82.4713 105.647 81.2641 106.11Z" fill="#89C5CC"/>
<path fill-rule="evenodd" clip-rule="evenodd" d="M116.677 102.466C116.608 102.495 116.362 102.599 116.677 102.466V102.466ZM106.579 100.99C104.844 101.382 103.378 103.002 101.493 102.786C100.048 102.619 99.0695 101.225 97.643 101.022C95.8182 100.763 90.8517 104.926 93.4629 105.64C94.9863 106.057 95.8314 103.273 97.1773 103.125C98.242 103.008 99.6898 104.314 100.793 104.499C102.851 104.846 104.265 103.712 106.072 102.981C108.035 102.187 109.152 102.902 110.859 103.785C112.207 104.482 113.477 104.936 115.019 104.648C116.466 104.379 118.284 102.89 119.741 103.043C121.168 103.193 122.187 104.682 123.654 104.82C124.259 104.877 125.16 105.083 125.059 104.149C124.977 103.402 124.143 103.528 123.621 103.257C122.279 102.558 121.024 101.32 119.404 101.426C118.186 101.505 117.076 102.361 115.954 102.771C112.276 104.112 110.209 100.176 106.579 100.99Z" fill="#89C5CC"/>
<path fill-rule="evenodd" clip-rule="evenodd" d="M109.651 124.671C102.558 124.736 95.441 124.841 88.3678 125.41C86.6909 125.545 69.5681 127.161 69.6006 127.278C69.6606 127.493 71.863 127.822 71.8492 127.873C71.7008 127.505 71.3615 127.353 70.8315 127.416C87.071 127.416 103.259 125.962 119.52 126.224C123.606 126.289 127.707 126.262 131.79 126.391C132.809 126.423 135.335 127.154 136.135 126.693C138.236 125.485 134.419 125.346 133.787 125.295C125.785 124.655 117.676 124.591 109.651 124.671Z" fill="#69A1AC"/>
<path fill-rule="evenodd" clip-rule="evenodd" d="M67.4981 128.118C66.4377 129.181 67.4142 133.006 67.4559 134.443C67.5164 136.521 67.4666 138.614 67.6489 140.687C67.8571 143.055 68.1801 145.578 68.8013 147.875C69.1435 149.141 70.3445 151.152 70.8204 148.852C71.1602 147.21 70.6442 145.031 70.4647 143.358C70.2245 141.119 70.1664 138.91 70.1574 136.661C70.1493 134.701 70.1116 132.733 69.9509 130.779C69.8674 129.765 69.3571 126.269 67.4981 128.118Z" fill="#69A1AC"/>
<path fill-rule="evenodd" clip-rule="evenodd" d="M94.1773 147.595C89.1438 147.682 84.0993 147.8 79.0744 148.115C77.0148 148.244 74.9568 148.436 72.9048 148.654C72.4861 148.698 67.8514 148.886 69.9223 150.596C70.8571 151.369 74.7022 150.301 75.9722 150.19C78.1081 150.002 80.2436 149.881 82.3857 149.79C87.349 149.579 92.3276 149.393 97.2959 149.479C106.369 149.637 115.385 149.707 124.461 149.505C125.75 149.476 135.853 149.746 136.196 148.404C136.472 147.323 132.859 147.819 132.201 147.839C129.784 147.911 127.368 147.894 124.95 147.882C114.71 147.829 104.41 147.422 94.1773 147.595Z" fill="#69A1AC"/>
<path fill-rule="evenodd" clip-rule="evenodd" d="M134.485 126.324C134.645 130.805 135.408 135.282 135.652 139.777C135.764 141.832 135.895 143.885 135.996 145.941C136.028 146.604 135.761 148.201 136.545 148.583C137.621 149.106 137.765 148.052 137.967 147.339C138.548 145.279 138.155 142.604 138.102 140.488C138.051 138.44 138.048 136.387 137.897 134.342C137.742 132.253 137.321 130.203 137.126 128.122C137.043 127.241 137.332 125.776 136.397 125.23C135.589 124.757 134.45 125.352 134.485 126.324Z" fill="#69A1AC"/>
<path fill-rule="evenodd" clip-rule="evenodd" d="M85.0107 133.779C85.0299 133.794 85.0489 133.809 85.0678 133.824C85.0489 133.809 85.0297 133.794 85.0107 133.779ZM80.733 132.451C82.3281 132.907 83.6382 132.737 85.1619 133.898C86.425 134.861 87.7206 136.269 88.1396 137.826C89.1075 141.423 85.8261 143.394 82.7497 143.433C79.5986 143.472 74.9345 142.742 75.096 138.703C75.2198 135.599 77.4857 132.572 80.733 132.451ZM80.8454 130.418C76.7092 130.624 73.3727 135.269 73.4085 139.179C73.4516 143.918 78.8212 145.139 82.6354 145.172C86.9403 145.209 91.2331 142.236 90.0795 137.395C89.1552 133.517 84.8231 130.212 80.8454 130.418Z" fill="#69A1AC"/>
<path fill-rule="evenodd" clip-rule="evenodd" d="M76.6846 136.781C76.6846 138.103 78.7724 138.103 78.7724 136.781C78.7724 135.475 76.6846 135.419 76.6846 136.781Z" fill="#69A1AC"/>
<path fill-rule="evenodd" clip-rule="evenodd" d="M81.0635 136.201C81.0635 137.533 83.1679 137.533 83.1679 136.201C83.1679 134.885 81.0635 134.828 81.0635 136.201Z" fill="#69A1AC"/>
<path fill-rule="evenodd" clip-rule="evenodd" d="M78.6495 139.215C77.2906 140.571 82.0645 142.95 83.1903 141.062C84.1151 139.512 82.1017 140.026 81.388 139.942C80.6124 139.851 79.2826 138.583 78.6495 139.215Z" fill="#69A1AC"/>
<path fill-rule="evenodd" clip-rule="evenodd" d="M116.818 136.229C116.687 136.283 116.687 136.283 116.818 136.229V136.229ZM98.8902 134.02C97.5142 134.278 92.9986 135.802 92.9376 137.434C92.8262 140.401 97.2486 137.362 98.209 136.972C100.818 135.912 102.189 138.074 104.809 138.188C107.085 138.287 109.178 136.34 111.322 136.57C113.568 136.811 114.649 139.201 117.242 137.932C118.614 137.261 118.58 136.226 117.04 136.129C116.109 136.07 115.469 136.454 114.499 136.054C112.981 135.428 112.37 134.409 110.553 134.57C109.183 134.693 107.944 135.465 106.606 135.764C103.543 136.449 101.844 133.467 98.8902 134.02Z" fill="#69A1AC"/>
<path fill-rule="evenodd" clip-rule="evenodd" d="M127.385 137.517C127.291 137.556 127.291 137.556 127.385 137.517V137.517ZM127.732 136.281C127.748 136.287 127.852 136.431 127.732 136.281V136.281ZM126.155 135.338C126.096 135.383 126.096 135.383 126.155 135.338V135.338ZM126.19 135.326C126.496 135.509 128.955 137.191 127.168 137.587C126.262 137.788 125.512 135.963 126.19 135.326ZM125.375 133.463C121.436 135.26 125.675 141.687 128.767 139.076C130.068 137.977 130.239 135.756 128.973 134.611C128.215 133.925 126.405 132.993 125.375 133.463Z" fill="#69A1AC"/>
<path fill-rule="evenodd" clip-rule="evenodd" d="M88.3976 158.792C83.4822 158.793 78.5236 158.69 73.6148 158.982C72.7887 159.031 69.6416 158.873 69.216 159.737C68.4373 161.317 71.6754 160.532 72.1458 160.485C81.9198 159.507 92.1296 160.07 101.936 160.349C109.956 160.577 117.933 160.718 125.943 161.131C128.049 161.24 130.153 161.36 132.257 161.487C132.943 161.528 134.669 161.983 134.813 160.888C134.947 159.874 132.794 160.103 132.256 160.074C127.979 159.849 123.705 159.613 119.429 159.373C109.137 158.792 98.7061 158.79 88.3976 158.792Z" fill="#89C5CC"/>
<path fill-rule="evenodd" clip-rule="evenodd" d="M69.0579 160.548C68.1398 161.461 68.5702 164.946 68.5446 166.098C68.4998 168.112 68.4047 170.125 68.362 172.139C68.3177 174.245 68.3793 176.359 68.5038 178.461C68.556 179.344 69.2803 183.609 70.4209 181.168C70.9304 180.078 70.4086 177.039 70.4164 175.803C70.4304 173.554 70.5515 171.314 70.6635 169.067C70.7597 167.136 70.7633 165.203 70.8477 163.272C70.8745 162.656 70.9473 158.653 69.0579 160.548Z" fill="#89C5CC"/>
<path fill-rule="evenodd" clip-rule="evenodd" d="M135.64 178.543C130.856 179.033 125.996 178.802 121.194 179.164C117.056 179.476 112.921 179.604 108.772 179.691C99.3768 179.89 89.9656 180.083 80.5976 180.866C78.4626 181.044 76.3302 181.234 74.1895 181.329C73.1189 181.377 68.6265 180.89 68.2919 182.018C67.7221 183.941 72.5263 183.18 73.5625 183.15C75.8412 183.084 78.1093 182.919 80.3816 182.746C89.9336 182.018 99.5221 181.801 109.095 181.498C114.301 181.334 119.471 180.953 124.665 180.607C127.254 180.434 129.85 180.428 132.439 180.261C133.117 180.217 135.514 180.304 136.002 179.758C136.337 179.384 136.421 178.47 135.64 178.543Z" fill="#89C5CC"/>
<path fill-rule="evenodd" clip-rule="evenodd" d="M134.019 160.875C134.183 165.462 134.442 170.046 134.597 174.633C134.644 176.013 134.227 178.485 134.995 179.702C136.23 181.658 137.194 179.588 137.421 178.369C138.134 174.522 137.367 170.272 137.168 166.401C137.092 164.924 137.55 161.637 136.836 160.316C136.157 159.057 133.958 159.183 134.019 160.875Z" fill="#89C5CC"/>
<path fill-rule="evenodd" clip-rule="evenodd" d="M125.988 167.409C127.82 167.905 128.088 171.89 126.02 172.184C122.942 172.623 124.288 168.23 125.988 167.409ZM125.474 165.825C124.915 165.807 123.624 165.653 123.28 166.108C122.992 166.489 123.283 167.292 123.249 167.655C123.128 168.951 122.074 169.7 122.545 171.23C122.865 172.269 123.722 173.245 124.765 173.606C130.274 175.51 130.207 164.867 125.474 165.825Z" fill="#89C5CC"/>
<path fill-rule="evenodd" clip-rule="evenodd" d="M75.7442 166.54C75.7305 166.557 75.7167 166.575 75.7032 166.592C75.7167 166.575 75.7305 166.557 75.7442 166.54ZM80.0706 164.238C80.049 164.054 80.0274 163.869 80.0058 163.685C82.9923 165.095 85.3687 167.717 84.3771 171.237C83.6205 173.922 80.8867 174.875 78.3399 174.212C75.5205 173.478 74.1732 171.154 74.9334 168.3C75.2841 166.984 76.3611 165.214 77.7532 164.791C78.4013 164.594 79.8344 165.096 80.0706 164.238ZM78.3241 163.123C77.5687 163.174 76.8334 163.489 76.2169 163.919C76.794 163.431 77.5632 163.14 78.3241 163.123ZM78.3459 161.388C76.4798 161.445 75.257 162.575 74.1501 163.932C73.8027 164.358 72.6283 165.487 72.7736 166.06C72.8886 166.514 73.1895 167.177 73.8231 166.672C70.5046 173.285 79.0774 178.926 84.3108 174.327C89.1949 170.035 84.3492 161.187 78.3459 161.388Z" fill="#89C5CC"/>
<path fill-rule="evenodd" clip-rule="evenodd" d="M76.6504 167.532C76.6504 168.412 78.0176 168.412 78.0176 167.532C78.0176 166.651 76.6504 166.651 76.6504 167.532Z" fill="#89C5CC"/>
<path fill-rule="evenodd" clip-rule="evenodd" d="M78.9839 167.682C78.9839 168.577 80.3732 168.577 80.3732 167.682C80.3732 166.787 78.9839 166.787 78.9839 167.682Z" fill="#89C5CC"/>
<path fill-rule="evenodd" clip-rule="evenodd" d="M80.0425 170.826C79.3926 170.879 77.0136 170.658 76.596 171.227C75.8982 172.179 77.012 172.212 77.559 172.315C78.0517 172.407 80.1936 172.355 80.4954 171.917C80.7622 171.531 80.6998 170.77 80.0425 170.826Z" fill="#89C5CC"/>
<path fill-rule="evenodd" clip-rule="evenodd" d="M108.705 168.359C108.593 168.405 108.593 168.405 108.705 168.359V168.359ZM99.7163 167.701C98.2518 167.809 97.0115 168.651 95.6113 168.987C94.1167 169.346 93.4699 168.686 92.111 168.254C90.6973 167.805 89.6917 167.982 88.5554 168.948C87.9116 169.495 86.4991 170.754 86.9015 171.726C87.8229 173.95 89.9086 170.331 90.8896 170.163C92.4199 169.9 93.7815 171.238 95.5461 170.856C97.1452 170.509 98.5641 169.411 100.234 169.399C101.631 169.389 102.947 170.153 104.326 170.338C106.431 170.621 107.813 169.873 109.759 169.318C111.446 168.837 112.629 169.472 114.216 170.005C114.942 170.249 117.362 171.136 116.917 169.528C116.791 169.074 113.601 168.262 113.107 168.106C111.363 167.555 110.259 167.77 108.598 168.403C107.212 168.931 106.047 169.189 104.562 168.898C102.926 168.578 101.438 167.57 99.7163 167.701Z" fill="#89C5CC"/>
</g>
<g opacity="0.5">
<path fill-rule="evenodd" clip-rule="evenodd" d="M167.097 93.9777C167.334 88.8928 167.659 83.815 167.83 78.727C167.915 76.2057 167.981 73.6843 168.045 71.1625C168.06 70.601 168.074 70.0397 168.087 69.4782C168.129 67.5706 167.902 67.4145 169.822 67.2452C178.386 66.4892 186.984 66.2387 195.559 65.5547C205.9 64.7298 216.295 64.1603 226.666 63.905C231.274 63.7913 235.902 63.5559 240.511 63.6992C241.533 63.7309 243.537 63.4652 243.939 64.259C244.113 64.6019 243.748 65.7821 243.702 66.1778C243.558 67.414 243.423 68.6545 243.34 69.8969C242.849 77.2243 243.142 84.7365 244.561 91.9528C241.232 90.076 237.027 88.4615 233.147 88.782C229.192 89.1085 226.234 91.3937 223.068 93.4969C221.277 94.6865 220.674 94.9994 218.888 93.847C217.348 92.8537 215.892 91.7181 214.439 90.6036C212.198 88.8836 210.082 87.0186 207.908 85.2154C203.912 81.8998 198.406 77.1805 192.886 78.57C188.942 79.5628 185.301 81.7302 181.878 83.8515C176.792 87.0029 172.189 90.8622 167.097 93.9777ZM235.637 61.4405C215.988 61.4405 196.487 63.3453 176.893 64.3758C174.847 64.4833 172.808 64.6417 170.769 64.8385C169.41 64.9697 166.086 64.4189 165.196 65.58C164.602 66.3547 165.112 66.471 165.196 67.207C165.301 68.1347 165.239 69.2338 165.212 70.2157C165.146 72.5816 165.077 74.9472 165.024 77.3134C164.821 86.256 164.694 95.1969 165.056 104.137C165.135 106.087 165.846 108.786 165.457 110.681C165.176 112.053 164.235 112.888 166.404 113.141C168.539 113.391 171.149 112.756 173.286 112.553C175.435 112.348 177.584 112.126 179.736 111.949C189.09 111.178 198.536 111.294 207.915 111.038C217.379 110.78 226.847 110.763 236.314 110.758C240.275 110.756 244.801 110.979 248.666 109.888C250.026 109.505 250.246 109.316 249.911 107.967C249.847 107.711 249.437 107.616 249.316 107.153C249.152 106.524 249.236 105.758 249.198 105.103C249.073 102.962 249.029 100.817 248.928 98.6747C248.76 95.0953 248.143 91.6215 247.687 88.0781C247.16 83.986 247.187 79.8311 247.176 75.7122C247.17 73.4275 247.229 71.1504 247.412 68.8722C247.53 67.4109 248.25 65.2293 247.885 63.8666C247.703 63.1881 247.406 62.65 246.699 62.358C246.252 62.1728 245.876 62.3177 245.433 62.2708C244.909 62.2152 244.582 62.1415 243.953 61.9992C241.26 61.3889 238.381 61.4405 235.637 61.4405Z" fill="#69A1AC"/>
<path fill-rule="evenodd" clip-rule="evenodd" d="M224.763 71.1695C224.762 72.5935 224.539 74.6949 225.196 76.0358C226.029 77.7367 227.07 77.205 227.346 75.6067C227.504 74.6909 227.5 71.9806 227.206 71.1695C226.79 70.0214 224.763 69.2393 224.763 71.1695Z" fill="#89C5CC"/>
<path fill-rule="evenodd" clip-rule="evenodd" d="M227.152 71.7192C225.815 71.7663 221.922 71.4454 221.017 72.5204C219.466 74.3641 222.167 74.6907 223.327 74.5874C224.669 74.4681 228.816 74.7594 229.715 73.6832C231.218 71.8829 228.204 71.6809 227.152 71.7192Z" fill="#89C5CC"/>
<path fill-rule="evenodd" clip-rule="evenodd" d="M175.273 119.292C181.15 120.313 179.322 129.274 173.76 127.198C171.823 126.475 168.967 124.385 170.038 121.923C170.838 120.084 173.446 119.117 175.273 119.292ZM172.839 116.506C169.017 117.15 166.404 121.286 167.714 124.894C168.978 128.375 173.774 130.924 177.31 129.673C180.686 128.479 182.371 123.987 181.232 120.701C180.043 117.268 176.169 115.946 172.839 116.506Z" fill="#89C5CC"/>
<path fill-rule="evenodd" clip-rule="evenodd" d="M208.588 120.34C207.125 120.462 205.86 121.486 204.388 121.668C203.011 121.837 201.87 121.366 200.581 120.99C199.023 120.535 197.594 120.334 196.002 120.739C194.785 121.048 193.585 121.876 192.321 121.976C189.834 122.172 186.943 119.334 185.001 122.544C184.07 124.082 185.422 125.074 186.814 124.356C188.266 123.608 187.553 123.34 189.354 123.782C190.856 124.15 192.07 124.351 193.575 123.834C194.938 123.367 196.135 122.511 197.616 122.415C199.067 122.321 200.329 122.982 201.716 123.267C203.421 123.617 204.93 123.352 206.546 122.818C208.083 122.309 208.696 122.031 210.247 122.485C211.229 122.772 213.374 123.684 214.33 122.949C215.982 121.678 213.77 121.492 212.898 121.311C211.496 121.021 210.044 120.221 208.588 120.34Z" fill="#89C5CC"/>
<path fill-rule="evenodd" clip-rule="evenodd" d="M242.075 119.486C242.086 119.495 242.098 119.504 242.109 119.513C242.098 119.504 242.086 119.495 242.075 119.486ZM240.638 119.186C242.775 119.324 245.085 123.215 242.254 123.353C240.262 123.45 238.033 120.043 240.638 119.186ZM240.338 116.001C233.583 117.888 236.671 127.411 243.187 126.311C246.146 125.811 247.149 122.383 246.171 119.845C245.751 118.755 244.932 117.835 243.952 117.208C243.23 116.745 241.164 115.771 240.338 116.001Z" fill="#89C5CC"/>
<path fill-rule="evenodd" clip-rule="evenodd" d="M208.823 135.884C214.767 135.68 220.712 135.476 226.662 135.421C229.887 135.391 233.094 135.447 236.314 135.632C237.743 135.714 239.17 135.793 240.599 135.853C240.845 135.864 241.186 135.847 241.562 135.829C242.447 135.785 243.527 135.732 244.035 136.001C246.877 137.504 241.086 137.669 240.382 137.657C238.805 137.631 237.231 137.553 235.656 137.475C234.279 137.407 232.903 137.339 231.525 137.305C222.686 137.088 213.793 137.485 204.939 137.881C202.91 137.971 200.882 138.062 198.857 138.145C196.708 138.233 194.559 138.29 192.411 138.347C189.339 138.429 186.268 138.51 183.196 138.683C182.023 138.749 180.851 138.819 179.678 138.888L179.678 138.888L179.678 138.888L179.678 138.888C177.998 138.988 176.318 139.088 174.637 139.177C173.322 139.246 172.006 139.314 170.688 139.347C170.451 139.353 170.142 139.386 169.805 139.422H169.805C168.988 139.509 168.005 139.614 167.474 139.397C166.836 139.135 166.319 138.77 166.67 137.996C166.967 137.342 168.046 137.421 168.833 137.478C169.048 137.493 169.241 137.507 169.391 137.504C171.905 137.456 174.414 137.315 176.924 137.161C177.843 137.105 178.761 137.047 179.679 136.989C184.457 136.689 189.231 136.388 194.022 136.307C198.958 136.222 203.89 136.053 208.823 135.884ZM239.869 175.006L241.578 174.985C242.46 175.062 242.855 175.989 242.289 176.701C241.855 177.246 240.185 177.271 239.097 177.287C238.795 177.291 238.538 177.295 238.365 177.309C235.523 177.537 232.688 177.64 229.838 177.667C223.837 177.724 217.859 177.982 211.868 178.323C205.735 178.673 199.597 178.804 193.459 178.936H193.459C188.943 179.033 184.426 179.129 179.912 179.313C177.327 179.418 174.741 179.497 172.155 179.565C171.877 179.572 171.507 179.612 171.089 179.657C169.456 179.833 167.082 180.09 166.544 178.792C166.066 177.641 166.73 177.111 167.7 176.87C167.547 176.188 167.575 175.23 167.591 174.681C167.596 174.516 167.6 174.388 167.598 174.315C167.573 173.627 167.556 172.939 167.539 172.25C167.52 171.47 167.501 170.69 167.471 169.911C167.443 169.203 167.418 168.495 167.393 167.786C167.292 164.991 167.192 162.19 166.977 159.406C166.878 158.121 166.72 156.852 166.563 155.584C166.312 153.56 166.062 151.542 166.05 149.475C166.048 149.104 166.03 148.639 166.009 148.115C165.901 145.432 165.732 141.191 167.397 139.9C170.333 138.186 169.752 143.132 169.493 145.338C169.45 145.703 169.416 145.993 169.408 146.165C169.24 149.835 169.469 153.343 169.838 156.99C170.087 159.453 169.942 161.907 169.796 164.366C169.744 165.244 169.692 166.122 169.657 167.002C169.641 167.437 169.626 167.872 169.611 168.307C169.564 169.646 169.518 170.983 169.417 172.32C169.406 172.465 169.403 172.742 169.398 173.097C169.385 174.096 169.364 175.709 169.15 176.688C169.605 176.668 170.048 176.673 170.413 176.677C170.646 176.68 170.847 176.682 171.001 176.677C171.702 176.656 172.403 176.635 173.103 176.615C175.174 176.554 177.244 176.494 179.315 176.416C184.201 176.232 189.089 176.171 193.977 176.109H193.977H193.977C199.751 176.037 205.524 175.964 211.295 175.69C220.805 175.238 230.348 175.122 239.869 175.006ZM241.633 139.129C241.628 145.416 242.114 151.53 242.682 157.791C243.033 161.663 243.315 165.551 243.539 169.434C243.549 169.613 243.548 169.913 243.546 170.289C243.535 172.436 243.51 177.063 245.632 175.956C247.234 175.12 246.618 170.275 246.277 167.594V167.594C246.203 167.006 246.141 166.522 246.119 166.207C246.073 165.537 246.027 164.866 245.981 164.196C245.767 161.084 245.554 157.974 245.273 154.865L245.214 154.21L245.214 154.21C244.889 150.619 244.564 147.031 244.507 143.423C244.502 143.125 244.531 142.709 244.563 142.24C244.657 140.882 244.782 139.073 244.218 138.352C243.424 137.337 241.635 137.637 241.633 139.129Z" fill="#69A1AC"/>
<path fill-rule="evenodd" clip-rule="evenodd" d="M209.095 154.54C216.687 151.105 224.368 147.63 232.264 145.156C232.834 144.977 233.195 145.566 233.065 146.059C232.932 146.568 231.697 147.002 230.878 147.29C230.633 147.376 230.425 147.449 230.295 147.507C229.192 148 228.086 148.486 226.981 148.973C225.848 149.471 224.716 149.969 223.587 150.474C221.239 151.523 218.889 152.568 216.538 153.612C214.021 154.731 211.504 155.849 208.99 156.974C208.895 157.016 208.8 157.059 208.705 157.101C212.123 158.316 215.522 159.585 218.907 160.893C220.063 161.34 221.216 161.796 222.368 162.252C223.021 162.51 223.673 162.768 224.326 163.024C224.538 163.108 224.909 163.221 225.353 163.357C226.803 163.799 229.045 164.484 229.211 165.175C229.48 166.302 226.385 165.212 225.217 164.801C225.062 164.746 224.941 164.704 224.866 164.68C223.143 164.129 221.44 163.515 219.738 162.902L219.503 162.817C218.154 162.331 216.807 161.84 215.46 161.349C212.829 160.389 210.198 159.43 207.553 158.51C207.179 158.379 206.805 158.25 206.43 158.121C202.185 160.027 197.948 161.953 193.725 163.908C191.461 164.957 189.209 166.03 186.963 167.118C186.473 167.355 185.866 167.722 185.206 168.12C183.626 169.076 181.744 170.213 180.45 170.185C179.756 170.169 179.288 170.02 179.216 169.179C179.141 168.311 180.255 167.856 181.056 167.529C181.247 167.45 181.421 167.379 181.556 167.312C183.957 166.111 186.372 164.941 188.794 163.785C193.605 161.491 198.461 159.288 203.334 157.129C203.362 157.116 203.391 157.104 203.419 157.091C200.716 156.176 198.006 155.283 195.29 154.409C195.018 154.322 194.462 154.168 193.731 153.966C190.279 153.009 182.923 150.972 183.251 149.782C183.626 148.421 190.522 150.909 193.575 152.011C194.147 152.217 194.584 152.375 194.818 152.449C198.469 153.613 202.109 154.809 205.73 156.059C206.85 155.556 207.971 155.049 209.095 154.54Z" fill="#89C5CC"/>
<path fill-rule="evenodd" clip-rule="evenodd" d="M176.562 184.436C178.785 184.825 180.352 186.957 180.108 189.19C179.779 192.207 176.772 193.589 173.995 193.196C170.843 192.749 170.18 190.085 171.707 187.522C172.045 186.954 172.434 186.275 173.048 185.976C173.471 185.771 174.009 185.953 174.349 185.787C175.542 185.207 174.825 184.282 176.562 184.436ZM175.55 182.465C172.838 182.811 167.827 185.949 168.081 189.089C168.301 189.453 168.632 189.602 169.074 189.536C168.968 190.216 169.002 190.889 169.178 191.555C169.435 192.419 169.949 193.127 170.638 193.69C172.056 194.849 173.995 195.134 175.761 194.93C179.058 194.551 181.657 192.298 181.843 188.868C182.023 185.52 179.101 182.016 175.55 182.465Z" fill="#89C5CC"/>
<path fill-rule="evenodd" clip-rule="evenodd" d="M188.685 186.551C187.469 187.196 185.544 188.186 184.83 189.411C184.076 190.705 184.857 192.12 186.445 191.508C187.706 191.022 188.508 189.479 189.853 188.984C191.04 188.548 191.518 188.77 192.773 189.205C194.065 189.653 195.195 190.085 196.592 189.976C198.349 189.838 199.87 188.819 201.589 188.588C203.036 188.392 204.23 188.956 205.616 189.18C207.224 189.439 208.275 188.831 209.78 188.514C210.804 188.298 212.607 189.176 213.354 188.847C215.032 188.109 213.257 187.207 212.328 186.909C210.762 186.407 209.799 186.85 208.31 187.266C206.694 187.718 205.996 187.379 204.45 186.963C201.324 186.123 198.909 188.154 195.946 187.785C193.203 187.443 191.561 185.028 188.685 186.551Z" fill="#89C5CC"/>
<path fill-rule="evenodd" clip-rule="evenodd" d="M239.803 185.05C242.812 187.871 239.431 191.885 236.113 189.63C234.946 188.837 234.927 187.562 235.836 186.422C236.667 185.379 238.493 184.972 239.803 185.05ZM238.687 182.771C235.876 183.318 233.224 184.608 232.969 187.852C232.721 191.018 235.968 192.488 238.696 192.28C244.82 191.814 244.377 181.671 238.687 182.771Z" fill="#89C5CC"/>
</g>
<path opacity="0.5" fill-rule="evenodd" clip-rule="evenodd" d="M359.381 57.1069C355.893 57.1575 347.278 58.1101 345.997 61.2083C345.025 63.5601 347.913 63.0437 349.461 62.188C351.555 61.0308 353.39 60.3382 355.985 59.9862C365.868 58.6441 375.363 63.4567 385.151 64.0654C388.859 64.2959 393.333 64.4461 396.873 63.5447C399.394 62.9027 399.723 61.503 396.846 61.2898C394.402 61.1087 391.697 61.6795 389.191 61.6632C378.821 61.5967 369.603 56.9605 359.381 57.1069Z" fill="#C1DEE2"/>
<g opacity="0.5">
<path fill-rule="evenodd" clip-rule="evenodd" d="M69.0059 203.96C64.7036 204.008 60.4033 204.167 56.1095 204.438C52.0261 204.697 47.5956 204.501 43.5788 205.292C42.4382 205.517 40.8975 206.556 42.4141 207.7C43.4801 208.504 47.3802 207.579 48.6531 207.501C53.341 207.213 58.0312 206.868 62.7257 206.702C67.1699 206.545 71.6139 206.489 76.0602 206.445C76.7391 206.438 77.8659 206.221 78.542 206.418C79.5133 206.701 79.2829 206.778 79.3556 208.011C79.4874 210.245 79.451 212.487 79.4067 214.723C79.3638 216.887 79.2838 219.05 79.2916 221.215C79.2971 222.759 78.8034 225.828 79.5784 227.169C80.6939 229.1 81.851 227.003 81.9344 225.72C82.094 223.266 82.0225 220.783 82.0232 218.326C82.0237 216.02 82.0402 213.713 81.959 211.409C81.9 209.743 82.138 206.837 81.2411 205.323C80.3276 203.782 78.1281 204.114 76.5231 204.041C74.0196 203.925 71.5116 203.934 69.0059 203.96Z" fill="#89C5CC"/>
<path fill-rule="evenodd" clip-rule="evenodd" d="M41.632 206.743C41.6367 211.076 41.1355 215.38 40.995 219.708C40.9306 221.698 40.7999 223.883 41.3033 225.836C41.8115 227.808 43.4254 228.236 43.6113 226.034C43.9878 221.575 43.8954 216.952 44.1886 212.457C44.292 210.87 44.9655 207.962 44.3368 206.476C43.7832 205.167 41.6296 204.916 41.632 206.743Z" fill="#89C5CC"/>
<path fill-rule="evenodd" clip-rule="evenodd" d="M81.9768 225.841C74.5051 226.83 66.694 226.47 59.169 226.625C55.5587 226.7 51.9492 226.705 48.3385 226.742C47.0783 226.755 43.8782 226.276 42.788 226.984C41.0526 228.112 42.9355 228.982 44.0844 229.007C51.21 229.163 58.4148 228.836 65.539 228.602C68.7398 228.497 71.9511 228.446 75.1434 228.174C77.1088 228.006 79.2564 227.844 81.1649 227.316C81.5714 227.203 82.4568 227.226 82.5479 226.672C82.6041 226.329 82.5022 225.769 81.9768 225.841Z" fill="#89C5CC"/>
<path fill-rule="evenodd" clip-rule="evenodd" d="M50.907 232.14C48.8304 232.152 42.5726 231.188 41.7126 233.213C40.5661 235.913 45.0387 235.283 46.2416 235.252C48.9736 235.182 51.7038 235.174 54.4365 235.175C57.1178 235.177 59.7989 235.159 62.4798 235.096C63.2565 235.077 65.0643 235.399 65.5111 234.464C65.8507 233.753 65.5824 233.192 64.9561 232.816C63.4492 231.91 59.5345 232.436 57.7702 232.354C55.4859 232.249 53.1941 232.14 50.907 232.14Z" fill="#89C5CC"/>
<path fill-rule="evenodd" clip-rule="evenodd" d="M76.1703 232.64C74.9835 232.711 72.583 232.221 71.5198 232.764C70.3115 233.382 70.7372 234.348 71.7805 234.773C72.5029 235.067 75.4665 234.913 76.1703 234.572C76.9038 234.217 77.7333 232.544 76.1703 232.64Z" fill="#89C5CC"/>
<path fill-rule="evenodd" clip-rule="evenodd" d="M89.1809 207.167C87.9134 207.515 88.298 214.711 88.2653 215.852C88.1758 218.977 87.8244 222.908 88.8629 225.918C89.5252 227.837 90.7972 227.577 90.5806 225.557C90.3902 223.784 90.0637 222.031 89.9223 220.246C89.6026 216.208 89.1677 211.901 89.4696 207.859C89.5981 208.094 90.8005 210.272 91.0835 210.109C90.998 210.16 89.6966 207.031 89.1809 207.167Z" fill="#89C5CC"/>
<path fill-rule="evenodd" clip-rule="evenodd" d="M103.439 204.517C100.874 204.555 98.3087 204.6 95.7443 204.671C93.7053 204.728 90.5014 204.393 88.6315 205.251C86.405 206.272 87.4613 208.547 89.5526 208.595C91.4026 208.638 93.3755 208.221 95.2423 208.157C100.285 207.984 105.336 207.947 110.381 207.904C114.943 207.865 119.699 208.351 124.222 207.666C124.892 213.623 123.078 219.604 123.695 225.629C123.791 226.564 123.748 227.885 124.939 228.098C126.442 228.367 126.504 226.879 126.561 225.813C126.723 222.769 126.635 219.723 126.858 216.676C127.065 213.852 127.471 210.966 127.127 208.137C126.705 204.656 125.037 204.935 122.089 204.791C115.862 204.485 109.673 204.425 103.439 204.517Z" fill="#89C5CC"/>
<path fill-rule="evenodd" clip-rule="evenodd" d="M94.8422 225.668C93.5352 225.7 91.3643 225.298 90.5268 226.551C89.6554 227.855 90.6892 228.992 91.9563 229.26C93.4561 229.577 95.4117 229.143 96.9683 229.138C98.5893 229.133 100.211 229.151 101.832 229.158C108.782 229.185 115.761 229.29 122.706 229.003C123.676 228.963 126.429 229.288 127.1 228.358C127.696 227.532 127.279 226.792 126.495 226.372C125.207 225.682 122.564 225.945 121.132 225.89C119.364 225.823 117.594 225.8 115.825 225.773C108.843 225.665 101.824 225.495 94.8422 225.668Z" fill="#89C5CC"/>
<path fill-rule="evenodd" clip-rule="evenodd" d="M100.721 231.696C98.1203 231.741 95.3454 231.626 92.7704 232.021C90.5063 232.368 90.2276 234.556 92.6648 234.812C94.9046 235.048 97.62 234.608 99.8706 234.463C100.67 234.412 101.6 234.485 101.983 233.601C102.383 232.678 101.618 231.793 100.721 231.696Z" fill="#89C5CC"/>
<path fill-rule="evenodd" clip-rule="evenodd" d="M120.383 231.925C118.995 231.96 114.94 231.363 114.253 232.949C113.108 235.588 118.597 234.585 119.65 234.547C120.977 234.498 126.15 235.273 126.151 233.16C126.152 231.088 121.654 231.894 120.383 231.925Z" fill="#89C5CC"/>
<path fill-rule="evenodd" clip-rule="evenodd" d="M41.4075 245.043C41.4108 249.845 41.112 254.692 41.55 259.482C41.7312 261.463 41.7001 265.258 42.8476 266.938C43.6621 268.13 44.7918 268.046 45.2368 266.615C45.5342 265.658 45.0585 263.744 45.0054 262.72C44.9543 261.738 44.8946 260.756 44.8491 259.773C44.7324 257.241 44.7416 254.713 44.7764 252.18C44.8063 250.007 45.3293 247.133 44.8361 245.043C44.3763 243.096 41.4075 242.64 41.4075 245.043Z" fill="#69A1AC"/>
<path fill-rule="evenodd" clip-rule="evenodd" d="M89.6683 240.819C81.337 241.027 72.9871 240.841 64.6631 241.253C60.558 241.457 56.469 241.903 52.3844 242.348C50.3777 242.567 48.3721 242.793 46.3689 243.04C45.7644 243.114 40.7413 243.309 42.6306 245.219C43.4555 246.053 46.0808 245.182 47.1195 245.059C49.1308 244.821 51.1461 244.614 53.1601 244.401C56.9927 243.996 60.8301 243.612 64.679 243.399C73.7438 242.897 82.8461 243.047 91.9199 242.713C94.3744 242.622 96.8216 242.557 99.277 242.654C99.9218 242.679 104.66 242.92 102.603 241.17C101.63 240.342 97.9624 240.769 96.7467 240.745C94.3874 240.696 92.0267 240.759 89.6683 240.819Z" fill="#69A1AC"/>
<path fill-rule="evenodd" clip-rule="evenodd" d="M101.026 248.909C100.985 246.69 100.943 244.472 100.842 242.255C100.736 239.92 103.916 239.567 104.859 241.456C105.538 242.817 105.419 245.132 105.316 247.116C105.275 247.915 105.237 248.661 105.254 249.269C105.295 250.662 105.397 252.103 105.501 253.563C105.763 257.237 106.032 261.032 105.346 264.5C105.012 266.186 103.59 267.072 102.644 266.153C102.643 266.155 102.641 266.157 102.64 266.159C102.284 266.683 101.176 266.682 100.36 266.681C100.135 266.681 99.9328 266.681 99.7742 266.692C97.5387 266.843 95.3447 267.1 93.1291 267.432C88.7145 268.094 84.3382 268.5 79.8758 268.611C76.8479 268.686 73.8158 268.711 70.7829 268.736C64.9753 268.784 59.1647 268.832 53.3755 269.23C51.4237 269.364 49.5015 269.594 47.5816 269.961C47.4182 269.992 47.2367 270.033 47.0436 270.076C45.6161 270.393 43.5495 270.853 43.4083 268.858C43.2405 266.49 48.3722 266.18 51.013 266.02C51.4162 265.996 51.7613 265.975 52.0206 265.951C60.0392 265.205 68.1835 265.321 76.236 265.435C76.6262 265.44 77.0162 265.446 77.4059 265.451C78.0343 265.46 78.6625 265.47 79.2906 265.481C82.7383 265.537 86.182 265.594 89.6287 265.383C91.1971 265.287 92.7861 265.238 94.378 265.189C96.9177 265.11 99.4649 265.031 101.949 264.762C101.574 263.31 101.509 261.595 101.447 259.98C101.423 259.351 101.399 258.737 101.359 258.159C101.14 255.08 101.083 251.995 101.026 248.909Z" fill="#69A1AC"/>
<path fill-rule="evenodd" clip-rule="evenodd" d="M107.769 243.964C106.643 244.117 105.704 245.081 106.207 246.303C106.84 247.841 108.725 247.24 109.97 247.142C113.928 246.832 118.061 247.452 121.971 246.984C123.039 246.857 124.588 246.275 123.629 244.84C122.909 243.762 120.283 243.951 119.166 243.848C115.349 243.494 111.581 243.589 107.769 243.964Z" fill="#C1DEE2"/>
<path fill-rule="evenodd" clip-rule="evenodd" d="M114.449 250.676C112.914 250.78 109.34 250.698 108.693 252.445C107.533 255.578 112.078 254.474 113.462 254.296C115.069 254.089 118.859 254.643 119.715 253.084C121.245 250.297 115.795 250.583 114.449 250.676Z" fill="#C1DEE2"/>
<path fill-rule="evenodd" clip-rule="evenodd" d="M110.502 257.552C109.773 258.28 109.772 259.581 110.502 260.31C111.395 261.202 113.34 261.016 114.513 261.082C116.15 261.173 120.85 262.038 121.662 260.112C122.759 257.512 118.503 257.566 117.103 257.419C115.485 257.248 111.843 256.21 110.502 257.552Z" fill="#C1DEE2"/>
<path fill-rule="evenodd" clip-rule="evenodd" d="M53.1372 213.048C53.1372 215.843 57.5028 215.843 57.5028 213.048C57.5028 210.268 53.1372 210.226 53.1372 213.048Z" fill="#89C5CC"/>
<path fill-rule="evenodd" clip-rule="evenodd" d="M61.418 213.08C61.418 216.276 66.3904 216.269 66.3904 213.08C66.3904 209.896 61.418 209.863 61.418 213.08Z" fill="#89C5CC"/>
<path fill-rule="evenodd" clip-rule="evenodd" d="M56.4082 217.329C53.9911 217.997 56.2178 220.045 57.3402 220.513C59.1239 221.257 61.5582 221.805 63.3424 220.69C64.0523 220.246 64.6286 219.656 64.1084 218.795C63.5541 217.878 62.7952 218.286 61.9513 218.371C60.8822 218.478 60.0182 218.462 58.9858 218.119C58.2153 217.863 57.2485 217.098 56.4082 217.329Z" fill="#89C5CC"/>
<path fill-rule="evenodd" clip-rule="evenodd" d="M100.252 213.226C100.252 215.116 103.188 215.116 103.188 213.226C103.188 211.335 100.252 211.335 100.252 213.226Z" fill="#89C5CC"/>
<path fill-rule="evenodd" clip-rule="evenodd" d="M106.744 213.51C106.744 215.611 110.005 215.611 110.005 213.51C110.005 211.409 106.744 211.41 106.744 213.51Z" fill="#89C5CC"/>
<path fill-rule="evenodd" clip-rule="evenodd" d="M106.503 218.069C104.79 218.29 99.8349 218.792 99.5576 220.904C99.13 224.162 104.559 221.525 105.798 221.269C107.376 220.943 108.786 221.028 110.361 221.092C111.226 221.126 112.377 221.267 112.286 219.949C112.137 217.785 108 217.877 106.503 218.069Z" fill="#89C5CC"/>
<path fill-rule="evenodd" clip-rule="evenodd" d="M63.4306 248.112C62.1889 248.443 60.5646 250.59 61.4189 251.903C62.8197 254.058 63.4375 250.75 64.0238 250.432C65.0905 249.852 65.9564 251.969 67.0712 250.859C68.8303 249.106 64.5381 247.815 63.4306 248.112Z" fill="#69A1AC"/>
<path fill-rule="evenodd" clip-rule="evenodd" d="M77.658 246.52C76.1855 246.533 73.0767 248.618 72.8565 250.158C72.7258 251.072 73.3322 251.951 74.3182 251.963C75.6607 251.98 76.0874 250.234 77.2512 249.869C78.5067 249.475 78.3203 250.382 79.4046 250.852C80.198 251.196 81.1904 251.052 81.466 250.076C81.986 248.236 79.1711 246.491 77.658 246.52Z" fill="#69A1AC"/>
<path fill-rule="evenodd" clip-rule="evenodd" d="M66.3864 255.334C64.0311 256.714 67.9066 259.672 69.2501 260.042C71.2784 260.601 75.3606 259.559 75.8412 257.081C76.0325 256.095 75.4157 255.202 74.3275 255.378C73.4315 255.524 72.8568 256.648 72.0269 257.05C70.9066 257.593 69.9107 257.556 68.9588 256.739C68.1834 256.072 67.7681 254.528 66.3864 255.334Z" fill="#69A1AC"/>
<path fill-rule="evenodd" clip-rule="evenodd" d="M68.0936 275.727C65.9893 276.176 63.8502 275.875 61.7357 276.297C59.5795 276.727 58.291 277.542 56.2878 276.721C56.1935 276.681 56.0995 276.642 56.0055 276.602C54.4551 275.934 52.83 275.736 51.2071 276.801C50.2467 277.43 47.3311 279.609 47.6825 280.938C48.444 283.82 51.7247 279.301 52.5612 278.861C54.1565 278.021 55.2502 279.094 56.8925 279.397C58.8597 279.759 60.4426 278.72 62.2957 278.306C64.463 277.822 66.9012 277.653 69.1061 277.394C69.9772 277.291 73.2768 277.98 73.5747 276.896C74.0864 275.034 68.9207 275.552 68.0936 275.727Z" fill="#C1DEE2"/>
<path fill-rule="evenodd" clip-rule="evenodd" d="M83.2759 281.531C83.4135 281.635 83.3031 281.551 83.2759 281.531V281.531ZM89.1694 275.614C90.9708 275.432 96.7346 274.145 97.9181 276.006C98.6888 277.219 97.4656 281.694 96.2987 282.273C95.366 282.735 93.1935 282.224 92.1701 282.188C90.2659 282.12 88.3577 282.091 86.4556 281.972C85.8177 281.932 83.765 282.049 83.2649 281.485C82.6744 280.818 82.7006 277.264 82.5616 276.383C84.218 276.919 87.4375 275.79 89.1694 275.614ZM93.016 273.789C90.7088 273.889 88.402 274.063 86.1121 274.372C84.8356 274.545 83.5423 275.003 82.3633 275.221C81.9833 275.291 81.3664 275.096 80.9005 275.322C79.5387 275.979 80.7312 280.427 81.0596 281.616C81.5639 283.441 82.8333 283.737 84.6118 283.909C86.9546 284.136 89.3454 284.065 91.6955 284.036C93.9608 284.008 97.0153 284.51 98.2864 282.237C99.108 280.767 99.9893 277.345 99.287 275.707C98.3631 273.552 94.9134 273.71 93.016 273.789Z" fill="#C1DEE2"/>
<path fill-rule="evenodd" clip-rule="evenodd" d="M118.853 282.754C118.729 282.912 118.729 282.912 118.853 282.754V282.754ZM119.358 282.144C119.32 282.202 119.143 282.389 119.358 282.144V282.144ZM113.856 281.977C114.873 281.786 115.891 281.596 116.909 281.411C115.945 282.76 114.929 282.202 113.282 282.085C113.474 282.049 113.665 282.013 113.856 281.977ZM109.004 281.499C109.262 281.413 109.52 281.327 109.777 281.24C109.77 281.437 109.812 281.62 109.904 281.792C109.462 281.744 109.022 281.693 108.581 281.639C108.722 281.592 108.863 281.546 109.004 281.499ZM106.755 279.839C106.741 279.485 107.274 279.728 107.579 279.704C106.99 280.222 106.716 280.267 106.755 279.839ZM114.797 275.823C114.874 275.724 114.977 275.729 115.104 275.837C114.965 275.884 114.429 276.112 114.797 275.823ZM120.012 275.209C120.026 275.209 120.315 275.6 120.012 275.209V275.209ZM119.865 275.082C119.941 275.139 119.941 275.139 119.865 275.082V275.082ZM119.215 275.005C120.281 275.185 120.2 276.436 119.215 275.005V275.005ZM106.688 274.92C106.471 275.1 106.545 274.925 106.688 274.92V274.92ZM110.765 272.255C108.955 272.361 105.632 272.255 104.12 273.219C102.147 274.478 103.185 278.812 103.362 280.712C103.623 283.52 104.944 284.319 107.589 284.614C110.745 284.966 113.988 285.032 117.16 284.948C120.017 284.873 121.644 283.89 122.168 280.882C122.328 279.962 122.735 278.538 122.722 277.656C122.713 277.045 122.408 276.766 122.293 276.246C121.637 273.286 120.54 272.934 117.505 272.805C115.272 272.71 112.956 272.141 110.765 272.255Z" fill="#89C5CC"/>
</g>
<g opacity="0.5">
<path fill-rule="evenodd" clip-rule="evenodd" d="M206.656 204.241C211.258 204.339 216.48 206.886 215.752 212.282C215.219 216.236 211.796 219.445 207.832 219.721C203.572 220.019 199.068 216.749 198.489 212.411C197.838 207.532 202.155 204.144 206.656 204.241ZM204.399 202.045C202.533 202.323 200.75 203.303 199.107 204.181C198.48 204.516 195.301 206.559 197.794 207.067C191.786 216.757 205.926 225.758 213.877 219.46C217.447 216.632 219.326 211.27 217.018 207.073C214.632 202.732 208.971 201.358 204.399 202.045Z" fill="#89C5CC"/>
<path fill-rule="evenodd" clip-rule="evenodd" d="M203.299 210.293C203.299 212.103 206.108 212.103 206.108 210.293C206.108 208.483 203.299 208.483 203.299 210.293Z" fill="#89C5CC"/>
<path fill-rule="evenodd" clip-rule="evenodd" d="M208.508 210.582C208.508 212.544 211.553 212.544 211.553 210.582C211.553 208.62 208.508 208.62 208.508 210.582Z" fill="#89C5CC"/>
<path fill-rule="evenodd" clip-rule="evenodd" d="M204.993 214.462C204.583 215.951 209.256 216.714 209.412 214.992C209.486 214.168 205.278 213.424 204.993 214.462Z" fill="#89C5CC"/>
<path fill-rule="evenodd" clip-rule="evenodd" d="M218.692 213.543C224.07 212.898 229.614 213.196 235.018 213.351C236.37 213.39 237.722 213.428 239.075 213.45C239.934 213.465 241.791 213.877 242.542 213.475C245.615 211.827 239.587 211.03 238.733 210.954C233.358 210.512 225.064 210.354 219.673 210.563C218.079 210.625 217.734 213.658 218.692 213.543Z" fill="#89C5CC"/>
<path fill-rule="evenodd" clip-rule="evenodd" d="M242.89 240.276C242.936 234.641 243.138 228.969 243.571 223.352C243.748 221.062 243.959 218.775 244.135 216.485C244.217 215.407 244.601 213.896 243.967 212.95C243.313 211.975 241.88 211.772 241.017 212.636C239.983 213.974 240.284 216.22 240.155 217.839C239.957 220.328 239.718 222.815 239.6 225.309C239.371 230.137 239.317 235.048 239.705 239.869C239.888 242.144 240.285 244.364 240.814 246.582C241.054 247.592 242.968 252.091 242.566 252.711C241.942 253.673 237.333 253.31 236.333 253.336C233.768 253.405 231.201 253.45 228.635 253.499C226.438 253.541 224.24 253.571 222.043 253.591C221.17 253.598 216.044 253.443 217.181 254.737C204.465 255.623 191.505 254.143 178.866 253.636C178.228 253.61 177.183 253.429 176.219 253.377C176.104 252.911 176.009 252.495 175.985 252.206C175.819 250.174 175.776 248.136 175.596 246.105C175.266 242.39 174.627 238.712 174.247 235.003C173.868 231.297 173.906 227.581 173.685 223.866C173.647 223.23 173.558 218.017 172.242 216.75C172.866 216.986 173.872 217.017 174.451 216.971C179.139 216.592 183.794 215.778 188.442 215.078C189.772 214.878 192.79 215.02 193.893 214.355C194.847 213.78 195.225 211.762 193.564 211.925C188.929 212.422 184.319 213.192 179.721 213.951C178.491 214.154 177.264 214.371 176.037 214.593C175.218 214.741 173.056 214.729 172.42 215.223C171.649 215.823 171.567 216.231 171.828 216.502C171.465 216.402 171.029 216.559 170.506 217.083C169.516 218.371 170.446 221.543 170.564 223.053C170.706 224.864 170.776 226.679 170.858 228.494C171.018 232.005 171.385 235.469 171.95 238.938C172.583 242.825 173.122 246.728 173.757 250.613C173.922 251.625 174.137 252.611 174.412 253.589C172.702 254.464 173.865 255.855 175.221 256.101C175.231 256.103 175.241 256.105 175.251 256.106C175.674 257.137 176.265 258.093 176.727 256.711C176.762 256.605 176.779 256.475 176.783 256.328C180.286 256.725 184.137 256.478 187.586 256.619C195.056 256.924 202.573 257.383 210.051 257.15C213.012 257.059 215.981 256.796 218.917 256.4C220.637 256.169 222.363 255.893 224.056 255.509C224.177 255.482 224.362 255.453 224.574 255.418C224.609 255.417 224.644 255.416 224.677 255.416C227.269 255.377 229.858 255.307 232.448 255.199C234.621 255.109 236.804 255.063 238.971 254.858C240.317 254.73 243.161 254.754 243.987 253.401C244.738 252.17 243.482 249 243.304 247.618C242.99 245.184 242.87 242.728 242.89 240.276Z" fill="#C1DEE2"/>
<path fill-rule="evenodd" clip-rule="evenodd" d="M216.627 224.006C214.556 224.183 212.641 225.156 210.551 225.168C208.797 225.178 207.07 224.654 205.306 224.731C203.238 224.821 202.099 226.159 200.287 226.607C198.844 226.963 197.935 225.859 196.666 225.37C195.064 224.753 193.88 225.072 192.507 226.005C191.498 226.691 189.144 228.229 189.163 229.616C189.217 233.817 194.118 228.014 195.106 227.944C196.419 227.85 197.886 229.347 199.282 229.432C201.129 229.545 202.313 228.354 204.014 227.921C205.733 227.482 207.592 228.02 209.316 228.186C211.283 228.377 213.005 227.938 214.908 227.469C216.752 227.013 218.323 227.038 220.197 227.42C221.462 227.678 224.613 229.177 225.166 227.249C225.919 224.624 218.074 223.883 216.627 224.006Z" fill="#89C5CC"/>
<path fill-rule="evenodd" clip-rule="evenodd" d="M217.257 232.018C213.014 232.43 208.746 232.791 204.483 232.907C202.637 232.957 195.54 232.166 196.169 234.512C196.709 236.523 206.367 235.257 208.334 235.103C210.505 234.935 212.674 234.699 214.834 234.425C215.6 234.329 217.45 234.429 217.99 233.787C218.505 233.174 218.251 231.919 217.257 232.018Z" fill="#89C5CC"/>
<path fill-rule="evenodd" clip-rule="evenodd" d="M187.986 242.702C187.889 242.743 187.889 242.743 187.986 242.702V242.702ZM188.881 242.69C189.939 242.656 189.712 242.098 190.767 242.389C191.254 242.523 191.304 242.324 191.681 242.789C192.417 243.697 191.724 245.673 190.998 246.405C188.311 249.112 185.087 242.81 188.881 242.69ZM188.881 240.033C181.525 240.28 184.603 251.643 191.005 249.323C193.649 248.366 195.311 244.05 193.756 241.625C192.999 240.445 192.035 240.235 190.767 240.153C190.473 240.134 190.103 240.562 189.919 240.543C189.483 240.496 189.523 240.009 188.881 240.033Z" fill="#89C5CC"/>
<path fill-rule="evenodd" clip-rule="evenodd" d="M206.471 243.091C206.34 243.051 208.794 243.764 208.525 243.485C209.098 244.081 208.328 245.49 207.68 245.736C206.11 246.332 205.23 243.891 206.471 243.091ZM207.56 240.01C205.257 240.336 203.48 241.295 203.165 243.857C202.874 246.221 204.472 248.615 206.991 248.661C212.483 248.761 212.65 239.3 207.56 240.01Z" fill="#89C5CC"/>
<path fill-rule="evenodd" clip-rule="evenodd" d="M232.631 243.196C232.953 247.394 228.6 243.551 232.631 243.196V243.196ZM230.763 238.704C230.382 239.355 230.707 240.046 231.281 240.424C226.147 241.509 227.31 249.236 232.535 248.094C235.192 247.514 235.68 244.72 235.284 242.413C235.096 241.316 232.362 235.97 230.763 238.704Z" fill="#89C5CC"/>
</g>
<path opacity="0.5" fill-rule="evenodd" clip-rule="evenodd" d="M262.628 249.405C260.253 249.722 254.639 251.691 254.688 253.805C254.764 257.106 259.535 253.5 260.597 253.016C266.298 250.411 273.682 253.786 279.618 254.505C282.34 254.834 287.664 255.442 290.068 254.073C294.343 251.637 284.456 252.247 283.197 252.149C276.352 251.618 269.543 248.477 262.628 249.405Z" fill="#C1DEE2"/>
<g opacity="0.5">
<path fill-rule="evenodd" clip-rule="evenodd" d="M315.21 222.808C315.208 225.708 315.062 228.668 315.596 231.533C315.758 232.4 315.886 234.062 316.801 234.512C317.72 234.964 318.611 234.456 318.84 233.514C319.106 232.418 318.522 230.777 318.462 229.626C318.381 228.054 318.376 226.48 318.375 224.906C318.375 223.769 318.749 221.94 317.407 221.355C316.409 220.92 315.21 221.729 315.21 222.808Z" fill="#C1DEE2"/>
<path fill-rule="evenodd" clip-rule="evenodd" d="M361.055 218.221C351.448 219.185 341.701 219.386 332.059 219.889C327.601 220.121 322.214 219.825 318.015 221.55C317.236 221.87 314.443 223.654 316.71 224.38C317.417 224.606 318.135 223.845 318.715 223.59C319.681 223.165 320.8 223.034 321.831 222.868C330.593 221.461 339.758 221.706 348.61 221.049C350.878 220.88 353.147 220.707 355.411 220.484C357.028 220.325 360.427 219.16 361.919 219.756C364.469 220.774 364.41 227.393 364.46 229.669C364.486 230.847 363.343 235.072 365.615 234.644C367.433 234.301 366.775 229.911 366.633 228.71C366.261 225.563 365.627 217.758 361.055 218.221Z" fill="#C1DEE2"/>
<path fill-rule="evenodd" clip-rule="evenodd" d="M364.599 234.491C356.253 235.245 347.715 234.506 339.335 234.802C334.943 234.958 330.555 235.205 326.162 235.35C324.262 235.413 322.36 235.416 320.459 235.429C319.55 235.435 315.412 235.987 317.972 237.789C319.105 238.587 322.717 237.944 324.017 237.929C325.97 237.906 327.923 237.825 329.874 237.748C334.395 237.571 338.914 237.326 343.437 237.204C347.764 237.087 352.093 237.062 356.42 236.945C358.573 236.886 360.755 236.82 362.889 236.506C363.37 236.435 364.934 236.378 365.268 235.841C365.585 235.334 365.363 234.418 364.599 234.491Z" fill="#89C5CC"/>
<path fill-rule="evenodd" clip-rule="evenodd" d="M323.582 228.226C323.537 228.332 323.537 228.332 323.582 228.226V228.226ZM327.196 227.128C327.328 227.184 327.328 227.184 327.196 227.128V227.128ZM327.027 227.097C328.974 229.082 325.979 231.452 324.155 229.515C322.218 227.458 325.773 227.104 327.027 227.097ZM324.961 224.094C318.253 225.287 320.628 234.228 326.893 232.936C329.644 232.369 331.217 229.598 330.27 226.936C329.9 225.896 329.094 224.754 327.971 224.427C327.412 224.263 326.916 224.52 326.383 224.46C325.875 224.403 325.592 223.98 324.961 224.094Z" fill="#C1DEE2"/>
<path fill-rule="evenodd" clip-rule="evenodd" d="M350.635 226.61C346.59 226.623 342.544 226.795 338.499 226.871C337.259 226.895 334.07 226.339 334.065 228.295C334.059 230.385 337.611 229.613 338.793 229.585C342.806 229.489 346.828 229.313 350.824 228.931C351.833 228.835 355.328 229.001 355.324 227.629C355.32 226.174 351.451 226.61 350.635 226.61Z" fill="#C1DEE2"/>
<path fill-rule="evenodd" clip-rule="evenodd" d="M360.297 240.25C350.292 240.519 340.302 240.612 330.305 241.124C326.566 241.316 322.832 241.458 319.087 241.458C318.366 241.458 316.914 241.179 316.235 241.633C314.393 242.865 316.49 243.922 317.691 243.989C325.903 244.445 334.235 243.31 342.443 243.054C347.248 242.904 352.054 242.86 356.856 242.616C358.166 242.549 359.476 242.472 360.784 242.37C361.537 242.312 363.526 242.472 364.134 242.032C366.788 240.11 361.192 240.226 360.297 240.25Z" fill="#89C5CC"/>
<path fill-rule="evenodd" clip-rule="evenodd" d="M314.393 245.143C314.299 247.737 314.289 250.286 314.628 252.865C314.762 253.88 314.823 255.032 316.013 255.29C317.094 255.524 317.642 254.707 317.866 253.801C318.412 251.588 317.931 248.403 317.925 246.104C317.922 244.968 317.921 243.696 316.516 243.439C315.445 243.242 314.434 244.017 314.393 245.143Z" fill="#89C5CC"/>
<path fill-rule="evenodd" clip-rule="evenodd" d="M370.902 251.396C354.707 252.25 338.532 252.995 322.325 253.68C321.061 253.734 311.242 253.627 314.675 257.051C315.735 258.108 318.467 257.392 319.838 257.325C321.898 257.223 323.96 257.146 326.021 257.041C334.19 256.625 342.381 256.513 350.545 256.047C355.037 255.79 359.52 255.388 363.989 254.865C366.114 254.616 368.753 254.642 370.744 253.809C371.768 253.38 372.874 251.292 370.902 251.396Z" fill="#89C5CC"/>
<path fill-rule="evenodd" clip-rule="evenodd" d="M361.59 238.238C360.358 239.464 360.992 241.884 361.084 243.4C361.212 245.487 361.367 247.575 361.628 249.65C361.797 250.997 361.708 253.095 362.427 254.259C363.269 255.623 365.123 255.472 365.884 254.155C366.558 252.99 366.217 250.539 366.199 249.248C366.175 247.462 366.064 245.674 365.958 243.893C365.869 242.404 366.207 240.017 365.388 238.743C364.555 237.448 362.744 237.09 361.59 238.238Z" fill="#89C5CC"/>
<path fill-rule="evenodd" clip-rule="evenodd" d="M324.572 247.756C324.427 247.867 324.427 247.867 324.572 247.756V247.756ZM327.448 247.396C330.132 247.935 325.792 251.069 324.421 248.918C324.206 248.582 324.095 248.169 324.439 247.877C324.753 247.61 324.95 248.083 325.247 247.956C325.757 247.737 326.903 247.375 327.448 247.396ZM327.078 244.823C325.246 244.968 322.726 245.081 321.819 246.918C320.601 249.385 322.685 251.802 325.095 252.177C327.416 252.539 330.88 251.253 331.065 248.548C331.215 246.366 329.14 244.656 327.078 244.823Z" fill="#89C5CC"/>
<path fill-rule="evenodd" clip-rule="evenodd" d="M342.378 246.128C340.48 246.159 336.752 245.598 335.099 246.522C333.463 247.437 334.193 249.067 335.685 249.457C336.671 249.714 338.283 249.298 339.309 249.257C340.66 249.202 342.012 249.19 343.363 249.171C345.636 249.141 347.908 249.166 350.181 249.166C352.502 249.166 354.863 249.23 357.181 249.059C360.113 248.843 360.034 246.648 357.167 246.373C352.295 245.907 347.265 246.051 342.378 246.128Z" fill="#89C5CC"/>
<path fill-rule="evenodd" clip-rule="evenodd" d="M337.532 270.719C337.532 271.762 338.457 270.719 338.451 270.719C338.457 270.719 337.532 269.675 337.532 270.719Z" fill="#89C5CC"/>
<path fill-rule="evenodd" clip-rule="evenodd" d="M316.594 262.321C316.654 265.353 316.693 268.388 316.823 271.418C316.864 272.376 316.589 274.247 317.751 274.736C319.043 275.279 319.445 273.924 319.594 273.006C320.066 270.097 319.603 266.775 319.558 263.831C319.543 262.843 319.757 261.467 318.634 260.974C317.718 260.572 316.576 261.319 316.594 262.321Z" fill="#89C5CC"/>
<path fill-rule="evenodd" clip-rule="evenodd" d="M366.46 262.368C366.536 262.548 366.536 262.548 366.46 262.368V262.368ZM366.568 262.337C366.63 262.363 366.881 262.468 366.568 262.337V262.337ZM342.072 259.886C337.417 259.959 332.759 260.015 328.107 260.214C326.122 260.299 324.113 260.368 322.135 260.555C320.733 260.688 317.252 260.743 316.343 261.888C314.467 264.252 318.445 263.607 319.302 263.415C320.861 263.066 322.452 262.954 324.045 262.87C327.501 262.687 330.959 262.59 334.42 262.52C343.804 262.331 353.195 262.36 362.581 262.318C363.489 262.314 365.132 261.948 365.971 262.316C366.812 262.684 366.764 263.59 366.852 264.642C366.968 266.041 366.045 268.708 366.748 269.885C367.839 271.71 369.425 270.16 369.668 268.829C370.003 266.99 369.472 264.782 368.952 263.024C368.219 260.543 367.2 260.445 364.801 260.251C361.998 260.024 359.205 259.887 356.393 259.861C351.621 259.817 346.844 259.812 342.072 259.886Z" fill="#89C5CC"/>
<path fill-rule="evenodd" clip-rule="evenodd" d="M360.483 272.421C350.387 273.594 340.003 272.903 329.853 272.944C327.384 272.955 324.914 272.974 322.448 273.094C321.145 273.157 318.058 272.798 317.165 273.803C315.285 275.921 318.673 276.229 319.91 276.141C322.411 275.963 324.917 275.882 327.425 275.863C336.256 275.795 345.138 276.207 353.962 275.771C357.659 275.588 361.274 274.956 364.902 274.249C365.706 274.093 371.209 273.047 368.071 271.793C366.217 271.052 362.432 272.194 360.483 272.421Z" fill="#89C5CC"/>
<path fill-rule="evenodd" clip-rule="evenodd" d="M331.004 268.545C330.934 268.635 330.934 268.635 331.004 268.545V268.545ZM330.937 268.529C330.913 268.594 330.838 268.754 330.937 268.529V268.529ZM330.3 267.708C330.314 267.726 330.375 267.803 330.3 267.708V267.708ZM330.275 267.702C330.518 267.992 330.682 268.316 330.766 268.673C328.674 269.239 327.868 267.547 330.275 267.702ZM330.143 267.622C330.144 267.623 330.438 267.746 330.143 267.622V267.622ZM326.706 265.101C325.353 266.787 324.235 268.752 325.923 270.677C327.432 272.399 330.469 272.621 332.384 271.472C334.357 270.287 334.187 267.794 332.81 266.166C331.924 265.118 331.206 265.147 329.92 264.976C329.044 264.86 327.449 264.179 326.706 265.101Z" fill="#89C5CC"/>
<path fill-rule="evenodd" clip-rule="evenodd" d="M340.702 268.221C340.702 270.466 350.396 269.5 352.12 269.497C353.565 269.495 362.3 270.292 361.673 267.982C361.158 266.083 352.554 267.027 350.721 267.024C349.137 267.022 340.702 265.934 340.702 268.221Z" fill="#89C5CC"/>
</g>
<g opacity="0.5">
<path fill-rule="evenodd" clip-rule="evenodd" d="M214.147 289.256C219.002 289.961 224.052 292.244 224.009 297.895C223.974 302.647 219.989 307.703 214.872 307.419C210.267 307.164 205.931 302.129 205.354 297.813C205.055 295.577 205.614 293.17 206.929 291.33C208.653 288.921 211.387 288.924 214.147 289.256ZM211.853 286.185C208.342 286.204 205.773 287.474 203.6 290.155C202.82 291.116 201.914 292.151 201.321 293.24C200.767 294.257 200.864 296.844 202.765 295.632C202.297 300.639 205.224 305.5 209.431 308.066C214.005 310.856 219.174 310.312 222.981 306.402C226.465 302.823 227.691 296.778 225.142 292.351C222.594 287.927 216.692 286.137 211.853 286.185Z" fill="#89C5CC"/>
<path fill-rule="evenodd" clip-rule="evenodd" d="M222.383 284.843C220.135 286.49 218.082 288.66 216.377 290.86C214.711 293.011 213.609 295.697 211.607 297.573C210.596 296.472 209.412 293.498 207.395 294.678C205.722 295.657 206.799 297.34 207.614 298.446C209.719 301.3 212.056 302.449 214.755 299.629C217.207 297.067 218.599 293.651 220.891 290.942C221.896 289.753 223.449 288.574 224.25 287.262C224.976 286.072 224.078 283.597 222.383 284.843Z" fill="#89C5CC"/>
</g>
<g opacity="0.5">
<path fill-rule="evenodd" clip-rule="evenodd" d="M307.34 106.167C307.343 106.391 307.346 106.603 307.351 106.797C307.456 111.038 307.395 115.497 307.05 119.728C306.932 121.189 305.869 123.041 304.656 121.027C304.123 120.141 304.198 118.323 304.253 116.985C304.268 116.626 304.281 116.302 304.281 116.04C304.28 114.548 304.358 113.04 304.437 111.528C304.59 108.572 304.745 105.601 304.308 102.698C304.299 102.639 304.29 102.583 304.282 102.529C304.092 101.252 304.079 101.164 302.675 101.193C302.09 101.205 301.505 101.221 300.92 101.237C300.344 101.252 299.768 101.268 299.193 101.28C298.621 101.292 298.05 101.303 297.478 101.314C295.685 101.348 293.893 101.383 292.101 101.448C291.802 101.459 291.244 101.529 290.54 101.618C289.132 101.794 287.14 102.044 285.464 102.043C285.464 102.05 285.465 102.057 285.466 102.064C285.466 102.077 285.467 102.09 285.468 102.103C285.487 103.029 285.248 104.062 285.009 105.1C284.808 105.969 284.607 106.841 284.555 107.657C284.432 109.597 284.431 111.558 284.43 113.518C284.428 115.906 284.426 118.294 284.205 120.644C284.194 120.759 284.188 120.88 284.181 121.002C284.181 121.019 284.18 121.035 284.179 121.052C284.254 121.04 284.328 121.032 284.399 121.028C285.607 120.951 286.826 120.944 288.042 120.937C288.713 120.934 289.383 120.93 290.051 120.914C291.25 120.887 292.464 120.888 293.682 120.889C296.372 120.892 299.086 120.895 301.717 120.585C302.494 120.484 302.766 121.481 302.418 121.998C302.106 122.461 301.246 122.535 300.617 122.59C300.457 122.604 300.312 122.617 300.194 122.634C298.497 122.886 296.778 122.973 295.065 123.049C293.267 123.129 291.467 123.188 289.667 123.239C289.239 123.25 288.668 123.308 288.034 123.372C286.36 123.541 284.254 123.754 283.208 123.281C282.084 122.773 282.11 122.208 282.569 121.771C282.368 121.328 282.336 120.682 282.312 120.176C282.302 119.983 282.294 119.811 282.277 119.678C282.028 117.665 281.877 115.678 281.874 113.648C281.867 109.671 281.875 105.541 282.975 101.692C282.534 101.499 282.269 101.215 282.27 100.805C282.275 98.7396 288.702 98.8447 291.758 98.8946C292.304 98.9035 292.742 98.9107 293.017 98.9034C295.243 98.8452 297.469 98.8377 299.695 98.8497C300.166 98.8522 300.689 98.8215 301.231 98.7896C302.385 98.7218 303.624 98.6489 304.621 98.8805C307.239 99.4882 307.302 103.657 307.34 106.167Z" fill="#89C5CC"/>
<path fill-rule="evenodd" clip-rule="evenodd" d="M323.712 99.3334C326.143 99.2048 328.575 99.1752 331.008 99.1662C333.585 99.1532 336.165 99.1996 338.741 99.2788L338.801 99.2806C339.942 99.3148 346.285 99.5054 343.371 101.086C343.201 101.178 343.009 101.255 342.8 101.319C342.924 102.051 342.939 102.807 342.919 103.171C342.844 104.552 342.794 105.934 342.744 107.316L342.744 107.316C342.711 108.253 342.677 109.189 342.635 110.125C342.521 112.712 342.412 115.298 342.323 117.886C342.312 118.204 342.328 118.619 342.347 119.082C342.409 120.613 342.492 122.664 341.661 123.423C340.931 124.089 340.432 123.955 340.096 123.503C338.008 124.109 333.721 123.912 331.565 123.813C331.045 123.789 330.649 123.771 330.438 123.771C330.06 123.771 329.358 123.818 328.471 123.878C324.779 124.125 317.887 124.588 317.873 122.768C317.872 122.593 317.929 122.436 318.036 122.296C317.743 121.997 317.48 121.559 317.311 121.012C316.704 119.049 316.647 116.931 316.602 114.895C316.539 112.021 316.538 109.143 316.537 106.266C316.537 104.788 316.536 103.311 316.528 101.834C316.133 101.304 316.368 100.698 316.86 100.275C317.908 99.3751 320.511 99.3642 322.393 99.3563C322.9 99.3542 323.354 99.3523 323.712 99.3334ZM319.757 121.497C322.1 120.997 326.047 121.158 328.162 121.244C328.716 121.267 329.144 121.284 329.385 121.284C331.544 121.275 333.705 121.305 335.863 121.391C336.087 121.4 336.418 121.392 336.808 121.382C337.592 121.362 338.613 121.337 339.481 121.433C339.469 121.315 339.461 121.208 339.457 121.115C339.36 119.194 339.43 117.256 339.5 115.329V115.329C339.514 114.92 339.529 114.511 339.542 114.102C339.589 112.662 339.65 111.222 339.712 109.782L339.712 109.782L339.712 109.781C339.751 108.874 339.789 107.968 339.824 107.061C339.839 106.663 339.817 106.123 339.791 105.515V105.515C339.739 104.277 339.675 102.76 339.896 101.595C339.097 101.58 338.278 101.524 337.528 101.472C336.804 101.422 336.143 101.376 335.624 101.376C334.965 101.376 334.306 101.374 333.648 101.372H333.648H333.648C331.823 101.366 329.998 101.36 328.173 101.397L327.654 101.407C325.141 101.455 322.607 101.504 320.115 101.835C319.969 101.855 319.793 101.892 319.599 101.937C319.872 103.079 319.738 104.689 319.621 106.098L319.621 106.098C319.564 106.782 319.511 107.42 319.511 107.934C319.507 111.129 319.592 114.311 319.676 117.49L319.676 117.49L319.676 117.49C319.708 118.693 319.74 119.895 319.767 121.097C319.77 121.241 319.767 121.374 319.757 121.497Z" fill="#89C5CC"/>
<path fill-rule="evenodd" clip-rule="evenodd" d="M293.095 123.146C291.498 124.079 292.359 127.811 292.912 129.102C293.822 131.225 295.668 132.886 297.659 133.987C301.685 136.214 307.488 135.623 310.532 139.484C310.564 139.524 311.616 140.565 311.856 139.216C312.052 138.109 310.088 136.418 309.326 135.863C307.162 134.285 304.385 133.776 301.881 132.987C299.211 132.147 296.28 130.597 295.16 127.843C294.764 126.868 295.52 121.722 293.095 123.146Z" fill="#C1DEE2"/>
<path fill-rule="evenodd" clip-rule="evenodd" d="M329.609 124.94C328.145 125.344 329.113 127.358 329.111 128.366C329.108 129.624 328.706 130.941 327.93 131.945C325.964 134.491 322.114 134.873 319.227 135.603C317.131 136.133 312.117 137.27 311.92 140.105C311.701 143.271 316.129 139.418 316.503 139.26C320.641 137.742 325.994 137.449 329.188 134.108C330.506 132.729 331.285 130.888 331.409 128.988C331.479 127.919 331.491 124.426 329.609 124.94Z" fill="#C1DEE2"/>
<path fill-rule="evenodd" clip-rule="evenodd" d="M299.365 153.019C299.331 147.162 304.936 143.619 310.004 142.286C316.097 140.681 321.771 144.95 322.489 151.09C323.247 157.571 318.363 162.788 311.922 163.074C306.256 163.325 299.401 159.269 299.365 153.019ZM312.974 145.103C313.303 145.551 313.6 146.266 312.936 146.655C312.298 147.027 311.979 146.58 311.658 146.129C311.455 145.845 311.252 145.559 310.966 145.479C310.225 145.27 309.035 146.049 308.418 146.503C308.168 146.687 307.812 147.084 307.395 147.548C306.069 149.025 304.133 151.181 303.063 149.326C298.796 156.695 309.435 162.21 315.485 159.421C322.129 156.358 320.836 145.161 312.974 145.103Z" fill="#89C5CC"/>
<path fill-rule="evenodd" clip-rule="evenodd" d="M307.397 151.057C307.397 152.402 309.52 152.402 309.52 151.057C309.52 149.728 307.397 149.671 307.397 151.057Z" fill="#89C5CC"/>
<path fill-rule="evenodd" clip-rule="evenodd" d="M311.133 150.806C311.133 152.453 313.735 152.453 313.735 150.806C313.735 149.178 311.133 149.108 311.133 150.806Z" fill="#89C5CC"/>
<path fill-rule="evenodd" clip-rule="evenodd" d="M308.46 154.642C306.332 155.894 312.417 158.381 312.657 155.84C312.761 154.743 311.699 155.039 310.991 154.958C310.314 154.881 309.102 154.268 308.46 154.642Z" fill="#89C5CC"/>
<path fill-rule="evenodd" clip-rule="evenodd" d="M307.537 163.522C307.63 166.718 307.585 169.913 308.191 173.065C308.306 173.663 308.386 175.835 308.86 176.28C310.024 177.374 310.043 175.277 310.088 174.473C310.249 171.595 309.947 168.628 309.881 165.744C309.866 165.123 310.031 163.837 309.738 163.236C309.273 162.282 307.492 161.999 307.537 163.522Z" fill="#C1DEE2"/>
<path fill-rule="evenodd" clip-rule="evenodd" d="M305.261 160.93C300.597 166.165 294.174 165.779 287.703 166.238C284.284 166.48 280.827 166.977 278.076 169.189C276.796 170.218 275.693 171.506 274.951 172.975C274.627 173.617 273.09 177.321 275.399 176.442C276.217 176.131 277.023 173.681 277.553 172.956C278.562 171.576 279.852 170.437 281.4 169.696C284.386 168.268 287.952 168.292 291.19 168.111C294.574 167.922 298.207 167.745 301.318 166.273C302.782 165.58 304.155 164.717 305.333 163.604C305.754 163.206 306.656 162.531 306.723 161.922C306.8 161.227 306.132 159.954 305.261 160.93Z" fill="#C1DEE2"/>
<path fill-rule="evenodd" clip-rule="evenodd" d="M281.714 176.999C277.332 177.145 272.957 177.323 268.581 177.6C267.684 177.656 264.695 177.475 265.456 179.313C266.067 180.785 269.713 179.811 270.919 179.74C275.478 179.469 280.056 179.375 284.606 178.965C285.628 178.873 290.247 178.91 288.34 177.098C287.432 176.236 282.968 176.956 281.714 176.999Z" fill="#89C5CC"/>
<path fill-rule="evenodd" clip-rule="evenodd" d="M262.675 179.111C261.293 180.925 261.928 185.334 262.032 187.514C262.133 189.627 261.723 193.491 264.481 193.819C263.605 193.704 265.146 193.872 265.397 193.885C265.957 193.915 266.52 193.925 267.08 193.931C268.376 193.945 269.672 193.928 270.967 193.902C273.901 193.843 276.843 193.758 279.773 193.596C281.005 193.528 287.687 193.585 287.952 192.305C288.29 190.67 281.883 191.595 280.736 191.647C277.943 191.775 275.145 191.802 272.35 191.839C270.964 191.857 269.577 191.871 268.191 191.843C267.619 191.832 265.353 192.067 265.006 191.686C264.709 191.361 264.94 188.373 264.934 187.916C264.914 186.426 264.915 184.933 264.968 183.444C265.004 182.441 265.546 180.534 265.105 179.592C264.675 178.677 263.423 178.364 262.675 179.111Z" fill="#89C5CC"/>
<path fill-rule="evenodd" clip-rule="evenodd" d="M285.235 179.197C285.315 182.515 285.34 185.901 286.124 189.146C286.385 190.226 286.75 192.453 287.835 193.012C288.974 193.599 289.957 192.761 290.032 191.633C290.125 190.214 289.366 188.352 289.21 186.897C289.028 185.198 288.922 183.498 288.86 181.792C288.813 180.508 289.203 178.584 287.979 177.757C286.88 177.013 285.2 177.762 285.235 179.197Z" fill="#89C5CC"/>
<path fill-rule="evenodd" clip-rule="evenodd" d="M293.955 178.386C292.592 179.743 293.201 184.041 293.372 185.785C293.496 187.062 294.895 193.347 296.99 190.07C297.916 188.62 296.739 184.787 296.747 183.097C296.753 182.02 297.134 180.659 296.95 179.625C296.707 178.258 295.191 177.151 293.955 178.386Z" fill="#89C5CC"/>
<path fill-rule="evenodd" clip-rule="evenodd" d="M303.391 177.266C307.484 176.844 311.582 176.527 315.697 176.488C315.895 176.486 316.102 176.484 316.318 176.481C319.139 176.445 323.378 176.391 325.276 178.509C326.311 179.663 326.779 181.447 327.187 183.002C327.264 183.292 327.338 183.574 327.413 183.843C327.477 184.072 327.561 184.334 327.651 184.617C328.077 185.952 328.654 187.758 328.069 188.876C327.749 189.489 327.232 190.012 326.449 189.795C326.265 189.744 326.122 189.679 326.009 189.603C326.31 189.928 326.443 190.391 326.248 190.844C325.871 191.719 324.68 191.737 323.742 191.752C323.514 191.756 323.302 191.759 323.119 191.774C319.994 192.035 316.855 192.208 313.719 192.236C312.226 192.249 310.732 192.237 309.239 192.225C307.702 192.212 306.165 192.199 304.628 192.215C303.512 192.226 302.376 192.332 301.24 192.438C299.805 192.572 298.369 192.706 296.974 192.648C295.93 192.605 294.815 192.264 295.08 190.914C295.295 189.813 296.332 189.717 297.261 189.631C297.342 189.623 297.422 189.616 297.501 189.608C300.459 189.306 303.419 189.2 306.392 189.21C312.639 189.232 318.88 189.2 325.127 189.167C325.384 189.188 325.625 189.287 325.825 189.436C325.6 189.163 325.604 188.8 325.609 188.413C325.611 188.237 325.613 188.057 325.594 187.879C325.556 187.52 325.521 187.162 325.486 186.806C325.37 185.627 325.256 184.456 325.031 183.27C324.997 183.091 324.964 182.894 324.929 182.685C324.725 181.454 324.454 179.822 323.475 179.157C322.49 178.489 320.56 178.521 319.055 178.546C318.649 178.552 318.274 178.559 317.957 178.55C313.942 178.447 309.904 178.732 305.907 179.095C305.601 179.123 305.293 179.15 304.985 179.177C303.465 179.309 301.936 179.442 300.438 179.715C300.164 179.764 299.745 179.911 299.264 180.078C297.986 180.524 296.271 181.122 295.689 180.464C293.759 178.281 302.239 177.385 303.391 177.266Z" fill="#89C5CC"/>
<path fill-rule="evenodd" clip-rule="evenodd" d="M346.936 172.296C347.114 172.525 347.114 172.525 346.936 172.296V172.296ZM319.238 158.775C316.752 160.236 321.353 164.523 322.525 165.186C325.162 166.678 328.786 166.904 331.731 167.323C335.459 167.855 339.515 168.05 343.097 169.272C344.623 169.792 345.593 170.604 346.592 171.852C347.099 172.485 348.318 175.21 349.428 174.565C351.664 173.266 345.64 167.812 344.312 167.226C341.295 165.893 337.728 165.52 334.502 165.002C331.502 164.521 328.437 164.163 325.511 163.314C323.903 162.847 322.759 162.095 321.832 160.654C321.254 159.756 320.78 157.873 319.238 158.775Z" fill="#C1DEE2"/>
<path fill-rule="evenodd" clip-rule="evenodd" d="M357.346 175.523C354.48 175.587 351.62 175.808 348.76 176.028C347.155 176.152 345.551 176.275 343.946 176.371C343.444 176.401 342.942 176.428 342.439 176.455C341.025 176.532 339.609 176.608 338.202 176.75C337.989 176.771 337.741 176.792 337.471 176.814C336.276 176.912 334.647 177.046 333.605 177.482C332.651 176.76 331.178 177.374 331.155 178.661C331.115 181.005 331.137 183.307 331.423 185.637C331.489 186.178 331.831 188.916 332.574 190.342C332.31 191.688 333.457 192.065 334.525 192.168C338.662 192.567 343 192.257 347.279 191.952C349.455 191.796 351.616 191.642 353.728 191.582C354.43 191.562 355.142 191.554 355.857 191.546C358.192 191.52 360.572 191.493 362.833 191.052C362.924 191.034 363.021 191.017 363.123 190.998C364.017 190.838 365.249 190.617 365.343 189.634C365.4 189.043 365.066 188.503 364.509 188.427C364.547 187.935 364.485 187.399 364.44 187.004C364.429 186.912 364.42 186.828 364.412 186.754C364.277 185.386 363.936 184.027 363.6 182.685L363.6 182.685C363.524 182.384 363.449 182.083 363.376 181.783C363.295 181.451 363.221 181.057 363.14 180.631C362.856 179.128 362.499 177.24 361.549 176.363C360.553 175.443 358.931 175.484 357.632 175.517C357.535 175.519 357.44 175.522 357.346 175.523ZM362.389 188.574C362.05 187.684 361.95 186.481 361.856 185.338C361.797 184.62 361.739 183.926 361.626 183.348C361.54 182.913 361.47 182.456 361.399 181.99C361.226 180.86 361.047 179.686 360.623 178.696C360.055 177.37 359.549 177.42 358.353 177.54C358.131 177.562 357.884 177.587 357.609 177.606C356.39 177.689 355.172 177.794 353.954 177.899L353.954 177.899C353.37 177.95 352.786 178.001 352.202 178.049C349.701 178.254 347.2 178.412 344.697 178.57L344.697 178.57C343.236 178.663 341.774 178.755 340.312 178.857C339.165 178.937 338.045 179.155 336.93 179.372C336.047 179.544 335.167 179.715 334.278 179.817C334.265 180.121 334.24 180.426 334.215 180.716C334.182 181.112 334.151 181.481 334.158 181.783C334.187 183.122 334.305 184.452 334.424 185.785C334.442 185.99 334.46 186.195 334.478 186.4C334.499 186.646 334.552 186.962 334.611 187.312C334.701 187.853 334.806 188.477 334.829 189.052C334.937 189.051 335.045 189.052 335.151 189.052C335.288 189.053 335.422 189.053 335.551 189.051C338.701 188.996 341.85 188.9 344.998 188.779C345.4 188.764 345.802 188.748 346.204 188.733C349.013 188.623 351.822 188.514 354.633 188.482C355.75 188.469 356.881 188.504 358.016 188.539C359.477 188.584 360.942 188.63 362.389 188.574Z" fill="#89C5CC"/>
</g>
<path fill-rule="evenodd" clip-rule="evenodd" d="M110.206 227.054C113.922 229.295 117.572 230.378 119.285 229.936C123.582 228.827 123.977 213.098 120.653 206.897C117.328 200.696 100.237 197.993 99.3759 210.28C99.0769 214.544 100.866 218.349 103.51 221.454L98.7695 243.563H112.538L110.206 227.054Z" fill="#B28B67"/>
<path fill-rule="evenodd" clip-rule="evenodd" d="M115.214 200.143C113.332 199.569 110.601 199.374 109.452 199.506C110.106 197.939 110.365 196.193 110.154 194.494C109.948 192.842 109.211 191.435 108.529 189.962C108.214 189.282 107.858 188.607 107.327 188.087C106.786 187.558 106.1 187.209 105.382 187.042C104.647 186.871 103.878 186.885 103.142 187.04C102.816 187.109 102.524 187.258 102.205 187.341C101.878 187.425 101.719 187.221 101.482 187.015C100.909 186.519 100.071 186.274 99.3467 186.186C98.5345 186.088 97.6918 186.21 96.9173 186.478C96.1633 186.738 95.4391 187.16 94.894 187.775C94.6513 188.049 94.431 188.361 94.2878 188.705C94.2291 188.846 94.2194 188.93 94.0785 188.982C93.9483 189.03 93.7959 189.031 93.6615 189.077C92.3616 189.517 91.2502 190.522 90.645 191.813C90.2919 192.566 90.1247 193.891 90.1705 195.377C90.2163 196.863 91.5569 200.739 92.8107 202.153C93.9299 203.415 95.575 204.248 97.1626 204.613C96.1088 205.818 95.4074 207.324 94.8886 208.856C94.3252 210.52 93.9765 212.249 93.8477 214.011C93.7254 215.685 93.7141 217.455 94.1062 219.093C94.473 220.624 95.2574 221.881 96.567 222.678C97.1668 223.043 97.8122 223.318 98.4613 223.569C99.101 223.816 99.7427 224.056 100.413 224.194C101.681 224.457 103.142 224.412 104.119 223.402C104.471 223.037 104.859 222.58 105.116 222.135C105.208 221.975 105.264 221.87 105.151 221.714C105.017 221.527 104.799 221.383 104.627 221.237C103.642 220.401 103.032 219.286 102.879 217.961C102.723 216.616 103.084 214.88 104.39 214.293C106.003 213.569 107.779 214.4 109.213 215.176C109.822 213.024 111.073 211.087 113.034 210.1C115.203 209.008 117.693 208.88 119.923 207.943C120.504 207.699 121.095 207.422 121.523 206.924C121.702 206.717 121.912 206.447 121.983 206.172C122.077 205.811 121.844 205.508 121.664 205.226C120.711 203.734 117.095 200.717 115.214 200.143Z" fill="#191847"/>
<path fill-rule="evenodd" clip-rule="evenodd" d="M97.6219 391.682C122.019 391.682 141.797 372.789 141.797 349.485C141.797 326.18 122.019 307.288 97.6219 307.288C73.2246 307.288 53.4468 326.18 53.4468 349.485C53.4468 372.789 73.2246 391.682 97.6219 391.682Z" fill="#C5CFD6"/>
<path fill-rule="evenodd" clip-rule="evenodd" d="M166.3 347.235C168.434 354.715 173.75 368.891 181.101 385.172L188.086 383.132C181.975 345.669 176.889 320.867 173.976 313.318C172.051 308.33 157.489 308.915 159.165 318.951C159.867 323.159 162.647 334.428 166.3 347.235ZM137.59 320.701C126.199 323.063 102.581 331.411 95.8364 334.079C91.5979 335.756 94.3303 341.442 97.9462 340.944C98.5587 340.86 100.725 340.617 103.957 340.256C114.34 339.093 135.722 336.699 151.939 334.364C160.478 333.134 155.885 317.128 147.019 318.822C144.036 319.392 140.863 320.022 137.59 320.701Z" fill="#B28B67"/>
<path fill-rule="evenodd" clip-rule="evenodd" d="M174.423 309.09C173.258 305.287 120.319 291.788 120.319 291.788H115.98V295.834L152.46 314.417C152.412 315.017 152.442 315.651 152.559 316.319C152.296 330.096 158.188 340.388 164.022 350.577C167.836 357.241 171.626 363.861 173.653 371.383L187.056 369.382C186.666 368.383 186.048 363.877 185.204 357.718C183.076 342.186 179.506 316.135 174.498 309.243C174.481 309.219 174.463 309.195 174.445 309.171C174.438 309.144 174.431 309.117 174.423 309.09Z" fill="#1F28CF"/>
<path fill-rule="evenodd" clip-rule="evenodd" d="M119.011 325.454C115.673 324.785 112.599 324.188 109.969 323.727C92.98 320.745 88.0258 311.644 90.955 291.788H122.257C127.371 293.258 153.944 304.41 167.732 310.341C176.857 314.267 173.981 328.419 168.813 332.102C168.785 332.327 168.692 332.481 168.526 332.549C148.934 340.676 132.226 340.069 121.497 339.68C117.004 339.517 113.559 339.392 111.39 339.962L107.992 329.236L119.011 325.454Z" fill="#2B44FF"/>
<path fill-rule="evenodd" clip-rule="evenodd" d="M99.4108 333.384C99.3906 332.787 98.8869 332.309 98.2922 332.37C97.0755 332.495 95.1722 332.751 94.2637 333.195C92.8689 333.876 90.4197 335.647 90.4197 335.647C91.2089 337.266 104.604 364.75 104.604 364.75C104.604 364.75 108.905 364.055 108.013 361.465C107.12 358.875 106.573 357.141 106.573 357.141L106.004 340.608C105.994 340.32 105.749 340.097 105.462 340.116L102.866 340.279C102.866 340.279 100.708 338.531 100.018 337.116C99.5811 336.219 99.449 334.513 99.4108 333.384Z" fill="#E4E4E4"/>
<path fill-rule="evenodd" clip-rule="evenodd" d="M179.22 381.456C178.674 381.212 178.024 381.456 177.818 382.017C177.397 383.166 176.792 384.99 176.792 386.002C176.792 387.554 177.31 390.534 177.31 390.534C179.11 390.534 209.667 390.534 209.667 390.534C209.667 390.534 210.929 386.361 208.211 386.028C205.494 385.696 203.696 385.427 203.696 385.427L188.598 378.692C188.335 378.574 188.027 378.697 187.917 378.964L186.926 381.37C186.926 381.37 184.41 382.545 182.837 382.545C181.84 382.545 180.251 381.916 179.22 381.456Z" fill="#E4E4E4"/>
<path fill-rule="evenodd" clip-rule="evenodd" d="M164.561 297.32L146.261 283.872L142.215 293.879L160.337 301.399C165.462 307.424 168.328 309.935 168.935 308.934C169.446 308.089 169.046 307.299 168.678 306.57C168.391 306.003 168.123 305.474 168.321 304.986C168.771 303.873 172.214 303.99 175.476 304.241C178.738 304.492 177.787 303.039 177.001 302.322C173.671 300.327 169.524 298.66 164.561 297.32ZM68.5909 321.015C70.2721 317.602 75.9974 284.336 75.9974 284.336L87.9863 284.384C87.9863 284.384 76.8824 320.254 75.9974 322.449C74.8477 325.3 76.8006 329.442 78.1248 332.251C78.3296 332.686 78.5194 333.088 78.6804 333.449C76.843 334.272 75.9604 333.278 75.0299 332.229C73.9789 331.045 72.8668 329.792 70.2489 331.011C69.2374 331.482 68.2803 332.038 67.3453 332.582C64.1154 334.461 61.1482 336.187 57.1117 333.695C56.4718 333.3 55.7705 331.812 57.4649 330.649C61.686 327.753 67.769 322.684 68.5909 321.015Z" fill="#B28B67"/>
<path fill-rule="evenodd" clip-rule="evenodd" d="M110.068 233.994L115.029 233.142C133.435 249.054 140.995 279.622 163.557 295.815L158.127 302.551C118.986 297.701 109.285 260.416 110.068 233.994Z" fill="#E87613"/>
<path fill-rule="evenodd" clip-rule="evenodd" d="M88.4424 296.381C88.4424 296.381 118.279 296.381 132.337 296.381C134.343 296.381 133.965 293.482 133.675 292.02C130.329 275.141 117.266 256.946 117.266 232.919L104.605 230.933C94.1321 247.787 90.5105 268.539 88.4424 296.381Z" fill="#DDE3E9"/>
<path fill-rule="evenodd" clip-rule="evenodd" d="M83.5073 308.436C81.5346 313.177 79.6001 317.315 77.7773 320.492H68.3634C67.3506 287.722 79.7487 262.506 90.1248 247.301C87.821 247.137 85.7415 246.172 84.427 243.798C79.7993 235.442 81.4706 230.842 86.4161 229.329C89.1356 228.498 91.6933 229.065 94.755 229.745C97.2604 230.301 100.103 230.932 103.648 230.932C103.648 230.932 103.648 230.932 103.648 230.932L103.648 230.932C103.65 230.932 103.651 230.932 103.652 230.932C103.995 230.932 104.308 230.955 104.591 230.999L108.793 231.239C108.793 231.239 125.851 289.092 118.202 308.436H83.5073Z" fill="#FF9B21"/>
<path fill-rule="evenodd" clip-rule="evenodd" d="M83.5073 308.437C86.0957 302.216 88.75 294.955 91.3043 287.456C92.2551 295.714 93.8385 304.009 96.4749 308.437H83.5073Z" fill="black" fill-opacity="0.1"/>
<path fill-rule="evenodd" clip-rule="evenodd" d="M271.92 190.828C268.199 193.071 264.544 194.154 262.828 193.712C258.525 192.603 258.129 176.861 261.459 170.655C264.788 164.449 281.904 161.744 282.767 174.04C283.066 178.308 281.274 182.116 278.627 185.224L283.374 207.35H269.585L271.92 190.828Z" fill="#B28B67"/>
<path fill-rule="evenodd" clip-rule="evenodd" d="M292.548 255.867L270.959 326.584L260.501 386.724H252.301L263.352 255.867H292.548Z" fill="#997659"/>
<path fill-rule="evenodd" clip-rule="evenodd" d="M300.272 255.867C298.805 294.695 300.531 314.722 300.859 318.25C301.187 321.778 305.681 344.651 316.32 387.908L307.583 384.902C290.769 345.228 285.039 324.609 283.111 319.4C281.182 314.19 276.06 293.013 267.745 255.867H300.272Z" fill="#B28B67"/>
<path fill-rule="evenodd" clip-rule="evenodd" d="M314.789 384.16C315.335 383.916 315.986 384.16 316.192 384.722C316.613 385.872 317.217 387.698 317.217 388.711C317.217 390.266 316.7 393.249 316.7 393.249C314.9 393.249 284.342 393.249 284.342 393.249C284.342 393.249 283.081 389.071 285.799 388.738C288.516 388.405 290.314 388.136 290.314 388.136L305.412 381.392C305.675 381.275 305.983 381.398 306.092 381.664L307.084 384.074C307.084 384.074 309.6 385.25 311.172 385.25C312.169 385.25 313.758 384.621 314.789 384.16Z" fill="#E4E4E4"/>
<path fill-rule="evenodd" clip-rule="evenodd" d="M260.861 384.16C261.407 383.916 262.058 384.16 262.264 384.722C262.685 385.872 263.29 387.698 263.29 388.711C263.29 390.266 262.773 393.249 262.773 393.249C260.972 393.249 230.415 393.249 230.415 393.249C230.415 393.249 229.153 389.071 231.871 388.738C234.588 388.405 236.386 388.136 236.386 388.136L251.484 381.392C251.747 381.275 252.055 381.398 252.165 381.664L253.156 384.074C253.156 384.074 255.672 385.25 257.245 385.25C258.241 385.25 259.83 384.621 260.861 384.16Z" fill="#E4E4E4"/>
<path fill-rule="evenodd" clip-rule="evenodd" d="M295.417 255.867L286.238 291.897H258.201L262.381 255.867H295.417Z" fill="#69A1AC"/>
<path fill-rule="evenodd" clip-rule="evenodd" d="M300.58 255.867C305.111 269.474 302.301 291.897 302.301 291.897H273.69L265.823 255.867H300.58Z" fill="#89C5CC"/>
<path fill-rule="evenodd" clip-rule="evenodd" d="M331.798 273.99C329.656 270.848 315.219 228.563 315.219 228.563L302.766 230.361C302.766 230.361 323.469 274.393 324.652 276.441C326.189 279.101 324.828 283.471 323.905 286.435C323.763 286.893 323.63 287.318 323.521 287.698C325.457 288.255 326.194 287.149 326.972 285.982C327.849 284.664 328.778 283.269 331.544 284.11C332.612 284.435 333.639 284.852 334.642 285.26C338.106 286.668 341.289 287.962 344.945 284.934C345.525 284.454 346.014 282.884 344.172 281.97C339.583 279.693 332.845 275.526 331.798 273.99ZM224.489 271.805L238.4 253.845L245.053 262.338L229.679 274.558C226.406 281.756 224.339 284.958 223.479 284.164C222.753 283.494 222.921 282.625 223.074 281.824C223.194 281.2 223.306 280.618 222.982 280.204C222.242 279.259 218.96 280.321 215.888 281.462C212.816 282.602 213.331 280.945 213.891 280.04C216.547 277.206 220.08 274.461 224.489 271.805Z" fill="#B28B67"/>
<path fill-rule="evenodd" clip-rule="evenodd" d="M272.297 198.619L267.259 198.468C263.352 226.905 226.151 251.143 225.143 261.71C224.773 265.585 227.743 267.1 226.507 268.438L233.559 272.212C234.464 270.799 237.1 272.781 241.699 270.489C246.298 268.197 276.848 231.001 272.297 198.619Z" fill="#DB2721"/>
<path fill-rule="evenodd" clip-rule="evenodd" d="M280.494 191.627C281.598 191.392 282.683 192.097 282.918 193.2L283.67 196.74C293.929 202.551 319.864 220.58 331.405 259.305C332.617 263.373 331.794 265.758 331.136 267.665C330.686 268.969 330.314 270.048 330.723 271.288L322.678 274.771C322.546 273.831 321.391 273.265 319.901 272.534C317.733 271.471 314.858 270.06 313.388 266.65C311.995 263.417 310.058 259.408 307.791 254.962C308.509 261.171 308.133 267.025 306.235 272.098C301.499 284.753 262.772 277.047 257.23 265.595C254.272 259.484 256.437 253.7 259.301 246.051C262.935 236.341 267.695 223.626 264.532 203.419L263.247 197.379C263.013 196.275 263.717 195.191 264.821 194.956L280.494 191.627Z" fill="#FF4133"/>
<path fill-rule="evenodd" clip-rule="evenodd" d="M268.489 163.95C270.306 163.652 275.2 163.447 276.102 163.447C276.679 163.447 277.304 163.579 277.645 163.049C277.925 162.616 277.823 161.882 277.906 161.379C278.003 160.795 278.141 160.218 278.28 159.642C278.676 158.004 279.275 156.446 280.114 154.983C281.687 152.239 283.992 150.089 286.902 148.838C290.115 147.457 293.751 147.14 297.207 147.42C300.906 147.72 304.254 148.941 307.746 150.09C311.074 151.185 314.559 151.616 318.04 151.081C321.546 150.543 324.196 148.642 327.154 146.838C330.182 144.991 333.642 143.783 337.222 144.061C340.563 144.32 343.643 145.7 346.406 147.543C348.991 149.268 351.124 151.342 352.329 154.262C353.624 157.403 353.623 160.851 351.493 163.627C348.405 167.651 342.672 168.691 337.902 168.588C335.144 168.528 332.434 168.025 329.83 167.109C326.356 165.887 323.355 163.816 320.105 162.136C318.58 161.348 317.004 160.7 315.351 160.234C313.748 159.781 312.169 159.573 310.717 160.542C309.181 161.566 307.805 162.573 306.048 163.214C304.363 163.83 302.578 164.174 300.782 164.16C297.289 164.133 293.845 163.045 290.451 162.315C287.684 161.721 284.724 161.128 281.903 161.7C280.726 161.938 279.006 162.431 278.581 163.654C285.737 164.951 288.547 173.801 286.53 180.297C285.441 183.804 278.896 187.903 276.352 186.059C274.74 184.891 275.718 183.358 276.352 182.346C277.565 180.408 277.98 177.918 275.735 176.569C273.799 175.405 271.764 178.169 271.725 178.166C271.193 178.124 266.595 175.523 263.427 171.729C260.302 171.914 259.828 169.853 260.574 168.168C261.32 166.483 265.978 164.362 268.489 163.95Z" fill="#191847"/>
</svg>
