<svg width="54" height="54" viewBox="0 0 54 54" fill="none" xmlns="http://www.w3.org/2000/svg">
<path fill-rule="evenodd" clip-rule="evenodd" d="M30.0772 37.6424C33.3921 39.6332 36.6492 40.5951 38.1781 40.2024C42.0117 39.2179 42.3642 25.2447 39.3979 19.736C36.4316 14.2274 21.1825 11.8263 20.4139 22.7407C20.1472 26.5286 21.7434 29.909 24.1019 32.6674L19.8726 52.3076H32.1578L30.0772 37.6424Z" fill="#E3C6AB"/>
<path fill-rule="evenodd" clip-rule="evenodd" d="M34.5448 13.7363C32.8661 13.2263 30.4292 13.0533 29.4041 13.1703C29.9872 11.7783 30.2186 10.2274 30.03 8.71733C29.8466 7.25003 29.1886 6.00066 28.58 4.69147C28.2994 4.08802 27.9815 3.48786 27.5075 3.02629C27.0247 2.55605 26.4134 2.24565 25.7725 2.09756C25.1166 1.94598 24.4308 1.9586 23.7738 2.09616C23.4832 2.15701 23.2225 2.28939 22.9375 2.36298C22.6456 2.43839 22.504 2.25638 22.2922 2.07347C21.7817 1.63274 21.0332 1.41518 20.3874 1.33731C19.6627 1.24999 18.9108 1.35889 18.2197 1.59624C17.5471 1.82729 16.9008 2.20248 16.4145 2.74907C16.1979 2.99238 16.0014 3.26931 15.8736 3.57506C15.8212 3.70054 15.8126 3.77487 15.6869 3.82083C15.5707 3.86338 15.4347 3.86462 15.3148 3.90511C14.155 4.2965 13.1633 5.18939 12.6234 6.33581C12.3083 7.00462 12.1591 8.18218 12.2 9.50202C12.2409 10.8219 13.437 14.2657 14.5557 15.5219C15.5543 16.6431 17.0221 17.383 18.4387 17.7069C17.4984 18.7776 16.8725 20.1157 16.4097 21.4765C15.907 22.9547 15.5958 24.4906 15.4809 26.0556C15.3718 27.5424 15.3617 29.1148 15.7116 30.57C16.0388 31.9307 16.7388 33.0471 17.9072 33.7553C18.4424 34.0797 19.0182 34.3234 19.5974 34.5462C20.1682 34.7657 20.7407 34.9791 21.3386 35.1022C22.4702 35.3353 23.7741 35.2953 24.6457 34.3979C24.9599 34.0744 25.3054 33.6678 25.5346 33.2726C25.617 33.1305 25.6667 33.0375 25.5666 32.8986C25.4466 32.7322 25.2526 32.6047 25.0985 32.4746C24.2199 31.7325 23.6759 30.7417 23.5388 29.5644C23.3997 28.3698 23.7218 26.8278 24.8875 26.3065C26.3265 25.6629 27.9112 26.4016 29.1902 27.0902C29.7337 25.1788 30.8498 23.4578 32.5996 22.581C34.5354 21.6111 36.7568 21.4976 38.7462 20.6653C39.2646 20.4484 39.7926 20.2023 40.1743 19.7604C40.3337 19.5757 40.5209 19.3361 40.5845 19.0919C40.6682 18.7711 40.4605 18.5021 40.3001 18.2519C39.4494 16.9257 36.2235 14.2463 34.5448 13.7363Z" fill="#2D2500"/>
<circle cx="27" cy="27" r="25.9113" stroke="#042454" stroke-width="2.17742"/>
</svg>
