<svg width="437" height="342" viewBox="0 0 437 342" fill="none" xmlns="http://www.w3.org/2000/svg">
<g opacity="0.504511">
<path fill-rule="evenodd" clip-rule="evenodd" d="M404.215 246.842C409.636 281.414 278.155 303.965 164.987 288.227C51.8183 272.49 -0.0980911 211.034 53.9041 178.288C107.906 145.542 398.793 212.27 404.215 246.842Z" fill="#F2F2F2"/>
</g>
<path fill-rule="evenodd" clip-rule="evenodd" d="M241.567 102.777C243.613 101.444 246.787 102.293 248.846 103.08C249.64 103.384 251.668 104.354 253.172 105.447C252.973 104.69 252.796 103.926 252.641 103.156C252.004 99.9897 251.566 96.7636 251.355 93.5561C251.301 92.7195 251.372 91.7848 251.444 90.8378L251.445 90.8369C251.469 90.5164 251.494 90.1945 251.514 89.8745C251.431 89.7988 251.376 89.6943 251.352 89.5528C251.344 89.6114 251.339 89.6585 251.335 89.6945C251.329 89.752 251.326 89.7813 251.315 89.7843C251.304 89.7875 251.285 89.7627 251.247 89.7125C251.232 89.6932 251.214 89.6702 251.193 89.6435C249.671 87.7023 248.393 85.515 248.217 83.1104C248.069 81.0711 250.034 77.2125 252.819 79.8836C254.065 81.0766 253.741 89.4546 251.87 89.968C252.369 92.7442 252.998 95.5157 253.785 98.2519C253.903 98.2341 254.024 98.2326 254.143 98.2464C254.131 97.5661 254.13 96.8238 254.163 96.5686C254.443 94.3697 256.597 89.9055 260.025 90.7722C262.66 91.4384 261.045 94.1803 260.149 95.3805C258.705 97.3127 257.073 98.1494 255.005 99.1542C254.964 99.5694 254.65 99.8108 254.279 99.8893C255.664 104.308 257.483 108.618 259.863 112.689L259.926 112.43C260.228 111.195 260.581 109.754 260.804 109.451C261.971 107.868 264.553 105.933 266.935 106.87C271.937 108.841 266.507 114.505 262.249 115.121C262.072 115.33 261.885 115.498 261.685 115.594C262.513 116.823 263.397 118.026 264.343 119.199C265.762 120.962 267.287 122.719 268.886 124.467C268.935 123.1 269.568 120.054 269.748 119.726C270.84 117.739 273.987 115.693 276.54 117.106C279.412 118.698 276.808 121.706 275.17 123.068C274.499 123.626 271.178 125.671 270.007 125.681C273.87 129.801 278.133 133.851 282.468 137.755C282.109 136.007 281.64 131.195 281.692 130.661C281.961 127.904 284.086 123.494 288.27 124.568C292.33 125.609 290.534 130.19 289.144 132.374C288.303 133.695 287.139 135.038 285.735 135.96C285.482 136.126 285.152 136.262 284.822 136.397C284.424 136.56 284.027 136.723 283.768 136.939C283.536 137.131 283.466 137.352 283.395 137.57C283.321 137.802 283.247 138.031 282.986 138.222C285.329 140.322 287.688 142.379 290.013 144.378C291.11 145.322 292.228 146.248 293.356 147.161C293.973 146.943 294.853 147.23 294.807 147.976C294.8 148.084 294.771 148.178 294.732 148.263C295.586 148.942 296.447 149.615 297.314 150.282C297.294 150.088 297.3 149.814 297.34 149.436C296.715 150.194 296.742 149.09 296.761 148.249C296.768 147.952 296.775 147.687 296.751 147.549C296.659 147.008 296.541 146.473 296.422 145.939L296.422 145.939C296.169 144.797 295.917 143.659 295.929 142.481C295.957 139.98 297.813 135.787 301.72 137.277C305.313 138.644 304.006 142.35 302.65 144.674C301.792 146.145 300.618 147.458 299.392 148.715C299.173 148.939 298.93 149.243 298.69 149.544C298.333 149.991 297.981 150.431 297.721 150.594C301.057 153.145 304.471 155.621 307.885 158.097L307.886 158.098C309.415 159.207 310.944 160.316 312.466 161.432C312.532 161.187 312.587 160.944 312.634 160.717C312.539 160.809 312.409 160.851 312.243 160.843C312.199 160.655 312.135 160.406 312.058 160.106L312.058 160.106C311.118 156.448 308.254 145.308 316.008 147.467C321.688 149.053 317.679 158.754 313.442 162.147C316.013 164.042 318.56 165.961 321.047 167.937C322.847 169.367 324.593 170.846 326.273 172.374C325.404 170.395 324.585 167.834 325.122 165.795C325.905 162.828 329.573 160.027 333.154 161.715C337.619 163.829 334.184 166.715 330.963 169.422C329.319 170.804 327.73 172.14 327.277 173.301C332.618 178.314 337.178 183.883 340.224 190.227C343.538 197.125 346.614 206.395 344.913 214.113C345.227 210.72 343.884 206.458 342.94 203.466L342.94 203.465C342.811 203.058 342.69 202.674 342.582 202.319C341.165 197.678 339.151 193.162 336.497 188.935C332.246 182.165 326.631 176.418 320.148 171.201C318.672 171.64 317.069 172.453 315.741 173.126L315.741 173.126C314.926 173.539 314.216 173.899 313.701 174.088C311.221 175.002 306.458 176.311 304.878 173.434C303.325 170.605 307.29 169.023 309.748 168.389C312.123 167.777 314.265 167.851 316.48 168.353C313.049 165.756 309.534 163.242 306.02 160.728L306.019 160.727C305.373 160.265 304.727 159.803 304.081 159.34C303.188 159.965 302.201 160.869 301.153 161.829L301.153 161.829C297.828 164.874 293.889 168.482 290.371 165.534C285.062 161.086 295.216 156.564 299.542 156.917C300.073 156.96 300.587 157.056 301.088 157.186C296.676 153.989 292.333 150.727 288.225 147.235C287.488 147.35 286.314 148.276 284.905 149.388C281.736 151.888 277.375 155.329 274.09 152.619C271.718 150.664 272.53 147.617 274.823 145.876C277.124 144.126 280.461 144.129 283.296 144.719C284.522 144.972 285.653 145.456 286.708 146.045L286.759 146.048L286.839 146.051C282.796 142.579 278.73 139.029 274.813 135.357C274.779 135.367 274.744 135.376 274.709 135.386C274.674 135.395 274.639 135.405 274.604 135.415C274.367 135.663 273.971 135.753 273.607 135.698C273.407 135.757 273.203 135.817 272.994 135.879C269.892 136.793 265.904 137.968 262.812 137.461C260.536 137.088 258.471 135.509 260.397 133.564C261.963 131.983 266.213 132.21 268.285 132.585C269.296 132.768 270.397 133.298 271.502 133.83C271.966 134.053 272.431 134.277 272.89 134.476C273.009 134.27 273.217 134.139 273.454 134.075C269.586 130.386 265.895 126.569 262.548 122.586C261.535 122.72 260.411 123.1 259.252 123.492L259.252 123.492C256.463 124.435 253.47 125.447 251.321 123.267C248.15 120.049 254.114 118.171 256.95 118.476C257.907 118.579 258.851 118.811 259.762 119.117C257.326 115.838 255.466 112.333 254.159 108.652C254.147 108.657 254.135 108.663 254.123 108.668C254.105 108.677 254.086 108.686 254.064 108.695C254.083 108.685 254.101 108.676 254.118 108.667L254.118 108.666C254.131 108.659 254.143 108.652 254.157 108.646C254.027 108.277 253.901 107.907 253.782 107.536C253.561 107.431 253.354 107.354 253.255 107.322C254.543 108.08 249.108 108.451 248.091 108.52C245.84 108.674 242.826 108.731 241.175 107.157C239.789 105.836 239.87 103.883 241.567 102.777ZM345.154 214.124C345.059 215.242 344.822 216.267 344.38 217.111C344.711 216.15 344.966 215.15 345.154 214.124Z" fill="#F2F2F2"/>
<path opacity="0.2" fill-rule="evenodd" clip-rule="evenodd" d="M139.405 31.3468C137.912 30.3834 135.595 30.9988 134.09 31.5685C133.511 31.7882 132.03 32.4906 130.931 33.281C131.077 32.7334 131.206 32.1811 131.32 31.6242C131.786 29.3346 132.107 27.0016 132.262 24.6822C132.303 24.0773 132.251 23.4014 132.199 22.7167C132.181 22.4847 132.163 22.2517 132.149 22.0201C132.209 21.9654 132.249 21.8898 132.267 21.7875C132.273 21.8299 132.276 21.8639 132.279 21.8899C132.284 21.9315 132.286 21.9526 132.293 21.9549C132.301 21.9572 132.315 21.9393 132.343 21.9029C132.354 21.889 132.367 21.8723 132.383 21.853C133.495 20.4489 134.429 18.8668 134.558 17.128C134.668 15.6533 133.235 12.8638 131.2 14.7962C130.29 15.6592 130.523 21.7172 131.889 22.0879C131.522 24.0955 131.062 26.0997 130.486 28.0785C130.4 28.0657 130.312 28.0646 130.225 28.0747C130.234 27.5828 130.235 27.046 130.211 26.8614C130.007 25.2715 128.437 22.0442 125.933 22.672C124.009 23.1545 125.187 25.1367 125.841 26.0042C126.894 27.4009 128.086 28.0054 129.595 28.7313C129.625 29.0316 129.854 29.206 130.125 29.2627C129.112 32.4584 127.782 35.5755 126.043 38.5199L125.996 38.3329L125.996 38.3327C125.776 37.4393 125.52 36.3977 125.357 36.179C124.506 35.0342 122.621 33.6363 120.882 34.3147C117.229 35.7413 121.19 39.8353 124.299 40.2795C124.428 40.4303 124.565 40.5516 124.711 40.6211C124.106 41.51 123.46 42.3803 122.768 43.2283C121.732 44.5038 120.617 45.7752 119.449 47.0392C119.414 46.0509 118.953 43.8483 118.822 43.6117C118.026 42.1747 115.729 40.6968 113.864 41.7187C111.767 42.8708 113.666 45.0454 114.862 46.0294C115.352 46.4328 117.775 47.911 118.63 47.9173C115.808 50.898 112.693 53.8279 109.527 56.6519C109.79 55.3882 110.134 51.9081 110.096 51.5219C109.901 49.5285 108.352 46.3405 105.296 47.1188C102.331 47.8727 103.641 51.1846 104.654 52.7632C105.268 53.7186 106.118 54.6892 107.142 55.3553C107.327 55.4753 107.568 55.5732 107.809 55.671C108.099 55.7889 108.389 55.9066 108.578 56.0623C108.747 56.2012 108.799 56.3608 108.85 56.519C108.904 56.686 108.958 56.8516 109.148 56.9898C107.437 58.5093 105.713 59.9972 104.015 61.4438C103.213 62.1266 102.397 62.7961 101.573 63.4574C101.123 63.2996 100.48 63.5076 100.513 64.0467C100.518 64.125 100.539 64.1926 100.568 64.2545C99.9436 64.7454 99.3151 65.2328 98.6817 65.715C98.6963 65.5746 98.6922 65.3766 98.6633 65.1033C99.1188 65.6509 99.1002 64.853 99.086 64.2447C99.081 64.0298 99.0765 63.8385 99.0937 63.7387C99.161 63.3478 99.2479 62.9607 99.3346 62.5742C99.52 61.7486 99.7047 60.9256 99.696 60.0736C99.6772 58.2652 98.3234 55.2343 95.4702 56.3124C92.8466 57.3019 93.7994 59.9818 94.7878 61.6618C95.4136 62.7248 96.2702 63.674 97.1654 64.5826C97.3251 64.7448 97.5022 64.9644 97.6776 65.1818L97.6776 65.1818L97.6777 65.1819C97.9381 65.5046 98.1946 65.8227 98.3843 65.941C95.9479 67.7866 93.4541 69.5781 90.9602 71.3696L90.9596 71.3701C89.8426 72.1725 88.7257 72.9748 87.6138 73.7821C87.5655 73.6051 87.5256 73.4295 87.4913 73.2653C87.5608 73.3315 87.6554 73.3625 87.7767 73.3564C87.8091 73.2206 87.8561 73.0402 87.9124 72.8235C88.6005 70.1783 90.6961 62.1216 85.034 63.6854C80.8854 64.8344 83.809 71.8477 86.901 74.3C85.0229 75.6709 83.1626 77.0592 81.3457 78.4889C80.031 79.5234 78.7551 80.5933 77.5277 81.6988C78.1633 80.2677 78.7626 78.4153 78.3709 76.9413C77.8006 74.7963 75.1237 72.772 72.5082 73.9938C69.2477 75.5235 71.7541 77.6097 74.1046 79.5659C75.3047 80.5648 76.4642 81.5299 76.7944 82.3697C72.8927 85.9961 69.5611 90.0244 67.3338 94.6125C64.9114 99.602 62.6615 106.306 63.9002 111.886C63.6723 109.432 64.655 106.351 65.3452 104.186C65.4392 103.892 65.5277 103.614 65.6071 103.357C66.6441 100.001 68.1165 96.7345 70.056 93.6772C73.1627 88.7807 77.265 84.6234 82.0005 80.8485C83.0781 81.1655 84.2483 81.7527 85.2175 82.2391L85.2176 82.2391L85.2177 82.2391C85.8121 82.5374 86.3309 82.7978 86.7064 82.9345C88.517 83.5942 91.9937 84.5393 93.1487 82.4586C94.2843 80.4125 91.3894 79.2698 89.5951 78.8121C87.8612 78.3704 86.2977 78.4245 84.6797 78.7879C87.186 76.9093 89.7533 75.0903 92.3202 73.2715L92.3209 73.2711L92.325 73.2682C92.7958 72.9346 93.2666 72.601 93.737 72.2671C94.389 72.7189 95.109 73.372 95.8735 74.0655L95.8735 74.0655C98.2999 76.2666 101.174 78.8742 103.744 76.7416C107.623 73.5233 100.211 70.2571 97.052 70.5138C96.6643 70.545 96.2891 70.6143 95.9233 70.7085C99.1457 68.3957 102.318 66.0353 105.319 63.5092C105.857 63.5919 106.714 64.261 107.743 65.0648C110.055 66.8713 113.238 69.3582 115.638 67.3979C117.37 65.9829 116.778 63.7805 115.105 62.5217C113.426 61.2576 110.99 61.2607 108.919 61.6877C108.024 61.8713 107.198 62.2214 106.428 62.648L106.332 62.6525C109.285 60.1404 112.256 57.5719 115.117 54.9159C115.167 54.9294 115.218 54.9433 115.27 54.9575C115.442 55.1365 115.732 55.2019 115.997 55.1622C116.143 55.2044 116.293 55.248 116.445 55.2924C118.71 55.9524 121.621 56.8007 123.879 56.4333C125.541 56.1629 127.049 55.0202 125.643 53.6148C124.501 52.4719 121.398 52.6375 119.885 52.9089C119.146 53.0416 118.342 53.4253 117.535 53.8104L117.535 53.8104C117.196 53.9722 116.857 54.1341 116.522 54.2778C116.435 54.1294 116.283 54.0342 116.11 53.9885C118.936 51.3194 121.632 48.5582 124.078 45.6772C124.818 45.7738 125.638 46.0481 126.484 46.3311C128.52 47.012 130.705 47.7428 132.274 46.1662C134.591 43.8381 130.237 42.4818 128.167 42.7038C127.468 42.7786 126.779 42.9464 126.113 43.1679C127.893 40.796 129.253 38.261 130.209 35.5988C130.218 35.6027 130.227 35.6068 130.235 35.6108C130.249 35.6172 130.262 35.6236 130.279 35.6297C130.264 35.6231 130.252 35.6163 130.239 35.6094L130.239 35.6094C130.23 35.6043 130.22 35.5993 130.21 35.5944C130.306 35.328 130.397 35.0605 130.484 34.792C130.646 34.7158 130.797 34.6597 130.87 34.6366C129.929 35.1853 133.897 35.4518 134.64 35.5017C136.283 35.6119 138.483 35.6523 139.689 34.514C140.702 33.5579 140.644 32.146 139.405 31.3468ZM63.6543 111.666C63.7269 112.411 63.9425 113.091 64.3669 113.648C64.0553 113.011 63.8216 112.348 63.6543 111.666Z" fill="#C1DEE2"/>
<g opacity="0.7">
<path fill-rule="evenodd" clip-rule="evenodd" d="M337.173 188.174C343.069 187.868 350.36 191.309 350.989 197.717C351.446 202.374 351.304 207.016 352.011 211.666C352.577 215.381 353.772 218.948 355.403 222.333C356.971 225.587 360.224 228.358 361.07 231.835C361.61 234.05 361.308 237.167 360.564 239.334C359.66 241.969 360.14 241.76 361.943 243.971C365.474 248.304 368.653 252.747 370.902 257.921C374.141 265.374 376.264 274.086 375.062 282.245C374.909 283.281 374.728 286.999 373.301 287.259C371.708 287.549 372.453 285.423 372.538 284.736C373.08 280.353 373.562 276.522 372.908 272.071C370.384 254.898 358.064 243.583 350.042 229.007C349.601 228.255 348.67 226.466 348.023 225.285C347.001 223.42 345.974 219.873 344.59 218.491C341.985 215.887 344.38 221.122 344.888 222.121C345.53 223.386 346.236 224.729 346.894 225.837C349.903 230.972 353.263 236.578 356.371 241.871C342.927 244.934 333.459 228.772 329.852 218.146C326.879 209.391 323.323 188.923 337.173 188.174Z" fill="#69A1AC"/>
<path fill-rule="evenodd" clip-rule="evenodd" d="M416.189 171.916C406.333 172.698 400.007 179.201 397.061 188.296C395.474 193.198 395.292 198.234 394.41 203.271C393.083 210.85 390.228 216.593 384.648 221.992C382.92 223.665 381.646 225.382 380.741 227.218C378.944 229.052 377.379 231.128 376.23 233.665C374.762 236.906 374.346 240.794 376.041 244.024C376.497 244.893 377.634 246.636 378.813 247.428C374.401 256.825 371.975 267.116 372.248 277.393C372.413 283.598 372.716 289.804 373.07 296.001C373.165 297.665 373.707 300.412 374.52 297.622C375.265 295.07 374.331 291.063 374.245 288.397C373.824 275.407 373.465 263.597 378.812 251.461C379.373 250.189 379.967 248.927 380.586 247.675C380.623 247.654 380.656 247.629 380.69 247.604C380.714 247.622 380.735 247.642 380.759 247.66C380.799 247.589 380.853 247.505 380.916 247.411C381.094 247.228 381.249 246.997 381.396 246.738C381.87 246.081 382.407 245.309 382.41 244.886C382.41 244.883 382.408 244.878 382.408 244.874C385.718 239.471 389.51 234.365 393.382 229.36C393.353 229.396 397.583 223.637 396.929 226.822C396.614 228.357 393.503 231.279 392.246 232.905C389.466 236.522 386.202 241.104 383.49 245.536C383.125 245.745 382.609 246.775 382.236 247.542C382.031 247.931 381.838 248.323 381.65 248.664C391.26 251.84 398.737 245.443 403.835 238.004C403.841 237.995 403.846 237.986 403.852 237.977C405.403 235.922 406.993 233.88 408.978 232.255C412.29 229.544 415.838 229.066 419.743 227.731C430.393 224.092 434.921 210.29 436.359 200.048C437.982 188.494 430.045 170.776 416.189 171.916Z" fill="#89C5CC"/>
<path fill-rule="evenodd" clip-rule="evenodd" d="M396.721 139.558C386.606 150.085 381.72 164.686 377.85 178.413C373.529 193.745 370.674 209.313 370.565 225.253C370.493 235.725 370.208 246.263 370.819 256.724C371.036 260.439 371.406 264.16 371.995 267.836C372.044 268.138 373.361 276.343 374.622 274.431C375.339 273.344 373.271 265.919 373.115 264.682C372.236 257.717 372.032 250.7 372.075 243.684C372.145 232.133 371.805 220.641 372.976 209.132C373.15 207.413 373.288 205.609 373.696 203.928C374.13 202.14 373.578 202.92 374.989 202.213C376.361 201.525 378.056 201.623 379.479 200.761C385.124 197.338 388.012 188.545 390.259 182.776C392.83 176.179 394.392 169.144 395.64 162.201C396.556 157.1 397.211 152.03 397.582 146.864C397.699 145.235 397.706 143.533 398.026 141.931C398.112 141.5 398.545 140.736 398.529 140.353C398.496 139.544 398.007 139.068 397.967 138.387C397.544 138.768 397.128 139.159 396.721 139.558Z" fill="#89C5CC"/>
<path fill-rule="evenodd" clip-rule="evenodd" d="M341.568 279.816C341.568 297.226 355.681 311.339 373.091 311.339C390.501 311.339 404.614 297.226 404.614 279.816" fill="#89C5CC"/>
<path fill-rule="evenodd" clip-rule="evenodd" d="M394.694 252.216C402.496 251.641 411.209 257.935 414.972 264.485C418.005 269.766 417.494 276.701 415.621 282.311C414.366 286.067 411.627 291.423 407.06 291.475C401.347 291.54 401.071 284.478 400.961 280.35C400.814 274.861 400.12 270.08 395.795 266.339C395.261 265.877 394.701 265.445 394.141 265.012C393.643 264.629 393.146 264.245 392.667 263.841C392.591 263.776 392.514 263.712 392.437 263.647C390.908 262.361 389.301 261.012 389.106 258.893C388.822 255.822 390.555 255.27 393.202 255.84C393.287 255.859 393.519 255.947 393.834 256.066C395.186 256.578 398.07 257.671 397.524 256.365C397.319 255.872 396.568 255.482 395.621 255.19C393.171 254.924 390.249 254.614 389.409 254.799C380.342 256.788 376.812 269.347 375.875 277.326C375.774 278.187 375.692 279.051 375.621 279.916H373.955C374.071 277.827 374.223 275.74 374.573 273.674C375.909 265.77 380.087 254.162 389.25 252.879C389.588 252.832 390.832 252.824 392.338 252.912C393.052 252.513 393.852 252.272 394.694 252.216Z" fill="#69A1AC"/>
</g>
<g opacity="0.5">
<path fill-rule="evenodd" clip-rule="evenodd" d="M86.4599 130.6C88.2746 128.013 91.642 121.442 94.1961 120.517C95.8412 119.921 95.3615 126.082 95.3818 127.256C95.461 131.801 95.0186 136.316 94.4722 140.822C93.4879 148.949 90.2694 156.187 85.855 163.104C83.5834 166.663 80.919 170.265 77.2287 172.486C75.5301 173.508 73.4862 173.68 71.8087 174.561C69.855 175.587 70.919 174.757 70.0385 176.793C68.8158 179.62 68.4247 183.266 67.8589 186.282C65.2614 200.127 58.9727 273.316 60.0629 287.399C60.1597 288.648 58.4192 288.946 58.3323 287.422C57.8705 279.342 61.8668 223.388 63.883 205.09C65.8992 186.791 67.9395 170.626 69.9854 164.295C72.4672 156.614 76.9497 147.378 80.681 140.216C82.4142 136.888 84.3033 133.675 86.4599 130.6Z" fill="#69A1AC"/>
<path fill-rule="evenodd" clip-rule="evenodd" d="M99.9288 220.347C104.651 216.88 109.762 223.423 105.489 226.89C103.127 228.806 100.657 228.125 99.2672 226.528C98.3647 227.628 97.52 228.778 96.7083 229.75C94.2354 232.71 91.8981 235.741 89.6644 238.843C85.0241 245.287 81.0475 252.095 76.8897 258.779C72.7864 265.375 68.716 272.005 64.9969 278.769C61.8462 284.499 57.6469 291.24 56.5682 297.522C58.2048 284.199 64.4151 271.393 71.8105 259.648C79.1457 247.999 87.5637 235.277 98.9213 226.084C97.7654 224.384 97.7333 221.958 99.9288 220.347Z" fill="#C1DEE2"/>
<path fill-rule="evenodd" clip-rule="evenodd" d="M10.3262 187.853C12.9686 188.37 17.2862 194.347 19.4643 196.625C22.0529 199.331 24.4014 202.216 26.6151 205.239C31.3807 211.744 35.6427 218.661 39.2669 225.874C45.1753 237.633 49.9086 249.704 53.3439 262.509C55.4467 270.347 56.8082 278.471 57.615 286.538C57.7674 288.06 59.3626 299.79 57.0641 300.106C54.9968 300.391 55.6353 291.199 55.5356 289.949C54.4083 275.843 51.0311 262.119 46.3335 248.824C45.3102 245.928 44.3596 242.38 42.7233 239.774C41.5449 237.897 42.7148 238.551 40.6439 237.841C38.8658 237.23 36.8398 237.38 35.0189 236.632C31.0631 235.01 27.8957 231.861 25.1192 228.693C19.7236 222.537 15.4479 215.877 13.2191 207.989C11.9827 203.615 10.8466 199.216 10.2161 194.707C10.053 193.541 8.6242 187.52 10.3262 187.853Z" fill="#69A1AC"/>
<path fill-rule="evenodd" clip-rule="evenodd" d="M20.7538 88.3994C30.7072 105.661 38.8864 124.623 44.1678 143.828C47.3678 155.464 49.6055 167.404 51.829 179.258C55.2715 197.613 58.5278 215.966 59.4541 234.647C60.386 253.436 62.2287 275.107 56.0763 293.204C59.1494 274.831 56.2236 255.274 55.7055 236.787C55.458 227.961 54.7406 219.222 53.7995 210.448C52.8863 201.937 51.3943 193.466 50.0049 185.022C49.3282 180.91 48.6174 176.803 47.8937 172.699C47.6777 171.475 47.5864 167.841 46.8097 167.005C46.028 166.163 42.0394 165.82 40.7871 165.202C38.2655 163.957 35.8937 162.19 33.7945 160.322C29.7703 156.742 26.2695 152.065 23.5064 147.453C17.1133 136.784 14.5573 123.763 14.6865 111.406C14.7113 109.007 18.5697 83.1718 17.0201 82.816C17.1134 82.7067 17.2016 82.5939 17.2848 82.4766C18.458 84.4408 19.6092 86.4184 20.7538 88.3994Z" fill="#89C5CC"/>
<path fill-rule="evenodd" clip-rule="evenodd" d="M128.184 150.655C128.337 150.434 129.337 148.893 128.833 148.992C129.858 148.791 127.424 150.691 129.977 149.525C128.765 150.67 129.465 152.158 129.481 153.699C129.507 156.201 129.089 158.682 128.617 161.131C127.873 165.001 126.763 168.764 125.153 172.363C121.644 180.208 115.685 187.76 108.61 192.664C105.118 195.086 101.695 195.91 97.7117 197.025C95.1957 197.729 94.9962 199.031 93.6607 201.472C90.8803 206.557 88.1495 211.624 85.6975 216.881C82.7696 223.158 79.9273 229.441 77.2462 235.829C68.2141 257.345 60.8628 279.635 57.0021 302.704C56.9076 289.11 60.0524 275.109 64.0192 262.151C66.9089 252.71 70.6706 243.61 74.6829 234.602C75.6552 232.419 77.1285 229.612 77.5414 227.202C77.8305 225.514 76.9467 223.891 76.542 222.112C74.9643 215.187 75.0772 207.429 76.4627 200.466C77.9902 192.789 82.4078 189.226 89.8809 188.138C92.6139 187.741 96.0876 187.886 98.5937 186.721C101.324 185.452 102.45 181.281 104.003 178.603C108.173 171.411 113.128 164.513 118.817 158.453C120.392 156.775 122.086 155.226 123.884 153.791C125.017 152.886 127.411 151.771 128.184 150.655Z" fill="#89C5CC"/>
<path fill-rule="evenodd" clip-rule="evenodd" d="M42.2512 290.498C42.0589 289.194 43.0694 288.023 44.3872 288.023H70.9082C72.2261 288.023 73.2365 289.194 73.0442 290.498L70.9944 304.397C70.3695 308.634 66.7335 311.773 62.4504 311.773H52.845C48.5619 311.773 44.9259 308.634 44.3011 304.397L42.2512 290.498Z" fill="#C1DEE2"/>
</g>
<path fill-rule="evenodd" clip-rule="evenodd" d="M20.4758 295.129C20.4758 304.321 21.2012 311.773 30.9378 311.773C40.6744 311.773 41.3998 304.321 41.3998 295.129" fill="#F2F2F2"/>
<path fill-rule="evenodd" clip-rule="evenodd" d="M33.8344 289.392C33.4775 290.009 33.1593 290.638 32.8782 291.277C32.8683 289.962 32.941 288.636 33.1397 287.293C33.4793 284.991 33.998 282.702 34.4854 280.416C34.8357 278.774 34.8135 275.823 36.1429 274.514C36.5075 274.231 36.5952 274.786 36.5952 275.027C36.5998 275.078 36.5942 274.044 36.2404 274.224C34.1371 275.31 33.4557 278.726 32.7823 280.436C31.7999 282.932 30.964 285.484 30.6198 288.081C30.5328 288.737 30.4855 289.393 30.4746 290.047C30.4031 289.872 30.3359 289.696 30.2616 289.521C29.0477 286.674 27.4095 283.896 25.3663 281.334C24.8634 280.704 18.5397 274.484 18.0447 275.436C18.0936 275.574 18.1958 275.689 18.3518 275.78C18.3609 275.79 18.3612 275.784 18.3558 275.769C18.7272 276.369 19.7832 277.296 20.1121 277.821C20.9398 279.144 21.5832 280.548 22.2369 281.925C23.6182 284.835 24.8995 287.775 26.1417 290.72C26.4309 291.406 26.7324 292.089 27.0399 292.769C23.8695 288.196 19.6402 284.045 13.8182 281.668C15.8067 282.68 17.1104 284.583 18.4533 286.04C20.0729 287.798 21.7788 289.508 23.4015 291.264C25.3154 293.336 27.5675 295.517 29.4084 297.809C31.1917 301.553 32.9245 305.3 33.9942 309.236C33.5559 307.876 33.9598 305.997 33.8848 304.57C33.8253 303.434 33.6925 302.308 33.5106 301.183C33.7355 301.69 33.9293 302.198 34.0171 302.67C33.9369 301.878 33.8446 301.092 33.7454 300.309C34 299.576 34.2501 298.892 34.419 298.329C35.2847 295.439 36.3154 292.6 37.7191 289.832C39.018 287.272 40.5079 284.744 42.1313 282.293C42.8886 281.151 43.6563 280.012 44.4192 278.872C44.9186 278.126 45.394 276.93 46.0892 276.215C41.5953 280.324 36.6855 284.462 33.8344 289.392Z" fill="#F2F2F2"/>
<path fill-rule="evenodd" clip-rule="evenodd" d="M423.456 53.473C422.167 49.1758 419.143 45.8126 416.003 42.7309C409.891 36.7318 406.603 33.0225 404.425 24.2468C403.144 19.0856 401.84 13.6163 397.776 9.87179C394.817 7.14496 389.725 4.85393 385.768 6.80656C379.681 10.4399 378.046 17.896 378.66 24.5726C379.421 32.8477 383.286 37.9501 390.712 40.9981C394.897 42.7147 397.678 44.9797 399.949 48.9265C401.766 52.0824 402.825 56.0344 405.108 58.8954C408.522 63.1722 412.793 65.0734 418.058 64.3629C413.127 55.2898 407.365 46.1315 400.416 38.4923C399.765 37.7243 395.928 34.7847 396.702 33.4758C397.555 32.0346 401.493 37.4483 401.466 37.4156C403.485 39.7338 405.354 42.1973 407.189 44.6844C407.184 44.6868 407.179 44.6881 407.174 44.6907C409.063 47.2428 410.938 49.8325 412.776 52.4547C413.52 53.5639 414.244 54.6872 414.936 55.8387C415.953 57.5284 417.567 62.3241 419.231 63.3631C419.587 63.5853 419.916 63.7094 420.223 63.7606C421.358 65.6193 422.463 67.493 423.514 69.3887C426.257 74.3399 428.612 79.5677 429.692 85.1577C430.008 86.7892 429.785 92.8923 430.898 94.07C432.934 96.2244 432.338 92.0758 432.216 90.8236C431.205 80.4541 427.482 71.6198 422.077 62.9023C423.738 60.7336 423.977 55.2141 423.456 53.473Z" fill="#F2F2F2"/>
<path fill-rule="evenodd" clip-rule="evenodd" d="M353.716 58.4833C355.862 55.954 361.023 55.5249 364.179 55.6942C368.084 55.9036 372.095 56.8543 375.811 58.0038C381.931 59.8972 387.878 63.3525 393.268 66.6968C393.918 67.0998 401.921 71.9126 401.213 72.7572C400.511 73.594 392.654 67.8771 390.904 66.8918C387.167 64.7886 383.741 62.3013 379.622 60.9124C375.358 59.474 370.848 58.9045 366.363 58.9438C365.788 58.9489 363.911 58.5477 363.87 59.3991C363.83 60.2318 366.937 59.7974 367.484 59.8023C369.747 59.8231 372.023 60.0361 374.253 60.4281C378.432 61.1626 382.36 62.6423 385.939 64.9118C384.94 67.2336 382.546 68.3042 380.035 67.7231C377.865 67.2207 375.749 65.982 373.624 65.6238C372.16 65.3772 370.695 65.5239 369.276 65.9363C365.532 67.0243 363.373 69.2533 359.256 67.7028C356.029 66.4874 350.633 62.1206 353.716 58.4833Z" fill="#F2F2F2"/>
<path fill-rule="evenodd" clip-rule="evenodd" d="M344.484 17.7292C339.717 17.3815 334.395 21.1856 332.095 25.1443C330.242 28.3361 330.554 32.5273 331.699 35.9183C332.466 38.1885 334.139 41.4252 336.929 41.4568C340.42 41.4962 340.588 37.2281 340.656 34.7329C340.745 31.4156 341.169 28.5258 343.811 26.2647C344.137 25.9856 344.48 25.7243 344.822 25.4631C345.126 25.2312 345.43 24.9993 345.722 24.755C345.769 24.716 345.816 24.6769 345.863 24.6378C346.797 23.8609 347.779 23.0449 347.898 21.7644C348.071 19.9087 347.012 19.5747 345.396 19.9195C345.344 19.9306 345.202 19.9837 345.009 20.056C344.184 20.3656 342.422 21.0262 342.755 20.2365C342.88 19.9389 343.339 19.7031 343.917 19.5264C345.414 19.3654 347.2 19.1786 347.713 19.2902C353.252 20.4923 355.409 28.0827 355.981 32.9052C356.046 33.4512 356.098 33.9992 356.143 34.5479H357.159C357.088 33.2591 356.995 31.9724 356.777 30.6981C355.961 25.9212 353.408 18.9053 347.81 18.13C347.603 18.1011 346.844 18.0962 345.923 18.1496C345.487 17.9085 344.999 17.7627 344.484 17.7292Z" fill="#F2F2F2"/>
<path fill-rule="evenodd" clip-rule="evenodd" d="M205.727 104.883C209.245 107.004 212.702 108.029 214.325 107.61C218.394 106.561 218.768 91.6751 215.62 85.8065C212.471 79.9379 196.285 77.38 195.47 89.0076C195.186 93.0431 196.881 96.6445 199.384 99.5833L194.895 120.508H207.935L205.727 104.883Z" fill="#B28B67"/>
<path fill-rule="evenodd" clip-rule="evenodd" d="M206.377 90.29C207.505 88.6103 208.588 87.329 209.996 86.585C215.729 86.6756 216.4 85.6479 216.4 82.184C215.474 81.5215 212.207 80.4058 208.549 80.092C206.682 79.5579 204.471 79.6583 202.341 80.5493C199.712 81.2953 197.485 82.9019 196.502 85.9098C192.944 92.0499 195.645 98.4415 199.284 100.625C200.253 99.4772 201.098 98.365 201.852 97.3003C201.246 96.7083 200.87 95.8822 200.87 94.9681C200.87 93.1677 202.33 91.7081 204.13 91.7081C204.262 91.7081 204.393 91.716 204.521 91.7313C204.602 93.9825 204.935 101.598 205.811 104.243C206.844 107.362 212.869 108.128 214.97 108.128C216.785 108.128 216.723 106.409 216.679 105.178C216.672 105 216.666 104.833 216.666 104.682C216.666 104.368 216.257 104.368 215.795 104.369C215.194 104.371 214.504 104.372 214.504 103.683C214.504 102.932 215.542 102.356 216.471 101.841C217.05 101.519 217.587 101.221 217.803 100.919C218.484 99.9654 218.713 98.6795 217.686 98.6795C217.124 98.6795 216.353 99.0033 215.426 99.3929C214.027 99.981 212.27 100.719 210.338 100.719C207.151 100.719 206.389 90.4537 206.377 90.29Z" fill="#191847"/>
<path fill-rule="evenodd" clip-rule="evenodd" d="M190.546 165.602L210.245 234.728L224.617 285.678H235.1L219.827 165.602H190.546Z" fill="#191847"/>
<path fill-rule="evenodd" clip-rule="evenodd" d="M185.278 165.602C184.823 201.23 183.269 220.663 182.791 223.9C182.312 227.137 175.079 247.73 161.09 285.678H171.95C189.758 249.273 199.699 228.681 201.773 223.9C203.847 219.12 210.247 199.687 219.886 165.602H185.278Z" fill="#2F3676"/>
<path fill-rule="evenodd" clip-rule="evenodd" d="M160.12 295.461L160.664 284.051L172.074 284.051C180.189 289.756 193.264 293.287 193.264 293.287V295.461H172.617L165.554 294.374V295.461H160.12Z" fill="#191847"/>
<path fill-rule="evenodd" clip-rule="evenodd" d="M223.146 295.461L223.69 284.051L235.1 284.051C243.215 289.756 256.29 293.287 256.29 293.287V295.461H235.643L228.58 294.374V295.461H223.146Z" fill="#191847"/>
<path fill-rule="evenodd" clip-rule="evenodd" d="M148.366 185.32C150.393 182.343 162.114 150.684 162.114 150.684L171.738 152.081C171.738 152.081 156.243 185.7 155.124 187.64C153.67 190.16 154.956 194.3 155.828 197.107C155.963 197.541 156.088 197.944 156.191 198.303C154.359 198.832 153.663 197.784 152.928 196.679C152.098 195.43 151.22 194.109 148.605 194.907C147.594 195.215 146.623 195.61 145.675 195.997C142.398 197.332 139.388 198.558 135.931 195.69C135.382 195.236 134.921 193.749 136.663 192.883C141.003 190.724 147.376 186.775 148.366 185.32ZM252.784 170.605L236.383 156.7L231.9 165.881L248.524 174.177C252.969 180.204 255.51 182.764 256.15 181.859C256.689 181.095 256.363 180.322 256.063 179.611C255.83 179.056 255.612 178.538 255.83 178.091C256.329 177.07 259.574 177.408 262.639 177.86C265.705 178.313 264.902 176.879 264.207 176.149C261.192 174.046 257.385 172.198 252.784 170.605Z" fill="#B28B67"/>
<path fill-rule="evenodd" clip-rule="evenodd" d="M202.335 111.451L208.298 109.479C216.387 129.686 228.451 149.237 248.606 165.751L243.622 174.35C225.908 163.915 209.139 155.809 202.335 140.152C200.051 134.896 202.149 117.735 202.335 111.451Z" fill="#C5CFD6"/>
<path fill-rule="evenodd" clip-rule="evenodd" d="M181.853 168.322C181.853 168.322 207.475 171.039 222.188 168.322C223.403 168.098 223.595 166.063 223.031 164.682C214.255 143.179 208.237 124.416 208.237 109.48C205.822 110.698 199.783 109.845 199.783 109.845C188.963 125.237 183.99 142.897 181.853 168.322Z" fill="#323337"/>
<path fill-rule="evenodd" clip-rule="evenodd" d="M196.685 108.554C196.963 108.367 197.11 108.273 197.11 108.273L197.094 108.554H201.604C201.83 109.887 202.162 114.826 202.646 122.028C204.405 148.199 208.171 204.25 216.188 225.7H160.874C162.041 201.314 171.032 172.151 180.346 147.388C173.473 154.226 165.446 165.689 158.959 184.77L148.598 182.11C159.157 136.613 190.091 113.148 196.094 108.96C196.153 108.824 196.212 108.689 196.27 108.554H196.685Z" fill="#DDE3E9"/>
</svg>
