<svg width="338" height="387" viewBox="0 0 338 387" fill="none" xmlns="http://www.w3.org/2000/svg">
<g filter="url(#filter0_d)">
<rect x="16" y="8.08008" width="144.925" height="102.532" rx="12.8165" fill="white"/>
</g>
<path fill-rule="evenodd" clip-rule="evenodd" d="M94.7876 80.0816C101.688 84.2258 108.469 86.2281 111.651 85.4107C119.632 83.3611 120.366 54.272 114.191 42.8042C108.016 31.3364 76.2703 26.3379 74.6702 49.0593C74.1149 56.9451 77.4382 63.9827 82.3485 69.7253L73.5439 110.612H99.119L94.7876 80.0816Z" fill="#B28B67"/>
<path fill-rule="evenodd" clip-rule="evenodd" d="M63.5202 41.4962C62.6941 40.6806 62.2435 39.5164 61.8537 38.411C61.4489 37.2628 61.0556 36.1026 60.7869 34.9075C60.2499 32.5194 60.2448 29.7731 61.9547 27.9188C63.326 26.4318 65.3835 25.7648 67.2825 25.6199C68.5477 25.5232 69.8471 25.6997 71.0599 26.097C72.2631 26.491 73.3004 27.2764 74.4669 27.7639C74.5114 25.1904 74.9538 22.4977 76.2642 20.3003C77.5252 18.1861 79.5356 16.9997 81.8251 16.6858C84.1751 16.3637 86.4956 16.9115 88.5994 18.045C89.1261 18.3289 89.6479 18.6263 90.1472 18.9629C90.5653 19.2448 91 19.5842 91.4907 19.6988C92.0376 19.8268 92.3087 19.5121 92.6641 19.1145C93.0809 18.6484 93.5504 18.2378 94.0473 17.8739C96.2443 16.2649 99.127 15.6033 101.672 16.5678C102.845 17.0121 103.985 17.7668 104.781 18.8066C105.49 19.7336 105.996 21.204 106.975 21.8498C107.391 22.124 107.684 21.7608 108.062 21.4923C108.63 21.089 109.172 20.6439 109.747 20.2515C110.555 19.7002 111.429 19.2879 112.365 19.072C113.736 18.756 115.631 18.8301 116.022 20.6189C116.17 21.2908 116.057 22.0095 116.009 22.6865C115.944 23.616 115.876 24.5453 115.795 25.4735C115.733 26.1783 115.656 26.859 115.522 27.5511C115.451 27.92 115.228 28.6078 115.387 28.9772C115.585 29.439 116.501 29.1765 116.892 29.1925C117.665 29.2243 118.441 29.3594 119.156 29.6884C119.709 29.9434 120.292 30.3184 120.525 30.9508C120.669 31.3393 120.631 31.7383 120.563 32.138C120.482 32.6176 120.575 32.872 120.636 33.356C121.674 32.8468 125.27 31.7154 125.723 33.5687C125.874 34.1858 125.531 34.883 125.269 35.4035C124.81 36.3163 124.208 37.1506 123.592 37.9462C122.309 39.606 120.776 41.0377 119.128 42.262C121.059 43.1176 121.564 45.6415 119.891 47.1451C119.153 47.809 118.16 47.9568 117.228 47.9144C116.887 47.8988 116.396 47.7683 116.128 47.8274C115.983 47.8592 115.829 47.9811 115.629 47.9948C114.314 48.0845 112.83 47.7689 111.545 47.4783C109.255 46.9604 107.087 45.8795 105.317 44.2333C104.863 43.811 104.488 43.5679 103.876 43.5741C103.341 43.5795 102.815 43.7259 102.28 43.7394C100.864 43.7754 99.5876 43.0857 98.2728 42.6267C98.1922 44.3964 97.6864 46.3455 96.9598 47.9376C96.3673 49.2359 95.13 49.4246 93.9142 49.5385C90.0262 49.903 86.1245 49.4962 82.2316 49.5016C86 50.3503 89.8941 50.7001 93.6291 51.6988C95.3173 52.1501 94.0281 53.2838 93.3063 54.0697C92.1176 55.3639 91.2338 56.9674 90.6208 58.6567C88.7773 56.2625 85.5189 54.685 82.6321 55.4205C79.4425 56.2331 77.1965 60.5307 79.2361 63.6204C80.4203 65.4139 82.5587 66.1064 84.338 66.8769C82.9499 68.3148 82.6142 70.4384 81.7787 72.2273C81.3667 73.1094 80.7883 74.1068 79.8668 74.4143C79.5259 74.5281 79.1261 74.5378 78.8571 74.8147C78.5239 75.1575 78.4446 75.5408 78.0191 75.8354C76.3213 77.0115 73.6693 76.9209 72.1644 75.3861C70.8035 73.9981 71.1576 71.8017 72.2941 70.3945C70.4849 69.6431 67.1887 68.6768 67.9078 65.8684C63.9874 65.6091 54.4689 59.2742 59.7306 54.6452C56.843 53.0191 54.1901 49.0453 56.0449 45.5424C57.4732 42.845 60.7948 41.6392 63.5202 41.4962Z" fill="#191847"/>
<g filter="url(#filter1_d)">
<rect x="16" y="260.467" width="144.925" height="102.532" rx="12.8165" fill="white"/>
</g>
<path fill-rule="evenodd" clip-rule="evenodd" d="M94.7876 332.468C101.688 336.612 108.469 338.615 111.651 337.797C119.632 335.748 120.366 306.659 114.191 295.191C108.016 283.723 76.2703 278.725 74.6702 301.446C74.1149 309.332 77.4382 316.369 82.3485 322.112L73.5439 362.999H99.119L94.7876 332.468Z" fill="#B28B67"/>
<path fill-rule="evenodd" clip-rule="evenodd" d="M121.474 282.133C120.792 282.566 119.679 282.775 118.142 282.797C116.624 282.818 114.78 282.658 112.703 282.426C111.845 282.33 110.949 282.223 110.022 282.111C106.482 281.685 102.5 281.206 98.5497 281.147C93.5646 281.072 88.5508 281.662 84.4459 283.914C80.3138 286.182 77.156 290.104 75.8488 296.566L75.7966 296.823L75.8837 296.911C70.1684 308.431 75.3165 320.065 82.1544 324.153C84.0543 321.91 85.7124 319.736 87.1918 317.656C86.0035 316.499 85.2658 314.885 85.2658 313.099C85.2658 309.58 88.1284 306.728 91.6596 306.728C92.4846 306.728 93.2732 306.884 93.9973 307.168C96.7631 302.745 99.0934 299.3 102.199 297.284C110.199 298.074 115.527 296.799 118.72 294.137C122.097 291.322 122.962 287.07 122.225 282.472L122.107 281.732L121.474 282.133ZM103.758 296.426C110.808 296.914 115.375 295.642 118.089 293.38C120.949 290.996 121.864 287.415 121.347 283.294C120.483 283.634 119.386 283.765 118.156 283.783C116.571 283.805 114.674 283.638 112.593 283.406C111.719 283.308 110.812 283.199 109.878 283.087C106.342 282.662 102.428 282.191 98.5349 282.133C93.6137 282.059 88.8033 282.648 84.9201 284.779C81.6537 286.571 79.0056 289.474 77.5095 294.091C78.1294 293.151 78.8275 292.216 79.609 291.291C90.6915 278.168 109.441 282.713 109.441 295.287C107.234 295.287 105.384 295.683 103.758 296.426Z" fill="#191847"/>
<g filter="url(#filter2_d)">
<rect x="16.001" y="134.273" width="144.925" height="102.532" rx="12.8165" fill="white"/>
</g>
<path fill-rule="evenodd" clip-rule="evenodd" d="M94.7886 206.275C101.689 210.419 108.47 212.421 111.652 211.604C119.633 209.554 120.367 180.465 114.192 168.998C108.017 157.53 76.2713 152.531 74.6712 175.253C74.1159 183.139 77.4392 190.176 82.3495 195.919L73.5449 236.806H99.12L94.7886 206.275Z" fill="#E8C19D"/>
<path fill-rule="evenodd" clip-rule="evenodd" d="M116.606 174.147C116.352 172.661 115.733 171.01 115.234 169.604C114.59 167.791 113.615 166.156 112.542 164.616C110.523 161.715 108.1 159.096 105.426 156.922C100.54 152.952 94.3208 150.661 88.2049 151.405C85.1171 151.781 82.1195 152.954 79.5682 154.907C77.2631 156.672 75.0458 159.27 72.061 159.457C68.8132 159.66 65.8361 156.804 63.2314 155.04C60.2947 153.051 57.1704 151.602 53.738 151.039C47.988 150.096 42.5863 152.031 38.6234 156.732C34.4064 161.733 31.341 169.069 34.1103 175.696C34.6251 176.928 35.2873 177.967 36.2377 178.827C37.1094 179.617 38.4406 180.457 38.794 181.718C39.1694 183.059 38.0481 184.788 37.6132 185.998C36.9903 187.731 36.4788 189.55 36.6607 191.434C36.9594 194.528 38.9108 197.481 40.9713 199.515C43.0681 201.584 45.6489 202.771 48.4053 203.318C50.2459 203.683 52.1269 203.884 53.9975 203.747C54.9261 203.679 55.7456 203.422 56.6453 203.218C57.5202 203.019 58.0092 203.251 58.7515 203.729C62.1999 205.95 65.9078 206.809 69.8896 206.479C73.2502 206.2 77.1235 205.389 79.8649 203.094C82.9094 200.547 82.8488 197.033 82.1324 193.279C82.8914 193.654 84.9912 193.886 83.7364 192.392C83.2393 191.801 82.3002 191.56 81.6624 191.212C80.9197 190.807 80.1657 190.283 79.589 189.622C77.2604 186.953 79.6122 181.522 82.539 180.627C86.8872 179.298 87.8608 185.425 90.9649 187.01C92.7496 187.921 94.6166 186.675 95.9537 185.404C97.7449 183.7 98.9657 181.443 100.02 179.146C100.888 177.255 101.696 175.336 102.581 173.454C102.994 172.576 104.424 170.091 103.706 169.097C106.82 168.478 110.289 169.768 112.972 171.459C114.08 172.158 114.925 172.929 115.517 174.163C115.643 174.427 115.919 175.213 116.266 175.246C116.91 175.306 116.669 174.521 116.606 174.147Z" fill="#191847"/>
<g filter="url(#filter3_d)">
<rect x="176.7" y="8.08008" width="144.925" height="102.532" rx="12.8165" fill="white"/>
</g>
<path fill-rule="evenodd" clip-rule="evenodd" d="M255.487 80.0816C262.388 84.2258 269.168 86.2281 272.351 85.4107C280.331 83.3611 281.065 54.272 274.89 42.8042C268.715 31.3363 236.97 26.3379 235.37 49.0593C234.814 56.9451 238.138 63.9827 243.048 69.7253L234.243 110.612H259.818L255.487 80.0816Z" fill="#F2B983"/>
<path fill-rule="evenodd" clip-rule="evenodd" d="M241.083 74.8406C237.873 60.6124 228.729 50.9135 230.125 44.5541C231.522 38.1947 237.57 36.6447 237.57 36.6447C237.57 36.6447 240.698 24.0368 257.747 25.9194C274.796 27.802 285.201 34.8563 280.708 50.3789C276.577 50.3789 271.59 48.8905 264.695 51.4406C261.413 52.6543 260 58.9684 260 58.9684H256.884C256.884 58.9684 252.347 51.4753 247.938 53.4614C243.528 55.4475 245.933 63.1097 245.933 63.1097L244.398 74.8406H241.083Z" fill="#191847"/>
<g filter="url(#filter4_d)">
<rect x="176.7" y="134.273" width="144.925" height="102.532" rx="12.8165" fill="white"/>
</g>
<path fill-rule="evenodd" clip-rule="evenodd" d="M252.244 155.054C240.537 155.054 231.047 164.544 231.047 176.25V201.808C231.047 213.237 240.093 222.554 251.417 222.988C251.417 223.001 251.418 223.015 251.419 223.028H282.322C287.103 218.374 282.618 189.232 278.982 175.352C278.511 164.062 269.209 155.054 257.804 155.054H252.244Z" fill="#191847"/>
<path fill-rule="evenodd" clip-rule="evenodd" d="M255.487 206.275C262.388 210.419 269.168 212.421 272.351 211.604C280.331 209.554 281.065 180.465 274.89 168.998C268.715 157.53 236.97 152.531 235.37 175.253C234.814 183.139 238.138 190.176 243.048 195.919L234.243 236.806H259.818L255.487 206.275Z" fill="#FFE2C8"/>
<path fill-rule="evenodd" clip-rule="evenodd" d="M231.986 175.386C232.729 174.654 233.447 173.947 234.16 173.313L234.125 172.488C234.125 172.488 242.152 156.115 254.492 156.115C266.821 156.115 270.72 161.826 274.035 166.68L274.044 166.693C272.31 172.62 267.085 175.018 261.176 177.73C258.632 178.897 255.962 180.123 253.388 181.713C252.38 180.897 251.095 180.408 249.695 180.408C246.458 180.408 243.834 183.022 243.834 186.247C243.834 189.472 246.458 192.087 249.695 192.087C249.784 192.087 249.873 192.085 249.962 192.081C251.14 204.692 250.668 219.094 247.156 222.512H216.253C215.366 207.156 219.353 202.775 223.428 198.298C227.261 194.086 231.172 189.789 231.172 176.185C231.447 175.917 231.718 175.65 231.986 175.386Z" fill="#191847"/>
<g filter="url(#filter5_d)">
<rect x="176.7" y="260.467" width="144.925" height="102.532" rx="12.8165" fill="white"/>
</g>
<path fill-rule="evenodd" clip-rule="evenodd" d="M241.703 335.084C253.882 335.084 258.312 320.556 265.231 312.584C270.182 306.88 278.631 308.581 281.132 300.596C287.421 280.516 270.588 266.383 248.63 266.383C226.672 266.383 211.866 278.778 208.669 297.41C205.472 316.043 219.745 335.084 241.703 335.084Z" fill="#191847"/>
<path fill-rule="evenodd" clip-rule="evenodd" d="M255.487 332.468C262.388 336.612 269.168 338.615 272.351 337.797C280.331 335.748 281.065 306.659 274.89 295.191C268.715 283.723 236.97 278.725 235.37 301.446C234.814 309.332 238.138 316.369 243.048 322.112L234.243 362.999H259.818L255.487 332.468Z" fill="#B28B67"/>
<path fill-rule="evenodd" clip-rule="evenodd" d="M237.033 285.493C217.443 304.604 237.107 324.917 242.496 324.917C242.843 322.16 243.904 319.477 245.458 316.925C244.633 315.859 244.143 314.534 244.143 313.098C244.143 309.58 247.081 306.728 250.704 306.728C251.836 306.728 252.901 307.006 253.83 307.496C261.684 300.822 271.534 296.17 276.425 295.255C284.932 293.664 256.622 266.382 237.033 285.493Z" fill="#191847"/>
<defs>
<filter id="filter0_d" x="0.225806" y="0.192981" width="176.474" height="134.081" filterUnits="userSpaceOnUse" color-interpolation-filters="sRGB">
<feFlood flood-opacity="0" result="BackgroundImageFix"/>
<feColorMatrix in="SourceAlpha" type="matrix" values="0 0 0 0 0 0 0 0 0 0 0 0 0 0 0 0 0 0 127 0"/>
<feOffset dy="7.8871"/>
<feGaussianBlur stdDeviation="7.8871"/>
<feColorMatrix type="matrix" values="0 0 0 0 0 0 0 0 0 0 0 0 0 0 0 0 0 0 0.1 0"/>
<feBlend mode="normal" in2="BackgroundImageFix" result="effect1_dropShadow"/>
<feBlend mode="normal" in="SourceGraphic" in2="effect1_dropShadow" result="shape"/>
</filter>
<filter id="filter1_d" x="0.225806" y="252.58" width="176.474" height="134.081" filterUnits="userSpaceOnUse" color-interpolation-filters="sRGB">
<feFlood flood-opacity="0" result="BackgroundImageFix"/>
<feColorMatrix in="SourceAlpha" type="matrix" values="0 0 0 0 0 0 0 0 0 0 0 0 0 0 0 0 0 0 127 0"/>
<feOffset dy="7.8871"/>
<feGaussianBlur stdDeviation="7.8871"/>
<feColorMatrix type="matrix" values="0 0 0 0 0 0 0 0 0 0 0 0 0 0 0 0 0 0 0.1 0"/>
<feBlend mode="normal" in2="BackgroundImageFix" result="effect1_dropShadow"/>
<feBlend mode="normal" in="SourceGraphic" in2="effect1_dropShadow" result="shape"/>
</filter>
<filter id="filter2_d" x="0.226783" y="126.386" width="176.474" height="134.081" filterUnits="userSpaceOnUse" color-interpolation-filters="sRGB">
<feFlood flood-opacity="0" result="BackgroundImageFix"/>
<feColorMatrix in="SourceAlpha" type="matrix" values="0 0 0 0 0 0 0 0 0 0 0 0 0 0 0 0 0 0 127 0"/>
<feOffset dy="7.8871"/>
<feGaussianBlur stdDeviation="7.8871"/>
<feColorMatrix type="matrix" values="0 0 0 0 0 0 0 0 0 0 0 0 0 0 0 0 0 0 0.1 0"/>
<feBlend mode="normal" in2="BackgroundImageFix" result="effect1_dropShadow"/>
<feBlend mode="normal" in="SourceGraphic" in2="effect1_dropShadow" result="shape"/>
</filter>
<filter id="filter3_d" x="160.925" y="0.192981" width="176.474" height="134.081" filterUnits="userSpaceOnUse" color-interpolation-filters="sRGB">
<feFlood flood-opacity="0" result="BackgroundImageFix"/>
<feColorMatrix in="SourceAlpha" type="matrix" values="0 0 0 0 0 0 0 0 0 0 0 0 0 0 0 0 0 0 127 0"/>
<feOffset dy="7.8871"/>
<feGaussianBlur stdDeviation="7.8871"/>
<feColorMatrix type="matrix" values="0 0 0 0 0 0 0 0 0 0 0 0 0 0 0 0 0 0 0.1 0"/>
<feBlend mode="normal" in2="BackgroundImageFix" result="effect1_dropShadow"/>
<feBlend mode="normal" in="SourceGraphic" in2="effect1_dropShadow" result="shape"/>
</filter>
<filter id="filter4_d" x="160.926" y="126.386" width="176.474" height="134.081" filterUnits="userSpaceOnUse" color-interpolation-filters="sRGB">
<feFlood flood-opacity="0" result="BackgroundImageFix"/>
<feColorMatrix in="SourceAlpha" type="matrix" values="0 0 0 0 0 0 0 0 0 0 0 0 0 0 0 0 0 0 127 0"/>
<feOffset dy="7.8871"/>
<feGaussianBlur stdDeviation="7.8871"/>
<feColorMatrix type="matrix" values="0 0 0 0 0 0 0 0 0 0 0 0 0 0 0 0 0 0 0.1 0"/>
<feBlend mode="normal" in2="BackgroundImageFix" result="effect1_dropShadow"/>
<feBlend mode="normal" in="SourceGraphic" in2="effect1_dropShadow" result="shape"/>
</filter>
<filter id="filter5_d" x="160.926" y="252.58" width="176.474" height="134.081" filterUnits="userSpaceOnUse" color-interpolation-filters="sRGB">
<feFlood flood-opacity="0" result="BackgroundImageFix"/>
<feColorMatrix in="SourceAlpha" type="matrix" values="0 0 0 0 0 0 0 0 0 0 0 0 0 0 0 0 0 0 127 0"/>
<feOffset dy="7.8871"/>
<feGaussianBlur stdDeviation="7.8871"/>
<feColorMatrix type="matrix" values="0 0 0 0 0 0 0 0 0 0 0 0 0 0 0 0 0 0 0.1 0"/>
<feBlend mode="normal" in2="BackgroundImageFix" result="effect1_dropShadow"/>
<feBlend mode="normal" in="SourceGraphic" in2="effect1_dropShadow" result="shape"/>
</filter>
</defs>
</svg>
