<svg width="16" height="14" viewBox="0 0 16 14" fill="none" xmlns="http://www.w3.org/2000/svg">
<path d="M15.25 6.7002H10.975L9.55 8.8377H6.7L5.275 6.7002H1" stroke="#042454" stroke-width="1.5" stroke-linecap="round" stroke-linejoin="round"/>
<path d="M3.45813 1.79087L1 6.7V10.975C1 11.3529 1.15013 11.7154 1.41737 11.9826C1.68461 12.2499 2.04707 12.4 2.425 12.4H13.825C14.2029 12.4 14.5654 12.2499 14.8326 11.9826C15.0999 11.7154 15.25 11.3529 15.25 10.975V6.7L12.7919 1.79087C12.6739 1.55346 12.492 1.35366 12.2667 1.21395C12.0414 1.07423 11.7816 1.00014 11.5165 1H4.7335C4.46839 1.00014 4.20858 1.07423 3.98327 1.21395C3.75796 1.35366 3.5761 1.55346 3.45813 1.79087Z" stroke="#042454" stroke-width="1.5" stroke-linecap="round" stroke-linejoin="round"/>
</svg>
