<svg width="15" height="15" viewBox="0 0 15 15" fill="none" xmlns="http://www.w3.org/2000/svg">
<circle cx="7.5" cy="7.5" r="6.75" stroke="#042454" stroke-width="1.5"/>
<mask id="path-2-inside-1" fill="white">
<path fill-rule="evenodd" clip-rule="evenodd" d="M1.87695 12.4601V12.189C1.87695 10.3187 5.62461 9.37652 7.50195 9.37652C9.3793 9.37652 13.127 10.3187 13.127 12.189V12.4632C11.7527 14.0193 9.74263 15.0007 7.50332 15.0007C5.26253 15.0007 3.25126 14.018 1.87695 12.4601ZM7.50209 3.12598C5.94818 3.12598 4.68959 4.38457 4.68959 5.93848C4.68959 7.49238 5.94818 8.75098 7.50209 8.75098C9.056 8.75098 10.3146 7.49238 10.3146 5.93848C10.3146 4.38457 9.056 3.12598 7.50209 3.12598Z"/>
</mask>
<path d="M1.87695 12.4601H0.376953V13.0271L0.752072 13.4524L1.87695 12.4601ZM13.127 12.4632L14.2513 13.4561L14.627 13.0307V12.4632H13.127ZM3.37695 12.4601V12.189H0.376953V12.4601H3.37695ZM3.37695 12.189C3.37695 12.2724 3.32329 12.2344 3.5092 12.0628C3.7053 11.8818 4.04901 11.6718 4.54326 11.4738C5.53416 11.0769 6.75079 10.8765 7.50195 10.8765V7.87652C6.37577 7.87652 4.7799 8.14727 3.42764 8.68898C2.75031 8.96032 2.03977 9.33656 1.47452 9.85825C0.899072 10.3894 0.376953 11.1705 0.376953 12.189H3.37695ZM7.50195 10.8765C8.25311 10.8765 9.46975 11.0769 10.4607 11.4738C10.9549 11.6718 11.2986 11.8818 11.4947 12.0628C11.6806 12.2344 11.627 12.2724 11.627 12.189H14.627C14.627 11.1705 14.1048 10.3894 13.5294 9.85825C12.9641 9.33656 12.2536 8.96032 11.5763 8.68898C10.224 8.14727 8.62814 7.87652 7.50195 7.87652V10.8765ZM11.627 12.189V12.4632H14.627V12.189H11.627ZM12.0026 11.4703C10.901 12.7177 9.29456 13.5007 7.50332 13.5007V16.5007C10.1907 16.5007 12.6044 15.321 14.2513 13.4561L12.0026 11.4703ZM7.50332 13.5007C5.7109 13.5007 4.10348 12.7166 3.00183 11.4678L0.752072 13.4524C2.39904 15.3194 4.81416 16.5007 7.50332 16.5007V13.5007ZM6.18959 5.93848C6.18959 5.213 6.77661 4.62598 7.50209 4.62598V1.62598C5.11976 1.62598 3.18959 3.55614 3.18959 5.93848H6.18959ZM7.50209 7.25098C6.77661 7.25098 6.18959 6.66396 6.18959 5.93848H3.18959C3.18959 8.32081 5.11976 10.251 7.50209 10.251V7.25098ZM8.81459 5.93848C8.81459 6.66396 8.22757 7.25098 7.50209 7.25098V10.251C9.88442 10.251 11.8146 8.32081 11.8146 5.93848H8.81459ZM7.50209 4.62598C8.22757 4.62598 8.81459 5.213 8.81459 5.93848H11.8146C11.8146 3.55614 9.88442 1.62598 7.50209 1.62598V4.62598Z" fill="#042454" mask="url(#path-2-inside-1)"/>
</svg>
