<svg width="23" height="23" viewBox="0 0 23 23" fill="none" xmlns="http://www.w3.org/2000/svg">
<path d="M19.9699 4.4182C19.4804 3.9285 18.8993 3.54003 18.2596 3.27499C17.62 3.00995 16.9344 2.87354 16.242 2.87354C15.5496 2.87354 14.864 3.00995 14.2244 3.27499C13.5847 3.54003 13.0036 3.9285 12.5141 4.4182L11.4982 5.43403L10.4824 4.4182C9.4937 3.4295 8.15273 2.87405 6.75449 2.87405C5.35625 2.87405 4.01528 3.4295 3.02658 4.4182C2.03787 5.40691 1.48242 6.74788 1.48242 8.14612C1.48242 9.54436 2.03787 10.8853 3.02658 11.874L4.04241 12.8899L11.4982 20.3457L18.9541 12.8899L19.9699 11.874C20.4596 11.3846 20.8481 10.8034 21.1131 10.1638C21.3782 9.5241 21.5146 8.8385 21.5146 8.14612C21.5146 7.45373 21.3782 6.76813 21.1131 6.12849C20.8481 5.48884 20.4596 4.90768 19.9699 4.4182V4.4182Z" stroke="#042454" stroke-width="2" stroke-linecap="round" stroke-linejoin="round"/>
</svg>
