<svg width="21" height="14" viewBox="0 0 21 14" fill="none" xmlns="http://www.w3.org/2000/svg">
<path d="M15.862 12.5V11.1811C15.862 10.4816 15.5841 9.81068 15.0894 9.31602C14.5948 8.82136 13.9239 8.54346 13.2243 8.54346H7.94896C7.2494 8.54346 6.5785 8.82136 6.08384 9.31602C5.58918 9.81068 5.31128 10.4816 5.31128 11.1811V12.5" stroke="white" stroke-width="1.2" stroke-linecap="round" stroke-linejoin="round"/>
<path d="M10.5867 5.90573C12.0434 5.90573 13.2243 4.7248 13.2243 3.26805C13.2243 1.8113 12.0434 0.630371 10.5867 0.630371C9.1299 0.630371 7.94897 1.8113 7.94897 3.26805C7.94897 4.7248 9.1299 5.90573 10.5867 5.90573Z" stroke="white" stroke-width="1.2" stroke-linecap="round" stroke-linejoin="round"/>
<path d="M19.8188 12.5002V11.1814C19.8184 10.5969 19.6239 10.0292 19.2658 9.5673C18.9078 9.1054 18.4064 8.7755 17.8406 8.62939" stroke="white" stroke-width="1.2" stroke-linecap="round" stroke-linejoin="round"/>
<path d="M15.2029 0.716309C15.7703 0.86158 16.2731 1.19155 16.6323 1.65421C16.9914 2.11686 17.1863 2.68589 17.1863 3.27156C17.1863 3.85724 16.9914 4.42626 16.6323 4.88892C16.2731 5.35157 15.7703 5.68155 15.2029 5.82682" stroke="white" stroke-width="1.2" stroke-linecap="round" stroke-linejoin="round"/>
<path d="M5.61499 0.965332C5.04762 1.1106 4.54473 1.44058 4.18561 1.90323C3.82649 2.36589 3.63156 2.93491 3.63156 3.52059C3.63156 4.10626 3.82649 4.67528 4.18561 5.13794C4.54473 5.60059 5.04762 5.93057 5.61499 6.07584" stroke="white" stroke-width="1.2" stroke-linecap="round" stroke-linejoin="round"/>
<path d="M1.00001 12.7492V11.4304C1.00045 10.8459 1.19496 10.2782 1.55302 9.81632C1.91108 9.35443 2.4124 9.02452 2.97827 8.87842" stroke="white" stroke-width="1.2" stroke-linecap="round" stroke-linejoin="round"/>
</svg>
