<svg width="19" height="19" viewBox="0 0 19 19" fill="none" xmlns="http://www.w3.org/2000/svg">
<path d="M8.70835 9.49992C8.70835 9.93714 9.06279 10.2916 9.50002 10.2916C9.93725 10.2916 10.2917 9.93714 10.2917 9.49992C10.2917 9.06269 9.93725 8.70825 9.50002 8.70825C9.06279 8.70825 8.70835 9.06269 8.70835 9.49992Z" stroke="white" stroke-width="1.58333" stroke-linecap="round" stroke-linejoin="round"/>
<path d="M8.70835 15.0417C8.70835 15.4789 9.06279 15.8333 9.50002 15.8333C9.93725 15.8333 10.2917 15.4789 10.2917 15.0417C10.2917 14.6044 9.93725 14.25 9.50002 14.25C9.06279 14.25 8.70835 14.6044 8.70835 15.0417Z" stroke="white" stroke-width="1.58333" stroke-linecap="round" stroke-linejoin="round"/>
<path d="M8.70835 3.95841C8.70835 4.39564 9.06279 4.75008 9.50002 4.75008C9.93725 4.75008 10.2917 4.39564 10.2917 3.95841C10.2917 3.52119 9.93725 3.16675 9.50002 3.16675C9.06279 3.16675 8.70835 3.52119 8.70835 3.95841Z" stroke="white" stroke-width="1.58333" stroke-linecap="round" stroke-linejoin="round"/>
</svg>
