<svg width="23" height="23" viewBox="0 0 23 23" fill="none" xmlns="http://www.w3.org/2000/svg">
<path d="M19.9709 4.41796C19.4814 3.92825 18.9002 3.53978 18.2606 3.27475C17.621 3.00971 16.9354 2.87329 16.243 2.87329C15.5506 2.87329 14.865 3.00971 14.2253 3.27475C13.5857 3.53978 13.0045 3.92825 12.5151 4.41796L11.4992 5.43379L10.4834 4.41796C9.49468 3.42925 8.15371 2.8738 6.75547 2.8738C5.35723 2.8738 4.01626 3.42925 3.02755 4.41796C2.03885 5.40666 1.4834 6.74763 1.4834 8.14587C1.4834 9.54411 2.03885 10.8851 3.02755 11.8738L4.04339 12.8896L11.4992 20.3455L18.9551 12.8896L19.9709 11.8738C20.4606 11.3843 20.8491 10.8032 21.1141 10.1635C21.3791 9.52386 21.5156 8.83826 21.5156 8.14587C21.5156 7.45349 21.3791 6.76789 21.1141 6.12824C20.8491 5.48859 20.4606 4.90743 19.9709 4.41796V4.41796Z" stroke="#AAAAAA" stroke-width="2" stroke-linecap="round" stroke-linejoin="round"/>
</svg>
