<svg width="225" height="162" viewBox="0 0 225 162" fill="none" xmlns="http://www.w3.org/2000/svg">
<path d="M15.5817 39.351L16.5441 47.1706C17.4612 54.6226 14.8378 62.0744 9.45436 67.3083C3.56659 73.0325 1.01454 81.3698 2.68936 89.4089L3.3625 92.64C5.86199 104.638 15.4067 113.909 27.4718 116.059L50.651 120.19C55.4855 121.052 60.0567 123.014 64.0109 125.926L95.9392 149.437C106.282 157.053 120.177 157.747 131.227 151.199L147.6 141.496C151.489 139.192 155.822 137.737 160.314 137.229L189.845 133.886C200.276 132.705 209.465 126.482 214.434 117.235C220.532 105.884 218.354 92.6916 210.685 82.3372C206.242 76.3393 203.256 69.9624 204.5 62.5C204.756 60.9634 205.318 57.7651 206.388 54.3162C208.375 47.9127 210.712 41.2565 210.198 34.5717C209.462 25.0079 203.449 16.6547 194.614 12.9213L186.881 9.65383C178.378 6.06103 168.738 6.31508 160.436 10.3507L140.802 19.895C138.608 20.9615 136.299 21.7736 133.921 22.3156L114.636 26.7094C104.238 29.0786 93.3434 26.1121 85.5819 18.7983L79.1928 12.7778C74.5068 8.36216 68.5978 5.46281 62.2379 4.45862L52.966 2.99464C41.2922 1.15139 29.5527 5.89263 22.4332 15.326L21.8 16.165C16.797 22.794 14.5672 31.1083 15.5817 39.351Z" fill="white"/>
<g opacity="0.5">
<path fill-rule="evenodd" clip-rule="evenodd" d="M87.0109 82.9315C87.0096 85.593 86.875 88.3097 87.3655 90.9392C87.514 91.7353 87.6312 93.2601 88.4711 93.6733C89.3147 94.0882 90.1325 93.622 90.3421 92.7573C90.5866 91.7512 90.0503 90.2455 89.996 89.1892C89.9214 87.7462 89.9164 86.3015 89.9157 84.8569C89.9153 83.8136 90.2586 82.1352 89.027 81.5985C88.1112 81.1992 87.0109 81.9415 87.0109 82.9315Z" fill="#C1DEE2"/>
<path fill-rule="evenodd" clip-rule="evenodd" d="M129.087 78.722C120.269 79.6071 111.324 79.7911 102.474 80.2527C98.3833 80.466 93.4395 80.1938 89.5854 81.7773C88.8701 82.0714 86.3068 83.7081 88.3876 84.3745C89.0363 84.5824 89.6951 83.8836 90.2277 83.6494C91.1147 83.26 92.1416 83.1394 93.0874 82.9874C101.129 81.696 109.54 81.9209 117.664 81.3174C119.746 81.1628 121.829 81.0036 123.906 80.7992C125.39 80.6532 128.51 79.5834 129.879 80.1306C132.22 81.0655 132.165 87.14 132.211 89.2292C132.235 90.3096 131.187 94.1879 133.271 93.7947C134.94 93.48 134.336 89.4509 134.206 88.3488C133.864 85.4599 133.282 78.2969 129.087 78.722Z" fill="#C1DEE2"/>
<path fill-rule="evenodd" clip-rule="evenodd" d="M132.339 93.653C124.679 94.3446 116.843 93.666 109.153 93.938C105.121 94.0809 101.094 94.3079 97.0622 94.4411C95.3185 94.4988 93.5731 94.5012 91.8285 94.5136C90.9941 94.5192 87.1968 95.0251 89.5459 96.6794C90.586 97.4119 93.9007 96.8219 95.0941 96.8076C96.8867 96.7865 98.6783 96.712 100.47 96.6418C104.619 96.4796 108.766 96.2548 112.917 96.1425C116.888 96.035 120.861 96.0119 124.832 95.9044C126.808 95.8508 128.811 95.7902 130.769 95.5017C131.211 95.4365 132.646 95.3848 132.953 94.892C133.243 94.4261 133.04 93.5855 132.339 93.653Z" fill="#89C5CC"/>
<path fill-rule="evenodd" clip-rule="evenodd" d="M94.6941 87.9052C94.653 88.0025 94.653 88.0025 94.6941 87.9052V87.9052ZM98.0109 86.8965C98.1317 86.9476 98.1317 86.9476 98.0109 86.8965V86.8965ZM97.8567 86.8698C99.6446 88.6922 96.8951 90.8673 95.2204 89.0889C93.4428 87.2014 96.7058 86.8759 97.8567 86.8698ZM95.96 84.1118C89.8031 85.2074 91.983 93.413 97.7333 92.227C100.258 91.7066 101.702 89.1632 100.833 86.7202C100.493 85.7658 99.7534 84.7182 98.7229 84.4174C98.209 84.2675 97.7545 84.5034 97.2651 84.4482C96.7984 84.3956 96.5393 84.0073 95.96 84.1118Z" fill="#C1DEE2"/>
<path fill-rule="evenodd" clip-rule="evenodd" d="M119.523 86.4223C115.81 86.434 112.097 86.5917 108.385 86.6621C107.246 86.6836 104.32 86.174 104.315 87.969C104.31 89.887 107.57 89.1787 108.655 89.1528C112.337 89.0649 116.028 88.9035 119.696 88.5529C120.622 88.4643 123.829 88.6172 123.826 87.3574C123.823 86.0226 120.271 86.4223 119.523 86.4223Z" fill="#C1DEE2"/>
<path fill-rule="evenodd" clip-rule="evenodd" d="M128.391 98.9393C119.208 99.1856 110.04 99.2714 100.865 99.7414C97.4331 99.9172 94.0059 100.048 90.5691 100.048C89.9072 100.048 88.5744 99.7916 87.9515 100.208C86.2608 101.339 88.1859 102.31 89.2878 102.371C96.825 102.789 104.471 101.748 112.004 101.513C116.414 101.375 120.825 101.335 125.233 101.11C126.435 101.049 127.638 100.978 128.838 100.885C129.528 100.831 131.354 100.978 131.912 100.574C134.348 98.8109 129.212 98.9171 128.391 98.9393Z" fill="#89C5CC"/>
<path fill-rule="evenodd" clip-rule="evenodd" d="M86.2606 103.43C86.1743 105.811 86.1653 108.15 86.4768 110.518C86.5993 111.449 86.6556 112.507 87.7476 112.743C88.7393 112.958 89.2423 112.208 89.4477 111.376C89.9491 109.345 89.5079 106.422 89.502 104.313C89.4994 103.27 89.4983 102.102 88.2094 101.866C87.2259 101.686 86.2982 102.397 86.2606 103.43Z" fill="#89C5CC"/>
<path fill-rule="evenodd" clip-rule="evenodd" d="M138.123 109.17C123.26 109.953 108.415 110.637 93.5406 111.266C92.3806 111.315 83.369 111.217 86.5194 114.36C87.4926 115.33 89.9996 114.673 91.258 114.611C93.1492 114.518 95.0412 114.447 96.9323 114.351C104.43 113.969 111.948 113.866 119.44 113.438C123.563 113.202 127.677 112.833 131.779 112.353C133.729 112.125 136.151 112.149 137.978 111.384C138.918 110.991 139.933 109.074 138.123 109.17Z" fill="#89C5CC"/>
<path fill-rule="evenodd" clip-rule="evenodd" d="M129.577 97.0915C128.447 98.2174 129.028 100.438 129.113 101.83C129.23 103.745 129.373 105.661 129.612 107.565C129.767 108.802 129.685 110.727 130.345 111.796C131.118 113.047 132.819 112.909 133.518 111.7C134.136 110.631 133.823 108.381 133.807 107.196C133.785 105.558 133.683 103.917 133.586 102.282C133.504 100.915 133.814 98.7248 133.062 97.5551C132.299 96.3665 130.636 96.0381 129.577 97.0915Z" fill="#89C5CC"/>
<path fill-rule="evenodd" clip-rule="evenodd" d="M95.6029 105.83C95.4705 105.932 95.4705 105.932 95.6029 105.83V105.83ZM98.2437 105.5C100.708 105.996 96.7235 108.872 95.4644 106.898C95.2679 106.589 95.1655 106.21 95.4812 105.942C95.7694 105.697 95.9504 106.131 96.2227 106.014C96.6914 105.814 97.7435 105.481 98.2437 105.5ZM97.9031 103.137C96.2213 103.271 93.9088 103.374 93.0764 105.06C91.958 107.325 93.8707 109.543 96.0833 109.887C98.2126 110.219 101.392 109.039 101.562 106.556C101.7 104.554 99.7951 102.984 97.9031 103.137Z" fill="#89C5CC"/>
<path fill-rule="evenodd" clip-rule="evenodd" d="M111.944 104.334C110.203 104.362 106.781 103.847 105.264 104.696C103.763 105.535 104.433 107.031 105.802 107.388C106.707 107.625 108.186 107.243 109.128 107.205C110.368 107.154 111.608 107.144 112.849 107.126C114.935 107.098 117.02 107.122 119.106 107.122C121.236 107.122 123.403 107.18 125.53 107.024C128.221 106.826 128.149 104.811 125.517 104.559C121.046 104.131 116.43 104.263 111.944 104.334Z" fill="#89C5CC"/>
<path fill-rule="evenodd" clip-rule="evenodd" d="M107.497 126.904C107.497 127.861 108.347 126.904 108.34 126.904C108.347 126.904 107.497 125.946 107.497 126.904Z" fill="#89C5CC"/>
<path fill-rule="evenodd" clip-rule="evenodd" d="M88.2814 119.196C88.3361 121.978 88.3721 124.764 88.491 127.545C88.5287 128.424 88.2768 130.141 89.3427 130.589C90.5289 131.088 90.8977 129.845 91.0344 129.002C91.4672 126.332 91.043 123.283 91.0013 120.582C90.9873 119.674 91.1836 118.412 90.1533 117.959C89.313 117.59 88.2644 118.275 88.2814 119.196Z" fill="#89C5CC"/>
<path fill-rule="evenodd" clip-rule="evenodd" d="M134.046 119.24C134.116 119.405 134.116 119.405 134.046 119.24V119.24ZM134.146 119.212C134.202 119.236 134.432 119.332 134.146 119.212V119.212ZM111.664 116.962C107.392 117.029 103.117 117.08 98.8474 117.263C97.0252 117.341 95.182 117.404 93.3661 117.576C92.08 117.697 88.8849 117.748 88.0506 118.799C86.3292 120.969 89.9797 120.377 90.766 120.201C92.1969 119.88 93.6575 119.777 95.1194 119.7C98.2914 119.533 101.465 119.443 104.641 119.379C113.253 119.206 121.872 119.232 130.486 119.193C131.32 119.19 132.828 118.854 133.598 119.192C134.369 119.53 134.326 120.361 134.406 121.326C134.513 122.611 133.666 125.058 134.311 126.138C135.312 127.814 136.768 126.391 136.991 125.169C137.298 123.481 136.811 121.455 136.334 119.841C135.661 117.565 134.726 117.474 132.524 117.296C129.952 117.088 127.388 116.962 124.807 116.939C120.427 116.898 116.044 116.894 111.664 116.962Z" fill="#89C5CC"/>
<path fill-rule="evenodd" clip-rule="evenodd" d="M128.562 128.464C119.295 129.54 109.765 128.906 100.449 128.944C98.1841 128.954 95.9167 128.972 93.6535 129.082C92.4581 129.14 89.6246 128.81 88.8056 129.732C87.0794 131.676 90.189 131.959 91.3242 131.878C93.6195 131.715 95.9202 131.641 98.2214 131.623C106.327 131.56 114.478 131.939 122.577 131.539C125.97 131.371 129.287 130.791 132.617 130.142C133.355 129.998 138.406 129.038 135.526 127.888C133.824 127.207 130.35 128.256 128.562 128.464Z" fill="#89C5CC"/>
<path fill-rule="evenodd" clip-rule="evenodd" d="M101.506 124.908C101.442 124.991 101.442 124.991 101.506 124.908V124.908ZM101.444 124.893C101.422 124.952 101.354 125.099 101.444 124.893V124.893ZM100.86 124.14C100.874 124.157 100.929 124.228 100.86 124.14V124.14ZM100.838 124.134C101.061 124.401 101.212 124.698 101.289 125.026C99.3685 125.546 98.6286 123.992 100.838 124.134ZM100.717 124.06C100.717 124.061 100.987 124.174 100.717 124.06V124.06ZM97.5619 121.748C96.3194 123.295 95.2937 125.098 96.8428 126.866C98.228 128.446 101.015 128.65 102.773 127.595C104.584 126.508 104.427 124.219 103.164 122.725C102.351 121.764 101.691 121.79 100.511 121.633C99.7078 121.526 98.2437 120.902 97.5619 121.748Z" fill="#89C5CC"/>
<path fill-rule="evenodd" clip-rule="evenodd" d="M110.406 124.61C110.406 126.671 119.303 125.784 120.886 125.782C122.212 125.78 130.229 126.511 129.653 124.391C129.181 122.648 121.284 123.514 119.602 123.512C118.148 123.51 110.406 122.512 110.406 124.61Z" fill="#89C5CC"/>
</g>
<g opacity="0.5">
<path fill-rule="evenodd" clip-rule="evenodd" d="M64.0815 43.1753C64.083 43.2743 64.0844 43.3675 64.0865 43.4531C64.1328 45.3232 64.1059 47.2892 63.954 49.1549C63.9016 49.799 63.433 50.6155 62.8984 49.7275C62.6633 49.3371 62.6962 48.5353 62.7205 47.9455C62.727 47.7873 62.7328 47.6445 62.7327 47.5288C62.7323 46.8707 62.7668 46.2059 62.8015 45.5392C62.8693 44.236 62.9374 42.9259 62.7445 41.6459C62.7406 41.62 62.7369 41.5951 62.7334 41.5711C62.6496 41.0082 62.6438 40.9694 62.0248 40.9822C61.7668 40.9875 61.5088 40.9945 61.2507 41.0015C60.9969 41.0083 60.7431 41.0152 60.4893 41.0205C60.2373 41.0258 59.9852 41.0306 59.7332 41.0355C58.9428 41.0507 58.1523 41.0659 57.3623 41.0948C57.2304 41.0997 56.9844 41.1306 56.6739 41.1695C56.0532 41.2473 55.175 41.3575 54.4358 41.3569C54.436 41.3601 54.4362 41.3632 54.4365 41.3664C54.4369 41.3721 54.4373 41.3778 54.4375 41.3837C54.4457 41.7917 54.3407 42.2472 54.2351 42.7048C54.1467 43.088 54.0579 43.4727 54.0351 43.8322C53.9809 44.6878 53.9803 45.5523 53.9797 46.4169C53.979 47.4697 53.9783 48.5224 53.8807 49.5589C53.876 49.6094 53.8731 49.6628 53.8702 49.7169C53.8699 49.7241 53.8695 49.7313 53.8691 49.7385C53.9025 49.7334 53.935 49.7298 53.9663 49.7278C54.499 49.694 55.0362 49.691 55.5725 49.688C55.8683 49.6864 56.1639 49.6847 56.4583 49.6779C56.987 49.6656 57.5221 49.6662 58.0595 49.6668C59.2456 49.6681 60.4422 49.6694 61.6025 49.5327C61.9451 49.4883 62.0649 49.9279 61.9112 50.1557C61.7736 50.3597 61.3947 50.3927 61.1172 50.4169C61.0467 50.4231 60.9828 50.4286 60.931 50.4363C60.1826 50.5471 59.4244 50.5858 58.6694 50.6192C57.8764 50.6544 57.0828 50.6806 56.2892 50.7027C56.1004 50.7079 55.8484 50.7334 55.5689 50.7617C54.8311 50.8362 53.9021 50.9301 53.441 50.7215C52.9455 50.4973 52.9571 50.2484 53.1594 50.0555C53.0706 49.8605 53.0567 49.5755 53.0458 49.3526C53.0416 49.2675 53.0379 49.1914 53.0307 49.1329C52.9207 48.2453 52.8544 47.3691 52.8528 46.474C52.8497 44.7205 52.8532 42.8994 53.3382 41.2022C53.144 41.1171 53.0268 40.9917 53.0273 40.811C53.0295 39.9004 55.8637 39.9467 57.2109 39.9688C57.4517 39.9727 57.6451 39.9759 57.7662 39.9726C58.7476 39.947 59.7292 39.9437 60.7108 39.949C60.9182 39.9501 61.1491 39.9365 61.3882 39.9225C61.8969 39.8925 62.4433 39.8604 62.8827 39.9625C64.0371 40.2305 64.0648 42.0689 64.0815 43.1753Z" fill="#89C5CC"/>
<path fill-rule="evenodd" clip-rule="evenodd" d="M71.301 40.1624C72.3727 40.1057 73.4451 40.0927 74.5181 40.0887C75.6543 40.083 76.792 40.1034 77.9277 40.1383L77.9539 40.1391C78.4571 40.1542 81.2539 40.2383 79.969 40.9352C79.894 40.9759 79.8095 41.0099 79.7174 41.0381C79.7719 41.3611 79.7785 41.6946 79.7697 41.8552C79.7366 42.4639 79.7147 43.0733 79.6928 43.6826L79.6928 43.6827C79.678 44.0957 79.6631 44.5087 79.6448 44.9215C79.5943 46.062 79.5461 47.2025 79.5068 48.3435C79.502 48.4836 79.5094 48.6667 79.5177 48.8709V48.8709C79.545 49.5459 79.5815 50.4504 79.215 50.7848C78.8936 51.0781 78.6738 51.0196 78.5257 50.8206C77.6052 51.0881 75.7142 51.0011 74.7633 50.9574C74.5343 50.9469 74.3598 50.9389 74.2665 50.9389C74.0999 50.939 73.7902 50.9598 73.3991 50.9861C71.7712 51.0954 68.7324 51.2995 68.7262 50.497C68.7256 50.4197 68.7507 50.3505 68.7979 50.2885C68.669 50.1569 68.5529 49.9636 68.4783 49.7225C68.2108 48.8569 68.1856 47.9229 68.1658 47.0253C68.1378 45.7579 68.1375 44.489 68.1372 43.2204C68.137 42.5684 68.1368 41.9165 68.1329 41.2649C67.9591 41.0312 68.0625 40.764 68.2795 40.5776C68.7418 40.1808 69.8893 40.176 70.7194 40.1725C70.9427 40.1716 71.1432 40.1708 71.301 40.1624ZM69.557 49.9365C70.59 49.716 72.3304 49.787 73.2628 49.825C73.5071 49.835 73.6959 49.8427 73.802 49.8423C74.7544 49.8385 75.7071 49.8518 76.6587 49.8898C76.7573 49.8937 76.9033 49.8901 77.0753 49.8857C77.4208 49.877 77.8714 49.8657 78.2539 49.9081C78.2488 49.856 78.2453 49.8084 78.2432 49.7672C78.2004 48.9202 78.2313 48.0658 78.2621 47.2162V47.2162L78.2621 47.2161C78.2687 47.0355 78.2752 46.8551 78.281 46.6751C78.3014 46.0399 78.3286 45.4049 78.3557 44.7699C78.3727 44.3701 78.3898 43.9703 78.4052 43.5704C78.412 43.395 78.4019 43.1566 78.3906 42.8885V42.8885C78.3675 42.3428 78.3393 41.6736 78.4371 41.1598C78.0848 41.1531 77.7237 41.1282 77.3926 41.1053C77.0735 41.0832 76.7822 41.063 76.5532 41.063C76.2627 41.063 75.9723 41.0621 75.6819 41.0612C74.8772 41.0587 74.0728 41.0562 73.268 41.0722L73.0388 41.0766C71.9308 41.098 70.8136 41.1196 69.7148 41.2655C69.6503 41.2741 69.5728 41.2907 69.4871 41.3107C69.6078 41.8143 69.5488 42.5244 69.4971 43.1462L69.4971 43.1462C69.472 43.448 69.4486 43.7291 69.4484 43.9556C69.4468 45.3644 69.484 46.7676 69.5211 48.1694C69.5352 48.6997 69.5492 49.2298 69.5612 49.7599C69.5626 49.8232 69.5611 49.8821 69.557 49.9365Z" fill="#89C5CC"/>
<path fill-rule="evenodd" clip-rule="evenodd" d="M57.8005 50.6612C57.0963 51.0726 57.4761 52.7184 57.7201 53.2876C58.1212 54.2236 58.935 54.9559 59.8132 55.4417C61.5882 56.4236 64.1468 56.1628 65.4892 57.8652C65.5031 57.8828 65.9671 58.3422 66.0728 57.7473C66.1595 57.2591 65.2932 56.5135 64.9576 56.2687C64.003 55.5729 62.7788 55.3485 61.6746 55.0008C60.4971 54.6301 59.2049 53.9466 58.7113 52.7327C58.5365 52.3027 58.8697 50.0336 57.8005 50.6612Z" fill="#C1DEE2"/>
<path fill-rule="evenodd" clip-rule="evenodd" d="M73.9008 51.4527C73.2554 51.6306 73.6823 52.5187 73.6812 52.9634C73.68 53.5181 73.5026 54.0987 73.1607 54.5414C72.2937 55.6641 70.596 55.8323 69.3233 56.1542C68.3991 56.3881 66.1879 56.8896 66.1014 58.1394C66.0047 59.5352 67.9569 57.8366 68.1218 57.767C69.9463 57.0977 72.3069 56.9685 73.7151 55.4952C74.2965 54.8871 74.6401 54.0754 74.6946 53.2377C74.7254 52.766 74.7306 51.226 73.9008 51.4527Z" fill="#C1DEE2"/>
<path fill-rule="evenodd" clip-rule="evenodd" d="M60.5653 63.8338C60.5502 61.2512 63.0217 59.6891 65.2566 59.1014C67.9428 58.3938 70.445 60.2759 70.7616 62.9835C71.0958 65.8409 68.9423 68.1413 66.1022 68.2674C63.6039 68.3783 60.5812 66.5895 60.5653 63.8338ZM66.566 60.3435C66.7113 60.541 66.8424 60.8562 66.5496 61.0279C66.2681 61.192 66.1275 60.9947 65.9859 60.7962C65.8965 60.6707 65.8067 60.5447 65.6807 60.5092C65.3542 60.4173 64.8294 60.7607 64.5574 60.961C64.447 61.0423 64.2899 61.2173 64.1062 61.4218C63.5216 62.073 62.668 63.0237 62.1962 62.2056C60.3145 65.4549 65.0057 67.8866 67.6733 66.657C70.603 65.3065 70.0327 60.3692 66.566 60.3435Z" fill="#89C5CC"/>
<path fill-rule="evenodd" clip-rule="evenodd" d="M64.1072 62.9691C64.1072 63.562 65.0435 63.562 65.0435 62.9691C65.0435 62.383 64.1072 62.3578 64.1072 62.9691Z" fill="#89C5CC"/>
<path fill-rule="evenodd" clip-rule="evenodd" d="M65.754 62.8577C65.754 63.5839 66.9015 63.5839 66.9015 62.8577C66.9015 62.1397 65.754 62.109 65.754 62.8577Z" fill="#89C5CC"/>
<path fill-rule="evenodd" clip-rule="evenodd" d="M64.5754 64.5501C63.6371 65.102 66.3205 66.1987 66.4265 65.0781C66.4722 64.5945 66.0039 64.725 65.6918 64.6894C65.3931 64.6553 64.8588 64.3852 64.5754 64.5501Z" fill="#89C5CC"/>
<path fill-rule="evenodd" clip-rule="evenodd" d="M64.1685 68.4652C64.2093 69.8747 64.1897 71.2833 64.457 72.6732C64.5078 72.9371 64.5431 73.8946 64.7517 74.0907C65.2649 74.5731 65.2734 73.6485 65.2933 73.2942C65.3645 72.0252 65.2313 70.7166 65.2019 69.4449C65.1955 69.1712 65.2681 68.6043 65.1388 68.3393C64.9339 67.9187 64.1486 67.7939 64.1685 68.4652Z" fill="#C1DEE2"/>
<path fill-rule="evenodd" clip-rule="evenodd" d="M63.1651 67.3219C61.1084 69.6302 58.2763 69.4602 55.423 69.6623C53.9155 69.7692 52.3912 69.9885 51.1781 70.9636C50.6139 71.4172 50.1274 71.9854 49.8005 72.6329C49.6576 72.916 48.9799 74.5494 49.9978 74.1618C50.3588 74.0245 50.7142 72.9443 50.9476 72.6248C51.3924 72.0163 51.9614 71.514 52.644 71.1874C53.9607 70.5575 55.5329 70.5682 56.9606 70.4883C58.453 70.4048 60.0548 70.3267 61.4267 69.6778C62.072 69.3725 62.6774 68.9917 63.1968 68.5011C63.3823 68.3256 63.7803 68.0277 63.8099 67.7595C63.8439 67.453 63.5492 66.8918 63.1651 67.3219Z" fill="#C1DEE2"/>
<path fill-rule="evenodd" clip-rule="evenodd" d="M52.7825 74.4069C50.8505 74.4714 48.921 74.5496 46.9917 74.6718C46.5964 74.6968 45.2782 74.6169 45.6139 75.427C45.883 76.0764 47.4906 75.6469 48.0224 75.6154C50.0327 75.496 52.0514 75.4546 54.0574 75.2737C54.5081 75.2332 56.5451 75.2493 55.704 74.4507C55.3038 74.0705 53.3353 74.388 52.7825 74.4069Z" fill="#89C5CC"/>
<path fill-rule="evenodd" clip-rule="evenodd" d="M44.3872 75.3395C43.7782 76.1393 44.058 78.0832 44.1041 79.0447C44.1486 79.9764 43.9676 81.68 45.1839 81.8245C44.7977 81.7738 45.477 81.8479 45.5876 81.8539C45.8345 81.8671 46.0826 81.8714 46.3298 81.8741C46.9011 81.8804 47.4726 81.8728 48.0437 81.8613C49.3375 81.8354 50.6346 81.7978 51.9267 81.7263C52.4698 81.6962 55.4163 81.7213 55.5329 81.1571C55.682 80.4361 52.8569 80.844 52.3512 80.867C51.1196 80.9235 49.886 80.9354 48.6533 80.9515C48.0423 80.9596 47.4307 80.9656 46.8198 80.9536C46.5675 80.9487 45.5684 81.0523 45.415 80.884C45.2843 80.7407 45.3863 79.4233 45.3835 79.2219C45.3745 78.565 45.3753 77.9065 45.3987 77.2499C45.4144 76.8079 45.6534 75.9668 45.4587 75.5515C45.2692 75.1478 44.7171 75.01 44.3872 75.3395Z" fill="#89C5CC"/>
<path fill-rule="evenodd" clip-rule="evenodd" d="M54.3351 75.3758C54.3704 76.8389 54.3813 78.3317 54.7269 79.7626C54.8419 80.2389 55.0031 81.2209 55.4815 81.4674C55.9836 81.7262 56.4172 81.3568 56.4499 80.8593C56.4913 80.2338 56.1563 79.4126 56.0877 78.7708C56.0074 78.022 55.9607 77.2725 55.9333 76.52C55.9125 75.9541 56.0845 75.1056 55.545 74.7407C55.0605 74.4129 54.3193 74.743 54.3351 75.3758Z" fill="#89C5CC"/>
<path fill-rule="evenodd" clip-rule="evenodd" d="M58.1798 75.0204C57.5789 75.6189 57.8475 77.5139 57.9226 78.283C57.9776 78.8462 58.5941 81.6171 59.5179 80.1722C59.9265 79.533 59.4074 77.843 59.411 77.0977C59.4134 76.623 59.5815 76.0228 59.5004 75.5668C59.3932 74.9641 58.7248 74.4761 58.1798 75.0204Z" fill="#89C5CC"/>
<path fill-rule="evenodd" clip-rule="evenodd" d="M62.3401 74.5262C64.1449 74.34 65.9518 74.2003 67.7665 74.183C67.8536 74.1824 67.9452 74.1812 68.0404 74.18C69.2842 74.1642 71.1533 74.1405 71.9902 75.0745C72.4463 75.5833 72.6529 76.3698 72.8329 77.0554C72.8665 77.1833 72.8992 77.3077 72.9324 77.4261C72.9607 77.5273 72.9976 77.6427 73.0374 77.7674C73.2254 78.356 73.4798 79.1525 73.2219 79.6456C73.0805 79.9159 72.8527 80.1465 72.5072 80.0507C72.4265 80.0284 72.3633 79.9998 72.3138 79.9661C72.4461 80.1094 72.5047 80.3134 72.4188 80.5131C72.2525 80.899 71.7275 80.9072 71.3137 80.9137C71.2135 80.9153 71.1197 80.9167 71.0392 80.9234C69.6613 81.0383 68.2771 81.1149 66.8943 81.127C66.2359 81.1328 65.5775 81.1274 64.9191 81.122C64.2413 81.1165 63.5635 81.111 62.8859 81.1176C62.394 81.1225 61.893 81.1692 61.3919 81.216C60.7591 81.275 60.1262 81.3341 59.5109 81.3089C59.0505 81.2899 58.5589 81.1392 58.6756 80.5442C58.7708 80.0586 59.2279 80.0162 59.6376 79.9782C59.6732 79.9749 59.7085 79.9716 59.7432 79.9681C61.0476 79.8353 62.3527 79.7883 63.6638 79.793C66.4182 79.8026 69.1703 79.7883 71.9245 79.7739C72.0376 79.7832 72.1441 79.8264 72.2319 79.8923C72.1328 79.7719 72.1347 79.6117 72.1368 79.4411C72.1377 79.3639 72.1387 79.2845 72.1303 79.2058C72.1135 79.0475 72.098 78.8899 72.0826 78.7326C72.0317 78.2127 71.9812 77.6965 71.882 77.1734C71.867 77.0945 71.8526 77.0076 71.8373 76.9157C71.7472 76.3727 71.6277 75.6532 71.196 75.3601C70.7618 75.0653 69.9106 75.0794 69.2472 75.0905C69.0681 75.0935 68.9027 75.0962 68.7629 75.0926C66.9926 75.0469 65.2121 75.1726 63.4499 75.3328C63.3146 75.3452 63.179 75.357 63.0433 75.3688C62.3728 75.4272 61.6989 75.4859 61.0381 75.6058C60.9172 75.6278 60.7325 75.6923 60.5206 75.7662C59.9569 75.9629 59.201 76.2266 58.9441 75.9362C58.0932 74.9738 61.8324 74.5786 62.3401 74.5262Z" fill="#89C5CC"/>
<path fill-rule="evenodd" clip-rule="evenodd" d="M81.541 72.334C81.6194 72.4348 81.6194 72.4348 81.541 72.334V72.334ZM69.3279 66.3719C68.2318 67.0162 70.2605 68.9067 70.7772 69.199C71.9402 69.857 73.5382 69.9562 74.8368 70.1412C76.4802 70.3755 78.2688 70.4617 79.8481 71.0003C80.5212 71.2298 80.9488 71.5879 81.3894 72.1382C81.6127 72.4171 82.1503 73.619 82.6399 73.3344C83.6257 72.7615 80.9694 70.3569 80.3841 70.0984C79.0536 69.5106 77.4809 69.346 76.0583 69.1178C74.7356 68.9055 73.3843 68.7477 72.0942 68.3735C71.3848 68.1677 70.8806 67.8359 70.4716 67.2007C70.2168 66.8048 70.0077 65.9741 69.3279 66.3719Z" fill="#C1DEE2"/>
<path fill-rule="evenodd" clip-rule="evenodd" d="M86.1317 73.757C84.868 73.7851 83.6066 73.8823 82.3455 73.9795C81.6381 74.034 80.9307 74.0885 80.223 74.1308C80.0017 74.1441 79.7802 74.156 79.5585 74.1679C78.935 74.2015 78.3108 74.2351 77.6904 74.2978C77.5961 74.3073 77.4869 74.3163 77.368 74.3261C76.8408 74.3693 76.1219 74.4284 75.6628 74.6208C75.2419 74.3027 74.5925 74.5734 74.5824 75.1407C74.565 76.1744 74.5745 77.1897 74.7006 78.217C74.7298 78.4555 74.8806 79.6631 75.2085 80.2915C75.0912 80.8857 75.5974 81.0522 76.0686 81.0977C77.8925 81.2738 79.8051 81.1371 81.6919 81.0023C82.6516 80.9337 83.6046 80.8656 84.5358 80.8394C84.8454 80.8307 85.159 80.8272 85.4745 80.8236C86.5041 80.8121 87.5535 80.8003 88.5502 80.6056C88.5903 80.5978 88.6333 80.5901 88.6783 80.582C89.0723 80.5114 89.6159 80.4139 89.6572 79.9802C89.6821 79.7201 89.5354 79.4819 89.2898 79.4483C89.3069 79.2309 89.2796 78.9936 89.2595 78.8192L89.2595 78.8191C89.2548 78.7787 89.2506 78.7417 89.2473 78.709C89.1876 78.1058 89.0373 77.5066 88.889 76.915L88.889 76.915C88.8556 76.782 88.8224 76.6494 88.7903 76.5173C88.7547 76.3709 88.7218 76.1968 88.6863 76.0091L88.6863 76.009C88.561 75.3465 88.4035 74.5138 87.9847 74.1272C87.5454 73.7218 86.8304 73.7397 86.2576 73.7541C86.2147 73.7551 86.1727 73.7562 86.1317 73.757ZM88.3559 79.5128C88.2057 79.1206 88.1618 78.5895 88.1201 78.0847C88.0939 77.7682 88.0686 77.462 88.0185 77.207C87.9808 77.0155 87.95 76.8137 87.9186 76.6085C87.8425 76.1103 87.7633 75.5924 87.5764 75.1558C87.3259 74.571 87.103 74.5934 86.5756 74.6463C86.4775 74.6561 86.3688 74.667 86.2475 74.6752C85.71 74.7117 85.173 74.7582 84.6361 74.8047L84.6361 74.8047C84.3784 74.827 84.1208 74.8493 83.8632 74.8705C82.7607 74.9611 81.6576 75.0308 80.5543 75.1005L80.5543 75.1005L80.5543 75.1005C79.9098 75.1412 79.2652 75.1819 78.6206 75.2267C78.1148 75.262 77.6211 75.3581 77.1294 75.4539C76.7399 75.5297 76.3516 75.6054 75.9595 75.6502C75.9539 75.7843 75.9426 75.919 75.9319 76.0472C75.9173 76.2216 75.9037 76.3842 75.9066 76.5173C75.9194 77.1077 75.9716 77.6945 76.0238 78.2821L76.0477 78.5532C76.0571 78.6616 76.0805 78.8008 76.1063 78.9553C76.1463 79.1944 76.1925 79.47 76.2027 79.7239C76.2504 79.7235 76.2978 79.7237 76.3444 79.7238C76.4048 79.7241 76.464 79.7243 76.5208 79.7233C77.91 79.699 79.2981 79.6569 80.6863 79.6035C80.8635 79.5967 81.0407 79.5898 81.2179 79.5829C82.4565 79.5347 83.6952 79.4865 84.9347 79.4723C85.4272 79.4667 85.9262 79.4821 86.4266 79.4976C87.0708 79.5175 87.7174 79.5375 88.3559 79.5128Z" fill="#89C5CC"/>
</g>
<path fill-rule="evenodd" clip-rule="evenodd" d="M114.315 56.147C114.505 52.0609 114.766 47.9805 114.903 43.8919C114.972 41.8659 115.025 39.8397 115.077 37.8133C115.088 37.3621 115.1 36.9111 115.11 36.4599C115.144 34.9269 114.962 34.8015 116.504 34.6655C123.386 34.058 130.296 33.8567 137.186 33.307C145.496 32.6442 153.849 32.1865 162.182 31.9814C165.886 31.89 169.604 31.7008 173.308 31.816C174.129 31.8415 175.74 31.628 176.063 32.2659C176.202 32.5414 175.91 33.4897 175.872 33.8077C175.756 34.8011 175.648 35.798 175.581 36.7963C175.187 42.6844 175.422 48.721 176.562 54.5198C173.888 53.0117 170.508 51.7143 167.391 51.9718C164.213 52.2343 161.835 54.0705 159.291 55.7607C157.852 56.7166 157.368 56.968 155.932 56.0419C154.695 55.2438 153.524 54.3313 152.357 53.4357C150.556 52.0535 148.856 50.5548 147.11 49.1058C143.898 46.4415 139.473 42.6492 135.038 43.7658C131.869 44.5635 128.942 46.3052 126.192 48.0098C122.105 50.5422 118.406 53.6435 114.315 56.147ZM169.391 30.0009C153.602 30.0009 137.931 31.5315 122.186 32.3595C120.542 32.4459 118.903 32.5733 117.265 32.7314C116.173 32.8368 113.502 32.3942 112.787 33.3273C112.309 33.9497 112.719 34.0432 112.787 34.6347C112.871 35.3801 112.821 36.2633 112.799 37.0523C112.747 38.9535 112.691 40.8545 112.648 42.7558C112.485 49.9418 112.383 57.1265 112.674 64.3106C112.738 65.8774 113.309 68.0467 112.996 69.5692C112.77 70.6715 112.014 71.3423 113.758 71.5459C115.473 71.7465 117.571 71.2365 119.288 71.0732C121.015 70.9088 122.741 70.7305 124.47 70.5879C131.988 69.9685 139.578 70.0621 147.115 69.8562C154.72 69.6486 162.328 69.6352 169.935 69.6311C173.118 69.6293 176.755 69.8082 179.861 68.9322C180.954 68.6239 181.131 68.4721 180.861 67.3879C180.81 67.1822 180.48 67.1062 180.383 66.7344C180.252 66.2284 180.319 65.6133 180.288 65.0865C180.188 63.3661 180.153 61.6427 180.072 59.9212C179.936 57.0449 179.441 54.2535 179.074 51.4061C178.651 48.1178 178.672 44.779 178.664 41.4692C178.659 39.6333 178.706 37.8035 178.853 35.9727C178.948 34.7985 179.526 33.0454 179.233 31.9504C179.087 31.4051 178.848 30.9728 178.28 30.7381C177.921 30.5893 177.619 30.7058 177.263 30.6681C176.842 30.6234 176.579 30.5642 176.074 30.4498C173.91 29.9594 171.596 30.0009 169.391 30.0009Z" fill="#C4E2E6"/>
</svg>
