<svg width="200" height="200" viewBox="0 0 200 200" fill="none" xmlns="http://www.w3.org/2000/svg">
<rect width="200" height="200" fill="#F8FAFF"/>
<path d="M39.6794 74.4449L40.2772 79.3025C40.847 83.9317 39.2172 88.5608 35.8731 91.812C32.2156 95.3679 30.6302 100.547 31.6706 105.541L32.0888 107.548C33.6415 115.001 39.5707 120.761 47.0655 122.096L61.4645 124.662C64.4677 125.198 67.3074 126.417 69.7637 128.226L89.5976 142.831C96.0228 147.562 104.654 147.993 111.519 143.925L121.69 137.898C124.105 136.466 126.797 135.563 129.588 135.247L147.932 133.17C154.412 132.436 160.12 128.571 163.207 122.826C166.995 115.775 165.642 107.58 160.878 101.148C158.118 97.4222 156.263 93.4608 157.036 88.8251C157.195 87.8706 157.544 85.8838 158.209 83.7413C159.443 79.7635 160.895 75.6286 160.575 71.476C160.118 65.535 156.383 60.3459 150.895 58.0268L146.091 55.997C140.809 53.7651 134.82 53.9229 129.663 56.4299L117.466 62.3588C116.103 63.0213 114.669 63.5258 113.192 63.8625L101.212 66.5919C94.7531 68.0637 87.9851 66.2209 83.1636 61.6775L79.1947 57.9376C76.2838 55.1946 72.6131 53.3935 68.6623 52.7697L62.9026 51.8603C55.6508 50.7152 48.3582 53.6605 43.9355 59.5206L43.5422 60.0418C40.4343 64.1597 39.0492 69.3245 39.6794 74.4449Z" fill="white"/>
<g opacity="0.5">
<path fill-rule="evenodd" clip-rule="evenodd" d="M84.0514 101.518C84.0506 103.171 83.967 104.858 84.2717 106.492C84.3639 106.986 84.4367 107.934 84.9584 108.19C85.4825 108.448 85.9905 108.159 86.1207 107.621C86.2726 106.996 85.9395 106.061 85.9057 105.405C85.8594 104.508 85.8563 103.611 85.8559 102.714C85.8556 102.066 86.0689 101.023 85.3038 100.689C84.7349 100.441 84.0514 100.903 84.0514 101.518" fill="#C1DEE2"/>
<path fill-rule="evenodd" clip-rule="evenodd" d="M110.189 98.9019C104.711 99.4517 99.1547 99.566 93.6572 99.8528C91.116 99.9853 88.0448 99.8162 85.6507 100.8C85.2063 100.983 83.614 101.999 84.9067 102.413C85.3096 102.542 85.7189 102.108 86.0497 101.963C86.6007 101.721 87.2386 101.646 87.8262 101.552C92.8216 100.749 98.0466 100.889 103.093 100.514C104.387 100.418 105.68 100.319 106.971 100.192C107.893 100.102 109.831 99.437 110.681 99.7769C112.135 100.358 112.101 104.131 112.13 105.429C112.145 106.1 111.493 108.509 112.788 108.265C113.825 108.07 113.45 105.567 113.369 104.882C113.157 103.087 112.795 98.6378 110.189 98.9019" fill="#C1DEE2"/>
<path fill-rule="evenodd" clip-rule="evenodd" d="M112.209 108.178C107.451 108.608 102.583 108.186 97.8058 108.355C95.3016 108.444 92.7999 108.585 90.2953 108.668C89.2122 108.704 88.1279 108.705 87.0442 108.713C86.5258 108.716 84.1669 109.031 85.6262 110.058C86.2723 110.513 88.3314 110.147 89.0727 110.138C90.1863 110.125 91.2993 110.078 92.412 110.035C94.9896 109.934 97.5655 109.794 100.144 109.725C102.611 109.658 105.079 109.644 107.546 109.577C108.774 109.543 110.018 109.506 111.234 109.327C111.509 109.286 112.4 109.254 112.591 108.948C112.771 108.658 112.645 108.136 112.209 108.178" fill="#89C5CC"/>
<path fill-rule="evenodd" clip-rule="evenodd" d="M88.8238 104.606C88.7984 104.666 88.7984 104.666 88.8238 104.606ZM90.8843 103.979C90.9591 104.01 90.9591 104.01 90.8843 103.979ZM90.7886 103.963C91.8993 105.095 90.1913 106.446 89.151 105.341C88.0467 104.168 90.0737 103.966 90.7886 103.963M89.6105 102.249C85.7858 102.93 87.14 108.027 90.7121 107.291C92.2803 106.967 93.1772 105.387 92.6375 103.87C92.4265 103.277 91.967 102.626 91.3268 102.439C91.0076 102.346 90.7253 102.493 90.4212 102.458C90.1313 102.426 89.9704 102.184 89.6105 102.249" fill="#C1DEE2"/>
<path fill-rule="evenodd" clip-rule="evenodd" d="M104.248 103.687C101.942 103.694 99.6348 103.792 97.3289 103.836C96.6215 103.849 94.8036 103.533 94.8008 104.648C94.7977 105.839 96.8227 105.399 97.4966 105.383C99.784 105.329 102.077 105.229 104.355 105.011C104.931 104.956 106.923 105.051 106.921 104.268C106.919 103.439 104.713 103.687 104.248 103.687" fill="#C1DEE2"/>
<path fill-rule="evenodd" clip-rule="evenodd" d="M109.757 111.463C104.053 111.616 98.3571 111.669 92.6576 111.961C90.5257 112.07 88.3968 112.151 86.2618 112.151C85.8506 112.151 85.0227 111.992 84.6357 112.251C83.5855 112.953 84.7814 113.556 85.4659 113.594C90.148 113.854 94.8979 113.207 99.5774 113.061C102.317 112.976 105.057 112.951 107.795 112.811C108.542 112.773 109.289 112.729 110.034 112.671C110.463 112.638 111.597 112.729 111.944 112.478C113.457 111.383 110.267 111.449 109.757 111.463" fill="#89C5CC"/>
<path fill-rule="evenodd" clip-rule="evenodd" d="M83.5854 114.251C83.5317 115.73 83.5262 117.183 83.7196 118.653C83.7958 119.232 83.8307 119.889 84.5091 120.036C85.1251 120.169 85.4376 119.703 85.5652 119.187C85.8767 117.925 85.6026 116.109 85.5989 114.799C85.5973 114.151 85.5966 113.426 84.7959 113.279C84.185 113.167 83.6087 113.609 83.5854 114.251" fill="#89C5CC"/>
<path fill-rule="evenodd" clip-rule="evenodd" d="M115.803 117.819C106.569 118.305 97.3477 118.73 88.1076 119.121C87.387 119.151 81.789 119.09 83.746 121.042C84.3506 121.645 85.9079 121.237 86.6897 121.198C87.8645 121.141 89.0398 121.097 90.2145 121.037C94.8723 120.8 99.5421 120.736 104.196 120.47C106.758 120.323 109.313 120.094 111.861 119.796C113.073 119.654 114.577 119.669 115.712 119.194C116.296 118.949 116.927 117.759 115.803 117.819" fill="#89C5CC"/>
<path fill-rule="evenodd" clip-rule="evenodd" d="M110.494 110.312C109.791 111.012 110.152 112.391 110.205 113.256C110.278 114.445 110.367 115.636 110.515 116.819C110.612 117.587 110.561 118.783 110.971 119.447C111.451 120.224 112.508 120.138 112.942 119.387C113.326 118.723 113.131 117.325 113.121 116.589C113.108 115.572 113.044 114.552 112.984 113.536C112.933 112.687 113.126 111.327 112.659 110.6C112.184 109.862 111.152 109.658 110.494 110.312" fill="#89C5CC"/>
<path fill-rule="evenodd" clip-rule="evenodd" d="M89.3883 115.743C89.3064 115.806 89.3064 115.806 89.3883 115.743ZM91.0291 115.537C92.5597 115.845 90.0848 117.632 89.3026 116.405C89.1805 116.214 89.117 115.978 89.313 115.812C89.492 115.659 89.6045 115.929 89.7736 115.856C90.0648 115.732 90.7184 115.525 91.0291 115.537M90.8175 114.069C89.7728 114.152 88.3363 114.216 87.8191 115.264C87.1244 116.67 88.3126 118.048 89.687 118.262C91.0098 118.468 92.9847 117.735 93.0905 116.193C93.1759 114.949 91.9928 113.974 90.8175 114.069" fill="#89C5CC"/>
<path fill-rule="evenodd" clip-rule="evenodd" d="M99.54 114.811C98.4585 114.828 96.3326 114.508 95.3903 115.036C94.4579 115.557 94.8737 116.486 95.7243 116.708C96.2865 116.855 97.2054 116.618 97.7908 116.594C98.5607 116.563 99.3314 116.556 100.102 116.546C101.398 116.528 102.693 116.543 103.989 116.543C105.312 116.543 106.658 116.579 107.98 116.482C109.651 116.359 109.606 115.107 107.972 114.95C105.194 114.685 102.326 114.767 99.54 114.811" fill="#89C5CC"/>
<path fill-rule="evenodd" clip-rule="evenodd" d="M96.7773 128.831C96.7773 129.426 97.3052 128.831 97.3014 128.831C97.3052 128.831 96.7773 128.236 96.7773 128.831" fill="#89C5CC"/>
<path fill-rule="evenodd" clip-rule="evenodd" d="M84.8406 124.046C84.8746 125.775 84.8969 127.505 84.9708 129.233C84.9942 129.779 84.8377 130.845 85.4998 131.124C86.2367 131.434 86.4658 130.661 86.5508 130.138C86.8196 128.479 86.5561 126.585 86.5302 124.907C86.5215 124.344 86.6435 123.559 86.0034 123.278C85.4814 123.049 84.83 123.474 84.8406 124.046" fill="#89C5CC"/>
<path fill-rule="evenodd" clip-rule="evenodd" d="M113.27 124.073C113.313 124.175 113.313 124.175 113.27 124.073ZM113.331 124.055C113.367 124.07 113.509 124.13 113.331 124.055ZM99.3661 122.658C96.7121 122.699 94.0565 122.731 91.4042 122.844C90.2723 122.893 89.1273 122.932 87.9993 123.039C87.2003 123.114 85.2155 123.146 84.6973 123.799C83.6279 125.147 85.8956 124.779 86.3841 124.67C87.273 124.47 88.1803 124.406 89.0884 124.359C91.0589 124.255 93.0302 124.199 95.0031 124.159C100.353 124.052 105.707 124.068 111.058 124.044C111.576 124.042 112.513 123.833 112.991 124.043C113.471 124.253 113.444 124.769 113.493 125.369C113.56 126.167 113.033 127.687 113.434 128.358C114.056 129.399 114.961 128.515 115.099 127.756C115.29 126.708 114.987 125.448 114.691 124.446C114.273 123.032 113.692 122.976 112.324 122.865C110.726 122.736 109.134 122.658 107.531 122.643C104.81 122.618 102.087 122.615 99.3661 122.658" fill="#89C5CC"/>
<path fill-rule="evenodd" clip-rule="evenodd" d="M109.863 129.8C104.107 130.468 98.1865 130.074 92.3994 130.098C90.9922 130.104 89.5837 130.115 88.1778 130.183C87.4352 130.219 85.675 130.015 85.1663 130.587C84.0939 131.795 86.0256 131.971 86.7308 131.921C88.1566 131.819 89.5859 131.773 91.0153 131.762C96.0504 131.723 101.114 131.958 106.145 131.71C108.253 131.606 110.313 131.245 112.382 130.842C112.84 130.753 115.978 130.156 114.189 129.441C113.131 129.019 110.973 129.67 109.863 129.8" fill="#89C5CC"/>
<path fill-rule="evenodd" clip-rule="evenodd" d="M93.0556 127.593C93.0157 127.644 93.0157 127.644 93.0556 127.593ZM93.0171 127.584C93.0035 127.621 92.9614 127.712 93.0171 127.584ZM92.6545 127.117C92.6629 127.128 92.697 127.171 92.6545 127.117ZM92.6409 127.113C92.7795 127.278 92.8729 127.463 92.9209 127.667C91.728 127.99 91.2683 127.025 92.6409 127.113M92.5654 127.067C92.5658 127.067 92.7327 127.137 92.5654 127.067ZM90.6057 125.631C89.8339 126.592 89.1967 127.712 90.1591 128.81C91.0195 129.792 92.7507 129.918 93.8427 129.263C94.9676 128.588 94.8705 127.166 94.0858 126.238C93.5805 125.641 93.171 125.657 92.4379 125.56C91.9388 125.493 91.0293 125.105 90.6057 125.631" fill="#89C5CC"/>
<path fill-rule="evenodd" clip-rule="evenodd" d="M98.5847 127.409C98.5847 128.689 104.111 128.138 105.095 128.137C105.918 128.135 110.898 128.59 110.541 127.272C110.247 126.19 105.342 126.728 104.297 126.727C103.394 126.725 98.5847 126.105 98.5847 127.409" fill="#89C5CC"/>
</g>
<g opacity="0.5">
<path fill-rule="evenodd" clip-rule="evenodd" d="M69.8075 76.8202C69.8084 76.8818 69.8093 76.9396 69.8106 76.9928C69.8393 78.1545 69.8227 79.3758 69.7283 80.5348C69.6957 80.9349 69.4046 81.4421 69.0725 80.8905C68.9265 80.648 68.947 80.1499 68.962 79.7835C68.9661 79.6853 68.9697 79.5965 68.9697 79.5247C68.9693 79.1159 68.9908 78.7029 69.0124 78.2887C69.0545 77.4792 69.0968 76.6653 68.977 75.8702C68.9746 75.8541 68.9722 75.8386 68.97 75.8237C68.918 75.4741 68.9144 75.4499 68.5299 75.4579C68.3696 75.4612 68.2093 75.4655 68.049 75.4699C67.8914 75.4741 67.7337 75.4784 67.576 75.4817C67.4195 75.485 67.2629 75.488 67.1063 75.491C66.6153 75.5005 66.1243 75.5099 65.6335 75.5279C65.5516 75.5309 65.3988 75.5501 65.2059 75.5742C64.8203 75.6226 64.2747 75.691 63.8156 75.6906C63.8157 75.6926 63.8158 75.6946 63.816 75.6966C63.8162 75.7001 63.8165 75.7037 63.8166 75.7073C63.8218 75.9608 63.7565 76.2437 63.6909 76.528C63.636 76.766 63.5808 77.005 63.5667 77.2283C63.533 77.7598 63.5326 78.2969 63.5323 78.834C63.5318 79.4879 63.5314 80.1419 63.4708 80.7858C63.4678 80.8171 63.466 80.8503 63.4642 80.8839C63.464 80.888 63.4638 80.8921 63.4636 80.8963C63.4843 80.8931 63.5045 80.8909 63.5239 80.8897C63.8548 80.8687 64.1885 80.8668 64.5217 80.8649C64.7055 80.8639 64.8891 80.8629 65.072 80.8586C65.4004 80.851 65.7328 80.8514 66.0666 80.8517C66.8034 80.8525 67.5468 80.8533 68.2675 80.7684C68.4804 80.7409 68.5548 81.0139 68.4593 81.1555C68.3739 81.2822 68.1385 81.3027 67.9661 81.3177C67.9223 81.3215 67.8826 81.325 67.8504 81.3298C67.3855 81.3986 66.9145 81.4226 66.4455 81.4434C65.9529 81.4652 65.4599 81.4815 64.9669 81.4953C64.8496 81.4985 64.6931 81.5143 64.5195 81.5319C64.0611 81.5782 63.4841 81.6365 63.1976 81.5069C62.89 81.3678 62.897 81.2133 63.0223 81.0935C62.9675 80.9724 62.9589 80.7958 62.9521 80.6576C62.9495 80.6047 62.9472 80.5575 62.9427 80.5211C62.8744 79.9698 62.8332 79.4255 62.8322 78.8694C62.8303 77.7802 62.8325 76.6489 63.1338 75.5946C63.0131 75.5417 62.9403 75.4638 62.9406 75.3515C62.942 74.7859 64.7026 74.8147 65.5394 74.8283C65.6891 74.8308 65.8092 74.8328 65.8844 74.8308C66.4941 74.8148 67.1038 74.8128 67.7136 74.8161C67.8425 74.8167 67.9859 74.8083 68.1344 74.7996C68.4504 74.781 68.7899 74.7611 69.0628 74.8245C69.7799 74.9909 69.7971 76.1329 69.8075 76.8202Z" fill="#89C5CC"/>
<path fill-rule="evenodd" clip-rule="evenodd" d="M74.2923 74.9487C74.958 74.9135 75.6242 74.9054 76.2907 74.9029C76.9965 74.8994 77.7033 74.9121 78.4087 74.9338L78.425 74.9343C78.7376 74.9436 80.475 74.9958 79.6768 75.4288C79.6303 75.454 79.5779 75.4751 79.5207 75.4927C79.5544 75.693 79.5585 75.8998 79.5531 75.9994C79.5325 76.3775 79.5189 76.7561 79.5053 77.1346L79.5053 77.1347C79.4961 77.3912 79.4869 77.6478 79.4755 77.9042C79.4441 78.6127 79.4142 79.3211 79.3898 80.03C79.3868 80.117 79.3914 80.2308 79.3965 80.3576C79.4135 80.7769 79.4362 81.3388 79.2085 81.5465C79.0088 81.7287 78.8723 81.6924 78.7803 81.5688C78.2085 81.735 77.0337 81.6809 76.443 81.6538C76.3007 81.6472 76.1923 81.6423 76.1344 81.6423C76.0309 81.6423 75.8386 81.6552 75.5956 81.6716C74.5843 81.7395 72.6966 81.8663 72.6928 81.3677C72.6924 81.3199 72.7079 81.277 72.7371 81.2385C72.657 81.1568 72.585 81.0368 72.5387 80.8871C72.3725 80.3494 72.3569 79.7692 72.3445 79.2116C72.3271 78.4243 72.327 77.636 72.3268 76.848V76.848C72.3267 76.443 72.3266 76.0381 72.3241 75.6335C72.2163 75.4883 72.2805 75.3224 72.4153 75.2066C72.7025 74.9601 73.4153 74.9572 73.9309 74.955C74.0697 74.9544 74.1942 74.9539 74.2923 74.9487ZM73.2088 81.0196C73.8505 80.8826 74.9317 80.9267 75.5109 80.9503C75.6627 80.9565 75.7799 80.9613 75.8459 80.961C76.4375 80.9587 77.0293 80.9669 77.6204 80.9906C77.6817 80.993 77.7724 80.9907 77.8792 80.988C78.0939 80.9826 78.3738 80.9756 78.6115 81.0019C78.6083 80.9695 78.6061 80.9399 78.6048 80.9144C78.5782 80.3882 78.5974 79.8575 78.6166 79.3297V79.3297L78.6166 79.3296C78.6206 79.2174 78.6247 79.1054 78.6283 78.9936C78.641 78.5989 78.6578 78.2045 78.6747 77.8101L78.6747 77.81L78.6747 77.8099C78.6853 77.5616 78.6959 77.3133 78.7055 77.0649C78.7097 76.9559 78.7034 76.8079 78.6964 76.6413V76.6413C78.6821 76.3026 78.6645 75.8874 78.7251 75.5683C78.5063 75.5641 78.282 75.5486 78.0764 75.5344C77.8781 75.5207 77.6972 75.5082 77.5549 75.5082C77.3745 75.5081 77.1941 75.5076 77.0137 75.507H77.0137H77.0137C76.5138 75.5055 76.0141 75.504 75.5141 75.5139L75.3718 75.5166C74.6835 75.5299 73.9895 75.5433 73.3069 75.634C73.2668 75.6393 73.2187 75.6496 73.1654 75.6621C73.2403 75.9748 73.2036 76.4157 73.1715 76.8019L73.1715 76.8019C73.156 76.9894 73.1414 77.164 73.1413 77.3047C73.1403 78.1798 73.1634 79.0515 73.1865 79.9223L73.1865 79.9223L73.1865 79.9223C73.1952 80.2517 73.204 80.581 73.2114 80.9103C73.2123 80.9495 73.2113 80.9859 73.2088 81.0196Z" fill="#89C5CC"/>
<path fill-rule="evenodd" clip-rule="evenodd" d="M65.9059 81.47C65.4684 81.7256 65.7043 82.748 65.8559 83.1016C66.105 83.683 66.6106 84.1379 67.1561 84.4397C68.2588 85.0497 69.8482 84.8877 70.6821 85.9452C70.6907 85.9561 70.979 86.2415 71.0446 85.8719C71.0985 85.5686 70.5603 85.1055 70.3518 84.9534C69.7589 84.5212 68.9983 84.3818 68.3125 84.1658C67.581 83.9355 66.7783 83.5109 66.4716 82.7568C66.363 82.4897 66.57 81.0802 65.9059 81.47" fill="#C1DEE2"/>
<path fill-rule="evenodd" clip-rule="evenodd" d="M75.9074 81.9633C75.5064 82.0738 75.7716 82.6255 75.7709 82.9017C75.7702 83.2463 75.66 83.607 75.4476 83.882C74.909 84.5794 73.8544 84.6839 73.0638 84.8839C72.4897 85.0292 71.1161 85.3407 71.0623 86.1171C71.0023 86.9842 72.215 85.929 72.3174 85.8857C73.4508 85.47 74.9172 85.3897 75.792 84.4745C76.1531 84.0968 76.3666 83.5925 76.4005 83.0721C76.4196 82.7791 76.4229 81.8224 75.9074 81.9633" fill="#C1DEE2"/>
<path fill-rule="evenodd" clip-rule="evenodd" d="M67.6233 89.6539C67.6139 88.0497 69.1492 87.0793 70.5375 86.7142C72.2062 86.2746 73.7606 87.4438 73.9573 89.1258C74.1649 90.9008 72.8271 92.3298 71.0628 92.4081C69.5109 92.477 67.6332 91.3658 67.6233 89.6539ZM71.3509 87.4849C71.4411 87.6076 71.5225 87.8034 71.3407 87.9101C71.1658 88.012 71.0784 87.8894 70.9905 87.7661C70.935 87.6882 70.8792 87.6099 70.8009 87.5879C70.5981 87.5308 70.2721 87.7441 70.1031 87.8685C70.0345 87.919 69.9369 88.0277 69.8228 88.1548C69.4596 88.5593 68.9294 89.1499 68.6363 88.6417C67.4674 90.6602 70.3816 92.1707 72.0387 91.4069C73.8587 90.568 73.5044 87.5009 71.3509 87.4849Z" fill="#89C5CC"/>
<path fill-rule="evenodd" clip-rule="evenodd" d="M69.8235 89.1149C69.8235 89.4832 70.4051 89.4832 70.4051 89.1149C70.4051 88.7508 69.8235 88.7352 69.8235 89.1149" fill="#89C5CC"/>
<path fill-rule="evenodd" clip-rule="evenodd" d="M70.8466 89.0487C70.8466 89.4999 71.5594 89.4999 71.5594 89.0487C71.5594 88.6027 70.8466 88.5837 70.8466 89.0487" fill="#89C5CC"/>
<path fill-rule="evenodd" clip-rule="evenodd" d="M70.1144 90.0993C69.5314 90.4421 71.1984 91.1234 71.2642 90.4272C71.2926 90.1269 71.0017 90.2079 70.8078 90.1858C70.6223 90.1646 70.2904 89.9968 70.1144 90.0993" fill="#89C5CC"/>
<path fill-rule="evenodd" clip-rule="evenodd" d="M69.8617 92.5318C69.887 93.4073 69.8748 94.2824 70.0409 95.1458C70.0725 95.3097 70.0944 95.9045 70.224 96.0263C70.5428 96.326 70.548 95.7516 70.5604 95.5315C70.6046 94.7432 70.5219 93.9303 70.5036 93.1404C70.4997 92.9703 70.5447 92.6181 70.4644 92.4535C70.3371 92.1923 69.8493 92.1147 69.8617 92.5318" fill="#C1DEE2"/>
<path fill-rule="evenodd" clip-rule="evenodd" d="M69.2384 91.8198C67.9608 93.2537 66.2014 93.1481 64.429 93.2737C63.4925 93.3401 62.5456 93.4763 61.792 94.082C61.4415 94.3638 61.1393 94.7168 60.9363 95.119C60.8475 95.2949 60.4265 96.3095 61.0588 96.0688C61.2831 95.9834 61.5038 95.3124 61.6489 95.114C61.9251 94.7359 62.2786 94.4239 62.7026 94.221C63.5206 93.8298 64.4972 93.8364 65.3841 93.7868C66.3112 93.7349 67.3063 93.6864 68.1584 93.2833C68.5593 93.0936 68.9354 92.8571 69.258 92.5523C69.3733 92.4433 69.6205 92.2583 69.6389 92.0917C69.66 91.9012 69.477 91.5526 69.2384 91.8198" fill="#C1DEE2"/>
<path fill-rule="evenodd" clip-rule="evenodd" d="M62.7886 96.2211C61.5884 96.2612 60.3898 96.3097 59.1914 96.3856C58.9458 96.4012 58.1269 96.3516 58.3355 96.8548C58.5026 97.2582 59.5013 96.9914 59.8316 96.9718C61.0805 96.8977 62.3344 96.8719 63.5806 96.7596C63.8606 96.7344 65.1259 96.7444 64.6034 96.2483C64.3549 96.0121 63.132 96.2094 62.7886 96.2211" fill="#89C5CC"/>
<path fill-rule="evenodd" clip-rule="evenodd" d="M57.5734 96.802C57.1951 97.2988 57.3689 98.5063 57.3975 99.1036C57.4252 99.6824 57.3128 100.741 58.0683 100.83C57.8284 100.799 58.2504 100.845 58.3191 100.849C58.4725 100.857 58.6266 100.86 58.7802 100.861C59.135 100.865 59.4901 100.86 59.8448 100.853C60.6485 100.837 61.4543 100.814 62.2569 100.769C62.5943 100.751 64.4247 100.766 64.4972 100.416C64.5898 99.968 62.8348 100.221 62.5207 100.236C61.7556 100.271 60.9893 100.278 60.2235 100.288C59.844 100.293 59.4641 100.297 59.0845 100.289C58.9278 100.286 58.3072 100.351 58.2119 100.246C58.1307 100.157 58.1941 99.3388 58.1923 99.2137C58.1868 98.8056 58.1872 98.3966 58.2017 97.9887C58.2115 97.7141 58.36 97.1916 58.239 96.9337C58.1213 96.6829 57.7784 96.5973 57.5734 96.802" fill="#89C5CC"/>
<path fill-rule="evenodd" clip-rule="evenodd" d="M63.753 96.8221C63.7749 97.731 63.7817 98.6583 63.9964 99.5472C64.0678 99.843 64.1679 100.453 64.4651 100.606C64.777 100.767 65.0463 100.537 65.0667 100.228C65.0924 99.8399 64.8843 99.3298 64.8417 98.9311C64.7918 98.4659 64.7628 98.0003 64.7458 97.5329C64.7329 97.1813 64.8397 96.6543 64.5046 96.4276C64.2036 96.2239 63.7432 96.429 63.753 96.8221" fill="#89C5CC"/>
<path fill-rule="evenodd" clip-rule="evenodd" d="M66.1414 96.6036C65.7681 96.9754 65.9349 98.1526 65.9816 98.6303C66.0158 98.9802 66.3987 100.702 66.9726 99.8039C67.2264 99.4069 66.9039 98.357 66.9062 97.894C66.9077 97.5992 67.0121 97.2263 66.9617 96.943C66.8951 96.5687 66.4799 96.2655 66.1414 96.6036" fill="#89C5CC"/>
<path fill-rule="evenodd" clip-rule="evenodd" d="M68.7254 96.2959C69.8465 96.1803 70.969 96.0935 72.0963 96.0828C72.1504 96.0824 72.2073 96.0816 72.2664 96.0809C73.0391 96.0711 74.2002 96.0564 74.7201 96.6365C75.0034 96.9526 75.1317 97.4412 75.2436 97.8671C75.2644 97.9466 75.2847 98.0238 75.3053 98.0974C75.323 98.1602 75.3458 98.2319 75.3706 98.3094C75.4874 98.675 75.6454 99.1698 75.4852 99.4761C75.3973 99.6441 75.2559 99.7873 75.0412 99.7278C74.9922 99.7142 74.9535 99.6969 74.9231 99.6766C75.0042 99.7655 75.0397 99.8914 74.9867 100.015C74.8834 100.254 74.5573 100.259 74.3002 100.263C74.2379 100.264 74.1797 100.265 74.1297 100.27C73.2738 100.341 72.4139 100.388 71.5549 100.396C71.1459 100.4 70.7369 100.396 70.3279 100.393C69.9068 100.389 69.4858 100.386 69.0648 100.39C68.7593 100.393 68.4481 100.422 68.1368 100.451C67.7437 100.488 67.3505 100.525 66.9683 100.509C66.6823 100.497 66.3769 100.404 66.4494 100.034C66.5085 99.7323 66.7925 99.706 67.047 99.6824C67.0691 99.6803 67.0911 99.6783 67.1126 99.6761C67.9229 99.5936 68.7337 99.5644 69.5481 99.5673C71.2591 99.5733 72.9687 99.5644 74.6796 99.5555C74.7491 99.5612 74.8146 99.5875 74.8688 99.6276C74.8087 99.553 74.8099 99.4543 74.8111 99.3491C74.8117 99.3011 74.8123 99.2518 74.8071 99.2029C74.7966 99.1046 74.787 99.0067 74.7775 98.909C74.7459 98.586 74.7145 98.2653 74.6528 97.9404C74.6435 97.8914 74.6346 97.8374 74.6251 97.7803C74.5691 97.443 74.4949 96.9961 74.2267 96.814C73.957 96.6308 73.4282 96.6396 73.0161 96.6465C72.9049 96.6483 72.8021 96.65 72.7153 96.6478C71.6155 96.6194 70.5095 96.6975 69.4148 96.7971C69.3307 96.8047 69.2465 96.812 69.1622 96.8194C68.7457 96.8556 68.3271 96.8921 67.9166 96.9666C67.8415 96.9803 67.7267 97.0203 67.5951 97.0663C67.2449 97.1884 66.7754 97.3523 66.6158 97.1718C66.0872 96.574 68.41 96.3285 68.7254 96.2959Z" fill="#89C5CC"/>
<path fill-rule="evenodd" clip-rule="evenodd" d="M80.6536 94.9343C80.7028 94.9975 80.7028 94.9975 80.6536 94.9343ZM73.0667 91.2294C72.3858 91.6296 73.646 92.804 73.967 92.9856C74.6895 93.3943 75.6821 93.456 76.4888 93.5709C77.5097 93.7165 78.6208 93.77 79.6018 94.1046C80.02 94.2472 80.2856 94.4696 80.5593 94.8115C80.698 94.9847 81.032 95.7313 81.3361 95.5545C81.9485 95.1986 80.2984 93.7049 79.9348 93.5443C79.1083 93.1792 78.1313 93.0769 77.2476 92.9352C76.4259 92.8033 75.5865 92.7053 74.7851 92.4728C74.3444 92.345 74.0312 92.1388 73.7772 91.7442C73.6188 91.4983 73.489 90.9823 73.0667 91.2294" fill="#C1DEE2"/>
<path fill-rule="evenodd" clip-rule="evenodd" d="M83.5052 95.8179C82.7201 95.8353 81.9366 95.8957 81.1532 95.956C80.7137 95.9899 80.2743 96.0238 79.8347 96.0501C79.6972 96.0583 79.5596 96.0657 79.4219 96.0731C79.0346 96.094 78.6468 96.1149 78.2614 96.1538C78.2028 96.1597 78.135 96.1653 78.0611 96.1713C77.7335 96.1982 77.2868 96.2349 77.0015 96.3546C76.7401 96.1573 76.337 96.3254 76.3306 96.6777C76.3199 97.3199 76.3258 97.9505 76.4041 98.5887C76.4223 98.7369 76.5159 99.4871 76.7196 99.8775C76.6469 100.246 76.9613 100.35 77.254 100.378C78.387 100.487 79.5751 100.403 80.7472 100.319C81.3433 100.276 81.9353 100.234 82.5138 100.218C82.7062 100.212 82.901 100.21 83.0969 100.208C83.7365 100.201 84.3884 100.193 85.0076 100.072C85.0325 100.068 85.0592 100.063 85.0871 100.058C85.3319 100.014 85.6696 99.9533 85.6952 99.6839C85.7107 99.5223 85.6195 99.3743 85.467 99.3534C85.4776 99.2184 85.4607 99.0709 85.4482 98.9625C85.4453 98.9374 85.4426 98.9143 85.4406 98.894C85.4035 98.5193 85.3102 98.1471 85.218 97.7796L85.2179 97.7793C85.1972 97.6968 85.1766 97.6145 85.1567 97.5325C85.1346 97.4416 85.1141 97.3334 85.0921 97.2168C85.0142 96.8052 84.9164 96.288 84.6562 96.0478C84.3834 95.796 83.9392 95.8071 83.5833 95.816L83.5052 95.8179ZM84.8869 99.3936C84.7936 99.1499 84.7663 98.8198 84.7404 98.5062C84.7241 98.3096 84.7084 98.1194 84.6772 97.961C84.6538 97.8421 84.6347 97.7167 84.6152 97.5892L84.6152 97.5892C84.5679 97.2797 84.5187 96.958 84.4026 96.6867C84.247 96.3235 84.1085 96.3374 83.7809 96.3703C83.72 96.3764 83.6525 96.3831 83.5771 96.3882C83.2432 96.4109 82.9096 96.4398 82.5761 96.4687L82.5761 96.4687L82.576 96.4687C82.416 96.4825 82.256 96.4964 82.096 96.5095C81.4111 96.5658 80.7258 96.6091 80.0405 96.6524L80.0405 96.6524L80.0405 96.6524C79.6401 96.6777 79.2397 96.703 78.8393 96.7308C78.525 96.7527 78.2183 96.8124 77.9129 96.8719C77.6709 96.9191 77.4297 96.966 77.1862 96.9939C77.1827 97.0773 77.1757 97.1611 77.169 97.2408C77.1599 97.3492 77.1515 97.4502 77.1533 97.5329C77.1612 97.8996 77.1936 98.2641 77.226 98.6291L77.226 98.6291L77.2409 98.7976C77.2468 98.8649 77.2613 98.9514 77.2773 99.0474L77.2773 99.0474C77.3022 99.1959 77.3308 99.367 77.3372 99.5247C77.3668 99.5244 77.3963 99.5245 77.4253 99.5246C77.4628 99.5248 77.4996 99.5249 77.5349 99.5243C78.3978 99.5092 79.2601 99.483 80.1225 99.4499C80.2326 99.4457 80.3426 99.4414 80.4527 99.4371C81.2221 99.4072 81.9916 99.3772 82.7616 99.3684C83.0676 99.3649 83.3775 99.3745 83.6884 99.3841C84.0886 99.3965 84.4903 99.4089 84.8869 99.3936Z" fill="#89C5CC"/>
</g>
<path fill-rule="evenodd" clip-rule="evenodd" d="M101.012 84.8774C101.13 82.3391 101.293 79.8044 101.378 77.2646C101.421 76.006 101.454 74.7473 101.486 73.4885C101.493 73.2082 101.5 72.928 101.506 72.6477C101.527 71.6955 101.414 71.6176 102.373 71.533C106.648 71.1557 110.94 71.0306 115.22 70.6892C120.382 70.2774 125.571 69.9931 130.748 69.8657C133.048 69.8089 135.359 69.6914 137.659 69.7629C138.169 69.7788 139.17 69.6461 139.37 70.0424C139.457 70.2136 139.275 70.8027 139.252 71.0002C139.18 71.6173 139.113 72.2366 139.071 72.8567C138.826 76.5145 138.972 80.2644 139.681 83.8666C138.019 82.9297 135.92 82.1238 133.983 82.2838C132.009 82.4468 130.532 83.5875 128.952 84.6374C128.058 85.2312 127.757 85.3874 126.865 84.8121C126.097 84.3163 125.37 83.7495 124.645 83.1931C123.526 82.3345 122.47 81.4035 121.385 80.5034C119.39 78.8483 116.641 76.4926 113.886 77.1862C111.917 77.6817 110.099 78.7637 108.391 79.8226C105.852 81.3957 103.554 83.3222 101.012 84.8774M135.226 68.6373C125.418 68.6373 115.683 69.5881 105.902 70.1025C104.881 70.1561 103.863 70.2352 102.845 70.3335C102.167 70.399 100.508 70.124 100.063 70.7036C99.7666 71.0903 100.021 71.1484 100.063 71.5158C100.116 71.9788 100.085 72.5275 100.071 73.0176C100.038 74.1987 100.004 75.3795 99.9772 76.5607C99.876 81.0246 99.8127 85.4878 99.9934 89.9506C100.033 90.9239 100.387 92.2714 100.193 93.2172C100.053 93.9019 99.5834 94.3186 100.666 94.4451C101.732 94.5697 103.035 94.2529 104.102 94.1515C105.174 94.0493 106.247 93.9386 107.321 93.85C111.991 93.4652 116.706 93.5234 121.388 93.3955C126.112 93.2665 130.838 93.2582 135.564 93.2556C137.541 93.2545 139.801 93.3657 141.73 92.8215C142.409 92.63 142.519 92.5357 142.351 91.8622C142.319 91.7344 142.115 91.6872 142.054 91.4562C141.973 91.1419 142.015 90.7598 141.995 90.4325C141.933 89.3638 141.911 88.2932 141.861 87.2238C141.777 85.4371 141.469 83.703 141.241 81.9342C140.978 79.8915 140.992 77.8175 140.986 75.7614C140.983 74.6209 141.013 73.4843 141.104 72.347C141.163 71.6176 141.522 70.5285 141.34 69.8483C141.249 69.5096 141.101 69.241 140.748 69.0952C140.525 69.0028 140.337 69.0751 140.116 69.0517C139.854 69.024 139.691 68.9872 139.377 68.9161C138.033 68.6115 136.596 68.6373 135.226 68.6373" fill="#C4E2E6"/>
</svg>
