<svg width="414" height="347" viewBox="0 0 414 347" fill="none" xmlns="http://www.w3.org/2000/svg">
<mask id="mask0" mask-type="alpha" maskUnits="userSpaceOnUse" x="0" y="0" width="414" height="347">
<path d="M0 0H414V341.619C414 344.11 411.842 346.129 409.179 346.129H4.82096C2.15842 346.129 0 344.11 0 341.619V0Z" fill="#EE8282"/>
</mask>
<g mask="url(#mask0)">
<rect width="414" height="346.13" fill="#F7F7F7"/>
<path fill-rule="evenodd" clip-rule="evenodd" d="M384.141 108.967C383.856 108.76 383.182 108.687 382.868 108.625C381.564 108.368 380.22 108.256 378.89 108.256C374.789 108.262 370.622 108.664 366.59 109.361C364.029 109.803 360.934 111.292 358.387 110.483C353.95 109.075 349.466 109.144 345.256 111.155C341.407 112.993 338.485 116.485 336.78 120.258C336.523 120.827 335.479 122.924 335.184 124.337C335.058 124.626 334.936 124.917 334.827 125.212C334.516 126.05 334.238 126.903 333.979 127.758C333.869 128.122 333.591 128.927 333.921 129.083C333.393 130.057 332.926 131.06 332.536 132.096C331.404 135.108 330.165 138.413 329.767 141.606C329.62 142.788 329.614 143.977 329.751 145.162C329.819 145.747 329.791 146.924 330.188 147.37C331.03 148.314 331.463 146.992 331.368 146.362C330.642 141.561 332.043 137.053 333.702 132.541C334.776 129.623 336.539 126.953 338.514 124.535C340.113 122.579 341.828 121.037 344.019 119.74C346.699 118.153 349.564 116.871 352.402 115.584C354.269 114.737 356.139 113.914 358.058 113.184C358.485 113.022 359.156 112.606 359.629 112.604C360.63 112.601 362.048 113.339 363.014 113.614C366.193 114.517 369.413 115.675 372.698 116.136C374.806 116.433 376.78 116.099 378.751 115.397C378.952 115.325 379.29 115.141 379.703 114.878C381.167 114.315 382.551 113.606 383.756 112.585C384.451 111.996 385.081 111.235 385.655 110.538C385.827 110.33 385.903 110.091 385.906 109.864C386.036 109.796 386.122 109.717 386.142 109.624C386.285 108.939 384.978 108.926 384.141 108.967Z" fill="#89C5CC"/>
<path fill-rule="evenodd" clip-rule="evenodd" d="M51.0269 166.11C50.2224 166.762 49.4334 167.427 48.6636 168.119C48.0769 168.647 47.0387 169.279 46.8281 170.078C46.6091 170.909 47.3003 171.687 47.8463 172.189C50.7337 174.845 53.985 176.641 57.986 176.94C64.1466 177.4 69.508 175.827 74.8531 172.731C78.6078 170.557 81.0948 167.34 81.638 162.997C86.1095 164.856 90.4342 167.417 94.1093 170.561C95.9226 172.112 97.4844 173.831 98.929 175.736C99.8542 176.956 100.749 178.196 101.58 179.484C101.941 180.043 102.308 181.035 102.904 181.357C103.604 181.736 104.449 181.143 104.415 180.365C104.386 179.717 103.686 178.966 103.36 178.437C102.817 177.558 102.265 176.685 101.685 175.83C100.746 174.446 99.7753 173.081 98.7166 171.786C96.3376 168.876 93.3105 166.473 90.1726 164.423C84.1526 160.49 77.5459 158.013 70.2209 157.803C65.7169 157.674 61.928 159.212 58.0763 161.51C55.6783 162.941 53.2029 164.348 51.0269 166.11Z" fill="#DDE3E9"/>
<path fill-rule="evenodd" clip-rule="evenodd" d="M109.453 147.089C104.76 142.256 100.05 137.482 94.8058 133.226C91.7154 130.718 88.4584 128.437 85.2685 126.059C85.6368 126.381 85.9976 126.713 86.3499 127.053C85.3543 126.377 84.0508 125.995 82.9952 125.37C81.8178 124.672 80.6923 123.874 79.5883 123.069C77.4333 121.499 75.3108 119.899 73.0957 118.41C70.6277 116.752 68.07 115.22 65.5601 113.625C63.4299 112.27 61.2736 110.788 58.9948 109.681C57.7527 109.078 56.5078 108.363 55.2606 107.733C54.8432 107.523 50.608 104.848 50.6187 104.84C50.8528 104.664 52.984 105.665 53.3136 105.8C54.2764 106.193 55.1971 106.664 56.1228 107.133C55.6147 106.13 55.2125 105.078 54.9936 103.969C54.926 103.627 54.3841 101.137 54.6614 100.928C54.7999 100.823 56.1511 105.279 56.2203 105.708C56.2765 106.055 56.2683 106.557 56.3822 106.886C56.5661 107.418 56.5568 107.258 56.9619 107.557C57.7044 108.107 58.6901 108.45 59.4937 108.909C59.927 109.151 61.2687 110.111 62.0769 110.384C64.5221 111.572 67.0006 113.399 69.324 114.916C68.7142 113.77 68.2502 112.572 67.9118 111.316C67.8313 111.018 66.9629 108.343 67.1736 108.185C67.4107 108.006 69.0653 112.091 69.1633 112.477C69.3454 113.196 69.3831 113.995 69.6111 114.694C69.8613 115.461 70.642 115.733 71.3458 116.18C73.9349 117.825 76.435 119.573 78.8935 121.401C81.5761 116.63 78.483 110.869 75.8761 106.866C73.9972 103.981 71.4676 101.508 68.7966 99.3483C65.2321 96.4665 61.1538 94.1642 57.0805 92.0583C52.3343 89.6045 47.2044 88.0842 41.8713 87.3818C39.082 87.0144 36.2284 87.0247 33.4109 87.1425C32.0346 87.1999 30.7135 87.3823 29.3945 87.8311C28.8001 88.0337 28.2255 88.289 27.6656 88.5748C27.2402 88.792 26.2112 89.0212 25.9666 89.3448C23.9532 91.9653 22.9231 94.5767 23.0804 97.8696C23.2292 100.987 24.2137 104.106 25.5497 106.886C27.0377 109.982 28.9514 112.793 31.4541 115.151C33.3636 116.95 35.4984 118.517 37.6192 120.062C45.1621 125.559 54.7251 130.34 64.4944 129.112C67.6567 128.715 70.6645 127.609 73.4753 126.106C74.1376 125.752 74.796 125.393 75.4211 124.975C75.8427 124.694 76.9696 123.423 77.3935 123.377C77.9747 123.314 79.2267 124.496 79.7719 124.856C83.9154 127.591 87.9504 130.475 91.9009 133.475C96.1038 136.666 100.101 140.075 103.98 143.645C105.63 145.163 107.269 146.685 108.871 148.254C109.244 148.619 110.156 149.963 110.832 150.024C111.26 150.063 111.548 149.697 111.487 149.302C111.381 148.614 109.934 147.584 109.453 147.089Z" fill="#C1DEE2"/>
<path fill-rule="evenodd" clip-rule="evenodd" d="M379.214 128.329C377.396 127.932 375.389 127.962 373.537 127.995C363.605 128.13 353.851 132.833 347.504 140.346C342.1 146.743 340.614 154.695 339.547 162.734C339.441 163.532 339.396 164.326 339.336 165.125C339.323 165.297 339.304 165.45 339.283 165.594C338.863 165.97 338.643 166.407 338.892 166.888C337.967 168.912 337.185 170.987 336.513 173.128C334.537 179.428 332.527 185.848 333.766 192.473C334.055 188.827 334.663 185.099 335.391 181.513C335.433 181.307 335.478 181.103 335.525 180.9C335.53 180.878 335.534 180.857 335.539 180.835C335.797 179.737 336.132 178.672 336.539 177.624C336.543 177.612 336.547 177.601 336.552 177.59C336.605 177.452 336.663 177.314 336.719 177.177C336.836 176.893 336.955 176.609 337.082 176.327C337.125 176.231 337.167 176.134 337.206 176.036C337.799 174.583 338.049 172.946 338.581 171.443C338.708 171.101 338.84 170.76 338.98 170.422C338.988 170.402 338.996 170.382 339.004 170.362C339.381 169.451 339.796 168.55 340.236 167.659C340.474 167.48 340.602 167.034 340.808 166.63C340.851 166.55 341.183 166.018 341.283 165.712C341.541 165.211 341.799 164.711 342.06 164.211C342.052 164.214 342.044 164.217 342.036 164.22C342.297 163.74 342.559 163.262 342.818 162.786C342.875 162.682 342.933 162.577 342.99 162.472C343.084 162.305 343.177 162.139 343.27 161.972C344.14 160.415 345.062 158.889 346.02 157.383C346.362 156.845 347.179 156.074 347.336 155.47C347.341 155.448 347.343 155.427 347.346 155.405C349.425 152.486 351.818 149.793 354.688 147.659C354.341 148.034 353.604 149.306 353.409 149.558C352.812 150.33 352.164 151.048 351.514 151.775C350.35 153.077 349.213 154.42 348.203 155.841C346.356 158.439 344.762 161.173 343.256 163.962C343.242 163.978 343.226 163.994 343.213 164.01C342.455 164.944 341.979 166.354 341.434 167.422C343.591 166.423 345.976 165.772 348.189 164.885C350.397 164.001 352.544 163.016 354.617 161.859C357.373 160.323 360.231 158.587 362.834 156.624C365.818 154.773 368.325 152.226 370.538 149.553C373.156 146.39 375.556 143.199 377.04 139.359C377.769 137.472 378.342 135.504 378.682 133.514C378.697 133.427 378.716 133.333 378.737 133.235C379.085 132.548 379.396 131.845 379.657 131.125C380.071 129.985 381.05 128.73 379.214 128.329Z" fill="#69A1AC"/>
<path fill-rule="evenodd" clip-rule="evenodd" d="M33.4481 134.381C32.7277 133.663 31.9185 133.015 30.9685 132.552C30.7284 132.436 28.9393 131.653 28.8228 131.825C28.5513 132.225 33.2317 134.152 33.4481 134.381ZM41.9314 129.583C41.9255 129.613 42.5459 130.582 42.7147 130.88C43.0742 131.514 43.4061 132.16 43.7184 132.807C43.2561 131.664 42.7812 130.604 41.9314 129.583ZM-1.45087 137.473C-2.04832 137.65 -2.76665 136.951 -1.99169 136.779C-1.36464 136.641 -1.39539 136.609 -1.11383 136.144C-0.885202 135.766 -0.744349 135.305 -0.543721 134.909C-0.118161 134.068 0.364564 133.267 0.957104 132.516C2.22701 130.905 3.77428 129.518 5.50965 128.348C8.5382 126.308 11.9339 124.443 15.5361 123.506C21.2635 122.016 27.7822 121.924 33.5186 122.957C37.0713 123.596 40.3181 124.708 42.6771 127.343C43.8562 128.659 44.7817 130.201 45.1863 131.899C45.2919 132.343 45.2722 132.837 45.4044 133.271C45.6075 133.939 45.5179 133.761 46.3666 133.891C47.2933 134.033 48.2191 134.178 49.1448 134.326C51.5684 134.712 54.0062 135.121 56.3678 135.748C57.145 135.954 57.9052 136.206 58.6478 136.499C59.2094 136.72 61.4458 137.414 61.7175 138.086C62.1699 139.204 60.6542 138.697 60.1833 138.454C59.7707 138.24 59.3472 138.042 58.9175 137.858C57.8355 137.397 56.7082 137.041 55.5554 136.757C54.3097 136.45 53.0384 136.221 51.7721 135.992C50.5912 135.778 49.4059 135.583 48.219 135.398C47.5597 135.294 46.8998 135.194 46.2399 135.093C46.0144 135.059 45.6168 134.879 45.6469 135.149C44.2596 134.903 42.7592 134.939 41.346 134.871C39.6151 134.788 37.8778 134.719 36.1411 134.769C34.8885 134.805 33.6349 134.881 32.3887 135.036C31.6605 135.127 30.9439 135.259 30.2294 135.427C29.837 135.519 28.2894 135.714 28.0756 136.029C28.1675 135.894 29.8755 136.025 30.0928 136.018C30.9624 135.988 31.8251 135.908 32.6914 135.819C34.2991 135.654 35.9074 135.567 37.52 135.58C37.5138 135.841 36.4123 136.305 36.1434 136.478C35.5405 136.865 34.963 137.288 34.4243 137.751C33.4752 138.568 32.3389 139.579 31.6824 140.547C31.8759 140.262 32.8302 139.891 33.1689 139.673C33.7115 139.324 34.243 138.951 34.746 138.553C35.2103 138.186 35.6436 137.789 36.0696 137.383C36.4957 136.978 37.0739 136.134 37.6337 135.864C37.6675 135.848 37.9115 136.025 38.0501 135.965C38.1898 135.904 38.364 135.6 38.3994 135.587C38.9205 135.402 39.9102 135.633 40.4581 135.656C41.8788 135.716 43.2982 135.795 44.718 135.867C45.1578 135.889 45.5315 135.797 45.6977 136.096C45.8747 136.415 45.5503 137.252 45.4581 137.599C45.1157 138.888 44.5077 140.044 43.5507 141.042C41.7584 142.913 39.5483 144.16 37.0515 144.994C27.4883 148.188 17.3143 149.468 7.75404 146.145C3.79611 144.769 -2.16458 142.31 -1.45087 137.473Z" fill="#89C5CC"/>
<g opacity="0.6" clip-path="url(#clip0)">
<path fill-rule="evenodd" clip-rule="evenodd" d="M436.238 287.985C442.741 328.539 285.027 354.991 149.278 336.531C13.5288 318.071 -48.7464 245.982 16.0307 207.57C80.8078 169.158 429.735 247.431 436.238 287.985Z" fill="#DDE3E9"/>
<path fill-rule="evenodd" clip-rule="evenodd" d="M118.588 289.71C118.585 289.715 118.583 289.721 118.58 289.727C118.583 289.722 118.588 289.7 118.588 289.71Z" fill="#C5CFD6"/>
<path fill-rule="evenodd" clip-rule="evenodd" d="M118.583 289.718C118.583 289.719 118.582 289.721 118.582 289.723C118.582 289.718 118.591 289.702 118.583 289.718Z" fill="#C5CFD6"/>
<path fill-rule="evenodd" clip-rule="evenodd" d="M118.62 289.628C118.612 289.649 118.603 289.669 118.594 289.691C118.598 289.68 118.603 289.672 118.607 289.661C118.496 289.938 118.566 289.758 118.62 289.628Z" fill="#C5CFD6"/>
<path fill-rule="evenodd" clip-rule="evenodd" d="M118.596 289.692C118.591 289.702 118.587 289.712 118.583 289.722C118.552 289.782 118.596 289.692 118.596 289.692Z" fill="#C5CFD6"/>
<path fill-rule="evenodd" clip-rule="evenodd" d="M118.578 289.726C118.572 289.739 118.608 289.677 118.578 289.726V289.726Z" fill="#C5CFD6"/>
<path fill-rule="evenodd" clip-rule="evenodd" d="M118.583 289.718L118.585 289.716C118.584 289.717 118.584 289.718 118.583 289.718Z" fill="#C5CFD6"/>
<rect x="93" y="262" width="50.6371" height="33.5804" rx="2.13209" fill="#DDDFE0"/>
<path fill-rule="evenodd" clip-rule="evenodd" d="M112.188 271.594L97.2637 295.58H127.113L112.188 271.594Z" fill="#AFB9C5"/>
<path fill-rule="evenodd" clip-rule="evenodd" d="M126.846 277.991L113.787 295.58H139.905L126.846 277.991Z" fill="#C5CFD6"/>
<path fill-rule="evenodd" clip-rule="evenodd" d="M132.442 277.991C135.091 277.991 137.239 275.843 137.239 273.193C137.239 270.544 135.091 268.396 132.442 268.396C129.792 268.396 127.645 270.544 127.645 273.193C127.645 275.843 129.792 277.991 132.442 277.991Z" fill="white"/>
</g>
<g clip-path="url(#clip1)">
<rect x="89.793" y="45.3589" width="84.7506" height="160.973" rx="4.26418" fill="#F2F2F2"/>
<path fill-rule="evenodd" clip-rule="evenodd" d="M131.902 196.204C136.317 196.204 139.897 192.625 139.897 188.209C139.897 183.793 136.317 180.214 131.902 180.214C127.486 180.214 123.906 183.793 123.906 188.209C123.906 192.625 127.486 196.204 131.902 196.204Z" fill="white"/>
<path fill-rule="evenodd" clip-rule="evenodd" d="M124.972 56.0193C125.561 56.0193 126.038 55.542 126.038 54.9533C126.038 54.3645 125.561 53.8872 124.972 53.8872C124.384 53.8872 123.906 54.3645 123.906 54.9533C123.906 55.542 124.384 56.0193 124.972 56.0193Z" fill="white"/>
<rect x="128.703" y="53.8872" width="11.1935" height="2.13209" rx="1.06605" fill="white"/>
<g clip-path="url(#clip2)">
<g clip-path="url(#clip3)">
<rect x="97.2559" y="60.2834" width="69.826" height="28.7832" rx="2.13209" fill="white"/>
<g clip-path="url(#clip4)">
<rect x="118.043" y="68.9182" width="38.9106" height="4.31748" rx="1.59907" fill="#DDE3E9"/>
<rect x="118.043" y="76.114" width="26.1181" height="4.31748" rx="1.59907" fill="#DDE3E9"/>
</g>
<path fill-rule="evenodd" clip-rule="evenodd" d="M108.449 81.0713C111.982 81.0713 114.845 78.2076 114.845 74.6751C114.845 71.1425 111.982 68.2788 108.449 68.2788C104.916 68.2788 102.053 71.1425 102.053 74.6751C102.053 78.2076 104.916 81.0713 108.449 81.0713Z" fill="#C5CFD6"/>
</g>
<g clip-path="url(#clip5)">
<rect x="97.2559" y="93.3308" width="69.826" height="22.3869" rx="2.13209" fill="white"/>
<g clip-path="url(#clip6)">
<rect x="118.043" y="100.047" width="38.9106" height="3.35804" rx="1.59907" fill="#DDE3E9"/>
<rect x="118.043" y="105.644" width="26.1181" height="3.35804" rx="1.59907" fill="#DDE3E9"/>
</g>
<path fill-rule="evenodd" clip-rule="evenodd" d="M108.449 110.92C111.982 110.92 114.845 108.057 114.845 104.524C114.845 100.992 111.982 98.1279 108.449 98.1279C104.916 98.1279 102.053 100.992 102.053 104.524C102.053 108.057 104.916 110.92 108.449 110.92Z" fill="#C5CFD6"/>
</g>
<g clip-path="url(#clip7)">
<rect x="97.2559" y="119.982" width="69.826" height="22.3869" rx="2.13209" fill="white"/>
<g clip-path="url(#clip8)">
<rect x="118.043" y="126.698" width="38.9106" height="3.35804" rx="1.59907" fill="#DDE3E9"/>
<rect x="118.043" y="132.295" width="26.1181" height="3.35804" rx="1.59907" fill="#DDE3E9"/>
</g>
<path fill-rule="evenodd" clip-rule="evenodd" d="M108.449 137.572C111.982 137.572 114.845 134.708 114.845 131.176C114.845 127.643 111.982 124.779 108.449 124.779C104.916 124.779 102.053 127.643 102.053 131.176C102.053 134.708 104.916 137.572 108.449 137.572Z" fill="#AFB9C5"/>
</g>
<g clip-path="url(#clip9)">
<rect x="97.2559" y="146.633" width="69.826" height="22.3869" rx="2.13209" fill="white"/>
<g clip-path="url(#clip10)">
<rect x="118.043" y="153.349" width="38.9106" height="3.35804" rx="1.59907" fill="#DDE3E9"/>
<rect x="118.043" y="158.946" width="26.1181" height="3.35804" rx="1.59907" fill="#DDE3E9"/>
</g>
<path fill-rule="evenodd" clip-rule="evenodd" d="M108.449 164.223C111.982 164.223 114.845 161.359 114.845 157.827C114.845 154.294 111.982 151.43 108.449 151.43C104.916 151.43 102.053 154.294 102.053 157.827C102.053 161.359 104.916 164.223 108.449 164.223Z" fill="#C5CFD6"/>
</g>
</g>
</g>
<g clip-path="url(#clip11)">
<path fill-rule="evenodd" clip-rule="evenodd" d="M105.86 175.416C105.154 175.416 104.45 175.431 103.745 175.467C103.207 175.495 102.386 175.384 101.931 175.719C101.458 176.067 101.491 176.779 101.564 177.283C101.955 179.943 102.907 182.303 104.9 184.188C107.969 187.09 111.486 188.565 115.649 189.222C118.573 189.683 121.272 189.042 123.424 186.963C124.997 189.882 126.19 193.112 126.789 196.372C127.084 197.981 127.174 199.57 127.122 201.208C127.089 202.257 127.031 203.304 126.919 204.348C126.87 204.802 126.639 205.489 126.816 205.917C127.025 206.421 127.728 206.47 128.043 206.04C128.306 205.683 128.258 204.981 128.312 204.558C128.401 203.856 128.484 203.153 128.543 202.447C128.639 201.305 128.711 200.159 128.705 199.012C128.693 196.436 128.121 193.85 127.337 191.404C125.834 186.712 123.395 182.543 119.602 179.271C117.27 177.259 114.6 176.444 111.572 176.007C109.686 175.735 107.77 175.416 105.86 175.416Z" fill="#89C5CC"/>
<path fill-rule="evenodd" clip-rule="evenodd" d="M116.75 194.072C109.128 194.072 103.995 200.215 101.568 206.599C100.653 209.005 100.439 211.648 100.086 214.175C99.9729 214.986 100.015 216.221 99.6857 216.944C99.5662 217.206 99.2924 217.3 99.4233 217.657C99.5026 217.873 99.6581 218.005 99.8916 218.048C100.371 218.136 101.049 217.614 101.46 217.408C104.869 215.698 107.109 213.055 108.936 209.82C110.069 207.815 111.218 205.734 111.891 203.533C112.302 202.189 112.542 200.773 112.682 199.378C112.737 198.829 112.791 198.266 112.788 197.714C112.784 197.165 112.529 196.875 112.346 196.398C114.889 195.435 117.76 195.173 120.336 196.171C122.718 197.093 124.698 198.876 125.806 201.116C126.094 201.699 126.316 202.313 126.478 202.939C126.583 203.35 126.589 203.882 126.785 204.253C127.261 205.152 128.262 204.551 128.165 203.714C127.897 201.379 126.561 199.034 124.854 197.41C122.7 195.362 119.781 194.072 116.75 194.072Z" fill="#89C5CC"/>
<rect x="124.975" y="59.2175" width="84.7506" height="160.973" rx="4.26418" fill="#DDE3E9"/>
<path fill-rule="evenodd" clip-rule="evenodd" d="M167.083 210.063C171.499 210.063 175.079 206.483 175.079 202.068C175.079 197.652 171.499 194.072 167.083 194.072C162.668 194.072 159.088 197.652 159.088 202.068C159.088 206.483 162.668 210.063 167.083 210.063Z" fill="white"/>
<path fill-rule="evenodd" clip-rule="evenodd" d="M160.154 69.8779C160.743 69.8779 161.22 69.4007 161.22 68.8119C161.22 68.2231 160.743 67.7458 160.154 67.7458C159.565 67.7458 159.088 68.2231 159.088 68.8119C159.088 69.4007 159.565 69.8779 160.154 69.8779Z" fill="white"/>
<rect x="163.885" y="67.7458" width="11.1935" height="2.13209" rx="1.06605" fill="white"/>
<g clip-path="url(#clip12)">
<g clip-path="url(#clip13)">
<rect x="132.436" y="74.1423" width="69.826" height="28.7832" rx="2.13209" fill="white"/>
<g clip-path="url(#clip14)">
<rect x="137.232" y="82.7773" width="38.9106" height="4.31748" rx="1.59907" fill="#DDE3E9"/>
<rect x="137.232" y="89.9731" width="26.1181" height="4.31748" rx="1.59907" fill="#DDE3E9"/>
</g>
<path fill-rule="evenodd" clip-rule="evenodd" d="M194.8 92.265C196.86 92.265 198.531 90.5946 198.531 88.5339C198.531 86.4732 196.86 84.8027 194.8 84.8027C192.739 84.8027 191.068 86.4732 191.068 88.5339C191.068 90.5946 192.739 92.265 194.8 92.265Z" fill="#DDE3E9"/>
<path fill-rule="evenodd" clip-rule="evenodd" d="M194.8 90.1329C195.683 90.1329 196.399 89.417 196.399 88.5339C196.399 87.6507 195.683 86.9348 194.8 86.9348C193.917 86.9348 193.201 87.6507 193.201 88.5339C193.201 89.417 193.917 90.1329 194.8 90.1329Z" fill="#F2F2F2"/>
</g>
<g clip-path="url(#clip15)">
<rect x="132.436" y="107.19" width="69.826" height="22.3869" rx="2.13209" fill="white"/>
<g clip-path="url(#clip16)">
<rect x="153.225" y="113.906" width="38.9106" height="3.35804" rx="1.59907" fill="#DDE3E9"/>
<rect x="153.225" y="119.503" width="26.1181" height="3.35804" rx="1.59907" fill="#DDE3E9"/>
</g>
<path fill-rule="evenodd" clip-rule="evenodd" d="M143.629 124.779C147.161 124.779 150.025 121.916 150.025 118.383C150.025 114.851 147.161 111.987 143.629 111.987C140.096 111.987 137.232 114.851 137.232 118.383C137.232 121.916 140.096 124.779 143.629 124.779Z" fill="#C5CFD6"/>
</g>
<g clip-path="url(#clip17)">
<rect x="132.436" y="133.841" width="69.826" height="22.3869" rx="2.13209" fill="white"/>
<g clip-path="url(#clip18)">
<rect x="137.232" y="140.557" width="38.9106" height="3.35804" rx="1.59907" fill="#DDE3E9"/>
<rect x="137.232" y="146.154" width="26.1181" height="3.35804" rx="1.59907" fill="#AFB9C5"/>
</g>
<path fill-rule="evenodd" clip-rule="evenodd" d="M194.8 148.765C196.86 148.765 198.531 147.095 198.531 145.034C198.531 142.974 196.86 141.303 194.8 141.303C192.739 141.303 191.068 142.974 191.068 145.034C191.068 147.095 192.739 148.765 194.8 148.765Z" fill="#DDE3E9"/>
<path fill-rule="evenodd" clip-rule="evenodd" d="M194.8 146.633C195.683 146.633 196.399 145.917 196.399 145.034C196.399 144.151 195.683 143.435 194.8 143.435C193.917 143.435 193.201 144.151 193.201 145.034C193.201 145.917 193.917 146.633 194.8 146.633Z" fill="#F2F2F2"/>
</g>
<g clip-path="url(#clip19)">
<rect x="132.436" y="160.492" width="69.826" height="22.3869" rx="2.13209" fill="white"/>
<g clip-path="url(#clip20)">
<rect x="153.225" y="167.208" width="38.9106" height="3.35804" rx="1.59907" fill="#DDE3E9"/>
<rect x="153.225" y="172.805" width="26.1181" height="3.35804" rx="1.59907" fill="#DDE3E9"/>
</g>
<path fill-rule="evenodd" clip-rule="evenodd" d="M143.629 178.082C147.161 178.082 150.025 175.218 150.025 171.685C150.025 168.153 147.161 165.289 143.629 165.289C140.096 165.289 137.232 168.153 137.232 171.685C137.232 175.218 140.096 178.082 143.629 178.082Z" fill="#C5CFD6"/>
</g>
</g>
</g>
<g clip-path="url(#clip21)">
<rect x="160.152" y="72.543" width="178.563" height="184.426" rx="4.26418" fill="#F2F2F2"/>
<rect x="292.875" y="95.4629" width="37.3116" height="43.1748" rx="4.26418" fill="white"/>
<path fill-rule="evenodd" clip-rule="evenodd" d="M311.528 120.515C316.238 120.515 320.057 116.697 320.057 111.987C320.057 107.277 316.238 103.458 311.528 103.458C306.818 103.458 303 107.277 303 111.987C303 116.697 306.818 120.515 311.528 120.515Z" fill="#DDE3E9"/>
<rect x="298.203" y="122.647" width="26.6511" height="3.19813" rx="1.59907" fill="#DDE3E9"/>
<rect x="302.467" y="127.977" width="18.1228" height="3.19813" rx="1.59907" fill="#DDE3E9"/>
<path d="M160.152 76.8072C160.152 74.4521 162.061 72.543 164.417 72.543H334.451C336.806 72.543 338.715 74.4521 338.715 76.8071V86.9346H160.152V76.8072Z" fill="#C5CFD6"/>
<path fill-rule="evenodd" clip-rule="evenodd" d="M167.079 82.1375C168.257 82.1375 169.211 81.1829 169.211 80.0054C169.211 78.8279 168.257 77.8733 167.079 77.8733C165.902 77.8733 164.947 78.8279 164.947 80.0054C164.947 81.1829 165.902 82.1375 167.079 82.1375Z" fill="#F2F2F2"/>
<path fill-rule="evenodd" clip-rule="evenodd" d="M173.476 82.1375C174.653 82.1375 175.608 81.1829 175.608 80.0054C175.608 78.8279 174.653 77.8733 173.476 77.8733C172.298 77.8733 171.344 78.8279 171.344 80.0054C171.344 81.1829 172.298 82.1375 173.476 82.1375Z" fill="#F2F2F2"/>
<path fill-rule="evenodd" clip-rule="evenodd" d="M179.872 82.1375C181.05 82.1375 182.004 81.1829 182.004 80.0054C182.004 78.8279 181.05 77.8733 179.872 77.8733C178.695 77.8733 177.74 78.8279 177.74 80.0054C177.74 81.1829 178.695 82.1375 179.872 82.1375Z" fill="#F2F2F2"/>
<g clip-path="url(#clip22)">
<rect x="292.875" y="142.902" width="37.3116" height="103.406" rx="4.26418" fill="white"/>
<g clip-path="url(#clip23)">
<rect x="302.469" y="152.496" width="18.1228" height="13.8586" rx="2.13209" fill="#DDE3E9"/>
<rect x="302.469" y="170.619" width="18.1228" height="13.3256" rx="2.13209" fill="#AFB9C5"/>
<rect x="302.469" y="188.209" width="18.1228" height="13.3256" rx="2.13209" fill="#DDE3E9"/>
<rect x="302.469" y="223.388" width="18.1228" height="13.3256" rx="2.13209" fill="#DDE3E9"/>
<rect x="302.469" y="205.799" width="18.1228" height="13.3256" rx="2.13209" fill="#C5CFD6"/>
</g>
</g>
<g clip-path="url(#clip24)">
<g clip-path="url(#clip25)">
<rect x="168.68" y="95.9961" width="119.93" height="25.0521" rx="2.13209" fill="white"/>
<g clip-path="url(#clip26)">
<rect x="173.477" y="103.512" width="89.0148" height="3.75781" rx="1.59907" fill="#DDE3E9"/>
<rect x="173.477" y="109.775" width="59.7496" height="3.75781" rx="1.59907" fill="#DDE3E9"/>
</g>
<path fill-rule="evenodd" clip-rule="evenodd" d="M275.792 112.253C277.852 112.253 279.523 110.583 279.523 108.522C279.523 106.462 277.852 104.791 275.792 104.791C273.731 104.791 272.061 106.462 272.061 108.522C272.061 110.583 273.731 112.253 275.792 112.253Z" fill="#DDE3E9"/>
<path fill-rule="evenodd" clip-rule="evenodd" d="M275.79 110.121C276.674 110.121 277.39 109.405 277.39 108.522C277.39 107.639 276.674 106.923 275.79 106.923C274.907 106.923 274.191 107.639 274.191 108.522C274.191 109.405 274.907 110.121 275.79 110.121Z" fill="#F2F2F2"/>
</g>
<g clip-path="url(#clip27)">
<rect x="168.68" y="125.312" width="119.93" height="20.7879" rx="2.13209" fill="white"/>
<g clip-path="url(#clip28)">
<rect x="173.477" y="131.549" width="89.0148" height="3.11818" rx="1.55909" fill="#DDE3E9"/>
<rect x="173.477" y="136.746" width="59.7496" height="3.11818" rx="1.55909" fill="#DDE3E9"/>
</g>
<path fill-rule="evenodd" clip-rule="evenodd" d="M275.792 139.438C277.852 139.438 279.523 137.767 279.523 135.706C279.523 133.646 277.852 131.975 275.792 131.975C273.731 131.975 272.061 133.646 272.061 135.706C272.061 137.767 273.731 139.438 275.792 139.438Z" fill="#DDE3E9"/>
<path fill-rule="evenodd" clip-rule="evenodd" d="M275.79 137.305C276.674 137.305 277.39 136.589 277.39 135.706C277.39 134.823 276.674 134.107 275.79 134.107C274.907 134.107 274.191 134.823 274.191 135.706C274.191 136.589 274.907 137.305 275.79 137.305Z" fill="#F2F2F2"/>
</g>
<g clip-path="url(#clip29)">
<rect x="168.68" y="150.365" width="119.93" height="20.7879" rx="2.13209" fill="white"/>
<g clip-path="url(#clip30)">
<rect x="173.477" y="156.601" width="89.0148" height="3.11818" rx="1.55909" fill="#DDE3E9"/>
<rect x="173.477" y="161.798" width="59.7496" height="3.11818" rx="1.55909" fill="#DDE3E9"/>
</g>
<path fill-rule="evenodd" clip-rule="evenodd" d="M275.792 164.489C277.852 164.489 279.523 162.819 279.523 160.758C279.523 158.698 277.852 157.027 275.792 157.027C273.731 157.027 272.061 158.698 272.061 160.758C272.061 162.819 273.731 164.489 275.792 164.489Z" fill="#DDE3E9"/>
<path fill-rule="evenodd" clip-rule="evenodd" d="M275.79 162.357C276.674 162.357 277.39 161.642 277.39 160.758C277.39 159.875 276.674 159.159 275.79 159.159C274.907 159.159 274.191 159.875 274.191 160.758C274.191 161.642 274.907 162.357 275.79 162.357Z" fill="#AFB9C5"/>
</g>
<g clip-path="url(#clip31)">
<rect x="168.68" y="225.521" width="119.93" height="20.7879" rx="2.13209" fill="white"/>
<g clip-path="url(#clip32)">
<rect x="173.477" y="231.757" width="89.0148" height="3.11818" rx="1.55909" fill="#DDE3E9"/>
<rect x="173.477" y="236.954" width="59.7496" height="3.11818" rx="1.55909" fill="#DDE3E9"/>
</g>
<path fill-rule="evenodd" clip-rule="evenodd" d="M275.792 239.646C277.852 239.646 279.523 237.975 279.523 235.915C279.523 233.854 277.852 232.183 275.792 232.183C273.731 232.183 272.061 233.854 272.061 235.915C272.061 237.975 273.731 239.646 275.792 239.646Z" fill="#DDE3E9"/>
<path fill-rule="evenodd" clip-rule="evenodd" d="M275.79 237.514C276.674 237.514 277.39 236.798 277.39 235.914C277.39 235.031 276.674 234.315 275.79 234.315C274.907 234.315 274.191 235.031 274.191 235.914C274.191 236.798 274.907 237.514 275.79 237.514Z" fill="#F2F2F2"/>
</g>
<g clip-path="url(#clip33)">
<rect x="168.68" y="200.469" width="119.93" height="20.7879" rx="2.13209" fill="white"/>
<g clip-path="url(#clip34)">
<rect x="173.477" y="206.705" width="89.0148" height="3.11818" rx="1.55909" fill="#DDE3E9"/>
<rect x="173.477" y="211.902" width="59.7496" height="3.11818" rx="1.55909" fill="#DDE3E9"/>
</g>
<path fill-rule="evenodd" clip-rule="evenodd" d="M275.792 214.594C277.852 214.594 279.523 212.923 279.523 210.863C279.523 208.802 277.852 207.131 275.792 207.131C273.731 207.131 272.061 208.802 272.061 210.863C272.061 212.923 273.731 214.594 275.792 214.594Z" fill="#DDE3E9"/>
<path fill-rule="evenodd" clip-rule="evenodd" d="M275.79 212.461C276.674 212.461 277.39 211.746 277.39 210.862C277.39 209.979 276.674 209.263 275.79 209.263C274.907 209.263 274.191 209.979 274.191 210.862C274.191 211.746 274.907 212.461 275.79 212.461Z" fill="#F2F2F2"/>
</g>
<g clip-path="url(#clip35)">
<rect x="168.68" y="175.417" width="119.93" height="20.7879" rx="2.13209" fill="white"/>
<g clip-path="url(#clip36)">
<rect x="173.477" y="181.653" width="89.0148" height="3.11818" rx="1.55909" fill="#DDE3E9"/>
<rect x="173.477" y="186.85" width="59.7496" height="3.11818" rx="1.55909" fill="#DDE3E9"/>
</g>
<path fill-rule="evenodd" clip-rule="evenodd" d="M275.792 189.542C277.852 189.542 279.523 187.871 279.523 185.81C279.523 183.75 277.852 182.079 275.792 182.079C273.731 182.079 272.061 183.75 272.061 185.81C272.061 187.871 273.731 189.542 275.792 189.542Z" fill="#DDE3E9"/>
<path fill-rule="evenodd" clip-rule="evenodd" d="M275.79 187.41C276.674 187.41 277.39 186.694 277.39 185.81C277.39 184.927 276.674 184.211 275.79 184.211C274.907 184.211 274.191 184.927 274.191 185.81C274.191 186.694 274.907 187.41 275.79 187.41Z" fill="#F2F2F2"/>
</g>
</g>
</g>
<path fill-rule="evenodd" clip-rule="evenodd" d="M382.948 163.357C380.845 161.931 378.049 161.558 375.534 161.558C365.707 161.558 356.47 165.204 348.491 170.636C344.118 173.613 340.207 177.404 336.754 181.35C334.761 183.629 332.983 186.093 331.725 188.834C330.876 190.684 330.293 192.612 329.898 194.6C329.417 197.024 329.035 199.496 328.862 201.959C328.793 202.929 328.23 208.077 329.843 208.164C329.833 208.291 329.831 208.412 329.841 208.52C326.339 213.997 324.175 220.414 322.169 226.499C320.423 231.794 318.867 237.133 317.857 242.611C316.528 249.822 315.654 257.142 315.239 264.458C315.15 266.03 315.089 267.603 315.036 269.177C314.991 270.52 314.946 271.862 314.902 273.205C314.853 274.71 314.588 276.442 314.827 277.938C315.035 279.241 316.163 279.044 316.213 277.747C316.273 276.182 316.263 274.613 316.332 273.046C316.423 270.967 316.517 268.888 316.618 266.809C317.327 252.368 319.984 238.14 324.889 224.499C326.873 218.979 329.147 213.754 332.07 208.648C334.64 204.158 337.732 199.811 340.891 195.763C343.962 191.83 347.155 187.987 350.918 184.654C353.972 181.949 357.331 179.593 360.784 177.4C365.169 174.616 369.546 171.899 374.297 169.762C376.766 168.651 379.282 167.656 381.77 166.59C382.218 166.398 382.698 166.212 383.129 165.99C384.565 165.249 384.092 164.133 382.948 163.357Z" fill="#C1DEE2"/>
<path fill-rule="evenodd" clip-rule="evenodd" d="M343.415 213.794C347.401 213.794 350.947 214.312 354.62 215.896C357.79 217.263 360.678 219.073 363.483 221.043C367.428 223.814 370.536 227.039 372.711 231.312C374.01 233.865 374.964 237.477 374.091 240.261C373.063 243.541 370.24 246.276 366.523 245.698C364.224 245.341 362.116 243.819 360.369 242.387C358.279 240.673 356.606 238.613 355.224 236.325C352.971 232.592 351.646 228.373 349.732 224.472C348.823 222.621 347.945 220.757 346.857 218.997C346.319 218.126 345.745 217.263 344.928 216.616C344.491 216.27 342.648 215.67 343.353 214.893C333.017 215.028 323.861 222.966 321.877 232.791C321.692 233.707 321.547 234.63 321.395 235.552C321.299 236.134 321.337 238.279 320.817 238.651C319.67 239.471 320.152 236.98 320.202 236.621C320.329 235.695 320.465 234.768 320.607 233.844C321.382 228.815 323.62 224.141 327.354 220.555C331.623 216.454 337.383 213.794 343.415 213.794Z" fill="#89C5CC"/>
<path fill-rule="evenodd" clip-rule="evenodd" d="M3.94359 231.243C13.8932 247.935 25.4814 264.097 32.4406 282.347C32.1601 280.196 31.8628 278.047 31.5299 275.902C29.7642 264.527 27.5696 253.234 25.2635 241.956C24.089 236.214 22.8469 230.492 21.573 224.771C20.8878 221.698 20.2111 218.624 19.5118 215.554C19.3424 214.81 19.1969 213.511 18.9848 212.195C25.748 234.388 32.2699 256.598 37.0405 279.325C37.6664 282.308 38.1993 285.285 38.6359 288.257C38.7852 287.579 38.9321 286.901 39.0929 286.225C41.0231 278.119 43.9186 270.078 47.3662 262.499C49.0143 258.874 50.9074 255.329 53.1364 252.026C54.5263 249.967 57.8043 247.519 59.0722 245.41C52.1377 258.129 49.6338 274.042 45.6298 287.87C44.6525 291.244 43.6692 294.613 42.7056 297.988C48.7438 285.879 58.1122 275.929 71.1376 271.618C55.3709 282.035 45.9138 300.279 39.5411 318.938C39.5201 319.159 39.4951 319.38 39.4736 319.602C41.3488 316.043 43.711 312.824 46.9125 310.569C53.7645 305.743 61.3657 307.149 68.0124 311.289C62.7959 307.973 53.368 310.993 48.9787 314.363C45.8365 316.776 43.1511 320.012 40.8191 323.17C40.2604 323.927 39.498 324.81 38.6927 325.752C37.5635 333.082 35.7235 340.361 33.1184 347.583C33.5483 345.51 33.2374 342.195 33.3567 340.65C33.3696 340.483 33.3802 340.315 33.393 340.148C32.997 341.729 32.6144 343.293 32.2461 344.831C32.9783 341.896 33.3763 338.832 33.687 335.737C33.767 334.407 33.845 333.076 33.9275 331.746C33.9014 329.222 33.7974 326.687 33.6215 324.149C32.998 321.682 32.2998 319.355 31.724 317.42C29.6463 310.437 26.6004 303.747 22.8515 297.506C19.431 291.81 15.3367 286.652 10.6101 281.986C8.06198 279.472 5.39529 277.077 2.76615 274.649C1.81544 273.771 0.116145 271.613 -1.35352 270.488C9.34984 276.389 20.3665 282.773 28.1747 292.28C27.2592 288.765 26.265 285.3 25.2132 281.903C19.8774 264.673 13.1401 246.816 3.94359 231.243Z" fill="#DDE3E9"/>
<path fill-rule="evenodd" clip-rule="evenodd" d="M14.6367 325.729C14.6367 344.864 16.152 360.375 36.4906 360.375C56.8293 360.375 58.3446 344.864 58.3446 325.729" fill="#C5CFD6"/>
<rect x="293.408" y="49.623" width="3.19813" height="13.3256" rx="1.59907" fill="#DDE3E9"/>
<rect x="300.871" y="41.0947" width="3.19813" height="21.8539" rx="1.59907" fill="#DDE3E9"/>
<rect x="308.332" y="36.8306" width="3.19813" height="26.1181" rx="1.59907" fill="#DDE3E9"/>
<rect x="315.795" y="41.0947" width="3.19813" height="21.8539" rx="1.59907" fill="#DDE3E9"/>
<rect x="323.258" y="32.5664" width="3.19813" height="30.3823" rx="1.59907" fill="#C5CFD6"/>
<path fill-rule="evenodd" clip-rule="evenodd" d="M31.1599 195.808C31.1599 189.871 35.9581 185.011 41.8203 185.011V195.808L34.535 203.667C32.4626 201.745 31.1599 198.927 31.1599 195.808Z" fill="#F2F2F2"/>
<path fill-rule="evenodd" clip-rule="evenodd" d="M41.5391 195.671H52.3047C52.3047 198.454 51.1695 201.062 49.3748 202.957C47.401 205.029 44.5901 206.332 41.5391 206.332C38.7288 206.332 36.1563 205.208 34.1819 203.431L41.5391 195.671Z" fill="#AFB9C5"/>
<path fill-rule="evenodd" clip-rule="evenodd" d="M52.4824 195.671C52.4824 189.809 47.6842 185.011 41.822 185.011V195.671H52.4824ZM36.4904 185.011L40.7546 194.605L31.1602 190.341C32.109 187.854 34.2395 185.96 36.4904 185.011Z" fill="#C5CFD6"/>
<path fill-rule="evenodd" clip-rule="evenodd" d="M378.035 200.564C377.01 201.651 375.559 202.334 373.946 202.334C370.845 202.334 368.331 199.828 368.331 196.738C368.331 193.647 370.845 191.141 373.946 191.141V180.747C365.125 180.747 357.904 187.944 357.904 196.738C357.904 205.531 365.125 212.728 373.946 212.728C378.579 212.728 382.767 210.774 385.621 207.666L378.035 200.564Z" fill="#F2F2F2"/>
<path fill-rule="evenodd" clip-rule="evenodd" d="M373.895 180.747V191.141C376.986 191.141 379.491 193.647 379.491 196.738H389.885C389.885 187.944 382.688 180.747 373.895 180.747Z" fill="#AFB9C5"/>
<path fill-rule="evenodd" clip-rule="evenodd" d="M379.276 196.737C379.276 198.553 378.42 200.168 377.092 201.21L383.628 209.53C387.432 206.551 389.884 201.934 389.884 196.737H379.276Z" fill="#C5CFD6"/>
<path fill-rule="evenodd" clip-rule="evenodd" d="M276.379 53.6229C275.592 54.4566 274.475 54.98 273.234 54.98C270.849 54.98 268.915 53.059 268.915 50.6892C268.915 48.3194 270.849 46.3984 273.234 46.3984V38.4297C266.449 38.4297 260.895 43.9477 260.895 50.6892C260.895 57.4307 266.449 62.9487 273.234 62.9487C276.798 62.9487 280.02 61.4506 282.215 59.0674L276.379 53.6229Z" fill="#F2F2F2"/>
<path fill-rule="evenodd" clip-rule="evenodd" d="M273.154 38.4297V46.3984C275.524 46.3984 277.445 48.3194 277.445 50.6892H285.414C285.414 43.9477 279.896 38.4297 273.154 38.4297Z" fill="#AFB9C5"/>
<path fill-rule="evenodd" clip-rule="evenodd" d="M277.456 50.6892C277.456 52.0512 276.815 53.2619 275.818 54.0436L280.72 60.2836C283.574 58.0496 285.413 54.5867 285.413 50.6892H277.456Z" fill="#C5CFD6"/>
<path fill-rule="evenodd" clip-rule="evenodd" d="M336.578 290.542C336.581 290.548 336.583 290.553 336.586 290.559C336.583 290.554 336.578 290.533 336.578 290.542Z" fill="#C5CFD6"/>
<path fill-rule="evenodd" clip-rule="evenodd" d="M336.583 290.55C336.583 290.551 336.585 290.553 336.585 290.556C336.585 290.55 336.575 290.534 336.583 290.55Z" fill="#C5CFD6"/>
<path fill-rule="evenodd" clip-rule="evenodd" d="M336.546 290.46C336.554 290.481 336.563 290.502 336.572 290.523C336.568 290.512 336.563 290.504 336.559 290.493C336.67 290.77 336.6 290.59 336.546 290.46Z" fill="#C5CFD6"/>
<path fill-rule="evenodd" clip-rule="evenodd" d="M336.57 290.524C336.575 290.534 336.579 290.545 336.583 290.554C336.614 290.614 336.57 290.524 336.57 290.524Z" fill="#C5CFD6"/>
<path fill-rule="evenodd" clip-rule="evenodd" d="M336.588 290.558C336.594 290.571 336.558 290.509 336.588 290.558V290.558Z" fill="#C5CFD6"/>
<path fill-rule="evenodd" clip-rule="evenodd" d="M336.583 290.551L336.581 290.548C336.582 290.55 336.582 290.551 336.583 290.551Z" fill="#C5CFD6"/>
<rect width="75.6892" height="50.1041" rx="2.13209" transform="matrix(-1 0 0 1 374.428 249.506)" fill="#DDE3E9"/>
<path fill-rule="evenodd" clip-rule="evenodd" d="M346.324 263.898L368.207 299.611H324.441L346.324 263.898Z" fill="#AFB9C5"/>
<path fill-rule="evenodd" clip-rule="evenodd" d="M323.761 273.464L343.107 299.611H304.415L323.761 273.464Z" fill="#C5CFD6"/>
<path fill-rule="evenodd" clip-rule="evenodd" d="M315.529 273.493C311.555 273.493 308.333 270.271 308.333 266.297C308.333 262.323 311.555 259.101 315.529 259.101C319.503 259.101 322.725 262.323 322.725 266.297C322.725 270.271 319.503 273.493 315.529 273.493Z" fill="white"/>
</g>
<defs>
<clipPath id="clip0">
<rect width="446.321" height="145.271" fill="white" transform="translate(-9.70703 197.252)"/>
</clipPath>
<clipPath id="clip1">
<rect width="84.7506" height="160.973" fill="white" transform="translate(89.793 45.3589)"/>
</clipPath>
<clipPath id="clip2">
<rect width="69.826" height="108.737" fill="white" transform="translate(97.2559 60.2834)"/>
</clipPath>
<clipPath id="clip3">
<rect width="69.826" height="28.7832" fill="white" transform="translate(97.2559 60.2834)"/>
</clipPath>
<clipPath id="clip4">
<rect width="38.9106" height="11.5133" fill="white" transform="translate(118.043 68.9182)"/>
</clipPath>
<clipPath id="clip5">
<rect width="69.826" height="22.3869" fill="white" transform="translate(97.2559 93.3308)"/>
</clipPath>
<clipPath id="clip6">
<rect width="38.9106" height="8.95478" fill="white" transform="translate(118.043 100.047)"/>
</clipPath>
<clipPath id="clip7">
<rect width="69.826" height="22.3869" fill="white" transform="translate(97.2559 119.982)"/>
</clipPath>
<clipPath id="clip8">
<rect width="38.9106" height="8.95478" fill="white" transform="translate(118.043 126.698)"/>
</clipPath>
<clipPath id="clip9">
<rect width="69.826" height="22.3869" fill="white" transform="translate(97.2559 146.633)"/>
</clipPath>
<clipPath id="clip10">
<rect width="38.9106" height="8.95478" fill="white" transform="translate(118.043 153.349)"/>
</clipPath>
<clipPath id="clip11">
<rect width="110.336" height="160.973" fill="white" transform="translate(99.3887 59.2175)"/>
</clipPath>
<clipPath id="clip12">
<rect width="69.826" height="108.737" fill="white" transform="translate(132.436 74.1423)"/>
</clipPath>
<clipPath id="clip13">
<rect width="69.826" height="28.7832" fill="white" transform="translate(132.436 74.1423)"/>
</clipPath>
<clipPath id="clip14">
<rect width="38.9106" height="11.5133" fill="white" transform="translate(137.232 82.7773)"/>
</clipPath>
<clipPath id="clip15">
<rect width="69.826" height="22.3869" fill="white" transform="translate(132.436 107.19)"/>
</clipPath>
<clipPath id="clip16">
<rect width="38.9106" height="8.95478" fill="white" transform="translate(153.225 113.906)"/>
</clipPath>
<clipPath id="clip17">
<rect width="69.826" height="22.3869" fill="white" transform="translate(132.436 133.841)"/>
</clipPath>
<clipPath id="clip18">
<rect width="38.9106" height="8.95478" fill="white" transform="translate(137.232 140.557)"/>
</clipPath>
<clipPath id="clip19">
<rect width="69.826" height="22.3869" fill="white" transform="translate(132.436 160.492)"/>
</clipPath>
<clipPath id="clip20">
<rect width="38.9106" height="8.95478" fill="white" transform="translate(153.225 167.208)"/>
</clipPath>
<clipPath id="clip21">
<rect width="178.563" height="184.426" fill="white" transform="translate(160.152 72.543)"/>
</clipPath>
<clipPath id="clip22">
<rect width="37.3116" height="103.406" fill="white" transform="translate(292.875 142.902)"/>
</clipPath>
<clipPath id="clip23">
<rect width="18.1228" height="84.2176" fill="white" transform="translate(302.469 152.496)"/>
</clipPath>
<clipPath id="clip24">
<rect width="119.93" height="150.312" fill="white" transform="translate(168.68 95.9961)"/>
</clipPath>
<clipPath id="clip25">
<rect width="119.93" height="25.0521" fill="white" transform="translate(168.68 95.9961)"/>
</clipPath>
<clipPath id="clip26">
<rect width="89.0148" height="10.0208" fill="white" transform="translate(173.477 103.512)"/>
</clipPath>
<clipPath id="clip27">
<rect width="119.93" height="20.7879" fill="white" transform="translate(168.68 125.312)"/>
</clipPath>
<clipPath id="clip28">
<rect width="89.0148" height="8.31515" fill="white" transform="translate(173.477 131.549)"/>
</clipPath>
<clipPath id="clip29">
<rect width="119.93" height="20.7879" fill="white" transform="translate(168.68 150.365)"/>
</clipPath>
<clipPath id="clip30">
<rect width="89.0148" height="8.31515" fill="white" transform="translate(173.477 156.601)"/>
</clipPath>
<clipPath id="clip31">
<rect width="119.93" height="20.7879" fill="white" transform="translate(168.68 225.521)"/>
</clipPath>
<clipPath id="clip32">
<rect width="89.0148" height="8.31515" fill="white" transform="translate(173.477 231.757)"/>
</clipPath>
<clipPath id="clip33">
<rect width="119.93" height="20.7879" fill="white" transform="translate(168.68 200.469)"/>
</clipPath>
<clipPath id="clip34">
<rect width="89.0148" height="8.31515" fill="white" transform="translate(173.477 206.705)"/>
</clipPath>
<clipPath id="clip35">
<rect width="119.93" height="20.7879" fill="white" transform="translate(168.68 175.417)"/>
</clipPath>
<clipPath id="clip36">
<rect width="89.0148" height="8.31515" fill="white" transform="translate(173.477 181.653)"/>
</clipPath>
</defs>
</svg>
