<svg width="393" height="333" viewBox="0 0 393 333" fill="none" xmlns="http://www.w3.org/2000/svg">
<path fill-rule="evenodd" clip-rule="evenodd" d="M330.953 105.528C330.729 105.365 330.198 105.307 329.95 105.259C328.923 105.056 327.864 104.968 326.817 104.968C323.587 104.973 320.304 105.29 317.127 105.838C315.111 106.187 312.673 107.359 310.666 106.723C307.171 105.613 303.639 105.668 300.323 107.251C297.291 108.7 294.989 111.45 293.646 114.422C293.444 114.871 292.621 116.522 292.389 117.635C292.289 117.863 292.194 118.092 292.107 118.324C291.863 118.985 291.644 119.657 291.44 120.33C291.353 120.617 291.134 121.251 291.394 121.374C290.978 122.141 290.61 122.931 290.303 123.747C289.411 126.12 288.435 128.723 288.122 131.238C288.006 132.169 288.001 133.106 288.109 134.039C288.162 134.501 288.14 135.428 288.453 135.779C289.117 136.523 289.457 135.481 289.383 134.985C288.811 131.203 289.914 127.652 291.222 124.098C292.067 121.799 293.456 119.696 295.012 117.792C296.271 116.25 297.622 115.036 299.348 114.014C301.459 112.764 303.716 111.754 305.952 110.74C307.423 110.074 308.895 109.425 310.407 108.85C310.743 108.722 311.272 108.395 311.645 108.393C312.433 108.39 313.55 108.972 314.311 109.188C316.815 109.9 319.351 110.812 321.939 111.175C323.599 111.409 325.155 111.146 326.707 110.593C326.866 110.537 327.132 110.392 327.458 110.184C328.61 109.741 329.701 109.183 330.65 108.378C331.197 107.914 331.693 107.314 332.146 106.766C332.281 106.602 332.341 106.414 332.343 106.235C332.446 106.181 332.514 106.119 332.529 106.046C332.642 105.506 331.612 105.496 330.953 105.528Z" fill="#89C5CC"/>
<path fill-rule="evenodd" clip-rule="evenodd" d="M68.5532 150.54C67.9195 151.054 67.2979 151.578 66.6915 152.123C66.2294 152.539 65.4116 153.036 65.2457 153.666C65.0732 154.32 65.6177 154.933 66.0478 155.329C68.3222 157.421 70.8833 158.836 74.035 159.071C78.8878 159.434 83.1111 158.194 87.3215 155.756C90.2792 154.043 92.2383 151.509 92.6661 148.088C96.1884 149.552 99.5951 151.57 102.49 154.046C103.918 155.268 105.149 156.622 106.287 158.123C107.015 159.084 107.72 160.061 108.375 161.075C108.659 161.516 108.948 162.297 109.418 162.551C109.969 162.849 110.635 162.382 110.608 161.769C110.585 161.259 110.034 160.667 109.777 160.25C109.349 159.558 108.915 158.87 108.458 158.197C107.718 157.107 106.953 156.032 106.119 155.012C104.245 152.719 101.861 150.826 99.3889 149.211C94.6469 146.113 89.4426 144.162 83.6727 143.996C80.1248 143.895 77.1402 145.107 74.1061 146.917C72.2172 148.044 70.2673 149.152 68.5532 150.54Z" fill="#DDE3E9"/>
<path fill-rule="evenodd" clip-rule="evenodd" d="M114.576 135.559C110.879 131.751 107.169 127.991 103.038 124.638C100.604 122.663 98.0381 120.866 95.5255 118.993C95.8155 119.247 96.0998 119.508 96.3773 119.776C95.593 119.243 94.5663 118.942 93.7347 118.45C92.8072 117.9 91.9207 117.271 91.051 116.637C89.3535 115.4 87.6815 114.14 85.9367 112.968C83.9926 111.662 81.9779 110.455 80.0007 109.198C78.3227 108.131 76.6242 106.964 74.8291 106.092C73.8507 105.616 72.8701 105.053 71.8877 104.557C71.5589 104.391 68.2227 102.285 68.2311 102.278C68.4155 102.139 70.0943 102.928 70.3539 103.034C71.1124 103.344 71.8376 103.715 72.5668 104.084C72.1666 103.295 71.8498 102.465 71.6773 101.592C71.6241 101.323 71.1972 99.3609 71.4156 99.1964C71.5247 99.1142 72.5891 102.624 72.6436 102.961C72.6879 103.236 72.6814 103.63 72.7711 103.89C72.916 104.309 72.9087 104.182 73.2278 104.419C73.8127 104.851 74.5891 105.122 75.2221 105.484C75.5635 105.674 76.6204 106.43 77.257 106.645C79.1831 107.581 81.1355 109.02 82.9656 110.215C82.4853 109.312 82.1198 108.368 81.8532 107.379C81.7898 107.144 81.1058 105.038 81.2717 104.913C81.4585 104.772 82.7618 107.989 82.839 108.294C82.9825 108.86 83.0122 109.49 83.1918 110.04C83.3889 110.644 84.0039 110.859 84.5582 111.211C86.5977 112.507 88.5671 113.883 90.5037 115.323C92.6168 111.565 90.1804 107.027 88.1269 103.874C86.6468 101.601 84.6542 99.6531 82.5502 97.9522C79.7424 95.6821 76.5298 93.8685 73.3212 92.2097C69.5825 90.2768 65.5416 89.0792 61.3407 88.5259C59.1435 88.2365 56.8956 88.2446 54.6763 88.3374C53.5921 88.3827 52.5514 88.5263 51.5124 88.8798C51.0442 89.0394 50.5916 89.2405 50.1506 89.4656C49.8155 89.6367 49.0049 89.8173 48.8122 90.0722C47.2262 92.1364 46.4148 94.1934 46.5387 96.7874C46.6559 99.2429 47.4314 101.7 48.4838 103.89C49.6559 106.329 51.1634 108.542 53.1348 110.4C54.639 111.818 56.3206 113.051 57.9912 114.269C63.9328 118.599 71.4658 122.365 79.1613 121.398C81.6523 121.084 84.0216 120.213 86.2357 119.03C86.7574 118.751 87.276 118.468 87.7685 118.139C88.1006 117.917 88.9882 116.917 89.3221 116.88C89.7799 116.83 90.7661 117.762 91.1956 118.045C94.4596 120.2 97.638 122.471 100.75 124.834C104.061 127.348 107.209 130.034 110.265 132.845C111.564 134.041 112.856 135.24 114.118 136.476C114.411 136.763 115.13 137.822 115.663 137.87C116 137.901 116.227 137.613 116.179 137.301C116.095 136.759 114.955 135.948 114.576 135.559Z" fill="#C1DEE2"/>
<path fill-rule="evenodd" clip-rule="evenodd" d="M327.072 120.779C325.64 120.466 324.059 120.49 322.6 120.516C314.776 120.622 307.093 124.326 302.093 130.245C297.837 135.284 296.666 141.548 295.825 147.88C295.742 148.509 295.706 149.134 295.659 149.764C295.649 149.899 295.634 150.02 295.618 150.133C295.287 150.429 295.114 150.774 295.309 151.152C294.581 152.747 293.965 154.382 293.436 156.068C291.879 161.03 290.296 166.088 291.271 171.306C291.499 168.435 291.979 165.498 292.552 162.673C292.585 162.511 292.62 162.35 292.657 162.19C292.661 162.173 292.665 162.156 292.669 162.139C292.871 161.274 293.135 160.435 293.456 159.609C293.459 159.6 293.463 159.591 293.466 159.582C293.508 159.474 293.553 159.365 293.598 159.257C293.69 159.034 293.784 158.81 293.884 158.588C293.918 158.512 293.951 158.436 293.982 158.359C294.449 157.214 294.646 155.925 295.064 154.74C295.164 154.471 295.269 154.203 295.379 153.936C295.385 153.92 295.392 153.905 295.398 153.889C295.694 153.171 296.022 152.462 296.368 151.76C296.556 151.618 296.657 151.268 296.819 150.949C296.852 150.886 297.115 150.467 297.193 150.226C297.397 149.832 297.6 149.437 297.805 149.044C297.799 149.046 297.793 149.048 297.786 149.051C297.992 148.673 298.198 148.296 298.402 147.921C298.447 147.839 298.493 147.757 298.538 147.674C298.611 147.543 298.685 147.411 298.758 147.28C299.443 146.054 300.17 144.852 300.925 143.665C301.194 143.241 301.837 142.634 301.961 142.158C301.965 142.141 301.966 142.124 301.969 142.107C303.607 139.807 305.492 137.686 307.752 136.005C307.479 136.301 306.898 137.303 306.745 137.502C306.275 138.109 305.764 138.675 305.252 139.247C304.335 140.273 303.44 141.331 302.644 142.45C301.189 144.497 299.934 146.65 298.747 148.847C298.736 148.86 298.724 148.872 298.713 148.886C298.117 149.621 297.741 150.732 297.312 151.573C299.011 150.786 300.889 150.273 302.633 149.575C304.372 148.878 306.064 148.102 307.697 147.191C309.867 145.981 312.119 144.614 314.169 143.067C316.52 141.609 318.494 139.603 320.238 137.497C322.3 135.006 324.19 132.493 325.359 129.467C325.934 127.981 326.385 126.431 326.653 124.863C326.665 124.795 326.68 124.72 326.696 124.643C326.97 124.102 327.215 123.548 327.421 122.982C327.747 122.083 328.518 121.095 327.072 120.779Z" fill="#69A1AC"/>
<path fill-rule="evenodd" clip-rule="evenodd" d="M54.7058 125.547C54.1383 124.981 53.5009 124.471 52.7526 124.107C52.5634 124.015 51.1541 123.398 51.0623 123.534C50.8485 123.849 54.5353 125.367 54.7058 125.547ZM61.3882 121.767C61.3836 121.791 61.8723 122.554 62.0053 122.789C62.2884 123.288 62.5499 123.797 62.7958 124.307C62.4317 123.406 62.0576 122.571 61.3882 121.767ZM27.2152 127.982C26.7445 128.121 26.1787 127.571 26.7892 127.436C27.2831 127.327 27.2589 127.301 27.4807 126.935C27.6608 126.638 27.7717 126.275 27.9297 125.962C28.265 125.3 28.6452 124.669 29.112 124.077C30.1123 122.809 31.3311 121.715 32.6981 120.794C35.0837 119.187 37.7586 117.718 40.5961 116.98C45.1077 115.806 50.2426 115.734 54.7612 116.547C57.5598 117.051 60.1173 117.927 61.9756 120.002C62.9044 121.039 63.6335 122.254 63.9522 123.591C64.0353 123.941 64.0198 124.33 64.1239 124.672C64.2839 125.199 64.2133 125.058 64.8819 125.161C65.6118 125.273 66.3412 125.387 67.0703 125.503C68.9794 125.807 70.8997 126.13 72.76 126.623C73.3723 126.786 73.9711 126.984 74.556 127.215C74.9984 127.389 76.7601 127.936 76.9741 128.465C77.3304 129.346 76.1365 128.946 75.7655 128.755C75.4406 128.587 75.1069 128.43 74.7684 128.286C73.9161 127.922 73.0281 127.642 72.1201 127.418C71.1388 127.176 70.1374 126.996 69.1399 126.815C68.2097 126.647 67.276 126.494 66.341 126.347C65.8217 126.266 65.3019 126.187 64.782 126.108C64.6045 126.081 64.2913 125.939 64.315 126.152C63.2221 125.958 62.0403 125.986 60.9271 125.932C59.5636 125.867 58.1951 125.813 56.827 125.852C55.8404 125.881 54.8529 125.94 53.8712 126.062C53.2976 126.134 52.7331 126.238 52.1703 126.37C51.8612 126.443 50.6422 126.597 50.4737 126.845C50.5461 126.738 51.8915 126.842 52.0627 126.836C52.7477 126.812 53.4273 126.75 54.1097 126.679C55.376 126.549 56.643 126.481 57.9132 126.491C57.9084 126.696 57.0407 127.062 56.8289 127.198C56.3539 127.503 55.8991 127.836 55.4747 128.201C54.7271 128.845 53.832 129.641 53.3149 130.403C53.4673 130.179 54.219 129.886 54.4858 129.715C54.9133 129.44 55.3319 129.147 55.7281 128.833C56.0939 128.544 56.4352 128.231 56.7707 127.911C57.1064 127.592 57.5618 126.927 58.0028 126.715C58.0294 126.702 58.2216 126.842 58.3308 126.794C58.4409 126.746 58.578 126.507 58.606 126.497C59.0165 126.351 59.7961 126.532 60.2276 126.551C61.3468 126.598 62.4648 126.66 63.5832 126.717C63.9297 126.735 64.2241 126.662 64.355 126.897C64.4944 127.148 64.2389 127.808 64.1662 128.081C63.8966 129.097 63.4176 130.007 62.6637 130.794C61.2519 132.267 59.5109 133.249 57.5442 133.906C50.0111 136.423 41.9969 137.431 34.466 134.813C31.3483 133.729 26.653 131.792 27.2152 127.982Z" fill="#89C5CC"/>
<g opacity="0.6" clip-path="url(#clip0)">
<path fill-rule="evenodd" clip-rule="evenodd" d="M371.992 246.544C377.114 278.489 252.879 299.326 145.947 284.784C39.0154 270.243 -10.0399 213.457 40.9863 183.199C92.0124 152.941 366.869 214.599 371.992 246.544Z" fill="#DDE3E9"/>
<path fill-rule="evenodd" clip-rule="evenodd" d="M121.771 247.903C121.77 247.908 121.768 247.912 121.765 247.917C121.768 247.913 121.771 247.896 121.771 247.903Z" fill="#C5CFD6"/>
<path fill-rule="evenodd" clip-rule="evenodd" d="M121.767 247.91C121.767 247.911 121.767 247.912 121.767 247.914C121.767 247.91 121.774 247.897 121.767 247.91Z" fill="#C5CFD6"/>
<path fill-rule="evenodd" clip-rule="evenodd" d="M121.797 247.839C121.791 247.856 121.783 247.871 121.776 247.888C121.78 247.88 121.783 247.873 121.786 247.865C121.699 248.083 121.755 247.941 121.797 247.839Z" fill="#C5CFD6"/>
<path fill-rule="evenodd" clip-rule="evenodd" d="M121.778 247.889C121.774 247.897 121.771 247.905 121.768 247.913C121.743 247.96 121.778 247.889 121.778 247.889Z" fill="#C5CFD6"/>
<path fill-rule="evenodd" clip-rule="evenodd" d="M121.768 247.91C121.768 247.909 121.768 247.909 121.769 247.908C121.768 247.909 121.768 247.909 121.768 247.91Z" fill="#C5CFD6"/>
<path fill-rule="evenodd" clip-rule="evenodd" d="M121.764 247.916C121.759 247.926 121.787 247.877 121.764 247.916V247.916Z" fill="#C5CFD6"/>
<path fill-rule="evenodd" clip-rule="evenodd" d="M121.768 247.91L121.769 247.908C121.768 247.909 121.768 247.91 121.768 247.91Z" fill="#C5CFD6"/>
<rect x="101.616" y="226.075" width="39.8878" height="26.4519" rx="1.67949" fill="#DDDFE0"/>
<path fill-rule="evenodd" clip-rule="evenodd" d="M116.73 233.634L104.974 252.528H128.487L116.73 233.634Z" fill="#AFB9C5"/>
<path fill-rule="evenodd" clip-rule="evenodd" d="M128.276 238.673L117.99 252.529H138.563L128.276 238.673Z" fill="#C5CFD6"/>
<path fill-rule="evenodd" clip-rule="evenodd" d="M132.685 238.671C134.772 238.671 136.464 236.979 136.464 234.892C136.464 232.805 134.772 231.113 132.685 231.113C130.598 231.113 128.906 232.805 128.906 234.892C128.906 236.979 130.598 238.671 132.685 238.671Z" fill="white"/>
</g>
<g clip-path="url(#clip1)">
<rect x="99.0903" y="55.4229" width="66.7596" height="126.801" rx="3.35897" fill="#F2F2F2"/>
<path fill-rule="evenodd" clip-rule="evenodd" d="M132.26 174.247C135.739 174.247 138.558 171.427 138.558 167.948C138.558 164.47 135.739 161.65 132.26 161.65C128.782 161.65 125.962 164.47 125.962 167.948C125.962 171.427 128.782 174.247 132.26 174.247Z" fill="white"/>
<path fill-rule="evenodd" clip-rule="evenodd" d="M126.802 63.8206C127.266 63.8206 127.642 63.4446 127.642 62.9809C127.642 62.5171 127.266 62.1411 126.802 62.1411C126.338 62.1411 125.962 62.5171 125.962 62.9809C125.962 63.4446 126.338 63.8206 126.802 63.8206Z" fill="white"/>
<rect x="129.74" y="62.1401" width="8.81731" height="1.67949" rx="0.839744" fill="white"/>
<g clip-path="url(#clip2)">
<g clip-path="url(#clip3)">
<rect x="104.969" y="67.1797" width="55.0032" height="22.6731" rx="1.67949" fill="white"/>
<g clip-path="url(#clip4)">
<rect x="121.343" y="73.9814" width="30.6506" height="3.40096" rx="1.25962" fill="#DDE3E9"/>
<rect x="121.343" y="79.6489" width="20.5737" height="3.40096" rx="1.25962" fill="#DDE3E9"/>
</g>
<path fill-rule="evenodd" clip-rule="evenodd" d="M113.785 83.5535C116.567 83.5535 118.823 81.2977 118.823 78.515C118.823 75.7324 116.567 73.4766 113.785 73.4766C111.002 73.4766 108.746 75.7324 108.746 78.515C108.746 81.2977 111.002 83.5535 113.785 83.5535Z" fill="#C5CFD6"/>
</g>
<g clip-path="url(#clip5)">
<rect x="104.968" y="93.2109" width="55.0032" height="17.6346" rx="1.67949" fill="white"/>
<g clip-path="url(#clip6)">
<rect x="121.342" y="98.501" width="30.6506" height="2.64519" rx="1.25962" fill="#DDE3E9"/>
<rect x="121.342" y="102.91" width="20.5737" height="2.64519" rx="1.25962" fill="#DDE3E9"/>
</g>
<path fill-rule="evenodd" clip-rule="evenodd" d="M113.784 107.067C116.567 107.067 118.823 104.811 118.823 102.029C118.823 99.246 116.567 96.9902 113.784 96.9902C111.002 96.9902 108.746 99.246 108.746 102.029C108.746 104.811 111.002 107.067 113.784 107.067Z" fill="#C5CFD6"/>
</g>
<g clip-path="url(#clip7)">
<rect x="104.968" y="114.206" width="55.0032" height="17.6346" rx="1.67949" fill="white"/>
<g clip-path="url(#clip8)">
<rect x="121.342" y="119.496" width="30.6506" height="2.64519" rx="1.25962" fill="#DDE3E9"/>
<rect x="121.342" y="123.904" width="20.5737" height="2.64519" rx="1.25962" fill="#DDE3E9"/>
</g>
<path fill-rule="evenodd" clip-rule="evenodd" d="M113.784 128.061C116.567 128.061 118.823 125.806 118.823 123.023C118.823 120.24 116.567 117.984 113.784 117.984C111.002 117.984 108.746 120.24 108.746 123.023C108.746 125.806 111.002 128.061 113.784 128.061Z" fill="#AFB9C5"/>
</g>
<g clip-path="url(#clip9)">
<rect x="104.968" y="135.199" width="55.0032" height="17.6346" rx="1.67949" fill="white"/>
<g clip-path="url(#clip10)">
<rect x="121.342" y="140.489" width="30.6506" height="2.64519" rx="1.25962" fill="#DDE3E9"/>
<rect x="121.342" y="144.897" width="20.5737" height="2.64519" rx="1.25962" fill="#DDE3E9"/>
</g>
<path fill-rule="evenodd" clip-rule="evenodd" d="M113.784 149.055C116.567 149.055 118.823 146.8 118.823 144.017C118.823 141.234 116.567 138.979 113.784 138.979C111.002 138.979 108.746 141.234 108.746 144.017C108.746 146.8 111.002 149.055 113.784 149.055Z" fill="#C5CFD6"/>
</g>
</g>
</g>
<g clip-path="url(#clip11)">
<path fill-rule="evenodd" clip-rule="evenodd" d="M111.745 157.872C111.189 157.872 110.634 157.883 110.078 157.912C109.655 157.934 109.008 157.846 108.65 158.11C108.277 158.385 108.303 158.946 108.361 159.342C108.668 161.438 109.419 163.296 110.989 164.781C113.406 167.068 116.177 168.229 119.456 168.747C121.759 169.11 123.885 168.606 125.581 166.968C126.819 169.267 127.759 171.811 128.231 174.379C128.463 175.647 128.534 176.898 128.494 178.189C128.467 179.015 128.422 179.84 128.333 180.662C128.295 181.02 128.112 181.561 128.252 181.898C128.416 182.295 128.97 182.333 129.219 181.995C129.426 181.714 129.388 181.161 129.43 180.828C129.501 180.274 129.566 179.721 129.613 179.165C129.688 178.265 129.744 177.362 129.74 176.459C129.731 174.43 129.28 172.392 128.663 170.466C127.478 166.77 125.557 163.485 122.569 160.908C120.732 159.324 118.63 158.682 116.244 158.337C114.759 158.123 113.249 157.872 111.745 157.872Z" fill="#89C5CC"/>
<path fill-rule="evenodd" clip-rule="evenodd" d="M120.323 172.567C114.319 172.567 110.276 177.406 108.364 182.435C107.643 184.331 107.474 186.412 107.197 188.403C107.108 189.041 107.141 190.015 106.881 190.584C106.787 190.79 106.571 190.864 106.675 191.145C106.737 191.316 106.86 191.42 107.044 191.454C107.421 191.523 107.955 191.112 108.279 190.95C110.964 189.603 112.729 187.52 114.168 184.972C115.061 183.393 115.966 181.754 116.496 180.02C116.82 178.961 117.008 177.846 117.119 176.747C117.162 176.314 117.205 175.871 117.202 175.436C117.199 175.004 116.999 174.776 116.854 174.4C118.857 173.641 121.119 173.435 123.148 174.22C125.025 174.947 126.584 176.352 127.457 178.116C127.683 178.575 127.858 179.059 127.986 179.552C128.069 179.875 128.073 180.295 128.228 180.587C128.603 181.296 129.391 180.822 129.315 180.162C129.104 178.323 128.052 176.476 126.707 175.197C125.01 173.584 122.711 172.567 120.323 172.567Z" fill="#89C5CC"/>
<rect x="126.802" y="66.3394" width="66.7596" height="126.801" rx="3.35897" fill="#DDE3E9"/>
<path fill-rule="evenodd" clip-rule="evenodd" d="M159.972 185.163C163.45 185.163 166.27 182.343 166.27 178.864C166.27 175.386 163.45 172.566 159.972 172.566C156.493 172.566 153.674 175.386 153.674 178.864C153.674 182.343 156.493 185.163 159.972 185.163Z" fill="white"/>
<path fill-rule="evenodd" clip-rule="evenodd" d="M154.513 74.7361C154.977 74.7361 155.353 74.3602 155.353 73.8964C155.353 73.4326 154.977 73.0566 154.513 73.0566C154.05 73.0566 153.674 73.4326 153.674 73.8964C153.674 74.3602 154.05 74.7361 154.513 74.7361Z" fill="white"/>
<rect x="157.452" y="73.0566" width="8.81731" height="1.67949" rx="0.839744" fill="white"/>
<g clip-path="url(#clip12)">
<g clip-path="url(#clip13)">
<rect x="132.68" y="78.0957" width="55.0032" height="22.6731" rx="1.67949" fill="white"/>
<g clip-path="url(#clip14)">
<rect x="136.458" y="84.8975" width="30.6506" height="3.40096" rx="1.25962" fill="#DDE3E9"/>
<rect x="136.458" y="90.5654" width="20.5737" height="3.40096" rx="1.25962" fill="#DDE3E9"/>
</g>
<path fill-rule="evenodd" clip-rule="evenodd" d="M181.804 92.3723C183.428 92.3723 184.744 91.0565 184.744 89.4332C184.744 87.81 183.428 86.4941 181.804 86.4941C180.181 86.4941 178.865 87.81 178.865 89.4332C178.865 91.0565 180.181 92.3723 181.804 92.3723Z" fill="#DDE3E9"/>
<path fill-rule="evenodd" clip-rule="evenodd" d="M181.805 90.6921C182.501 90.6921 183.065 90.1281 183.065 89.4325C183.065 88.7368 182.501 88.1729 181.805 88.1729C181.11 88.1729 180.546 88.7368 180.546 89.4325C180.546 90.1281 181.11 90.6921 181.805 90.6921Z" fill="#F2F2F2"/>
</g>
<g clip-path="url(#clip15)">
<rect x="132.68" y="104.129" width="55.0032" height="17.6346" rx="1.67949" fill="white"/>
<g clip-path="url(#clip16)">
<rect x="149.056" y="109.419" width="30.6506" height="2.64519" rx="1.25962" fill="#DDE3E9"/>
<rect x="149.056" y="113.827" width="20.5737" height="2.64519" rx="1.25962" fill="#DDE3E9"/>
</g>
<path fill-rule="evenodd" clip-rule="evenodd" d="M141.497 117.985C144.279 117.985 146.535 115.729 146.535 112.947C146.535 110.164 144.279 107.908 141.497 107.908C138.714 107.908 136.458 110.164 136.458 112.947C136.458 115.729 138.714 117.985 141.497 117.985Z" fill="#C5CFD6"/>
</g>
<g clip-path="url(#clip17)">
<rect x="132.68" y="125.122" width="55.0032" height="17.6346" rx="1.67949" fill="white"/>
<g clip-path="url(#clip18)">
<rect x="136.458" y="130.412" width="30.6506" height="2.64519" rx="1.25962" fill="#DDE3E9"/>
<rect x="136.458" y="134.82" width="20.5737" height="2.64519" rx="1.25962" fill="#AFB9C5"/>
</g>
<path fill-rule="evenodd" clip-rule="evenodd" d="M181.805 136.878C183.428 136.878 184.744 135.562 184.744 133.939C184.744 132.316 183.428 131 181.805 131C180.182 131 178.866 132.316 178.866 133.939C178.866 135.562 180.182 136.878 181.805 136.878Z" fill="#DDE3E9"/>
<path fill-rule="evenodd" clip-rule="evenodd" d="M181.806 135.199C182.502 135.199 183.065 134.635 183.065 133.939C183.065 133.244 182.502 132.68 181.806 132.68C181.11 132.68 180.546 133.244 180.546 133.939C180.546 134.635 181.11 135.199 181.806 135.199Z" fill="#F2F2F2"/>
</g>
<g clip-path="url(#clip19)">
<rect x="132.68" y="146.115" width="55.0032" height="17.6346" rx="1.67949" fill="white"/>
<g clip-path="url(#clip20)">
<rect x="149.056" y="151.405" width="30.6506" height="2.64519" rx="1.25962" fill="#DDE3E9"/>
<rect x="149.056" y="155.813" width="20.5737" height="2.64519" rx="1.25962" fill="#DDE3E9"/>
</g>
<path fill-rule="evenodd" clip-rule="evenodd" d="M141.497 159.97C144.279 159.97 146.535 157.715 146.535 154.932C146.535 152.149 144.279 149.894 141.497 149.894C138.714 149.894 136.458 152.149 136.458 154.932C136.458 157.715 138.714 159.97 141.497 159.97Z" fill="#C5CFD6"/>
</g>
</g>
</g>
<g clip-path="url(#clip21)">
<rect x="154.514" y="76.8364" width="140.657" height="145.276" rx="3.35897" fill="#F2F2F2"/>
<rect x="259.061" y="94.8906" width="29.391" height="34.0096" rx="3.35897" fill="white"/>
<path fill-rule="evenodd" clip-rule="evenodd" d="M273.757 114.625C277.467 114.625 280.475 111.618 280.475 107.907C280.475 104.197 277.467 101.189 273.757 101.189C270.047 101.189 267.039 104.197 267.039 107.907C267.039 111.618 270.047 114.625 273.757 114.625Z" fill="#DDE3E9"/>
<rect x="263.26" y="116.306" width="20.9936" height="2.51923" rx="1.25962" fill="#DDE3E9"/>
<rect x="266.618" y="120.503" width="14.2756" height="2.51923" rx="1.25962" fill="#DDE3E9"/>
<path d="M154.514 80.1954C154.514 78.3403 156.018 76.8364 157.873 76.8364H291.812C293.667 76.8364 295.171 78.3403 295.171 80.1954V88.173H154.514V80.1954Z" fill="#C5CFD6"/>
<path fill-rule="evenodd" clip-rule="evenodd" d="M159.971 84.3941C160.898 84.3941 161.65 83.6422 161.65 82.7146C161.65 81.7871 160.898 81.0352 159.971 81.0352C159.043 81.0352 158.291 81.7871 158.291 82.7146C158.291 83.6422 159.043 84.3941 159.971 84.3941Z" fill="#F2F2F2"/>
<path fill-rule="evenodd" clip-rule="evenodd" d="M165.009 84.3936C165.937 84.3936 166.689 83.6417 166.689 82.7142C166.689 81.7866 165.937 81.0347 165.009 81.0347C164.082 81.0347 163.33 81.7866 163.33 82.7142C163.33 83.6417 164.082 84.3936 165.009 84.3936Z" fill="#F2F2F2"/>
<path fill-rule="evenodd" clip-rule="evenodd" d="M170.049 84.3936C170.976 84.3936 171.728 83.6417 171.728 82.7142C171.728 81.7866 170.976 81.0347 170.049 81.0347C169.121 81.0347 168.369 81.7866 168.369 82.7142C168.369 83.6417 169.121 84.3936 170.049 84.3936Z" fill="#F2F2F2"/>
<g clip-path="url(#clip22)">
<rect x="259.061" y="132.259" width="29.391" height="81.4551" rx="3.35897" fill="white"/>
<g clip-path="url(#clip23)">
<rect x="266.618" y="139.816" width="14.2756" height="10.9167" rx="1.67949" fill="#DDE3E9"/>
<rect x="266.618" y="154.093" width="14.2756" height="10.4968" rx="1.67949" fill="#AFB9C5"/>
<rect x="266.618" y="167.948" width="14.2756" height="10.4968" rx="1.67949" fill="#DDE3E9"/>
<rect x="266.618" y="195.659" width="14.2756" height="10.4968" rx="1.67949" fill="#DDE3E9"/>
<rect x="266.618" y="181.805" width="14.2756" height="10.4968" rx="1.67949" fill="#C5CFD6"/>
</g>
</g>
<g clip-path="url(#clip24)">
<g clip-path="url(#clip25)">
<rect x="161.231" y="95.3115" width="94.4711" height="19.734" rx="1.67949" fill="white"/>
<g clip-path="url(#clip26)">
<rect x="165.009" y="101.231" width="70.1186" height="2.9601" rx="1.25962" fill="#DDE3E9"/>
<rect x="165.009" y="106.166" width="47.0659" height="2.9601" rx="1.25962" fill="#DDE3E9"/>
</g>
<path fill-rule="evenodd" clip-rule="evenodd" d="M245.606 108.117C247.229 108.117 248.545 106.802 248.545 105.178C248.545 103.555 247.229 102.239 245.606 102.239C243.982 102.239 242.667 103.555 242.667 105.178C242.667 106.802 243.982 108.117 245.606 108.117Z" fill="#DDE3E9"/>
<path fill-rule="evenodd" clip-rule="evenodd" d="M245.605 106.438C246.301 106.438 246.865 105.874 246.865 105.179C246.865 104.483 246.301 103.919 245.605 103.919C244.909 103.919 244.345 104.483 244.345 105.179C244.345 105.874 244.909 106.438 245.605 106.438Z" fill="#F2F2F2"/>
</g>
<g clip-path="url(#clip27)">
<rect x="161.231" y="118.404" width="94.4711" height="16.375" rx="1.67949" fill="white"/>
<g clip-path="url(#clip28)">
<rect x="165.01" y="123.316" width="70.1186" height="2.45625" rx="1.22812" fill="#DDE3E9"/>
<rect x="165.009" y="127.41" width="47.0659" height="2.45625" rx="1.22812" fill="#DDE3E9"/>
</g>
<path fill-rule="evenodd" clip-rule="evenodd" d="M245.606 129.533C247.229 129.533 248.545 128.217 248.545 126.593C248.545 124.97 247.229 123.654 245.606 123.654C243.983 123.654 242.667 124.97 242.667 126.593C242.667 128.217 243.983 129.533 245.606 129.533Z" fill="#DDE3E9"/>
<path fill-rule="evenodd" clip-rule="evenodd" d="M245.605 127.851C246.301 127.851 246.865 127.287 246.865 126.592C246.865 125.896 246.301 125.332 245.605 125.332C244.91 125.332 244.346 125.896 244.346 126.592C244.346 127.287 244.91 127.851 245.605 127.851Z" fill="#F2F2F2"/>
</g>
<g clip-path="url(#clip29)">
<rect x="161.231" y="138.139" width="94.4711" height="16.375" rx="1.67949" fill="white"/>
<g clip-path="url(#clip30)">
<rect x="165.01" y="143.05" width="70.1186" height="2.45625" rx="1.22812" fill="#DDE3E9"/>
<rect x="165.009" y="147.144" width="47.0659" height="2.45625" rx="1.22812" fill="#DDE3E9"/>
</g>
<path fill-rule="evenodd" clip-rule="evenodd" d="M245.606 149.264C247.229 149.264 248.545 147.948 248.545 146.325C248.545 144.702 247.229 143.386 245.606 143.386C243.983 143.386 242.667 144.702 242.667 146.325C242.667 147.948 243.983 149.264 245.606 149.264Z" fill="#DDE3E9"/>
<path fill-rule="evenodd" clip-rule="evenodd" d="M245.605 147.585C246.301 147.585 246.865 147.021 246.865 146.325C246.865 145.629 246.301 145.065 245.605 145.065C244.91 145.065 244.346 145.629 244.346 146.325C244.346 147.021 244.91 147.585 245.605 147.585Z" fill="#AFB9C5"/>
</g>
<g clip-path="url(#clip31)">
<rect x="161.231" y="197.34" width="94.4711" height="16.375" rx="1.67949" fill="white"/>
<g clip-path="url(#clip32)">
<rect x="165.01" y="202.252" width="70.1186" height="2.45625" rx="1.22812" fill="#DDE3E9"/>
<rect x="165.009" y="206.347" width="47.0659" height="2.45625" rx="1.22812" fill="#DDE3E9"/>
</g>
<path fill-rule="evenodd" clip-rule="evenodd" d="M245.606 208.466C247.229 208.466 248.545 207.15 248.545 205.527C248.545 203.904 247.229 202.588 245.606 202.588C243.983 202.588 242.667 203.904 242.667 205.527C242.667 207.15 243.983 208.466 245.606 208.466Z" fill="#DDE3E9"/>
<path fill-rule="evenodd" clip-rule="evenodd" d="M245.605 206.787C246.301 206.787 246.865 206.223 246.865 205.527C246.865 204.832 246.301 204.268 245.605 204.268C244.91 204.268 244.346 204.832 244.346 205.527C244.346 206.223 244.91 206.787 245.605 206.787Z" fill="#F2F2F2"/>
</g>
<g clip-path="url(#clip33)">
<rect x="161.231" y="177.606" width="94.4711" height="16.375" rx="1.67949" fill="white"/>
<g clip-path="url(#clip34)">
<rect x="165.01" y="182.518" width="70.1186" height="2.45625" rx="1.22812" fill="#DDE3E9"/>
<rect x="165.009" y="186.612" width="47.0659" height="2.45625" rx="1.22812" fill="#DDE3E9"/>
</g>
<path fill-rule="evenodd" clip-rule="evenodd" d="M245.606 188.733C247.229 188.733 248.545 187.417 248.545 185.794C248.545 184.17 247.229 182.854 245.606 182.854C243.983 182.854 242.667 184.17 242.667 185.794C242.667 187.417 243.983 188.733 245.606 188.733Z" fill="#DDE3E9"/>
<path fill-rule="evenodd" clip-rule="evenodd" d="M245.605 187.053C246.301 187.053 246.865 186.489 246.865 185.794C246.865 185.098 246.301 184.534 245.605 184.534C244.91 184.534 244.346 185.098 244.346 185.794C244.346 186.489 244.91 187.053 245.605 187.053Z" fill="#F2F2F2"/>
</g>
<g clip-path="url(#clip35)">
<rect x="161.231" y="157.871" width="94.4711" height="16.375" rx="1.67949" fill="white"/>
<g clip-path="url(#clip36)">
<rect x="165.01" y="162.785" width="70.1186" height="2.45625" rx="1.22812" fill="#DDE3E9"/>
<rect x="165.009" y="166.878" width="47.0659" height="2.45625" rx="1.22812" fill="#DDE3E9"/>
</g>
<path fill-rule="evenodd" clip-rule="evenodd" d="M245.606 168.998C247.229 168.998 248.545 167.682 248.545 166.059C248.545 164.436 247.229 163.12 245.606 163.12C243.983 163.12 242.667 164.436 242.667 166.059C242.667 167.682 243.983 168.998 245.606 168.998Z" fill="#DDE3E9"/>
<path fill-rule="evenodd" clip-rule="evenodd" d="M245.605 167.319C246.301 167.319 246.865 166.755 246.865 166.059C246.865 165.364 246.301 164.8 245.605 164.8C244.91 164.8 244.346 165.364 244.346 166.059C244.346 166.755 244.91 167.319 245.605 167.319Z" fill="#F2F2F2"/>
</g>
</g>
</g>
<path fill-rule="evenodd" clip-rule="evenodd" d="M330.013 148.371C328.357 147.248 326.155 146.954 324.173 146.954C316.432 146.954 309.156 149.826 302.871 154.105C299.427 156.45 296.346 159.436 293.626 162.545C292.056 164.34 290.656 166.281 289.664 168.44C288.996 169.898 288.536 171.416 288.225 172.982C287.846 174.891 287.545 176.839 287.409 178.779C287.355 179.543 286.911 183.598 288.181 183.667C288.174 183.767 288.172 183.862 288.18 183.947C285.421 188.261 283.717 193.316 282.136 198.109C280.761 202.28 279.536 206.486 278.74 210.801C277.693 216.482 277.005 222.248 276.678 228.01C276.608 229.249 276.56 230.488 276.518 231.728C276.483 232.785 276.447 233.843 276.412 234.901C276.374 236.086 276.165 237.451 276.354 238.629C276.518 239.655 277.406 239.5 277.445 238.479C277.492 237.245 277.485 236.01 277.539 234.776C277.61 233.138 277.684 231.5 277.764 229.862C278.322 218.487 280.416 207.279 284.279 196.534C285.842 192.186 287.634 188.07 289.936 184.048C291.961 180.511 294.396 177.087 296.885 173.898C299.304 170.8 301.819 167.773 304.783 165.147C307.189 163.017 309.834 161.161 312.554 159.434C316.009 157.24 319.457 155.1 323.199 153.416C325.144 152.541 327.126 151.758 329.086 150.918C329.439 150.767 329.817 150.62 330.156 150.445C331.288 149.862 330.915 148.983 330.013 148.371Z" fill="#C1DEE2"/>
<path fill-rule="evenodd" clip-rule="evenodd" d="M298.873 188.103C302.012 188.103 304.806 188.51 307.699 189.758C310.196 190.835 312.471 192.26 314.681 193.812C317.788 195.995 320.236 198.536 321.95 201.902C322.973 203.912 323.724 206.758 323.037 208.951C322.227 211.534 320.003 213.689 317.075 213.234C315.264 212.953 313.604 211.754 312.228 210.626C310.581 209.276 309.263 207.653 308.175 205.851C306.4 202.91 305.356 199.586 303.848 196.514C303.133 195.056 302.441 193.587 301.584 192.201C301.16 191.515 300.708 190.835 300.064 190.325C299.72 190.053 298.268 189.58 298.823 188.968C290.682 189.075 283.469 195.327 281.906 203.067C281.761 203.788 281.647 204.516 281.527 205.242C281.451 205.7 281.482 207.39 281.072 207.683C280.168 208.329 280.548 206.367 280.587 206.084C280.687 205.354 280.794 204.624 280.906 203.896C281.517 199.935 283.28 196.253 286.221 193.428C289.584 190.198 294.121 188.103 298.873 188.103Z" fill="#89C5CC"/>
<path fill-rule="evenodd" clip-rule="evenodd" d="M31.464 201.848C39.3015 214.997 48.4298 227.728 53.9116 242.104C53.6907 240.41 53.4565 238.717 53.1943 237.027C51.8034 228.066 50.0746 219.171 48.2581 210.287C47.333 205.764 46.3545 201.257 45.351 196.75C44.8113 194.33 44.2782 191.908 43.7274 189.49C43.5939 188.904 43.4793 187.881 43.3123 186.844C48.6397 204.326 53.7772 221.821 57.5351 239.723C58.0281 242.073 58.4479 244.418 58.7918 246.759C58.9094 246.225 59.0251 245.691 59.1518 245.159C60.6723 238.773 62.9531 232.439 65.6688 226.469C66.9671 223.614 68.4583 220.821 70.2141 218.219C71.309 216.597 73.8911 214.669 74.8899 213.008C69.4274 223.027 67.4551 235.562 64.301 246.454C63.5312 249.112 62.7566 251.766 61.9976 254.424C66.754 244.886 74.1336 237.048 84.3939 233.652C71.9742 241.858 64.5248 256.229 59.5048 270.927C59.4883 271.101 59.4686 271.276 59.4516 271.45C60.9288 268.647 62.7895 266.111 65.3114 264.335C70.7089 260.533 76.6965 261.641 81.9322 264.902C77.8231 262.29 70.3965 264.669 66.939 267.323C64.4638 269.224 62.3485 271.773 60.5116 274.261C60.0714 274.857 59.4709 275.553 58.8365 276.295C57.9471 282.069 56.4976 287.803 54.4455 293.491C54.7842 291.858 54.5393 289.247 54.6332 288.03C54.6435 287.898 54.6518 287.766 54.6619 287.635C54.3499 288.881 54.0486 290.112 53.7584 291.323C54.3352 289.012 54.6487 286.598 54.8934 284.16C54.9565 283.112 55.0179 282.064 55.0829 281.017C55.0623 279.028 54.9804 277.032 54.8419 275.032C54.3507 273.089 53.8007 271.256 53.3472 269.731C51.7105 264.23 49.3112 258.961 46.3581 254.045C43.6637 249.558 40.4386 245.495 36.7153 241.819C34.7081 239.839 32.6075 237.953 30.5365 236.04C29.7876 235.349 28.4491 233.648 27.2914 232.762C35.7226 237.41 44.4007 242.439 50.5513 249.928C49.8302 247.159 49.047 244.43 48.2185 241.754C44.0154 228.182 38.7083 214.115 31.464 201.848Z" fill="#DDE3E9"/>
<path fill-rule="evenodd" clip-rule="evenodd" d="M39.8872 276.274C39.8872 291.347 41.0808 303.566 57.1019 303.566C73.1231 303.566 74.3167 291.347 74.3167 276.274" fill="#C5CFD6"/>
<rect x="259.482" y="58.7808" width="2.51923" height="10.4968" rx="1.25962" fill="#DDE3E9"/>
<rect x="265.36" y="52.0625" width="2.51923" height="17.2147" rx="1.25962" fill="#DDE3E9"/>
<rect x="271.237" y="48.7046" width="2.51923" height="20.5737" rx="1.25962" fill="#DDE3E9"/>
<rect x="277.116" y="52.0625" width="2.51923" height="17.2147" rx="1.25962" fill="#DDE3E9"/>
<rect x="282.995" y="45.3452" width="2.51923" height="23.9327" rx="1.25962" fill="#C5CFD6"/>
<path fill-rule="evenodd" clip-rule="evenodd" d="M52.9037 173.933C52.9037 169.256 56.6834 165.428 61.3011 165.428V173.933L55.5623 180.123C53.9299 178.61 52.9037 176.39 52.9037 173.933Z" fill="#F2F2F2"/>
<path fill-rule="evenodd" clip-rule="evenodd" d="M61.0792 173.824H69.5594C69.5594 176.016 68.6652 178.07 67.2515 179.563C65.6967 181.195 63.4825 182.222 61.0792 182.222C58.8654 182.222 56.8391 181.336 55.2838 179.936L61.0792 173.824Z" fill="#AFB9C5"/>
<path fill-rule="evenodd" clip-rule="evenodd" d="M69.6995 173.826C69.6995 169.208 65.9198 165.429 61.302 165.429V173.826H69.6995ZM57.1024 165.428L60.4614 172.985L52.9037 169.626C53.6511 167.667 55.3293 166.175 57.1024 165.428Z" fill="#C5CFD6"/>
<path fill-rule="evenodd" clip-rule="evenodd" d="M326.143 177.681C325.336 178.537 324.193 179.075 322.922 179.075C320.48 179.075 318.499 177.101 318.499 174.666C318.499 172.232 320.48 170.258 322.922 170.258V162.07C315.974 162.07 310.286 167.74 310.286 174.666C310.286 181.593 315.974 187.263 322.922 187.263C326.572 187.263 329.871 185.723 332.119 183.275L326.143 177.681Z" fill="#F2F2F2"/>
<path fill-rule="evenodd" clip-rule="evenodd" d="M322.882 162.071V170.259C325.317 170.259 327.29 172.233 327.29 174.667H335.478C335.478 167.741 329.808 162.071 322.882 162.071Z" fill="#AFB9C5"/>
<path fill-rule="evenodd" clip-rule="evenodd" d="M327.121 174.666C327.121 176.097 326.447 177.368 325.401 178.189L330.549 184.743C333.546 182.397 335.477 178.759 335.477 174.666H327.121Z" fill="#C5CFD6"/>
<path fill-rule="evenodd" clip-rule="evenodd" d="M246.067 61.9333C245.446 62.59 244.567 63.0024 243.589 63.0024C241.71 63.0024 240.187 61.4891 240.187 59.6224C240.187 57.7557 241.71 56.2424 243.589 56.2424V49.9653C238.244 49.9653 233.869 54.312 233.869 59.6224C233.869 64.9328 238.244 69.2794 243.589 69.2794C246.397 69.2794 248.934 68.0993 250.664 66.222L246.067 61.9333Z" fill="#F2F2F2"/>
<path fill-rule="evenodd" clip-rule="evenodd" d="M243.527 49.9648V56.2419C245.393 56.2419 246.907 57.7552 246.907 59.6219H253.184C253.184 54.3115 248.837 49.9648 243.527 49.9648Z" fill="#AFB9C5"/>
<path fill-rule="evenodd" clip-rule="evenodd" d="M246.915 59.6221C246.915 60.6949 246.41 61.6486 245.625 62.2644L249.486 67.1798C251.734 65.42 253.183 62.6922 253.183 59.6221H246.915Z" fill="#C5CFD6"/>
<path fill-rule="evenodd" clip-rule="evenodd" d="M293.488 248.558C293.49 248.562 293.491 248.566 293.494 248.571C293.491 248.567 293.488 248.55 293.488 248.558Z" fill="#C5CFD6"/>
<path fill-rule="evenodd" clip-rule="evenodd" d="M293.492 248.564C293.492 248.565 293.493 248.567 293.493 248.568C293.493 248.564 293.485 248.551 293.492 248.564Z" fill="#C5CFD6"/>
<path fill-rule="evenodd" clip-rule="evenodd" d="M293.463 248.493C293.468 248.51 293.476 248.526 293.483 248.543C293.479 248.534 293.476 248.527 293.473 248.519C293.56 248.737 293.505 248.595 293.463 248.493Z" fill="#C5CFD6"/>
<path fill-rule="evenodd" clip-rule="evenodd" d="M293.481 248.544C293.485 248.551 293.488 248.56 293.491 248.567C293.516 248.614 293.481 248.544 293.481 248.544Z" fill="#C5CFD6"/>
<path fill-rule="evenodd" clip-rule="evenodd" d="M293.491 248.564C293.491 248.563 293.491 248.563 293.49 248.563C293.491 248.563 293.491 248.563 293.491 248.564Z" fill="#C5CFD6"/>
<path fill-rule="evenodd" clip-rule="evenodd" d="M293.495 248.57C293.5 248.58 293.472 248.532 293.495 248.57V248.57Z" fill="#C5CFD6"/>
<path fill-rule="evenodd" clip-rule="evenodd" d="M293.492 248.564L293.49 248.563C293.491 248.563 293.491 248.564 293.492 248.564Z" fill="#C5CFD6"/>
<rect width="59.6218" height="39.468" rx="1.67949" transform="matrix(-1 0 0 1 323.302 216.233)" fill="#DDE3E9"/>
<path fill-rule="evenodd" clip-rule="evenodd" d="M301.164 227.57L318.402 255.702H283.926L301.164 227.57Z" fill="#AFB9C5"/>
<path fill-rule="evenodd" clip-rule="evenodd" d="M283.391 235.104L298.63 255.701H268.152L283.391 235.104Z" fill="#C5CFD6"/>
<path fill-rule="evenodd" clip-rule="evenodd" d="M276.906 235.129C273.776 235.129 271.238 232.591 271.238 229.46C271.238 226.33 273.776 223.792 276.906 223.792C280.037 223.792 282.575 226.33 282.575 229.46C282.575 232.591 280.037 235.129 276.906 235.129Z" fill="white"/>
<defs>
<clipPath id="clip0">
<rect width="351.576" height="114.432" fill="white" transform="translate(20.7122 175.071)"/>
</clipPath>
<clipPath id="clip1">
<rect width="66.7596" height="126.801" fill="white" transform="translate(99.0903 55.4229)"/>
</clipPath>
<clipPath id="clip2">
<rect width="55.0032" height="85.6539" fill="white" transform="translate(104.969 67.1797)"/>
</clipPath>
<clipPath id="clip3">
<rect width="55.0032" height="22.6731" fill="white" transform="translate(104.969 67.1797)"/>
</clipPath>
<clipPath id="clip4">
<rect width="30.6506" height="9.06923" fill="white" transform="translate(121.343 73.9814)"/>
</clipPath>
<clipPath id="clip5">
<rect width="55.0032" height="17.6346" fill="white" transform="translate(104.968 93.2109)"/>
</clipPath>
<clipPath id="clip6">
<rect width="30.6506" height="7.05385" fill="white" transform="translate(121.342 98.501)"/>
</clipPath>
<clipPath id="clip7">
<rect width="55.0032" height="17.6346" fill="white" transform="translate(104.968 114.206)"/>
</clipPath>
<clipPath id="clip8">
<rect width="30.6506" height="7.05385" fill="white" transform="translate(121.342 119.496)"/>
</clipPath>
<clipPath id="clip9">
<rect width="55.0032" height="17.6346" fill="white" transform="translate(104.968 135.199)"/>
</clipPath>
<clipPath id="clip10">
<rect width="30.6506" height="7.05385" fill="white" transform="translate(121.342 140.489)"/>
</clipPath>
<clipPath id="clip11">
<rect width="86.9135" height="126.801" fill="white" transform="translate(106.647 66.3394)"/>
</clipPath>
<clipPath id="clip12">
<rect width="55.0032" height="85.6539" fill="white" transform="translate(132.68 78.0957)"/>
</clipPath>
<clipPath id="clip13">
<rect width="55.0032" height="22.6731" fill="white" transform="translate(132.68 78.0957)"/>
</clipPath>
<clipPath id="clip14">
<rect width="30.6506" height="9.06923" fill="white" transform="translate(136.458 84.8975)"/>
</clipPath>
<clipPath id="clip15">
<rect width="55.0032" height="17.6346" fill="white" transform="translate(132.68 104.129)"/>
</clipPath>
<clipPath id="clip16">
<rect width="30.6506" height="7.05385" fill="white" transform="translate(149.056 109.419)"/>
</clipPath>
<clipPath id="clip17">
<rect width="55.0032" height="17.6346" fill="white" transform="translate(132.68 125.122)"/>
</clipPath>
<clipPath id="clip18">
<rect width="30.6506" height="7.05385" fill="white" transform="translate(136.458 130.412)"/>
</clipPath>
<clipPath id="clip19">
<rect width="55.0032" height="17.6346" fill="white" transform="translate(132.68 146.115)"/>
</clipPath>
<clipPath id="clip20">
<rect width="30.6506" height="7.05385" fill="white" transform="translate(149.056 151.405)"/>
</clipPath>
<clipPath id="clip21">
<rect width="140.657" height="145.276" fill="white" transform="translate(154.514 76.8364)"/>
</clipPath>
<clipPath id="clip22">
<rect width="29.391" height="81.4551" fill="white" transform="translate(259.061 132.259)"/>
</clipPath>
<clipPath id="clip23">
<rect width="14.2756" height="66.3397" fill="white" transform="translate(266.618 139.816)"/>
</clipPath>
<clipPath id="clip24">
<rect width="94.4711" height="118.404" fill="white" transform="translate(161.231 95.3115)"/>
</clipPath>
<clipPath id="clip25">
<rect width="94.4711" height="19.734" fill="white" transform="translate(161.231 95.3115)"/>
</clipPath>
<clipPath id="clip26">
<rect width="70.1186" height="7.89359" fill="white" transform="translate(165.009 101.231)"/>
</clipPath>
<clipPath id="clip27">
<rect width="94.4711" height="16.375" fill="white" transform="translate(161.231 118.404)"/>
</clipPath>
<clipPath id="clip28">
<rect width="70.1186" height="6.55" fill="white" transform="translate(165.01 123.316)"/>
</clipPath>
<clipPath id="clip29">
<rect width="94.4711" height="16.375" fill="white" transform="translate(161.231 138.139)"/>
</clipPath>
<clipPath id="clip30">
<rect width="70.1186" height="6.55" fill="white" transform="translate(165.01 143.05)"/>
</clipPath>
<clipPath id="clip31">
<rect width="94.4711" height="16.375" fill="white" transform="translate(161.231 197.34)"/>
</clipPath>
<clipPath id="clip32">
<rect width="70.1186" height="6.55" fill="white" transform="translate(165.01 202.252)"/>
</clipPath>
<clipPath id="clip33">
<rect width="94.4711" height="16.375" fill="white" transform="translate(161.231 177.606)"/>
</clipPath>
<clipPath id="clip34">
<rect width="70.1186" height="6.55" fill="white" transform="translate(165.01 182.518)"/>
</clipPath>
<clipPath id="clip35">
<rect width="94.4711" height="16.375" fill="white" transform="translate(161.231 157.871)"/>
</clipPath>
<clipPath id="clip36">
<rect width="70.1186" height="6.55" fill="white" transform="translate(165.01 162.785)"/>
</clipPath>
</defs>
</svg>
