<svg width="29" height="24" viewBox="0 0 29 24" fill="none" xmlns="http://www.w3.org/2000/svg">
<path d="M27.6667 11.6665H19.6667L17 15.6665H11.6667L9 11.6665H1" stroke="#042454" stroke-width="2" stroke-linecap="round" stroke-linejoin="round"/>
<path d="M5.6 2.48L1 11.6667V19.6667C1 20.3739 1.28095 21.0522 1.78105 21.5523C2.28115 22.0524 2.95942 22.3333 3.66667 22.3333H25C25.7072 22.3333 26.3855 22.0524 26.8856 21.5523C27.3857 21.0522 27.6667 20.3739 27.6667 19.6667V11.6667L23.0667 2.48C22.8459 2.03572 22.5056 1.66183 22.0839 1.40037C21.6623 1.13892 21.1761 1.00026 20.68 1H7.98667C7.49055 1.00026 7.00435 1.13892 6.58273 1.40037C6.1611 1.66183 5.82077 2.03572 5.6 2.48Z" stroke="#042454" stroke-width="2" stroke-linecap="round" stroke-linejoin="round"/>
</svg>
