<svg width="33" height="33" viewBox="0 0 33 33" fill="none" xmlns="http://www.w3.org/2000/svg">
<g clip-path="url(#clip0)">
<path d="M28.6996 6.27155C28.0046 5.57617 27.1793 5.02455 26.271 4.64819C25.3627 4.27184 24.3892 4.07812 23.406 4.07812C22.4228 4.07812 21.4492 4.27184 20.5409 4.64819C19.6326 5.02455 18.8074 5.57617 18.1123 6.27155L16.6699 7.71403L15.2274 6.27155C13.8234 4.86759 11.9192 4.07885 9.93373 4.07885C7.94823 4.07885 6.04405 4.86759 4.64009 6.27155C3.23612 7.67551 2.44739 9.57969 2.44739 11.5652C2.44739 13.5507 3.23612 15.4549 4.64009 16.8588L6.08257 18.3013L16.6699 28.8886L27.2571 18.3013L28.6996 16.8588C29.395 16.1638 29.9466 15.3385 30.323 14.4302C30.6993 13.5219 30.893 12.5484 30.893 11.5652C30.893 10.582 30.6993 9.60846 30.323 8.70016C29.9466 7.79186 29.395 6.96661 28.6996 6.27155V6.27155Z" stroke="#042454" stroke-width="2.84" stroke-linecap="round" stroke-linejoin="round"/>
</g>
<defs>
<clipPath id="clip0">
<rect width="32.66" height="32.66" fill="white" transform="translate(0.339966)"/>
</clipPath>
</defs>
</svg>
