<svg width="19" height="19" viewBox="0 0 19 19" fill="none" xmlns="http://www.w3.org/2000/svg">
<path d="M8.70768 9.50016C8.70768 9.93739 9.06212 10.2918 9.49935 10.2918C9.93657 10.2918 10.291 9.93739 10.291 9.50016C10.291 9.06294 9.93657 8.7085 9.49935 8.7085C9.06212 8.7085 8.70768 9.06294 8.70768 9.50016Z" stroke="#042454" stroke-width="1.58333" stroke-linecap="round" stroke-linejoin="round"/>
<path d="M8.70768 15.0417C8.70768 15.4789 9.06212 15.8333 9.49935 15.8333C9.93657 15.8333 10.291 15.4789 10.291 15.0417C10.291 14.6044 9.93657 14.25 9.49935 14.25C9.06212 14.25 8.70768 14.6044 8.70768 15.0417Z" stroke="#042454" stroke-width="1.58333" stroke-linecap="round" stroke-linejoin="round"/>
<path d="M8.70768 3.95817C8.70768 4.3954 9.06212 4.74984 9.49935 4.74984C9.93657 4.74984 10.291 4.3954 10.291 3.95817C10.291 3.52095 9.93657 3.1665 9.49935 3.1665C9.06212 3.1665 8.70768 3.52095 8.70768 3.95817Z" stroke="#042454" stroke-width="1.58333" stroke-linecap="round" stroke-linejoin="round"/>
</svg>
