<svg width="37" height="37" viewBox="0 0 37 37" fill="none" xmlns="http://www.w3.org/2000/svg">
<circle cx="18.5" cy="18.5" r="18.5" fill="white"/>
<path d="M19 21C20.6569 21 22 19.6569 22 18C22 16.3431 20.6569 15 19 15C17.3431 15 16 16.3431 16 18C16 19.6569 17.3431 21 19 21Z" stroke="#042454" stroke-width="2" stroke-linecap="round" stroke-linejoin="round"/>
<path d="M26.4 21C26.2669 21.3016 26.2272 21.6362 26.286 21.9606C26.3448 22.285 26.4995 22.5843 26.73 22.82L26.79 22.88C26.976 23.0657 27.1235 23.2863 27.2241 23.5291C27.3248 23.7719 27.3766 24.0322 27.3766 24.295C27.3766 24.5578 27.3248 24.8181 27.2241 25.0609C27.1235 25.3037 26.976 25.5243 26.79 25.71C26.6043 25.896 26.3837 26.0435 26.1409 26.1441C25.8981 26.2448 25.6378 26.2966 25.375 26.2966C25.1122 26.2966 24.8519 26.2448 24.6091 26.1441C24.3663 26.0435 24.1457 25.896 23.96 25.71L23.9 25.65C23.6643 25.4195 23.365 25.2648 23.0406 25.206C22.7162 25.1472 22.3816 25.1869 22.08 25.32C21.7842 25.4468 21.532 25.6572 21.3543 25.9255C21.1766 26.1938 21.0813 26.5082 21.08 26.83V27C21.08 27.5304 20.8693 28.0391 20.4942 28.4142C20.1191 28.7893 19.6104 29 19.08 29C18.5496 29 18.0409 28.7893 17.6658 28.4142C17.2907 28.0391 17.08 27.5304 17.08 27V26.91C17.0723 26.579 16.9651 26.258 16.7725 25.9887C16.5799 25.7194 16.3107 25.5143 16 25.4C15.6984 25.2669 15.3638 25.2272 15.0394 25.286C14.715 25.3448 14.4157 25.4995 14.18 25.73L14.12 25.79C13.9343 25.976 13.7137 26.1235 13.4709 26.2241C13.2281 26.3248 12.9678 26.3766 12.705 26.3766C12.4422 26.3766 12.1819 26.3248 11.9391 26.2241C11.6963 26.1235 11.4757 25.976 11.29 25.79C11.104 25.6043 10.9565 25.3837 10.8559 25.1409C10.7552 24.8981 10.7034 24.6378 10.7034 24.375C10.7034 24.1122 10.7552 23.8519 10.8559 23.6091C10.9565 23.3663 11.104 23.1457 11.29 22.96L11.35 22.9C11.5805 22.6643 11.7352 22.365 11.794 22.0406C11.8528 21.7162 11.8131 21.3816 11.68 21.08C11.5532 20.7842 11.3428 20.532 11.0745 20.3543C10.8062 20.1766 10.4918 20.0813 10.17 20.08H10C9.46957 20.08 8.96086 19.8693 8.58579 19.4942C8.21071 19.1191 8 18.6104 8 18.08C8 17.5496 8.21071 17.0409 8.58579 16.6658C8.96086 16.2907 9.46957 16.08 10 16.08H10.09C10.421 16.0723 10.742 15.9651 11.0113 15.7725C11.2806 15.5799 11.4857 15.3107 11.6 15C11.7331 14.6984 11.7728 14.3638 11.714 14.0394C11.6552 13.715 11.5005 13.4157 11.27 13.18L11.21 13.12C11.024 12.9343 10.8765 12.7137 10.7759 12.4709C10.6752 12.2281 10.6234 11.9678 10.6234 11.705C10.6234 11.4422 10.6752 11.1819 10.7759 10.9391C10.8765 10.6963 11.024 10.4757 11.21 10.29C11.3957 10.104 11.6163 9.95653 11.8591 9.85588C12.1019 9.75523 12.3622 9.70343 12.625 9.70343C12.8878 9.70343 13.1481 9.75523 13.3909 9.85588C13.6337 9.95653 13.8543 10.104 14.04 10.29L14.1 10.35C14.3357 10.5805 14.635 10.7352 14.9594 10.794C15.2838 10.8528 15.6184 10.8131 15.92 10.68H16C16.2958 10.5532 16.548 10.3428 16.7257 10.0745C16.9034 9.80618 16.9987 9.49179 17 9.17V9C17 8.46957 17.2107 7.96086 17.5858 7.58579C17.9609 7.21071 18.4696 7 19 7C19.5304 7 20.0391 7.21071 20.4142 7.58579C20.7893 7.96086 21 8.46957 21 9V9.09C21.0013 9.41179 21.0966 9.72618 21.2743 9.99447C21.452 10.2628 21.7042 10.4732 22 10.6C22.3016 10.7331 22.6362 10.7728 22.9606 10.714C23.285 10.6552 23.5843 10.5005 23.82 10.27L23.88 10.21C24.0657 10.024 24.2863 9.87653 24.5291 9.77588C24.7719 9.67523 25.0322 9.62343 25.295 9.62343C25.5578 9.62343 25.8181 9.67523 26.0609 9.77588C26.3037 9.87653 26.5243 10.024 26.71 10.21C26.896 10.3957 27.0435 10.6163 27.1441 10.8591C27.2448 11.1019 27.2966 11.3622 27.2966 11.625C27.2966 11.8878 27.2448 12.1481 27.1441 12.3909C27.0435 12.6337 26.896 12.8543 26.71 13.04L26.65 13.1C26.4195 13.3357 26.2648 13.635 26.206 13.9594C26.1472 14.2838 26.1869 14.6184 26.32 14.92V15C26.4468 15.2958 26.6572 15.548 26.9255 15.7257C27.1938 15.9034 27.5082 15.9987 27.83 16H28C28.5304 16 29.0391 16.2107 29.4142 16.5858C29.7893 16.9609 30 17.4696 30 18C30 18.5304 29.7893 19.0391 29.4142 19.4142C29.0391 19.7893 28.5304 20 28 20H27.91C27.5882 20.0013 27.2738 20.0966 27.0055 20.2743C26.7372 20.452 26.5268 20.7042 26.4 21V21Z" stroke="#042454" stroke-width="2" stroke-linecap="round" stroke-linejoin="round"/>
</svg>
