<svg width="24" height="24" viewBox="0 0 24 24" fill="none" xmlns="http://www.w3.org/2000/svg">
<path d="M11.0001 12C11.0001 12.5523 11.4478 13 12.0001 13C12.5524 13 13.0001 12.5523 13.0001 12C13.0001 11.4477 12.5524 11 12.0001 11C11.4478 11 11.0001 11.4477 11.0001 12Z" stroke="#042454" stroke-width="2" stroke-linecap="round" stroke-linejoin="round"/>
<path d="M11.0001 19C11.0001 19.5523 11.4478 20 12.0001 20C12.5524 20 13.0001 19.5523 13.0001 19C13.0001 18.4477 12.5524 18 12.0001 18C11.4478 18 11.0001 18.4477 11.0001 19Z" stroke="#042454" stroke-width="2" stroke-linecap="round" stroke-linejoin="round"/>
<path d="M11.0001 5C11.0001 5.55228 11.4478 6 12.0001 6C12.5524 6 13.0001 5.55228 13.0001 5C13.0001 4.44772 12.5524 4 12.0001 4C11.4478 4 11.0001 4.44772 11.0001 5Z" stroke="#042454" stroke-width="2" stroke-linecap="round" stroke-linejoin="round"/>
</svg>
