<svg width="33" height="27" viewBox="0 0 33 27" fill="none" xmlns="http://www.w3.org/2000/svg">
<g clip-path="url(#clip0)">
<path d="M25.0987 23.0071V20.8159C25.0987 19.6537 24.637 18.539 23.8152 17.7172C22.9933 16.8953 21.8787 16.4336 20.7164 16.4336H11.9517C10.7894 16.4336 9.67475 16.8953 8.8529 17.7172C8.03105 18.539 7.56934 19.6537 7.56934 20.8159V23.0071" stroke="#042454" stroke-width="1.68045" stroke-linecap="round" stroke-linejoin="round"/>
<path d="M16.3335 12.0518C18.7538 12.0518 20.7159 10.0898 20.7159 7.66946C20.7159 5.24916 18.7538 3.28711 16.3335 3.28711C13.9132 3.28711 11.9512 5.24916 11.9512 7.66946C11.9512 10.0898 13.9132 12.0518 16.3335 12.0518Z" stroke="#042454" stroke-width="1.68045" stroke-linecap="round" stroke-linejoin="round"/>
<path d="M31.6725 23.0073V20.8161C31.6718 19.8451 31.3486 18.9019 30.7537 18.1344C30.1588 17.367 29.3259 16.8189 28.3857 16.5762" stroke="#042454" stroke-width="2" stroke-linecap="round" stroke-linejoin="round"/>
<path d="M24.0029 3.42871C24.9456 3.67007 25.7811 4.2183 26.3778 4.98698C26.9744 5.75565 27.2983 6.70105 27.2983 7.67412C27.2983 8.64718 26.9744 9.59258 26.3778 10.3613C25.7811 11.1299 24.9456 11.6782 24.0029 11.9195" stroke="#042454" stroke-width="2" stroke-linecap="round" stroke-linejoin="round"/>
</g>
<g clip-path="url(#clip1)">
<path d="M7.66883 23.0071V20.8159C7.66883 19.6537 8.13054 18.539 8.95239 17.7172C9.77424 16.8953 10.8889 16.4336 12.0512 16.4336H20.8159C21.9782 16.4336 23.0928 16.8953 23.9147 17.7172C24.7365 18.539 25.1982 19.6537 25.1982 20.8159V23.0071" stroke="#042454" stroke-width="2" stroke-linecap="round" stroke-linejoin="round"/>
<path d="M16.4341 12.0518C14.0137 12.0518 12.0517 10.0898 12.0517 7.66946C12.0517 5.24916 14.0137 3.28711 16.4341 3.28711C18.8544 3.28711 20.8164 5.24916 20.8164 7.66946C20.8164 10.0898 18.8544 12.0518 16.4341 12.0518Z" stroke="#042454" stroke-width="2" stroke-linecap="round" stroke-linejoin="round"/>
<path d="M1.09507 23.0073V20.8161C1.0958 19.8451 1.41898 18.9019 2.01387 18.1344C2.60876 17.367 3.44168 16.8189 4.38184 16.5762" stroke="#042454" stroke-width="2" stroke-linecap="round" stroke-linejoin="round"/>
<path d="M8.76465 3.42871C7.82199 3.67007 6.98647 4.2183 6.38981 4.98698C5.79315 5.75565 5.46929 6.70105 5.46929 7.67412C5.46929 8.64718 5.79315 9.59258 6.38981 10.3613C6.98647 11.1299 7.82199 11.6782 8.76465 11.9195" stroke="#042454" stroke-width="2" stroke-linecap="round" stroke-linejoin="round"/>
</g>
<defs>
<clipPath id="clip0">
<rect width="26.2941" height="26.2941" fill="white" transform="translate(6.47363)"/>
</clipPath>
<clipPath id="clip1">
<rect width="26.2941" height="26.2941" fill="white" transform="matrix(-1 0 0 1 26.2939 0)"/>
</clipPath>
</defs>
</svg>
