<svg width="18" height="12" viewBox="0 0 18 12" fill="none" xmlns="http://www.w3.org/2000/svg">
<path d="M13.4076 10.9107V9.80955C13.4076 9.22544 13.1756 8.66526 12.7626 8.25224C12.3495 7.83921 11.7894 7.60718 11.2053 7.60718H6.80051C6.21641 7.60718 5.65623 7.83921 5.2432 8.25224C4.83018 8.66526 4.59814 9.22544 4.59814 9.80955V10.9107" stroke="#AAAAAA" stroke-width="1.00196" stroke-linecap="round" stroke-linejoin="round"/>
<path d="M9.00364 5.40474C10.22 5.40474 11.206 4.41871 11.206 3.20237C11.206 1.98603 10.22 1 9.00364 1C7.7873 1 6.80127 1.98603 6.80127 3.20237C6.80127 4.41871 7.7873 5.40474 9.00364 5.40474Z" stroke="#AAAAAA" stroke-width="1.00196" stroke-linecap="round" stroke-linejoin="round"/>
<path d="M16.7118 10.9107V9.8095C16.7115 9.32153 16.5491 8.84749 16.2501 8.46183C15.9511 8.07616 15.5325 7.8007 15.0601 7.67871" stroke="#AAAAAA" stroke-width="1.00196" stroke-linecap="round" stroke-linejoin="round"/>
<path d="M12.8579 1.07153C13.3316 1.19283 13.7515 1.46835 14.0514 1.85465C14.3512 2.24095 14.514 2.71606 14.514 3.20508C14.514 3.6941 14.3512 4.16921 14.0514 4.55551C13.7515 4.94181 13.3316 5.21733 12.8579 5.33863" stroke="#AAAAAA" stroke-width="1.00196" stroke-linecap="round" stroke-linejoin="round"/>
<path d="M4.85205 1.27954C4.37831 1.40084 3.95842 1.67635 3.65857 2.06265C3.35871 2.44896 3.19596 2.92407 3.19596 3.41309C3.19596 3.90211 3.35871 4.37722 3.65857 4.76352C3.95842 5.14982 4.37831 5.42534 4.85205 5.54663" stroke="#AAAAAA" stroke-width="1.00196" stroke-linecap="round" stroke-linejoin="round"/>
<path d="M0.999101 11.1187V10.0175C0.999465 9.52954 1.16188 9.0555 1.46085 8.66983C1.75981 8.28417 2.1784 8.00871 2.65088 7.88672" stroke="#AAAAAA" stroke-width="1.00196" stroke-linecap="round" stroke-linejoin="round"/>
</svg>
