<svg width="29" height="20" viewBox="0 0 29 20" fill="none" xmlns="http://www.w3.org/2000/svg">
<path d="M28.1477 18.5093V16.5638C28.1471 15.7017 27.8601 14.8642 27.3319 14.1829C26.8037 13.5015 26.0642 13.0148 25.2295 12.7993" stroke="#0066FF" stroke-width="1.16671" stroke-linecap="round" stroke-linejoin="round"/>
<path d="M21.3384 1.12598C22.1753 1.34027 22.9172 1.82703 23.4469 2.50951C23.9767 3.19199 24.2642 4.03138 24.2642 4.89534C24.2642 5.75929 23.9767 6.59868 23.4469 7.28116C22.9172 7.96364 22.1753 8.4504 21.3384 8.6647" stroke="#0066FF" stroke-width="1.16671" stroke-linecap="round" stroke-linejoin="round"/>
<path d="M6.83646 18.509V16.5636C6.83646 15.5316 7.2464 14.5419 7.97609 13.8122C8.70579 13.0825 9.69547 12.6726 10.7274 12.6726H18.5093C19.5413 12.6726 20.5309 13.0825 21.2606 13.8122C21.9903 14.5419 22.4003 15.5316 22.4003 16.5636V18.509" stroke="#0066FF" stroke-width="1.16671" stroke-linecap="round" stroke-linejoin="round"/>
<path d="M14.6183 8.7819C12.4694 8.7819 10.7274 7.03987 10.7274 4.89095C10.7274 2.74204 12.4694 1 14.6183 1C16.7672 1 18.5093 2.74204 18.5093 4.89095C18.5093 7.03987 16.7672 8.7819 14.6183 8.7819Z" stroke="#0066FF" stroke-width="1.16671" stroke-linecap="round" stroke-linejoin="round"/>
<path d="M0.999999 18.5093V16.5638C1.00064 15.7017 1.28758 14.8642 1.81577 14.1829C2.34396 13.5015 3.08348 13.0148 3.91821 12.7993" stroke="#0066FF" stroke-width="1.16671" stroke-linecap="round" stroke-linejoin="round"/>
<path d="M7.80908 1.12598C6.97212 1.34027 6.23029 1.82703 5.70054 2.50951C5.17078 3.19199 4.88324 4.03138 4.88324 4.89534C4.88324 5.75929 5.17078 6.59868 5.70054 7.28116C6.23029 7.96364 6.97212 8.4504 7.80908 8.6647" stroke="#0066FF" stroke-width="1.16671" stroke-linecap="round" stroke-linejoin="round"/>
</svg>
