<svg width="393" height="328" viewBox="0 0 393 328" fill="none" xmlns="http://www.w3.org/2000/svg">
<g opacity="0.504511">
<path fill-rule="evenodd" clip-rule="evenodd" d="M363.875 222.932C368.756 254.054 250.396 274.353 148.522 260.187C46.6469 246.02 -0.088419 190.697 48.5245 161.219C97.1374 131.741 358.995 191.81 363.875 222.932Z" fill="#F2F2F2"/>
</g>
<path fill-rule="evenodd" clip-rule="evenodd" d="M217.459 93.2441C219.301 92.0439 222.158 92.8088 224.012 93.5172C224.726 93.7904 226.552 94.6641 227.905 95.6475C227.727 94.9659 227.567 94.2783 227.428 93.5851C226.855 90.7349 226.46 87.8308 226.271 84.9434C226.221 84.1903 226.286 83.349 226.351 82.4966L226.351 82.4964C226.373 82.2076 226.395 81.9175 226.413 81.6292C226.339 81.561 226.289 81.467 226.268 81.3396C226.26 81.3924 226.255 81.4348 226.252 81.4672C226.247 81.519 226.244 81.5453 226.234 81.548C226.224 81.5509 226.207 81.5286 226.173 81.4833C226.159 81.466 226.144 81.4453 226.125 81.4213C224.754 79.6738 223.604 77.7047 223.446 75.5401C223.312 73.7043 225.081 70.2308 227.588 72.6354C228.709 73.7093 228.418 81.2512 226.733 81.7134C227.183 84.2125 227.749 86.7074 228.458 89.1706C228.564 89.1546 228.673 89.1532 228.78 89.1656C228.77 88.5532 228.769 87.885 228.798 87.6552C229.05 85.6758 230.989 81.6571 234.075 82.4373C236.447 83.037 234.993 85.5053 234.186 86.5857C232.887 88.3251 231.417 89.0783 229.556 89.9828C229.519 90.3566 229.236 90.5739 228.903 90.6445C230.149 94.6225 231.786 98.5022 233.929 102.167L233.986 101.934C234.258 100.821 234.575 99.5247 234.776 99.2523C235.826 97.8267 238.151 96.0854 240.295 96.9289C244.798 98.703 239.91 103.802 236.077 104.357C235.918 104.544 235.749 104.695 235.57 104.782C236.314 105.888 237.11 106.972 237.962 108.027C239.24 109.614 240.613 111.196 242.052 112.769C242.096 111.539 242.666 108.797 242.827 108.502C243.81 106.713 246.643 104.872 248.942 106.143C251.527 107.576 249.183 110.284 247.708 111.51C247.104 112.012 244.115 113.854 243.061 113.862C246.538 117.571 250.376 121.217 254.278 124.731C253.955 123.158 253.533 118.826 253.58 118.345C253.822 115.863 255.734 111.894 259.501 112.861C263.156 113.798 261.539 117.921 260.288 119.887C259.531 121.077 258.483 122.286 257.219 123.116C256.991 123.265 256.694 123.387 256.397 123.509L256.397 123.509C256.039 123.656 255.682 123.803 255.448 123.997C255.24 124.17 255.176 124.368 255.113 124.565C255.046 124.773 254.98 124.979 254.745 125.152C256.854 127.042 258.977 128.894 261.071 130.694C262.058 131.543 263.064 132.376 264.079 133.199C264.635 133.003 265.427 133.261 265.386 133.932C265.38 134.03 265.354 134.114 265.318 134.191C266.087 134.802 266.862 135.408 267.643 136.008C267.625 135.833 267.63 135.587 267.666 135.247C267.104 135.929 267.127 134.935 267.145 134.178C267.152 133.91 267.157 133.672 267.136 133.548C267.053 133.061 266.947 132.58 266.84 132.099L266.84 132.098C266.612 131.071 266.385 130.046 266.396 128.986C266.421 126.734 268.092 122.96 271.609 124.301C274.843 125.531 273.666 128.868 272.446 130.96C271.674 132.284 270.617 133.466 269.513 134.598C269.316 134.8 269.097 135.073 268.881 135.344L268.881 135.344C268.56 135.746 268.243 136.142 268.009 136.289C271.012 138.586 274.085 140.815 277.158 143.044L277.159 143.044L277.159 143.044C278.536 144.043 279.912 145.041 281.282 146.045C281.342 145.825 281.391 145.606 281.434 145.402C281.348 145.484 281.232 145.523 281.082 145.515C281.042 145.346 280.984 145.122 280.915 144.852C280.069 141.559 277.491 131.53 284.471 133.474C289.585 134.902 285.975 143.635 282.161 146.69C284.475 148.395 286.768 150.122 289.007 151.901C290.627 153.189 292.199 154.52 293.712 155.895C292.929 154.114 292.192 151.808 292.676 149.973C293.381 147.303 296.682 144.781 299.906 146.301C303.925 148.203 300.833 150.802 297.934 153.238C296.454 154.483 295.023 155.685 294.616 156.73C299.423 161.243 303.528 166.256 306.271 171.967C309.254 178.177 312.023 186.521 310.491 193.469C310.774 190.414 309.565 186.578 308.715 183.884C308.6 183.518 308.491 183.172 308.393 182.852C307.117 178.674 305.304 174.609 302.915 170.804C299.088 164.71 294.034 159.536 288.198 154.839C286.869 155.235 285.426 155.966 284.231 156.572L284.23 156.572L284.23 156.572C283.497 156.944 282.857 157.268 282.394 157.439C280.162 158.261 275.874 159.439 274.452 156.85C273.053 154.303 276.623 152.879 278.836 152.308C280.974 151.757 282.902 151.824 284.896 152.275C281.807 149.938 278.643 147.675 275.48 145.412L275.473 145.407C274.893 144.992 274.313 144.577 273.734 144.162C272.93 144.725 272.042 145.539 271.099 146.402C268.106 149.144 264.559 152.392 261.393 149.738C256.613 145.734 265.754 141.664 269.648 141.981C270.126 142.02 270.589 142.106 271.04 142.223C267.068 139.346 263.159 136.409 259.461 133.266C258.797 133.369 257.741 134.202 256.472 135.204C253.62 137.454 249.693 140.551 246.736 138.112C244.601 136.352 245.332 133.61 247.396 132.042C249.467 130.467 252.471 130.47 255.024 131C256.127 131.228 257.146 131.663 258.095 132.194L258.213 132.2C254.574 129.074 250.913 125.878 247.387 122.573L247.304 122.596L247.199 122.625C246.986 122.848 246.629 122.929 246.302 122.88C246.122 122.933 245.938 122.987 245.75 123.042C242.957 123.865 239.367 124.923 236.583 124.467C234.535 124.131 232.676 122.709 234.41 120.959C235.82 119.535 239.645 119.74 241.511 120.077C242.421 120.242 243.412 120.719 244.406 121.198C244.824 121.399 245.243 121.601 245.656 121.779C245.763 121.595 245.95 121.476 246.164 121.419C242.682 118.098 239.359 114.662 236.346 111.076C235.434 111.197 234.422 111.539 233.379 111.892C230.868 112.74 228.174 113.651 226.24 111.689C223.385 108.792 228.754 107.102 231.306 107.377C232.168 107.469 233.018 107.678 233.839 107.953C231.646 105.002 229.971 101.846 228.795 98.5326C228.783 98.5375 228.773 98.5425 228.762 98.5476C228.746 98.5555 228.729 98.5635 228.709 98.5711C228.726 98.5629 228.742 98.5543 228.757 98.5458C228.769 98.5395 228.78 98.5332 228.793 98.5271C228.675 98.1956 228.563 97.8625 228.455 97.5283C228.256 97.4336 228.07 97.3639 227.98 97.3352C229.14 98.0177 224.248 98.3516 223.332 98.4141C221.306 98.5521 218.593 98.6037 217.107 97.1873C215.859 95.9975 215.931 94.2397 217.459 93.2441ZM310.709 193.479C310.623 194.486 310.41 195.408 310.012 196.168C310.31 195.303 310.539 194.403 310.709 193.479Z" fill="#F2F2F2"/>
<path opacity="0.2" fill-rule="evenodd" clip-rule="evenodd" d="M125.492 28.9449C124.148 28.0777 122.062 28.6316 120.708 29.1445C120.186 29.3423 118.853 29.9746 117.864 30.6861C117.995 30.1932 118.112 29.6959 118.214 29.1947C118.633 27.1335 118.923 25.0334 119.062 22.9455C119.099 22.4009 119.052 21.7924 119.005 21.176L119.005 21.1759C118.989 20.9671 118.973 20.7574 118.96 20.549C119.014 20.4997 119.051 20.4317 119.066 20.3396C119.072 20.3778 119.075 20.4084 119.078 20.4318C119.081 20.4692 119.083 20.4883 119.09 20.4903C119.098 20.4924 119.11 20.4763 119.135 20.4435C119.145 20.4309 119.157 20.416 119.171 20.3986C120.172 19.1346 121.013 17.7104 121.129 16.1451C121.228 14.8176 119.938 12.3065 118.106 14.046C117.287 14.8229 117.496 20.2763 118.726 20.61C118.396 22.4173 117.982 24.2215 117.464 26.0028C117.386 25.9913 117.307 25.9903 117.229 25.9993C117.236 25.5565 117.237 25.0733 117.216 24.9072C117.033 23.476 115.619 20.5707 113.365 21.1358C111.633 21.5702 112.693 23.3546 113.282 24.1355C114.23 25.3928 115.303 25.937 116.661 26.5905C116.688 26.8608 116.895 27.0178 117.138 27.0688C116.227 29.9456 115.029 32.7516 113.463 35.4022L113.422 35.2338L113.422 35.2337C113.224 34.4294 112.993 33.4918 112.846 33.2949C112.08 32.2643 110.383 31.0059 108.817 31.6166C105.529 32.9008 109.095 36.5863 111.894 36.9861C112.01 37.1219 112.133 37.2311 112.264 37.2937C111.72 38.0938 111.138 38.8773 110.516 39.6407C109.583 40.7889 108.579 41.9334 107.528 43.0713C107.496 42.1816 107.081 40.1988 106.963 39.9858C106.247 38.6923 104.179 37.3619 102.5 38.2817C100.612 39.3189 102.322 41.2764 103.398 42.1622C103.839 42.5254 106.021 43.856 106.791 43.8617C104.25 46.545 101.446 49.1825 98.5956 51.7246C98.8323 50.587 99.1425 47.4543 99.1083 47.1066C98.9325 45.3121 97.5382 42.4423 94.7873 43.1429C92.1184 43.8216 93.2971 46.8029 94.2097 48.224C94.7624 49.084 95.5269 49.9579 96.4491 50.5574C96.6154 50.6655 96.8325 50.7536 97.0492 50.8416C97.3106 50.9478 97.5714 51.0537 97.7419 51.1939C97.8937 51.319 97.9403 51.4626 97.9864 51.605C98.0352 51.7554 98.0835 51.9044 98.255 52.0288C96.7143 53.3967 95.163 54.7361 93.6338 56.0383C92.9123 56.653 92.1777 57.2557 91.4359 57.8509C91.0303 57.709 90.4517 57.8961 90.4816 58.3815C90.4859 58.452 90.5052 58.5128 90.5311 58.5685C89.969 59.0104 89.4032 59.4492 88.833 59.8832C88.8461 59.7569 88.8424 59.5787 88.8164 59.3326C89.2264 59.8256 89.2097 59.1073 89.1969 58.5597L89.1969 58.5596C89.1924 58.3662 89.1884 58.194 89.2039 58.1042C89.2644 57.7523 89.3426 57.4039 89.4207 57.0559C89.5876 56.3127 89.7539 55.5718 89.746 54.8049C89.7291 53.1769 88.5105 50.4485 85.942 51.419C83.5802 52.3098 84.4379 54.7222 85.3277 56.2345C85.891 57.1915 86.6621 58.0459 87.468 58.8638C87.6118 59.0099 87.7712 59.2076 87.9291 59.4033C88.1635 59.6939 88.3945 59.9802 88.5653 60.0868C86.372 61.7482 84.1271 63.3608 81.8821 64.9736L81.8809 64.9745C80.8756 65.6966 79.8703 66.4188 78.8697 67.1453C78.8262 66.9859 78.7903 66.8279 78.7594 66.68C78.8219 66.7397 78.907 66.7676 79.0163 66.7621C79.0455 66.6399 79.0877 66.4776 79.1384 66.2826L79.1385 66.2824C79.7578 63.9012 81.6444 56.6485 76.5472 58.0562C72.8127 59.0905 75.4445 65.4039 78.228 67.6115C76.5373 68.8456 74.8626 70.0953 73.227 71.3824C72.0435 72.3136 70.895 73.2768 69.7901 74.2719C70.3623 72.9837 70.9017 71.3161 70.5491 69.9892C70.0357 68.0583 67.626 66.236 65.2715 67.3359C62.3364 68.7129 64.5927 70.5909 66.7086 72.3519C67.7889 73.2511 68.8327 74.1199 69.13 74.8759C65.6177 78.1404 62.6185 81.7667 60.6135 85.8969C58.4328 90.3884 56.4074 96.4233 57.5226 101.447C57.3174 99.2378 58.2021 96.4636 58.8234 94.5154C58.908 94.2501 58.9877 94.0001 59.0591 93.7689C59.9926 90.7473 61.3181 87.8071 63.064 85.055C65.8607 80.6471 69.5536 76.9047 73.8165 73.5065C74.7866 73.7918 75.84 74.3205 76.7125 74.7583L76.7126 74.7583L76.7127 74.7584C77.2478 75.0269 77.7148 75.2612 78.0527 75.3843C79.6827 75.9782 82.8124 76.829 83.8522 74.9559C84.8745 73.114 82.2684 72.0853 80.6532 71.6733C79.0923 71.2757 77.6849 71.3244 76.2283 71.6515C78.4847 69.9603 80.796 68.3226 83.1069 66.6853L83.1069 66.6853C83.532 66.3841 83.9571 66.0829 84.3817 65.7815C84.9687 66.1882 85.6168 66.7761 86.305 67.4004C88.4893 69.3818 91.077 71.7292 93.3904 69.8095C96.8817 66.9123 90.2095 63.9721 87.366 64.2032C87.0169 64.2313 86.6792 64.2937 86.3498 64.3784C89.2507 62.2965 92.1068 60.1717 94.808 57.8976C95.2926 57.9721 96.0635 58.5744 96.9896 59.298C99.0711 60.9242 101.936 63.1629 104.097 61.3983C105.656 60.1245 105.124 58.1418 103.618 57.0087C102.106 55.8707 99.9127 55.8735 98.0486 56.2579C97.2427 56.4232 96.4992 56.7383 95.8059 57.1224L95.7199 57.1264C98.378 54.865 101.052 52.5529 103.628 50.1619C103.673 50.1741 103.719 50.1866 103.765 50.1993C103.921 50.3605 104.182 50.4193 104.42 50.3836C104.552 50.4216 104.686 50.4608 104.823 50.5008C106.862 51.0949 109.483 51.8586 111.515 51.5278C113.012 51.2844 114.369 50.2558 113.104 48.9907C112.075 47.9618 109.282 48.1108 107.92 48.3552C107.255 48.4746 106.531 48.8201 105.805 49.1667L105.805 49.1668C105.5 49.3124 105.194 49.4582 104.893 49.5875C104.814 49.4539 104.678 49.3682 104.522 49.327C107.066 46.9244 109.493 44.4387 111.695 41.8452C112.361 41.9321 113.099 42.1791 113.861 42.4338C115.693 43.0468 117.66 43.7047 119.073 42.2854C121.159 40.1897 117.239 38.9687 115.376 39.1685C114.747 39.2359 114.126 39.3869 113.527 39.5863C115.129 37.4511 116.353 35.1691 117.214 32.7726C117.222 32.7761 117.23 32.7797 117.237 32.7834C117.244 32.7864 117.25 32.7894 117.257 32.7923C117.263 32.795 117.269 32.7977 117.277 32.8004C117.254 32.7901 117.236 32.779 117.215 32.7686C117.301 32.5288 117.383 32.288 117.462 32.0463C117.608 31.9777 117.744 31.9272 117.809 31.9064C116.962 32.4003 120.534 32.6403 121.203 32.6852C122.681 32.7843 124.663 32.8208 125.748 31.7961C126.66 30.9353 126.607 29.6643 125.492 28.9449ZM57.3015 101.249C57.3668 101.92 57.5609 102.532 57.943 103.034C57.6625 102.46 57.4521 101.863 57.3015 101.249Z" fill="#C1DEE2"/>
<g opacity="0.7">
<path fill-rule="evenodd" clip-rule="evenodd" d="M303.525 170.119C308.832 169.844 315.395 172.941 315.961 178.71C316.373 182.901 316.245 187.081 316.882 191.266C317.391 194.611 318.467 197.822 319.935 200.869C321.347 203.799 324.275 206.293 325.037 209.423C325.523 211.417 325.251 214.222 324.581 216.173C323.767 218.545 324.2 218.358 325.822 220.348C329.001 224.248 331.863 228.247 333.887 232.906C336.803 239.615 338.714 247.457 337.632 254.802C337.495 255.734 337.331 259.081 336.047 259.315C334.613 259.577 335.284 257.663 335.36 257.044C335.848 253.099 336.282 249.651 335.693 245.644C333.422 230.184 322.331 219.998 315.109 206.877C314.712 206.2 313.874 204.589 313.292 203.526C312.372 201.848 311.447 198.655 310.201 197.41C307.856 195.066 310.012 199.779 310.469 200.679C311.047 201.817 311.683 203.026 312.275 204.023C314.984 208.646 318.009 213.692 320.807 218.457C308.705 221.214 300.181 206.665 296.934 197.1C294.258 189.219 291.056 170.793 303.525 170.119Z" fill="#69A1AC"/>
<path fill-rule="evenodd" clip-rule="evenodd" d="M374.655 155.483C365.783 156.187 360.087 162.041 357.436 170.229C356.007 174.641 355.843 179.174 355.049 183.709C353.855 190.531 351.285 195.701 346.262 200.562C344.706 202.067 343.559 203.613 342.744 205.266C341.126 206.917 339.718 208.786 338.683 211.07C337.362 213.987 336.988 217.487 338.514 220.395C338.924 221.177 339.948 222.746 341.008 223.459C337.037 231.918 334.853 241.182 335.099 250.434C335.248 256.019 335.52 261.607 335.839 267.185C335.924 268.683 336.412 271.156 337.145 268.644C337.815 266.346 336.974 262.74 336.896 260.339C336.518 248.646 336.194 238.014 341.008 227.089C341.512 225.944 342.048 224.809 342.605 223.682C342.638 223.663 342.668 223.64 342.699 223.618C342.72 223.634 342.739 223.652 342.761 223.668C342.796 223.604 342.845 223.529 342.902 223.444C343.062 223.279 343.201 223.071 343.334 222.838C343.761 222.247 344.244 221.551 344.247 221.171C344.247 221.168 344.245 221.163 344.245 221.16C347.225 216.296 350.638 211.7 354.124 207.194C354.098 207.227 357.905 202.042 357.317 204.909C357.033 206.291 354.232 208.922 353.101 210.386C350.599 213.641 347.661 217.767 345.219 221.756C344.89 221.944 344.426 222.872 344.091 223.562C343.905 223.912 343.732 224.265 343.562 224.572C352.214 227.43 358.944 221.673 363.533 214.975C363.539 214.968 363.544 214.959 363.549 214.952C364.946 213.101 366.376 211.264 368.163 209.801C371.145 207.36 374.338 206.929 377.854 205.728C387.441 202.452 391.518 190.027 392.812 180.807C394.273 170.406 387.128 154.457 374.655 155.483Z" fill="#89C5CC"/>
<path fill-rule="evenodd" clip-rule="evenodd" d="M357.13 126.355C348.025 135.832 343.626 148.976 340.142 161.333C336.252 175.134 333.682 189.149 333.584 203.498C333.519 212.926 333.263 222.412 333.813 231.829C334.008 235.173 334.341 238.523 334.872 241.831C334.915 242.103 336.101 249.49 337.236 247.769C337.881 246.79 336.02 240.106 335.88 238.993C335.089 232.722 334.905 226.406 334.943 220.09C335.007 209.692 334.7 199.346 335.754 188.986C335.911 187.439 336.036 185.814 336.403 184.301C336.793 182.692 336.296 183.395 337.567 182.758C338.802 182.139 340.328 182.227 341.609 181.45C346.69 178.369 349.29 170.454 351.313 165.26C353.627 159.322 355.033 152.989 356.157 146.739C356.982 142.147 357.571 137.583 357.905 132.932C358.01 131.466 358.016 129.933 358.305 128.492C358.382 128.103 358.772 127.416 358.757 127.071C358.727 126.343 358.288 125.914 358.252 125.302C357.87 125.645 357.496 125.996 357.13 126.355Z" fill="#89C5CC"/>
<path fill-rule="evenodd" clip-rule="evenodd" d="M307.481 252.617C307.481 268.289 320.186 280.994 335.858 280.994C351.53 280.994 364.235 268.289 364.235 252.617" fill="#89C5CC"/>
<path fill-rule="evenodd" clip-rule="evenodd" d="M355.304 227.771C362.327 227.253 370.17 232.919 373.558 238.816C376.289 243.57 375.829 249.812 374.142 254.863C373.012 258.244 370.547 263.065 366.436 263.112C361.292 263.171 361.044 256.813 360.945 253.097C360.813 248.156 360.188 243.852 356.295 240.484C355.814 240.069 355.31 239.679 354.806 239.29C354.358 238.945 353.91 238.6 353.479 238.236C353.411 238.178 353.341 238.119 353.272 238.061C351.895 236.904 350.449 235.689 350.273 233.781C350.018 231.018 351.578 230.52 353.96 231.034C354.037 231.05 354.246 231.129 354.53 231.237C355.746 231.698 358.342 232.682 357.851 231.506C357.667 231.063 356.991 230.711 356.139 230.448C353.933 230.208 351.302 229.93 350.546 230.096C342.384 231.887 339.207 243.192 338.363 250.375C338.272 251.15 338.198 251.928 338.134 252.707H336.635C336.739 250.826 336.876 248.948 337.19 247.087C338.393 239.973 342.154 229.523 350.403 228.368C350.708 228.325 351.827 228.318 353.183 228.397C353.826 228.038 354.545 227.821 355.304 227.771Z" fill="#69A1AC"/>
</g>
<g opacity="0.5">
<path fill-rule="evenodd" clip-rule="evenodd" d="M77.8305 118.291C79.4641 115.962 82.4955 110.046 84.7947 109.214C86.2756 108.678 85.8438 114.223 85.8621 115.281C85.9333 119.372 85.535 123.437 85.0432 127.493C84.1572 134.809 81.2598 141.324 77.286 147.551C75.2411 150.755 72.8426 153.997 69.5206 155.997C67.9915 156.917 66.1516 157.071 64.6414 157.865C62.8827 158.788 63.8405 158.041 63.0479 159.874C61.9472 162.419 61.5951 165.701 61.0859 168.416C58.7475 180.88 53.0864 246.764 54.0679 259.442C54.155 260.566 52.5882 260.835 52.51 259.463C52.0942 252.189 55.6917 201.819 57.5067 185.347C59.3217 168.875 61.1584 154.322 63.0001 148.623C65.2343 141.709 69.2694 133.394 72.6283 126.947C74.1885 123.951 75.8892 121.059 77.8305 118.291Z" fill="#69A1AC"/>
<path fill-rule="evenodd" clip-rule="evenodd" d="M89.9556 199.081C94.2063 195.96 98.8074 201.85 94.961 204.971C92.8345 206.696 90.6115 206.082 89.36 204.645C88.5476 205.635 87.7872 206.67 87.0565 207.545C84.8304 210.21 82.7264 212.939 80.7156 215.731C76.5384 221.532 72.9586 227.661 69.2157 233.677C65.522 239.615 61.8577 245.584 58.5098 251.672C55.6736 256.831 51.8933 262.899 50.9222 268.554C52.3955 256.561 57.9861 245.033 64.6434 234.46C71.2466 223.973 78.8245 212.521 89.0487 204.245C88.0081 202.715 87.9792 200.531 89.9556 199.081Z" fill="#C1DEE2"/>
<path fill-rule="evenodd" clip-rule="evenodd" d="M9.29485 169.832C11.6736 170.297 15.5603 175.678 17.5211 177.729C19.8513 180.165 21.9654 182.762 23.9582 185.483C28.2482 191.339 32.0849 197.566 35.3474 204.059C40.6661 214.644 44.9271 225.511 48.0195 237.038C49.9125 244.094 51.1381 251.407 51.8645 258.669C52.0016 260.039 53.4376 270.598 51.3685 270.883C49.5075 271.139 50.0823 262.865 49.9925 261.739C48.9777 249.041 45.9375 236.687 41.7087 224.718C40.7876 222.111 39.9319 218.918 38.4589 216.572C37.398 214.882 38.4512 215.471 36.587 214.831C34.9863 214.282 33.1625 214.416 31.5233 213.744C27.9623 212.283 25.111 209.448 22.6116 206.597C17.7545 201.055 13.9054 195.059 11.8991 187.958C10.7861 184.021 9.76333 180.061 9.19575 176.002C9.04893 174.953 7.76275 169.533 9.29485 169.832Z" fill="#69A1AC"/>
<path fill-rule="evenodd" clip-rule="evenodd" d="M18.6816 80.3025C27.6416 95.8415 35.0046 112.911 39.759 130.199C42.6396 140.674 44.654 151.423 46.6556 162.094C49.7546 178.617 52.6859 195.139 53.5197 211.955C54.3586 228.869 56.0174 248.377 50.479 264.668C53.2455 248.128 50.6116 230.523 50.1452 213.881C49.9224 205.936 49.2766 198.069 48.4294 190.171C47.6073 182.509 46.2643 174.884 45.0136 167.282C44.4043 163.58 43.7645 159.884 43.113 156.189C42.9186 155.087 42.8364 151.816 42.1372 151.063C41.4335 150.305 37.8429 149.996 36.7156 149.44C34.4457 148.32 32.3105 146.729 30.4208 145.048C26.7983 141.825 23.6469 137.614 21.1595 133.463C15.4044 123.858 13.1035 112.137 13.2198 101.013C13.2421 98.8532 16.7154 75.5965 15.3205 75.2763C15.4045 75.1779 15.4839 75.0763 15.5588 74.9707C16.6149 76.7389 17.6512 78.5191 18.6816 80.3025Z" fill="#89C5CC"/>
<path fill-rule="evenodd" clip-rule="evenodd" d="M115.391 136.345C115.529 136.146 116.429 134.759 115.976 134.847C116.898 134.667 114.707 136.377 117.005 135.328C115.914 136.359 116.544 137.698 116.558 139.085C116.582 141.337 116.205 143.571 115.781 145.775C115.111 149.259 114.112 152.646 112.663 155.887C109.504 162.949 104.139 169.747 97.7707 174.162C94.6267 176.342 91.5455 177.084 87.9598 178.087C85.6949 178.721 85.5153 179.893 84.3131 182.091C81.8102 186.668 79.3519 191.229 77.1446 195.961C74.5089 201.612 71.9502 207.269 69.5367 213.019C61.406 232.387 54.7883 252.453 51.3129 273.22C51.2278 260.982 54.0588 248.378 57.6298 236.714C60.231 228.215 63.6174 220.023 67.2293 211.914C68.1045 209.949 69.4308 207.422 69.8025 205.253C70.0627 203.733 69.2671 202.272 68.9028 200.671C67.4825 194.437 67.5842 187.453 68.8314 181.185C70.2065 174.274 74.1833 171.067 80.9105 170.088C83.3708 169.73 86.4978 169.861 88.7538 168.812C91.2116 167.669 92.2255 163.915 93.6231 161.504C97.3771 155.03 101.837 148.82 106.959 143.364C108.377 141.854 109.902 140.46 111.52 139.168C112.54 138.353 114.695 137.349 115.391 136.345Z" fill="#89C5CC"/>
<path fill-rule="evenodd" clip-rule="evenodd" d="M38.034 262.231C37.8609 261.057 38.7705 260.004 39.9568 260.004H63.8311C65.0175 260.004 65.927 261.057 65.754 262.231L63.9087 274.744C63.3462 278.558 60.073 281.384 56.2174 281.384H47.5706C43.715 281.384 40.4418 278.558 39.8793 274.744L38.034 262.231Z" fill="#C1DEE2"/>
</g>
<path fill-rule="evenodd" clip-rule="evenodd" d="M18.4326 266.4C18.4326 274.675 19.0856 281.383 27.8506 281.383C36.6155 281.383 37.2685 274.675 37.2685 266.4" fill="#F2F2F2"/>
<path fill-rule="evenodd" clip-rule="evenodd" d="M30.4577 261.237C30.1364 261.793 29.8499 262.36 29.5969 262.935C29.5879 261.75 29.6534 260.557 29.8323 259.348C30.138 257.276 30.6049 255.215 31.0436 253.158C31.359 251.679 31.3391 249.023 32.5358 247.845C32.8639 247.59 32.9429 248.089 32.9429 248.306C32.9471 248.352 32.942 247.421 32.6235 247.583C30.7302 248.561 30.1167 251.636 29.5105 253.175C28.6262 255.422 27.8737 257.719 27.5638 260.057C27.4855 260.648 27.4429 261.238 27.4331 261.828C27.3687 261.67 27.3083 261.511 27.2414 261.354C26.1487 258.791 24.6739 256.29 22.8346 253.984C22.3819 253.416 16.6893 247.817 16.2437 248.674C16.2877 248.798 16.3797 248.902 16.5201 248.984C16.5284 248.993 16.5286 248.988 16.5238 248.974C16.8581 249.514 17.8087 250.348 18.1048 250.821C18.8499 252.012 19.429 253.276 20.0175 254.516C21.261 257.135 22.4144 259.782 23.5326 262.433C23.793 263.051 24.0643 263.665 24.3412 264.277C21.4872 260.161 17.68 256.424 12.439 254.284C14.229 255.195 15.4026 256.908 16.6115 258.22C18.0695 259.803 19.6051 261.342 21.0659 262.923C22.7888 264.788 24.8161 266.751 26.4734 268.814C28.0786 272.185 29.6385 275.558 30.6015 279.101C30.2069 277.877 30.5705 276.186 30.503 274.901C30.4494 273.878 30.3299 272.864 30.1661 271.852C30.3686 272.309 30.5431 272.766 30.6221 273.191C30.5499 272.478 30.4668 271.769 30.3775 271.065C30.6067 270.405 30.8318 269.79 30.9839 269.283C31.7631 266.681 32.691 264.125 33.9546 261.633C35.1239 259.329 36.4651 257.053 37.9265 254.847C38.6083 253.819 39.2994 252.794 39.9861 251.767C40.4356 251.095 40.8636 250.019 41.4895 249.376C37.4441 253.074 33.0242 256.8 30.4577 261.237Z" fill="#F2F2F2"/>
<path fill-rule="evenodd" clip-rule="evenodd" d="M381.196 48.8609C380.036 44.9926 377.313 41.965 374.487 39.1909C368.984 33.7904 366.025 30.4513 364.064 22.5514C362.911 17.9053 361.737 12.9818 358.079 9.611C355.415 7.1563 350.831 5.09391 347.269 6.85167C341.789 10.1224 340.318 16.8344 340.87 22.8447C341.555 30.294 345.035 34.8872 351.72 37.631C355.487 39.1762 357.99 41.2152 360.035 44.7681C361.671 47.6092 362.624 51.1667 364.679 53.7422C367.752 57.5922 371.597 59.3036 376.337 58.6641C371.897 50.4965 366.711 42.2521 360.455 35.3753C359.869 34.6839 356.415 32.0377 357.112 30.8594C357.879 29.5621 361.425 34.4355 361.4 34.406C363.218 36.4929 364.9 38.7105 366.552 40.9494C366.548 40.9516 366.543 40.9528 366.539 40.9551C368.239 43.2525 369.927 45.5838 371.582 47.9443C372.251 48.9427 372.903 49.954 373.527 50.9906C374.442 52.5116 375.894 56.8287 377.392 57.764C377.713 57.964 378.009 58.0758 378.286 58.1219C379.308 59.7951 380.302 61.4817 381.248 63.1883C383.717 67.6454 385.837 72.3515 386.81 77.3836C387.094 78.8523 386.893 84.3463 387.895 85.4065C389.728 87.3459 389.191 83.6113 389.082 82.484C388.171 73.1494 384.82 65.1968 379.955 57.3492C381.449 55.397 381.665 50.4283 381.196 48.8609Z" fill="#F2F2F2"/>
<path fill-rule="evenodd" clip-rule="evenodd" d="M318.416 53.3698C320.348 51.0929 324.993 50.7066 327.834 50.859C331.35 51.0476 334.961 51.9034 338.305 52.9382C343.815 54.6426 349.169 57.7531 354.021 60.7636C354.606 61.1264 361.81 65.4589 361.172 66.2192C360.541 66.9725 353.468 61.8262 351.892 60.9392C348.529 59.0459 345.444 56.8068 341.737 55.5565C337.898 54.2617 333.838 53.749 329.801 53.7843C329.283 53.789 327.593 53.4277 327.557 54.1942C327.521 54.9438 330.317 54.5527 330.81 54.5572C332.847 54.5759 334.896 54.7676 336.903 55.1205C340.665 55.7817 344.201 57.1137 347.423 59.1567C346.524 61.2468 344.369 62.2106 342.109 61.6875C340.155 61.2352 338.25 60.1202 336.337 59.7977C335.02 59.5757 333.7 59.7078 332.423 60.079C329.052 61.0585 327.109 63.065 323.403 61.6693C320.498 60.5751 315.64 56.6441 318.416 53.3698Z" fill="#F2F2F2"/>
<path fill-rule="evenodd" clip-rule="evenodd" d="M310.106 16.684C305.815 16.371 301.023 19.7955 298.954 23.3592C297.285 26.2324 297.566 30.0053 298.597 33.0579C299.287 35.1015 300.793 38.0152 303.305 38.0436C306.447 38.0792 306.599 34.2369 306.659 31.9908C306.74 29.0046 307.122 26.4032 309.5 24.3677C309.794 24.1165 310.102 23.8813 310.41 23.6461C310.684 23.4373 310.957 23.2286 311.221 23.0087C311.263 22.9736 311.305 22.9384 311.347 22.9031C312.188 22.2038 313.072 21.4693 313.179 20.3165C313.335 18.646 312.382 18.3454 310.927 18.6557C310.88 18.6657 310.752 18.7136 310.579 18.7786C309.835 19.0573 308.249 19.652 308.549 18.9411C308.662 18.6732 309.075 18.4609 309.596 18.3019C310.943 18.1569 312.551 17.9888 313.013 18.0892C317.999 19.1714 319.94 26.0042 320.456 30.3455C320.514 30.837 320.561 31.3302 320.602 31.8242H321.516C321.452 30.664 321.368 29.5058 321.172 28.3586C320.437 24.0585 318.14 17.7427 313.1 17.0448C312.914 17.0188 312.23 17.0144 311.402 17.0625C311.009 16.8454 310.569 16.7142 310.106 16.684Z" fill="#F2F2F2"/>
<path fill-rule="evenodd" clip-rule="evenodd" d="M122.907 173.546C125.735 175.252 128.514 176.076 129.818 175.74C133.089 174.896 133.389 162.924 130.859 158.204C128.329 153.484 115.32 151.427 114.664 160.779C114.437 164.024 115.798 166.92 117.81 169.283L114.202 186.112H124.682L122.907 173.546Z" fill="#B28B67"/>
<path fill-rule="evenodd" clip-rule="evenodd" d="M131.847 160.323C131.743 159.711 131.49 159.032 131.285 158.453C131.021 157.707 130.622 157.034 130.182 156.4C129.355 155.206 128.362 154.128 127.266 153.234C125.264 151.6 122.715 150.657 120.209 150.963C118.944 151.118 117.716 151.601 116.67 152.405C115.726 153.131 114.817 154.2 113.594 154.277C112.263 154.361 111.043 153.185 109.976 152.459C108.772 151.641 107.492 151.044 106.086 150.812C103.729 150.424 101.516 151.221 99.892 153.155C98.164 155.214 96.9079 158.233 98.0427 160.961C98.2536 161.468 98.525 161.895 98.9144 162.249C99.2716 162.574 99.8171 162.92 99.9619 163.439C100.116 163.991 99.6563 164.703 99.4781 165.2C99.2228 165.914 99.0132 166.663 99.0878 167.438C99.2102 168.711 100.01 169.927 100.854 170.764C101.713 171.615 102.771 172.104 103.9 172.329C104.655 172.479 105.425 172.562 106.192 172.506C106.572 172.478 106.908 172.372 107.277 172.288C107.635 172.206 107.836 172.301 108.14 172.498C109.553 173.412 111.072 173.766 112.704 173.63C114.081 173.515 115.668 173.181 116.792 172.237C118.039 171.188 118.014 169.742 117.721 168.197C118.032 168.352 118.892 168.447 118.378 167.832C118.174 167.589 117.79 167.49 117.528 167.346C117.224 167.18 116.915 166.964 116.679 166.692C115.724 165.594 116.688 163.358 117.887 162.99C119.669 162.443 120.068 164.965 121.34 165.617C122.072 165.992 122.837 165.479 123.385 164.956C124.118 164.255 124.619 163.326 125.051 162.38C125.406 161.602 125.737 160.813 126.1 160.038C126.269 159.676 126.856 158.654 126.561 158.245C127.837 157.99 129.259 158.521 130.358 159.217C130.812 159.504 131.159 159.822 131.401 160.33C131.453 160.438 131.566 160.762 131.708 160.775C131.972 160.8 131.873 160.477 131.847 160.323Z" fill="#191847"/>
<path fill-rule="evenodd" clip-rule="evenodd" d="M87.6728 241.17C84.2379 241.17 81.4532 243.955 81.4532 247.39V289.135C81.4532 292.57 84.2379 295.355 87.6728 295.355H139.424C142.859 295.355 145.643 292.57 145.643 289.135V247.39C145.643 243.955 142.859 241.17 139.424 241.17H87.6728ZM95.2338 253.405C94.375 253.405 93.6789 254.101 93.6789 254.96V281.565C93.6789 282.423 94.375 283.119 95.2338 283.119H131.861C132.719 283.119 133.416 282.423 133.416 281.565V254.96C133.416 254.101 132.719 253.405 131.861 253.405H95.2338Z" fill="#C5CFD6"/>
<path fill-rule="evenodd" clip-rule="evenodd" d="M188.94 293.169C180.331 282.648 174.506 274.849 171.465 269.771C166.257 261.075 161.996 253.338 160.651 250.382C157.443 243.334 168.034 240.034 170.431 243.321C174.059 248.297 181.807 263.954 193.674 290.292L188.94 293.169Z" fill="#B28B67"/>
<path fill-rule="evenodd" clip-rule="evenodd" d="M171.299 290.109L155.276 249.749C151.85 242.392 168.398 237.555 170.917 240.979C176.635 248.753 190.224 279.418 191.928 281.734L171.299 290.109Z" fill="#2F3676"/>
<path fill-rule="evenodd" clip-rule="evenodd" d="M128.627 282.017C131.748 277.461 143.1 262.133 149.284 255.791C151.061 253.969 152.794 252.22 154.434 250.59C159.308 245.745 169.014 253.888 164.149 258.301C152.033 269.291 134.355 284.127 132.878 285.45C130.808 287.304 126.665 284.88 128.627 282.017Z" fill="#B28B67"/>
<path fill-rule="evenodd" clip-rule="evenodd" d="M130.587 280.056C130.319 279.687 129.798 279.6 129.449 279.892C128.734 280.489 127.642 281.461 127.258 282.128C126.667 283.151 125.875 285.312 125.875 285.312C127.061 285.997 147.204 297.635 147.204 297.635C147.204 297.635 149.622 295.365 147.958 294.111C146.293 292.856 145.21 291.995 145.21 291.995L137.819 281.805C137.69 281.627 137.441 281.591 137.267 281.725L135.699 282.934C135.699 282.934 133.594 282.75 132.557 282.151C131.9 281.771 131.091 280.751 130.587 280.056Z" fill="#E4E4E4"/>
<path fill-rule="evenodd" clip-rule="evenodd" d="M186.352 291.066C185.936 290.88 185.441 291.066 185.284 291.493C184.964 292.368 184.504 293.756 184.504 294.526C184.504 295.708 184.897 297.975 184.897 297.975C186.268 297.975 209.526 297.975 209.526 297.975C209.526 297.975 210.486 294.799 208.418 294.546C206.349 294.293 204.981 294.089 204.981 294.089L193.489 288.962C193.289 288.873 193.055 288.966 192.971 289.169L192.217 291.001C192.217 291.001 190.302 291.895 189.105 291.895C188.346 291.895 187.136 291.416 186.352 291.066Z" fill="#E4E4E4"/>
<path fill-rule="evenodd" clip-rule="evenodd" d="M149.511 251.767C149.511 251.767 129.536 248.51 122.751 247.313C109.86 245.038 106.1 238.096 108.323 222.949L132.076 222.949C136.791 224.312 171.478 239.803 171.478 239.803C175.638 241.87 174.863 247.964 174.103 249.972C174.056 250.094 153.061 286.053 153.061 286.053L133.63 273.666L149.547 253.226C149.547 253.226 150.178 251.955 149.511 251.767Z" fill="#5C63AB"/>
<path fill-rule="evenodd" clip-rule="evenodd" d="M85.9936 242.005C87.2733 239.407 93.6667 205.973 93.6667 205.973L103.229 206.009C103.229 206.009 92.3046 241.426 91.631 243.096C90.756 245.266 92.2423 248.419 93.2502 250.557C93.4062 250.888 93.5506 251.194 93.6731 251.469C92.2746 252.095 91.6028 251.338 90.8946 250.54C90.0947 249.639 89.2482 248.685 87.2556 249.613C86.4858 249.971 85.7573 250.395 85.0456 250.809C82.5872 252.239 80.3287 253.553 77.2564 251.656C76.7694 251.355 76.2356 250.223 77.5252 249.338C80.7381 247.133 85.3681 243.275 85.9936 242.005ZM166.525 228.977L154.155 216.902L150.046 224.015L162.909 231.605C166.135 236.689 168.029 238.886 168.592 238.195C169.067 237.613 168.849 236.974 168.649 236.386C168.493 235.928 168.347 235.501 168.547 235.154C169.004 234.363 171.587 234.816 174.019 235.351C176.452 235.886 175.889 234.691 175.372 234.067C173.073 232.21 170.124 230.514 166.525 228.977Z" fill="#B28B67"/>
<path fill-rule="evenodd" clip-rule="evenodd" d="M122.802 178.829L126.578 178.181C132.526 199.222 163.088 213.564 164.964 221.43C165.652 224.314 163.577 225.772 164.649 226.651L159.741 230.246C158.91 229.276 157.136 231.051 153.432 229.809C149.729 228.568 122.802 203.743 122.802 178.829Z" fill="#FF9533"/>
<path fill-rule="evenodd" clip-rule="evenodd" d="M115.896 174.422C115.039 174.362 114.296 175.008 114.236 175.864L114.044 178.617C106.938 184.09 89.3258 200.442 84.7363 230.883C84.2542 234.08 85.1261 235.793 85.8227 237.162C86.2992 238.098 86.6938 238.873 86.5168 239.852L92.94 241.626C92.94 240.903 93.7495 240.353 94.7939 239.644C96.3126 238.612 98.3278 237.243 99.0729 234.514C99.7792 231.928 100.813 228.697 102.049 225.104C102.166 229.863 103.068 234.24 105.033 237.866C109.935 246.912 138.267 236.991 141.227 227.763C142.806 222.839 140.565 218.705 137.601 213.237C133.838 206.297 128.911 197.207 129.154 181.626L129.482 176.931C129.542 176.075 128.896 175.332 128.04 175.272L115.896 174.422Z" fill="#FFAA5C"/>
<path fill-rule="evenodd" clip-rule="evenodd" d="M245.995 145.972C243.163 147.679 240.381 148.503 239.075 148.167C235.8 147.322 235.499 135.341 238.033 130.617C240.567 125.894 253.595 123.835 254.251 133.194C254.479 136.442 253.115 139.341 251.1 141.707L254.713 158.547H244.217L245.995 145.972Z" fill="#B28B67"/>
<path fill-rule="evenodd" clip-rule="evenodd" d="M238.717 128.787C238.809 128.216 238.627 127.936 240.922 126.328C243.216 124.72 246.921 122.824 250.653 123.649C255.496 124.72 257.42 127.915 259.287 129.468C260.971 130.868 262.66 131.031 263.661 132.768C264.662 134.505 265.194 139.503 264.324 141.49C263.123 144.232 260.755 144.97 259.027 145.759C256.062 147.114 251.872 145.683 251.771 145.446C250.985 143.614 246.759 138.443 244.217 136.271C242.347 134.674 238.285 131.466 238.717 128.787Z" fill="#5C63AB"/>
<mask id="mask0" mask-type="alpha" maskUnits="userSpaceOnUse" x="238" y="123" width="27" height="24">
<path fill-rule="evenodd" clip-rule="evenodd" d="M238.717 128.787C238.809 128.216 238.627 127.936 240.922 126.328C243.216 124.72 246.921 122.824 250.653 123.649C255.496 124.72 257.42 127.915 259.287 129.468C260.971 130.868 262.66 131.031 263.661 132.768C264.662 134.505 265.194 139.503 264.324 141.49C263.123 144.232 260.755 144.97 259.027 145.759C256.062 147.114 251.872 145.683 251.771 145.446C250.985 143.614 246.759 138.443 244.217 136.271C242.347 134.674 238.285 131.466 238.717 128.787Z" fill="white"/>
</mask>
<g mask="url(#mask0)">
<path fill-rule="evenodd" clip-rule="evenodd" d="M234.82 171.243C247.731 155.32 250.769 136.117 250.769 136.117L254.658 138.577C254.658 138.577 249.875 159.562 234.82 171.243ZM229.908 179.992C250.802 161.633 255.785 141.002 255.785 141.002L260.283 142.328C260.283 142.328 254.084 165.399 229.908 179.992Z" fill="black" fill-opacity="0.2"/>
</g>
<path fill-rule="evenodd" clip-rule="evenodd" d="M261.695 195.477L245.263 249.302L237.303 295.077H231.061L239.473 195.477H261.695Z" fill="#997659"/>
<path fill-rule="evenodd" clip-rule="evenodd" d="M267.573 195.477C266.457 225.03 267.771 240.273 268.021 242.959C268.27 245.644 271.691 263.053 279.789 295.978L273.138 293.69C260.34 263.493 255.979 247.799 254.512 243.834C253.044 239.868 249.145 223.749 242.816 195.477H267.573Z" fill="#B28B67"/>
<path fill-rule="evenodd" clip-rule="evenodd" d="M278.622 293.125C279.038 292.939 279.534 293.125 279.69 293.553C280.011 294.429 280.471 295.819 280.471 296.589C280.471 297.773 280.077 300.043 280.077 300.043C278.707 300.043 255.448 300.043 255.448 300.043C255.448 300.043 254.488 296.863 256.557 296.61C258.625 296.356 259.993 296.152 259.993 296.152L271.485 291.019C271.685 290.929 271.92 291.023 272.003 291.226L272.758 293.06C272.758 293.06 274.673 293.955 275.87 293.955C276.628 293.955 277.838 293.476 278.622 293.125Z" fill="#E4E4E4"/>
<path fill-rule="evenodd" clip-rule="evenodd" d="M237.577 293.125C237.993 292.939 238.488 293.125 238.645 293.553C238.965 294.429 239.425 295.819 239.425 296.589C239.425 297.773 239.032 300.043 239.032 300.043C237.662 300.043 214.403 300.043 214.403 300.043C214.403 300.043 213.443 296.863 215.511 296.61C217.58 296.356 218.948 296.152 218.948 296.152L230.44 291.019C230.64 290.929 230.874 291.023 230.958 291.226L231.712 293.06C231.712 293.06 233.627 293.955 234.824 293.955C235.583 293.955 236.792 293.476 237.577 293.125Z" fill="#E4E4E4"/>
<path fill-rule="evenodd" clip-rule="evenodd" d="M263.878 195.477L256.891 222.9H235.551L238.733 195.477H263.878Z" fill="#69A1AC"/>
<path fill-rule="evenodd" clip-rule="evenodd" d="M267.808 195.477C271.257 205.833 269.118 222.9 269.118 222.9H247.342L241.354 195.477H267.808Z" fill="#89C5CC"/>
<path fill-rule="evenodd" clip-rule="evenodd" d="M201.38 151.878L218.486 154.49L215.275 162.048L201.458 156.344C195.451 156.827 192.554 156.636 192.766 155.771C192.946 155.042 193.587 154.832 194.178 154.638C194.638 154.487 195.068 154.347 195.224 153.978C195.581 153.137 193.663 151.349 191.77 149.729C189.877 148.109 191.172 147.839 191.982 147.876C194.851 148.595 197.984 149.929 201.38 151.878ZM211.606 195.242L223.997 183.175L228.109 190.281L215.226 197.866C211.994 202.946 210.097 205.141 209.533 204.451C209.058 203.869 209.276 203.232 209.477 202.644C209.633 202.187 209.779 201.76 209.579 201.413C209.121 200.623 206.535 201.076 204.099 201.611C201.663 202.146 202.227 200.952 202.745 200.328C205.047 198.473 208.001 196.778 211.606 195.242Z" fill="#B28B67"/>
<path fill-rule="evenodd" clip-rule="evenodd" d="M241.621 152.888C236.067 167.947 226.697 180.209 212.495 193.583L219.411 199.465C236.101 190.458 244.84 185.211 247.544 171.341C248.223 167.86 247.536 157.164 247.44 151.498L241.621 152.888Z" fill="#2026A2"/>
<path fill-rule="evenodd" clip-rule="evenodd" d="M269.207 196.583L235.861 201.27C235.861 201.27 242.344 165.185 240.783 152.295C240.73 151.857 241.43 150.974 241.801 151.024C245.88 151.579 250.081 149.017 250.081 149.017C259.77 160.598 264.699 175.839 269.207 196.583Z" fill="#F2F2F2"/>
<path fill-rule="evenodd" clip-rule="evenodd" d="M244.438 169.555C242.364 192.587 245.17 210.808 256.668 209.192L274.447 206.693C274.609 187.352 263.496 162.13 254.753 149.848C254.42 149.379 253.726 148.504 252.409 148.689L247.242 149.415C247.241 149.423 247.24 149.43 247.238 149.437C245.686 149.669 243.982 149.966 242.136 150.288C232.636 151.946 219.389 154.257 203.738 151.563L203.21 160.618C217.947 167.396 232.579 172.195 244.438 169.555Z" fill="#1F28CF"/>
</svg>
