<svg width="339" height="258" viewBox="0 0 339 258" fill="none" xmlns="http://www.w3.org/2000/svg">
<g filter="url(#filter0_d)">
<rect x="31" y="16" width="277.038" height="196" rx="24.5" fill="#C1DEE2"/>
</g>
<path d="M111.805 133L114.612 124.376H128.259L131.065 133H139.634L126.597 95.1818H116.293L103.237 133H111.805ZM116.643 118.135L121.297 103.824H121.592L126.246 118.135H116.643ZM144.185 133H151.941V128.457H152.292C153.381 130.821 155.763 133.462 160.343 133.462C166.806 133.462 171.847 128.347 171.847 118.855C171.847 109.105 166.585 104.267 160.362 104.267C155.616 104.267 153.344 107.092 152.292 109.401H152.052V95.1818H144.185V133ZM151.886 118.818C151.886 113.759 154.028 110.527 157.85 110.527C161.746 110.527 163.815 113.906 163.815 118.818C163.815 123.767 161.71 127.202 157.85 127.202C154.065 127.202 151.886 123.878 151.886 118.818ZM189.912 133.554C197.464 133.554 202.21 129.122 202.579 122.604H195.156C194.694 125.632 192.7 127.331 190.004 127.331C186.329 127.331 183.947 124.247 183.947 118.818C183.947 113.463 186.348 110.398 190.004 110.398C192.885 110.398 194.731 112.3 195.156 115.125H202.579C202.247 108.57 197.279 104.267 189.875 104.267C181.27 104.267 175.951 110.232 175.951 118.929C175.951 127.553 181.177 133.554 189.912 133.554ZM214.374 121.662H221.373V121.034C221.41 117.433 222.702 115.753 225.62 113.999C229.073 111.949 231.326 109.234 231.326 104.895C231.326 98.4318 226.119 94.6648 218.788 94.6648C212.085 94.6648 206.619 98.1733 206.452 105.56H213.987C214.097 102.55 216.332 100.943 218.751 100.943C221.244 100.943 223.256 102.605 223.256 105.172C223.256 107.591 221.502 109.197 219.231 110.638C216.129 112.595 214.393 114.571 214.374 121.034V121.662ZM218.012 133.48C220.376 133.48 222.425 131.504 222.444 129.048C222.425 126.629 220.376 124.653 218.012 124.653C215.575 124.653 213.562 126.629 213.58 129.048C213.562 131.504 215.575 133.48 218.012 133.48Z" fill="#DDAAC4"/>
<defs>
<filter id="filter0_d" x="0.846153" y="0.923077" width="337.346" height="256.308" filterUnits="userSpaceOnUse" color-interpolation-filters="sRGB">
<feFlood flood-opacity="0" result="BackgroundImageFix"/>
<feColorMatrix in="SourceAlpha" type="matrix" values="0 0 0 0 0 0 0 0 0 0 0 0 0 0 0 0 0 0 127 0"/>
<feOffset dy="15.0769"/>
<feGaussianBlur stdDeviation="15.0769"/>
<feColorMatrix type="matrix" values="0 0 0 0 0 0 0 0 0 0 0 0 0 0 0 0 0 0 0.1 0"/>
<feBlend mode="normal" in2="BackgroundImageFix" result="effect1_dropShadow"/>
<feBlend mode="normal" in="SourceGraphic" in2="effect1_dropShadow" result="shape"/>
</filter>
</defs>
</svg>
