<svg width="414" height="367" viewBox="0 0 414 367" fill="none" xmlns="http://www.w3.org/2000/svg">
<path fill-rule="evenodd" clip-rule="evenodd" d="M313.175 225.894C308.258 183.909 44.4373 102.874 -4.54004 142.641C-53.5175 182.408 -6.43176 257.041 96.2068 276.152C198.845 295.263 318.092 267.878 313.175 225.894Z" fill="#F2F2F2"/>
<path fill-rule="evenodd" clip-rule="evenodd" d="M90.2624 196.801C94.803 161.133 338.427 92.291 383.655 126.075C428.883 159.858 417.435 230.919 322.654 247.155C227.873 263.39 85.7218 232.469 90.2624 196.801Z" fill="#DDE3E9" fill-opacity="0.5"/>
<path fill-rule="evenodd" clip-rule="evenodd" d="M294.691 82.5925C308.385 82.5925 319.487 71.4908 319.487 57.7962C319.487 44.1017 308.385 33 294.691 33C280.996 33 269.895 44.1017 269.895 57.7962C269.895 71.4908 280.996 82.5925 294.691 82.5925Z" fill="#F2F2F2"/>
<path fill-rule="evenodd" clip-rule="evenodd" d="M294.691 39.5503C295.466 39.5503 296.094 38.9219 296.094 38.1467C296.094 37.3716 295.466 36.7432 294.691 36.7432C293.916 36.7432 293.287 37.3716 293.287 38.1467C293.287 38.9219 293.916 39.5503 294.691 39.5503Z" fill="black" fill-opacity="0.1"/>
<path fill-rule="evenodd" clip-rule="evenodd" d="M275.04 59.2007C275.815 59.2007 276.444 58.5723 276.444 57.7971C276.444 57.022 275.815 56.3936 275.04 56.3936C274.265 56.3936 273.637 57.022 273.637 57.7971C273.637 58.5723 274.265 59.2007 275.04 59.2007Z" fill="black" fill-opacity="0.1"/>
<path fill-rule="evenodd" clip-rule="evenodd" d="M314.339 59.2007C315.114 59.2007 315.743 58.5723 315.743 57.7971C315.743 57.022 315.114 56.3936 314.339 56.3936C313.564 56.3936 312.936 57.022 312.936 57.7971C312.936 58.5723 313.564 59.2007 314.339 59.2007Z" fill="black" fill-opacity="0.1"/>
<path fill-rule="evenodd" clip-rule="evenodd" d="M294.691 78.8491C295.466 78.8491 296.094 78.2207 296.094 77.4456C296.094 76.6704 295.466 76.042 294.691 76.042C293.916 76.042 293.287 76.6704 293.287 77.4456C293.287 78.2207 293.916 78.8491 294.691 78.8491Z" fill="black" fill-opacity="0.1"/>
<path fill-rule="evenodd" clip-rule="evenodd" d="M294.69 40.9531L295.625 57.328H293.754L294.69 40.9531Z" fill="#AFB9C5"/>
<path fill-rule="evenodd" clip-rule="evenodd" d="M302.971 66.0767L294.37 58.7986L295.693 57.4753L302.971 66.0767Z" fill="#AFB9C5"/>
<path fill-rule="evenodd" clip-rule="evenodd" d="M294.69 59.6667C295.723 59.6667 296.561 58.8288 296.561 57.7952C296.561 56.7617 295.723 55.9238 294.69 55.9238C293.656 55.9238 292.818 56.7617 292.818 57.7952C292.818 58.8288 293.656 59.6667 294.69 59.6667Z" fill="#C5CFD6"/>
<g clip-path="url(#clip0)">
<path fill-rule="evenodd" clip-rule="evenodd" d="M139.159 94.0974C150.141 94.0974 159.043 89.3844 159.043 83.5707C159.043 77.7569 150.141 73.0439 139.159 73.0439C128.178 73.0439 119.275 77.7569 119.275 83.5707C119.275 89.3844 128.178 94.0974 139.159 94.0974Z" fill="#F2F2F2"/>
<path fill-rule="evenodd" clip-rule="evenodd" d="M162.318 90.8224C162.318 77.9029 151.949 67.4297 139.159 67.4297C126.369 67.4297 116 77.9029 116 90.8224" fill="#DDE3E9"/>
<rect x="137.988" y="-4" width="2.33927" height="74.8566" fill="#DDE3E9"/>
</g>
<g opacity="0.7" clip-path="url(#clip1)">
<path fill-rule="evenodd" clip-rule="evenodd" d="M175.417 70.3899C183.626 70.3899 190.28 66.5864 190.28 61.8947C190.28 57.2029 183.626 53.3994 175.417 53.3994C167.209 53.3994 160.555 57.2029 160.555 61.8947C160.555 66.5864 167.209 70.3899 175.417 70.3899Z" fill="#F2F2F2"/>
<path fill-rule="evenodd" clip-rule="evenodd" d="M192.729 67.7455C192.729 57.3193 184.978 48.8672 175.418 48.8672C165.858 48.8672 158.107 57.3193 158.107 67.7455" fill="#DDE3E9"/>
<rect x="174.482" y="-4" width="2.33927" height="63.6281" fill="#DDE3E9"/>
</g>
<g clip-path="url(#clip2)">
<path d="M322.072 157.953L340.049 147.676C341.2 147.018 342.613 147.018 343.764 147.676L387.076 172.436C389.408 173.769 390.847 176.249 390.847 178.935V330.949" stroke="#CBCBCB" stroke-width="3.74283"/>
<rect x="376.811" y="330.48" width="27.6034" height="3.27498" rx="1.40356" fill="#AFB9C5"/>
<path d="M305.462 152.853C311.491 146.823 321.267 146.823 327.296 152.853C333.325 158.882 333.325 168.658 327.296 174.687L318.033 183.95L296.199 162.116L305.462 152.853Z" fill="#C5CFD6"/>
<path fill-rule="evenodd" clip-rule="evenodd" d="M305.335 174.932C311.365 180.961 317.215 184.886 318.403 183.698C319.59 182.511 315.665 176.66 309.636 170.631C303.607 164.602 297.756 160.677 296.568 161.864C295.381 163.052 299.306 168.902 305.335 174.932Z" fill="#F2F2F2"/>
</g>
<path fill-rule="evenodd" clip-rule="evenodd" d="M35.1109 222.521C36.4511 222.358 37.8815 222.415 39.1278 222.944C41.7781 224.069 42.5314 227.2 42.4951 229.745C42.4559 232.484 41.8742 235.476 43.9567 237.683C44.9139 238.698 46.1047 239.474 47.0447 240.507C48.049 241.612 48.8371 242.875 49.4206 244.232C50.492 246.724 51.0179 249.654 50.0381 252.268C49.1755 254.57 47.0052 256.647 47.4741 259.264C47.9633 261.994 50.7158 264.081 52.4367 266.115C54.3842 268.416 56.1774 271.357 56.472 274.375C56.7544 277.267 55.4955 280.192 53.5634 282.379C49.7031 286.747 43.9006 288.889 38.0498 288.876C35.5657 288.87 32.7532 288.758 30.6095 287.423C29.9469 287.01 29.5974 286.547 29.2035 285.904C28.8504 285.327 28.3839 284.951 27.844 284.543C26.6577 283.646 25.801 282.437 25.2542 281.084C23.1312 275.829 24.828 269.328 27.7999 264.661C28.504 263.555 29.0806 262.491 28.7385 261.173C28.3815 259.798 27.5041 258.557 26.728 257.374C25.9612 256.206 25.0857 255.091 24.4863 253.827C23.8586 252.503 23.6818 251.117 23.7927 249.668C24.0012 246.947 25.1759 244.436 26.8391 242.247C28.4411 240.139 30.322 238.122 30.3262 235.36C30.3309 232.432 28.3737 229.828 29.2075 226.852C29.5527 225.619 30.2461 224.355 31.3637 223.616C32.4354 222.907 33.8504 222.675 35.1109 222.521Z" fill="#DDE3E9"/>
<path fill-rule="evenodd" clip-rule="evenodd" d="M34.2345 227.202C34.2596 226.809 34.726 226.573 35.0931 226.675C35.5764 226.81 35.5671 227.262 35.5544 227.664C35.5152 228.901 35.6942 230.103 35.9915 231.303C36.6093 233.797 37.7511 236.096 38.6557 238.492C39.5595 240.886 39.9838 243.358 39.4535 245.892C38.9537 248.28 38.1685 250.607 37.6569 252.999C37.2061 255.107 36.7263 257.33 37.4129 259.432C38.0736 261.456 39.5343 263.105 40.5862 264.934C42.7636 268.72 43.7296 272.92 43.8588 277.243C43.9187 279.25 43.8648 281.276 43.3991 283.244C43.1311 284.378 42.7709 285.91 41.7995 286.692C41.3516 287.053 40.5855 287.178 40.2085 286.644C39.8546 286.142 40.1651 285.366 40.2774 284.832C40.7641 282.519 40.862 280.156 40.7455 277.807C40.6327 275.533 40.3639 273.262 39.648 271.089C38.9835 269.073 37.9741 267.262 36.786 265.498C35.5753 263.701 34.3167 261.9 33.8165 259.77C33.3083 257.607 33.7212 255.407 34.2733 253.285C34.8571 251.041 35.6219 248.861 36.4126 246.678C37.1831 244.55 37.4562 242.538 37.0308 240.311C36.1906 235.912 33.9414 231.783 34.2345 227.202Z" fill="#C5CFD6"/>
<path fill-rule="evenodd" clip-rule="evenodd" d="M70.495 227.859C72.1535 228.363 73.8007 229.175 74.9829 230.449C77.4967 233.159 76.7254 237.253 75.3377 240.244C73.844 243.463 71.5804 246.698 72.8564 250.392C73.4429 252.09 74.4291 253.627 74.9855 255.338C75.5799 257.167 75.8364 259.071 75.8037 260.979C75.7432 264.483 74.8111 268.222 72.2802 270.804C70.0519 273.077 66.4084 274.405 65.5751 277.744C64.7058 281.227 66.8311 285.127 67.7746 288.427C68.8426 292.162 69.3911 296.573 68.1415 300.296C66.9441 303.863 63.9214 306.667 60.4997 308.248C53.663 311.406 45.7251 310.92 38.8697 307.86C35.9592 306.561 32.7197 304.966 30.9109 302.272C30.3519 301.439 30.1866 300.71 30.0648 299.744C29.9556 298.878 29.6069 298.191 29.1894 297.427C28.272 295.75 27.906 293.874 27.98 291.99C28.2675 284.67 33.6942 277.864 39.6466 273.891C41.0569 272.95 42.2955 271.992 42.5908 270.255C42.8993 268.443 42.526 266.519 42.2408 264.716C41.9591 262.935 41.5215 261.161 41.4864 259.355C41.4498 257.463 41.9752 255.732 42.871 254.076C44.5539 250.966 47.2591 248.608 50.3667 246.885C53.3598 245.225 56.6322 243.818 58.0971 240.554C59.6499 237.094 58.7308 232.996 61.282 229.91C62.3384 228.632 63.8201 227.497 65.5214 227.204C67.1529 226.924 68.9352 227.386 70.495 227.859Z" fill="#DDE3E9"/>
<path fill-rule="evenodd" clip-rule="evenodd" d="M67.1066 233.581C67.3419 233.128 68.0108 233.093 68.3864 233.407C68.8807 233.821 68.6333 234.35 68.4077 234.82C67.7144 236.264 67.2943 237.781 67.0134 239.358C66.4294 242.636 66.5608 245.956 66.3635 249.268C66.1664 252.577 65.3679 255.727 63.4211 258.449C61.5856 261.016 59.4488 263.36 57.598 265.924C55.9668 268.184 54.2416 270.565 53.9433 273.415C53.6558 276.158 54.5006 278.876 54.7726 281.593C55.3357 287.218 54.2654 292.699 52.1527 297.885C51.1715 300.294 50.0475 302.664 48.472 304.752C47.5649 305.954 46.3414 307.579 44.7957 307.997C44.0829 308.189 43.1218 307.936 42.9608 307.105C42.8095 306.326 43.579 305.57 43.9902 304.996C45.7705 302.512 47.1229 299.764 48.2166 296.922C49.2761 294.169 50.1512 291.339 50.4518 288.391C50.7307 285.655 50.4987 282.981 50.0332 280.27C49.5589 277.507 49.0305 274.715 49.5609 271.93C50.0994 269.103 51.7348 266.713 53.4916 264.49C55.3496 262.138 57.3854 259.958 59.4534 257.786C61.4685 255.671 62.8421 253.43 63.5109 250.571C64.8322 244.921 64.3647 238.852 67.1066 233.581Z" fill="#C5CFD6"/>
<path fill-rule="evenodd" clip-rule="evenodd" d="M19.2252 248.641C21.9829 248.641 24.4074 250.102 26.078 252.177C28.0335 254.605 28.4285 257.57 29.2226 260.464C29.6177 261.904 30.2974 263.334 31.4883 264.313C32.5716 265.203 33.9468 265.381 35.2434 265.815C37.8347 266.684 39.9272 268.777 40.7535 271.331C41.7617 274.447 40.6939 277.588 40.8777 280.745C41.0465 283.645 43.9053 285.454 46.2054 286.844C48.4734 288.214 50.5165 289.497 51.1996 292.167C51.924 294.999 52.167 298.16 51.1637 300.957C49.4933 305.615 44.6047 307.666 39.881 307.984C35.5941 308.273 30.2039 307.82 26.9845 304.708C25.058 302.846 24.3604 300.242 24.4469 297.651C24.5007 296.039 24.8198 294.443 25.2325 292.886C25.525 291.783 25.9201 290.684 26.0327 289.544C26.3319 286.51 23.5279 285.927 21.1411 285.094C18.1082 284.035 15.9848 282.036 14.5084 279.25C13.1333 276.656 12.5564 273.745 13.3807 270.889C13.8017 269.431 14.5653 268.108 15.6008 266.983C16.0567 266.487 16.6992 266.074 17.1106 265.554C17.4946 265.068 17.411 264.438 17.2787 263.869C16.6667 261.24 14.76 259.063 14.0782 256.439C13.4626 254.07 13.8265 251.122 15.9921 249.594C16.9278 248.934 18.0816 248.648 19.2252 248.641Z" fill="#C5CFD6"/>
<path fill-rule="evenodd" clip-rule="evenodd" d="M22.9834 255.491C25.9063 258.604 26.7007 262.828 26.9339 266.922C27.0645 269.218 26.9285 271.64 27.6031 273.867C28.1802 275.773 29.5332 277.23 30.9279 278.607C33.7352 281.379 36.8661 284.197 37.6872 288.209C38.169 290.563 37.8438 292.995 38.5096 295.323C39.1149 297.439 40.1807 299.519 41.4771 301.306C42.5209 302.745 43.8808 303.847 45.0218 305.189C45.3699 305.598 45.8686 306.201 45.7249 306.779C45.5568 307.456 44.6944 307.671 44.0825 307.564C42.6558 307.316 41.4549 305.954 40.5221 304.964C39.1581 303.515 37.999 301.958 37.0569 300.211C36.0111 298.27 35.1689 296.211 34.8091 294.034C34.4357 291.776 34.6216 289.422 33.769 287.255C32.3342 283.608 28.8542 281.456 26.3382 278.613C23.2033 275.071 23.6709 270.663 23.9919 266.306C24.1683 263.912 24.3437 261.208 23.1338 259.022C22.672 258.187 21.6423 257.409 21.4437 256.461C21.2618 255.592 22.2545 254.714 22.9834 255.491Z" fill="#AFB9C5"/>
<path fill-rule="evenodd" clip-rule="evenodd" d="M26.0998 306.655C26.0998 324.461 29.0056 333.791 44.3459 333.791C59.6863 333.791 62.5921 324.461 62.5921 306.655H26.0998Z" fill="#89C5CC"/>
<rect x="89.2598" y="280.925" width="17.7784" height="4.21068" rx="0.935707" fill="#AFB9C5"/>
<path fill-rule="evenodd" clip-rule="evenodd" d="M93.9387 267.355H90.4295C86.4244 267.355 83.1777 270.602 83.1777 274.607C83.1777 278.612 86.4244 281.858 90.4295 281.858H105.869C109.874 281.858 113.12 278.612 113.12 274.607C113.12 270.602 109.874 267.355 105.869 267.355H102.827C100.819 260.845 99.6934 253.984 99.451 246.771H98.1489V246.771H97.3147C97.3147 246.771 96.9512 257.59 93.9387 267.355Z" fill="#DDE3E9"/>
<path fill-rule="evenodd" clip-rule="evenodd" d="M81.5981 214.338C81.5981 214.338 89.64 213.553 97.6818 213.553C105.724 213.553 113.766 214.338 113.766 214.338L115.928 251.511C115.928 251.511 106.805 252.385 97.6818 252.385C88.5587 252.385 79.4355 251.511 79.4355 251.511L81.5981 214.338Z" fill="#C5CFD6"/>
<path fill-rule="evenodd" clip-rule="evenodd" d="M68.6758 333.792V295.428V285.135H78.5007H127.157V295.428H127.157V333.792H117.332V295.428H78.5007V333.792H68.6758Z" fill="#F2F2F2"/>
<path fill-rule="evenodd" clip-rule="evenodd" d="M292.528 201.952C296.66 211.772 303.685 218.595 307.406 228.805C309.612 234.86 310.532 241.444 310.588 248.187C310.618 251.849 310.554 255.514 310.537 259.177C310.521 262.748 310.424 266.297 310.12 269.846C309.816 273.414 309.475 276.939 309.324 280.528C309.207 283.325 309.154 286.579 308.205 289.13C307.452 291.159 305.535 291.456 305.027 288.995C304.744 287.627 304.78 286.1 304.811 284.694C304.851 282.891 304.956 281.09 305.01 279.286C305.225 272.049 304.946 264.811 305.092 257.572C305.234 250.499 306.143 243.433 305.137 236.407C304.306 230.605 302.196 225.623 299.77 220.846C297.437 216.251 294.897 211.767 293.32 206.54C292.868 205.039 292.518 203.483 292.35 201.869C292.423 201.835 292.482 201.862 292.528 201.952Z" fill="#C1DEE2"/>
<path fill-rule="evenodd" clip-rule="evenodd" d="M291.403 221.325C292.221 221.916 292.678 222.78 293.231 223.633C293.919 224.693 294.728 225.651 295.416 226.712C296.849 228.924 298.109 231.272 299.416 233.574C301.898 237.943 303.782 242.6 304.715 247.655C305.682 252.893 305.943 258.3 306.349 263.616C306.779 269.251 307.212 274.927 307.269 280.584C307.295 283.118 307.432 285.809 307.128 288.325C306.938 289.892 306.231 291.227 304.637 291.214C301.252 291.187 299.662 287.437 298.998 284.362C298.021 279.833 297.826 275.023 297.98 270.392C298.167 264.808 299.137 259.307 299.556 253.745C300 247.856 299.749 242.071 297.725 236.526C296.702 233.724 295.515 230.989 294.449 228.206C293.995 227.021 293.623 225.804 293.01 224.7C292.328 223.473 291.481 222.358 290.947 221.036C291.099 221.132 291.251 221.229 291.403 221.325Z" fill="#89C5CC"/>
<path fill-rule="evenodd" clip-rule="evenodd" d="M330.403 209.582C330.507 209.501 330.611 209.421 330.714 209.34C330.415 210.6 329.875 211.623 329.462 212.775C329.091 213.81 328.903 214.981 328.653 216.113C328.066 218.771 327.388 221.369 326.834 224.049C325.736 229.353 325.944 235.067 326.664 240.952C327.343 246.511 328.418 252.061 328.931 257.618C329.355 262.227 329.538 266.98 329.133 271.378C328.857 274.364 327.955 277.93 325.497 277.629C324.34 277.487 323.736 276.094 323.493 274.521C323.102 271.996 323.02 269.34 322.868 266.829C322.528 261.223 322.46 255.634 322.393 250.086C322.33 244.852 322.155 239.514 322.504 234.411C322.842 229.487 323.897 225.05 325.406 220.957C326.2 218.8 326.957 216.593 327.85 214.537C328.278 213.551 328.801 212.68 329.23 211.695C329.574 210.902 329.848 210.089 330.403 209.582Z" fill="#C1DEE2"/>
<path fill-rule="evenodd" clip-rule="evenodd" d="M292.447 237.552C292.895 236.801 293.88 239.279 294.03 239.591C293.967 239.436 293.903 239.281 293.839 239.127C294.728 240.604 295.541 242.142 296.046 243.837C296.546 245.514 296.976 247.225 297.445 248.914C298.326 252.083 299.462 255.163 300.26 258.361C301.037 261.477 301.233 264.54 301.045 267.763C300.849 271.113 300.73 274.515 300.958 277.863C301.067 279.462 301.586 280.951 301.942 282.491C302.299 284.032 302.58 285.593 303.001 287.115C303.098 286.917 303.11 287.58 303.11 287.63C303.108 288.01 303.055 288.329 302.932 288.69C302.618 289.617 302.03 290.404 301.135 290.66C299.518 291.122 298.016 289.651 297.495 288.098C296.747 285.869 296.335 283.406 295.978 281.064C295.651 278.916 295.574 276.755 295.671 274.577C295.862 270.283 296.639 266.045 296.85 261.752C297.078 257.078 296.152 252.686 295.377 248.137C295.004 245.944 294.647 243.773 293.92 241.684C293.626 240.839 293.242 240.092 292.84 239.311C292.611 238.867 292.148 238.074 292.447 237.552Z" fill="#C1DEE2"/>
<path fill-rule="evenodd" clip-rule="evenodd" d="M305.568 230.252C305.382 235.606 305.063 240.92 304.349 246.218C303.62 251.625 302.783 257.013 302.082 262.424C301.4 267.692 300.685 273.047 300.78 278.388C300.85 282.322 300.198 288.978 304.567 290.919C308.993 292.886 309.942 284.488 310.232 281.717C310.789 276.399 310.609 271.025 310.339 265.678C310.061 260.191 309.598 254.731 309.024 249.264C308.387 243.191 307.886 237.09 307.485 231C307.286 227.987 307.237 224.98 307.292 221.967C307.344 219.123 307.236 216.25 306.225 213.551C306.172 213.589 306.119 213.628 306.066 213.666" fill="#69A1AC"/>
<path fill-rule="evenodd" clip-rule="evenodd" d="M328.415 247.215C327.619 248.374 326.817 249.522 326.065 250.75C324.72 252.948 323.504 255.391 323.138 258.533C322.373 265.108 322.987 272.209 323.135 278.986C323.166 280.37 322.99 281.713 323.536 283.031C324.031 284.226 324.956 285.137 325.838 285.132C327.726 285.121 327.438 280.498 327.441 278.463C327.447 274.897 327.047 271.294 327.081 267.731C327.116 264.2 327.33 260.66 327.842 257.308C328.36 253.914 329.119 250.656 330.121 247.615C330.26 247.193 331.257 243.932 330.315 244.494" fill="#89C5CC"/>
<path fill-rule="evenodd" clip-rule="evenodd" d="M320.077 212.147C318.836 212.147 318.843 218.335 318.806 219.13C318.671 221.998 318.703 224.867 318.617 227.736C318.431 233.997 318.201 240.312 317.261 246.5C316.755 249.832 316.168 253.148 315.536 256.454C314.903 259.77 314.053 263.081 313.637 266.439C313.237 269.667 313.463 272.958 313.518 276.201C313.572 279.465 313.671 282.734 314.098 285.969C314.204 286.767 314.328 287.563 314.46 288.357C314.57 289.018 314.506 289.838 314.693 290.467C314.992 291.473 316.274 291.803 317.137 291.645C319.473 291.219 320.965 288.286 321.763 286.143C322.781 283.407 323.322 280.439 323.856 277.555C324.46 274.288 324.814 270.972 324.981 267.646C325.318 260.886 324.885 254.119 324.401 247.382C324.131 243.634 323.82 239.904 323.344 236.18C322.87 232.471 322.262 228.78 321.866 225.061C321.578 222.358 321.295 219.652 321.108 216.939C321.064 216.292 321.026 212.147 320.077 212.147Z" fill="#69A1AC"/>
<path fill-rule="evenodd" clip-rule="evenodd" d="M318.522 257.126C318.32 250.629 315.709 222.093 315.114 214.237C314.966 212.271 313.535 204.084 313.35 201.854C312.847 202.485 312.89 212.292 312.895 214.546C312.901 216.775 312.625 218.967 312.482 221.184C312.337 223.446 308.993 252.664 308.559 254.838C307.695 259.162 307.117 263.6 306.672 268.022C306.238 272.332 305.562 276.879 306.143 281.211C306.277 282.208 306.488 283.19 306.832 284.106C307.204 285.096 307.459 286.011 307.757 287.047C308.238 288.716 309.106 290.18 310.441 290.869C313.178 292.282 314.647 289.084 315.392 286.301C316.582 281.855 317.346 277.337 317.704 272.668C318.1 267.503 318.684 262.327 318.522 257.126Z" fill="#89C5CC"/>
<rect x="289.545" y="276.244" width="42.5747" height="42.5747" rx="0.935707" fill="white"/>
<rect x="284.865" y="280.923" width="4.67854" height="52.8675" rx="0.935707" fill="#C5CFD6"/>
<rect x="308.258" y="280.923" width="4.67854" height="52.8675" rx="0.935707" fill="#C5CFD6"/>
<rect x="332.117" y="280.923" width="4.67854" height="52.8675" rx="0.935707" fill="#C5CFD6"/>
<path fill-rule="evenodd" clip-rule="evenodd" d="M200.402 200.546C197.687 202.183 195.019 202.973 193.767 202.65C190.627 201.841 190.338 190.354 192.768 185.826C195.197 181.297 207.687 179.323 208.317 188.296C208.535 191.41 207.228 194.189 205.296 196.457L208.76 212.602H198.697L200.402 200.546Z" fill="#B28B67"/>
<path fill-rule="evenodd" clip-rule="evenodd" d="M206.07 198.478C207.332 192.859 210.93 189.029 210.381 186.518C209.831 184.006 207.452 183.394 207.452 183.394C207.452 183.394 206.221 178.416 199.513 179.159C192.806 179.903 188.712 182.688 190.48 188.818C192.105 188.818 194.067 188.23 196.78 189.237C198.071 189.716 198.627 192.21 198.627 192.21H199.853C199.853 192.21 201.638 189.251 203.373 190.035C205.107 190.819 204.161 193.845 204.161 193.845L204.765 198.478H206.07Z" fill="#191847"/>
<path fill-rule="evenodd" clip-rule="evenodd" d="M236.85 265.012C240.555 265.012 243.559 268.015 243.559 271.72V310.292C243.559 313.997 240.555 317 236.85 317H188.635C184.93 317 181.927 313.997 181.927 310.292V271.72C181.927 268.015 184.93 265.012 188.635 265.012H236.85ZM230.142 276.75C231.068 276.75 231.819 277.501 231.819 278.427V303.583C231.819 304.51 231.068 305.26 230.142 305.26H195.343C194.416 305.26 193.666 304.509 193.666 303.583V278.427C193.666 277.501 194.416 276.75 195.343 276.75H230.142Z" fill="#C5CFD6"/>
<path fill-rule="evenodd" clip-rule="evenodd" d="M140.354 314.903C148.62 304.809 154.213 297.326 157.133 292.453C162.133 284.11 166.225 276.687 167.516 273.851C170.596 267.089 160.427 263.922 158.125 267.076C154.642 271.85 147.203 286.873 135.809 312.144L140.354 314.903Z" fill="#B28B67"/>
<path fill-rule="evenodd" clip-rule="evenodd" d="M157.293 311.969L172.676 273.245C175.967 266.185 160.077 261.545 157.659 264.83C152.169 272.289 139.121 301.712 137.486 303.934L157.293 311.969Z" fill="#2F3676"/>
<path fill-rule="evenodd" clip-rule="evenodd" d="M198.265 304.203C195.268 299.831 184.368 285.125 178.431 279.04C176.725 277.292 175.061 275.613 173.486 274.049C168.806 269.401 159.487 277.214 164.158 281.448C175.791 291.993 192.765 306.228 194.183 307.497C196.171 309.276 200.148 306.95 198.265 304.203Z" fill="#B28B67"/>
<path fill-rule="evenodd" clip-rule="evenodd" d="M196.322 302.403C196.612 302.007 197.175 301.914 197.551 302.23C198.236 302.806 199.222 303.694 199.577 304.31C200.144 305.292 200.905 307.366 200.905 307.366C199.766 308.023 180.426 319.189 180.426 319.189C180.426 319.189 178.104 317.011 179.702 315.808C181.301 314.604 182.341 313.778 182.341 313.778L189.409 304.039C189.548 303.848 189.817 303.809 190.004 303.953L191.473 305.084C191.473 305.084 193.494 304.908 194.489 304.333C195.095 303.983 195.836 303.067 196.322 302.403Z" fill="#E4E4E4"/>
<path fill-rule="evenodd" clip-rule="evenodd" d="M142.748 312.926C143.197 312.729 143.731 312.929 143.898 313.39C144.204 314.232 144.613 315.494 144.613 316.206C144.613 317.34 144.235 319.515 144.235 319.515C142.92 319.515 120.588 319.515 120.588 319.515C120.588 319.515 119.666 316.468 121.652 316.225C123.638 315.982 124.952 315.786 124.952 315.786L135.943 310.887C136.159 310.79 136.411 310.891 136.501 311.11L137.208 312.823C137.208 312.823 139.046 313.681 140.196 313.681C140.895 313.681 141.995 313.258 142.748 312.926Z" fill="#E4E4E4"/>
<path fill-rule="evenodd" clip-rule="evenodd" d="M178.213 275.178C178.213 275.178 197.392 272.053 203.906 270.905C216.284 268.722 219.893 262.061 217.759 247.528L194.953 247.528C190.426 248.836 157.122 263.699 157.122 263.699C153.127 265.682 153.871 271.529 154.601 273.456C154.646 273.573 174.804 308.074 174.804 308.074L193.461 296.189L178.178 276.578C178.178 276.578 177.572 275.359 178.213 275.178Z" fill="#5C63AB"/>
<path fill-rule="evenodd" clip-rule="evenodd" d="M163.198 251.862L176.571 242.041L179.528 249.349L166.284 254.841C162.539 259.241 160.444 261.075 160.001 260.343C159.627 259.727 159.919 259.149 160.189 258.617C160.398 258.203 160.594 257.817 160.45 257.46C160.121 256.647 157.605 256.733 155.221 256.916C152.837 257.1 153.531 256.039 154.106 255.515C156.54 254.058 159.57 252.84 163.198 251.862ZM233.333 269.166C232.105 266.673 227.921 242.38 227.921 242.38L219.159 242.414C219.159 242.414 227.274 268.61 227.921 270.213C228.761 272.295 227.334 275.32 226.366 277.372C226.216 277.689 226.077 277.983 225.96 278.247C227.303 278.848 227.948 278.121 228.628 277.356C229.396 276.491 230.208 275.576 232.122 276.466C232.861 276.81 233.56 277.216 234.243 277.614C236.604 278.986 238.772 280.246 241.722 278.426C242.19 278.137 242.702 277.051 241.464 276.202C238.379 274.087 233.934 270.385 233.333 269.166Z" fill="#B28B67"/>
<path fill-rule="evenodd" clip-rule="evenodd" d="M203.019 205.615L199.394 204.994C185.942 216.614 180.417 238.937 163.929 250.763L167.898 255.682C196.502 252.14 203.591 224.911 203.019 205.615Z" fill="#E87613"/>
<path fill-rule="evenodd" clip-rule="evenodd" d="M218.822 251.175C218.822 251.175 197.017 251.175 186.744 251.175C185.278 251.175 185.554 249.058 185.766 247.99C188.212 235.664 197.758 222.376 197.758 204.83L207.011 203.379C214.664 215.688 217.311 230.843 218.822 251.175Z" fill="#DDE3E9"/>
<path fill-rule="evenodd" clip-rule="evenodd" d="M217.593 215.335C219.277 215.214 220.797 214.51 221.757 212.776C225.139 206.674 223.918 203.314 220.304 202.21C218.316 201.602 216.447 202.017 214.21 202.513C212.378 202.919 210.3 203.38 207.708 203.38C207.456 203.38 207.227 203.397 207.019 203.429L203.951 203.605C203.951 203.605 191.485 245.854 197.075 259.981H222.429C223.871 263.443 225.285 266.465 226.617 268.785H233.497C234.237 244.853 225.176 226.438 217.593 215.335Z" fill="#FF9B21"/>
<path fill-rule="evenodd" clip-rule="evenodd" d="M222.43 259.981C220.538 255.437 218.598 250.134 216.731 244.657C216.036 250.688 214.879 256.746 212.953 259.981H222.43Z" fill="black" fill-opacity="0.1"/>
<defs>
<clipPath id="clip0">
<rect width="46.3175" height="98.2493" fill="white" transform="translate(116 -4)"/>
</clipPath>
<clipPath id="clip1">
<rect width="34.6212" height="74.3887" fill="white" transform="translate(158.107 -4)"/>
</clipPath>
<clipPath id="clip2">
<rect width="110.58" height="192.756" fill="white" transform="translate(294 141)"/>
</clipPath>
</defs>
</svg>
