<svg width="414" height="347" viewBox="0 0 414 347" fill="none" xmlns="http://www.w3.org/2000/svg">
<rect width="414" height="346.13" rx="4" fill="#F7F7F7"/>
<g filter="url(#filter0_d)">
<rect x="68" y="75" width="277.038" height="196" rx="24.5" fill="#C1DEE2"/>
</g>
<path d="M148.805 192L151.612 183.376H165.259L168.065 192H176.634L163.597 154.182H153.293L140.237 192H148.805ZM153.643 177.135L158.297 162.824H158.592L163.246 177.135H153.643ZM181.185 192H188.941V187.457H189.292C190.381 189.821 192.763 192.462 197.343 192.462C203.806 192.462 208.847 187.347 208.847 177.855C208.847 168.105 203.585 163.267 197.362 163.267C192.616 163.267 190.344 166.092 189.292 168.401H189.052V154.182H181.185V192ZM188.886 177.818C188.886 172.759 191.028 169.527 194.85 169.527C198.746 169.527 200.815 172.906 200.815 177.818C200.815 182.767 198.71 186.202 194.85 186.202C191.065 186.202 188.886 182.878 188.886 177.818ZM226.912 192.554C234.464 192.554 239.21 188.122 239.579 181.604H232.156C231.694 184.632 229.7 186.331 227.004 186.331C223.329 186.331 220.947 183.247 220.947 177.818C220.947 172.463 223.348 169.398 227.004 169.398C229.885 169.398 231.731 171.3 232.156 174.125H239.579C239.247 167.57 234.279 163.267 226.875 163.267C218.27 163.267 212.951 169.232 212.951 177.929C212.951 186.553 218.177 192.554 226.912 192.554ZM251.374 180.662H258.373V180.034C258.41 176.433 259.702 174.753 262.62 172.999C266.073 170.949 268.326 168.234 268.326 163.895C268.326 157.432 263.119 153.665 255.788 153.665C249.085 153.665 243.619 157.173 243.452 164.56H250.987C251.097 161.55 253.332 159.943 255.751 159.943C258.244 159.943 260.256 161.605 260.256 164.172C260.256 166.591 258.502 168.197 256.231 169.638C253.129 171.595 251.393 173.571 251.374 180.034V180.662ZM255.012 192.48C257.376 192.48 259.425 190.504 259.444 188.048C259.425 185.629 257.376 183.653 255.012 183.653C252.575 183.653 250.562 185.629 250.58 188.048C250.562 190.504 252.575 192.48 255.012 192.48Z" fill="#DDAAC4"/>
<defs>
<filter id="filter0_d" x="37.8462" y="59.9231" width="337.346" height="256.308" filterUnits="userSpaceOnUse" color-interpolation-filters="sRGB">
<feFlood flood-opacity="0" result="BackgroundImageFix"/>
<feColorMatrix in="SourceAlpha" type="matrix" values="0 0 0 0 0 0 0 0 0 0 0 0 0 0 0 0 0 0 127 0"/>
<feOffset dy="15.0769"/>
<feGaussianBlur stdDeviation="15.0769"/>
<feColorMatrix type="matrix" values="0 0 0 0 0 0 0 0 0 0 0 0 0 0 0 0 0 0 0.1 0"/>
<feBlend mode="normal" in2="BackgroundImageFix" result="effect1_dropShadow"/>
<feBlend mode="normal" in="SourceGraphic" in2="effect1_dropShadow" result="shape"/>
</filter>
</defs>
</svg>
