<svg width="414" height="347" viewBox="0 0 414 347" fill="none" xmlns="http://www.w3.org/2000/svg">
<mask id="mask0" mask-type="alpha" maskUnits="userSpaceOnUse" x="0" y="0" width="414" height="347">
<path d="M0 9C0 4.02944 4.02944 0 9 0H405C409.971 0 414 4.02944 414 9V341.619C414 344.11 411.842 346.129 409.179 346.129H4.82096C2.15842 346.129 0 344.11 0 341.619V9Z" fill="#F5F5F5"/>
</mask>
<g mask="url(#mask0)">
<path fill-rule="evenodd" clip-rule="evenodd" d="M522.84 -50.8843C523.677 -56.744 518.727 -61.8023 512.851 -61.0921L213.004 -24.8519C208.871 -24.3523 205.62 -21.0828 205.143 -16.9467L161.689 360.365C161.09 365.566 165.039 370.178 170.27 370.387L452.88 381.676C457.492 381.86 461.496 378.525 462.149 373.956L522.84 -50.8843Z" fill="#2026A2"/>
<path fill-rule="evenodd" clip-rule="evenodd" d="M121.058 136.114C125.013 137.79 128.745 138.343 130.367 137.675C134.433 136 132.662 120.584 128.547 114.987C124.432 109.389 107.282 109.108 108.122 121.226C108.414 125.431 110.693 128.901 113.715 131.569L112.095 153.815L125.613 151.915L121.058 136.114Z" fill="#B28B67"/>
<path fill-rule="evenodd" clip-rule="evenodd" d="M124.94 111.421C124.605 111.281 123.903 110.984 123.555 110.889C123.472 110.866 122.874 110.557 122.86 110.563C122.468 110.76 121.347 111.438 121.307 111.893C121.296 111.929 121.285 111.962 121.273 111.992C121.148 112.321 121.037 112.656 120.933 112.994C120.707 113.736 120.529 114.503 120.363 115.262C120.039 116.741 119.789 118.243 119.575 119.744C119.358 121.271 119.207 122.806 119.011 124.337C118.73 126.539 118.279 128.712 118.002 130.912C117.825 132.317 117.813 133.716 118.105 135.095C118.109 135.112 118.111 135.128 118.115 135.145C118.117 135.152 118.119 135.159 118.12 135.166C118.167 135.377 118.22 135.589 118.282 135.8C118.335 135.98 118.388 136.161 118.443 136.342C118.822 135.225 119.062 134.019 119.334 132.868C119.361 132.755 119.386 132.642 119.409 132.529C119.516 132.288 119.625 132.049 119.735 131.81C120.434 130.305 121.137 128.804 121.796 127.279C122.98 124.536 124.143 121.742 125.642 119.165C126.084 118.404 126.541 117.652 126.976 116.887C127.224 116.451 127.463 116.01 127.691 115.563C127.854 115.243 128.598 114.105 128.192 113.541C127.984 113.252 125.811 111.786 124.94 111.421Z" fill="#2C2C2C"/>
<path fill-rule="evenodd" clip-rule="evenodd" d="M123.659 110.926C123.975 110.984 123.74 110.381 123.418 110.203C121.924 109.376 116.706 109.733 112.342 111.293C109.418 112.339 106.133 114.38 104.007 116.709C102.091 118.809 101.005 121.896 100.627 124.784C100.232 127.817 100.537 130.877 101.407 133.808C101.598 134.451 101.898 135.048 102.107 135.675C102.342 136.381 102.508 137.069 102.844 137.741C103.05 138.153 103.356 138.541 103.541 138.958C103.752 139.433 103.731 139.904 103.698 140.422C103.646 141.267 103.552 142.116 103.366 142.942C103.087 144.182 102.703 145.361 102.536 146.631C102.314 148.321 101.175 153.878 102.754 155.127L128.956 151.445C128.044 149.746 125.767 147.916 125.097 146.054C124.702 144.958 124.243 142.506 124.205 142.42C123.045 138.452 121.621 136.679 120.8 136.078C119.979 135.477 118.987 135.397 118.852 134.794C118.293 132.304 118.96 129.749 119.368 127.294C119.853 124.368 120.094 121.406 120.608 118.486C120.836 117.193 122.022 110.623 123.659 110.926Z" fill="#8991DC"/>
<path fill-rule="evenodd" clip-rule="evenodd" d="M122.86 128.923C121.717 122.959 121.686 120.57 122.46 115.979L121.602 116.099C120.491 118.035 120.106 123.53 122.178 129.019L122.86 128.923ZM106.002 131.004C105.801 130.661 105.595 130.309 105.383 129.948L104.874 130.286C107.476 136.311 110.25 140.856 118.01 143.901L118.515 143.433C111.046 139.629 109.089 136.282 106.002 131.004ZM115.143 122.075C115.292 122.608 115.435 123.128 115.575 123.636C117.725 131.431 119.088 136.374 126.133 144.697L125.508 144.987C118.002 137.406 116.029 130.634 114.541 122.21L115.143 122.075ZM112.54 148.687L112.077 149.442C114.957 149.631 117.147 151.413 119.658 153.454C122.315 155.615 125.331 158.067 129.902 159.235L130.637 158.639C125.576 156.86 123.041 154.742 120.827 152.893C118.535 150.978 116.588 149.351 112.54 148.687Z" fill="black" fill-opacity="0.2"/>
<path fill-rule="evenodd" clip-rule="evenodd" d="M183.041 240.683C181.983 252.2 183.04 276.956 183.61 284.097C183.968 288.585 190.112 287.41 190.686 283.818C190.783 283.209 191.179 281.072 191.77 277.882C194.667 262.24 202.248 221.304 202.262 211.35C202.268 206.786 192.059 203.136 187.976 208.65C184.618 206.302 179.852 205.673 176.914 210.414C174.689 214.004 169.404 224.194 163.768 236.094C158.83 246.518 151.114 271.824 151.114 271.824L157.664 274.803C157.664 274.803 173.846 248.905 184.034 230.749C183.695 233.873 183.359 237.218 183.041 240.683Z" fill="#B28B67"/>
<path fill-rule="evenodd" clip-rule="evenodd" d="M151.582 262.456L174.065 209.439C179.451 200.814 194.552 211.194 192.715 216.196C188.545 227.552 167.337 264.318 166.095 267.702L151.582 262.456Z" fill="#1F28CF"/>
<path fill-rule="evenodd" clip-rule="evenodd" d="M202.83 215.491C202.83 230.518 196.213 265.842 196.208 269.151L180.179 268.613C180.179 268.613 184.382 222.545 183.724 222.233C182.736 221.765 143.256 227.672 131.416 228.118C114.341 228.762 107.278 218.334 106.705 198.547L139.778 198.547C139.778 198.547 182.2 203.588 195.541 205.559C201.252 206.402 202.83 211.351 202.83 215.491Z" fill="#2B44FF"/>
<path fill-rule="evenodd" clip-rule="evenodd" d="M152.152 270.11C151.49 269.613 150.532 269.722 150.073 270.413C149.415 271.405 148.593 272.758 148.379 273.614C148.007 275.1 147.79 278.074 147.79 278.074C149.522 278.504 178.918 285.8 178.918 285.8C178.918 285.8 181.131 282.108 178.597 281.141C176.062 280.174 174.397 279.488 174.397 279.488L161.651 269.565C161.336 269.32 160.881 269.383 160.643 269.704L159.237 271.602C159.237 271.602 156.535 272.125 155.022 271.749C154.182 271.541 153.02 270.762 152.152 270.11Z" fill="#E4E4E4"/>
<path fill-rule="evenodd" clip-rule="evenodd" d="M184.593 275.122C183.829 274.798 182.927 275.135 182.65 275.916C182.253 277.037 181.784 278.547 181.784 279.43C181.784 280.962 182.296 283.9 182.296 283.9C184.081 283.9 214.377 283.9 214.377 283.9C214.377 283.9 215.627 279.785 212.933 279.456C210.239 279.128 208.457 278.864 208.457 278.864L193.677 272.305C193.312 272.143 192.886 272.314 192.733 272.682L191.83 274.863C191.83 274.863 189.336 276.021 187.777 276.021C186.911 276.021 185.593 275.545 184.593 275.122Z" fill="#E4E4E4"/>
<rect x="182.353" y="283.9" width="30.1458" height="3.96335" rx="1.98168" fill="#2F3676"/>
<path fill-rule="evenodd" clip-rule="evenodd" d="M181.105 164.538L159.29 170.683L164.674 180.04L181.718 170.383C189.603 170.053 193.339 169.341 192.924 168.245C192.574 167.322 191.707 167.15 190.908 166.991C190.286 166.868 189.705 166.753 189.442 166.297C188.843 165.256 191.05 162.613 193.251 160.195C195.453 157.777 193.727 157.631 192.679 157.81C189.065 159.207 185.207 161.449 181.105 164.538ZM80.5549 234.12C81.7371 230.555 90.1505 185.625 90.1505 185.625L102.491 183.938C102.491 183.938 88.591 232.233 88.0233 234.498C87.2859 237.442 89.7718 241.218 91.4574 243.778C91.7182 244.174 91.9598 244.541 92.1674 244.872C90.4764 245.929 89.4733 245.079 88.4159 244.184C87.2215 243.172 85.9577 242.102 83.5547 243.654C82.6263 244.253 81.7631 244.929 80.9197 245.589C78.0065 247.87 75.3302 249.965 71.0252 248.087C70.3427 247.79 69.45 246.434 70.9539 245.064C74.7006 241.653 79.977 235.863 80.5549 234.12Z" fill="#997659"/>
<path fill-rule="evenodd" clip-rule="evenodd" d="M118.462 141.938L128.209 141.221C133.598 162.306 148.453 174.014 176.814 165.358L184.544 192.399C157.925 199.696 132.632 192.234 123.648 163.667C121.323 156.272 119.219 148.531 118.462 141.938Z" fill="#AFB9C5"/>
<path fill-rule="evenodd" clip-rule="evenodd" d="M81.4665 228.327C83.1805 191.873 93.471 162.411 112.338 139.94L113.296 139.805L113.305 139.813L128.406 141.092C130.865 158.588 136.612 171.111 142.138 183.151C144.524 188.35 146.869 193.459 148.889 198.84L109.373 204.393C109.711 210.836 110.288 217.425 111.055 224.169L81.4665 228.327Z" fill="#C5CFD6"/>
<path fill-rule="evenodd" clip-rule="evenodd" d="M109.373 204.394C108.685 191.279 108.991 178.772 110.721 166.813C111.715 179.202 113.654 194.472 117.404 203.266L109.373 204.394Z" fill="black" fill-opacity="0.1"/>
<path fill-rule="evenodd" clip-rule="evenodd" d="M261.537 91.4095C258.151 94.0546 254.69 95.5568 252.951 95.3306C248.589 94.7634 246.307 79.393 248.832 72.913C251.358 66.433 267.85 61.7187 270.177 73.6576C270.984 77.8015 269.681 81.748 267.453 85.1113L274.779 106.209L261.229 107.873L261.537 91.4095Z" fill="#B28B67"/>
<path fill-rule="evenodd" clip-rule="evenodd" d="M259.004 76.3802C257.619 74.7848 256.331 73.5962 254.772 73.0054C248.827 73.8306 247.999 72.8518 247.559 69.2642C248.437 68.4598 251.689 66.8875 255.451 66.0956C257.323 65.3043 259.633 65.1263 261.959 65.7773C264.786 66.2146 267.304 67.5946 268.708 70.5845C273.186 76.49 271.193 83.4545 267.689 86.1802C266.536 85.1151 265.517 84.071 264.597 83.0645C265.152 82.3741 265.437 81.4704 265.321 80.5238C265.092 78.659 263.39 77.3335 261.519 77.5632C261.382 77.5801 261.247 77.6049 261.116 77.6372C261.318 79.9791 261.94 87.9094 261.366 90.7611C260.69 94.123 254.527 95.6848 252.344 95.9529C250.458 96.1845 250.304 94.3965 250.193 93.1151C250.177 92.9306 250.162 92.7565 250.143 92.6005C250.103 92.2746 250.528 92.2233 251.009 92.1652C251.633 92.0899 252.35 92.0033 252.263 91.2897C252.167 90.5119 251.016 90.0477 249.985 89.6323C249.342 89.3731 248.746 89.133 248.484 88.8475C247.655 87.9469 247.253 86.6444 248.32 86.5133C248.904 86.4416 249.746 86.6787 250.759 86.9639C252.288 87.3944 254.207 87.9347 256.215 87.6882C259.534 87.2807 259.01 76.5035 259.004 76.3802Z" fill="#191847"/>
<path fill-rule="evenodd" clip-rule="evenodd" d="M284.331 153.938L263.496 225.505L253.696 279.239H243.86L253.679 153.938H284.331Z" fill="#997659"/>
<path fill-rule="evenodd" clip-rule="evenodd" d="M293.695 153.938C292.241 191.116 292.814 211.395 293.14 214.773C293.465 218.15 295.312 240.773 307.9 280.373H297.669C280.999 242.384 275.18 219.761 273.268 214.773C271.356 209.784 265.709 189.506 257.465 153.938H293.695Z" fill="#B28B67"/>
<path fill-rule="evenodd" clip-rule="evenodd" d="M284.778 153.938C279.358 178.564 269.985 217.874 256.657 271.868H242.271C241.208 216.449 245.728 179.973 253.556 153.938H284.778Z" fill="#69A1AC"/>
<path fill-rule="evenodd" clip-rule="evenodd" d="M293.767 153.938C292.343 191.116 296.033 227.745 307.463 272.447H292.114C275.413 235.025 263.443 198.577 255.262 153.938H293.767Z" fill="#89C5CC"/>
<path fill-rule="evenodd" clip-rule="evenodd" d="M309.357 287.745L308.848 279.559C308.82 279.105 308.377 278.794 307.931 278.881C303.016 279.835 296.374 277.539 296.374 277.539C289.726 282.233 280.225 284.46 276.504 285.192C275.665 285.357 275.131 286.204 275.365 287.026L276.053 289.446H296.374H308.228L309.357 287.745Z" fill="#191847"/>
<path fill-rule="evenodd" clip-rule="evenodd" d="M255.891 287.745L255.382 279.559C255.353 279.105 254.911 278.794 254.464 278.881C249.55 279.835 242.908 277.539 242.908 277.539C236.26 282.233 226.759 284.46 223.038 285.192C222.199 285.357 221.665 286.204 221.899 287.026L222.587 289.446H242.908H254.762L255.891 287.745Z" fill="#191847"/>
<path fill-rule="evenodd" clip-rule="evenodd" d="M219.896 166.437L236.285 151.044L241.471 160.364L224.543 169.925C220.225 176.45 217.707 179.258 216.989 178.349C216.384 177.583 216.683 176.76 216.957 176.002C217.171 175.411 217.371 174.86 217.118 174.406C216.542 173.369 213.168 173.9 209.988 174.54C206.808 175.18 207.568 173.641 208.256 172.843C211.293 170.486 215.173 168.35 219.896 166.437ZM317.186 178.067C315.121 174.925 305.483 143.009 305.483 143.009L293.691 144.504C293.691 144.504 308.935 178.323 310.07 180.368C311.545 183.023 310.122 187.32 309.157 190.233C309.007 190.684 308.869 191.102 308.754 191.475C310.661 192.059 311.41 190.978 312.199 189.838C313.091 188.55 314.035 187.187 316.758 188.066C317.809 188.405 318.818 188.835 319.804 189.255C323.208 190.707 326.336 192.04 330.008 189.109C330.59 188.645 331.101 187.102 329.294 186.167C324.792 183.838 318.196 179.604 317.186 178.067Z" fill="#B28B67"/>
<path fill-rule="evenodd" clip-rule="evenodd" d="M265.897 97.7803L260.913 97.545C244.715 115.366 240.955 146.243 220.702 164.841L226.857 170.788C264.789 161.305 269.848 123.585 265.897 97.7803Z" fill="#E87613"/>
<path fill-rule="evenodd" clip-rule="evenodd" d="M294.687 156.319C294.687 156.319 265.326 159.924 251.492 161.623C249.519 161.865 249.542 158.979 249.651 157.51C250.912 140.561 261.577 121.148 258.685 97.5962L270.905 94.1188C283.239 109.375 289.301 129.278 294.687 156.319Z" fill="#DDE3E9"/>
<path fill-rule="evenodd" clip-rule="evenodd" d="M300.994 167.541C303.506 171.95 305.908 175.771 308.084 178.666L317.348 177.529C314.4 145.284 299.165 122.065 287.125 108.415C289.372 107.975 291.302 106.778 292.31 104.293C295.858 95.5427 293.66 91.235 288.611 90.3502C285.835 89.8636 283.386 90.729 280.455 91.765C278.057 92.6127 275.335 93.5746 271.847 94.0033C271.847 94.0033 271.847 94.0033 271.847 94.0033L271.847 94.0033C271.846 94.0034 271.845 94.0036 271.843 94.0037C271.505 94.0452 271.2 94.1056 270.926 94.1831L266.821 94.9258C266.821 94.9258 256.998 153.695 266.853 171.733L300.994 167.541Z" fill="#FF9B21"/>
<path fill-rule="evenodd" clip-rule="evenodd" d="M300.995 167.541C297.699 161.755 294.214 154.959 290.797 147.917C290.856 156.126 290.296 164.448 288.235 169.107L300.995 167.541Z" fill="black" fill-opacity="0.1"/>
<path fill-rule="evenodd" clip-rule="evenodd" d="M191.416 143.271C208.446 143.271 222.252 129.465 222.252 112.434C222.252 95.4037 208.446 81.5977 191.416 81.5977C174.385 81.5977 160.579 95.4037 160.579 112.434C160.579 129.465 174.385 143.271 191.416 143.271Z" fill="#EAE1A6" fill-opacity="0.8"/>
</g>
</svg>
