<svg width="414" height="347" viewBox="0 0 414 347" fill="none" xmlns="http://www.w3.org/2000/svg">
<mask id="mask0" mask-type="alpha" maskUnits="userSpaceOnUse" x="0" y="0" width="414" height="347">
<path d="M0 0H414V341.619C414 344.11 411.842 346.129 409.179 346.129H4.82096C2.15842 346.129 0 344.11 0 341.619V0Z" fill="#F5F5F5"/>
</mask>
<g mask="url(#mask0)">
<path fill-rule="evenodd" clip-rule="evenodd" d="M524.5 -62.5L205.956 -24L160.579 370L461 382L524.5 -62.5Z" fill="#2026A2"/>
<path fill-rule="evenodd" clip-rule="evenodd" d="M121.057 136.114C125.012 137.79 128.744 138.343 130.366 137.675C134.432 136 132.661 120.584 128.546 114.987C124.431 109.389 107.28 109.108 108.121 121.226C108.413 125.431 110.692 128.901 113.713 131.569L112.094 153.815L125.612 151.915L121.057 136.114Z" fill="#B28B67"/>
<path fill-rule="evenodd" clip-rule="evenodd" d="M124.941 111.422C124.605 111.282 123.903 110.985 123.555 110.89C123.473 110.867 122.874 110.558 122.861 110.564C122.468 110.761 121.348 111.439 121.308 111.894C121.296 111.93 121.285 111.963 121.274 111.993C121.148 112.322 121.037 112.657 120.934 112.995C120.707 113.737 120.529 114.504 120.363 115.263C120.04 116.742 119.789 118.244 119.576 119.745C119.358 121.272 119.207 122.807 119.012 124.338C118.73 126.54 118.28 128.713 118.002 130.913C117.825 132.318 117.813 133.717 118.106 135.096C118.109 135.113 118.112 135.129 118.116 135.146C118.117 135.153 118.119 135.16 118.121 135.166C118.167 135.378 118.221 135.59 118.282 135.801C118.335 135.981 118.389 136.162 118.444 136.343C118.823 135.226 119.062 134.02 119.335 132.869C119.361 132.756 119.386 132.643 119.41 132.53C119.516 132.289 119.625 132.05 119.736 131.811C120.434 130.306 121.137 128.805 121.796 127.28C122.98 124.537 124.143 121.743 125.642 119.166C126.085 118.405 126.541 117.653 126.976 116.887C127.224 116.452 127.463 116.011 127.691 115.564C127.854 115.244 128.599 114.106 128.192 113.542C127.984 113.253 125.811 111.787 124.941 111.422Z" fill="#2C2C2C"/>
<path fill-rule="evenodd" clip-rule="evenodd" d="M123.659 110.927C123.974 110.985 123.74 110.382 123.418 110.204C121.924 109.377 116.706 109.734 112.341 111.294C109.417 112.34 106.133 114.381 104.007 116.71C102.091 118.81 101.004 121.897 100.627 124.785C100.231 127.818 100.537 130.878 101.407 133.809C101.598 134.452 101.898 135.049 102.107 135.676C102.341 136.382 102.508 137.07 102.844 137.742C103.05 138.154 103.356 138.542 103.541 138.959C103.752 139.434 103.73 139.905 103.698 140.423C103.645 141.268 103.552 142.117 103.366 142.943C103.087 144.183 102.702 145.362 102.536 146.632C102.314 148.322 101.174 153.879 102.753 155.128L128.955 151.446C128.044 149.747 125.767 147.917 125.096 146.055C124.702 144.959 124.242 142.507 124.205 142.421C123.045 138.453 121.62 136.68 120.8 136.079C119.979 135.478 118.987 135.398 118.852 134.795C118.293 132.305 118.96 129.75 119.367 127.295C119.853 124.369 120.094 121.407 120.608 118.487C120.836 117.194 122.022 110.624 123.659 110.927Z" fill="#8991DC"/>
<path fill-rule="evenodd" clip-rule="evenodd" d="M122.86 128.925C121.716 122.961 121.686 120.572 122.46 115.981L121.602 116.101C120.49 118.037 120.105 123.532 122.177 129.021L122.86 128.925ZM106.001 131.006C105.8 130.662 105.595 130.311 105.382 129.95L104.873 130.288C107.476 136.313 110.249 140.858 118.01 143.903L118.514 143.435C111.045 139.631 109.088 136.284 106.001 131.006ZM115.143 122.077C115.291 122.61 115.434 123.13 115.574 123.638C117.724 131.433 119.087 136.376 126.132 144.699L125.507 144.989C118.001 137.408 116.028 130.636 114.54 122.211L115.143 122.077ZM112.54 148.689L112.076 149.444C114.956 149.633 117.146 151.414 119.657 153.456C122.314 155.617 125.33 158.069 129.901 159.237L130.636 158.641C125.575 156.862 123.04 154.744 120.826 152.894C118.534 150.98 116.587 149.353 112.54 148.689Z" fill="black" fill-opacity="0.2"/>
<path fill-rule="evenodd" clip-rule="evenodd" d="M183.04 240.684C181.982 252.201 183.04 276.957 183.609 284.098C183.967 288.586 190.112 287.411 190.685 283.819C190.782 283.21 191.178 281.073 191.769 277.883C194.666 262.241 202.248 221.305 202.261 211.351C202.267 206.787 192.059 203.137 187.975 208.651C184.617 206.303 179.852 205.674 176.913 210.415C174.689 214.005 169.404 224.195 163.767 236.095C158.829 246.519 151.113 271.825 151.113 271.825L157.664 274.804C157.664 274.804 173.845 248.906 184.033 230.75C183.695 233.874 183.359 237.219 183.04 240.684Z" fill="#B28B67"/>
<path fill-rule="evenodd" clip-rule="evenodd" d="M151.583 262.456L174.065 209.439C179.452 200.814 194.553 211.194 192.716 216.196C188.546 227.552 167.338 264.318 166.096 267.702L151.583 262.456Z" fill="#1F28CF"/>
<path fill-rule="evenodd" clip-rule="evenodd" d="M202.83 215.491C202.83 230.518 196.213 265.842 196.209 269.151L180.179 268.613C180.179 268.613 184.382 222.545 183.724 222.233C182.737 221.765 143.257 227.672 131.416 228.118C114.342 228.762 107.278 218.334 106.705 198.547L139.779 198.547C139.779 198.547 182.2 203.588 195.541 205.559C201.253 206.402 202.83 211.351 202.83 215.491Z" fill="#2B44FF"/>
<path fill-rule="evenodd" clip-rule="evenodd" d="M152.152 270.112C151.489 269.615 150.531 269.724 150.073 270.415C149.415 271.407 148.593 272.76 148.378 273.616C148.006 275.102 147.789 278.076 147.789 278.076C149.521 278.506 178.917 285.802 178.917 285.802C178.917 285.802 181.131 282.11 178.596 281.143C176.062 280.176 174.397 279.49 174.397 279.49L161.65 269.567C161.336 269.322 160.88 269.385 160.642 269.706L159.237 271.604C159.237 271.604 156.535 272.127 155.022 271.751C154.182 271.543 153.019 270.764 152.152 270.112Z" fill="#E4E4E4"/>
<path fill-rule="evenodd" clip-rule="evenodd" d="M184.593 275.123C183.829 274.799 182.927 275.135 182.65 275.917C182.252 277.038 181.783 278.548 181.783 279.431C181.783 280.963 182.296 283.901 182.296 283.901C184.081 283.901 214.377 283.901 214.377 283.901C214.377 283.901 215.627 279.786 212.933 279.457C210.239 279.129 208.457 278.865 208.457 278.865L193.677 272.306C193.312 272.144 192.885 272.315 192.733 272.683L191.83 274.864C191.83 274.864 189.336 276.022 187.776 276.022C186.91 276.022 185.593 275.546 184.593 275.123Z" fill="#E4E4E4"/>
<rect x="182.354" y="283.9" width="30.1458" height="3.96335" rx="1.98168" fill="#2F3676"/>
<path fill-rule="evenodd" clip-rule="evenodd" d="M181.104 164.54L159.29 170.685L164.674 180.042L181.718 170.385C189.603 170.055 193.338 169.343 192.923 168.247C192.573 167.323 191.706 167.152 190.907 166.993C190.285 166.87 189.704 166.755 189.442 166.299C188.843 165.258 191.05 162.615 193.251 160.197C195.452 157.779 193.726 157.633 192.679 157.812C189.065 159.209 185.207 161.451 181.104 164.54ZM80.5543 234.122C81.7364 230.557 90.1499 185.627 90.1499 185.627L102.49 183.94C102.49 183.94 88.5904 232.235 88.0227 234.5C87.2853 237.443 89.7712 241.22 91.4568 243.78C91.7176 244.176 91.9592 244.543 92.1668 244.874C90.4758 245.931 89.4727 245.081 88.4153 244.186C87.2209 243.174 85.9571 242.104 83.5541 243.656C82.6257 244.255 81.7625 244.931 80.9191 245.591C78.0059 247.871 75.3296 249.966 71.0246 248.089C70.3421 247.792 69.4494 246.436 70.9533 245.066C74.7 241.655 79.9764 235.865 80.5543 234.122Z" fill="#997659"/>
<path fill-rule="evenodd" clip-rule="evenodd" d="M118.462 141.94L128.209 141.223C133.597 162.308 148.453 174.016 176.814 165.36L184.544 192.401C157.925 199.698 132.632 192.236 123.648 163.669C121.323 156.274 119.219 148.533 118.462 141.94Z" fill="#AFB9C5"/>
<path fill-rule="evenodd" clip-rule="evenodd" d="M81.4663 228.329C83.1803 191.875 93.4707 162.413 112.338 139.942L113.296 139.807L113.305 139.815L128.406 141.094C130.864 158.59 136.612 171.113 142.137 183.152C144.524 188.352 146.868 193.461 148.889 198.842L109.373 204.395C109.711 210.838 110.288 217.427 111.054 224.17L81.4663 228.329Z" fill="#C5CFD6"/>
<path fill-rule="evenodd" clip-rule="evenodd" d="M109.372 204.395C108.684 191.28 108.99 178.773 110.721 166.814C111.714 179.203 113.653 194.473 117.403 203.267L109.372 204.395Z" fill="black" fill-opacity="0.1"/>
<path fill-rule="evenodd" clip-rule="evenodd" d="M261.537 91.4114C258.151 94.0566 254.69 95.5587 252.95 95.3325C248.589 94.7653 246.307 79.3949 248.832 72.9149C251.357 66.4349 267.85 61.7206 270.176 73.6596C270.984 77.8034 269.681 81.75 267.453 85.1132L274.778 106.211L261.229 107.875L261.537 91.4114Z" fill="#B28B67"/>
<path fill-rule="evenodd" clip-rule="evenodd" d="M259.004 76.3812C257.618 74.7857 256.33 73.5972 254.772 73.0064C248.827 73.8316 247.999 72.8528 247.558 69.2651C248.436 68.4608 251.689 66.8884 255.451 66.0966C257.322 65.3053 259.632 65.1273 261.959 65.7783C264.786 66.2155 267.303 67.5956 268.707 70.5855C273.185 76.491 271.192 83.4555 267.688 86.1812C266.536 85.1161 265.516 84.072 264.597 83.0655C265.151 82.3751 265.437 81.4714 265.321 80.5247C265.092 78.6599 263.39 77.3345 261.519 77.5642C261.381 77.581 261.247 77.6059 261.115 77.6381C261.317 79.98 261.939 87.9104 261.366 90.7621C260.69 94.124 254.527 95.6858 252.343 95.9539C250.458 96.1855 250.303 94.3975 250.193 93.1161C250.177 92.9315 250.162 92.7575 250.143 92.6015C250.103 92.2756 250.528 92.2243 251.008 92.1662C251.633 92.0908 252.35 92.0042 252.262 91.2907C252.167 90.5129 251.015 90.0487 249.985 89.6333C249.342 89.3741 248.746 89.1339 248.483 88.8485C247.654 87.9479 247.252 86.6453 248.32 86.5142C248.904 86.4426 249.745 86.6796 250.758 86.9648C252.287 87.3954 254.206 87.9357 256.214 87.6891C259.533 87.2816 259.01 76.5045 259.004 76.3812Z" fill="#191847"/>
<path fill-rule="evenodd" clip-rule="evenodd" d="M284.33 153.938L263.495 225.506L253.695 279.24H243.859L253.677 153.938H284.33Z" fill="#997659"/>
<path fill-rule="evenodd" clip-rule="evenodd" d="M293.693 153.938C292.24 191.117 292.813 211.396 293.138 214.774C293.464 218.151 295.311 240.774 307.898 280.374H297.668C280.998 242.385 275.179 219.762 273.267 214.774C271.355 209.785 265.708 189.507 257.464 153.938H293.693Z" fill="#B28B67"/>
<path fill-rule="evenodd" clip-rule="evenodd" d="M284.777 153.938C279.358 178.565 269.984 217.875 256.657 271.869H242.27C241.208 216.45 245.728 179.974 253.556 153.938H284.777Z" fill="#69A1AC"/>
<path fill-rule="evenodd" clip-rule="evenodd" d="M293.767 153.938C292.343 191.117 296.033 227.746 307.463 272.448H292.113C275.413 235.026 263.443 198.578 255.262 153.938H293.767Z" fill="#89C5CC"/>
<path fill-rule="evenodd" clip-rule="evenodd" d="M309.357 287.745L308.848 279.559C308.82 279.105 308.377 278.794 307.931 278.881C303.016 279.835 296.374 277.539 296.374 277.539C289.726 282.233 280.225 284.46 276.504 285.192C275.666 285.357 275.131 286.204 275.365 287.026L276.053 289.446H296.374H308.228L309.357 287.745Z" fill="#191847"/>
<path fill-rule="evenodd" clip-rule="evenodd" d="M255.891 287.745L255.381 279.559C255.353 279.105 254.911 278.794 254.464 278.881C249.55 279.835 242.908 277.539 242.908 277.539C236.259 282.233 226.759 284.46 223.038 285.192C222.199 285.357 221.664 286.204 221.898 287.026L222.586 289.446H242.908H254.762L255.891 287.745Z" fill="#191847"/>
<path fill-rule="evenodd" clip-rule="evenodd" d="M219.895 166.438L236.285 151.045L241.47 160.365L224.542 169.926C220.224 176.451 217.706 179.259 216.988 178.35C216.383 177.584 216.682 176.761 216.956 176.003C217.171 175.412 217.37 174.861 217.118 174.407C216.541 173.37 213.167 173.901 209.987 174.541C206.807 175.181 207.567 173.642 208.255 172.844C211.292 170.487 215.172 168.351 219.895 166.438ZM317.185 178.068C315.12 174.926 305.482 143.01 305.482 143.01L293.69 144.505C293.69 144.505 308.934 178.324 310.069 180.369C311.544 183.024 310.121 187.321 309.156 190.234C309.006 190.685 308.868 191.103 308.753 191.476C310.66 192.06 311.409 190.979 312.199 189.839C313.09 188.551 314.034 187.188 316.757 188.067C317.809 188.406 318.817 188.836 319.803 189.256C323.208 190.708 326.335 192.041 330.007 189.11C330.589 188.646 331.1 187.103 329.293 186.168C324.791 183.839 318.195 179.605 317.185 178.068Z" fill="#B28B67"/>
<path fill-rule="evenodd" clip-rule="evenodd" d="M265.896 97.7813L260.912 97.546C244.714 115.367 240.954 146.244 220.701 164.842L226.856 170.789C264.788 161.306 269.847 123.586 265.896 97.7813Z" fill="#E87613"/>
<path fill-rule="evenodd" clip-rule="evenodd" d="M294.688 156.32C294.688 156.32 265.327 159.925 251.493 161.624C249.519 161.866 249.542 158.98 249.652 157.511C250.913 140.562 261.578 121.149 258.686 97.5971L270.906 94.1198C283.24 109.376 289.302 129.279 294.688 156.32Z" fill="#DDE3E9"/>
<path fill-rule="evenodd" clip-rule="evenodd" d="M300.994 167.542C303.506 171.951 305.907 175.772 308.084 178.667L317.347 177.53C314.4 145.285 299.165 122.066 287.124 108.416C289.371 107.976 291.302 106.779 292.31 104.294C295.858 95.5437 293.659 91.2359 288.611 90.3511C285.835 89.8646 283.386 90.73 280.455 91.7659C278.056 92.6136 275.335 93.5755 271.846 94.0043C271.846 94.0043 271.846 94.0042 271.846 94.0042L271.846 94.0043C271.845 94.0044 271.844 94.0045 271.843 94.0047C271.505 94.0462 271.2 94.1066 270.926 94.1841L266.821 94.9268C266.821 94.9268 256.998 153.696 266.853 171.734L300.994 167.542Z" fill="#FF9B21"/>
<path fill-rule="evenodd" clip-rule="evenodd" d="M300.996 167.542C297.7 161.756 294.214 154.96 290.798 147.918C290.856 156.127 290.297 164.449 288.235 169.108L300.996 167.542Z" fill="black" fill-opacity="0.1"/>
<path fill-rule="evenodd" clip-rule="evenodd" d="M191.415 143.273C208.445 143.273 222.252 129.467 222.252 112.436C222.252 95.4057 208.445 81.5996 191.415 81.5996C174.384 81.5996 160.578 95.4057 160.578 112.436C160.578 129.467 174.384 143.273 191.415 143.273Z" fill="#EAE1A6" fill-opacity="0.8"/>
</g>
</svg>
