<svg width="81" height="93" viewBox="0 0 81 93" fill="none" xmlns="http://www.w3.org/2000/svg">
<rect width="68.2569" height="17.0642" rx="4.26606" fill="#ABFFB8"/>
<rect x="11.9448" y="25.5967" width="68.2569" height="17.0642" rx="4.26606" fill="#C6ABFF"/>
<rect y="50.3398" width="68.2569" height="17.0642" rx="4.26606" fill="#ABC8FF"/>
<rect x="11.9448" y="75.9355" width="68.2569" height="17.0642" rx="4.26606" fill="#FFABAB"/>
<circle cx="57.165" cy="8.53272" r="6.82569" fill="white"/>
<circle cx="57.165" cy="58.8716" r="6.82569" fill="white"/>
<circle cx="23.0366" cy="34.1284" r="6.82569" fill="white"/>
<circle cx="23.0366" cy="84.4683" r="6.82569" fill="white"/>
<path d="M56.9992 62.7073C58.3954 62.7073 59.4134 61.8056 59.4134 60.613C59.4134 59.6677 58.8317 58.9733 57.8828 58.7842V58.7369C58.6645 58.5042 59.1589 57.8716 59.1589 57.0208C59.1589 55.9555 58.3227 55.0575 57.0138 55.0575C55.7667 55.0575 54.7705 55.8573 54.7414 57.0208H55.3995C55.4213 56.1882 56.1412 55.6574 57.0065 55.6574C57.9046 55.6574 58.4972 56.2282 58.4972 57.0499C58.4972 57.9189 57.8028 58.4752 56.8393 58.4752H56.403V59.086H56.8393C58.0173 59.086 58.7445 59.7077 58.7445 60.613C58.7445 61.4711 58.0209 62.0965 56.992 62.0965C56.043 62.0965 55.3013 61.5583 55.265 60.7439H54.5778C54.6141 61.9038 55.6176 62.7073 56.9992 62.7073Z" fill="#042454"/>
<path d="M20.2748 86.6024H23.7507V88.2021H24.3979V86.6024H25.3868V85.9916H24.3979V80.7559H23.5944L20.2748 86.0497V86.6024ZM23.7507 85.9916H21.0347V85.9443L23.6998 81.6831H23.7507V85.9916Z" fill="#042454"/>
<path d="M57.7323 4.81942H57.0233L55.2636 5.98652V6.69188L57.0088 5.53204H57.0524V12.2656H57.7323V4.81942Z" fill="#042454"/>
<path d="M20.453 37.8623H25.0814V37.2515H21.3983V37.2042L23.2453 35.1427C24.4815 33.7756 24.8487 33.1575 24.8487 32.3322C24.8487 31.1978 23.9543 30.3143 22.7072 30.3143C21.4492 30.3143 20.5148 31.2014 20.5148 32.434H21.1656C21.1656 31.5505 21.7692 30.9142 22.689 30.9142C23.5544 30.9142 24.2088 31.4814 24.2088 32.3322C24.2088 33.0375 23.8343 33.5611 22.8854 34.63L20.453 37.3642V37.8623Z" fill="#042454"/>
</svg>
