<svg width="71" height="71" viewBox="0 0 71 71" fill="none" xmlns="http://www.w3.org/2000/svg">
<path d="M30.8304 9.20868C27.8686 8.62789 24.8095 8.78343 21.9219 9.66163C19.0343 10.5398 16.4065 12.1138 14.2696 14.2452C11.9903 16.5145 10.3483 19.3436 9.50861 22.4484C8.66893 25.5532 8.66113 28.8243 9.486 31.9331C10.3118 31.2203 11.3053 30.7292 12.3731 30.5059C13.4409 30.2825 14.548 30.3344 15.5902 30.6565C16.6325 30.9787 17.5758 31.5605 18.3313 32.3474C19.0869 33.1342 19.6301 34.1003 19.9097 35.1547C20.781 35.0288 21.669 35.0833 22.5184 35.315C23.3677 35.5467 24.1604 35.9507 24.847 36.5017C25.5337 37.0527 26.0997 37.739 26.5099 38.518C26.9202 39.297 27.1658 40.152 27.2316 41.03C28.7668 41.1389 30.2115 41.7972 31.301 42.8843C32.3906 43.9714 33.0521 45.4146 33.1645 46.9496C34.3898 47.0357 35.5645 47.4724 36.5484 48.2077C37.5324 48.9429 38.2841 49.9457 38.714 51.0963C39.1439 52.247 39.2337 53.497 38.9728 54.6973C38.7119 55.8976 38.1113 56.9975 37.2426 57.8659L36.1997 58.9042L39.2661 61.8019C39.6754 62.1896 40.2201 62.402 40.7838 62.3937C41.3476 62.3854 41.8858 62.1571 42.2836 61.7576C42.6514 61.3876 42.8743 60.898 42.9118 60.3777C42.9493 59.8573 42.7988 59.3408 42.4877 58.922L42.3191 58.7534C42.244 58.6785 42.1743 58.5984 42.1105 58.5137L41.6623 58.0611C41.2458 57.6435 41.0119 57.0778 41.0119 56.488C41.0119 55.8982 41.2458 55.3325 41.6623 54.9149C41.8676 54.7092 42.1114 54.5461 42.3798 54.4347C42.6482 54.3234 42.9359 54.2661 43.2265 54.2661C43.5171 54.2661 43.8048 54.3234 44.0733 54.4347C44.3417 54.5461 44.5855 54.7092 44.7907 54.9149L45.412 55.5362C45.5451 55.6693 45.6694 55.8024 45.7847 55.9444L46.1176 56.2817C46.3122 56.4778 46.5438 56.6335 46.799 56.7398C47.0541 56.846 47.3277 56.9007 47.6041 56.9007C47.8805 56.9007 48.1541 56.846 48.4093 56.7398C48.6644 56.6335 48.896 56.4778 49.0907 56.2817C49.4855 55.885 49.7072 55.3481 49.7072 54.7885C49.7072 54.2288 49.4855 53.6919 49.0907 53.2952L48.4251 52.6296C48.2121 52.4164 48.0449 52.162 47.9335 51.882C47.8221 51.602 47.7689 51.3023 47.7772 51.0011C47.7773 50.5636 47.9066 50.136 48.1491 49.7719C48.3915 49.4077 48.7361 49.1234 49.1397 48.9546C49.5432 48.7858 49.9877 48.74 50.4171 48.823C50.8466 48.9061 51.242 49.1142 51.5535 49.4213L52.0594 49.9272C52.2754 50.1444 52.5323 50.3168 52.8152 50.4344C53.0981 50.552 53.4015 50.6126 53.7079 50.6126C54.0143 50.6126 54.3177 50.552 54.6006 50.4344C54.8835 50.3168 55.1404 50.1444 55.3564 49.9272C55.7924 49.4875 56.0371 48.8934 56.0371 48.2742C56.0371 47.655 55.7924 47.0609 55.3564 46.6212L55.2455 46.5059C55.1066 46.3848 54.9719 46.259 54.8417 46.1287L51.4026 42.6763C50.9875 42.2589 50.7544 41.6941 50.7544 41.1054C50.7544 40.5167 50.9875 39.952 51.4026 39.5346C51.6079 39.3289 51.8517 39.1657 52.1201 39.0543C52.3885 38.943 52.6762 38.8857 52.9668 38.8857C53.2574 38.8857 53.5452 38.943 53.8136 39.0543C54.082 39.1657 54.3258 39.3289 54.5311 39.5346L57.766 42.7739C57.8426 42.8342 57.9153 42.8994 57.9834 42.9692L58.2497 43.2354C58.9372 43.7955 59.8082 44.0802 60.6938 44.0342C61.5794 43.9883 62.4163 43.6151 63.0422 42.9869C63.715 42.3109 64.0928 41.3958 64.0928 40.442C64.0928 39.4882 63.715 38.5732 63.0422 37.8971L59.7673 34.6089C59.7228 34.5708 59.6798 34.5308 59.6386 34.4891L46.3616 20.9902H42.9625L35.3655 26.7679C31.6912 29.5635 26.4461 28.8535 23.6461 25.1792C22.9799 24.3064 22.4923 23.3107 22.2114 22.2493C21.9304 21.1878 21.8616 20.0813 22.0087 18.9932C22.1558 17.9051 22.5161 16.8567 23.0689 15.9079C23.6217 14.9592 24.3562 14.1288 25.2302 13.4642L30.8304 9.20424V9.20868Z" fill="#ABC8FF"/>
<path d="M47.2944 16.5529C47.5887 16.5535 47.8799 16.6127 48.1511 16.727C48.4223 16.8413 48.6681 17.0084 48.8741 17.2185L60.8376 29.3773C61.6937 27.6776 62.1948 25.8215 62.3104 23.922C62.4261 22.0224 62.1539 20.1192 61.5104 18.3282C60.8669 16.5373 59.8656 14.896 58.5675 13.5045C57.2693 12.1129 55.7015 11.0001 53.9595 10.2339C52.5171 9.4361 50.8952 9.01915 49.2469 9.02248H38.375C38.3066 9.08921 38.234 9.15146 38.1576 9.20886L27.9202 16.9967C27.5099 17.3079 27.165 17.6971 26.9053 18.1419C26.6457 18.5867 26.4764 19.0784 26.4071 19.5887C26.3379 20.0991 26.37 20.6181 26.5018 21.116C26.6335 21.6139 26.8622 22.0809 27.1747 22.4903C27.8065 23.3189 28.7414 23.8629 29.7739 24.0027C30.8065 24.1425 31.8524 23.8667 32.6817 23.2358L40.8733 17.0055C41.2587 16.7125 41.7293 16.5535 42.2134 16.5529H47.2944Z" fill="#C6ABFF"/>
<path d="M28.1602 48.8095L25.2492 51.716C24.8781 52.0862 24.3755 52.2941 23.8514 52.2941C23.3273 52.2941 22.8246 52.0862 22.4535 51.716C22.0917 51.3564 21.8838 50.8701 21.8739 50.3601C21.864 49.85 22.0527 49.356 22.4003 48.9825L22.458 48.9249L25.369 46.0183L25.4222 45.9695C25.7974 45.6241 26.2911 45.4365 26.801 45.4456C27.3108 45.4547 27.7976 45.6598 28.1602 46.0183C28.3444 46.201 28.4906 46.4184 28.5904 46.658C28.6902 46.8975 28.7415 47.1544 28.7415 47.4139C28.7415 47.6734 28.6902 47.9303 28.5904 48.1698C28.4906 48.4093 28.3444 48.6267 28.1602 48.8095V48.8095Z" fill="#C6ABFF"/>
<path d="M28.3897 57.6343C28.7607 58.0045 29.2634 58.2123 29.7875 58.2123C30.3116 58.2123 30.8143 58.0045 31.1853 57.6343L34.1007 54.7277C34.3084 54.5213 34.4673 54.271 34.5659 53.9952C34.6644 53.7195 34.7001 53.4251 34.6704 53.1338C34.6406 52.8425 34.5461 52.5615 34.3938 52.3113C34.2415 52.0612 34.0353 51.8482 33.7901 51.688C33.4099 51.4382 32.9553 51.3269 32.5027 51.373C32.0501 51.419 31.6271 51.6196 31.3051 51.941L28.3897 54.8475C28.2061 55.0302 28.0605 55.2473 27.9611 55.4865C27.8617 55.7256 27.8105 55.982 27.8105 56.2409C27.8105 56.4999 27.8617 56.7563 27.9611 56.9954C28.0605 57.2345 28.2061 57.4516 28.3897 57.6343V57.6343Z" fill="#C6ABFF"/>
<path d="M15.1445 38.1186L12.2335 41.0296C11.8625 41.3997 11.3598 41.6076 10.8357 41.6076C10.3116 41.6076 9.80895 41.3997 9.43792 41.0296C9.07607 40.6699 8.86822 40.1837 8.85828 39.6736C8.84835 39.1635 9.03711 38.6695 9.38467 38.2961L9.43792 38.2384L12.3534 35.3318L12.4066 35.283C12.7818 34.9372 13.2761 34.7497 13.7863 34.7597C14.2964 34.7696 14.783 34.9761 15.1445 35.3363C15.3281 35.5189 15.4737 35.736 15.5731 35.9752C15.6725 36.2143 15.7237 36.4707 15.7237 36.7296C15.7237 36.9886 15.6725 37.245 15.5731 37.4841C15.4737 37.7232 15.3281 37.9403 15.1445 38.123V38.1186Z" fill="#C6ABFF"/>
<path d="M21.6991 43.063L18.7837 45.9651C18.4126 46.3353 17.9099 46.5432 17.3858 46.5432C16.8617 46.5432 16.3591 46.3353 15.988 45.9651C15.6275 45.6057 15.4205 45.1204 15.4105 44.6113C15.4006 44.1023 15.5885 43.6093 15.9348 43.2361L15.9925 43.1784L18.9035 40.2718L18.9567 40.2186C19.3319 39.8728 19.8262 39.6853 20.3364 39.6952C20.8465 39.7051 21.3332 39.9117 21.6947 40.2718C21.8789 40.4545 22.0251 40.672 22.1249 40.9115C22.2246 41.151 22.276 41.4079 22.276 41.6674C22.276 41.9269 22.2246 42.1838 22.1249 42.4233C22.0251 42.6628 21.8789 42.8803 21.6947 43.063H21.6991Z" fill="#C6ABFF"/>
</svg>
