<svg width="78" height="95" viewBox="0 0 78 95" fill="none" xmlns="http://www.w3.org/2000/svg">
<path d="M13.9341 42L14.4193 42.8291C17.9255 48.821 23.9697 52.8899 30.8405 53.8837L31.8836 54.0346" stroke="#042454" stroke-width="0.884581" stroke-linecap="round" stroke-linejoin="round"/>
<path d="M53 46.7412L53.706 46.0897C58.8081 41.3818 61.4883 34.6065 60.9879 27.6822L60.9119 26.6311" stroke="#042454" stroke-width="0.884581" stroke-linecap="round" stroke-linejoin="round"/>
<path d="M45.584 64.7925L45.7614 65.5796C47.0432 71.2677 50.8457 76.0625 56.0924 78.6063L56.8888 78.9925" stroke="#042454" stroke-width="0.88" stroke-linecap="round" stroke-linejoin="round"/>
<path d="M35.6851 63L35.5921 63.4126C34.9201 66.3945 32.9267 68.9081 30.1762 70.2417L29.7587 70.4441" stroke="#042454" stroke-width="0.88" stroke-linecap="round" stroke-linejoin="round"/>
<mask id="path-5-inside-1" fill="white">
<path d="M47.6688 23.0071V20.8159C47.6688 19.6537 48.1305 18.539 48.9524 17.7172C49.7742 16.8953 50.8889 16.4336 52.0512 16.4336H60.8159C61.9782 16.4336 63.0928 16.8953 63.9147 17.7172C64.7365 18.539 65.1982 19.6537 65.1982 20.8159V23.0071"/>
</mask>
<path d="M47.6688 23.0071V20.8159C47.6688 19.6537 48.1305 18.539 48.9524 17.7172C49.7742 16.8953 50.8889 16.4336 52.0512 16.4336H60.8159C61.9782 16.4336 63.0928 16.8953 63.9147 17.7172C64.7365 18.539 65.1982 19.6537 65.1982 20.8159V23.0071" fill="#C6ABFF"/>
<path d="M49.6688 23.0071C49.6688 24.1117 48.7734 25.0071 47.6688 25.0071C46.5643 25.0071 45.6688 24.1117 45.6688 23.0071H49.6688ZM52.0512 16.4336V14.4336V16.4336ZM60.8159 16.4336V14.4336V16.4336ZM65.1982 20.8159H67.1982H65.1982ZM67.1982 23.0071C67.1982 24.1117 66.3028 25.0071 65.1982 25.0071C64.0937 25.0071 63.1982 24.1117 63.1982 23.0071H67.1982ZM45.6688 23.0071V20.8159H49.6688V23.0071H45.6688ZM45.6688 20.8159C45.6688 19.1232 46.3413 17.4999 47.5382 16.3029L50.3666 19.1314C49.9198 19.5781 49.6688 20.1841 49.6688 20.8159H45.6688ZM47.5382 16.3029C48.7351 15.106 50.3585 14.4336 52.0512 14.4336L52.0512 18.4336C51.4193 18.4336 50.8134 18.6846 50.3666 19.1314L47.5382 16.3029ZM52.0512 14.4336H60.8159V18.4336H52.0512V14.4336ZM60.8159 14.4336C62.5086 14.4336 64.132 15.106 65.3289 16.3029L62.5005 19.1314C62.0537 18.6846 61.4477 18.4336 60.8159 18.4336V14.4336ZM65.3289 16.3029C66.5258 17.4999 67.1982 19.1232 67.1982 20.8159H63.1982C63.1982 20.1841 62.9472 19.5781 62.5005 19.1314L65.3289 16.3029ZM67.1982 20.8159V23.0071H63.1982V20.8159H67.1982Z" fill="#C6ABFF" mask="url(#path-5-inside-1)"/>
<path d="M56.4336 12.0518C54.0133 12.0518 52.0512 10.0898 52.0512 7.66946C52.0512 5.24916 54.0133 3.28711 56.4336 3.28711C58.8539 3.28711 60.8159 5.24916 60.8159 7.66946C60.8159 10.0898 58.8539 12.0518 56.4336 12.0518Z" fill="#C6ABFF" stroke="#C6ABFF" stroke-width="2" stroke-linecap="round" stroke-linejoin="round"/>
<mask id="path-8-inside-2" fill="white">
<path d="M35.6688 60.0071V57.8159C35.6688 56.6537 36.1305 55.539 36.9524 54.7172C37.7742 53.8953 38.8889 53.4336 40.0512 53.4336H48.8159C49.9782 53.4336 51.0928 53.8953 51.9147 54.7172C52.7365 55.539 53.1982 56.6537 53.1982 57.8159V60.0071"/>
</mask>
<path d="M35.6688 60.0071V57.8159C35.6688 56.6537 36.1305 55.539 36.9524 54.7172C37.7742 53.8953 38.8889 53.4336 40.0512 53.4336H48.8159C49.9782 53.4336 51.0928 53.8953 51.9147 54.7172C52.7365 55.539 53.1982 56.6537 53.1982 57.8159V60.0071" fill="#ABC8FF"/>
<path d="M37.6688 60.0071C37.6688 61.1117 36.7734 62.0071 35.6688 62.0071C34.5643 62.0071 33.6688 61.1117 33.6688 60.0071H37.6688ZM40.0512 53.4336V51.4336V53.4336ZM48.8159 53.4336V51.4336V53.4336ZM53.1982 57.8159H55.1982H53.1982ZM55.1982 60.0071C55.1982 61.1117 54.3028 62.0071 53.1982 62.0071C52.0937 62.0071 51.1982 61.1117 51.1982 60.0071H55.1982ZM33.6688 60.0071V57.8159H37.6688V60.0071H33.6688ZM33.6688 57.8159C33.6688 56.1232 34.3413 54.4999 35.5382 53.3029L38.3666 56.1314C37.9198 56.5781 37.6688 57.1841 37.6688 57.8159H33.6688ZM35.5382 53.3029C36.7351 52.106 38.3585 51.4336 40.0512 51.4336L40.0512 55.4336C39.4193 55.4336 38.8134 55.6846 38.3666 56.1314L35.5382 53.3029ZM40.0512 51.4336H48.8159V55.4336H40.0512V51.4336ZM48.8159 51.4336C50.5086 51.4336 52.132 52.106 53.3289 53.3029L50.5005 56.1314C50.0537 55.6846 49.4477 55.4336 48.8159 55.4336V51.4336ZM53.3289 53.3029C54.5258 54.4999 55.1982 56.1232 55.1982 57.8159H51.1982C51.1982 57.1841 50.9472 56.5781 50.5005 56.1314L53.3289 53.3029ZM55.1982 57.8159V60.0071H51.1982V57.8159H55.1982Z" fill="#ABC8FF" mask="url(#path-8-inside-2)"/>
<path d="M44.4336 49.0518C42.0133 49.0518 40.0512 47.0898 40.0512 44.6695C40.0512 42.2492 42.0133 40.2871 44.4336 40.2871C46.8539 40.2871 48.8159 42.2492 48.8159 44.6695C48.8159 47.0898 46.8539 49.0518 44.4336 49.0518Z" fill="#ABC8FF" stroke="#ABC8FF" stroke-width="2" stroke-linecap="round" stroke-linejoin="round"/>
<mask id="path-11-inside-3" fill="white">
<path d="M14.6688 91.0071V88.8159C14.6688 87.6537 15.1305 86.539 15.9524 85.7172C16.7742 84.8953 17.8889 84.4336 19.0512 84.4336H27.8159C28.9782 84.4336 30.0928 84.8953 30.9147 85.7172C31.7365 86.539 32.1982 87.6537 32.1982 88.8159V91.0071"/>
</mask>
<path d="M14.6688 91.0071V88.8159C14.6688 87.6537 15.1305 86.539 15.9524 85.7172C16.7742 84.8953 17.8889 84.4336 19.0512 84.4336H27.8159C28.9782 84.4336 30.0928 84.8953 30.9147 85.7172C31.7365 86.539 32.1982 87.6537 32.1982 88.8159V91.0071" fill="#C6ABFF"/>
<path d="M16.6688 91.0071C16.6688 92.1117 15.7734 93.0071 14.6688 93.0071C13.5643 93.0071 12.6688 92.1117 12.6688 91.0071H16.6688ZM19.0512 84.4336V82.4336V84.4336ZM27.8159 84.4336L27.8159 82.4336L27.8159 84.4336ZM32.1982 88.8159H34.1982H32.1982ZM34.1982 91.0071C34.1982 92.1117 33.3028 93.0071 32.1982 93.0071C31.0937 93.0071 30.1982 92.1117 30.1982 91.0071H34.1982ZM12.6688 91.0071V88.8159H16.6688V91.0071H12.6688ZM12.6688 88.8159C12.6688 87.1232 13.3413 85.4999 14.5382 84.3029L17.3666 87.1314C16.9198 87.5781 16.6688 88.1841 16.6688 88.8159H12.6688ZM14.5382 84.3029C15.7351 83.106 17.3585 82.4336 19.0512 82.4336L19.0512 86.4336C18.4193 86.4336 17.8134 86.6846 17.3666 87.1314L14.5382 84.3029ZM19.0512 82.4336H27.8159V86.4336H19.0512V82.4336ZM27.8159 82.4336C29.5086 82.4336 31.132 83.106 32.3289 84.3029L29.5005 87.1314C29.0537 86.6846 28.4477 86.4336 27.8159 86.4336L27.8159 82.4336ZM32.3289 84.3029C33.5258 85.4999 34.1982 87.1232 34.1982 88.8159H30.1982C30.1982 88.1841 29.9472 87.5781 29.5005 87.1314L32.3289 84.3029ZM34.1982 88.8159V91.0071H30.1982V88.8159H34.1982Z" fill="#C6ABFF" mask="url(#path-11-inside-3)"/>
<path d="M23.4336 80.0513C21.0133 80.0513 19.0512 78.0893 19.0512 75.669C19.0512 73.2487 21.0133 71.2866 23.4336 71.2866C25.8539 71.2866 27.8159 73.2487 27.8159 75.669C27.8159 78.0893 25.8539 80.0513 23.4336 80.0513Z" fill="#C6ABFF" stroke="#C6ABFF" stroke-width="2" stroke-linecap="round" stroke-linejoin="round"/>
<mask id="path-14-inside-4" fill="white">
<path d="M58.6688 83.0071V80.8159C58.6688 79.6537 59.1305 78.539 59.9524 77.7172C60.7742 76.8953 61.8889 76.4336 63.0512 76.4336H71.8159C72.9782 76.4336 74.0928 76.8953 74.9147 77.7172C75.7365 78.539 76.1982 79.6537 76.1982 80.8159V83.0071"/>
</mask>
<path d="M58.6688 83.0071V80.8159C58.6688 79.6537 59.1305 78.539 59.9524 77.7172C60.7742 76.8953 61.8889 76.4336 63.0512 76.4336H71.8159C72.9782 76.4336 74.0928 76.8953 74.9147 77.7172C75.7365 78.539 76.1982 79.6537 76.1982 80.8159V83.0071" fill="#C6ABFF"/>
<path d="M60.6688 83.0071C60.6688 84.1117 59.7734 85.0071 58.6688 85.0071C57.5643 85.0071 56.6688 84.1117 56.6688 83.0071H60.6688ZM63.0512 76.4336V74.4336V76.4336ZM71.8159 76.4336V74.4336V76.4336ZM76.1982 80.8159H78.1982H76.1982ZM78.1982 83.0071C78.1982 84.1117 77.3028 85.0071 76.1982 85.0071C75.0937 85.0071 74.1982 84.1117 74.1982 83.0071H78.1982ZM56.6688 83.0071V80.8159H60.6688V83.0071H56.6688ZM56.6688 80.8159C56.6688 79.1232 57.3413 77.4999 58.5382 76.3029L61.3666 79.1314C60.9198 79.5781 60.6688 80.1841 60.6688 80.8159H56.6688ZM58.5382 76.3029C59.7351 75.106 61.3585 74.4336 63.0512 74.4336L63.0512 78.4336C62.4193 78.4336 61.8134 78.6846 61.3666 79.1314L58.5382 76.3029ZM63.0512 74.4336H71.8159V78.4336H63.0512V74.4336ZM71.8159 74.4336C73.5086 74.4336 75.132 75.106 76.3289 76.3029L73.5005 79.1314C73.0537 78.6846 72.4477 78.4336 71.8159 78.4336V74.4336ZM76.3289 76.3029C77.5258 77.4999 78.1982 79.1232 78.1982 80.8159H74.1982C74.1982 80.1841 73.9472 79.5781 73.5005 79.1314L76.3289 76.3029ZM78.1982 80.8159V83.0071H74.1982V80.8159H78.1982Z" fill="#C6ABFF" mask="url(#path-14-inside-4)"/>
<path d="M67.4336 72.0513C65.0133 72.0513 63.0512 70.0893 63.0512 67.669C63.0512 65.2487 65.0133 63.2866 67.4336 63.2866C69.8539 63.2866 71.8159 65.2487 71.8159 67.669C71.8159 70.0893 69.8539 72.0513 67.4336 72.0513Z" fill="#C6ABFF" stroke="#C6ABFF" stroke-width="2" stroke-linecap="round" stroke-linejoin="round"/>
<mask id="path-17-inside-5" fill="white">
<path d="M7.66883 39.0071V36.8159C7.66883 35.6537 8.13054 34.539 8.95239 33.7172C9.77424 32.8953 10.8889 32.4336 12.0512 32.4336H20.8159C21.9782 32.4336 23.0928 32.8953 23.9147 33.7172C24.7365 34.539 25.1982 35.6537 25.1982 36.8159V39.0071"/>
</mask>
<path d="M7.66883 39.0071V36.8159C7.66883 35.6537 8.13054 34.539 8.95239 33.7172C9.77424 32.8953 10.8889 32.4336 12.0512 32.4336H20.8159C21.9782 32.4336 23.0928 32.8953 23.9147 33.7172C24.7365 34.539 25.1982 35.6537 25.1982 36.8159V39.0071" fill="#C6ABFF"/>
<path d="M9.66883 39.0071C9.66883 40.1117 8.7734 41.0071 7.66883 41.0071C6.56426 41.0071 5.66883 40.1117 5.66883 39.0071H9.66883ZM12.0512 32.4336V30.4336V32.4336ZM20.8159 32.4336L20.8159 30.4336L20.8159 32.4336ZM25.1982 36.8159H27.1982H25.1982ZM27.1982 39.0071C27.1982 40.1117 26.3028 41.0071 25.1982 41.0071C24.0937 41.0071 23.1982 40.1117 23.1982 39.0071H27.1982ZM5.66883 39.0071V36.8159H9.66883V39.0071H5.66883ZM5.66883 36.8159C5.66883 35.1232 6.34126 33.4999 7.53818 32.3029L10.3666 35.1314C9.91983 35.5781 9.66883 36.1841 9.66883 36.8159H5.66883ZM7.53818 32.3029C8.7351 31.106 10.3585 30.4336 12.0512 30.4336L12.0512 34.4336C11.4193 34.4336 10.8134 34.6846 10.3666 35.1314L7.53818 32.3029ZM12.0512 30.4336H20.8159V34.4336H12.0512V30.4336ZM20.8159 30.4336C22.5086 30.4336 24.132 31.106 25.3289 32.3029L22.5005 35.1314C22.0537 34.6846 21.4477 34.4336 20.8159 34.4336L20.8159 30.4336ZM25.3289 32.3029C26.5258 33.4999 27.1982 35.1232 27.1982 36.8159H23.1982C23.1982 36.1841 22.9472 35.5781 22.5005 35.1314L25.3289 32.3029ZM27.1982 36.8159V39.0071H23.1982V36.8159H27.1982Z" fill="#C6ABFF" mask="url(#path-17-inside-5)"/>
<path d="M16.4336 28.0518C14.0133 28.0518 12.0512 26.0898 12.0512 23.6695C12.0512 21.2492 14.0133 19.2871 16.4336 19.2871C18.8539 19.2871 20.8159 21.2492 20.8159 23.6695C20.8159 26.0898 18.8539 28.0518 16.4336 28.0518Z" fill="#C6ABFF" stroke="#C6ABFF" stroke-width="2" stroke-linecap="round" stroke-linejoin="round"/>
</svg>
