<svg width="261" height="260" viewBox="0 0 261 260" fill="none" xmlns="http://www.w3.org/2000/svg">
<path d="M257.488 4.90909H255.232L251.978 6.99929V9.17259L255.04 7.21662H255.116V18H257.488V4.90909Z" fill="#003BB9"/>
<path d="M1.92685 15.571H8.17188V18H10.4347V15.571H12.1094V13.6214H10.4347V4.90909H7.48153L1.92685 13.6854V15.571ZM8.19744 13.6214H4.35582V13.5192L8.09517 7.59375H8.19744V13.6214Z" fill="#003BB9"/>
<path d="M6.86151 256.179C9.66122 256.179 11.7003 254.575 11.6939 252.363C11.7003 250.727 10.6776 249.55 8.84304 249.288V249.186C10.2621 248.879 11.2145 247.825 11.2081 246.354C11.2145 244.36 9.5142 242.73 6.89986 242.73C4.35582 242.73 2.38707 244.245 2.33594 246.438H4.6179C4.65625 245.338 5.67898 244.654 6.88707 244.654C8.10795 244.654 8.91974 245.396 8.91335 246.495C8.91974 247.639 7.97372 248.4 6.61861 248.4H5.46165V250.228H6.61861C8.27415 250.228 9.25852 251.059 9.25213 252.241C9.25852 253.398 8.25497 254.191 6.85511 254.191C5.53835 254.191 4.52202 253.507 4.46449 252.44H2.06108C2.125 254.651 4.10014 256.179 6.86151 256.179Z" fill="#003BB9"/>
<path d="M250.163 256H259.138V254.018H253.436V253.929L255.692 251.634C258.237 249.192 258.94 248.004 258.94 246.527C258.94 244.335 257.156 242.73 254.523 242.73C251.928 242.73 250.087 244.341 250.087 246.827H252.343C252.343 245.491 253.187 244.654 254.491 244.654C255.737 244.654 256.664 245.415 256.664 246.648C256.664 247.741 255.999 248.521 254.708 249.832L250.163 254.287V256Z" fill="#003BB9"/>
<path d="M130 0C147.072 2.0358e-07 163.977 3.36255 179.749 9.89566C195.521 16.4288 209.852 26.0045 221.924 38.0761C233.995 50.1477 243.571 64.4788 250.104 80.2512C256.637 96.0235 260 112.928 260 130H182C182 123.171 180.655 116.409 178.042 110.1C175.428 103.792 171.598 98.0591 166.77 93.2304C161.941 88.4018 156.208 84.5715 149.9 81.9583C143.591 79.345 136.829 78 130 78V0Z" fill="#F2B5B8"/>
<path d="M260 130C260 147.072 256.637 163.977 250.104 179.749C243.571 195.521 233.995 209.852 221.924 221.924C209.852 233.995 195.521 243.571 179.749 250.104C163.976 256.637 147.072 260 130 260L130 182C136.829 182 143.591 180.655 149.9 178.042C156.208 175.428 161.941 171.598 166.77 166.77C171.598 161.941 175.428 156.208 178.042 149.9C180.655 143.591 182 136.829 182 130L260 130Z" fill="#D4CBEF"/>
<path d="M130 260C112.928 260 96.0235 256.637 80.2512 250.104C64.4788 243.571 50.1477 233.996 38.0761 221.924C26.0045 209.852 16.4288 195.521 9.89568 179.749C3.36257 163.977 2.06451e-05 147.072 1.91526e-05 130L78 130C78 136.829 79.345 143.591 81.9583 149.9C84.5715 156.208 88.4018 161.941 93.2305 166.77C98.0591 171.598 103.792 175.429 110.1 178.042C116.409 180.655 123.171 182 130 182L130 260Z" fill="#A5E0EC"/>
<path d="M-5.68248e-06 130C-6.22513e-06 112.928 3.36254 96.0235 9.89565 80.2512C16.4288 64.4788 26.0045 50.1477 38.0761 38.0761C50.1477 26.0045 64.4788 16.4288 80.2511 9.89569C96.0235 3.36258 112.928 2.55813e-05 130 2.48351e-05L130 78C123.171 78 116.409 79.345 110.1 81.9583C103.792 84.5715 98.0591 88.4018 93.2304 93.2305C88.4018 98.0591 84.5715 103.792 81.9582 110.1C79.345 116.409 78 123.171 78 130L-5.68248e-06 130Z" fill="#A9EEB6"/>
<path d="M198.281 88.6719C207.989 88.6719 215.859 80.8019 215.859 71.0938C215.859 61.3856 207.989 53.5156 198.281 53.5156C188.573 53.5156 180.703 61.3856 180.703 71.0938C180.703 80.8019 188.573 88.6719 198.281 88.6719Z" stroke="#042454" stroke-width="2" stroke-linecap="round" stroke-linejoin="round"/>
<path d="M205.734 63.6406L202.008 74.8203L190.828 78.5469L194.555 67.3672L205.734 63.6406Z" stroke="#042454" stroke-width="2" stroke-linecap="round" stroke-linejoin="round"/>
<path d="M201.797 170.705H187.735C186.802 170.705 185.908 171.075 185.249 171.735C184.589 172.394 184.219 173.288 184.219 174.221V202.346C184.219 203.278 184.589 204.172 185.249 204.832C185.908 205.491 186.802 205.861 187.735 205.861H208.828C209.761 205.861 210.655 205.491 211.314 204.832C211.974 204.172 212.344 203.278 212.344 202.346V181.252L201.797 170.705Z" stroke="#042454" stroke-width="2" stroke-linecap="round" stroke-linejoin="round"/>
<path d="M201.797 170.705V181.252H212.344" stroke="#042454" stroke-width="2" stroke-linecap="round" stroke-linejoin="round"/>
<path d="M198.281 197.547V187" stroke="#042454" stroke-width="2" stroke-linecap="round" stroke-linejoin="round"/>
<path d="M193.008 192.273H203.555" stroke="#042454" stroke-width="2" stroke-linecap="round" stroke-linejoin="round"/>
<path d="M73.3984 174.219H48.7891C46.8474 174.219 45.2734 175.793 45.2734 177.734V202.344C45.2734 204.285 46.8474 205.859 48.7891 205.859H73.3984C75.3401 205.859 76.9141 204.285 76.9141 202.344V177.734C76.9141 175.793 75.3401 174.219 73.3984 174.219Z" stroke="#042454" stroke-width="2" stroke-linecap="round" stroke-linejoin="round"/>
<path d="M68.125 170.703V177.734" stroke="#042454" stroke-width="2" stroke-linecap="round" stroke-linejoin="round"/>
<path d="M54.0625 170.703V177.734" stroke="#042454" stroke-width="2" stroke-linecap="round" stroke-linejoin="round"/>
<path d="M45.2734 184.766H76.9141" stroke="#042454" stroke-width="2" stroke-linecap="round" stroke-linejoin="round"/>
<path d="M71.6406 64.0625C74.5531 64.0625 76.9141 61.7015 76.9141 58.7891C76.9141 55.8766 74.5531 53.5156 71.6406 53.5156C68.7282 53.5156 66.3672 55.8766 66.3672 58.7891C66.3672 61.7015 68.7282 64.0625 71.6406 64.0625Z" stroke="#042454" stroke-width="2" stroke-linecap="round" stroke-linejoin="round"/>
<path d="M50.5469 76.3672C53.4593 76.3672 55.8203 74.0062 55.8203 71.0938C55.8203 68.1813 53.4593 65.8203 50.5469 65.8203C47.6344 65.8203 45.2734 68.1813 45.2734 71.0938C45.2734 74.0062 47.6344 76.3672 50.5469 76.3672Z" stroke="#042454" stroke-width="2" stroke-linecap="round" stroke-linejoin="round"/>
<path d="M71.6406 88.6719C74.5531 88.6719 76.9141 86.3109 76.9141 83.3984C76.9141 80.486 74.5531 78.125 71.6406 78.125C68.7282 78.125 66.3672 80.486 66.3672 83.3984C66.3672 86.3109 68.7282 88.6719 71.6406 88.6719Z" stroke="#042454" stroke-width="2" stroke-linecap="round" stroke-linejoin="round"/>
<path d="M55.0999 73.748L67.1057 80.7441" stroke="#042454" stroke-width="2" stroke-linecap="round" stroke-linejoin="round"/>
<path d="M67.0881 61.4434L55.0999 68.4395" stroke="#042454" stroke-width="2" stroke-linecap="round" stroke-linejoin="round"/>
<path d="M137.734 134.06C136.888 135.77 135.516 137.164 133.819 138.038C132.134 138.903 130.214 139.195 128.348 138.87C126.477 138.541 124.762 137.614 123.461 136.23C122.148 134.832 121.312 133.054 121.073 131.151C120.83 129.243 121.196 127.308 122.117 125.621C123.03 123.946 124.456 122.609 126.186 121.806C127.904 121.01 129.835 120.796 131.686 121.198C133.536 121.599 135.052 122.511 136.306 123.953C136.457 124.113 137.041 124.759 137.526 125.734" stroke="#042454" stroke-width="2" stroke-linecap="round" stroke-linejoin="round"/>
<path d="M133.069 125.813L138.109 126.72L139 121.59" stroke="#042454" stroke-width="2" stroke-linecap="round" stroke-linejoin="round"/>
</svg>
