<svg width="649" height="475" viewBox="0 0 649 475" fill="none" xmlns="http://www.w3.org/2000/svg">
<path fill-rule="evenodd" clip-rule="evenodd" d="M47.8551 342.031C62.1363 286.816 206.645 318.271 301.384 301.201C396.122 284.131 508.206 204.633 582.385 243.575C656.564 282.517 577.638 376.651 407.504 397.894C237.369 419.137 33.5738 397.246 47.8551 342.031Z" fill="#F2F2F2"/>
<g opacity="0.5">
<path fill-rule="evenodd" clip-rule="evenodd" d="M170.603 103.889C169.715 104.776 170.06 107.927 170.041 109.093C170.013 110.908 170.126 112.707 170.278 114.516C170.379 115.727 170.953 127.285 172.548 126.397C173.447 125.897 172.883 122.554 172.882 121.496C172.878 119.145 172.78 116.8 172.624 114.454C172.478 112.276 172.386 110.124 172.47 107.942C172.491 107.409 172.989 101.499 170.603 103.889" fill="#89C5CC"/>
<path fill-rule="evenodd" clip-rule="evenodd" d="M209.275 102.465C201.646 102.526 194.02 102.902 186.394 103.133C182.725 103.244 179.058 103.385 175.393 103.588C174.144 103.658 171.465 103.258 170.424 103.923C168.114 105.401 171.84 105.746 172.833 105.71C187.923 105.163 203.019 104.442 218.123 104.408C225.531 104.392 232.937 104.603 240.346 104.555C243.179 104.537 246.315 103.317 247.03 106.614C247.838 110.334 246.91 114.476 246.658 118.214C246.489 120.71 246.549 123.153 246.662 125.647C246.734 127.244 246.546 129.044 246.828 130.611C247.1 132.121 248.185 133.026 249.18 131.335C249.774 130.325 249.478 127.83 249.518 126.66C249.571 125.083 249.521 123.507 249.521 121.931C249.521 118.082 250.064 114.249 249.992 110.401C249.946 107.92 249.814 103.422 246.685 102.826C243.239 102.17 239.003 102.83 235.477 102.79C226.739 102.69 218.015 102.397 209.275 102.465" fill="#89C5CC"/>
<path fill-rule="evenodd" clip-rule="evenodd" d="M188.254 126.534C185.378 126.534 182.501 126.551 179.624 126.599C177.157 126.639 173.279 126.125 170.983 127.008C169.411 127.612 168.993 129.367 170.983 129.834C173.152 130.344 176.422 129.511 178.693 129.471C190.076 129.27 201.569 129.008 212.937 129.728C223.588 130.402 234.445 131.056 245.113 130.344C246.01 130.284 250.588 130.102 248.499 128.386C247.28 127.385 242.341 128.043 240.758 127.995C235.172 127.827 229.58 127.79 223.996 127.578C218.485 127.369 212.999 126.749 207.486 126.596C201.081 126.417 194.662 126.534 188.254 126.534" fill="#89C5CC"/>
<path fill-rule="evenodd" clip-rule="evenodd" d="M185.375 110.173C189.859 110.369 194.295 116.872 189.758 120.014C185.503 122.963 177.526 119.731 179.893 114.013C179.553 114.84 180.323 113.115 180.333 113.104C180.783 112.574 181.591 111.987 182.145 111.569C182.78 111.09 183.441 110.564 184.207 110.324C184.709 110.167 184.63 110.759 185.375 110.173M183.192 107.828C181.094 108.647 180.136 109.571 178.694 111.244C177.696 112.401 176.424 113.01 176.435 114.574C176.437 114.921 176.882 115.301 176.959 115.635C177.065 116.095 176.942 116.686 177.026 117.175C177.895 122.228 183.923 123.931 188.335 122.977C192.179 122.146 195.053 118.457 194.163 114.445C193.266 110.406 187.277 106.23 183.192 107.828" fill="#89C5CC"/>
<path fill-rule="evenodd" clip-rule="evenodd" d="M181.324 114.881C181.324 116.699 184.196 116.699 184.196 114.881C184.196 113.084 181.324 113.006 181.324 114.881" fill="#89C5CC"/>
<path fill-rule="evenodd" clip-rule="evenodd" d="M184.915 114.516C184.915 115.961 187.197 115.961 187.197 114.516C187.197 113.088 184.915 113.027 184.915 114.516" fill="#89C5CC"/>
<path fill-rule="evenodd" clip-rule="evenodd" d="M185.621 117.493C184.891 117.774 183.964 117.191 183.364 117.575C182.302 118.255 183.367 118.87 183.936 119.143C186.499 120.373 186.956 116.982 185.621 117.493" fill="#89C5CC"/>
<path fill-rule="evenodd" clip-rule="evenodd" d="M224.767 113.465C224.691 113.498 224.419 113.613 224.767 113.465ZM213.605 111.835C211.687 112.268 210.067 114.059 207.983 113.82C206.385 113.636 205.304 112.095 203.727 111.871C201.71 111.584 196.22 116.185 199.106 116.975C200.79 117.436 201.724 114.358 203.212 114.195C204.389 114.065 205.989 115.509 207.209 115.714C209.484 116.097 211.047 114.844 213.044 114.036C215.214 113.158 216.449 113.949 218.336 114.925C219.826 115.695 221.229 116.197 222.934 115.879C224.534 115.581 226.544 113.936 228.154 114.104C229.732 114.27 230.858 115.916 232.48 116.069C233.149 116.131 234.145 116.359 234.032 115.327C233.942 114.501 233.02 114.641 232.443 114.34C230.96 113.568 229.572 112.2 227.782 112.316C226.435 112.404 225.209 113.35 223.968 113.803C219.903 115.286 217.618 110.935 213.605 111.835" fill="#89C5CC"/>
<path fill-rule="evenodd" clip-rule="evenodd" d="M217 138.013C209.159 138.085 201.292 138.201 193.473 138.83C191.62 138.979 172.692 140.766 172.728 140.894C172.794 141.133 175.229 141.496 175.214 141.553C175.05 141.146 174.675 140.977 174.089 141.047C192.04 141.047 209.934 139.44 227.909 139.729C232.426 139.802 236.959 139.771 241.472 139.914C242.599 139.949 245.391 140.757 246.276 140.248C248.598 138.913 244.379 138.759 243.68 138.703C234.835 137.995 225.871 137.924 217 138.013" fill="#69A1AC"/>
<path fill-rule="evenodd" clip-rule="evenodd" d="M170.405 141.819C169.232 142.994 170.312 147.222 170.358 148.811C170.425 151.109 170.37 153.422 170.571 155.714C170.801 158.331 171.158 161.12 171.845 163.659C172.223 165.058 173.551 167.281 174.077 164.739C174.453 162.924 173.882 160.515 173.684 158.666C173.418 156.191 173.354 153.749 173.344 151.263C173.335 149.097 173.294 146.921 173.116 144.761C173.024 143.64 172.459 139.775 170.405 141.819" fill="#69A1AC"/>
<path fill-rule="evenodd" clip-rule="evenodd" d="M199.896 163.35C194.332 163.445 188.756 163.576 183.201 163.924C180.924 164.067 178.649 164.279 176.381 164.52C175.918 164.568 170.795 164.777 173.084 166.667C174.117 167.521 178.368 166.341 179.772 166.218C182.133 166.011 184.493 165.876 186.861 165.776C192.348 165.543 197.851 165.337 203.343 165.433C213.373 165.607 223.339 165.684 233.371 165.461C234.797 165.429 245.964 165.727 246.343 164.244C246.649 163.049 242.655 163.597 241.927 163.619C239.256 163.699 236.585 163.68 233.912 163.667C222.593 163.609 211.207 163.158 199.896 163.35" fill="#69A1AC"/>
<path fill-rule="evenodd" clip-rule="evenodd" d="M244.453 139.835C244.629 144.79 245.473 149.738 245.743 154.707C245.866 156.978 246.011 159.248 246.122 161.52C246.158 162.253 245.863 164.019 246.729 164.441C247.918 165.019 248.079 163.854 248.301 163.066C248.944 160.789 248.509 157.831 248.451 155.493C248.394 153.228 248.39 150.96 248.224 148.699C248.052 146.39 247.587 144.124 247.372 141.823C247.28 140.85 247.599 139.23 246.566 138.626C245.673 138.104 244.414 138.762 244.453 139.835" fill="#69A1AC"/>
<path fill-rule="evenodd" clip-rule="evenodd" d="M189.762 148.079C189.783 148.095 189.804 148.111 189.825 148.128C189.804 148.111 189.783 148.095 189.762 148.079M185.034 146.611C186.797 147.115 188.245 146.927 189.93 148.21C191.326 149.275 192.758 150.832 193.221 152.553C194.291 156.529 190.664 158.707 187.263 158.75C183.78 158.794 178.624 157.986 178.803 153.521C178.939 150.091 181.444 146.744 185.034 146.611M185.158 144.364C180.586 144.591 176.898 149.726 176.937 154.048C176.985 159.286 182.921 160.636 187.137 160.672C191.895 160.713 196.641 157.427 195.366 152.076C194.344 147.788 189.555 144.135 185.158 144.364" fill="#69A1AC"/>
<path fill-rule="evenodd" clip-rule="evenodd" d="M180.559 151.396C180.559 152.857 182.867 152.857 182.867 151.396C182.867 149.951 180.559 149.889 180.559 151.396" fill="#69A1AC"/>
<path fill-rule="evenodd" clip-rule="evenodd" d="M185.4 150.756C185.4 152.229 187.727 152.229 187.727 150.756C187.727 149.3 185.4 149.238 185.4 150.756" fill="#69A1AC"/>
<path fill-rule="evenodd" clip-rule="evenodd" d="M182.731 154.089C181.229 155.588 186.506 158.218 187.751 156.131C188.773 154.418 186.547 154.986 185.758 154.893C184.901 154.792 183.431 153.391 182.731 154.089" fill="#69A1AC"/>
<path fill-rule="evenodd" clip-rule="evenodd" d="M224.922 150.785C224.777 150.846 224.777 150.846 224.922 150.785ZM205.105 148.346C203.584 148.631 198.592 150.315 198.525 152.12C198.402 155.4 203.29 152.04 204.352 151.608C207.235 150.437 208.751 152.827 211.648 152.953C214.164 153.063 216.477 150.91 218.847 151.164C221.33 151.431 222.525 154.073 225.391 152.67C226.908 151.928 226.87 150.784 225.167 150.677C224.138 150.611 223.431 151.037 222.359 150.594C220.681 149.902 220.005 148.775 217.997 148.954C216.482 149.089 215.113 149.943 213.634 150.274C210.248 151.03 208.37 147.734 205.105 148.346" fill="#69A1AC"/>
<path fill-rule="evenodd" clip-rule="evenodd" d="M236.604 152.208C236.5 152.252 236.5 152.252 236.604 152.208ZM236.988 150.845C237.005 150.852 237.12 151.012 236.988 150.845ZM235.244 149.802C235.179 149.852 235.179 149.852 235.244 149.802ZM235.283 149.788C235.621 149.991 238.341 151.85 236.365 152.288C235.363 152.51 234.533 150.493 235.283 149.788M234.383 147.731C230.028 149.716 234.714 156.821 238.131 153.934C239.569 152.72 239.758 150.264 238.36 148.999C237.521 148.241 235.52 147.211 234.383 147.731" fill="#69A1AC"/>
<path fill-rule="evenodd" clip-rule="evenodd" d="M193.507 175.727C188.073 175.729 182.592 175.615 177.166 175.937C176.253 175.991 172.774 175.817 172.303 176.772C171.443 178.518 175.022 177.651 175.542 177.599C186.346 176.517 197.632 177.14 208.472 177.448C217.338 177.7 226.155 177.856 235.01 178.313C237.338 178.433 239.663 178.566 241.989 178.706C242.747 178.752 244.655 179.255 244.815 178.044C244.963 176.923 242.583 177.176 241.989 177.145C237.261 176.896 232.536 176.635 227.809 176.369C216.432 175.728 204.902 175.725 193.507 175.727" fill="#89C5CC"/>
<path fill-rule="evenodd" clip-rule="evenodd" d="M172.128 177.67C171.114 178.679 171.589 182.531 171.561 183.804C171.511 186.031 171.406 188.256 171.359 190.483C171.31 192.81 171.378 195.148 171.516 197.471C171.574 198.447 172.374 203.162 173.635 200.464C174.198 199.258 173.621 195.899 173.63 194.533C173.646 192.046 173.779 189.57 173.903 187.087C174.01 184.952 174.014 182.816 174.107 180.68C174.136 180 174.217 175.575 172.128 177.67" fill="#89C5CC"/>
<path fill-rule="evenodd" clip-rule="evenodd" d="M245.728 197.561C240.441 198.103 235.068 197.847 229.76 198.247C225.185 198.592 220.615 198.733 216.028 198.83C205.643 199.05 195.239 199.263 184.884 200.129C182.524 200.326 180.167 200.535 177.8 200.641C176.617 200.694 171.651 200.155 171.281 201.403C170.651 203.527 175.962 202.687 177.107 202.653C179.626 202.581 182.133 202.399 184.645 202.207C195.204 201.403 205.803 201.162 216.385 200.828C222.14 200.646 227.855 200.225 233.597 199.842C236.459 199.651 239.328 199.645 242.19 199.46C242.939 199.412 245.589 199.507 246.128 198.904C246.498 198.491 246.592 197.481 245.728 197.561" fill="#89C5CC"/>
<path fill-rule="evenodd" clip-rule="evenodd" d="M243.937 178.031C244.118 183.102 244.405 188.169 244.576 193.24C244.628 194.765 244.167 197.498 245.016 198.843C246.381 201.005 247.447 198.717 247.697 197.369C248.486 193.117 247.638 188.419 247.417 184.14C247.334 182.507 247.841 178.874 247.052 177.413C246.3 176.021 243.87 176.161 243.937 178.031" fill="#89C5CC"/>
<path fill-rule="evenodd" clip-rule="evenodd" d="M235.059 185.251C237.085 185.8 237.381 190.204 235.095 190.53C231.692 191.015 233.18 186.159 235.059 185.251M234.491 183.503C233.873 183.484 232.447 183.313 232.066 183.816C231.747 184.237 232.069 185.125 232.032 185.526C231.898 186.959 230.733 187.787 231.254 189.479C231.607 190.627 232.554 191.706 233.708 192.105C239.797 194.209 239.723 182.445 234.491 183.503" fill="#89C5CC"/>
<path fill-rule="evenodd" clip-rule="evenodd" d="M179.52 184.293C179.504 184.312 179.489 184.331 179.474 184.351C179.489 184.331 179.504 184.312 179.52 184.293M184.302 181.749C184.278 181.545 184.254 181.341 184.23 181.138C187.531 182.696 190.158 185.595 189.062 189.486C188.226 192.454 185.204 193.507 182.389 192.774C179.272 191.962 177.783 189.394 178.623 186.239C179.011 184.784 180.201 182.828 181.74 182.36C182.456 182.143 184.041 182.698 184.302 181.749M182.372 180.515C181.537 180.571 180.724 180.919 180.042 181.395C180.68 180.856 181.531 180.534 182.372 180.515M182.395 178.599C180.333 178.663 178.981 179.911 177.757 181.411C177.373 181.882 176.075 183.13 176.236 183.764C176.363 184.266 176.696 184.999 177.396 184.44C173.728 191.751 183.204 197.986 188.989 192.902C194.388 188.158 189.032 178.377 182.395 178.599" fill="#89C5CC"/>
<path fill-rule="evenodd" clip-rule="evenodd" d="M180.521 185.391C180.521 186.364 182.032 186.364 182.032 185.391C182.032 184.417 180.521 184.417 180.521 185.391" fill="#89C5CC"/>
<path fill-rule="evenodd" clip-rule="evenodd" d="M183.101 185.557C183.101 186.547 184.637 186.547 184.637 185.557C184.637 184.567 183.101 184.567 183.101 185.557" fill="#89C5CC"/>
<path fill-rule="evenodd" clip-rule="evenodd" d="M184.271 189.029C183.553 189.087 180.923 188.843 180.461 189.472C179.69 190.524 180.921 190.56 181.526 190.674C182.07 190.776 184.438 190.718 184.772 190.235C185.067 189.807 184.998 188.967 184.271 189.029" fill="#89C5CC"/>
<path fill-rule="evenodd" clip-rule="evenodd" d="M215.954 186.302C215.831 186.353 215.831 186.353 215.954 186.302ZM206.018 185.575C204.4 185.694 203.028 186.626 201.481 186.997C199.829 187.394 199.114 186.664 197.611 186.187C196.049 185.69 194.937 185.886 193.681 186.953C192.969 187.558 191.408 188.95 191.853 190.024C192.871 192.483 195.177 188.483 196.261 188.297C197.953 188.006 199.458 189.486 201.409 189.062C203.176 188.679 204.745 187.466 206.591 187.452C208.135 187.441 209.59 188.286 211.114 188.491C213.441 188.803 214.969 187.977 217.12 187.363C218.985 186.831 220.293 187.533 222.047 188.123C222.849 188.392 225.524 189.372 225.032 187.595C224.892 187.093 221.367 186.196 220.82 186.023C218.893 185.414 217.672 185.651 215.836 186.351C214.305 186.935 213.017 187.22 211.375 186.898C209.566 186.544 207.921 185.431 206.018 185.575" fill="#89C5CC"/>
</g>
<g opacity="0.5">
<path fill-rule="evenodd" clip-rule="evenodd" d="M280.503 104.082C280.764 98.4614 281.123 92.8484 281.313 87.2241C281.407 84.437 281.48 81.6498 281.551 78.8622C281.567 78.2415 281.583 77.6211 281.597 77.0004C281.643 74.8916 281.393 74.7191 283.515 74.5319C292.982 73.6963 302.486 73.4193 311.965 72.6633C323.396 71.7515 334.887 71.1219 346.35 70.8397C351.445 70.714 356.56 70.4538 361.655 70.6122C362.784 70.6472 365 70.3535 365.445 71.231C365.637 71.6101 365.234 72.9146 365.183 73.3521C365.023 74.7186 364.874 76.0899 364.782 77.4632C364.24 85.563 364.563 93.867 366.132 101.844C362.452 99.7693 357.804 97.9847 353.515 98.3389C349.143 98.6999 345.873 101.226 342.374 103.551C340.394 104.866 339.727 105.212 337.752 103.938C336.051 102.84 334.441 101.585 332.835 100.353C330.357 98.4512 328.019 96.3896 325.616 94.3963C321.198 90.7313 315.112 85.5146 309.01 87.0505C304.651 88.1479 300.625 90.5438 296.841 92.8887C291.22 96.3723 286.131 100.638 280.503 104.082M356.267 68.1145C334.547 68.1145 312.989 70.2201 291.331 71.3591C289.069 71.478 286.815 71.6531 284.56 71.8706C283.058 72.0157 279.385 71.4067 278.4 72.6903C277.744 73.5466 278.308 73.6752 278.4 74.4888C278.517 75.5142 278.448 76.7292 278.418 77.8146C278.345 80.4299 278.269 83.0449 278.21 85.6604C277.986 95.5456 277.846 105.429 278.246 115.312C278.333 117.467 279.118 120.451 278.689 122.545C278.378 124.062 277.338 124.984 279.736 125.265C282.096 125.54 284.981 124.839 287.343 124.614C289.719 124.388 292.094 124.143 294.473 123.947C304.814 123.095 315.255 123.223 325.623 122.94C336.084 122.655 346.55 122.636 357.015 122.63C361.393 122.628 366.397 122.874 370.669 121.669C372.173 121.245 372.416 121.036 372.045 119.545C371.975 119.262 371.521 119.157 371.387 118.646C371.206 117.95 371.299 117.104 371.257 116.379C371.119 114.012 371.07 111.642 370.959 109.273C370.773 105.317 370.091 101.477 369.586 97.5598C369.004 93.0364 369.034 88.4435 369.022 83.8905C369.015 81.365 369.08 78.8479 369.283 76.3295C369.413 74.7142 370.209 72.3026 369.805 70.7963C369.604 70.0462 369.276 69.4514 368.495 69.1287C368 68.9239 367.585 69.0841 367.096 69.0323C366.516 68.9708 366.154 68.8894 365.459 68.732C362.483 68.0574 359.3 68.1145 356.267 68.1145" fill="#69A1AC"/>
<path fill-rule="evenodd" clip-rule="evenodd" d="M344.247 78.8683C344.245 80.4424 344 82.7653 344.725 84.2475C345.646 86.1277 346.797 85.54 347.102 83.7732C347.277 82.7608 347.273 79.7649 346.948 78.8683C346.488 77.5991 344.247 76.7347 344.247 78.8683" fill="#89C5CC"/>
<path fill-rule="evenodd" clip-rule="evenodd" d="M346.887 79.4781C345.41 79.5302 341.106 79.1755 340.106 80.3637C338.391 82.4018 341.377 82.7628 342.659 82.6487C344.142 82.5167 348.726 82.8387 349.72 81.6491C351.382 79.659 348.049 79.4357 346.887 79.4781" fill="#89C5CC"/>
<path fill-rule="evenodd" clip-rule="evenodd" d="M289.541 132.063C296.038 133.192 294.017 143.097 287.869 140.803C285.727 140.004 282.571 137.694 283.755 134.972C284.639 132.938 287.522 131.869 289.541 132.063M286.85 128.983C282.624 129.695 279.736 134.267 281.184 138.255C282.582 142.103 287.883 144.921 291.792 143.538C295.524 142.218 297.386 137.252 296.127 133.62C294.813 129.825 290.53 128.364 286.85 128.983" fill="#89C5CC"/>
<path fill-rule="evenodd" clip-rule="evenodd" d="M326.367 133.224C324.75 133.359 323.352 134.491 321.724 134.692C320.202 134.879 318.941 134.358 317.516 133.942C315.794 133.439 314.214 133.218 312.454 133.665C311.109 134.006 309.782 134.922 308.385 135.032C305.636 135.249 302.44 132.112 300.294 135.66C299.265 137.361 300.759 138.457 302.298 137.663C303.903 136.837 303.115 136.541 305.105 137.029C306.766 137.436 308.108 137.657 309.772 137.087C311.278 136.57 312.601 135.624 314.239 135.518C315.842 135.414 317.237 136.144 318.77 136.459C320.655 136.847 322.323 136.554 324.109 135.963C325.808 135.401 326.486 135.093 328.2 135.595C329.286 135.912 331.657 136.921 332.714 136.108C334.541 134.703 332.095 134.497 331.132 134.298C329.581 133.976 327.976 133.093 326.367 133.224" fill="#89C5CC"/>
<path fill-rule="evenodd" clip-rule="evenodd" d="M363.383 132.278C363.396 132.288 363.409 132.298 363.421 132.307C363.409 132.298 363.396 132.288 363.383 132.278M361.795 131.946C364.157 132.098 366.711 136.4 363.582 136.553C361.379 136.66 358.915 132.893 361.795 131.946M361.464 128.427C353.997 130.512 357.41 141.039 364.613 139.823C367.884 139.271 368.993 135.481 367.911 132.675C367.447 131.47 366.541 130.454 365.459 129.761C364.66 129.249 362.376 128.173 361.464 128.427" fill="#89C5CC"/>
<path fill-rule="evenodd" clip-rule="evenodd" d="M326.625 150.405C333.196 150.18 339.767 149.954 346.345 149.893C349.91 149.86 353.455 149.922 357.015 150.127C358.593 150.217 360.171 150.305 361.751 150.371C362.023 150.383 362.4 150.364 362.815 150.344C363.793 150.296 364.987 150.237 365.549 150.534C368.691 152.197 362.289 152.379 361.511 152.366C359.768 152.336 358.027 152.25 356.286 152.164C354.765 152.089 353.243 152.014 351.72 151.976C341.949 151.736 332.119 152.175 322.332 152.612C320.089 152.713 317.847 152.813 315.609 152.904C313.233 153.002 310.858 153.065 308.483 153.128C305.087 153.218 301.692 153.309 298.297 153.499C297.001 153.572 295.704 153.649 294.408 153.726L294.408 153.726L294.408 153.726C292.551 153.837 290.694 153.947 288.836 154.045C287.382 154.122 285.927 154.196 284.471 154.233C284.209 154.24 283.867 154.276 283.494 154.316L283.494 154.316C282.591 154.412 281.505 154.528 280.918 154.288C280.212 154 279.641 153.596 280.029 152.74C280.358 152.017 281.551 152.104 282.42 152.167C282.658 152.184 282.871 152.2 283.036 152.197C285.816 152.143 288.59 151.987 291.364 151.817C292.379 151.755 293.394 151.691 294.409 151.627L294.409 151.627L294.409 151.627C299.691 151.295 304.969 150.963 310.265 150.872C315.72 150.779 321.173 150.592 326.625 150.405ZM360.945 193.65L362.834 193.627C363.809 193.712 364.246 194.736 363.619 195.523C363.14 196.126 361.294 196.153 360.091 196.171H360.091H360.091C359.758 196.176 359.474 196.18 359.282 196.195C356.141 196.448 353.007 196.561 349.857 196.591C343.223 196.654 336.615 196.939 329.992 197.317C323.213 197.703 316.428 197.848 309.643 197.994H309.642H309.642L309.642 197.994C304.65 198.101 299.658 198.208 294.668 198.411C291.81 198.527 288.952 198.614 286.093 198.689C285.786 198.697 285.377 198.741 284.915 198.791C283.109 198.986 280.485 199.269 279.89 197.835C279.363 196.562 280.096 195.976 281.169 195.709C280.999 194.956 281.031 193.897 281.049 193.29C281.054 193.107 281.058 192.966 281.055 192.886C281.028 192.125 281.01 191.364 280.991 190.603C280.97 189.741 280.948 188.879 280.915 188.017C280.885 187.235 280.857 186.452 280.829 185.669C280.718 182.579 280.607 179.482 280.369 176.405C280.26 174.985 280.086 173.582 279.912 172.18C279.634 169.943 279.358 167.712 279.345 165.428C279.343 165.017 279.322 164.503 279.299 163.923C279.18 160.958 278.993 156.27 280.833 154.843C284.079 152.949 283.437 158.415 283.151 160.855C283.104 161.258 283.066 161.578 283.057 161.769C282.871 165.826 283.124 169.703 283.532 173.734C283.808 176.457 283.647 179.17 283.485 181.888C283.428 182.858 283.37 183.83 283.332 184.802C283.314 185.283 283.297 185.764 283.281 186.245C283.229 187.724 283.178 189.202 283.067 190.68C283.055 190.84 283.051 191.147 283.046 191.539C283.031 192.644 283.008 194.427 282.771 195.509C283.275 195.487 283.764 195.492 284.167 195.497C284.425 195.5 284.647 195.502 284.818 195.497C285.592 195.473 286.367 195.451 287.142 195.428H287.142H287.142L287.143 195.428L287.144 195.428C289.432 195.361 291.72 195.294 294.007 195.208C299.409 195.005 304.813 194.937 310.216 194.869H310.216L310.216 194.869H310.216C316.598 194.789 322.98 194.709 329.359 194.406C339.871 193.906 350.421 193.778 360.945 193.65ZM362.895 153.992C362.889 160.941 363.426 167.7 364.054 174.621C364.443 178.902 364.754 183.199 365.002 187.491C365.013 187.69 365.011 188.021 365.009 188.437C364.997 190.81 364.97 195.924 367.315 194.701C369.086 193.777 368.405 188.421 368.029 185.457L368.029 185.457C367.946 184.807 367.878 184.272 367.854 183.925C367.802 183.185 367.752 182.445 367.701 181.705L367.701 181.701L367.701 181.701C367.465 178.261 367.229 174.823 366.919 171.386L366.853 170.662L366.853 170.662C366.494 166.693 366.135 162.726 366.072 158.739C366.066 158.409 366.098 157.949 366.134 157.431V157.431C366.238 155.929 366.376 153.93 365.752 153.133C364.875 152.011 362.897 152.343 362.895 153.992Z" fill="#69A1AC"/>
<path fill-rule="evenodd" clip-rule="evenodd" d="M326.926 171.027C335.319 167.23 343.81 163.388 352.538 160.653C353.169 160.456 353.567 161.106 353.424 161.652C353.277 162.215 351.911 162.695 351.006 163.013C350.735 163.108 350.505 163.189 350.362 163.253C349.142 163.797 347.92 164.335 346.698 164.873C345.446 165.424 344.195 165.974 342.947 166.532C340.351 167.692 337.753 168.846 335.155 170.001C332.373 171.237 329.59 172.474 326.811 173.717C326.706 173.764 326.601 173.811 326.495 173.858C330.274 175.201 334.032 176.604 337.773 178.049C339.052 178.543 340.326 179.047 341.6 179.552C342.321 179.837 343.042 180.122 343.764 180.405C343.999 180.498 344.408 180.623 344.899 180.773C346.502 181.262 348.98 182.019 349.164 182.783C349.462 184.029 346.04 182.824 344.749 182.369C344.577 182.309 344.444 182.262 344.361 182.236C342.456 181.627 340.574 180.948 338.692 180.27L338.432 180.176C336.941 179.639 335.452 179.096 333.963 178.553C331.055 177.493 328.147 176.432 325.223 175.415C324.809 175.271 324.395 175.128 323.982 174.985C319.289 177.093 314.605 179.221 309.937 181.383C307.434 182.542 304.945 183.728 302.462 184.93C301.92 185.193 301.249 185.598 300.52 186.039C298.773 187.095 296.693 188.352 295.263 188.32C294.496 188.303 293.979 188.139 293.898 187.209C293.816 186.25 295.047 185.746 295.932 185.384C296.144 185.298 296.336 185.219 296.486 185.145C299.139 183.818 301.809 182.524 304.487 181.247C309.804 178.71 315.172 176.275 320.559 173.888C320.59 173.875 320.621 173.861 320.653 173.847C317.665 172.836 314.669 171.849 311.667 170.883C311.367 170.786 310.752 170.616 309.944 170.392C306.128 169.335 297.997 167.083 298.359 165.768C298.774 164.263 306.397 167.013 309.771 168.231C310.404 168.459 310.887 168.633 311.146 168.716C315.181 170.002 319.204 171.324 323.207 172.706C324.445 172.15 325.685 171.589 326.926 171.027Z" fill="#89C5CC"/>
<path fill-rule="evenodd" clip-rule="evenodd" d="M290.964 204.072C293.421 204.503 295.154 206.86 294.885 209.328C294.52 212.662 291.197 214.191 288.126 213.756C284.643 213.262 283.91 210.317 285.598 207.483C285.971 206.856 286.401 206.106 287.08 205.775C287.547 205.548 288.142 205.749 288.518 205.566C289.837 204.924 289.044 203.902 290.964 204.072M289.846 201.895C286.848 202.278 281.309 205.747 281.589 209.217C281.833 209.62 282.199 209.784 282.687 209.711C282.569 210.463 282.608 211.207 282.802 211.943C283.087 212.898 283.655 213.681 284.416 214.303C285.984 215.584 288.127 215.899 290.079 215.674C293.724 215.255 296.597 212.764 296.802 208.973C297.001 205.272 293.771 201.399 289.846 201.895" fill="#89C5CC"/>
<path fill-rule="evenodd" clip-rule="evenodd" d="M304.366 206.413C303.02 207.126 300.893 208.221 300.104 209.575C299.27 211.005 300.133 212.569 301.889 211.893C303.283 211.356 304.169 209.65 305.656 209.103C306.968 208.62 307.497 208.866 308.884 209.347C310.312 209.842 311.561 210.32 313.106 210.199C315.047 210.046 316.729 208.92 318.629 208.664C320.229 208.449 321.548 209.071 323.081 209.319C324.858 209.606 326.02 208.933 327.684 208.583C328.815 208.344 330.809 209.314 331.634 208.952C333.49 208.136 331.527 207.138 330.5 206.809C328.769 206.254 327.705 206.744 326.059 207.204C324.272 207.704 323.5 207.328 321.792 206.869C318.337 205.94 315.667 208.186 312.392 207.777C309.359 207.399 307.544 204.73 304.366 206.413" fill="#89C5CC"/>
<path fill-rule="evenodd" clip-rule="evenodd" d="M360.872 204.754C364.198 207.872 360.462 212.309 356.794 209.817C355.503 208.94 355.483 207.531 356.487 206.27C357.406 205.117 359.425 204.668 360.872 204.754V204.754ZM359.638 202.235C356.531 202.839 353.599 204.265 353.318 207.852C353.043 211.351 356.633 212.976 359.648 212.747C366.418 212.231 365.928 201.019 359.638 202.235V202.235Z" fill="#89C5CC"/>
</g>
<path opacity="0.5" fill-rule="evenodd" clip-rule="evenodd" d="M493.055 63.326C489.198 63.382 479.676 64.435 478.26 67.8597C477.186 70.4594 480.378 69.8886 482.089 68.9427C484.403 67.6635 486.433 66.898 489.3 66.5088C500.225 65.0252 510.722 70.3451 521.541 71.0179C525.64 71.2728 530.586 71.4389 534.499 70.4424C537.286 69.7328 537.649 68.1855 534.469 67.9498C531.767 67.7497 528.777 68.3806 526.007 68.3626C514.543 68.289 504.354 63.1642 493.055 63.326" fill="#C1DEE2"/>
<g opacity="0.5">
<path fill-rule="evenodd" clip-rule="evenodd" d="M172.071 225.655C167.316 225.708 162.562 225.884 157.816 226.184C153.302 226.47 148.404 226.253 143.964 227.128C142.703 227.376 141 228.525 142.677 229.789C143.855 230.678 148.166 229.656 149.573 229.569C154.755 229.251 159.94 228.869 165.129 228.686C170.042 228.512 174.954 228.451 179.869 228.402C180.62 228.395 181.865 228.154 182.613 228.372C183.686 228.685 183.432 228.77 183.512 230.133C183.658 232.602 183.617 235.081 183.569 237.552C183.521 239.944 183.433 242.336 183.441 244.729C183.447 246.436 182.902 249.828 183.758 251.311C184.991 253.445 186.27 251.127 186.363 249.709C186.539 246.997 186.46 244.251 186.461 241.535C186.461 238.986 186.48 236.437 186.39 233.889C186.325 232.048 186.588 228.835 185.596 227.162C184.586 225.458 182.155 225.825 180.381 225.744C177.614 225.617 174.841 225.626 172.071 225.655" fill="#89C5CC"/>
<path fill-rule="evenodd" clip-rule="evenodd" d="M141.812 228.732C141.817 233.522 141.263 238.28 141.108 243.064C141.037 245.263 140.892 247.679 141.449 249.838C142.01 252.018 143.794 252.491 144 250.057C144.416 245.128 144.314 240.017 144.638 235.049C144.752 233.295 145.497 230.08 144.802 228.438C144.19 226.991 141.809 226.713 141.812 228.732" fill="#89C5CC"/>
<path fill-rule="evenodd" clip-rule="evenodd" d="M186.409 249.843C178.149 250.936 169.515 250.538 161.197 250.71C157.206 250.792 153.216 250.797 149.225 250.839C147.832 250.853 144.294 250.324 143.089 251.107C141.171 252.353 143.252 253.315 144.522 253.343C152.399 253.515 160.363 253.153 168.238 252.895C171.777 252.779 175.326 252.722 178.855 252.421C181.028 252.236 183.402 252.057 185.511 251.473C185.961 251.348 186.939 251.374 187.04 250.761C187.102 250.382 186.99 249.763 186.409 249.843" fill="#89C5CC"/>
<path fill-rule="evenodd" clip-rule="evenodd" d="M152.064 256.807C149.769 256.82 142.851 255.754 141.901 257.992C140.633 260.978 145.577 260.281 146.907 260.247C149.927 260.169 152.945 260.161 155.966 260.162C158.93 260.163 161.893 260.144 164.857 260.074C165.715 260.053 167.714 260.409 168.208 259.376C168.583 258.59 168.287 257.97 167.594 257.554C165.929 256.553 161.601 257.133 159.651 257.043C157.126 256.927 154.592 256.807 152.064 256.807" fill="#89C5CC"/>
<path fill-rule="evenodd" clip-rule="evenodd" d="M179.991 257.36C178.679 257.438 176.025 256.897 174.85 257.498C173.514 258.18 173.985 259.249 175.138 259.718C175.937 260.043 179.213 259.873 179.991 259.496C180.802 259.103 181.718 257.254 179.991 257.36" fill="#89C5CC"/>
<path fill-rule="evenodd" clip-rule="evenodd" d="M194.373 229.202C192.972 229.586 193.397 237.541 193.361 238.802C193.262 242.257 192.874 246.602 194.022 249.929C194.754 252.05 196.16 251.763 195.92 249.53C195.71 247.57 195.349 245.632 195.193 243.659C194.839 239.195 194.358 234.434 194.692 229.966C194.834 230.226 196.163 232.634 196.476 232.454C196.382 232.51 194.943 229.052 194.373 229.202" fill="#89C5CC"/>
<path fill-rule="evenodd" clip-rule="evenodd" d="M210.134 226.272C207.298 226.314 204.463 226.364 201.628 226.443C199.374 226.505 195.833 226.135 193.766 227.083C191.305 228.212 192.472 230.727 194.784 230.78C196.829 230.827 199.01 230.366 201.073 230.295C206.647 230.105 212.231 230.064 217.807 230.016C222.851 229.973 228.108 230.511 233.107 229.753C233.849 236.338 231.843 242.949 232.525 249.609C232.631 250.643 232.584 252.104 233.9 252.339C235.561 252.636 235.63 250.991 235.693 249.813C235.873 246.448 235.775 243.081 236.022 239.713C236.25 236.591 236.699 233.4 236.319 230.274C235.852 226.426 234.009 226.735 230.75 226.575C223.866 226.237 217.025 226.171 210.134 226.272" fill="#89C5CC"/>
<path fill-rule="evenodd" clip-rule="evenodd" d="M200.63 249.65C199.186 249.686 196.786 249.241 195.86 250.627C194.897 252.068 196.04 253.325 197.44 253.621C199.098 253.971 201.26 253.491 202.981 253.486C204.773 253.481 206.565 253.501 208.357 253.508C216.039 253.538 223.755 253.654 231.432 253.337C232.504 253.292 235.546 253.652 236.289 252.623C236.947 251.711 236.486 250.893 235.619 250.429C234.196 249.666 231.274 249.956 229.692 249.896C227.737 249.821 225.78 249.797 223.825 249.766C216.107 249.647 208.348 249.459 200.63 249.65" fill="#89C5CC"/>
<path fill-rule="evenodd" clip-rule="evenodd" d="M207.129 256.314C204.254 256.363 201.187 256.237 198.341 256.673C195.838 257.057 195.53 259.476 198.224 259.759C200.7 260.019 203.701 259.533 206.189 259.373C207.073 259.317 208.1 259.397 208.524 258.42C208.966 257.4 208.121 256.421 207.129 256.314" fill="#89C5CC"/>
<path fill-rule="evenodd" clip-rule="evenodd" d="M228.864 256.568C227.329 256.607 222.847 255.947 222.087 257.699C220.822 260.617 226.89 259.509 228.054 259.466C229.521 259.412 235.238 260.269 235.24 257.933C235.241 255.643 230.269 256.534 228.864 256.568" fill="#89C5CC"/>
<path fill-rule="evenodd" clip-rule="evenodd" d="M141.564 271.068C141.568 276.376 141.237 281.734 141.722 287.029C141.922 289.219 141.888 293.414 143.156 295.27C144.056 296.588 145.305 296.496 145.797 294.913C146.126 293.856 145.6 291.74 145.541 290.608C145.485 289.522 145.419 288.437 145.369 287.35C145.24 284.552 145.25 281.758 145.288 278.957C145.321 276.556 145.899 273.378 145.354 271.068C144.846 268.915 141.564 268.412 141.564 271.068" fill="#69A1AC"/>
<path fill-rule="evenodd" clip-rule="evenodd" d="M194.912 266.4C185.702 266.631 176.472 266.425 167.271 266.881C162.733 267.105 158.213 267.599 153.698 268.091C151.48 268.333 149.263 268.582 147.048 268.855C146.38 268.938 140.827 269.153 142.916 271.264C143.828 272.187 146.73 271.223 147.878 271.087C150.101 270.825 152.329 270.596 154.555 270.361C158.792 269.913 163.034 269.488 167.288 269.253C177.309 268.697 187.37 268.864 197.401 268.494C200.114 268.394 202.819 268.322 205.533 268.429C206.246 268.457 211.483 268.723 209.209 266.789C208.134 265.874 204.08 266.346 202.736 266.318C200.128 266.264 197.519 266.335 194.912 266.4" fill="#69A1AC"/>
<path fill-rule="evenodd" clip-rule="evenodd" d="M207.466 275.342C207.421 272.89 207.375 270.437 207.264 267.987C207.146 265.406 210.661 265.015 211.704 267.104C212.454 268.608 212.322 271.167 212.209 273.36C212.164 274.243 212.121 275.068 212.141 275.74C212.186 277.28 212.299 278.873 212.414 280.487C212.703 284.548 213.001 288.743 212.242 292.577C211.873 294.44 210.301 295.419 209.255 294.404C209.254 294.406 209.252 294.407 209.251 294.409C208.858 294.989 207.633 294.988 206.731 294.987C206.482 294.987 206.259 294.987 206.083 294.998C203.612 295.166 201.187 295.45 198.738 295.817C193.858 296.548 189.02 296.998 184.087 297.12C180.74 297.203 177.389 297.231 174.036 297.258C167.616 297.312 161.193 297.365 154.794 297.804C152.636 297.952 150.511 298.206 148.389 298.613C148.209 298.647 148.008 298.692 147.794 298.739C146.216 299.09 143.932 299.598 143.776 297.393C143.59 294.776 149.263 294.433 152.182 294.256C152.628 294.23 153.009 294.206 153.296 294.18C162.16 293.355 171.163 293.483 180.064 293.609C180.495 293.615 180.926 293.621 181.357 293.627C182.052 293.637 182.746 293.649 183.44 293.66C187.252 293.723 191.058 293.785 194.868 293.552C196.602 293.446 198.358 293.392 200.118 293.337C202.925 293.25 205.741 293.163 208.487 292.865C208.073 291.26 208 289.365 207.932 287.58C207.905 286.885 207.88 286.206 207.834 285.567C207.593 282.163 207.53 278.753 207.466 275.342Z" fill="#69A1AC"/>
<path fill-rule="evenodd" clip-rule="evenodd" d="M214.92 269.877C213.676 270.046 212.638 271.111 213.194 272.462C213.893 274.162 215.977 273.498 217.353 273.39C221.729 273.047 226.297 273.732 230.619 273.215C231.8 273.074 233.512 272.431 232.453 270.845C231.656 269.653 228.753 269.862 227.519 269.748C223.299 269.357 219.135 269.462 214.92 269.877" fill="#C1DEE2"/>
<path fill-rule="evenodd" clip-rule="evenodd" d="M222.305 277.295C220.608 277.41 216.658 277.32 215.943 279.25C214.66 282.714 219.684 281.493 221.214 281.297C222.991 281.068 227.18 281.68 228.126 279.957C229.818 276.876 223.793 277.193 222.305 277.295" fill="#C1DEE2"/>
<path fill-rule="evenodd" clip-rule="evenodd" d="M217.941 284.897C217.136 285.702 217.135 287.14 217.941 287.945C218.928 288.931 221.079 288.726 222.376 288.798C224.184 288.9 229.38 289.856 230.278 287.726C231.49 284.852 226.785 284.913 225.238 284.749C223.449 284.561 219.423 283.413 217.941 284.897" fill="#C1DEE2"/>
<path fill-rule="evenodd" clip-rule="evenodd" d="M154.53 235.703C154.53 238.793 159.356 238.793 159.356 235.703C159.356 232.63 154.53 232.583 154.53 235.703" fill="#89C5CC"/>
<path fill-rule="evenodd" clip-rule="evenodd" d="M163.683 235.738C163.683 239.27 169.18 239.263 169.18 235.738C169.18 232.217 163.683 232.182 163.683 235.738" fill="#89C5CC"/>
<path fill-rule="evenodd" clip-rule="evenodd" d="M158.146 240.434C155.474 241.172 157.935 243.436 159.176 243.954C161.148 244.776 163.839 245.382 165.811 244.149C166.596 243.659 167.233 243.007 166.658 242.055C166.045 241.041 165.206 241.492 164.273 241.586C163.091 241.704 162.136 241.686 160.995 241.307C160.143 241.024 159.075 240.179 158.146 240.434" fill="#89C5CC"/>
<path fill-rule="evenodd" clip-rule="evenodd" d="M206.611 235.896C206.611 237.985 209.856 237.985 209.856 235.896C209.856 233.806 206.611 233.806 206.611 235.896" fill="#89C5CC"/>
<path fill-rule="evenodd" clip-rule="evenodd" d="M213.788 236.212C213.788 238.534 217.393 238.534 217.393 236.212C217.393 233.89 213.788 233.89 213.788 236.212" fill="#89C5CC"/>
<path fill-rule="evenodd" clip-rule="evenodd" d="M213.52 241.25C211.626 241.494 206.149 242.049 205.843 244.383C205.37 247.984 211.371 245.07 212.741 244.787C214.486 244.427 216.044 244.521 217.785 244.591C218.741 244.629 220.013 244.784 219.913 243.328C219.749 240.936 215.175 241.038 213.52 241.25" fill="#89C5CC"/>
<path fill-rule="evenodd" clip-rule="evenodd" d="M165.908 274.463C164.535 274.829 162.74 277.202 163.684 278.654C165.233 281.036 165.916 277.379 166.564 277.027C167.743 276.387 168.7 278.727 169.932 277.499C171.877 275.562 167.132 274.135 165.908 274.463" fill="#69A1AC"/>
<path fill-rule="evenodd" clip-rule="evenodd" d="M181.635 272.704C180.007 272.718 176.571 275.023 176.328 276.725C176.183 277.736 176.853 278.707 177.943 278.721C179.427 278.739 179.899 276.809 181.186 276.406C182.573 275.97 182.367 276.973 183.566 277.492C184.443 277.873 185.54 277.713 185.845 276.635C186.419 274.601 183.308 272.672 181.635 272.704" fill="#69A1AC"/>
<path fill-rule="evenodd" clip-rule="evenodd" d="M169.175 282.443C166.572 283.968 170.856 287.239 172.341 287.648C174.583 288.265 179.095 287.113 179.627 284.374C179.838 283.284 179.156 282.297 177.953 282.492C176.963 282.653 176.328 283.895 175.41 284.34C174.172 284.941 173.071 284.9 172.019 283.996C171.162 283.259 170.702 281.552 169.175 282.443" fill="#69A1AC"/>
<path fill-rule="evenodd" clip-rule="evenodd" d="M171.063 304.986C168.737 305.482 166.372 305.149 164.035 305.615C161.651 306.091 160.227 306.992 158.012 306.084C157.908 306.04 157.804 305.996 157.7 305.952C155.986 305.214 154.19 304.996 152.396 306.172C151.334 306.869 148.112 309.277 148.5 310.746C149.342 313.932 152.968 308.936 153.893 308.45C155.656 307.521 156.865 308.707 158.681 309.042C160.855 309.443 162.605 308.294 164.654 307.836C167.049 307.301 169.744 307.114 172.182 306.828C173.145 306.715 176.792 307.476 177.121 306.278C177.687 304.219 171.977 304.792 171.063 304.986" fill="#C1DEE2"/>
<path fill-rule="evenodd" clip-rule="evenodd" d="M187.844 311.4C187.996 311.515 187.874 311.423 187.844 311.4ZM194.361 304.859C196.352 304.657 202.724 303.234 204.032 305.292C204.884 306.632 203.532 311.579 202.242 312.219C201.211 312.73 198.809 312.165 197.678 312.125C195.573 312.051 193.464 312.018 191.361 311.887C190.656 311.843 188.387 311.972 187.834 311.348C187.181 310.611 187.21 306.683 187.057 305.708C188.887 306.301 192.446 305.053 194.361 304.859M198.612 302.843C196.061 302.954 193.511 303.145 190.98 303.488C189.569 303.678 188.139 304.185 186.836 304.425C186.416 304.503 185.734 304.288 185.219 304.537C183.714 305.264 185.032 310.181 185.395 311.495C185.953 313.512 187.356 313.839 189.322 314.029C191.911 314.28 194.554 314.201 197.152 314.169C199.656 314.139 203.033 314.694 204.438 312.181C205.346 310.557 206.32 306.773 205.544 304.963C204.522 302.581 200.709 302.755 198.612 302.843" fill="#C1DEE2"/>
<path fill-rule="evenodd" clip-rule="evenodd" d="M227.172 312.755C227.036 312.93 227.036 312.93 227.172 312.755ZM227.73 312.082C227.688 312.146 227.493 312.352 227.73 312.082ZM221.649 311.895C222.773 311.684 223.897 311.474 225.023 311.269C223.957 312.761 222.835 312.144 221.014 312.014C221.226 311.974 221.437 311.935 221.649 311.895M216.285 311.368C216.57 311.273 216.855 311.177 217.14 311.082C217.132 311.299 217.178 311.502 217.28 311.691C216.792 311.639 216.305 311.582 215.818 311.522C215.973 311.471 216.129 311.419 216.285 311.368M213.799 309.533C213.783 309.141 214.372 309.41 214.71 309.384C214.059 309.957 213.755 310.007 213.799 309.533M222.688 305.09C222.773 304.981 222.887 304.987 223.028 305.107C222.874 305.159 222.282 305.41 222.688 305.09M228.453 304.414C228.469 304.414 228.788 304.845 228.453 304.414ZM228.291 304.272C228.374 304.336 228.374 304.336 228.291 304.272ZM227.572 304.189C228.752 304.388 228.662 305.772 227.572 304.189ZM213.724 304.093C213.485 304.292 213.566 304.099 213.724 304.093ZM218.232 301.15C216.231 301.266 212.558 301.149 210.886 302.215C208.706 303.607 209.853 308.397 210.048 310.497C210.337 313.601 211.797 314.485 214.721 314.811C218.21 315.2 221.794 315.273 225.301 315.18C228.459 315.097 230.258 314.011 230.836 310.686C231.014 309.668 231.463 308.094 231.449 307.12C231.439 306.444 231.103 306.136 230.975 305.561C230.25 302.288 229.037 301.9 225.683 301.757C223.214 301.652 220.654 301.023 218.232 301.15" fill="#89C5CC"/>
</g>
<g opacity="0.5">
<path fill-rule="evenodd" clip-rule="evenodd" d="M324.23 225.969C329.318 226.078 335.09 228.893 334.285 234.858C333.696 239.228 329.913 242.775 325.531 243.081C320.822 243.41 315.842 239.796 315.203 235C314.483 229.607 319.255 225.861 324.23 225.969M321.736 223.541C319.673 223.849 317.702 224.932 315.886 225.902C315.193 226.272 311.678 228.531 314.435 229.092C307.793 239.804 323.424 249.753 332.213 242.792C336.159 239.666 338.237 233.738 335.686 229.099C333.047 224.3 326.79 222.782 321.736 223.541" fill="#89C5CC"/>
<path fill-rule="evenodd" clip-rule="evenodd" d="M320.521 232.659C320.521 234.659 323.626 234.659 323.626 232.659C323.626 230.658 320.521 230.658 320.521 232.659" fill="#89C5CC"/>
<path fill-rule="evenodd" clip-rule="evenodd" d="M326.277 232.978C326.277 235.147 329.644 235.147 329.644 232.978C329.644 230.809 326.277 230.809 326.277 232.978" fill="#89C5CC"/>
<path fill-rule="evenodd" clip-rule="evenodd" d="M322.392 237.269C321.939 238.914 327.105 239.758 327.277 237.854C327.359 236.944 322.707 236.121 322.392 237.269" fill="#89C5CC"/>
<path fill-rule="evenodd" clip-rule="evenodd" d="M337.536 236.251C343.48 235.537 349.609 235.867 355.582 236.038C357.077 236.081 358.572 236.123 360.067 236.148C361.017 236.164 363.07 236.62 363.899 236.175C367.296 234.353 360.633 233.473 359.689 233.389C353.748 232.9 344.579 232.726 338.62 232.956C336.858 233.025 336.477 236.378 337.536 236.251" fill="#89C5CC"/>
<path fill-rule="evenodd" clip-rule="evenodd" d="M364.284 265.802C364.335 259.574 364.559 253.304 365.037 247.094C365.232 244.563 365.466 242.035 365.66 239.504C365.752 238.312 366.175 236.642 365.474 235.596C364.752 234.518 363.168 234.294 362.214 235.249C361.071 236.729 361.403 239.211 361.261 241C361.042 243.752 360.778 246.501 360.647 249.258C360.394 254.595 360.334 260.024 360.763 265.353C360.966 267.867 361.405 270.321 361.989 272.773C362.255 273.89 364.37 278.863 363.926 279.548C363.236 280.612 358.141 280.21 357.036 280.239C354.2 280.316 351.363 280.365 348.526 280.419C346.097 280.466 343.669 280.499 341.24 280.52C340.275 280.529 334.608 280.357 335.865 281.787C321.809 282.767 307.483 281.132 293.512 280.571C292.806 280.542 291.651 280.342 290.586 280.284C290.458 279.769 290.353 279.309 290.327 278.99C290.143 276.744 290.096 274.491 289.896 272.246C289.532 268.139 288.826 264.073 288.406 259.973C287.987 255.877 288.029 251.769 287.785 247.663C287.743 246.96 287.644 241.197 286.189 239.797C286.879 240.058 287.991 240.092 288.631 240.04C293.814 239.622 298.959 238.722 304.097 237.949C305.567 237.728 308.903 237.884 310.122 237.15C311.177 236.513 311.595 234.283 309.759 234.463C304.636 235.012 299.54 235.864 294.456 236.703C293.097 236.927 291.741 237.167 290.385 237.412C289.479 237.576 287.089 237.563 286.386 238.109C285.533 238.772 285.443 239.223 285.732 239.522C285.33 239.412 284.848 239.586 284.27 240.165C283.176 241.588 284.204 245.094 284.335 246.764C284.492 248.766 284.568 250.772 284.66 252.778C284.836 256.66 285.242 260.488 285.867 264.323C286.567 268.62 287.162 272.934 287.864 277.229C288.046 278.348 288.285 279.438 288.589 280.519C286.698 281.486 287.983 283.023 289.483 283.296C289.493 283.298 289.505 283.299 289.515 283.301C289.983 284.441 290.636 285.497 291.147 283.97C291.186 283.853 291.204 283.709 291.209 283.546C295.081 283.985 299.338 283.712 303.15 283.868C311.408 284.206 319.717 284.712 327.984 284.456C331.256 284.354 334.539 284.063 337.784 283.627C339.685 283.371 341.594 283.066 343.465 282.641C343.599 282.611 343.803 282.579 344.038 282.541C344.076 282.54 344.115 282.539 344.152 282.538C347.016 282.495 349.879 282.418 352.741 282.299C355.144 282.199 357.557 282.148 359.952 281.921C361.44 281.78 364.583 281.807 365.497 280.311C366.327 278.95 364.939 275.446 364.742 273.919C364.395 271.228 364.262 268.513 364.284 265.802" fill="#C1DEE2"/>
<path fill-rule="evenodd" clip-rule="evenodd" d="M335.253 247.821C332.964 248.017 330.847 249.092 328.537 249.105C326.598 249.116 324.689 248.537 322.74 248.622C320.453 248.722 319.194 250.201 317.191 250.696C315.596 251.09 314.591 249.869 313.189 249.329C311.417 248.647 310.109 248.999 308.591 250.03C307.475 250.788 304.874 252.489 304.894 254.023C304.954 258.666 310.372 252.251 311.464 252.174C312.915 252.07 314.536 253.725 316.081 253.819C318.122 253.944 319.431 252.628 321.311 252.148C323.212 251.663 325.266 252.257 327.172 252.442C329.347 252.652 331.249 252.167 333.353 251.648C335.392 251.145 337.129 251.172 339.2 251.594C340.598 251.88 344.081 253.537 344.692 251.406C345.525 248.503 336.853 247.685 335.253 247.821" fill="#89C5CC"/>
<path fill-rule="evenodd" clip-rule="evenodd" d="M335.95 256.676C331.259 257.131 326.541 257.531 321.829 257.658C319.788 257.714 311.943 256.839 312.639 259.432C313.235 261.656 323.911 260.256 326.085 260.086C328.486 259.9 330.883 259.639 333.271 259.337C334.118 259.23 336.162 259.341 336.76 258.631C337.329 257.953 337.048 256.566 335.95 256.676" fill="#89C5CC"/>
<path fill-rule="evenodd" clip-rule="evenodd" d="M303.592 268.487C303.486 268.532 303.486 268.532 303.592 268.487ZM304.582 268.474C305.751 268.437 305.5 267.82 306.667 268.142C307.205 268.29 307.26 268.07 307.677 268.584C308.491 269.587 307.725 271.772 306.922 272.58C303.952 275.574 300.388 268.607 304.582 268.474M304.582 265.536C296.451 265.809 299.853 278.37 306.93 275.806C309.853 274.747 311.69 269.976 309.971 267.296C309.135 265.991 308.068 265.759 306.667 265.669C306.342 265.648 305.933 266.121 305.73 266.099C305.247 266.048 305.292 265.509 304.582 265.536" fill="#89C5CC"/>
<path fill-rule="evenodd" clip-rule="evenodd" d="M324.028 268.914C323.883 268.869 326.595 269.658 326.299 269.349C326.932 270.007 326.08 271.565 325.364 271.837C323.629 272.496 322.655 269.798 324.028 268.914M325.231 265.509C322.685 265.87 320.72 266.93 320.372 269.761C320.051 272.374 321.817 275.021 324.602 275.072C330.672 275.183 330.857 264.724 325.231 265.509" fill="#89C5CC"/>
<path fill-rule="evenodd" clip-rule="evenodd" d="M352.945 269.03C353.301 273.673 348.487 269.424 352.945 269.03ZM350.879 264.064C350.458 264.783 350.817 265.546 351.452 265.965C345.776 267.164 347.062 275.706 352.838 274.444C355.775 273.802 356.315 270.713 355.877 268.163C355.669 266.95 352.647 261.041 350.879 264.064" fill="#89C5CC"/>
</g>
<path opacity="0.5" fill-rule="evenodd" clip-rule="evenodd" d="M386.102 275.891C383.477 276.242 377.272 278.418 377.326 280.756C377.41 284.405 382.684 280.419 383.857 279.883C390.159 277.003 398.322 280.735 404.884 281.529C407.892 281.893 413.778 282.565 416.435 281.051C421.161 278.359 410.232 279.033 408.84 278.925C401.274 278.339 393.747 274.866 386.102 275.891" fill="#C1DEE2"/>
<g opacity="0.5">
<path fill-rule="evenodd" clip-rule="evenodd" d="M444.228 246.492C444.226 249.698 444.064 252.97 444.655 256.137C444.834 257.096 444.975 258.932 445.986 259.43C447.002 259.93 447.987 259.368 448.24 258.327C448.534 257.115 447.888 255.301 447.823 254.029C447.733 252.291 447.727 250.551 447.726 248.811C447.726 247.554 448.139 245.533 446.656 244.886C445.553 244.406 444.228 245.3 444.228 246.492" fill="#C1DEE2"/>
<path fill-rule="evenodd" clip-rule="evenodd" d="M494.906 241.422C484.285 242.488 473.512 242.71 462.853 243.266C457.925 243.523 451.971 243.195 447.329 245.102C446.467 245.456 443.38 247.428 445.886 248.23C446.667 248.481 447.461 247.639 448.102 247.357C449.171 246.888 450.408 246.743 451.547 246.56C461.232 245.004 471.363 245.275 481.148 244.548C483.656 244.362 486.164 244.17 488.666 243.924C490.454 243.748 494.211 242.46 495.861 243.119C498.679 244.245 498.614 251.561 498.669 254.078C498.698 255.379 497.435 260.05 499.946 259.577C501.955 259.197 501.228 254.345 501.071 253.017C500.66 249.538 499.959 240.91 494.906 241.422" fill="#C1DEE2"/>
<path fill-rule="evenodd" clip-rule="evenodd" d="M498.822 259.405C489.597 260.238 480.159 259.421 470.896 259.748C466.041 259.92 461.19 260.194 456.334 260.354C454.234 260.424 452.132 260.427 450.03 260.442C449.025 260.448 444.452 261.058 447.281 263.05C448.534 263.932 452.526 263.222 453.964 263.205C456.123 263.179 458.281 263.089 460.438 263.005C465.436 262.809 470.43 262.539 475.43 262.403C480.213 262.274 484.999 262.246 489.781 262.117C492.161 262.052 494.574 261.979 496.932 261.632C497.465 261.553 499.193 261.491 499.563 260.897C499.912 260.336 499.667 259.324 498.822 259.405" fill="#89C5CC"/>
<path fill-rule="evenodd" clip-rule="evenodd" d="M453.481 252.484C453.431 252.601 453.431 252.601 453.481 252.484ZM457.477 251.271C457.622 251.332 457.622 251.332 457.477 251.271ZM457.29 251.236C459.443 253.431 456.132 256.05 454.115 253.909C451.975 251.636 455.904 251.244 457.29 251.236M455.007 247.914C447.591 249.234 450.216 259.117 457.142 257.688C460.183 257.061 461.922 253.998 460.875 251.056C460.466 249.906 459.575 248.644 458.334 248.282C457.715 248.102 457.168 248.386 456.578 248.319C456.016 248.256 455.704 247.788 455.007 247.914" fill="#C1DEE2"/>
<path fill-rule="evenodd" clip-rule="evenodd" d="M483.387 250.694C478.915 250.709 474.443 250.899 469.972 250.983C468.6 251.009 465.075 250.395 465.07 252.557C465.064 254.868 468.99 254.014 470.297 253.983C474.732 253.877 479.178 253.683 483.595 253.261C484.711 253.154 488.574 253.338 488.57 251.821C488.566 250.213 484.288 250.694 483.387 250.694" fill="#C1DEE2"/>
<path fill-rule="evenodd" clip-rule="evenodd" d="M494.067 265.773C483.007 266.069 471.964 266.173 460.914 266.739C456.78 266.95 452.653 267.108 448.513 267.108C447.716 267.108 446.111 266.799 445.36 267.301C443.324 268.663 445.643 269.832 446.97 269.905C456.048 270.409 465.258 269.155 474.331 268.872C479.642 268.707 484.955 268.658 490.263 268.388C491.711 268.314 493.16 268.228 494.606 268.116C495.437 268.052 497.636 268.228 498.308 267.742C501.242 265.618 495.056 265.746 494.067 265.773" fill="#89C5CC"/>
<path fill-rule="evenodd" clip-rule="evenodd" d="M443.324 271.181C443.22 274.049 443.209 276.866 443.584 279.718C443.732 280.84 443.8 282.113 445.115 282.398C446.31 282.657 446.915 281.754 447.163 280.752C447.767 278.306 447.235 274.785 447.228 272.244C447.225 270.988 447.224 269.581 445.671 269.297C444.487 269.08 443.369 269.936 443.324 271.181" fill="#89C5CC"/>
<path fill-rule="evenodd" clip-rule="evenodd" d="M505.79 278.094C487.887 279.037 470.008 279.861 452.092 280.618C450.695 280.678 439.841 280.559 443.636 284.344C444.808 285.513 447.827 284.722 449.343 284.647C451.621 284.535 453.9 284.45 456.178 284.334C465.208 283.874 474.263 283.75 483.287 283.234C488.253 282.95 493.208 282.506 498.148 281.928C500.498 281.653 503.415 281.681 505.615 280.76C506.747 280.287 507.969 277.978 505.79 278.094" fill="#89C5CC"/>
<path fill-rule="evenodd" clip-rule="evenodd" d="M495.496 263.548C494.135 264.904 494.835 267.579 494.937 269.255C495.079 271.561 495.25 273.869 495.538 276.163C495.725 277.653 495.626 279.972 496.421 281.258C497.352 282.766 499.401 282.599 500.243 281.143C500.987 279.855 500.611 277.146 500.591 275.718C500.565 273.745 500.442 271.768 500.325 269.799C500.227 268.153 500.6 265.515 499.694 264.106C498.774 262.675 496.772 262.279 495.496 263.548" fill="#89C5CC"/>
<path fill-rule="evenodd" clip-rule="evenodd" d="M454.575 274.069C454.415 274.192 454.415 274.192 454.575 274.069ZM457.756 273.674C460.723 274.271 455.926 277.735 454.409 275.357C454.173 274.986 454.05 274.529 454.43 274.206C454.777 273.911 454.995 274.433 455.323 274.293C455.887 274.051 457.154 273.651 457.756 273.674M457.346 270.827C455.321 270.987 452.535 271.112 451.533 273.143C450.186 275.87 452.489 278.542 455.154 278.957C457.719 279.356 461.548 277.935 461.753 274.944C461.919 272.533 459.625 270.642 457.346 270.827" fill="#89C5CC"/>
<path fill-rule="evenodd" clip-rule="evenodd" d="M474.258 272.271C472.161 272.305 468.04 271.685 466.213 272.707C464.405 273.718 465.211 275.519 466.86 275.95C467.95 276.235 469.732 275.775 470.867 275.729C472.36 275.668 473.854 275.655 475.348 275.635C477.86 275.601 480.371 275.629 482.884 275.629C485.45 275.629 488.06 275.699 490.622 275.511C493.863 275.272 493.776 272.845 490.606 272.542C485.221 272.026 479.661 272.186 474.258 272.271" fill="#89C5CC"/>
<path fill-rule="evenodd" clip-rule="evenodd" d="M468.902 299.454C468.902 300.608 469.925 299.454 469.918 299.454C469.925 299.454 468.902 298.301 468.902 299.454" fill="#89C5CC"/>
<path fill-rule="evenodd" clip-rule="evenodd" d="M445.758 290.17C445.824 293.522 445.867 296.877 446.011 300.226C446.056 301.285 445.753 303.353 447.036 303.893C448.465 304.494 448.909 302.996 449.074 301.981C449.595 298.765 449.084 295.094 449.034 291.839C449.017 290.747 449.254 289.226 448.013 288.681C447.001 288.237 445.738 289.062 445.758 290.17" fill="#89C5CC"/>
<path fill-rule="evenodd" clip-rule="evenodd" d="M500.879 290.223C500.964 290.422 500.964 290.422 500.879 290.223ZM500.999 290.189C501.067 290.218 501.345 290.334 500.999 290.189ZM473.921 287.479C468.775 287.56 463.626 287.621 458.484 287.841C456.289 287.936 454.069 288.012 451.882 288.218C450.333 288.365 446.485 288.426 445.48 289.692C443.407 292.305 447.803 291.592 448.75 291.38C450.474 290.994 452.233 290.87 453.994 290.777C457.814 290.576 461.637 290.468 465.462 290.391C475.835 290.182 486.216 290.214 496.591 290.167C497.596 290.163 499.411 289.759 500.339 290.165C501.268 290.572 501.216 291.573 501.313 292.736C501.441 294.283 500.421 297.23 501.198 298.532C502.404 300.55 504.157 298.836 504.426 297.365C504.796 295.332 504.209 292.89 503.634 290.947C502.824 288.205 501.698 288.096 499.046 287.882C495.947 287.632 492.86 287.48 489.751 287.451C484.476 287.403 479.196 287.397 473.921 287.479" fill="#89C5CC"/>
<path fill-rule="evenodd" clip-rule="evenodd" d="M494.273 301.333C483.112 302.629 471.634 301.865 460.414 301.911C457.685 301.922 454.954 301.944 452.228 302.076C450.788 302.146 447.376 301.749 446.389 302.86C444.31 305.201 448.055 305.542 449.423 305.445C452.187 305.248 454.958 305.159 457.73 305.137C467.492 305.062 477.31 305.517 487.065 305.036C491.151 304.834 495.147 304.135 499.158 303.354C500.046 303.18 506.13 302.024 502.661 300.638C500.611 299.819 496.427 301.081 494.273 301.333" fill="#89C5CC"/>
<path fill-rule="evenodd" clip-rule="evenodd" d="M461.686 297.051C461.608 297.151 461.608 297.151 461.686 297.051ZM461.611 297.032C461.585 297.104 461.503 297.281 461.611 297.032ZM460.907 296.124C460.923 296.145 460.99 296.23 460.907 296.124ZM460.881 296.117C461.15 296.438 461.331 296.796 461.424 297.191C459.11 297.818 458.219 295.946 460.881 296.117M460.734 296.029C460.735 296.029 461.06 296.166 460.734 296.029ZM456.935 293.243C455.439 295.106 454.203 297.278 456.069 299.407C457.738 301.31 461.094 301.556 463.212 300.285C465.393 298.976 465.204 296.22 463.683 294.42C462.703 293.262 461.909 293.294 460.488 293.105C459.52 292.976 457.757 292.224 456.935 293.243" fill="#89C5CC"/>
<path fill-rule="evenodd" clip-rule="evenodd" d="M472.406 296.691C472.406 299.173 483.122 298.104 485.028 298.102C486.625 298.099 496.281 298.98 495.588 296.426C495.018 294.328 485.507 295.371 483.481 295.368C481.731 295.365 472.406 294.163 472.406 296.691" fill="#89C5CC"/>
</g>
<g opacity="0.5">
<path fill-rule="evenodd" clip-rule="evenodd" d="M332.511 319.942C337.877 320.721 343.46 323.245 343.413 329.492C343.374 334.744 338.969 340.334 333.312 340.02C328.222 339.738 323.429 334.171 322.791 329.401C322.461 326.929 323.079 324.268 324.533 322.235C326.438 319.571 329.46 319.576 332.511 319.942M329.976 316.546C326.095 316.567 323.255 317.971 320.853 320.935C319.991 321.998 318.989 323.141 318.333 324.345C317.721 325.47 317.828 328.329 319.93 326.989C319.412 332.524 322.648 337.897 327.299 340.734C332.354 343.818 338.069 343.216 342.276 338.894C346.128 334.938 347.483 328.256 344.665 323.363C341.849 318.472 335.324 316.493 329.976 316.546" fill="#89C5CC"/>
<path fill-rule="evenodd" clip-rule="evenodd" d="M341.615 315.063C339.13 316.884 336.861 319.283 334.976 321.715C333.134 324.093 331.916 327.062 329.704 329.135C328.586 327.918 327.277 324.631 325.048 325.935C323.198 327.017 324.389 328.878 325.29 330.1C327.616 333.256 330.2 334.525 333.183 331.408C335.893 328.577 337.432 324.8 339.966 321.805C341.077 320.492 342.794 319.188 343.679 317.737C344.481 316.422 343.489 313.686 341.615 315.063" fill="#89C5CC"/>
</g>
<g opacity="0.5">
<path fill-rule="evenodd" clip-rule="evenodd" d="M435.528 117.557C435.532 117.805 435.535 118.039 435.54 118.253C435.656 122.942 435.589 127.87 435.208 132.547C435.077 134.162 433.902 136.209 432.562 133.983C431.973 133.004 432.055 130.994 432.116 129.516C432.132 129.119 432.147 128.761 432.147 128.471C432.145 126.821 432.232 125.154 432.319 123.483C432.489 120.216 432.66 116.932 432.176 113.723C432.166 113.658 432.157 113.595 432.148 113.535C431.938 112.124 431.924 112.027 430.372 112.059C429.725 112.072 429.078 112.09 428.431 112.107C427.795 112.124 427.159 112.142 426.522 112.155C425.891 112.168 425.259 112.18 424.627 112.192C422.645 112.231 420.664 112.269 418.683 112.341C418.352 112.353 417.736 112.431 416.957 112.528C415.401 112.724 413.2 113 411.346 112.998C411.347 113.006 411.347 113.014 411.348 113.022C411.349 113.036 411.35 113.051 411.351 113.065C411.371 114.088 411.108 115.23 410.843 116.377C410.622 117.338 410.399 118.302 410.342 119.204C410.206 121.349 410.205 123.516 410.203 125.683C410.201 128.323 410.199 130.962 409.955 133.56C409.943 133.687 409.936 133.821 409.929 133.956C409.928 133.975 409.927 133.993 409.926 134.012C410.009 133.999 410.091 133.99 410.169 133.985C411.505 133.901 412.852 133.893 414.196 133.885C414.938 133.881 415.679 133.877 416.417 133.86C417.742 133.829 419.084 133.831 420.431 133.832C423.404 133.835 426.404 133.839 429.313 133.496C430.172 133.385 430.472 134.487 430.087 135.058C429.742 135.569 428.792 135.652 428.097 135.713C427.92 135.728 427.759 135.742 427.63 135.761C425.754 136.039 423.853 136.136 421.96 136.22C419.972 136.308 417.982 136.374 415.993 136.429C415.52 136.442 414.888 136.506 414.187 136.577C412.337 136.764 410.009 136.999 408.852 136.476C407.61 135.914 407.639 135.29 408.147 134.806C407.924 134.317 407.889 133.602 407.862 133.043C407.851 132.83 407.842 132.639 407.824 132.492C407.548 130.267 407.382 128.071 407.378 125.827C407.37 121.431 407.379 116.865 408.595 112.61C408.108 112.397 407.814 112.083 407.815 111.63C407.821 109.347 414.926 109.463 418.303 109.518C418.907 109.528 419.392 109.536 419.696 109.528C422.156 109.464 424.617 109.455 427.078 109.469C427.598 109.471 428.176 109.437 428.776 109.402C430.051 109.327 431.421 109.247 432.523 109.503C435.416 110.174 435.486 114.783 435.528 117.557Z" fill="#89C5CC"/>
<path fill-rule="evenodd" clip-rule="evenodd" d="M453.626 110.006C456.313 109.863 459.002 109.831 461.692 109.821C464.54 109.806 467.392 109.858 470.239 109.945L470.305 109.947C471.566 109.985 478.578 110.196 475.357 111.943C475.169 112.045 474.957 112.13 474.726 112.201C474.863 113.01 474.879 113.846 474.858 114.248C474.774 115.774 474.72 117.302 474.665 118.83L474.665 118.83C474.627 119.866 474.59 120.901 474.544 121.935C474.418 124.795 474.297 127.654 474.198 130.514C474.186 130.865 474.205 131.325 474.226 131.836C474.294 133.529 474.386 135.796 473.467 136.635C472.661 137.37 472.109 137.223 471.738 136.723C469.43 137.394 464.69 137.176 462.307 137.066C461.733 137.04 461.295 137.02 461.061 137.02C460.644 137.02 459.867 137.072 458.887 137.138C454.806 137.412 447.188 137.924 447.172 135.912C447.17 135.718 447.233 135.545 447.352 135.389C447.028 135.059 446.737 134.575 446.55 133.97C445.88 131.8 445.816 129.458 445.767 127.208C445.696 124.031 445.696 120.85 445.695 117.669V117.669C445.694 116.036 445.694 114.402 445.684 112.77C445.248 112.184 445.507 111.514 446.052 111.046C447.21 110.052 450.087 110.04 452.168 110.031C452.728 110.029 453.231 110.026 453.626 110.006ZM449.254 134.507C451.844 133.954 456.207 134.132 458.545 134.227C459.157 134.252 459.631 134.272 459.897 134.271C462.284 134.261 464.673 134.294 467.058 134.39C467.306 134.4 467.672 134.39 468.103 134.379C468.969 134.358 470.098 134.329 471.057 134.435C471.044 134.305 471.036 134.186 471.031 134.084C470.923 131.96 471.001 129.818 471.078 127.688L471.078 127.688C471.094 127.235 471.111 126.783 471.125 126.332C471.177 124.739 471.245 123.148 471.312 121.556L471.312 121.556C471.355 120.553 471.398 119.551 471.437 118.548C471.454 118.108 471.428 117.511 471.4 116.839C471.342 115.471 471.271 113.794 471.516 112.506C470.633 112.489 469.728 112.427 468.898 112.369C468.098 112.314 467.368 112.263 466.793 112.263C466.065 112.263 465.337 112.261 464.609 112.259H464.609H464.609C462.592 112.253 460.575 112.246 458.557 112.286L457.983 112.297C455.205 112.351 452.404 112.405 449.65 112.771C449.488 112.792 449.294 112.834 449.08 112.884C449.382 114.146 449.234 115.925 449.104 117.483C449.041 118.24 448.983 118.945 448.982 119.513C448.978 123.044 449.071 126.562 449.164 130.076L449.164 130.077L449.164 130.077C449.2 131.406 449.235 132.735 449.265 134.064C449.268 134.223 449.265 134.37 449.254 134.507Z" fill="#89C5CC"/>
<path fill-rule="evenodd" clip-rule="evenodd" d="M419.782 136.324C418.016 137.355 418.968 141.481 419.58 142.908C420.586 145.255 422.626 147.091 424.828 148.309C429.277 150.77 435.692 150.116 439.057 154.384C439.092 154.428 440.255 155.58 440.52 154.089C440.737 152.865 438.566 150.995 437.724 150.382C435.331 148.637 432.262 148.075 429.494 147.203C426.542 146.274 423.303 144.56 422.065 141.517C421.627 140.439 422.462 134.751 419.782 136.324" fill="#C1DEE2"/>
<path fill-rule="evenodd" clip-rule="evenodd" d="M460.145 138.307C458.527 138.753 459.597 140.979 459.594 142.094C459.591 143.485 459.146 144.94 458.289 146.05C456.116 148.865 451.86 149.286 448.669 150.093C446.352 150.68 440.809 151.937 440.592 155.07C440.349 158.569 445.243 154.311 445.657 154.137C450.231 152.459 456.149 152.135 459.679 148.441C461.137 146.917 461.998 144.882 462.135 142.782C462.212 141.599 462.225 137.738 460.145 138.307" fill="#C1DEE2"/>
<path fill-rule="evenodd" clip-rule="evenodd" d="M426.713 169.349C426.675 162.875 432.871 158.958 438.474 157.485C445.208 155.711 451.481 160.43 452.275 167.217C453.112 174.381 447.713 180.148 440.593 180.464C434.33 180.742 426.753 176.258 426.713 169.349ZM441.755 160.599C442.12 161.094 442.448 161.884 441.714 162.314C441.009 162.726 440.656 162.231 440.301 161.733C440.077 161.419 439.852 161.103 439.536 161.014C438.717 160.784 437.402 161.645 436.72 162.147C436.443 162.35 436.049 162.789 435.589 163.302C434.123 164.934 431.983 167.318 430.8 165.267C426.083 173.413 437.844 179.509 444.531 176.426C451.876 173.041 450.446 160.663 441.755 160.599Z" fill="#89C5CC"/>
<path fill-rule="evenodd" clip-rule="evenodd" d="M435.592 167.181C435.592 168.667 437.939 168.667 437.939 167.181C437.939 165.711 435.592 165.648 435.592 167.181" fill="#89C5CC"/>
<path fill-rule="evenodd" clip-rule="evenodd" d="M439.721 166.902C439.721 168.722 442.597 168.722 442.597 166.902C442.597 165.102 439.721 165.026 439.721 166.902" fill="#89C5CC"/>
<path fill-rule="evenodd" clip-rule="evenodd" d="M436.766 171.144C434.414 172.528 441.14 175.277 441.405 172.468C441.52 171.256 440.346 171.583 439.564 171.493C438.815 171.408 437.476 170.731 436.766 171.144" fill="#89C5CC"/>
<path fill-rule="evenodd" clip-rule="evenodd" d="M435.746 180.958C435.848 184.491 435.799 188.023 436.469 191.507C436.596 192.169 436.685 194.569 437.208 195.061C438.494 196.27 438.515 193.952 438.565 193.064C438.744 189.882 438.41 186.602 438.336 183.414C438.32 182.728 438.502 181.306 438.178 180.642C437.664 179.588 435.696 179.275 435.746 180.958" fill="#C1DEE2"/>
<path fill-rule="evenodd" clip-rule="evenodd" d="M433.23 178.093C428.074 183.88 420.974 183.454 413.821 183.961C410.042 184.228 406.22 184.778 403.179 187.223C401.765 188.36 400.545 189.784 399.726 191.408C399.368 192.117 397.668 196.212 400.22 195.241C401.125 194.896 402.016 192.188 402.602 191.387C403.716 189.862 405.143 188.603 406.854 187.784C410.155 186.205 414.097 186.232 417.676 186.031C421.417 185.822 425.433 185.626 428.872 183.999C430.49 183.234 432.008 182.279 433.31 181.049C433.775 180.61 434.773 179.863 434.847 179.19C434.932 178.422 434.193 177.015 433.23 178.093" fill="#C1DEE2"/>
<path fill-rule="evenodd" clip-rule="evenodd" d="M407.201 195.854C402.358 196.016 397.521 196.212 392.684 196.518C391.693 196.581 388.388 196.381 389.23 198.412C389.905 200.04 393.935 198.963 395.268 198.884C400.308 198.585 405.368 198.481 410.398 198.027C411.527 197.926 416.634 197.966 414.525 195.964C413.522 195.011 408.587 195.807 407.201 195.854" fill="#89C5CC"/>
<path fill-rule="evenodd" clip-rule="evenodd" d="M386.155 198.192C384.628 200.197 385.33 205.071 385.445 207.481C385.557 209.817 385.103 214.088 388.152 214.45C387.184 214.323 388.887 214.509 389.164 214.524C389.783 214.557 390.405 214.568 391.025 214.574C392.457 214.59 393.89 214.571 395.321 214.542C398.565 214.477 401.817 214.383 405.056 214.204C406.418 214.128 413.804 214.191 414.097 212.777C414.47 210.969 407.388 211.992 406.12 212.05C403.033 212.191 399.94 212.221 396.85 212.261C395.318 212.282 393.785 212.297 392.253 212.267C391.621 212.254 389.116 212.514 388.732 212.092C388.404 211.733 388.66 208.43 388.653 207.925C388.63 206.278 388.632 204.628 388.69 202.982C388.73 201.874 389.329 199.765 388.841 198.724C388.366 197.712 386.982 197.366 386.155 198.192" fill="#89C5CC"/>
<path fill-rule="evenodd" clip-rule="evenodd" d="M411.094 198.284C411.182 201.952 411.21 205.694 412.076 209.281C412.364 210.475 412.768 212.937 413.968 213.555C415.227 214.204 416.314 213.278 416.396 212.031C416.499 210.463 415.66 208.404 415.488 206.795C415.286 204.918 415.169 203.039 415.101 201.152C415.048 199.734 415.48 197.606 414.127 196.692C412.912 195.87 411.054 196.697 411.094 198.284" fill="#89C5CC"/>
<path fill-rule="evenodd" clip-rule="evenodd" d="M420.732 197.39C419.226 198.891 419.899 203.642 420.088 205.57C420.226 206.982 421.771 213.928 424.087 210.306C425.111 208.703 423.81 204.467 423.819 202.598C423.825 201.408 424.246 199.903 424.043 198.76C423.774 197.249 422.099 196.026 420.732 197.39" fill="#89C5CC"/>
<path fill-rule="evenodd" clip-rule="evenodd" d="M431.163 196.149C435.687 195.682 440.217 195.332 444.767 195.288C444.985 195.287 445.215 195.284 445.453 195.281C448.572 195.241 453.257 195.182 455.355 197.523C456.499 198.799 457.017 200.77 457.468 202.489C457.552 202.81 457.634 203.122 457.717 203.419C457.788 203.672 457.881 203.962 457.981 204.274C458.452 205.75 459.09 207.747 458.443 208.983C458.089 209.661 457.518 210.239 456.651 209.998C456.449 209.942 456.29 209.871 456.166 209.786C456.498 210.145 456.645 210.657 456.429 211.157C456.013 212.125 454.696 212.145 453.659 212.162C453.408 212.166 453.173 212.169 452.971 212.186C449.517 212.474 446.046 212.666 442.58 212.696C440.929 212.711 439.279 212.697 437.628 212.684C435.929 212.67 434.23 212.656 432.531 212.673C431.298 212.685 430.042 212.802 428.785 212.92C427.199 213.068 425.612 213.216 424.07 213.152C422.916 213.105 421.683 212.727 421.976 211.235C422.214 210.018 423.36 209.912 424.387 209.817C424.477 209.808 424.565 209.8 424.652 209.791C427.922 209.458 431.194 209.34 434.481 209.352C441.386 209.376 448.286 209.34 455.19 209.304C455.474 209.328 455.741 209.436 455.962 209.602C455.713 209.3 455.718 208.898 455.723 208.47C455.725 208.277 455.728 208.078 455.707 207.88C455.664 207.483 455.626 207.088 455.587 206.694C455.46 205.39 455.333 204.096 455.084 202.785C455.047 202.587 455.01 202.37 454.972 202.139C454.746 200.778 454.447 198.974 453.364 198.239C452.276 197.5 450.142 197.536 448.479 197.563C448.03 197.571 447.615 197.578 447.265 197.569C442.827 197.454 438.363 197.769 433.945 198.171C433.606 198.202 433.266 198.231 432.926 198.261C431.245 198.407 429.555 198.554 427.899 198.855C427.596 198.91 427.133 199.072 426.601 199.257C425.188 199.75 423.293 200.412 422.649 199.683C420.516 197.271 429.89 196.28 431.163 196.149Z" fill="#89C5CC"/>
<path fill-rule="evenodd" clip-rule="evenodd" d="M479.298 190.657C479.494 190.91 479.494 190.91 479.298 190.657ZM448.68 175.709C445.933 177.324 451.019 182.064 452.314 182.797C455.23 184.446 459.236 184.695 462.491 185.159C466.611 185.746 471.095 185.962 475.054 187.312C476.742 187.888 477.814 188.785 478.918 190.165C479.478 190.864 480.826 193.877 482.053 193.164C484.525 191.727 477.866 185.699 476.398 185.051C473.063 183.578 469.12 183.165 465.554 182.593C462.237 182.061 458.85 181.665 455.615 180.727C453.837 180.211 452.573 179.379 451.548 177.787C450.909 176.794 450.385 174.712 448.68 175.709" fill="#C1DEE2"/>
<path fill-rule="evenodd" clip-rule="evenodd" d="M490.806 194.225C487.638 194.295 484.476 194.539 481.315 194.782C479.541 194.919 477.768 195.056 475.993 195.162C475.439 195.195 474.883 195.225 474.327 195.255C472.765 195.339 471.2 195.423 469.644 195.58C469.408 195.604 469.134 195.627 468.836 195.651C467.515 195.76 465.714 195.908 464.563 196.39C463.507 195.591 461.879 196.27 461.853 197.692C461.81 200.284 461.834 202.829 462.15 205.405C462.223 206.002 462.601 209.029 463.423 210.605C463.13 212.093 464.398 212.511 465.579 212.625C470.152 213.066 474.947 212.723 479.677 212.385C482.083 212.214 484.472 212.043 486.806 211.977C487.582 211.955 488.369 211.946 489.16 211.937C491.741 211.909 494.371 211.879 496.87 211.391C496.971 211.371 497.079 211.352 497.191 211.332C498.179 211.155 499.542 210.91 499.645 209.823C499.708 209.171 499.34 208.574 498.724 208.489C498.766 207.945 498.698 207.352 498.648 206.916C498.636 206.814 498.625 206.721 498.617 206.639C498.467 205.127 498.091 203.625 497.719 202.142L497.719 202.141C497.635 201.808 497.552 201.476 497.471 201.145C497.382 200.778 497.3 200.341 497.211 199.87C496.896 198.209 496.502 196.122 495.452 195.153C494.35 194.136 492.558 194.181 491.122 194.217C491.015 194.22 490.909 194.223 490.806 194.225ZM496.381 208.651C496.006 207.668 495.896 206.338 495.791 205.074V205.074L495.791 205.074C495.726 204.281 495.662 203.513 495.536 202.874C495.442 202.394 495.365 201.888 495.286 201.373C495.095 200.124 494.897 198.826 494.428 197.731C493.8 196.265 493.241 196.321 491.919 196.454L491.919 196.454C491.673 196.479 491.401 196.506 491.097 196.527C489.749 196.618 488.403 196.735 487.057 196.851L487.057 196.851L487.057 196.851C486.411 196.907 485.765 196.963 485.119 197.016C482.355 197.243 479.59 197.418 476.824 197.593L476.824 197.593C475.208 197.695 473.592 197.797 471.976 197.909C470.708 197.998 469.47 198.239 468.238 198.479L468.238 198.479C467.262 198.669 466.289 198.858 465.306 198.971C465.292 199.307 465.264 199.644 465.237 199.965C465.2 200.402 465.166 200.81 465.173 201.144C465.206 202.624 465.336 204.095 465.467 205.568L465.467 205.568L465.467 205.568C465.487 205.794 465.507 206.021 465.527 206.248C465.551 206.519 465.609 206.868 465.674 207.255C465.774 207.854 465.89 208.545 465.916 209.18C466.035 209.179 466.154 209.18 466.271 209.18C466.422 209.181 466.57 209.181 466.713 209.179C470.195 209.118 473.675 209.012 477.156 208.879C477.6 208.862 478.044 208.844 478.488 208.827C481.593 208.706 484.699 208.585 487.806 208.55C489.041 208.536 490.292 208.574 491.546 208.613C493.161 208.663 494.781 208.713 496.381 208.651Z" fill="#89C5CC"/>
</g>
<path fill-rule="evenodd" clip-rule="evenodd" d="M217.614 251.184C221.721 253.661 225.756 254.858 227.65 254.369C232.4 253.144 232.836 235.757 229.161 228.902C225.486 222.047 206.594 219.06 205.642 232.641C205.312 237.355 207.29 241.562 210.212 244.995L204.972 269.436H220.192L217.614 251.184Z" fill="#EDC59F"/>
<path fill-rule="evenodd" clip-rule="evenodd" d="M223.15 221.436C221.07 220.802 218.051 220.587 216.781 220.732C217.503 219 217.79 217.07 217.556 215.191C217.329 213.365 216.514 211.811 215.76 210.182C215.412 209.431 215.019 208.684 214.431 208.11C213.833 207.524 213.076 207.138 212.282 206.954C211.469 206.765 210.619 206.781 209.806 206.952C209.446 207.028 209.123 207.193 208.769 207.284C208.408 207.378 208.232 207.152 207.97 206.924C207.338 206.376 206.41 206.105 205.61 206.008C204.712 205.899 203.781 206.035 202.925 206.33C202.091 206.618 201.291 207.085 200.688 207.765C200.42 208.067 200.176 208.412 200.018 208.792C199.953 208.949 199.942 209.041 199.787 209.098C199.643 209.151 199.474 209.153 199.326 209.203C197.889 209.69 196.66 210.801 195.991 212.228C195.601 213.06 195.416 214.525 195.467 216.168C195.517 217.81 196.999 222.095 198.385 223.658C199.622 225.053 201.441 225.974 203.196 226.377C202.031 227.71 201.256 229.374 200.682 231.068C200.059 232.907 199.674 234.818 199.532 236.766C199.396 238.616 199.384 240.572 199.817 242.383C200.223 244.076 201.09 245.465 202.537 246.347C203.2 246.75 203.914 247.054 204.631 247.331C205.339 247.604 206.048 247.869 206.789 248.023C208.191 248.313 209.806 248.263 210.886 247.146C211.275 246.744 211.703 246.238 211.987 245.746C212.089 245.569 212.151 245.454 212.027 245.281C211.878 245.074 211.638 244.915 211.447 244.753C210.358 243.83 209.684 242.597 209.514 241.132C209.342 239.645 209.741 237.727 211.185 237.078C212.968 236.277 214.931 237.196 216.516 238.053C217.189 235.675 218.572 233.533 220.74 232.442C223.138 231.235 225.89 231.094 228.355 230.058C228.997 229.789 229.651 229.482 230.124 228.932C230.322 228.703 230.554 228.404 230.632 228.101C230.736 227.701 230.479 227.367 230.28 227.055C229.226 225.405 225.23 222.071 223.15 221.436Z" fill="#191847"/>
<path fill-rule="evenodd" clip-rule="evenodd" d="M203.703 433.164C230.671 433.164 252.534 412.281 252.534 386.52C252.534 360.758 230.671 339.875 203.703 339.875C176.734 339.875 154.871 360.758 154.871 386.52C154.871 412.281 176.734 433.164 203.703 433.164Z" fill="#C5CFD6"/>
<path fill-rule="evenodd" clip-rule="evenodd" d="M279.621 384.031C281.98 392.299 287.856 407.969 295.982 425.966L303.703 423.712C296.948 382.3 291.326 354.883 288.106 346.538C285.978 341.025 269.882 341.671 271.733 352.765C272.51 357.417 275.582 369.874 279.621 384.031ZM247.884 354.7C235.293 357.311 209.185 366.54 201.73 369.489C197.044 371.342 200.065 377.627 204.062 377.077C204.739 376.984 207.134 376.716 210.707 376.316C222.184 375.031 245.82 372.385 263.746 369.803C273.185 368.444 268.107 350.751 258.307 352.623C255.01 353.253 251.503 353.95 247.884 354.7Z" fill="#EDC59F"/>
<path fill-rule="evenodd" clip-rule="evenodd" d="M288.599 341.868C287.312 337.664 228.792 322.742 228.792 322.742H223.997V327.214L264.322 347.756C264.268 348.419 264.301 349.12 264.431 349.859C264.14 365.088 270.653 376.464 277.102 387.728C281.319 395.094 285.508 402.412 287.749 410.727L302.564 408.515C302.132 407.41 301.45 402.43 300.517 395.621C298.164 378.452 294.218 349.656 288.682 342.037C288.663 342.01 288.643 341.984 288.623 341.958C288.616 341.928 288.608 341.898 288.599 341.868Z" fill="#5C6EFD"/>
<path fill-rule="evenodd" clip-rule="evenodd" d="M227.348 359.957C223.658 359.218 220.26 358.558 217.352 358.048C198.572 354.751 193.096 344.691 196.334 322.742H230.936C236.588 324.367 265.963 336.694 281.204 343.251C291.291 347.59 288.111 363.234 282.399 367.305C282.368 367.555 282.265 367.725 282.082 367.801C260.424 376.783 241.955 376.113 230.096 375.683C225.128 375.502 221.321 375.364 218.923 375.995L215.167 364.138L227.348 359.957Z" fill="#7585FF"/>
<path fill-rule="evenodd" clip-rule="evenodd" d="M205.68 368.723C205.658 368.062 205.101 367.534 204.444 367.602C203.099 367.74 200.995 368.023 199.991 368.513C198.449 369.266 195.742 371.223 195.742 371.223C196.614 373.013 211.422 403.395 211.422 403.395C211.422 403.395 216.176 402.627 215.189 399.764C214.203 396.901 213.598 394.984 213.598 394.984L212.969 376.707C212.958 376.389 212.687 376.143 212.37 376.163L209.499 376.344C209.499 376.344 207.114 374.412 206.352 372.848C205.869 371.857 205.723 369.97 205.68 368.723Z" fill="#E4E4E4"/>
<path fill-rule="evenodd" clip-rule="evenodd" d="M293.903 421.861C293.299 421.591 292.58 421.86 292.353 422.481C291.887 423.751 291.219 425.768 291.219 426.885C291.219 428.602 291.791 431.895 291.791 431.895C293.781 431.895 327.559 431.895 327.559 431.895C327.559 431.895 328.954 427.283 325.95 426.915C322.946 426.547 320.959 426.251 320.959 426.251L304.269 418.805C303.978 418.675 303.638 418.811 303.517 419.106L302.421 421.766C302.421 421.766 299.64 423.064 297.901 423.064C296.799 423.064 295.042 422.369 293.903 421.861Z" fill="#E4E4E4"/>
<path fill-rule="evenodd" clip-rule="evenodd" d="M277.698 328.857L257.469 313.992L252.997 325.054L273.029 333.367C278.695 340.027 281.862 342.803 282.533 341.696C283.098 340.762 282.656 339.888 282.249 339.083C281.932 338.456 281.636 337.871 281.854 337.332C282.352 336.101 286.157 336.231 289.764 336.508C293.37 336.786 292.319 335.18 291.449 334.387C287.768 332.182 283.184 330.339 277.698 328.857ZM171.612 355.053C173.471 351.28 179.8 314.508 179.8 314.508L193.052 314.561C193.052 314.561 180.778 354.212 179.8 356.638C178.529 359.79 180.687 364.369 182.151 367.474C182.378 367.954 182.587 368.399 182.765 368.798C180.734 369.708 179.759 368.609 178.73 367.45C177.568 366.141 176.339 364.756 173.445 366.103C172.327 366.623 171.269 367.239 170.235 367.84C166.665 369.917 163.385 371.825 158.923 369.07C158.216 368.633 157.441 366.988 159.314 365.703C163.98 362.501 170.704 356.898 171.612 355.053Z" fill="#EDC59F"/>
<path fill-rule="evenodd" clip-rule="evenodd" d="M217.463 258.856L222.946 257.915C243.293 275.503 251.65 309.293 276.59 327.193L270.587 334.639C227.321 329.279 216.597 288.063 217.463 258.856Z" fill="#E87613"/>
<path fill-rule="evenodd" clip-rule="evenodd" d="M193.557 327.817C193.557 327.817 226.539 327.817 242.079 327.817C244.296 327.817 243.878 324.614 243.558 322.997C239.859 304.339 225.419 284.226 225.419 257.667L211.423 255.471C199.847 274.102 195.843 297.041 193.557 327.817Z" fill="#DDE3E9"/>
<path fill-rule="evenodd" clip-rule="evenodd" d="M195.417 273.567C192.87 273.385 190.571 272.318 189.118 269.694C184.003 260.457 185.85 255.372 191.317 253.7C194.323 252.781 197.15 253.408 200.535 254.159C203.305 254.774 206.449 255.472 210.369 255.472C210.752 255.472 211.1 255.498 211.416 255.547L216.052 255.812C216.052 255.812 234.908 319.763 226.453 341.146H188.101C185.921 346.387 183.782 350.96 181.767 354.473H171.361C170.242 318.248 183.947 290.374 195.417 273.567Z" fill="#FF9B21"/>
<path fill-rule="evenodd" clip-rule="evenodd" d="M188.102 341.144C190.963 334.267 193.897 326.24 196.72 317.951C197.771 327.08 199.522 336.248 202.436 341.144H188.102Z" fill="black" fill-opacity="0.1"/>
<path fill-rule="evenodd" clip-rule="evenodd" d="M396.374 211.141C392.261 213.62 388.22 214.818 386.323 214.329C381.567 213.103 381.13 195.702 384.81 188.842C388.49 181.982 407.411 178.992 408.364 192.584C408.695 197.301 406.715 201.511 403.788 204.946L409.036 229.403H393.793L396.374 211.141Z" fill="#B28B67"/>
<path fill-rule="evenodd" clip-rule="evenodd" d="M419.177 283.035L395.312 361.206L383.752 427.685H374.687L386.903 283.035H419.177Z" fill="#997659"/>
<path fill-rule="evenodd" clip-rule="evenodd" d="M427.714 283.035C426.093 325.955 428.001 348.094 428.364 351.994C428.726 355.893 433.694 381.177 445.455 428.994L435.796 425.671C417.21 381.816 410.876 359.023 408.744 353.264C406.613 347.506 400.951 324.096 391.759 283.035H427.714Z" fill="#B28B67"/>
<path fill-rule="evenodd" clip-rule="evenodd" d="M443.762 424.849C444.366 424.579 445.085 424.849 445.313 425.47C445.779 426.742 446.446 428.761 446.446 429.88C446.446 431.599 445.875 434.896 445.875 434.896C443.885 434.896 410.106 434.896 410.106 434.896C410.106 434.896 408.712 430.278 411.716 429.91C414.72 429.542 416.707 429.245 416.707 429.245L433.396 421.79C433.687 421.66 434.028 421.796 434.149 422.091L435.245 424.754C435.245 424.754 438.026 426.054 439.764 426.054C440.866 426.054 442.623 425.359 443.762 424.849Z" fill="#E4E4E4"/>
<path fill-rule="evenodd" clip-rule="evenodd" d="M384.149 424.849C384.753 424.579 385.473 424.849 385.701 425.47C386.166 426.742 386.834 428.761 386.834 429.88C386.834 431.599 386.262 434.896 386.262 434.896C384.272 434.896 350.494 434.896 350.494 434.896C350.494 434.896 349.1 430.278 352.103 429.91C355.107 429.542 357.094 429.245 357.094 429.245L373.784 421.79C374.075 421.66 374.415 421.796 374.536 422.091L375.632 424.754C375.632 424.754 378.413 426.054 380.152 426.054C381.254 426.054 383.01 425.359 384.149 424.849Z" fill="#E4E4E4"/>
<path fill-rule="evenodd" clip-rule="evenodd" d="M422.348 283.035L412.201 322.862H381.209L385.83 283.035H422.348Z" fill="#69A1AC"/>
<path fill-rule="evenodd" clip-rule="evenodd" d="M428.055 283.035C433.063 298.076 429.958 322.862 429.958 322.862H398.331L389.635 283.035H428.055Z" fill="#89C5CC"/>
<path fill-rule="evenodd" clip-rule="evenodd" d="M462.564 303.068C460.196 299.594 444.236 252.852 444.236 252.852L430.472 254.839C430.472 254.839 453.357 303.513 454.664 305.777C456.363 308.717 454.859 313.548 453.839 316.824C453.681 317.331 453.535 317.8 453.414 318.22C455.555 318.836 456.369 317.613 457.228 316.323C458.198 314.866 459.225 313.324 462.282 314.254C463.463 314.613 464.598 315.074 465.707 315.525C469.537 317.082 473.055 318.512 477.097 315.165C477.737 314.634 478.278 312.899 476.241 311.889C471.169 309.372 463.721 304.766 462.564 303.068ZM343.943 300.653L359.322 280.799L366.675 290.188L349.681 303.695C346.062 311.653 343.778 315.193 342.827 314.314C342.025 313.574 342.21 312.613 342.38 311.728C342.512 311.038 342.636 310.394 342.278 309.937C341.459 308.892 337.831 310.066 334.436 311.327C331.041 312.588 331.61 310.757 332.229 309.755C335.165 306.623 339.07 303.589 343.943 300.653Z" fill="#B28B67"/>
<path fill-rule="evenodd" clip-rule="evenodd" d="M396.79 219.749L391.221 219.583C386.902 251.017 345.78 277.81 344.666 289.49C344.257 293.774 347.54 295.449 346.174 296.928L353.969 301.1C354.97 299.538 357.883 301.729 362.967 299.195C368.051 296.662 401.821 255.545 396.79 219.749Z" fill="#DB2721"/>
<path fill-rule="evenodd" clip-rule="evenodd" d="M405.852 212.026C407.072 211.767 408.271 212.546 408.531 213.766L409.362 217.676C420.702 224.099 449.372 244.028 462.129 286.836C463.469 291.332 462.559 293.969 461.832 296.077C461.335 297.518 460.923 298.712 461.376 300.082L452.482 303.932C452.336 302.893 451.059 302.267 449.412 301.459C447.016 300.284 443.837 298.725 442.213 294.955C440.673 291.382 438.532 286.949 436.026 282.036C436.819 288.898 436.404 295.37 434.306 300.976C429.071 314.965 386.262 306.447 380.135 293.788C376.866 287.033 379.259 280.639 382.424 272.184C386.441 261.453 391.702 247.4 388.209 225.071L386.787 218.385C386.528 217.165 387.306 215.966 388.526 215.707L405.852 212.026Z" fill="#FF4133"/>
<path fill-rule="evenodd" clip-rule="evenodd" d="M392.582 181.43C394.591 181.1 400 180.874 400.997 180.874C401.635 180.874 402.326 181.019 402.703 180.434C403.012 179.955 402.899 179.144 402.991 178.588C403.099 177.942 403.251 177.304 403.405 176.668C403.843 174.857 404.505 173.135 405.432 171.518C407.171 168.484 409.719 166.107 412.935 164.724C416.487 163.198 420.506 162.848 424.327 163.158C428.415 163.489 432.116 164.839 435.977 166.109C439.655 167.319 443.508 167.795 447.355 167.204C451.232 166.609 454.161 164.508 457.43 162.514C460.777 160.472 464.603 159.137 468.56 159.444C472.253 159.731 475.658 161.256 478.712 163.293C481.57 165.2 483.928 167.493 485.259 170.721C486.691 174.193 486.69 178.004 484.335 181.073C480.921 185.521 474.584 186.671 469.312 186.556C466.262 186.49 463.267 185.934 460.388 184.921C456.549 183.571 453.231 181.282 449.638 179.424C447.953 178.553 446.21 177.837 444.384 177.321C442.611 176.821 440.866 176.591 439.261 177.662C437.563 178.795 436.042 179.907 434.1 180.616C432.237 181.297 430.264 181.677 428.279 181.662C424.417 181.632 420.61 180.429 416.859 179.623C413.8 178.965 410.528 178.311 407.409 178.942C406.108 179.206 404.208 179.75 403.738 181.102C411.648 182.536 414.754 192.319 412.524 199.5C411.321 203.376 404.086 207.907 401.273 205.869C399.491 204.578 400.573 202.883 401.273 201.765C402.614 199.622 403.073 196.87 400.592 195.378C398.452 194.092 396.201 197.147 396.159 197.144C395.571 197.097 390.488 194.223 386.986 190.028C383.531 190.233 383.007 187.955 383.832 186.092C384.657 184.229 389.806 181.885 392.582 181.43Z" fill="#010101"/>
</svg>
