<svg width="314" height="315" viewBox="0 0 314 315" fill="none" xmlns="http://www.w3.org/2000/svg">
<rect width="314" height="315" rx="7.51305" fill="#E0EAFF"/>
<rect x="87.0002" y="70" width="125.497" height="31.3743" rx="7.84357" fill="#8AFF9D"/>
<rect x="108.962" y="117.064" width="125.497" height="31.3743" rx="7.84357" fill="#C6ABFF"/>
<rect x="87" y="162.555" width="125.497" height="31.3743" rx="7.84357" fill="#ABC8FF"/>
<rect x="108.962" y="209.615" width="125.497" height="31.3743" rx="7.84357" fill="#FFABAB"/>
<circle cx="192.104" cy="85.6864" r="12.5497" fill="white"/>
<circle cx="192.104" cy="178.243" r="12.5497" fill="white"/>
<circle cx="129.355" cy="132.747" r="12.5497" fill="white"/>
<circle cx="129.355" cy="225.304" r="12.5497" fill="white"/>
<path d="M192.829 185.187C195.222 185.187 196.894 183.549 196.894 181.444C196.894 179.706 195.744 178.395 193.952 177.941V177.887C195.503 177.446 196.493 176.229 196.493 174.625C196.493 172.62 194.955 171.122 192.802 171.122C190.65 171.122 189.086 172.62 189.086 174.732H189.514C189.514 172.86 190.891 171.55 192.802 171.55C194.734 171.55 196.065 172.867 196.065 174.625C196.065 176.524 194.48 177.727 192.428 177.727H192.214V178.155H192.428C194.768 178.155 196.466 179.478 196.466 181.444C196.466 183.269 195.002 184.759 192.829 184.759C190.777 184.759 189.193 183.422 189.193 181.577H188.765C188.765 183.663 190.516 185.187 192.829 185.187Z" fill="#042454"/>
<path d="M124.39 228.791H130.674V232H131.102V228.791H132.813V228.363H131.102V218.309H130.674L124.39 228.47V228.791ZM130.674 228.363H125.005V228.31L130.621 219.192H130.674V228.363Z" fill="#042454"/>
<path d="M192.786 79.3094H192.198L189.337 81.2079V81.716L192.278 79.764H192.359V93H192.786V79.3094Z" fill="#042454"/>
<path d="M124.738 140H133.001V139.572H125.407V139.519L129.444 134.732C131.55 132.239 132.198 131.169 132.198 129.652C132.198 127.62 130.674 126.122 128.615 126.122C126.476 126.122 124.979 127.747 124.979 129.732H125.407C125.407 127.987 126.717 126.55 128.615 126.55C130.434 126.55 131.771 127.86 131.771 129.652C131.771 131.016 131.182 132.032 129.123 134.465L124.738 139.652V140Z" fill="#042454"/>
</svg>
