<svg width="37" height="27" viewBox="0 0 37 27" fill="none" xmlns="http://www.w3.org/2000/svg">
<path d="M14.2776 17.2915C14.4234 16.9607 14.4194 16.583 14.2665 16.2554L10.5948 8.38864C10.1445 7.42398 8.77277 7.42414 8.32274 8.3889L0.831958 24.4475C0.444281 25.2786 1.05097 26.2311 1.96804 26.2311H11.6458C12.1381 26.2311 12.5849 25.9429 12.7879 25.4944L14.3327 22.0809C14.4848 21.7448 14.4812 21.3588 14.3227 21.0256L13.6915 19.6983C13.5349 19.3689 13.5295 18.9877 13.6766 18.654L14.2776 17.2915Z" fill="#042454"/>
<path d="M22.6153 2.50645C23.0484 1.52444 24.4349 1.50531 24.8949 2.47499L35.3158 24.4406C35.7104 25.2724 35.1039 26.2316 34.1832 26.2316H19.4071C18.9233 26.2316 18.4827 25.9532 18.275 25.5164L15.5084 19.6988C15.3518 19.3694 15.3463 18.9882 15.4935 18.6545L22.6153 2.50645Z" fill="#042454"/>
</svg>
