<svg width="414" height="359" viewBox="0 0 414 359" fill="none" xmlns="http://www.w3.org/2000/svg">
<mask id="mask0" mask-type="alpha" maskUnits="userSpaceOnUse" x="0" y="0" width="414" height="347">
<path d="M0 0H414V341.619C414 344.11 411.842 346.129 409.179 346.129H4.82096C2.15842 346.129 0 344.11 0 341.619V0Z" fill="#EE8282"/>
</mask>
<g mask="url(#mask0)">
<rect width="414" height="346.13" fill="#F7F7F7"/>
</g>
<g opacity="0.504511">
<path fill-rule="evenodd" clip-rule="evenodd" d="M396.873 239.74C402.424 275.138 267.802 298.227 151.929 282.114C36.0563 266 -17.1006 203.076 38.1919 169.547C93.4845 136.019 391.322 204.341 396.873 239.74Z" fill="#F2F2F2"/>
</g>
<path fill-rule="evenodd" clip-rule="evenodd" d="M230.339 92.2333C232.434 90.8682 235.683 91.7382 237.792 92.5439C238.604 92.8547 240.681 93.8484 242.221 94.9669C242.017 94.1917 241.836 93.4096 241.677 92.6212C241.026 89.3794 240.577 86.0761 240.361 82.792C240.305 81.9354 240.378 80.9784 240.452 80.0088C240.478 79.6803 240.503 79.3503 240.523 79.0224C240.439 78.9449 240.382 78.838 240.358 78.693C240.349 78.7531 240.344 78.8013 240.34 78.8382C240.334 78.8971 240.331 78.927 240.32 78.9301C240.309 78.9333 240.289 78.908 240.25 78.8565C240.235 78.8368 240.217 78.8132 240.195 78.786C238.637 76.7983 237.328 74.5587 237.148 72.0967C236.996 70.0087 239.008 66.0579 241.859 68.7928C243.135 70.0143 242.804 78.5925 240.888 79.1182C241.4 81.9607 242.043 84.7984 242.849 87.6C242.97 87.5818 243.093 87.5802 243.215 87.5944C243.204 86.8979 243.202 86.1378 243.236 85.8765C243.523 83.6251 245.728 79.0542 249.238 79.9416C251.936 80.6237 250.283 83.4312 249.365 84.66C247.887 86.6384 246.215 87.495 244.098 88.5238C244.056 88.949 243.735 89.1962 243.355 89.2765C244.772 93.8011 246.635 98.2139 249.072 102.382L249.137 102.117C249.446 100.852 249.807 99.3768 250.035 99.067C251.23 97.4455 253.874 95.4649 256.313 96.4244C261.434 98.4422 255.875 104.242 251.515 104.873C251.334 105.086 251.142 105.258 250.938 105.357C251.785 106.615 252.691 107.847 253.659 109.047C255.112 110.853 256.674 112.652 258.311 114.441C258.361 113.042 259.009 109.923 259.193 109.588C260.311 107.552 263.533 105.458 266.148 106.904C269.088 108.534 266.422 111.615 264.745 113.009C264.057 113.58 260.658 115.675 259.458 115.684C263.413 119.903 267.779 124.05 272.217 128.047C271.85 126.257 271.369 121.33 271.423 120.783C271.699 117.96 273.873 113.445 278.158 114.545C282.315 115.611 280.476 120.301 279.053 122.537C278.191 123.891 276.999 125.266 275.562 126.209C275.303 126.379 274.965 126.518 274.627 126.657C274.22 126.824 273.814 126.991 273.548 127.211C273.311 127.408 273.239 127.634 273.167 127.858C273.09 128.095 273.015 128.329 272.748 128.525C275.146 130.676 277.562 132.781 279.943 134.829C281.066 135.795 282.21 136.743 283.365 137.678C283.997 137.455 284.898 137.749 284.851 138.512C284.844 138.623 284.814 138.719 284.774 138.806C285.649 139.501 286.53 140.191 287.418 140.873C287.398 140.675 287.404 140.394 287.444 140.007C286.805 140.783 286.832 139.653 286.852 138.792C286.859 138.487 286.866 138.216 286.842 138.075C286.748 137.522 286.626 136.974 286.505 136.426C286.246 135.257 285.987 134.092 286 132.886C286.028 130.325 287.929 126.033 291.929 127.557C295.608 128.957 294.269 132.752 292.882 135.132C292.003 136.637 290.801 137.982 289.545 139.269C289.321 139.499 289.073 139.81 288.826 140.118C288.461 140.575 288.101 141.025 287.835 141.193C291.25 143.805 294.745 146.34 298.241 148.875L298.241 148.876L298.243 148.877C299.808 150.012 301.374 151.147 302.932 152.289C303 152.039 303.056 151.79 303.104 151.558C303.007 151.651 302.874 151.695 302.704 151.687C302.659 151.494 302.593 151.239 302.514 150.932C301.551 147.187 298.619 135.78 306.558 137.991C312.375 139.615 308.269 149.548 303.931 153.022C306.564 154.962 309.171 156.927 311.718 158.95C313.561 160.414 315.349 161.929 317.069 163.493C316.179 161.467 315.34 158.845 315.891 156.757C316.692 153.72 320.448 150.851 324.115 152.58C328.686 154.744 325.169 157.7 321.872 160.471C320.188 161.886 318.561 163.253 318.097 164.443C323.565 169.575 328.234 175.277 331.354 181.773C334.746 188.836 337.896 198.327 336.154 206.23C336.476 202.755 335.1 198.392 334.134 195.328L334.134 195.328C334.003 194.911 333.879 194.517 333.768 194.154C332.316 189.402 330.254 184.778 327.537 180.45C323.184 173.518 317.435 167.634 310.798 162.292C309.286 162.741 307.645 163.574 306.285 164.263C305.451 164.686 304.723 165.055 304.197 165.249C301.657 166.184 296.781 167.524 295.163 164.579C293.572 161.682 297.633 160.062 300.149 159.413C302.581 158.787 304.774 158.862 307.042 159.376C303.529 156.717 299.93 154.143 296.332 151.569L296.331 151.568L296.33 151.567C295.668 151.094 295.007 150.621 294.347 150.148C293.432 150.788 292.422 151.713 291.349 152.696C287.944 155.814 283.911 159.508 280.309 156.49C274.873 151.935 285.27 147.306 289.699 147.667C290.243 147.711 290.769 147.809 291.282 147.942C286.765 144.669 282.318 141.329 278.112 137.754C277.357 137.871 276.156 138.819 274.712 139.958C271.468 142.518 267.003 146.041 263.639 143.267C261.211 141.264 262.042 138.145 264.389 136.362C266.745 134.571 270.162 134.574 273.065 135.177C274.321 135.436 275.479 135.932 276.558 136.535C276.604 136.537 276.648 136.54 276.692 136.542C272.554 132.986 268.39 129.351 264.379 125.592L264.27 125.622L264.165 125.651C263.923 125.905 263.517 125.997 263.145 125.941C262.94 126.001 262.731 126.063 262.517 126.126C259.34 127.062 255.257 128.265 252.091 127.746C249.761 127.364 247.646 125.747 249.619 123.756C251.223 122.137 255.573 122.37 257.695 122.753C258.731 122.94 259.858 123.483 260.989 124.028L260.989 124.028C261.464 124.257 261.94 124.486 262.41 124.689C262.532 124.479 262.745 124.344 262.988 124.279C259.027 120.502 255.248 116.594 251.821 112.516C250.784 112.653 249.633 113.042 248.446 113.443C245.591 114.408 242.526 115.445 240.326 113.213C237.079 109.918 243.186 107.995 246.089 108.308C247.069 108.413 248.036 108.65 248.969 108.964C246.475 105.606 244.57 102.017 243.232 98.2484C243.219 98.254 243.207 98.2597 243.195 98.2655C243.176 98.2745 243.157 98.2836 243.134 98.2922C243.154 98.2829 243.172 98.2732 243.19 98.2635C243.203 98.2563 243.216 98.2491 243.23 98.2422C243.096 97.8651 242.968 97.4863 242.846 97.1062C242.619 96.9984 242.407 96.9191 242.306 96.8865C243.625 97.6627 238.06 98.0426 237.018 98.1137C234.714 98.2707 231.628 98.3293 229.938 96.7183C228.519 95.365 228.601 93.3656 230.339 92.2333ZM336.402 206.241C336.304 207.386 336.062 208.435 335.609 209.3C335.948 208.315 336.209 207.292 336.402 206.241Z" fill="#F2F2F2"/>
<path opacity="0.2" fill-rule="evenodd" clip-rule="evenodd" d="M125.735 19.0973C124.206 18.1109 121.833 18.741 120.293 19.3243C119.7 19.5492 118.184 20.2684 117.059 21.0777C117.208 20.517 117.34 19.9515 117.456 19.3813C117.934 17.037 118.263 14.6483 118.422 12.2735C118.463 11.654 118.41 10.962 118.356 10.2609L118.356 10.2598C118.338 10.0227 118.32 9.78448 118.305 9.54773C118.367 9.49169 118.408 9.41433 118.426 9.30952C118.432 9.35297 118.436 9.38783 118.439 9.41448C118.443 9.45701 118.445 9.47864 118.453 9.48093C118.462 9.4833 118.476 9.46498 118.505 9.42771C118.516 9.41344 118.529 9.3964 118.545 9.37668C119.683 7.93894 120.64 6.31907 120.772 4.53873C120.884 3.02882 119.417 0.172678 117.334 2.15121C116.402 3.03483 116.64 9.2376 118.039 9.61713C117.664 11.6727 117.193 13.7248 116.603 15.7509C116.515 15.7378 116.425 15.7367 116.336 15.747C116.345 15.2433 116.346 14.6937 116.321 14.5047C116.113 12.8769 114.505 9.57237 111.941 10.2152C109.971 10.7092 111.177 12.7388 111.847 13.627C112.925 15.0571 114.145 15.6761 115.691 16.4193C115.721 16.7267 115.956 16.9054 116.233 16.9634C115.196 20.2355 113.834 23.427 112.053 26.4418L112.006 26.2503L112.006 26.2502C111.781 25.3354 111.518 24.2689 111.351 24.0449C110.48 22.8728 108.55 21.4415 106.769 22.1361C103.029 23.5968 107.085 27.7886 110.268 28.2434C110.4 28.3978 110.54 28.522 110.689 28.5932C110.07 29.5033 109.409 30.3945 108.701 31.2627C107.639 32.5687 106.498 33.8704 105.302 35.1646C105.266 34.1527 104.794 31.8975 104.66 31.6552C103.845 30.1839 101.493 28.6707 99.5835 29.717C97.4361 30.8966 99.3812 33.1232 100.605 34.1307C101.107 34.5438 103.588 36.0573 104.464 36.0637C101.574 39.1157 98.385 42.1156 95.1425 45.007C95.4117 43.7131 95.7646 40.1499 95.7256 39.7545C95.5257 37.7134 93.9398 34.4493 90.8109 35.2462C87.7753 36.0181 89.1159 39.4091 90.1539 41.0254C90.7826 42.0036 91.6522 42.9975 92.7011 43.6795C92.8902 43.8023 93.1371 43.9026 93.3837 44.0027L93.3837 44.0027C93.6809 44.1234 93.9776 44.2439 94.1714 44.4034C94.3442 44.5456 94.3971 44.709 94.4496 44.8709C94.5051 45.042 94.56 45.2115 94.7551 45.353C93.0028 46.9089 91.2382 48.4323 89.4989 49.9135C88.6783 50.6126 87.8428 51.2981 86.999 51.9751C86.5377 51.8136 85.8796 52.0265 85.9136 52.5786C85.9185 52.6587 85.9404 52.7279 85.9699 52.7913C85.3305 53.2939 84.687 53.793 84.0385 54.2867C84.0534 54.143 84.0492 53.9403 84.0196 53.6604C84.486 54.2211 84.4669 53.4041 84.4524 52.7813L84.4524 52.7812C84.4473 52.5612 84.4427 52.3654 84.4603 52.2632C84.5292 51.8629 84.6181 51.4666 84.707 51.0709C84.8967 50.2255 85.0859 49.3828 85.077 48.5105C85.0577 46.6589 83.6716 43.5555 80.7502 44.6594C78.064 45.6726 79.0395 48.4165 80.0515 50.1366C80.6923 51.2251 81.5693 52.1969 82.486 53.1272C82.6494 53.2933 82.8307 53.5181 83.0103 53.7406L83.0104 53.7408C83.277 54.0713 83.5397 54.3969 83.734 54.5181C81.2393 56.4078 78.686 58.2421 76.1325 60.0764L76.1318 60.0769C74.9882 60.8984 73.8446 61.72 72.7061 62.5466C72.6566 62.3653 72.6158 62.1855 72.5807 62.0174C72.6518 62.0853 72.7486 62.1169 72.8729 62.1107C72.9061 61.9716 72.9541 61.787 73.0118 61.5651C73.7163 58.8567 75.8621 50.6074 70.0646 52.2086C65.8169 53.385 68.8103 60.5659 71.9763 63.0769C70.0533 64.4805 68.1485 65.9019 66.2882 67.3658C64.9421 68.425 63.6357 69.5206 62.379 70.6525C63.0298 69.1872 63.6434 67.2904 63.2423 65.7813C62.6584 63.585 59.9175 61.5123 57.2396 62.7633C53.9011 64.3296 56.4674 66.4656 58.874 68.4686C60.1029 69.4914 61.29 70.4795 61.6282 71.3393C57.6333 75.0524 54.222 79.177 51.9415 83.8747C49.4612 88.9834 47.1575 95.8474 48.4259 101.561C48.1925 99.0487 49.1987 95.8933 49.9054 93.6774L49.9054 93.6773C50.0016 93.3756 50.0923 93.0913 50.1735 92.8284C51.2353 89.3915 52.7429 86.0474 54.7288 82.9171C57.9097 77.9035 62.11 73.6469 66.9587 69.7819C68.062 70.1064 69.2602 70.7077 70.2526 71.2057C70.8613 71.5111 71.3925 71.7777 71.777 71.9177C73.6309 72.5932 77.1906 73.5608 78.3732 71.4304C79.536 69.3354 76.5719 68.1654 74.7348 67.6967C72.9593 67.2445 71.3585 67.2999 69.7019 67.6719C72.2682 65.7484 74.8971 63.8857 77.5255 62.0234L77.5259 62.0232L77.5272 62.0222C78.0102 61.68 78.4931 61.3379 78.9756 60.9953C79.6431 61.4579 80.3803 62.1266 81.1631 62.8367L81.1632 62.8368C83.6475 65.0904 86.5908 67.7603 89.2221 65.5768C93.1931 62.2816 85.6041 58.9374 82.3699 59.2002C81.9728 59.2322 81.5887 59.3031 81.2141 59.3995C84.5136 57.0315 87.7621 54.6147 90.8345 52.0282C91.3856 52.1129 92.2625 52.798 93.3159 53.621C95.6833 55.4706 98.9423 58.0169 101.4 56.0099C103.173 54.561 102.568 52.306 100.855 51.0171C99.135 49.7228 96.6406 49.726 94.5203 50.1632C93.6037 50.3512 92.758 50.7097 91.9695 51.1465L91.8716 51.1511C94.895 48.5789 97.9368 45.9491 100.867 43.2296C100.918 43.2434 100.97 43.2577 101.023 43.2722C101.2 43.4555 101.496 43.5224 101.768 43.4817C101.917 43.525 102.07 43.5696 102.226 43.615C104.545 44.2908 107.526 45.1594 109.838 44.7832C111.539 44.5064 113.084 43.3364 111.644 41.8974C110.474 40.7272 107.297 40.8967 105.748 41.1746C104.992 41.3105 104.169 41.7034 103.343 42.0976L103.343 42.0977C102.996 42.2633 102.648 42.4291 102.305 42.5763C102.216 42.4243 102.06 42.3268 101.883 42.28C104.776 39.5472 107.537 36.72 110.042 33.7701C110.799 33.869 111.639 34.1499 112.505 34.4396C114.59 35.1368 116.827 35.8851 118.434 34.2708C120.806 31.8871 116.348 30.4984 114.228 30.7256C113.513 30.8023 112.807 30.974 112.125 31.2008C113.948 28.7723 115.34 26.1767 116.319 23.4509C116.328 23.4549 116.337 23.459 116.346 23.4632L116.346 23.4632L116.346 23.4632C116.36 23.4697 116.373 23.4763 116.39 23.4825C116.376 23.4758 116.363 23.4687 116.35 23.4617C116.34 23.4565 116.331 23.4514 116.32 23.4463C116.418 23.1736 116.512 22.8997 116.601 22.6248C116.767 22.5468 116.922 22.4894 116.996 22.4657C116.032 23.0275 120.095 23.3004 120.856 23.3515C122.538 23.4643 124.791 23.5057 126.026 22.3402C127.063 21.3612 127.003 19.9155 125.735 19.0973ZM48.1744 101.336C48.2487 102.099 48.4694 102.795 48.904 103.366C48.585 102.714 48.3457 102.034 48.1744 101.336Z" fill="#C1DEE2"/>
<g opacity="0.7">
<path fill-rule="evenodd" clip-rule="evenodd" d="M328.231 179.67C334.268 179.357 341.733 182.88 342.377 189.441C342.844 194.209 342.7 198.963 343.424 203.723C344.002 207.527 345.227 211.179 346.897 214.645C348.502 217.977 351.833 220.814 352.699 224.374C353.252 226.642 352.942 229.833 352.181 232.052C351.255 234.75 351.747 234.537 353.592 236.8C357.208 241.236 360.463 245.786 362.766 251.084C366.082 258.715 368.256 267.635 367.025 275.989C366.869 277.049 366.683 280.856 365.222 281.122C363.591 281.42 364.354 279.242 364.441 278.539C364.996 274.052 365.489 270.129 364.82 265.572C362.236 247.988 349.621 236.403 341.408 221.479C340.956 220.709 340.003 218.876 339.34 217.667C338.294 215.759 337.242 212.127 335.825 210.711C333.157 208.045 335.61 213.405 336.13 214.429C336.787 215.723 337.51 217.099 338.184 218.233C341.265 223.491 344.705 229.23 347.888 234.65C334.123 237.786 324.428 221.238 320.735 210.358C317.691 201.394 314.05 180.437 328.231 179.67Z" fill="#69A1AC"/>
<path fill-rule="evenodd" clip-rule="evenodd" d="M409.133 163.024C399.042 163.825 392.564 170.483 389.549 179.796C387.923 184.815 387.737 189.971 386.834 195.129C385.475 202.888 382.552 208.769 376.839 214.297C375.069 216.009 373.765 217.767 372.838 219.648C370.998 221.526 369.396 223.651 368.219 226.249C366.716 229.567 366.291 233.548 368.026 236.855C368.493 237.745 369.657 239.53 370.864 240.341C366.346 249.962 363.862 260.499 364.142 271.022C364.312 277.375 364.622 283.73 364.984 290.074C365.081 291.778 365.636 294.591 366.469 291.734C367.232 289.121 366.275 285.018 366.187 282.288C365.756 268.988 365.388 256.896 370.863 244.47C371.437 243.167 372.046 241.875 372.68 240.594C372.717 240.572 372.751 240.546 372.786 240.521C372.811 240.54 372.833 240.56 372.857 240.578C372.897 240.506 372.953 240.42 373.017 240.324C373.199 240.136 373.358 239.899 373.509 239.634C373.995 238.961 374.544 238.171 374.547 237.738C374.547 237.735 374.545 237.729 374.545 237.726C377.934 232.194 381.816 226.966 385.782 221.841C385.752 221.878 390.083 215.981 389.413 219.242C389.09 220.814 385.905 223.806 384.618 225.471C381.772 229.174 378.43 233.866 375.653 238.403C375.279 238.618 374.751 239.672 374.369 240.458C374.158 240.856 373.962 241.257 373.768 241.606C383.609 244.858 391.264 238.309 396.484 230.691C396.49 230.682 396.496 230.673 396.501 230.664C398.09 228.559 399.717 226.469 401.75 224.806C405.141 222.029 408.773 221.539 412.772 220.173C423.677 216.447 428.313 202.315 429.786 191.829C431.447 179.998 423.321 161.857 409.133 163.024Z" fill="#89C5CC"/>
<path fill-rule="evenodd" clip-rule="evenodd" d="M389.202 129.894C378.845 140.673 373.842 155.623 369.88 169.678C365.455 185.376 362.532 201.316 362.42 217.637C362.346 228.36 362.055 239.15 362.681 249.86C362.903 253.664 363.282 257.475 363.885 261.238C363.934 261.547 365.283 269.949 366.574 267.991C367.308 266.878 365.191 259.275 365.031 258.009C364.132 250.877 363.922 243.692 363.966 236.509C364.038 224.682 363.69 212.915 364.889 201.131C365.067 199.372 365.209 197.524 365.627 195.802C366.07 193.973 365.505 194.771 366.95 194.047C368.355 193.343 370.09 193.443 371.547 192.56C377.327 189.055 380.284 180.052 382.585 174.146C385.217 167.391 386.817 160.188 388.095 153.079C389.033 147.856 389.703 142.665 390.083 137.375C390.203 135.708 390.21 133.964 390.537 132.325C390.626 131.883 391.069 131.101 391.052 130.709C391.018 129.88 390.518 129.393 390.477 128.696C390.044 129.086 389.618 129.486 389.202 129.894Z" fill="#89C5CC"/>
<path fill-rule="evenodd" clip-rule="evenodd" d="M332.73 273.505C332.73 291.33 347.181 305.78 365.006 305.78C382.832 305.78 397.282 291.33 397.282 273.505" fill="#89C5CC"/>
<path fill-rule="evenodd" clip-rule="evenodd" d="M387.123 245.245C395.112 244.656 404.032 251.101 407.885 257.807C410.992 263.214 410.468 270.314 408.55 276.059C407.265 279.905 404.461 285.388 399.785 285.442C393.935 285.508 393.653 278.278 393.539 274.051C393.389 268.431 392.679 263.536 388.251 259.705C387.704 259.232 387.13 258.79 386.557 258.347C386.047 257.954 385.538 257.561 385.048 257.148C384.97 257.081 384.891 257.015 384.812 256.949C383.246 255.633 381.602 254.25 381.402 252.081C381.111 248.937 382.886 248.372 385.595 248.956C385.683 248.975 385.92 249.065 386.243 249.187C387.627 249.711 390.579 250.831 390.021 249.493C389.811 248.989 389.042 248.589 388.073 248.29C385.564 248.017 382.572 247.701 381.712 247.89C372.429 249.926 368.814 262.785 367.855 270.955C367.751 271.836 367.667 272.721 367.594 273.607H365.889C366.007 271.467 366.163 269.331 366.521 267.215C367.889 259.123 372.167 247.238 381.549 245.924C381.895 245.875 383.169 245.867 384.711 245.957C385.442 245.549 386.261 245.302 387.123 245.245Z" fill="#69A1AC"/>
</g>
<g opacity="0.5">
<path fill-rule="evenodd" clip-rule="evenodd" d="M71.525 120.722C73.383 118.073 76.8309 111.344 79.446 110.398C81.1304 109.788 80.6393 116.095 80.6601 117.298C80.7411 121.951 80.2881 126.574 79.7287 131.188C78.7209 139.509 75.4255 146.92 70.9055 154.002C68.5797 157.646 65.8517 161.334 62.0732 163.608C60.334 164.655 58.2412 164.831 56.5236 165.733C54.5232 166.783 55.6126 165.934 54.7111 168.019C53.4592 170.913 53.0587 174.646 52.4795 177.734C49.8198 191.91 43.3809 266.848 44.4972 281.268C44.5963 282.546 42.8142 282.851 42.7252 281.291C42.2523 273.018 46.3442 215.727 48.4086 196.992C50.4729 178.256 52.562 161.704 54.6567 155.222C57.1979 147.358 61.7874 137.901 65.6079 130.567C67.3825 127.16 69.3168 123.87 71.525 120.722Z" fill="#69A1AC"/>
<path fill-rule="evenodd" clip-rule="evenodd" d="M85.3147 212.613C90.1495 209.063 95.3828 215.762 91.0078 219.312C88.5892 221.274 86.0607 220.576 84.6372 218.941C83.7132 220.067 82.8483 221.245 82.0173 222.24C79.4853 225.271 77.0921 228.375 74.805 231.551C70.0539 238.149 65.9822 245.12 61.725 251.963C57.5238 258.717 53.3561 265.505 49.5481 272.431C46.3222 278.298 42.0224 285.2 40.918 291.632C42.5937 277.991 48.9524 264.879 56.5245 252.853C64.035 240.925 72.6542 227.899 84.2832 218.487C83.0996 216.746 83.0668 214.262 85.3147 212.613Z" fill="#C1DEE2"/>
<path fill-rule="evenodd" clip-rule="evenodd" d="M-6.42852 179.343C-3.72298 179.872 0.697845 185.993 2.92802 188.324C5.57843 191.096 7.98301 194.049 10.2496 197.144C15.1291 203.805 19.493 210.887 23.2038 218.273C29.2533 230.313 34.0998 242.672 37.6171 255.783C39.7702 263.808 41.1642 272.126 41.9903 280.386C42.1464 281.944 43.7796 293.955 41.4262 294.278C39.3096 294.57 39.9633 285.159 39.8612 283.878C38.7069 269.436 35.2491 255.383 30.4392 241.771C29.3915 238.805 28.4182 235.173 26.7427 232.505C25.5362 230.582 26.7341 231.253 24.6137 230.525C22.793 229.9 20.7186 230.053 18.8542 229.288C14.8039 227.627 11.5609 224.403 8.71805 221.159C3.1935 214.856 -1.18442 208.037 -3.46645 199.96C-4.73236 195.481 -5.89567 190.977 -6.54124 186.36C-6.70823 185.167 -8.17114 179.002 -6.42852 179.343Z" fill="#69A1AC"/>
<path fill-rule="evenodd" clip-rule="evenodd" d="M4.24829 77.5126C14.4395 95.1867 22.8142 114.601 28.2218 134.265C31.4982 146.18 33.7895 158.405 36.066 170.543C39.5909 189.336 42.925 208.128 43.8733 227.255C44.8275 246.493 46.7142 268.682 40.4148 287.211C43.5614 268.399 40.5657 248.375 40.0352 229.446C39.7817 220.409 39.0472 211.461 38.0836 202.478C37.1486 193.763 35.621 185.09 34.1984 176.444C33.5055 172.233 32.7777 168.029 32.0368 163.827C31.8156 162.573 31.7221 158.853 30.9268 157.996C30.1264 157.134 26.0425 156.783 24.7603 156.15C22.1785 154.876 19.7499 153.066 17.6006 151.154C13.4803 147.489 9.89583 142.699 7.06669 137.978C0.520782 127.053 -2.09627 113.721 -1.96399 101.069C-1.93858 98.6123 2.01198 72.1601 0.425373 71.7958C0.5209 71.6839 0.611262 71.5684 0.696465 71.4482C1.89766 73.4594 3.07639 75.4842 4.24829 77.5126Z" fill="#89C5CC"/>
<path fill-rule="evenodd" clip-rule="evenodd" d="M114.246 141.256C114.403 141.029 115.427 139.452 114.911 139.553C115.96 139.347 113.468 141.292 116.082 140.099C114.841 141.271 115.557 142.794 115.574 144.372C115.601 146.934 115.172 149.475 114.69 151.982C113.927 155.944 112.792 159.797 111.143 163.483C107.55 171.515 101.448 179.247 94.2047 184.269C90.6288 186.748 87.1242 187.592 83.0458 188.734C80.4697 189.455 80.2654 190.787 78.898 193.287C76.0512 198.494 73.2551 203.682 70.7445 209.064C67.7467 215.491 64.8365 221.925 62.0913 228.465C52.8434 250.495 45.3164 273.318 41.3635 296.938C41.2667 283.019 44.4866 268.683 48.5483 255.416C51.507 245.75 55.3586 236.432 59.4668 227.208C60.4623 224.974 61.9708 222.099 62.3936 219.632C62.6896 217.904 61.7846 216.242 61.3703 214.421C59.7549 207.33 59.8705 199.386 61.289 192.257C62.8531 184.397 67.3763 180.748 75.0279 179.635C77.8262 179.228 81.383 179.377 83.9489 178.184C86.7444 176.884 87.8976 172.614 89.4873 169.872C93.757 162.508 98.8301 155.445 104.655 149.24C106.268 147.522 108.003 145.936 109.843 144.467C111.004 143.54 113.455 142.398 114.246 141.256Z" fill="#89C5CC"/>
<path fill-rule="evenodd" clip-rule="evenodd" d="M26.2603 284.438C26.0634 283.103 27.098 281.905 28.4473 281.905H55.6021C56.9514 281.905 57.986 283.103 57.7891 284.438L55.6903 298.67C55.0505 303.009 51.3276 306.223 46.9422 306.223H37.1072C32.7218 306.223 28.9989 303.009 28.3591 298.67L26.2603 284.438Z" fill="#C1DEE2"/>
</g>
<path fill-rule="evenodd" clip-rule="evenodd" d="M3.96582 289.181C3.96582 298.593 4.70856 306.223 14.6778 306.223C24.6471 306.223 25.3899 298.593 25.3899 289.181" fill="#F2F2F2"/>
<path fill-rule="evenodd" clip-rule="evenodd" d="M17.643 283.308C17.2775 283.94 16.9517 284.585 16.6639 285.239C16.6537 283.892 16.7282 282.535 16.9317 281.159C17.2794 278.803 17.8105 276.459 18.3095 274.118C18.6681 272.436 18.6455 269.416 20.0066 268.075C20.3799 267.786 20.4697 268.354 20.4697 268.6C20.4744 268.653 20.4687 267.594 20.1064 267.778C17.9529 268.891 17.2552 272.388 16.5657 274.139C15.5598 276.694 14.7039 279.307 14.3515 281.966C14.2625 282.638 14.214 283.309 14.2028 283.98C14.1296 283.8 14.0609 283.62 13.9848 283.441C12.7419 280.526 11.0645 277.681 8.97253 275.058C8.4576 274.413 1.98283 268.044 1.47598 269.019C1.52598 269.16 1.63069 269.278 1.79035 269.371C1.79973 269.382 1.79999 269.376 1.79452 269.36C2.17479 269.974 3.25596 270.923 3.59273 271.461C4.44027 272.816 5.09897 274.253 5.76835 275.663C7.18265 278.643 8.49459 281.653 9.76641 284.669C10.0626 285.371 10.3712 286.07 10.6861 286.766C7.43998 282.084 3.10958 277.833 -2.85156 275.4C-0.815548 276.436 0.519308 278.385 1.89428 279.877C3.55262 281.676 5.29927 283.428 6.96074 285.226C8.92044 287.346 11.2263 289.58 13.1112 291.926C14.9371 295.76 16.7113 299.597 17.8065 303.627C17.3578 302.234 17.7714 300.31 17.6945 298.849C17.6336 297.686 17.4976 296.533 17.3114 295.382C17.5417 295.901 17.7401 296.421 17.83 296.904C17.7479 296.093 17.6534 295.288 17.5518 294.486C17.8125 293.736 18.0686 293.036 18.2415 292.459C19.1279 289.5 20.1832 286.593 21.6205 283.759C22.9504 281.137 24.4759 278.549 26.1381 276.04C26.9135 274.87 27.6996 273.705 28.4807 272.537C28.992 271.773 29.4788 270.549 30.1906 269.817C25.5893 274.024 20.5622 278.261 17.643 283.308Z" fill="#F2F2F2"/>
<path fill-rule="evenodd" clip-rule="evenodd" d="M416.575 41.7484C415.256 37.3486 412.159 33.9049 408.944 30.7497C402.685 24.6072 399.319 20.8093 397.089 11.8239C395.777 6.53934 394.442 0.93935 390.281 -2.89464C387.252 -5.68663 382.038 -8.0324 377.987 -6.03311C371.754 -2.31298 370.08 5.32135 370.709 12.1574C371.488 20.6303 375.446 25.8546 383.049 28.9754C387.333 30.733 390.181 33.0521 392.507 37.0933C394.367 40.3246 395.451 44.371 397.789 47.3004C401.284 51.6793 405.657 53.626 411.048 52.8986C405.999 43.6087 400.099 34.2315 392.984 26.4098C392.318 25.6234 388.389 22.6136 389.182 21.2734C390.055 19.7978 394.088 25.3408 394.059 25.3073C396.127 27.6809 398.04 30.2033 399.919 32.7498C399.915 32.7523 399.909 32.7537 399.904 32.7563C401.838 35.3694 403.757 38.0209 405.64 40.7058C406.401 41.8415 407.142 42.9916 407.852 44.1707C408.893 45.9007 410.545 50.811 412.249 51.8749C412.613 52.1023 412.95 52.2295 413.265 52.2819C414.427 54.185 415.558 56.1034 416.634 58.0444C419.443 63.1139 421.854 68.4667 422.96 74.1902C423.283 75.8607 423.055 82.1096 424.195 83.3155C426.28 85.5214 425.669 81.2736 425.545 79.9915C424.509 69.3742 420.697 60.3289 415.163 51.403C416.863 49.1826 417.109 43.5311 416.575 41.7484Z" fill="#F2F2F2"/>
<path fill-rule="evenodd" clip-rule="evenodd" d="M345.168 46.8785C347.366 44.2888 352.649 43.8494 355.881 44.0228C359.879 44.2372 363.987 45.2106 367.791 46.3876C374.057 48.3262 380.147 51.864 385.666 55.2883C386.331 55.7009 394.525 60.6287 393.8 61.4935C393.081 62.3503 385.037 56.4968 383.244 55.4879C379.419 53.3345 375.91 50.7878 371.693 49.3657C367.327 47.8929 362.709 47.3098 358.118 47.35C357.529 47.3553 355.606 46.9444 355.565 47.8162C355.524 48.6688 358.705 48.224 359.266 48.2291C361.582 48.2504 363.913 48.4684 366.196 48.8698C370.475 49.6218 374.497 51.1369 378.161 53.4606C377.139 55.8379 374.688 56.934 372.116 56.3392C369.894 55.8247 367.728 54.5564 365.552 54.1897C364.053 53.9372 362.553 54.0874 361.1 54.5096C357.266 55.6236 355.056 57.9058 350.841 56.3183C347.537 55.0739 342.011 50.6028 345.168 46.8785Z" fill="#F2F2F2"/>
<path fill-rule="evenodd" clip-rule="evenodd" d="M335.718 5.15035C330.837 4.79441 325.387 8.6894 323.033 12.7427C321.135 16.0107 321.455 20.3021 322.627 23.7741C323.412 26.0985 325.125 29.4126 327.982 29.4449C331.556 29.4853 331.729 25.1152 331.798 22.5604C331.89 19.1638 332.323 16.205 335.029 13.8898C335.363 13.6041 335.713 13.3366 336.064 13.0691C336.375 12.8316 336.686 12.5942 336.985 12.3441C337.033 12.3041 337.081 12.2641 337.13 12.224C338.086 11.4286 339.091 10.5931 339.213 9.28203C339.391 7.38196 338.307 7.04003 336.651 7.39303C336.598 7.4044 336.453 7.4588 336.255 7.53278C335.41 7.84976 333.606 8.52619 333.947 7.71757C334.076 7.4129 334.545 7.17147 335.138 6.99056C336.67 6.82569 338.498 6.6344 339.024 6.74868C344.695 7.97956 346.903 15.7512 347.49 20.689C347.556 21.2481 347.609 21.8091 347.656 22.3709H348.695C348.622 21.0513 348.528 19.7339 348.305 18.4291C347.469 13.5381 344.855 6.35457 339.123 5.56072C338.912 5.53113 338.134 5.52616 337.191 5.58082C336.745 5.33396 336.245 5.18468 335.718 5.15035Z" fill="#F2F2F2"/>
<path fill-rule="evenodd" clip-rule="evenodd" d="M122.796 183.566C126.012 185.506 129.173 186.444 130.656 186.061C134.376 185.102 134.718 171.485 131.84 166.116C128.962 160.748 114.166 158.408 113.42 169.045C113.162 172.736 114.71 176.03 116.998 178.718L112.895 197.859H124.815L122.796 183.566Z" fill="#B28B67"/>
<path fill-rule="evenodd" clip-rule="evenodd" d="M132.965 168.527C132.847 167.831 132.558 167.058 132.325 166.4C132.025 165.551 131.571 164.786 131.071 164.065C130.13 162.707 129.001 161.481 127.754 160.463C125.477 158.605 122.578 157.532 119.728 157.881C118.288 158.056 116.891 158.606 115.702 159.52C114.628 160.346 113.594 161.562 112.203 161.65C110.69 161.745 109.302 160.408 108.088 159.582C106.719 158.651 105.263 157.973 103.663 157.709C100.983 157.268 98.4658 158.174 96.6188 160.374C94.6533 162.716 93.2246 166.149 94.5153 169.252C94.7552 169.828 95.0639 170.315 95.5069 170.718C95.9131 171.087 96.5336 171.48 96.6983 172.071C96.8732 172.698 96.3506 173.508 96.1479 174.074C95.8576 174.886 95.6192 175.737 95.704 176.619C95.8432 178.067 96.7527 179.45 97.7131 180.402C98.6904 181.37 99.8932 181.926 101.178 182.182C102.036 182.353 102.912 182.447 103.784 182.383C104.217 182.351 104.599 182.231 105.018 182.135C105.426 182.042 105.654 182.151 106 182.374C107.607 183.414 109.335 183.816 111.191 183.662C112.758 183.531 114.563 183.151 115.841 182.077C117.26 180.885 117.231 179.24 116.897 177.483C117.251 177.658 118.23 177.767 117.645 177.068C117.413 176.791 116.976 176.678 116.678 176.515C116.332 176.325 115.981 176.08 115.712 175.771C114.627 174.522 115.723 171.979 117.087 171.56C119.114 170.938 119.567 173.806 121.014 174.548C121.846 174.974 122.716 174.391 123.339 173.796C124.174 172.998 124.743 171.942 125.234 170.867C125.639 169.981 126.015 169.083 126.428 168.202C126.62 167.791 127.287 166.628 126.952 166.163C128.404 165.873 130.021 166.477 131.271 167.268C131.788 167.596 132.181 167.956 132.457 168.534C132.516 168.658 132.645 169.026 132.806 169.041C133.107 169.069 132.994 168.702 132.965 168.527Z" fill="#191847"/>
<path fill-rule="evenodd" clip-rule="evenodd" d="M82.7207 260.483C78.8137 260.483 75.6465 263.65 75.6465 267.557V315.038C75.6465 318.945 78.8137 322.113 82.7207 322.113H141.582C145.489 322.113 148.656 318.945 148.656 315.038V267.557C148.656 263.65 145.489 260.483 141.582 260.483H82.7207ZM91.3206 274.399C90.3439 274.399 89.552 275.191 89.552 276.168V306.428C89.552 307.404 90.3439 308.196 91.3206 308.196H132.98C133.957 308.196 134.749 307.404 134.749 306.428V276.168C134.749 275.191 133.957 274.399 132.98 274.399H91.3206Z" fill="#C5CFD6"/>
<path fill-rule="evenodd" clip-rule="evenodd" d="M197.902 319.628C188.11 307.662 181.484 298.79 178.025 293.014C172.102 283.124 167.255 274.324 165.725 270.962C162.077 262.946 174.123 259.192 176.849 262.931C180.976 268.59 189.788 286.399 203.286 316.356L197.902 319.628Z" fill="#B28B67"/>
<path fill-rule="evenodd" clip-rule="evenodd" d="M177.835 316.148L159.611 270.243C155.713 261.874 174.536 256.373 177.401 260.268C183.904 269.11 199.361 303.989 201.299 306.623L177.835 316.148Z" fill="#2F3676"/>
<path fill-rule="evenodd" clip-rule="evenodd" d="M129.302 306.942C132.852 301.76 145.764 284.327 152.797 277.113C154.818 275.041 156.79 273.051 158.655 271.197C164.199 265.686 175.239 274.949 169.705 279.968C155.924 292.468 135.817 309.343 134.137 310.847C131.783 312.956 127.071 310.199 129.302 306.942Z" fill="#B28B67"/>
<path fill-rule="evenodd" clip-rule="evenodd" d="M131.53 304.713C131.226 304.294 130.633 304.195 130.236 304.527C129.423 305.206 128.181 306.312 127.743 307.07C127.072 308.234 126.171 310.692 126.171 310.692C127.52 311.472 150.431 324.708 150.431 324.708C150.431 324.708 153.181 322.126 151.288 320.7C149.394 319.273 148.163 318.293 148.163 318.293L139.756 306.703C139.61 306.501 139.326 306.46 139.129 306.612L137.344 307.987C137.344 307.987 134.95 307.778 133.771 307.097C133.023 306.665 132.103 305.505 131.53 304.713Z" fill="#E4E4E4"/>
<path fill-rule="evenodd" clip-rule="evenodd" d="M194.957 317.236C194.485 317.024 193.921 317.236 193.743 317.722C193.378 318.717 192.855 320.296 192.855 321.171C192.855 322.515 193.303 325.095 193.303 325.095C194.862 325.095 221.316 325.095 221.316 325.095C221.316 325.095 222.408 321.482 220.055 321.194C217.703 320.906 216.147 320.674 216.147 320.674L203.075 314.843C202.848 314.741 202.581 314.848 202.487 315.078L201.628 317.162C201.628 317.162 199.45 318.179 198.089 318.179C197.226 318.179 195.849 317.634 194.957 317.236Z" fill="#E4E4E4"/>
<path fill-rule="evenodd" clip-rule="evenodd" d="M153.054 272.535C153.054 272.535 130.334 268.832 122.617 267.47C107.954 264.883 103.678 256.987 106.207 239.758L133.223 239.758C138.586 241.308 178.039 258.928 178.039 258.928C182.771 261.279 181.89 268.21 181.025 270.494C180.972 270.633 157.092 311.533 157.092 311.533L134.991 297.444L153.095 274.196C153.095 274.196 153.813 272.75 153.054 272.535Z" fill="#5C63AB"/>
<path fill-rule="evenodd" clip-rule="evenodd" d="M80.8105 261.431C82.2659 258.476 89.5378 220.448 89.5378 220.448L100.414 220.489C100.414 220.489 87.9886 260.772 87.2224 262.672C86.2272 265.14 87.9178 268.727 89.0642 271.158C89.2415 271.535 89.4058 271.883 89.5452 272.196C87.9545 272.908 87.1904 272.047 86.3848 271.139C85.475 270.114 84.5122 269.029 82.2458 270.085C81.3702 270.492 80.5416 270.974 79.7321 271.445C76.9359 273.072 74.3672 274.566 70.8727 272.408C70.3187 272.066 69.7116 270.778 71.1784 269.772C74.8328 267.264 80.0989 262.875 80.8105 261.431ZM172.407 246.613L158.338 232.878L153.664 240.97L168.295 249.602C171.963 255.384 174.118 257.883 174.759 257.097C175.299 256.435 175.051 255.709 174.823 255.041C174.645 254.52 174.48 254.033 174.707 253.639C175.227 252.739 178.165 253.254 180.931 253.863C183.698 254.472 183.058 253.112 182.47 252.402C179.855 250.29 176.501 248.361 172.407 246.613Z" fill="#B28B67"/>
<path fill-rule="evenodd" clip-rule="evenodd" d="M122.675 189.574L126.97 188.837C133.735 212.769 168.496 229.083 170.63 238.029C171.413 241.31 169.053 242.969 170.272 243.968L164.69 248.057C163.744 246.954 161.727 248.972 157.514 247.56C153.301 246.148 122.675 217.912 122.675 189.574Z" fill="#FF9533"/>
<path fill-rule="evenodd" clip-rule="evenodd" d="M114.82 184.563C113.845 184.495 113 185.229 112.932 186.204L112.714 189.334C104.631 195.559 84.5989 214.158 79.3788 248.781C78.8305 252.418 79.8221 254.367 80.6145 255.923C81.1565 256.988 81.6052 257.869 81.404 258.983L88.7097 261.001C88.7097 260.179 89.6305 259.553 90.8184 258.746C92.5457 257.573 94.8378 256.016 95.6854 252.912C96.4886 249.97 97.6649 246.296 99.0701 242.208C99.2029 247.622 100.229 252.6 102.464 256.724C108.04 267.013 140.265 255.729 143.631 245.233C145.428 239.632 142.879 234.93 139.507 228.711C135.228 220.817 129.623 210.479 129.9 192.758L130.273 187.417C130.341 186.443 129.607 185.597 128.632 185.529L114.82 184.563Z" fill="#FFAA5C"/>
<path fill-rule="evenodd" clip-rule="evenodd" d="M262.795 152.205C259.574 154.146 256.41 155.083 254.925 154.701C251.199 153.74 250.857 140.113 253.739 134.74C256.622 129.368 271.439 127.026 272.186 137.67C272.446 141.365 270.894 144.663 268.601 147.353L272.711 166.507H260.773L262.795 152.205Z" fill="#B28B67"/>
<path fill-rule="evenodd" clip-rule="evenodd" d="M254.518 132.657C254.623 132.008 254.416 131.689 257.026 129.86C259.636 128.032 263.85 125.875 268.095 126.813C273.603 128.032 275.791 131.665 277.915 133.431C279.83 135.024 281.751 135.21 282.89 137.186C284.028 139.161 284.634 144.846 283.644 147.106C282.278 150.224 279.585 151.064 277.619 151.962C274.247 153.502 269.481 151.875 269.365 151.606C268.472 149.521 263.665 143.64 260.774 141.17C258.647 139.353 254.027 135.704 254.518 132.657Z" fill="#5C63AB"/>
<mask id="mask1" mask-type="alpha" maskUnits="userSpaceOnUse" x="254" y="126" width="31" height="27">
<path fill-rule="evenodd" clip-rule="evenodd" d="M254.518 132.657C254.623 132.008 254.416 131.689 257.026 129.86C259.636 128.032 263.85 125.875 268.095 126.813C273.603 128.032 275.791 131.665 277.915 133.431C279.83 135.024 281.751 135.21 282.89 137.186C284.028 139.161 284.634 144.846 283.644 147.106C282.278 150.224 279.585 151.064 277.619 151.962C274.247 153.502 269.481 151.875 269.365 151.606C268.472 149.521 263.665 143.64 260.774 141.17C258.647 139.353 254.027 135.704 254.518 132.657Z" fill="white"/>
</mask>
<g mask="url(#mask1)">
<path fill-rule="evenodd" clip-rule="evenodd" d="M254.201 174.379C267.112 158.456 270.15 139.253 270.15 139.253L274.039 141.713C274.039 141.713 269.256 162.698 254.201 174.379ZM249.289 183.128C270.183 164.769 275.166 144.138 275.166 144.138L279.664 145.464C279.664 145.464 273.465 168.535 249.289 183.128Z" fill="black" fill-opacity="0.2"/>
</g>
<path fill-rule="evenodd" clip-rule="evenodd" d="M280.654 208.51L261.964 269.732L252.91 321.796H245.812L255.378 208.51H280.654Z" fill="#997659"/>
<path fill-rule="evenodd" clip-rule="evenodd" d="M287.339 208.51C286.069 242.124 287.563 259.463 287.847 262.517C288.131 265.571 292.022 285.373 301.232 322.821L293.668 320.218C279.112 285.872 274.152 268.022 272.482 263.512C270.813 259.002 266.378 240.668 259.18 208.51H287.339Z" fill="#B28B67"/>
<path fill-rule="evenodd" clip-rule="evenodd" d="M299.905 319.577C300.378 319.365 300.942 319.576 301.12 320.063C301.485 321.059 302.008 322.64 302.008 323.517C302.008 324.863 301.56 327.445 301.56 327.445C300.002 327.445 273.547 327.445 273.547 327.445C273.547 327.445 272.455 323.828 274.808 323.54C277.161 323.251 278.717 323.019 278.717 323.019L291.788 317.181C292.015 317.079 292.282 317.186 292.377 317.416L293.235 319.502C293.235 319.502 295.413 320.52 296.775 320.52C297.637 320.52 299.013 319.976 299.905 319.577Z" fill="#E4E4E4"/>
<path fill-rule="evenodd" clip-rule="evenodd" d="M253.222 319.577C253.695 319.365 254.258 319.576 254.437 320.063C254.801 321.059 255.324 322.64 255.324 323.517C255.324 324.863 254.877 327.445 254.877 327.445C253.318 327.445 226.864 327.445 226.864 327.445C226.864 327.445 225.772 323.828 228.124 323.54C230.477 323.251 232.033 323.019 232.033 323.019L245.104 317.181C245.332 317.079 245.598 317.186 245.693 317.416L246.551 319.502C246.551 319.502 248.729 320.52 250.091 320.52C250.954 320.52 252.33 319.976 253.222 319.577Z" fill="#E4E4E4"/>
<path fill-rule="evenodd" clip-rule="evenodd" d="M283.137 208.51L275.19 239.702H250.918L254.537 208.51H283.137Z" fill="#69A1AC"/>
<path fill-rule="evenodd" clip-rule="evenodd" d="M287.606 208.51C291.529 220.29 289.096 239.702 289.096 239.702H264.328L257.517 208.51H287.606Z" fill="#89C5CC"/>
<path fill-rule="evenodd" clip-rule="evenodd" d="M212.051 158.921L231.507 161.892L227.855 170.488L212.14 164.001C205.307 164.55 202.012 164.333 202.254 163.349C202.458 162.52 203.187 162.281 203.859 162.061C204.382 161.889 204.871 161.729 205.049 161.31C205.455 160.354 203.273 158.319 201.12 156.476C198.967 154.634 200.44 154.327 201.361 154.37C204.625 155.187 208.188 156.704 212.051 158.921ZM223.682 208.243L237.775 194.518L242.453 202.6L227.799 211.227C224.124 217.005 221.965 219.502 221.324 218.717C220.783 218.056 221.031 217.331 221.26 216.662C221.438 216.142 221.604 215.656 221.376 215.263C220.856 214.363 217.914 214.879 215.143 215.488C212.373 216.096 213.014 214.738 213.603 214.028C216.222 211.918 219.582 209.99 223.682 208.243Z" fill="#B28B67"/>
<path fill-rule="evenodd" clip-rule="evenodd" d="M257.823 160.072C251.505 177.2 240.848 191.146 224.694 206.358L232.56 213.048C251.544 202.804 261.484 196.836 264.56 181.06C265.332 177.101 264.55 164.934 264.441 158.491L257.823 160.072Z" fill="#2026A2"/>
<path fill-rule="evenodd" clip-rule="evenodd" d="M289.198 209.769L251.271 215.1C251.271 215.1 258.644 174.056 256.868 159.396C256.808 158.898 257.604 157.893 258.027 157.95C262.666 158.581 267.444 155.667 267.444 155.667C278.464 168.839 284.071 186.174 289.198 209.769Z" fill="#F2F2F2"/>
<path fill-rule="evenodd" clip-rule="evenodd" d="M261.025 179.028C258.666 205.224 261.857 225.949 274.935 224.111L295.158 221.269C295.342 199.271 282.702 170.582 272.758 156.614C272.378 156.08 271.59 155.085 270.091 155.295L264.215 156.121C264.213 156.129 264.212 156.138 264.21 156.146C262.444 156.409 260.506 156.747 258.407 157.113C247.601 158.999 232.534 161.628 214.733 158.563L214.133 168.863C230.894 176.572 247.536 182.03 261.025 179.028Z" fill="#1F28CF"/>
</svg>
