<svg width="414" height="347" viewBox="0 0 414 347" fill="none" xmlns="http://www.w3.org/2000/svg">
<mask id="mask0" mask-type="alpha" maskUnits="userSpaceOnUse" x="0" y="0" width="414" height="347">
<path d="M0 0H414V341.619C414 344.11 411.842 346.129 409.179 346.129H4.82096C2.15842 346.129 0 344.11 0 341.619V0Z" fill="#F5F5F5"/>
</mask>
<g mask="url(#mask0)">
<rect width="414" height="346.13" fill="#F7F7F7"/>
<mask id="mask1" mask-type="alpha" maskUnits="userSpaceOnUse" x="0" y="0" width="414" height="347">
<rect width="414" height="346.13" fill="#F5F5F5"/>
</mask>
<g mask="url(#mask1)">
<path fill-rule="evenodd" clip-rule="evenodd" d="M-28.0054 247.092C-15.8859 200.235 106.749 226.929 187.148 212.442C267.546 197.956 362.664 130.492 425.615 163.539C488.565 196.587 421.587 276.472 277.205 294.5C132.823 312.527 -40.125 293.949 -28.0054 247.092Z" fill="#F2F2F2"/>
<g opacity="0.5">
<path fill-rule="evenodd" clip-rule="evenodd" d="M76.1633 44.9963C75.4097 45.7487 75.7024 48.4227 75.6866 49.4123C75.6624 50.9529 75.7582 52.4797 75.887 54.0147C75.9733 55.0425 76.4598 64.8507 77.8135 64.0974C78.5767 63.673 78.0983 60.8357 78.0969 59.9382C78.0938 57.9431 78.0108 55.9528 77.8778 53.9621C77.7541 52.1139 77.6765 50.2873 77.7477 48.4356C77.765 47.9837 78.1879 42.968 76.1633 44.9963Z" fill="#89C5CC"/>
<path fill-rule="evenodd" clip-rule="evenodd" d="M108.981 43.7872C102.506 43.8388 96.0349 44.1581 89.5638 44.3538C86.4499 44.4479 83.338 44.5676 80.2275 44.7402C79.1676 44.799 76.8943 44.4597 76.0112 45.0244C74.0509 46.2783 77.2123 46.5715 78.0552 46.5408C90.8615 46.0764 103.672 45.4648 116.49 45.436C122.777 45.422 129.061 45.601 135.349 45.5608C137.753 45.5454 140.415 44.5099 141.022 47.3076C141.707 50.4647 140.92 53.9798 140.705 57.1522C140.562 59.27 140.613 61.3438 140.709 63.4598C140.77 64.8153 140.611 66.3428 140.85 67.6731C141.081 68.954 142.002 69.7222 142.846 68.2873C143.35 67.4299 143.099 65.3128 143.133 64.3194C143.178 62.9816 143.135 61.6443 143.135 60.3062C143.135 57.0403 143.596 53.7873 143.535 50.522C143.496 48.4165 143.384 44.5994 140.728 44.0935C137.804 43.5363 134.209 44.0966 131.217 44.0624C123.801 43.9778 116.399 43.7293 108.981 43.7872Z" fill="#89C5CC"/>
<path fill-rule="evenodd" clip-rule="evenodd" d="M91.1423 64.2147C88.7011 64.2147 86.2596 64.2294 83.8186 64.2698C81.725 64.3044 78.4334 63.8681 76.4849 64.6171C75.1509 65.1299 74.7966 66.6192 76.4849 67.0158C78.3262 67.4487 81.1013 66.7411 83.0278 66.7071C92.6883 66.5366 102.442 66.3143 112.089 66.9252C121.128 67.4975 130.341 68.0525 139.394 67.4484C140.156 67.3976 144.04 67.243 142.268 65.7868C141.234 64.9369 137.042 65.4959 135.698 65.4553C130.958 65.3122 126.213 65.2805 121.474 65.1008C116.797 64.9234 112.141 64.3975 107.462 64.2674C102.027 64.1161 96.5796 64.2147 91.1423 64.2147Z" fill="#89C5CC"/>
<path fill-rule="evenodd" clip-rule="evenodd" d="M88.6997 50.3294C92.5047 50.4955 96.2693 56.0138 92.4193 58.6807C88.8076 61.1831 82.0387 58.4407 84.047 53.5882C83.7583 54.2898 84.4121 52.826 84.4203 52.8163C84.8022 52.3663 85.488 51.8682 85.9587 51.5135C86.4974 51.1076 87.0584 50.6608 87.7079 50.4573C88.1343 50.3239 88.0674 50.8262 88.6997 50.3294ZM86.8466 48.3391C85.0657 49.0344 84.2529 49.8188 83.0291 51.2382C82.1823 52.2204 81.1028 52.7372 81.1124 54.0646C81.1144 54.3584 81.4918 54.6813 81.557 54.9642C81.6471 55.3553 81.5428 55.8563 81.6142 56.2718C82.3509 60.5593 87.4665 62.0048 91.211 61.1953C94.4728 60.4902 96.9123 57.3591 96.1566 53.9544C95.3959 50.527 90.3135 46.9831 86.8466 48.3391Z" fill="#89C5CC"/>
<path fill-rule="evenodd" clip-rule="evenodd" d="M85.2598 54.3245C85.2598 55.8669 87.6961 55.8669 87.6961 54.3245C87.6961 52.7997 85.2598 52.7342 85.2598 54.3245Z" fill="#89C5CC"/>
<path fill-rule="evenodd" clip-rule="evenodd" d="M88.3086 54.0122C88.3086 55.2379 90.2445 55.2379 90.2445 54.0122C90.2445 52.8006 88.3086 52.7488 88.3086 54.0122Z" fill="#89C5CC"/>
<path fill-rule="evenodd" clip-rule="evenodd" d="M88.9087 56.5399C88.2888 56.7782 87.5025 56.2841 86.9936 56.6097C86.0922 57.1866 86.9958 57.7087 87.4789 57.9406C89.6541 58.9844 90.0412 56.1062 88.9087 56.5399Z" fill="#89C5CC"/>
<path fill-rule="evenodd" clip-rule="evenodd" d="M122.128 53.1217C122.064 53.1493 121.832 53.2472 122.128 53.1217V53.1217ZM112.656 51.7372C111.028 52.1047 109.653 53.6251 107.884 53.4216C106.529 53.2657 105.611 51.9577 104.273 51.7676C102.561 51.5242 97.902 55.4292 100.351 56.0993C101.781 56.4903 102.573 53.8787 103.836 53.7399C104.835 53.6302 106.193 54.8549 107.228 55.0293C109.159 55.3546 110.485 54.2911 112.179 53.6053C114.021 52.86 115.069 53.5311 116.671 54.3595C117.935 55.0133 119.126 55.439 120.573 55.1692C121.93 54.9162 123.636 53.52 125.003 53.6633C126.341 53.8036 127.297 55.2005 128.674 55.3302C129.241 55.3835 130.086 55.5769 129.991 54.701C129.915 53.9997 129.132 54.1185 128.642 53.8636C127.383 53.208 126.206 52.0467 124.686 52.1458C123.544 52.2204 122.503 53.0235 121.45 53.4076C118 54.6657 116.061 50.9734 112.656 51.7372Z" fill="#89C5CC"/>
<path fill-rule="evenodd" clip-rule="evenodd" d="M115.537 73.9522C108.883 74.0132 102.206 74.1121 95.571 74.6455C93.998 74.7719 77.9354 76.2884 77.9659 76.3977C78.0221 76.5998 80.0881 76.9085 80.0752 76.9562C79.936 76.6109 79.6177 76.4679 79.1205 76.5276C94.3545 76.5276 109.54 75.1636 124.794 75.409C128.627 75.4705 132.474 75.4448 136.305 75.5656C137.261 75.5958 139.63 76.2811 140.381 75.8494C142.352 74.7161 138.771 74.5853 138.178 74.5378C130.672 73.9373 123.065 73.8771 115.537 73.9522Z" fill="#69A1AC"/>
<path fill-rule="evenodd" clip-rule="evenodd" d="M75.994 77.1852C74.9993 78.1825 75.9153 81.7704 75.9544 83.1189C76.0112 85.0686 75.9644 87.032 76.1355 88.9765C76.3308 91.1977 76.6338 93.5642 77.2165 95.7193C77.5375 96.9065 78.6642 98.7933 79.1106 96.636C79.4293 95.0952 78.9453 93.0512 78.7769 91.4816C78.5516 89.3818 78.4971 87.3096 78.4887 85.1996C78.4811 83.361 78.4457 81.5148 78.2949 79.682C78.2166 78.7304 77.7379 75.4505 75.994 77.1852Z" fill="#69A1AC"/>
<path fill-rule="evenodd" clip-rule="evenodd" d="M101.021 95.4574C96.2993 95.5385 91.5672 95.6497 86.8533 95.9446C84.9212 96.0657 82.9907 96.2458 81.0657 96.4501C80.6729 96.4916 76.3252 96.6682 78.2679 98.2727C79.1448 98.9971 82.7518 97.9956 83.9432 97.8912C85.9469 97.7155 87.9501 97.6014 89.9596 97.5163C94.6157 97.3187 99.286 97.1441 103.947 97.2249C112.458 97.3726 120.915 97.4386 129.43 97.2487C130.639 97.2218 140.116 97.475 140.438 96.2165C140.697 95.2022 137.308 95.6675 136.69 95.6859C134.424 95.7537 132.157 95.7379 129.889 95.7263C120.282 95.677 110.62 95.2951 101.021 95.4574Z" fill="#69A1AC"/>
<path fill-rule="evenodd" clip-rule="evenodd" d="M138.834 75.5022C138.984 79.7064 139.7 83.9057 139.929 88.1225C140.033 90.0502 140.156 91.9761 140.251 93.9044C140.281 94.5264 140.03 96.0253 140.766 96.383C141.775 96.8738 141.911 95.8849 142.1 95.216C142.645 93.2839 142.276 90.7742 142.227 88.7897C142.179 86.8678 142.176 84.9426 142.034 83.0243C141.889 81.0644 141.494 79.1416 141.311 77.1887C141.234 76.3627 141.504 74.9883 140.627 74.4757C139.87 74.0327 138.801 74.591 138.834 75.5022Z" fill="#69A1AC"/>
<path fill-rule="evenodd" clip-rule="evenodd" d="M92.4226 82.4958C92.4406 82.5096 92.4584 82.5236 92.4763 82.5376C92.4584 82.5236 92.4404 82.5098 92.4226 82.4958ZM88.4095 81.2501C89.9058 81.6776 91.1348 81.5181 92.5642 82.6074C93.7491 83.5106 94.9645 84.832 95.3575 86.2924C96.2655 89.6664 93.1872 91.5155 90.3013 91.5519C87.3453 91.589 82.97 90.9034 83.1215 87.1145C83.2376 84.2035 85.3632 81.3631 88.4095 81.2501ZM88.5149 79.3433C84.6347 79.5366 81.5048 83.894 81.5384 87.5619C81.5788 92.0072 86.6159 93.1525 90.194 93.1834C94.2324 93.218 98.2594 90.4296 97.1772 85.8883C96.3101 82.2497 92.2462 79.1495 88.5149 79.3433Z" fill="#69A1AC"/>
<path fill-rule="evenodd" clip-rule="evenodd" d="M84.6113 85.3122C84.6113 86.5519 86.5699 86.5519 86.5699 85.3122C86.5699 84.0868 84.6113 84.0341 84.6113 85.3122Z" fill="#69A1AC"/>
<path fill-rule="evenodd" clip-rule="evenodd" d="M88.7197 84.7682C88.7197 86.0176 90.6939 86.0176 90.6939 84.7682C90.6939 83.533 88.7197 83.4799 88.7197 84.7682Z" fill="#69A1AC"/>
<path fill-rule="evenodd" clip-rule="evenodd" d="M86.4558 87.5956C85.1811 88.8683 89.6594 91.0996 90.7155 89.3289C91.583 87.8747 89.6943 88.3569 89.0248 88.2783C88.2972 88.1925 87.0498 87.0033 86.4558 87.5956Z" fill="#69A1AC"/>
<path fill-rule="evenodd" clip-rule="evenodd" d="M122.262 84.7941C122.139 84.8456 122.139 84.8456 122.262 84.7941V84.7941ZM105.443 82.7218C104.153 82.9639 99.9165 84.393 99.8594 85.9245C99.7548 88.708 103.903 85.857 104.804 85.4907C107.252 84.4963 108.538 86.525 110.996 86.632C113.131 86.7251 115.094 84.8978 117.106 85.1139C119.213 85.3402 120.227 87.5821 122.659 86.3917C123.946 85.7621 123.914 84.7914 122.469 84.6999C121.596 84.6446 120.996 85.0055 120.086 84.6297C118.662 84.0426 118.088 83.0863 116.384 83.2382C115.099 83.3528 113.937 84.0774 112.682 84.3579C109.808 84.9999 108.214 82.2028 105.443 82.7218Z" fill="#69A1AC"/>
<path fill-rule="evenodd" clip-rule="evenodd" d="M132.174 86.0025C132.085 86.0399 132.085 86.0399 132.174 86.0025V86.0025ZM132.5 84.8435C132.514 84.8498 132.612 84.985 132.5 84.8435V84.8435ZM131.021 83.9588C130.965 84.0017 130.965 84.0017 131.021 83.9588V83.9588ZM131.052 83.9478C131.339 84.1195 133.646 85.6969 131.971 86.0685C131.12 86.257 130.416 84.5454 131.052 83.9478ZM130.289 82.2002C126.593 83.8851 130.57 89.9146 133.47 87.4648C134.69 86.4339 134.851 84.3504 133.664 83.2764C132.952 82.6328 131.254 81.7591 130.289 82.2002Z" fill="#69A1AC"/>
<path fill-rule="evenodd" clip-rule="evenodd" d="M95.5991 105.96C90.9879 105.962 86.3364 105.865 81.7315 106.138C80.9565 106.184 78.0043 106.037 77.605 106.847C76.8746 108.329 79.9122 107.593 80.3535 107.549C89.5223 106.631 99.1 107.159 108.299 107.421C115.823 107.634 123.306 107.767 130.82 108.155C132.796 108.257 134.769 108.37 136.743 108.489C137.386 108.527 139.005 108.954 139.141 107.926C139.266 106.975 137.247 107.19 136.742 107.163C132.73 106.952 128.72 106.731 124.709 106.505C115.054 105.961 105.269 105.959 95.5991 105.96Z" fill="#89C5CC"/>
<path fill-rule="evenodd" clip-rule="evenodd" d="M77.4573 107.608C76.596 108.464 76.9998 111.734 76.9757 112.814C76.9337 114.704 76.8445 116.592 76.8045 118.482C76.7629 120.457 76.8207 122.44 76.9375 124.412C76.9864 125.24 77.666 129.242 78.7359 126.952C79.2139 125.928 78.7243 123.078 78.7317 121.919C78.7448 119.809 78.8584 117.707 78.9634 115.6C79.0537 113.788 79.0571 111.975 79.1363 110.163C79.1614 109.586 79.2297 105.83 77.4573 107.608Z" fill="#89C5CC"/>
<path fill-rule="evenodd" clip-rule="evenodd" d="M139.917 124.489C135.429 124.949 130.87 124.732 126.365 125.071C122.483 125.364 118.604 125.484 114.712 125.566C105.899 125.752 97.07 125.934 88.282 126.668C86.2792 126.835 84.2788 127.013 82.2707 127.103C81.2664 127.148 77.0521 126.691 76.7382 127.749C76.2037 129.552 80.7105 128.839 81.6825 128.811C83.8201 128.749 85.9478 128.594 88.0794 128.432C97.04 127.749 106.035 127.545 115.015 127.261C119.898 127.107 124.748 126.75 129.621 126.425C132.05 126.263 134.485 126.258 136.914 126.101C137.549 126.059 139.799 126.14 140.256 125.629C140.57 125.278 140.649 124.421 139.917 124.489Z" fill="#89C5CC"/>
<path fill-rule="evenodd" clip-rule="evenodd" d="M138.396 107.915C138.55 112.218 138.793 116.518 138.938 120.821C138.982 122.116 138.591 124.435 139.311 125.576C140.47 127.411 141.375 125.469 141.587 124.326C142.257 120.717 141.536 116.73 141.349 113.099C141.278 111.713 141.708 108.63 141.039 107.39C140.401 106.209 138.339 106.328 138.396 107.915Z" fill="#89C5CC"/>
<path fill-rule="evenodd" clip-rule="evenodd" d="M130.862 114.044C132.582 114.51 132.833 118.247 130.893 118.524C128.005 118.935 129.268 114.815 130.862 114.044ZM130.381 112.558C129.856 112.541 128.646 112.397 128.323 112.823C128.052 113.181 128.326 113.934 128.294 114.274C128.18 115.491 127.192 116.193 127.634 117.629C127.934 118.603 128.737 119.519 129.716 119.857C134.883 121.643 134.82 111.659 130.381 112.558Z" fill="#89C5CC"/>
<path fill-rule="evenodd" clip-rule="evenodd" d="M83.7309 113.228C83.718 113.245 83.7051 113.261 83.6924 113.278C83.7051 113.261 83.718 113.245 83.7309 113.228ZM87.7885 111.069C87.7682 110.896 87.748 110.723 87.7278 110.55C90.5294 111.873 92.7586 114.333 91.8284 117.635C91.1186 120.154 88.5541 121.047 86.1649 120.425C83.5202 119.737 82.2563 117.557 82.9694 114.88C83.2984 113.645 84.3087 111.985 85.6146 111.588C86.2225 111.403 87.5669 111.874 87.7885 111.069ZM86.1508 110.023C85.4421 110.071 84.7523 110.366 84.174 110.77C84.7154 110.312 85.437 110.039 86.1508 110.023ZM86.1705 108.396C84.4199 108.45 83.2728 109.51 82.2345 110.782C81.9086 111.182 80.8069 112.241 80.9433 112.779C81.0511 113.205 81.3334 113.827 81.9278 113.353C78.8148 119.557 86.8567 124.849 91.7661 120.534C96.3479 116.508 91.8022 108.207 86.1705 108.396Z" fill="#89C5CC"/>
<path fill-rule="evenodd" clip-rule="evenodd" d="M84.5801 114.159C84.5801 114.986 85.8626 114.986 85.8626 114.159C85.8626 113.333 84.5801 113.333 84.5801 114.159Z" fill="#89C5CC"/>
<path fill-rule="evenodd" clip-rule="evenodd" d="M86.7686 114.3C86.7686 115.14 88.0718 115.14 88.0718 114.3C88.0718 113.461 86.7686 113.461 86.7686 114.3Z" fill="#89C5CC"/>
<path fill-rule="evenodd" clip-rule="evenodd" d="M87.7616 117.249C87.1519 117.299 84.9202 117.092 84.5285 117.626C83.8739 118.518 84.9187 118.549 85.4318 118.645C85.8941 118.732 87.9033 118.683 88.1865 118.273C88.4367 117.91 88.3782 117.197 87.7616 117.249Z" fill="#89C5CC"/>
<path fill-rule="evenodd" clip-rule="evenodd" d="M114.649 114.935C114.544 114.978 114.544 114.978 114.649 114.935V114.935ZM106.217 114.318C104.843 114.419 103.679 115.209 102.366 115.525C100.964 115.861 100.357 115.242 99.0824 114.837C97.7562 114.415 96.8129 114.582 95.7469 115.488C95.143 116.001 93.818 117.182 94.1954 118.094C95.0598 120.18 97.0164 116.785 97.9366 116.628C99.3722 116.381 100.649 117.636 102.305 117.277C103.805 116.952 105.136 115.922 106.703 115.911C108.013 115.902 109.248 116.619 110.541 116.792C112.516 117.057 113.812 116.356 115.638 115.835C117.221 115.384 118.33 115.979 119.819 116.48C120.5 116.709 122.77 117.54 122.352 116.032C122.234 115.606 119.242 114.844 118.778 114.698C117.142 114.181 116.107 114.383 114.548 114.977C113.249 115.472 112.156 115.714 110.763 115.441C109.227 115.141 107.831 114.196 106.217 114.318Z" fill="#89C5CC"/>
</g>
<g opacity="0.5">
<path fill-rule="evenodd" clip-rule="evenodd" d="M169.426 45.159C169.648 40.3889 169.953 35.6255 170.114 30.8526C170.193 28.4874 170.256 26.122 170.316 23.7564C170.329 23.2297 170.343 22.7031 170.355 22.1764C170.394 20.3869 170.182 20.2404 171.983 20.0816C180.017 19.3724 188.083 19.1374 196.126 18.4958C205.827 17.722 215.579 17.1877 225.307 16.9482C229.63 16.8416 233.972 16.6207 238.295 16.7551C239.253 16.7849 241.134 16.5356 241.511 17.2803C241.674 17.602 241.332 18.7091 241.289 19.0803C241.153 20.24 241.027 21.4037 240.949 22.5692C240.489 29.4429 240.763 36.49 242.094 43.2595C238.972 41.4989 235.027 39.9844 231.387 40.285C227.677 40.5913 224.902 42.735 221.932 44.708C220.252 45.824 219.686 46.1174 218.01 45.0364C216.566 44.1046 215.2 43.0394 213.837 41.9939C211.735 40.3803 209.75 38.6307 207.711 36.9392C203.962 33.8289 198.797 29.4018 193.619 30.7053C189.919 31.6366 186.503 33.6698 183.292 35.6597C178.521 38.6161 174.203 42.2365 169.426 45.159ZM233.723 14.6368C215.291 14.6368 196.997 16.4236 178.616 17.3903C176.697 17.4911 174.784 17.6397 172.871 17.8244C171.596 17.9474 168.479 17.4307 167.643 18.52C167.086 19.2467 167.565 19.3557 167.643 20.0462C167.742 20.9164 167.683 21.9475 167.658 22.8686C167.597 25.088 167.532 27.3072 167.482 29.5269C167.291 37.9158 167.173 46.3031 167.512 54.6898C167.586 56.5189 168.253 59.0513 167.888 60.8286C167.624 62.1154 166.742 62.8985 168.777 63.1363C170.779 63.3704 173.228 62.775 175.233 62.5844C177.249 62.3925 179.264 62.1843 181.283 62.0179C190.058 61.2947 198.919 61.4041 207.718 61.1637C216.596 60.9213 225.477 60.9057 234.358 60.9008C238.074 60.8988 242.32 61.1077 245.946 60.0851C247.221 59.7252 247.428 59.5479 247.113 58.2822C247.053 58.042 246.668 57.9534 246.555 57.5193C246.402 56.9286 246.481 56.2105 246.445 55.5956C246.327 53.5872 246.286 51.5753 246.192 49.5656C246.034 46.2078 245.455 42.9491 245.027 39.6251C244.533 35.7863 244.558 31.8887 244.548 28.0248C244.542 25.8816 244.597 23.7455 244.769 21.6083C244.88 20.2375 245.555 18.1909 245.213 16.9126C245.042 16.2761 244.763 15.7713 244.1 15.4974C243.681 15.3237 243.328 15.4597 242.913 15.4157C242.421 15.3635 242.114 15.2944 241.524 15.1608C238.998 14.5883 236.297 14.6368 233.723 14.6368Z" fill="#69A1AC"/>
<path fill-rule="evenodd" clip-rule="evenodd" d="M223.522 23.7629C223.521 25.0988 223.313 27.07 223.928 28.3279C224.71 29.9235 225.687 29.4248 225.946 27.9254C226.094 27.0663 226.09 24.5238 225.814 23.7629C225.424 22.6859 223.522 21.9523 223.522 23.7629Z" fill="#89C5CC"/>
<path fill-rule="evenodd" clip-rule="evenodd" d="M225.764 24.2786C224.51 24.3229 220.857 24.0218 220.009 25.0302C218.553 26.7598 221.087 27.0661 222.175 26.9693C223.434 26.8573 227.325 27.1306 228.168 26.1211C229.578 24.4322 226.75 24.2427 225.764 24.2786Z" fill="#89C5CC"/>
<path fill-rule="evenodd" clip-rule="evenodd" d="M177.096 68.9065C182.61 69.8642 180.895 78.2705 175.678 76.3234C173.86 75.6449 171.181 73.6846 172.186 71.3747C172.937 69.649 175.383 68.7421 177.096 68.9065ZM174.813 66.2928C171.228 66.8964 168.776 70.7767 170.006 74.1614C171.192 77.4267 175.69 79.8179 179.007 78.6444C182.174 77.524 183.754 73.3103 182.687 70.2277C181.571 67.007 177.937 65.7669 174.813 66.2928Z" fill="#89C5CC"/>
<path fill-rule="evenodd" clip-rule="evenodd" d="M208.35 69.8897C206.977 70.0037 205.791 70.9647 204.409 71.1349C203.118 71.294 202.047 70.8521 200.838 70.4989C199.377 70.0721 198.036 69.8843 196.542 70.2636C195.401 70.5535 194.275 71.3302 193.089 71.4239C190.756 71.6081 188.044 68.9462 186.223 71.9569C185.35 73.4003 186.618 74.3301 187.924 73.6569C189.285 72.9553 188.617 72.7041 190.306 73.1186C191.715 73.4641 192.854 73.6518 194.266 73.1675C195.545 72.7289 196.667 71.9263 198.057 71.8361C199.418 71.7479 200.602 72.3677 201.903 72.6352C203.502 72.964 204.918 72.7152 206.434 72.2137C207.875 71.7368 208.45 71.4759 209.905 71.9014C210.826 72.1709 212.839 73.0269 213.735 72.337C215.286 71.1445 213.21 70.9701 212.393 70.8006C211.077 70.528 209.715 69.7779 208.35 69.8897Z" fill="#89C5CC"/>
<path fill-rule="evenodd" clip-rule="evenodd" d="M239.762 69.0889C239.773 69.0973 239.784 69.1058 239.795 69.1142C239.784 69.1058 239.773 69.0973 239.762 69.0889ZM238.415 68.8068C240.419 68.9359 242.586 72.5865 239.931 72.716C238.061 72.8073 235.971 69.6106 238.415 68.8068ZM238.133 65.8196C231.796 67.5891 234.693 76.523 240.806 75.491C243.582 75.0223 244.523 71.8058 243.605 69.4249C243.211 68.4022 242.442 67.54 241.524 66.9515C240.846 66.5174 238.908 65.6039 238.133 65.8196Z" fill="#89C5CC"/>
<path fill-rule="evenodd" clip-rule="evenodd" d="M208.57 84.4701C214.146 84.2788 219.723 84.0874 225.305 84.0356C228.33 84.0076 231.339 84.0605 234.359 84.2338C235.699 84.3107 237.038 84.3849 238.379 84.4415C238.61 84.4513 238.929 84.4356 239.282 84.4183C240.112 84.3775 241.125 84.3276 241.602 84.5797C244.268 85.9905 238.836 86.1451 238.175 86.134C236.696 86.1091 235.219 86.036 233.741 85.963C232.45 85.8992 231.159 85.8353 229.866 85.8036C221.575 85.5999 213.232 85.9725 204.927 86.3433L204.927 86.3433L204.926 86.3434C203.022 86.4284 201.12 86.5133 199.221 86.5912C197.205 86.6739 195.189 86.7275 193.174 86.781L193.174 86.781C190.292 86.8576 187.411 86.9341 184.53 87.0959C183.429 87.1578 182.329 87.2232 181.229 87.2887L181.229 87.2887L181.229 87.2887C179.653 87.3825 178.077 87.4763 176.501 87.5594C175.267 87.6245 174.032 87.6876 172.796 87.7187C172.574 87.7243 172.284 87.7553 171.967 87.789C171.201 87.8708 170.279 87.9692 169.781 87.7655C169.182 87.5205 168.698 87.1779 169.027 86.4519C169.306 85.8381 170.318 85.9117 171.056 85.9654C171.258 85.98 171.439 85.9932 171.579 85.9905C173.938 85.9447 176.292 85.8123 178.646 85.6681C179.508 85.6154 180.369 85.5612 181.23 85.5071L181.23 85.507C185.713 85.2251 190.191 84.9434 194.686 84.8668C199.316 84.7878 203.943 84.629 208.57 84.4701ZM237.693 121.17L239.296 121.151C240.124 121.223 240.495 122.092 239.963 122.76C239.556 123.271 237.99 123.294 236.969 123.31C236.686 123.314 236.445 123.317 236.282 123.33C233.617 123.545 230.957 123.641 228.284 123.667C222.654 123.72 217.046 123.961 211.426 124.282C205.673 124.61 199.915 124.733 194.157 124.857H194.157L194.156 124.857C189.92 124.947 185.683 125.038 181.449 125.21C179.023 125.309 176.598 125.383 174.172 125.446C173.911 125.453 173.564 125.491 173.172 125.533C171.639 125.699 169.413 125.939 168.908 124.722C168.46 123.642 169.083 123.144 169.993 122.918C169.849 122.279 169.876 121.38 169.891 120.865C169.895 120.71 169.899 120.59 169.897 120.522C169.874 119.877 169.858 119.231 169.842 118.585C169.824 117.853 169.806 117.122 169.777 116.39C169.752 115.727 169.728 115.062 169.704 114.397C169.61 111.776 169.516 109.147 169.315 106.536C169.221 105.331 169.074 104.14 168.926 102.95C168.691 101.052 168.456 99.1584 168.445 97.22C168.443 96.8714 168.426 96.4354 168.406 95.9436C168.305 93.4271 168.146 89.4488 169.708 88.2373C172.462 86.6301 171.918 91.2691 171.675 93.3393C171.635 93.6812 171.603 93.953 171.595 94.1151C171.437 97.5577 171.652 100.849 171.998 104.27C172.232 106.58 172.096 108.882 171.959 111.189C171.91 112.012 171.861 112.837 171.829 113.662C171.813 114.07 171.799 114.478 171.785 114.886C171.742 116.142 171.698 117.396 171.604 118.65C171.593 118.786 171.59 119.046 171.586 119.379C171.573 120.317 171.554 121.83 171.353 122.748C171.78 122.729 172.195 122.734 172.537 122.738H172.538C172.756 122.74 172.945 122.742 173.089 122.738C173.747 122.718 174.404 122.699 175.062 122.679C177.004 122.622 178.946 122.565 180.888 122.492C185.472 122.32 190.058 122.263 194.643 122.205H194.643H194.643H194.643C200.059 122.137 205.475 122.069 210.888 121.812C219.81 121.388 228.762 121.279 237.693 121.17H237.693H237.693ZM239.348 87.5149C239.343 93.412 239.799 99.1474 240.332 105.021C240.662 108.654 240.926 112.301 241.136 115.943C241.146 116.112 241.144 116.393 241.143 116.746C241.132 118.76 241.109 123.099 243.099 122.061C244.602 121.277 244.025 116.732 243.705 114.217L243.705 114.217C243.635 113.666 243.577 113.212 243.557 112.916C243.513 112.288 243.47 111.659 243.427 111.03C243.227 108.11 243.027 105.193 242.763 102.276L242.708 101.661C242.403 98.2929 242.098 94.927 242.044 91.5427C242.04 91.2629 242.066 90.873 242.097 90.4327C242.185 89.1587 242.302 87.4623 241.773 86.7855C241.028 85.8336 239.35 86.115 239.348 87.5149Z" fill="#69A1AC"/>
<path fill-rule="evenodd" clip-rule="evenodd" d="M208.824 101.972C215.947 98.7493 223.152 95.4893 230.559 93.1681C231.094 93.0006 231.432 93.5527 231.311 94.0159C231.186 94.4932 230.027 94.9004 229.259 95.1704C229.029 95.2512 228.834 95.3198 228.712 95.3742C227.677 95.8362 226.64 96.2926 225.603 96.749C224.541 97.2163 223.479 97.6836 222.419 98.157C220.216 99.1413 218.012 100.121 215.807 101.101C213.446 102.15 211.084 103.2 208.726 104.254C208.636 104.294 208.547 104.334 208.457 104.374C211.664 105.514 214.853 106.705 218.028 107.931C219.113 108.35 220.194 108.778 221.275 109.206C221.887 109.448 222.499 109.69 223.112 109.931C223.311 110.009 223.658 110.115 224.076 110.242C225.435 110.658 227.539 111.3 227.694 111.949C227.947 113.006 225.043 111.983 223.948 111.597C223.802 111.546 223.689 111.506 223.619 111.484C222.002 110.967 220.405 110.391 218.808 109.816C218.734 109.789 218.661 109.763 218.587 109.736C217.322 109.281 216.058 108.82 214.794 108.359C212.326 107.459 209.859 106.559 207.377 105.696C207.026 105.574 206.675 105.452 206.324 105.331C202.342 107.119 198.368 108.925 194.406 110.76C192.282 111.743 190.169 112.75 188.063 113.77C187.603 113.993 187.033 114.337 186.415 114.711C184.932 115.607 183.167 116.674 181.953 116.647C181.302 116.633 180.863 116.493 180.795 115.704C180.725 114.89 181.77 114.463 182.521 114.156C182.701 114.082 182.864 114.016 182.991 113.952C185.243 112.826 187.509 111.728 189.781 110.644C194.294 108.492 198.849 106.425 203.42 104.4C203.447 104.388 203.473 104.377 203.499 104.365C200.964 103.507 198.421 102.669 195.873 101.849C195.619 101.767 195.097 101.623 194.412 101.433C191.173 100.536 184.273 98.6249 184.58 97.5087C184.932 96.2319 191.401 98.5657 194.265 99.599C194.802 99.7926 195.212 99.9405 195.431 100.01C198.855 101.102 202.27 102.224 205.667 103.397C206.718 102.925 207.77 102.449 208.824 101.972Z" fill="#89C5CC"/>
<path fill-rule="evenodd" clip-rule="evenodd" d="M178.306 130.017C180.39 130.382 181.861 132.382 181.632 134.477C181.323 137.307 178.503 138.604 175.897 138.235C172.94 137.816 172.319 135.316 173.751 132.912C174.068 132.379 174.433 131.743 175.009 131.462C175.406 131.27 175.911 131.44 176.23 131.285C177.349 130.74 176.676 129.872 178.306 130.017ZM177.356 128.168C174.812 128.493 170.112 131.437 170.35 134.383C170.556 134.724 170.866 134.864 171.281 134.802C171.181 135.44 171.214 136.071 171.379 136.696C171.62 137.506 172.102 138.171 172.748 138.699C174.079 139.786 175.897 140.053 177.554 139.862C180.647 139.507 183.085 137.392 183.259 134.175C183.429 131.035 180.687 127.748 177.356 128.168Z" fill="#89C5CC"/>
<path fill-rule="evenodd" clip-rule="evenodd" d="M189.678 132.001C188.537 132.606 186.731 133.535 186.062 134.684C185.355 135.898 186.087 137.225 187.577 136.651C188.76 136.196 189.512 134.748 190.774 134.284C191.887 133.874 192.336 134.083 193.513 134.491C194.725 134.911 195.785 135.317 197.096 135.214C198.743 135.084 200.17 134.129 201.783 133.912C203.14 133.729 204.26 134.257 205.561 134.467C207.069 134.711 208.055 134.14 209.467 133.843C210.427 133.64 212.119 134.463 212.82 134.155C214.394 133.463 212.728 132.617 211.857 132.337C210.388 131.866 209.485 132.282 208.088 132.672C206.572 133.096 205.917 132.777 204.467 132.388C201.535 131.6 199.269 133.505 196.49 133.159C193.916 132.838 192.376 130.573 189.678 132.001Z" fill="#89C5CC"/>
<path fill-rule="evenodd" clip-rule="evenodd" d="M237.631 130.593C240.454 133.24 237.283 137.005 234.17 134.89C233.075 134.145 233.057 132.95 233.91 131.88C234.69 130.902 236.403 130.52 237.631 130.593ZM236.585 128.455C233.948 128.968 231.46 130.178 231.222 133.221C230.988 136.191 234.035 137.57 236.594 137.375C242.339 136.938 241.923 127.423 236.585 128.455Z" fill="#89C5CC"/>
</g>
<path opacity="0.5" fill-rule="evenodd" clip-rule="evenodd" d="M349.806 10.5715C346.533 10.619 338.452 11.5127 337.251 14.419C336.339 16.6252 339.048 16.1408 340.5 15.338C342.464 14.2525 344.186 13.6028 346.62 13.2725C355.891 12.0136 364.799 16.5282 373.981 17.0992C377.459 17.3155 381.656 17.4564 384.977 16.6107C387.342 16.0085 387.65 14.6955 384.952 14.4954C382.658 14.3256 380.121 14.861 377.77 14.8458C368.042 14.7833 359.395 10.4342 349.806 10.5715Z" fill="#C1DEE2"/>
<g opacity="0.5">
<path fill-rule="evenodd" clip-rule="evenodd" d="M77.4092 148.332C73.3732 148.377 69.3392 148.526 65.3112 148.781C61.4807 149.024 57.3245 148.84 53.5564 149.582C52.4864 149.793 51.0411 150.768 52.4638 151.841C53.4638 152.595 57.1224 151.727 58.3165 151.654C62.7141 151.384 67.114 151.06 71.5178 150.904C75.6869 150.757 79.8557 150.705 84.0268 150.663C84.6636 150.657 85.7207 150.453 86.3548 150.638C87.266 150.904 87.0499 150.976 87.1181 152.132C87.2418 154.228 87.2076 156.331 87.166 158.429C87.1258 160.458 87.0508 162.488 87.0581 164.519C87.0632 165.968 86.6001 168.847 87.3271 170.105C88.3735 171.916 89.459 169.949 89.5372 168.745C89.6869 166.443 89.6199 164.113 89.6205 161.809C89.621 159.645 89.6365 157.482 89.5603 155.32C89.505 153.758 89.7282 151.031 88.8868 149.611C88.0299 148.165 85.9666 148.477 84.461 148.408C82.1125 148.3 79.7597 148.307 77.4092 148.332Z" fill="#89C5CC"/>
<path fill-rule="evenodd" clip-rule="evenodd" d="M51.7302 150.942C51.7346 155.007 51.2644 159.045 51.1327 163.105C51.0722 164.971 50.9496 167.021 51.4219 168.854C51.8985 170.704 53.4125 171.105 53.5869 169.039C53.9401 164.856 53.8535 160.519 54.1285 156.303C54.2255 154.814 54.8572 152.086 54.2675 150.692C53.7482 149.464 51.728 149.229 51.7302 150.942Z" fill="#89C5CC"/>
<path fill-rule="evenodd" clip-rule="evenodd" d="M89.5773 168.859C82.5681 169.787 75.2407 169.449 68.1816 169.595C64.7949 169.665 61.4088 169.669 58.0216 169.704C56.8395 169.717 53.8375 169.267 52.8148 169.932C51.1868 170.989 52.9532 171.806 54.0309 171.829C60.7153 171.976 67.4741 171.668 74.1572 171.449C77.1599 171.35 80.1723 171.302 83.167 171.047C85.0106 170.89 87.0253 170.738 88.8156 170.242C89.197 170.136 90.0275 170.158 90.113 169.638C90.1657 169.316 90.0702 168.791 89.5773 168.859Z" fill="#89C5CC"/>
<path fill-rule="evenodd" clip-rule="evenodd" d="M60.4307 174.768C58.4826 174.779 52.6123 173.874 51.8056 175.774C50.7301 178.307 54.9258 177.716 56.0542 177.687C58.617 177.621 61.1781 177.614 63.7417 177.615C66.257 177.616 68.7721 177.6 71.287 177.54C72.0156 177.523 73.7115 177.825 74.1306 176.948C74.4492 176.281 74.1975 175.755 73.61 175.402C72.1964 174.552 68.524 175.045 66.869 174.968C64.7261 174.87 62.5762 174.768 60.4307 174.768Z" fill="#89C5CC"/>
<path fill-rule="evenodd" clip-rule="evenodd" d="M84.1304 175.237C83.0171 175.303 80.7652 174.844 79.7679 175.353C78.6344 175.932 79.0337 176.839 80.0124 177.238C80.6901 177.514 83.4702 177.369 84.1304 177.049C84.8185 176.716 85.5966 175.146 84.1304 175.237Z" fill="#89C5CC"/>
<path fill-rule="evenodd" clip-rule="evenodd" d="M96.3359 151.341C95.1469 151.667 95.5076 158.418 95.477 159.488C95.393 162.42 95.0634 166.107 96.0376 168.931C96.6589 170.731 97.8522 170.487 97.6489 168.592C97.4703 166.929 97.164 165.284 97.0314 163.61C96.7315 159.822 96.3235 155.781 96.6067 151.99C96.7273 152.21 97.8553 154.254 98.1207 154.101C98.0405 154.149 96.8197 151.214 96.3359 151.341Z" fill="#89C5CC"/>
<path fill-rule="evenodd" clip-rule="evenodd" d="M109.71 148.855C107.304 148.891 104.898 148.933 102.492 149C100.58 149.053 97.574 148.739 95.8199 149.543C93.7312 150.501 94.7221 152.636 96.6839 152.681C98.4194 152.721 100.27 152.33 102.021 152.27C106.751 152.108 111.49 152.073 116.222 152.033C120.502 151.996 124.964 152.452 129.207 151.81C129.836 157.397 128.134 163.008 128.713 168.66C128.802 169.537 128.762 170.777 129.879 170.977C131.289 171.229 131.347 169.832 131.401 168.832C131.553 165.977 131.471 163.12 131.68 160.261C131.873 157.612 132.255 154.905 131.932 152.251C131.536 148.986 129.971 149.248 127.206 149.112C121.364 148.825 115.559 148.769 109.71 148.855Z" fill="#89C5CC"/>
<path fill-rule="evenodd" clip-rule="evenodd" d="M101.646 168.696C100.42 168.727 98.3833 168.349 97.5976 169.524C96.7802 170.748 97.75 171.815 98.9386 172.066C100.346 172.363 102.18 171.956 103.64 171.951C105.161 171.947 106.682 171.964 108.203 171.97C114.722 171.995 121.27 172.094 127.785 171.824C128.695 171.787 131.277 172.092 131.907 171.219C132.465 170.445 132.074 169.751 131.339 169.356C130.131 168.709 127.651 168.956 126.308 168.904C124.65 168.841 122.989 168.82 121.329 168.795C114.779 168.693 108.195 168.534 101.646 168.696Z" fill="#89C5CC"/>
<path fill-rule="evenodd" clip-rule="evenodd" d="M107.161 174.351C104.721 174.392 102.118 174.285 99.7022 174.655C97.5783 174.981 97.3168 177.034 99.6032 177.274C101.704 177.495 104.252 177.082 106.363 176.947C107.113 176.898 107.985 176.967 108.344 176.138C108.719 175.272 108.002 174.441 107.161 174.351Z" fill="#89C5CC"/>
<path fill-rule="evenodd" clip-rule="evenodd" d="M125.606 174.566C124.304 174.599 120.5 174.039 119.855 175.526C118.782 178.003 123.931 177.062 124.919 177.025C126.164 176.98 131.016 177.707 131.017 175.725C131.018 173.781 126.799 174.537 125.606 174.566Z" fill="#89C5CC"/>
<path fill-rule="evenodd" clip-rule="evenodd" d="M51.5202 186.871C51.5233 191.376 51.2429 195.923 51.6539 200.416C51.8238 202.275 51.7947 205.835 52.8711 207.41C53.6352 208.528 54.695 208.45 55.1124 207.107C55.3913 206.21 54.9451 204.414 54.8953 203.454C54.8474 202.532 54.7914 201.611 54.7487 200.689C54.6392 198.314 54.6479 195.943 54.6805 193.566C54.7085 191.528 55.1992 188.831 54.7365 186.871C54.3052 185.044 51.5202 184.617 51.5202 186.871Z" fill="#69A1AC"/>
<path fill-rule="evenodd" clip-rule="evenodd" d="M96.7924 182.908C88.9769 183.104 81.1439 182.929 73.3354 183.316C69.4844 183.507 65.6485 183.926 61.8169 184.343C59.9344 184.549 58.053 184.76 56.1738 184.992C55.6067 185.062 50.8946 185.244 52.6669 187.036C53.4408 187.819 55.9035 187.001 56.8779 186.886C58.7647 186.663 60.6552 186.469 62.5446 186.269C66.1399 185.889 69.7396 185.529 73.3502 185.329C81.8538 184.858 90.3925 184.999 98.9045 184.685C101.207 184.6 103.503 184.539 105.806 184.63C106.411 184.654 110.856 184.88 108.926 183.238C108.013 182.462 104.573 182.862 103.433 182.839C101.219 182.793 99.0047 182.853 96.7924 182.908Z" fill="#69A1AC"/>
<path fill-rule="evenodd" clip-rule="evenodd" d="M107.446 190.498C107.408 188.416 107.369 186.335 107.274 184.256C107.174 182.066 110.157 181.734 111.042 183.507C111.679 184.783 111.567 186.954 111.471 188.815C111.432 189.565 111.396 190.265 111.413 190.835C111.451 192.143 111.547 193.494 111.645 194.864C111.89 198.31 112.143 201.871 111.499 205.124C111.186 206.705 109.852 207.536 108.964 206.674C108.963 206.676 108.962 206.678 108.961 206.68C108.627 207.172 107.587 207.171 106.822 207.17C106.611 207.169 106.421 207.169 106.272 207.179C104.175 207.322 102.117 207.562 100.039 207.874C95.8974 208.495 91.7921 208.876 87.606 208.98C84.7656 209.05 81.9212 209.074 79.0761 209.097C73.628 209.142 68.1772 209.188 62.7465 209.56C60.9155 209.686 59.1123 209.902 57.3113 210.246C57.158 210.276 56.9877 210.314 56.8065 210.354C55.4674 210.652 53.5288 211.083 53.3963 209.211C53.2389 206.99 58.0529 206.699 60.5302 206.55C60.9084 206.527 61.2322 206.507 61.4755 206.485C68.9975 205.785 76.6376 205.893 84.1915 206C84.5576 206.006 84.9234 206.011 85.289 206.016C85.8785 206.024 86.4678 206.034 87.057 206.044C90.2913 206.097 93.5217 206.15 96.755 205.952C98.2264 205.862 99.7169 205.816 101.21 205.77C103.593 205.696 105.982 205.622 108.312 205.369C107.961 204.007 107.899 202.399 107.841 200.883C107.819 200.293 107.797 199.717 107.758 199.175C107.554 196.287 107.5 193.392 107.446 190.498Z" fill="#69A1AC"/>
<path fill-rule="evenodd" clip-rule="evenodd" d="M113.772 185.86C112.716 186.003 111.836 186.907 112.307 188.053C112.901 189.496 114.669 188.932 115.837 188.841C119.55 188.55 123.427 189.131 127.095 188.693C128.097 188.573 129.55 188.027 128.651 186.681C127.975 185.67 125.511 185.847 124.464 185.75C120.883 185.419 117.349 185.507 113.772 185.86Z" fill="#C1DEE2"/>
<path fill-rule="evenodd" clip-rule="evenodd" d="M120.039 192.156C118.599 192.253 115.247 192.176 114.64 193.815C113.551 196.754 117.815 195.718 119.113 195.551C120.621 195.357 124.176 195.877 124.979 194.415C126.415 191.8 121.302 192.069 120.039 192.156Z" fill="#C1DEE2"/>
<path fill-rule="evenodd" clip-rule="evenodd" d="M116.335 198.606C115.652 199.29 115.651 200.51 116.335 201.193C117.173 202.03 118.998 201.856 120.098 201.917C121.633 202.003 126.042 202.815 126.805 201.008C127.833 198.569 123.841 198.62 122.527 198.481C121.01 198.321 117.593 197.348 116.335 198.606Z" fill="#C1DEE2"/>
<path fill-rule="evenodd" clip-rule="evenodd" d="M62.5225 156.858C62.5225 159.48 66.6178 159.48 66.6178 156.858C66.6178 154.25 62.5225 154.211 62.5225 156.858Z" fill="#89C5CC"/>
<path fill-rule="evenodd" clip-rule="evenodd" d="M70.291 156.888C70.291 159.886 74.9556 159.88 74.9556 156.888C74.9556 153.901 70.291 153.87 70.291 156.888Z" fill="#89C5CC"/>
<path fill-rule="evenodd" clip-rule="evenodd" d="M65.5916 160.874C63.3242 161.5 65.4131 163.421 66.4659 163.86C68.1392 164.558 70.4228 165.073 72.0966 164.026C72.7625 163.61 73.3031 163.057 72.8151 162.249C72.2951 161.389 71.5832 161.771 70.7916 161.851C69.7887 161.952 68.9782 161.936 68.0097 161.615C67.2869 161.375 66.38 160.657 65.5916 160.874Z" fill="#89C5CC"/>
<path fill-rule="evenodd" clip-rule="evenodd" d="M106.721 157.024C106.721 158.798 109.475 158.798 109.475 157.024C109.475 155.251 106.721 155.251 106.721 157.024Z" fill="#89C5CC"/>
<path fill-rule="evenodd" clip-rule="evenodd" d="M112.812 157.291C112.812 159.262 115.871 159.262 115.871 157.291C115.871 155.321 112.812 155.321 112.812 157.291Z" fill="#89C5CC"/>
<path fill-rule="evenodd" clip-rule="evenodd" d="M112.584 161.568C110.977 161.775 106.329 162.246 106.069 164.227C105.668 167.283 110.761 164.81 111.923 164.57C113.404 164.264 114.726 164.344 116.204 164.403C117.015 164.436 118.095 164.567 118.01 163.331C117.87 161.301 113.989 161.388 112.584 161.568Z" fill="#89C5CC"/>
<path fill-rule="evenodd" clip-rule="evenodd" d="M72.179 189.751C71.0142 190.062 69.4904 192.075 70.2919 193.308C71.6059 195.329 72.1855 192.226 72.7354 191.927C73.7361 191.383 74.5484 193.37 75.5942 192.328C77.2443 190.684 73.2179 189.473 72.179 189.751Z" fill="#69A1AC"/>
<path fill-rule="evenodd" clip-rule="evenodd" d="M85.5257 188.257C84.1443 188.269 81.228 190.225 81.0214 191.669C80.8988 192.527 81.4677 193.352 82.3926 193.363C83.6521 193.379 84.0523 191.741 85.1441 191.399C86.3218 191.029 86.147 191.88 87.1641 192.321C87.9084 192.644 88.8393 192.508 89.0979 191.593C89.5857 189.867 86.945 188.23 85.5257 188.257Z" fill="#69A1AC"/>
<path fill-rule="evenodd" clip-rule="evenodd" d="M74.9512 196.525C72.7418 197.82 76.3773 200.595 77.6376 200.942C79.5403 201.466 83.3697 200.488 83.8207 198.164C84.0001 197.239 83.4215 196.401 82.4006 196.567C81.5601 196.703 81.021 197.758 80.2425 198.135C79.1916 198.645 78.2573 198.61 77.3644 197.843C76.6369 197.218 76.2473 195.769 74.9512 196.525Z" fill="#69A1AC"/>
<path fill-rule="evenodd" clip-rule="evenodd" d="M76.5527 215.656C74.5787 216.077 72.572 215.794 70.5884 216.19C68.5658 216.594 67.357 217.358 65.4778 216.588C65.3894 216.551 65.3012 216.514 65.213 216.476C63.7585 215.85 62.2341 215.664 60.7117 216.663C59.8107 217.254 57.0757 219.297 57.4053 220.544C58.1197 223.248 61.1972 219.009 61.982 218.595C63.4784 217.808 64.5044 218.814 66.0451 219.098C67.8905 219.438 69.3754 218.463 71.1137 218.075C73.1469 217.621 75.4341 217.462 77.5025 217.219C78.3197 217.123 81.415 217.77 81.6944 216.753C82.1744 215.005 77.3286 215.491 76.5527 215.656Z" fill="#C1DEE2"/>
<path fill-rule="evenodd" clip-rule="evenodd" d="M90.797 221.101C90.9263 221.199 90.8226 221.12 90.797 221.101V221.101ZM96.3246 215.55C98.0145 215.379 103.421 214.172 104.532 215.918C105.255 217.055 104.107 221.253 103.013 221.796C102.138 222.23 100.1 221.751 99.1396 221.717C97.3532 221.654 95.5631 221.626 93.7788 221.514C93.1804 221.477 91.2548 221.587 90.7857 221.057C90.2317 220.432 90.2564 217.098 90.126 216.271C91.6797 216.774 94.7 215.715 96.3246 215.55ZM99.9334 213.838C97.7691 213.932 95.6051 214.095 93.457 214.385C92.2595 214.547 91.0462 214.977 89.9403 215.181C89.5838 215.247 89.0051 215.064 88.568 215.275C87.2906 215.892 88.4092 220.065 88.7173 221.18C89.1904 222.892 90.3812 223.17 92.0496 223.331C94.2473 223.544 96.4901 223.477 98.6946 223.45C100.82 223.424 103.685 223.895 104.877 221.763C105.648 220.384 106.475 217.173 105.816 215.637C104.949 213.615 101.713 213.764 99.9334 213.838Z" fill="#C1DEE2"/>
<path fill-rule="evenodd" clip-rule="evenodd" d="M124.17 222.248C124.054 222.397 124.054 222.397 124.17 222.248V222.248ZM124.644 221.676C124.608 221.73 124.442 221.906 124.644 221.676V221.676ZM119.482 221.519C120.436 221.339 121.391 221.162 122.346 220.987C121.441 222.254 120.489 221.73 118.944 221.62C119.123 221.586 119.303 221.553 119.482 221.519ZM114.931 221.071C115.173 220.99 115.414 220.909 115.656 220.828C115.649 221.012 115.688 221.184 115.775 221.345C115.361 221.3 114.947 221.252 114.534 221.201C114.666 221.158 114.799 221.114 114.931 221.071ZM112.821 219.513C112.808 219.181 113.307 219.409 113.594 219.387C113.042 219.873 112.784 219.915 112.821 219.513ZM120.365 215.745C120.438 215.653 120.534 215.657 120.654 215.759C120.523 215.803 120.02 216.017 120.365 215.745ZM125.257 215.17C125.27 215.17 125.542 215.537 125.257 215.17V215.17ZM125.12 215.05C125.191 215.104 125.191 215.104 125.12 215.05V215.05ZM124.51 214.979C125.51 215.147 125.434 216.321 124.51 214.979V214.979ZM112.758 214.899C112.554 215.068 112.624 214.904 112.758 214.899V214.899ZM116.583 212.399C114.885 212.498 111.768 212.399 110.349 213.303C108.499 214.485 109.472 218.55 109.638 220.332C109.883 222.966 111.122 223.717 113.603 223.993C116.564 224.323 119.606 224.385 122.582 224.306C125.262 224.236 126.788 223.314 127.279 220.492C127.43 219.629 127.811 218.293 127.799 217.466C127.791 216.892 127.505 216.631 127.397 216.143C126.782 213.366 125.752 213.036 122.906 212.915C120.811 212.826 118.638 212.292 116.583 212.399Z" fill="#89C5CC"/>
</g>
<g opacity="0.5">
<path fill-rule="evenodd" clip-rule="evenodd" d="M206.538 148.596C210.856 148.688 215.754 151.077 215.072 156.139C214.572 159.848 211.361 162.858 207.642 163.118C203.646 163.397 199.42 160.329 198.877 156.26C198.266 151.683 202.316 148.504 206.538 148.596ZM204.42 146.535C202.67 146.797 200.998 147.716 199.456 148.539C198.868 148.853 195.885 150.77 198.225 151.246C192.588 160.337 205.853 168.78 213.311 162.872C216.66 160.219 218.423 155.189 216.259 151.252C214.02 147.18 208.71 145.891 204.42 146.535Z" fill="#89C5CC"/>
<path fill-rule="evenodd" clip-rule="evenodd" d="M203.389 154.273C203.389 155.97 206.024 155.97 206.024 154.273C206.024 152.575 203.389 152.575 203.389 154.273Z" fill="#89C5CC"/>
<path fill-rule="evenodd" clip-rule="evenodd" d="M208.274 154.544C208.274 156.385 211.131 156.385 211.131 154.544C211.131 152.704 208.274 152.704 208.274 154.544Z" fill="#89C5CC"/>
<path fill-rule="evenodd" clip-rule="evenodd" d="M204.977 158.185C204.592 159.581 208.976 160.297 209.122 158.681C209.192 157.909 205.244 157.21 204.977 158.185Z" fill="#89C5CC"/>
<path fill-rule="evenodd" clip-rule="evenodd" d="M217.828 157.322C222.873 156.716 228.074 156.996 233.143 157.141C234.412 157.178 235.68 157.213 236.949 157.235C237.755 157.248 239.497 157.635 240.201 157.258C243.084 155.712 237.429 154.964 236.628 154.893C231.586 154.478 223.805 154.33 218.748 154.526C217.253 154.584 216.93 157.429 217.828 157.322Z" fill="#89C5CC"/>
<path fill-rule="evenodd" clip-rule="evenodd" d="M240.528 182.399C240.571 177.113 240.761 171.792 241.167 166.522C241.333 164.374 241.531 162.229 241.696 160.081C241.773 159.07 242.133 157.652 241.538 156.765C240.925 155.85 239.581 155.66 238.771 156.47C237.801 157.726 238.083 159.833 237.962 161.351C237.777 163.686 237.553 166.019 237.442 168.359C237.226 172.887 237.176 177.495 237.54 182.017C237.712 184.151 238.084 186.233 238.58 188.315C238.806 189.262 240.601 193.482 240.224 194.064C239.639 194.967 235.315 194.626 234.377 194.651C231.97 194.715 229.563 194.757 227.155 194.803C225.094 194.843 223.033 194.871 220.972 194.889C220.153 194.896 215.344 194.751 216.411 195.964C204.482 196.795 192.325 195.408 180.468 194.932C179.869 194.908 178.889 194.738 177.985 194.689C177.877 194.252 177.787 193.861 177.765 193.59C177.61 191.684 177.569 189.773 177.4 187.867C177.091 184.382 176.492 180.932 176.135 177.452C175.779 173.976 175.815 170.49 175.608 167.005C175.572 166.408 175.488 161.518 174.254 160.329C174.839 160.551 175.783 160.58 176.326 160.536C180.724 160.181 185.09 159.417 189.451 158.761C190.698 158.574 193.529 158.707 194.564 158.083C195.46 157.543 195.814 155.65 194.256 155.804C189.908 156.269 185.584 156.992 181.27 157.704C180.116 157.894 178.965 158.098 177.814 158.306C177.046 158.445 175.017 158.434 174.421 158.897C173.697 159.46 173.621 159.842 173.866 160.097C173.525 160.003 173.116 160.15 172.625 160.642C171.697 161.85 172.57 164.825 172.68 166.242C172.813 167.941 172.878 169.644 172.956 171.346C173.105 174.64 173.45 177.889 173.98 181.144C174.574 184.79 175.079 188.451 175.675 192.096C175.83 193.045 176.032 193.971 176.29 194.888C174.686 195.708 175.777 197.013 177.049 197.245C177.058 197.246 177.068 197.247 177.077 197.249C177.473 198.216 178.028 199.113 178.461 197.816C178.494 197.717 178.51 197.595 178.514 197.457C181.8 197.829 185.412 197.598 188.648 197.73C195.656 198.017 202.707 198.446 209.722 198.229C212.5 198.142 215.285 197.896 218.039 197.525C219.653 197.308 221.272 197.049 222.86 196.689C222.974 196.663 223.147 196.636 223.346 196.603C223.379 196.603 223.412 196.602 223.443 196.601C225.874 196.565 228.303 196.499 230.732 196.398C232.771 196.314 234.819 196.27 236.852 196.078C238.114 195.958 240.782 195.981 241.557 194.711C242.262 193.557 241.083 190.583 240.916 189.287C240.622 187.003 240.509 184.699 240.528 182.399Z" fill="#C1DEE2"/>
<path fill-rule="evenodd" clip-rule="evenodd" d="M215.892 167.137C213.949 167.304 212.153 168.216 210.192 168.227C208.547 168.236 206.927 167.745 205.272 167.817C203.331 167.902 202.264 169.157 200.564 169.577C199.21 169.911 198.357 168.875 197.167 168.417C195.664 167.838 194.554 168.137 193.265 169.012C192.319 169.656 190.111 171.099 190.128 172.4C190.179 176.341 194.777 170.897 195.703 170.831C196.935 170.744 198.311 172.147 199.621 172.227C201.354 172.333 202.464 171.216 204.06 170.81C205.673 170.398 207.417 170.902 209.034 171.059C210.879 171.237 212.494 170.826 214.279 170.385C216.009 169.958 217.483 169.981 219.241 170.34C220.428 170.582 223.383 171.988 223.902 170.18C224.609 167.716 217.25 167.022 215.892 167.137Z" fill="#89C5CC"/>
<path fill-rule="evenodd" clip-rule="evenodd" d="M216.483 174.654C212.502 175.04 208.498 175.379 204.499 175.487C202.767 175.534 196.11 174.792 196.7 176.993C197.206 178.879 206.266 177.691 208.111 177.548C210.148 177.39 212.182 177.168 214.21 176.912C214.928 176.821 216.663 176.915 217.17 176.312C217.653 175.738 217.415 174.56 216.483 174.654Z" fill="#89C5CC"/>
<path fill-rule="evenodd" clip-rule="evenodd" d="M189.024 184.676C188.933 184.714 188.933 184.714 189.024 184.676V184.676ZM189.863 184.664C190.855 184.633 190.642 184.11 191.632 184.382C192.089 184.508 192.136 184.321 192.49 184.758C193.18 185.609 192.53 187.463 191.849 188.149C189.328 190.689 186.304 184.777 189.863 184.664ZM189.863 182.172C182.962 182.404 185.85 193.063 191.855 190.887C194.336 189.988 195.895 185.94 194.436 183.665C193.726 182.558 192.821 182.362 191.632 182.285C191.356 182.267 191.009 182.668 190.837 182.65C190.427 182.607 190.465 182.149 189.863 182.172Z" fill="#89C5CC"/>
<path fill-rule="evenodd" clip-rule="evenodd" d="M206.364 185.041C206.241 185.003 208.543 185.672 208.291 185.41C208.828 185.969 208.106 187.291 207.498 187.521C206.025 188.08 205.199 185.791 206.364 185.041ZM207.386 182.15C205.225 182.457 203.558 183.356 203.262 185.759C202.99 187.977 204.488 190.222 206.852 190.266C212.004 190.36 212.161 181.484 207.386 182.15Z" fill="#89C5CC"/>
<path fill-rule="evenodd" clip-rule="evenodd" d="M230.904 185.138C231.206 189.076 227.122 185.471 230.904 185.138V185.138ZM229.152 180.925C228.795 181.535 229.099 182.183 229.638 182.538C224.821 183.556 225.912 190.804 230.814 189.733C233.306 189.189 233.765 186.568 233.393 184.404C233.216 183.374 230.652 178.36 229.152 180.925Z" fill="#89C5CC"/>
</g>
<path opacity="0.5" fill-rule="evenodd" clip-rule="evenodd" d="M259.043 190.963C256.815 191.26 251.549 193.108 251.595 195.091C251.666 198.188 256.142 194.805 257.137 194.351C262.486 191.907 269.413 195.074 274.981 195.747C277.535 196.056 282.529 196.627 284.784 195.342C288.795 193.058 279.52 193.63 278.338 193.538C271.918 193.04 265.53 190.093 259.043 190.963Z" fill="#C1DEE2"/>
<g opacity="0.5">
<path fill-rule="evenodd" clip-rule="evenodd" d="M308.371 166.013C308.369 168.734 308.232 171.511 308.733 174.198C308.885 175.012 309.005 176.571 309.863 176.993C310.726 177.417 311.562 176.94 311.776 176.057C312.026 175.028 311.477 173.489 311.422 172.41C311.346 170.935 311.341 169.458 311.34 167.981C311.339 166.915 311.69 165.199 310.432 164.651C309.495 164.243 308.371 165.001 308.371 166.013Z" fill="#C1DEE2"/>
<path fill-rule="evenodd" clip-rule="evenodd" d="M351.378 161.711C342.365 162.615 333.222 162.803 324.176 163.275C319.995 163.493 314.941 163.215 311.002 164.834C310.271 165.134 307.651 166.807 309.778 167.488C310.441 167.701 311.114 166.987 311.659 166.747C312.565 166.349 313.615 166.226 314.582 166.07C322.801 164.751 331.398 164.98 339.702 164.364C341.83 164.205 343.959 164.043 346.082 163.834C347.599 163.685 350.788 162.591 352.188 163.15C354.58 164.106 354.524 170.315 354.571 172.45C354.596 173.555 353.524 177.519 355.655 177.117C357.36 176.795 356.743 172.677 356.61 171.551C356.261 168.598 355.666 161.276 351.378 161.711Z" fill="#C1DEE2"/>
<path fill-rule="evenodd" clip-rule="evenodd" d="M354.701 176.974C346.872 177.681 338.863 176.987 331.002 177.265C326.882 177.411 322.765 177.643 318.644 177.779C316.862 177.838 315.078 177.841 313.295 177.853C312.442 177.859 308.56 178.376 310.962 180.067C312.025 180.816 315.413 180.213 316.633 180.198C318.465 180.177 320.296 180.1 322.127 180.029C326.368 179.863 330.607 179.633 334.85 179.518C338.909 179.408 342.97 179.385 347.029 179.275C349.049 179.22 351.096 179.158 353.097 178.863C353.549 178.797 355.016 178.744 355.33 178.24C355.626 177.764 355.418 176.905 354.701 176.974Z" fill="#89C5CC"/>
<path fill-rule="evenodd" clip-rule="evenodd" d="M316.224 171.096C316.182 171.196 316.182 171.196 316.224 171.096V171.096ZM319.614 170.066C319.738 170.118 319.738 170.118 319.614 170.066V170.066ZM319.455 170.037C321.282 171.899 318.472 174.122 316.761 172.305C314.944 170.376 318.279 170.043 319.455 170.037ZM317.518 167.22C311.225 168.339 313.453 176.727 319.331 175.514C321.911 174.982 323.387 172.383 322.499 169.886C322.152 168.91 321.396 167.839 320.342 167.532C319.817 167.379 319.352 167.62 318.852 167.563C318.375 167.51 318.11 167.113 317.518 167.22Z" fill="#C1DEE2"/>
<path fill-rule="evenodd" clip-rule="evenodd" d="M341.603 169.58C337.808 169.592 334.013 169.753 330.218 169.825C329.054 169.847 326.063 169.326 326.059 171.161C326.053 173.122 329.386 172.398 330.494 172.371C334.258 172.281 338.031 172.116 341.78 171.758C342.727 171.667 346.005 171.824 346.002 170.536C345.998 169.172 342.368 169.58 341.603 169.58Z" fill="#C1DEE2"/>
<path fill-rule="evenodd" clip-rule="evenodd" d="M350.667 182.376C341.281 182.628 331.91 182.716 322.532 183.196C319.024 183.376 315.521 183.509 312.008 183.509C311.331 183.509 309.969 183.247 309.332 183.673C307.604 184.829 309.572 185.821 310.698 185.883C318.402 186.311 326.218 185.247 333.918 185.007C338.425 184.866 342.934 184.825 347.439 184.595C348.668 184.533 349.897 184.46 351.124 184.365C351.829 184.31 353.695 184.46 354.266 184.047C356.756 182.245 351.506 182.353 350.667 182.376Z" fill="#89C5CC"/>
<path fill-rule="evenodd" clip-rule="evenodd" d="M307.605 186.965C307.516 189.399 307.507 191.789 307.826 194.209C307.951 195.162 308.008 196.242 309.125 196.484C310.138 196.704 310.652 195.937 310.862 195.087C311.375 193.011 310.924 190.024 310.918 187.867C310.915 186.801 310.914 185.608 309.597 185.366C308.591 185.182 307.643 185.909 307.605 186.965Z" fill="#89C5CC"/>
<path fill-rule="evenodd" clip-rule="evenodd" d="M360.615 192.831C345.422 193.632 330.249 194.331 315.045 194.974C313.86 195.024 304.648 194.924 307.869 198.136C308.863 199.128 311.426 198.456 312.712 198.393C314.645 198.298 316.579 198.225 318.512 198.127C326.176 197.737 333.86 197.631 341.518 197.194C345.732 196.953 349.937 196.576 354.129 196.085C356.124 195.852 358.599 195.876 360.467 195.094C361.427 194.692 362.464 192.733 360.615 192.831Z" fill="#89C5CC"/>
<path fill-rule="evenodd" clip-rule="evenodd" d="M351.879 180.488C350.723 181.638 351.318 183.908 351.405 185.331C351.524 187.288 351.67 189.246 351.914 191.193C352.073 192.457 351.989 194.425 352.664 195.517C353.454 196.796 355.193 196.655 355.907 195.419C356.539 194.326 356.219 192.027 356.203 190.816C356.18 189.141 356.076 187.464 355.977 185.792C355.893 184.396 356.21 182.157 355.441 180.961C354.661 179.746 352.962 179.411 351.879 180.488Z" fill="#89C5CC"/>
<path fill-rule="evenodd" clip-rule="evenodd" d="M317.154 189.418C317.018 189.522 317.018 189.522 317.154 189.418V189.418ZM319.852 189.079C322.37 189.586 318.298 192.526 317.012 190.508C316.811 190.193 316.706 189.805 317.029 189.531C317.323 189.281 317.508 189.724 317.787 189.605C318.266 189.4 319.341 189.06 319.852 189.079ZM319.504 186.666C317.785 186.802 315.422 186.908 314.571 188.631C313.428 190.946 315.383 193.213 317.644 193.565C319.821 193.904 323.07 192.698 323.244 190.16C323.385 188.113 321.438 186.509 319.504 186.666Z" fill="#89C5CC"/>
<path fill-rule="evenodd" clip-rule="evenodd" d="M333.856 187.89C332.076 187.918 328.578 187.392 327.028 188.26C325.493 189.118 326.178 190.646 327.577 191.012C328.502 191.254 330.014 190.864 330.977 190.825C332.244 190.773 333.512 190.762 334.78 190.744C336.912 190.716 339.043 190.74 341.176 190.74C343.353 190.74 345.568 190.799 347.742 190.639C350.493 190.437 350.419 188.377 347.729 188.12C343.159 187.682 338.44 187.818 333.856 187.89Z" fill="#89C5CC"/>
<path fill-rule="evenodd" clip-rule="evenodd" d="M329.31 210.958C329.31 211.937 330.178 210.958 330.172 210.958C330.178 210.958 329.31 209.979 329.31 210.958Z" fill="#89C5CC"/>
<path fill-rule="evenodd" clip-rule="evenodd" d="M309.67 203.08C309.726 205.925 309.763 208.772 309.884 211.614C309.923 212.513 309.665 214.268 310.755 214.726C311.967 215.236 312.344 213.965 312.484 213.104C312.926 210.375 312.493 207.259 312.45 204.497C312.436 203.57 312.637 202.279 311.583 201.817C310.725 201.44 309.653 202.14 309.67 203.08Z" fill="#89C5CC"/>
<path fill-rule="evenodd" clip-rule="evenodd" d="M356.447 203.125C356.519 203.295 356.519 203.295 356.447 203.125V203.125ZM356.549 203.096C356.607 203.12 356.843 203.219 356.549 203.096V203.096ZM333.57 200.797C329.203 200.865 324.834 200.917 320.47 201.104C318.607 201.184 316.723 201.249 314.867 201.424C313.552 201.548 310.287 201.6 309.434 202.675C307.674 204.892 311.406 204.287 312.209 204.107C313.672 203.779 315.165 203.674 316.659 203.595C319.901 203.425 323.145 203.333 326.391 203.268C335.194 203.091 344.004 203.117 352.809 203.078C353.661 203.074 355.202 202.731 355.989 203.076C356.778 203.422 356.733 204.271 356.815 205.258C356.924 206.571 356.059 209.072 356.718 210.176C357.742 211.889 359.23 210.435 359.457 209.186C359.771 207.461 359.273 205.389 358.786 203.74C358.098 201.413 357.142 201.32 354.892 201.139C352.262 200.926 349.642 200.797 347.004 200.773C342.527 200.732 338.047 200.727 333.57 200.797Z" fill="#89C5CC"/>
<path fill-rule="evenodd" clip-rule="evenodd" d="M350.842 212.555C341.37 213.655 331.629 213.007 322.107 213.046C319.792 213.056 317.474 213.074 315.161 213.186C313.939 213.245 311.043 212.909 310.206 213.851C308.441 215.838 311.62 216.127 312.78 216.045C315.126 215.878 317.478 215.802 319.83 215.784C328.115 215.72 336.446 216.106 344.724 215.698C348.192 215.527 351.583 214.933 354.987 214.27C355.741 214.123 360.903 213.142 357.96 211.966C356.22 211.271 352.669 212.342 350.842 212.555Z" fill="#89C5CC"/>
<path fill-rule="evenodd" clip-rule="evenodd" d="M323.188 208.918C323.122 209.003 323.122 209.003 323.188 208.918V208.918ZM323.124 208.904C323.102 208.965 323.032 209.115 323.124 208.904V208.904ZM322.527 208.133C322.541 208.151 322.597 208.223 322.527 208.133V208.133ZM322.504 208.127C322.732 208.399 322.886 208.703 322.965 209.038C321.002 209.57 320.246 207.982 322.504 208.127ZM322.379 208.053C322.38 208.053 322.656 208.17 322.379 208.053V208.053ZM319.155 205.688C317.885 207.269 316.837 209.112 318.42 210.919C319.836 212.534 322.685 212.743 324.482 211.664C326.332 210.553 326.173 208.214 324.881 206.687C324.05 205.704 323.376 205.731 322.17 205.571C321.349 205.462 319.852 204.823 319.155 205.688Z" fill="#89C5CC"/>
<path fill-rule="evenodd" clip-rule="evenodd" d="M332.284 208.615C332.284 210.721 341.378 209.814 342.996 209.812C344.351 209.81 352.545 210.558 351.957 208.39C351.474 206.61 343.402 207.495 341.683 207.492C340.198 207.49 332.284 206.47 332.284 208.615Z" fill="#89C5CC"/>
</g>
<g opacity="0.5">
<path fill-rule="evenodd" clip-rule="evenodd" d="M213.564 228.347C218.119 229.009 222.856 231.15 222.816 236.452C222.783 240.909 219.045 245.652 214.244 245.386C209.925 245.147 205.857 240.423 205.316 236.374C205.036 234.277 205.56 232.019 206.794 230.293C208.41 228.032 210.976 228.036 213.564 228.347ZM211.413 225.466C208.119 225.484 205.709 226.676 203.67 229.191C202.939 230.092 202.089 231.063 201.532 232.085C201.012 233.039 201.103 235.466 202.887 234.328C202.448 239.026 205.194 243.586 209.14 245.993C213.431 248.61 218.28 248.099 221.851 244.432C225.119 241.074 226.27 235.403 223.878 231.251C221.489 227.101 215.951 225.421 211.413 225.466Z" fill="#89C5CC"/>
<path fill-rule="evenodd" clip-rule="evenodd" d="M221.29 224.207C219.181 225.753 217.255 227.788 215.656 229.852C214.093 231.87 213.059 234.389 211.181 236.149C210.233 235.116 209.122 232.326 207.23 233.433C205.66 234.351 206.671 235.931 207.436 236.968C209.41 239.646 211.603 240.723 214.135 238.078C216.434 235.675 217.74 232.47 219.89 229.929C220.833 228.814 222.29 227.707 223.041 226.476C223.722 225.361 222.88 223.038 221.29 224.207Z" fill="#89C5CC"/>
</g>
<g opacity="0.5">
<path fill-rule="evenodd" clip-rule="evenodd" d="M300.987 56.593C300.99 56.8037 300.993 57.0019 300.997 57.1842C301.096 61.1627 301.039 65.3453 300.715 69.3146C300.604 70.6851 299.607 72.4221 298.469 70.5329C297.969 69.7023 298.039 67.9965 298.091 66.7416C298.105 66.4052 298.117 66.1012 298.117 65.8552C298.116 64.455 298.19 63.0406 298.263 61.6224C298.407 58.8497 298.552 56.0625 298.142 53.3393C298.134 53.2842 298.126 53.2312 298.118 53.1802C297.94 51.9827 297.928 51.8999 296.611 51.9271C296.062 51.9386 295.513 51.9534 294.964 51.9682C294.424 51.9828 293.884 51.9974 293.344 52.0088C292.808 52.02 292.272 52.0303 291.735 52.0406C290.054 52.073 288.372 52.1053 286.691 52.1669C286.411 52.1772 285.887 52.2429 285.227 52.3257C283.906 52.4913 282.038 52.7257 280.465 52.7244C280.466 52.7311 280.466 52.7379 280.467 52.7447C280.468 52.7568 280.469 52.769 280.469 52.7814C280.486 53.6495 280.263 54.6185 280.038 55.592C279.85 56.4073 279.661 57.2258 279.613 57.9907C279.498 59.8109 279.496 61.6502 279.495 63.4896C279.493 65.7293 279.492 67.969 279.284 70.1741C279.274 70.2816 279.268 70.3953 279.262 70.5103C279.261 70.5255 279.26 70.5408 279.26 70.5561C279.331 70.5453 279.4 70.5377 279.466 70.5335C280.6 70.4616 281.743 70.4552 282.884 70.4488C283.513 70.4453 284.142 70.4417 284.768 70.4272C285.893 70.4012 287.031 70.4024 288.175 70.4036C290.698 70.4063 293.244 70.4091 295.712 70.1183C296.441 70.0239 296.696 70.959 296.369 71.4438C296.077 71.8777 295.27 71.948 294.68 71.9995C294.53 72.0126 294.394 72.0244 294.284 72.0408C292.692 72.2765 291.079 72.3588 289.472 72.4299C287.785 72.5047 286.097 72.5606 284.409 72.6076C284.007 72.6187 283.471 72.6729 282.876 72.733C281.306 72.8916 279.33 73.0914 278.349 72.6475C277.295 72.1705 277.319 71.6409 277.75 71.2306C277.561 70.8157 277.531 70.2094 277.508 69.7352C277.499 69.5541 277.491 69.3923 277.476 69.2678C277.242 67.3795 277.101 65.5154 277.098 63.611C277.091 59.8805 277.098 56.0062 278.13 52.3953C277.717 52.2143 277.468 51.9475 277.469 51.563C277.473 49.6257 283.503 49.7243 286.369 49.7712C286.882 49.7795 287.293 49.7863 287.551 49.7794C289.639 49.7249 291.727 49.7178 293.815 49.7291C294.257 49.7314 294.748 49.7025 295.257 49.6726C296.339 49.609 297.501 49.5407 298.436 49.7579C300.892 50.328 300.951 54.2392 300.987 56.593Z" fill="#89C5CC"/>
<path fill-rule="evenodd" clip-rule="evenodd" d="M316.347 50.1825C318.626 50.0619 320.908 50.0341 323.191 50.0257C325.608 50.0135 328.029 50.057 330.445 50.1313L330.5 50.133C331.571 50.1651 337.521 50.3438 334.788 51.8266C334.628 51.9132 334.449 51.9854 334.253 52.0455C334.368 52.732 334.383 53.4409 334.364 53.7824C334.293 55.0775 334.247 56.374 334.2 57.6704L334.2 57.6709C334.169 58.5494 334.137 59.4279 334.098 60.3059C333.991 62.7324 333.888 65.1586 333.805 67.5862C333.794 67.8842 333.81 68.2739 333.828 68.7082C333.886 70.1444 333.964 72.0687 333.184 72.78C332.499 73.4047 332.032 73.2794 331.716 72.8552C329.758 73.4241 325.735 73.2391 323.712 73.1461C323.225 73.1237 322.854 73.1067 322.655 73.1068C322.301 73.1069 321.642 73.1511 320.81 73.207C317.347 73.4397 310.882 73.8739 310.868 72.1665C310.867 72.0023 310.92 71.8551 311.021 71.7233C310.746 71.4433 310.499 71.0322 310.341 70.5191C309.772 68.6776 309.718 66.6905 309.676 64.7809C309.616 62.0845 309.615 59.3849 309.615 56.6859C309.614 55.2994 309.614 53.913 309.606 52.5272C309.237 52.0303 309.457 51.4622 309.918 51.0658C310.902 50.2216 313.343 50.2114 315.109 50.204C315.584 50.2021 316.011 50.2003 316.347 50.1825ZM312.636 70.9742C314.833 70.5049 318.536 70.656 320.52 70.7369C321.04 70.7581 321.441 70.7745 321.667 70.7736C323.693 70.7656 325.72 70.7938 327.745 70.8748C327.955 70.8831 328.265 70.8753 328.631 70.8661C329.366 70.8475 330.325 70.8234 331.139 70.9136C331.128 70.8033 331.121 70.7024 331.116 70.6152C331.025 68.8131 331.091 66.9954 331.156 65.1878V65.1878L331.156 65.1868C331.17 64.8029 331.184 64.4195 331.197 64.0368C331.24 62.6852 331.298 61.3344 331.355 59.9835V59.9835C331.392 59.1329 331.428 58.2823 331.461 57.4314C331.475 57.0582 331.454 56.5512 331.43 55.9808V55.9807C331.381 54.8202 331.321 53.3973 331.528 52.3045C330.779 52.2902 330.011 52.2371 329.306 52.1884C328.627 52.1414 328.008 52.0986 327.521 52.0985C326.903 52.0984 326.285 52.0965 325.667 52.0946H325.667C323.955 52.0894 322.243 52.0841 320.531 52.118L320.044 52.1275C317.686 52.173 315.31 52.2188 312.972 52.5294C312.835 52.5476 312.67 52.5828 312.487 52.6255C312.743 53.6966 312.618 55.2061 312.508 56.5281C312.455 57.1702 312.405 57.7681 312.404 58.2501C312.401 61.2472 312.48 64.2326 312.559 67.215C312.589 68.3432 312.619 69.4709 312.644 70.5987C312.647 70.7334 312.644 70.8584 312.636 70.9742Z" fill="#89C5CC"/>
<path fill-rule="evenodd" clip-rule="evenodd" d="M287.625 72.5209C286.126 73.3962 286.934 76.8976 287.453 78.1086C288.307 80.0998 290.038 81.6578 291.906 82.6915C295.683 84.7804 301.126 84.2256 303.982 87.8473C304.012 87.8848 304.999 88.8621 305.224 87.5965C305.408 86.5578 303.565 84.9716 302.851 84.4509C300.82 82.9704 298.216 82.493 295.867 81.7534C293.362 80.9646 290.612 79.5105 289.562 76.9279C289.19 76.0132 289.899 71.1857 287.625 72.5209Z" fill="#C1DEE2"/>
<path fill-rule="evenodd" clip-rule="evenodd" d="M321.877 74.2042C320.504 74.5827 321.412 76.4721 321.41 77.4181C321.407 78.5983 321.03 79.8335 320.302 80.7753C318.458 83.1639 314.846 83.5218 312.138 84.2066C310.172 84.7042 305.468 85.7711 305.284 88.4302C305.078 91.3998 309.231 87.786 309.582 87.6379C313.464 86.214 318.486 85.939 321.482 82.8046C322.719 81.5109 323.45 79.7841 323.566 78.0018C323.631 76.9983 323.643 73.7218 321.877 74.2042Z" fill="#C1DEE2"/>
<path fill-rule="evenodd" clip-rule="evenodd" d="M293.506 100.544C293.474 95.0498 298.732 91.7263 303.487 90.4761C309.202 88.9705 314.525 92.9748 315.199 98.7353C315.91 104.814 311.328 109.708 305.286 109.977C299.971 110.213 293.54 106.407 293.506 100.544ZM306.272 93.118C306.581 93.5382 306.86 94.2088 306.237 94.574C305.638 94.9231 305.339 94.5034 305.038 94.0811C304.848 93.8141 304.657 93.5461 304.389 93.4706C303.694 93.275 302.577 94.0057 301.999 94.4317C301.764 94.6046 301.43 94.977 301.039 95.4122C299.795 96.7975 297.979 98.8201 296.975 97.0797C292.972 103.993 302.953 109.166 308.628 106.55C314.861 103.677 313.648 93.1727 306.272 93.118Z" fill="#89C5CC"/>
<path fill-rule="evenodd" clip-rule="evenodd" d="M301.042 98.7049C301.042 99.9661 303.034 99.9661 303.034 98.7049C303.034 97.4582 301.042 97.4048 301.042 98.7049Z" fill="#89C5CC"/>
<path fill-rule="evenodd" clip-rule="evenodd" d="M304.545 98.4681C304.545 100.013 306.986 100.013 306.986 98.4681C306.986 96.9409 304.545 96.8757 304.545 98.4681Z" fill="#89C5CC"/>
<path fill-rule="evenodd" clip-rule="evenodd" d="M302.038 102.068C300.042 103.242 305.75 105.575 305.975 103.191C306.073 102.162 305.076 102.44 304.413 102.364C303.777 102.292 302.641 101.717 302.038 102.068Z" fill="#89C5CC"/>
<path fill-rule="evenodd" clip-rule="evenodd" d="M301.173 110.397C301.259 113.396 301.218 116.392 301.786 119.349C301.895 119.911 301.97 121.948 302.413 122.365C303.505 123.391 303.523 121.424 303.566 120.671C303.717 117.971 303.434 115.187 303.371 112.481C303.358 111.899 303.512 110.693 303.237 110.129C302.801 109.234 301.13 108.969 301.173 110.397Z" fill="#C1DEE2"/>
<path fill-rule="evenodd" clip-rule="evenodd" d="M299.038 107.966C294.662 112.877 288.636 112.515 282.566 112.945C279.359 113.172 276.116 113.639 273.535 115.713C272.335 116.679 271.3 117.887 270.604 119.265C270.3 119.867 268.858 123.342 271.024 122.518C271.792 122.225 272.548 119.927 273.045 119.248C273.991 117.953 275.202 116.884 276.654 116.19C279.455 114.849 282.8 114.872 285.837 114.702C289.012 114.525 292.42 114.359 295.339 112.978C296.712 112.328 298 111.518 299.105 110.474C299.5 110.101 300.346 109.467 300.409 108.897C300.482 108.245 299.855 107.051 299.038 107.966Z" fill="#C1DEE2"/>
<path fill-rule="evenodd" clip-rule="evenodd" d="M276.948 123.039C272.838 123.177 268.733 123.343 264.629 123.603C263.787 123.656 260.983 123.486 261.697 125.21C262.27 126.591 265.69 125.677 266.821 125.611C271.098 125.357 275.393 125.268 279.661 124.884C280.62 124.797 284.953 124.832 283.164 123.133C282.313 122.324 278.125 122.999 276.948 123.039Z" fill="#89C5CC"/>
<path fill-rule="evenodd" clip-rule="evenodd" d="M259.087 125.022C257.792 126.723 258.387 130.859 258.485 132.905C258.58 134.887 258.195 138.511 260.782 138.819C259.961 138.711 261.406 138.869 261.641 138.881C262.167 138.909 262.694 138.918 263.22 138.924C264.436 138.937 265.652 138.921 266.867 138.897C269.619 138.842 272.379 138.762 275.128 138.61C276.283 138.546 282.552 138.599 282.8 137.399C283.117 135.865 277.107 136.733 276.031 136.782C273.411 136.902 270.786 136.927 268.164 136.961C266.864 136.978 265.563 136.991 264.263 136.966C263.726 136.955 261.6 137.176 261.274 136.818C260.996 136.513 261.213 133.71 261.207 133.282C261.188 131.884 261.19 130.483 261.239 129.086C261.273 128.146 261.781 126.356 261.367 125.473C260.964 124.614 259.789 124.321 259.087 125.022Z" fill="#89C5CC"/>
<path fill-rule="evenodd" clip-rule="evenodd" d="M280.252 125.101C280.327 128.214 280.35 131.39 281.085 134.434C281.33 135.447 281.673 137.537 282.69 138.061C283.759 138.612 284.681 137.826 284.751 136.767C284.839 135.437 284.126 133.69 283.98 132.324C283.809 130.731 283.71 129.136 283.652 127.536C283.608 126.332 283.973 124.526 282.826 123.75C281.795 123.053 280.218 123.755 280.252 125.101Z" fill="#89C5CC"/>
<path fill-rule="evenodd" clip-rule="evenodd" d="M288.431 124.341C287.153 125.615 287.724 129.646 287.884 131.282C288.001 132.481 289.313 138.376 291.278 135.302C292.147 133.942 291.043 130.346 291.051 128.761C291.056 127.751 291.413 126.474 291.241 125.504C291.013 124.221 289.591 123.183 288.431 124.341Z" fill="#89C5CC"/>
<path fill-rule="evenodd" clip-rule="evenodd" d="M297.283 123.29C301.123 122.894 304.967 122.597 308.828 122.56C309.013 122.559 309.208 122.556 309.411 122.554C312.057 122.52 316.033 122.47 317.814 124.457C318.784 125.539 319.224 127.212 319.607 128.671C319.678 128.943 319.748 129.208 319.818 129.46C319.879 129.675 319.957 129.92 320.042 130.186C320.442 131.438 320.983 133.133 320.434 134.182C320.134 134.757 319.649 135.247 318.914 135.044C318.741 134.996 318.606 134.934 318.5 134.862C318.783 135.167 318.908 135.602 318.725 136.027C318.371 136.848 317.254 136.866 316.374 136.879C316.16 136.883 315.961 136.886 315.79 136.9C312.858 137.144 309.913 137.307 306.971 137.333C305.571 137.345 304.17 137.334 302.769 137.323C301.327 137.311 299.885 137.299 298.444 137.313C297.397 137.323 296.331 137.423 295.265 137.522C293.919 137.648 292.572 137.774 291.263 137.72C290.284 137.68 289.238 137.359 289.486 136.093C289.689 135.06 290.661 134.97 291.533 134.889C291.609 134.882 291.684 134.875 291.758 134.868C294.533 134.585 297.309 134.485 300.099 134.495C305.958 134.515 311.814 134.485 317.673 134.454C317.915 134.474 318.142 134.567 318.329 134.708C318.117 134.452 318.122 134.11 318.126 133.747C318.128 133.582 318.13 133.414 318.112 133.246C318.076 132.909 318.043 132.574 318.011 132.239C317.902 131.133 317.795 130.035 317.584 128.922C317.552 128.754 317.521 128.569 317.489 128.374C317.297 127.219 317.043 125.688 316.124 125.064C315.201 124.437 313.39 124.467 311.978 124.491C311.597 124.497 311.245 124.503 310.948 124.495C307.182 124.398 303.394 124.666 299.644 125.006C299.357 125.033 299.068 125.058 298.779 125.083C297.353 125.207 295.919 125.332 294.513 125.587C294.256 125.634 293.863 125.771 293.412 125.928C292.213 126.347 290.605 126.908 290.059 126.29C288.248 124.242 296.203 123.402 297.283 123.29Z" fill="#89C5CC"/>
<path fill-rule="evenodd" clip-rule="evenodd" d="M338.131 118.629C338.298 118.844 338.298 118.844 338.131 118.629V118.629ZM312.148 105.944C309.816 107.315 314.132 111.337 315.231 111.959C317.706 113.359 321.105 113.57 323.868 113.963C327.364 114.462 331.17 114.645 334.53 115.791C335.962 116.279 336.871 117.041 337.809 118.212C338.284 118.805 339.428 121.362 340.469 120.757C342.566 119.538 336.915 114.422 335.67 113.872C332.839 112.622 329.493 112.272 326.467 111.786C323.653 111.334 320.778 110.999 318.033 110.203C316.524 109.765 315.451 109.059 314.581 107.707C314.039 106.865 313.594 105.098 312.148 105.944Z" fill="#C1DEE2"/>
<path fill-rule="evenodd" clip-rule="evenodd" d="M347.897 121.656C345.209 121.715 342.525 121.922 339.842 122.129C338.337 122.245 336.832 122.361 335.327 122.451C334.856 122.479 334.384 122.504 333.913 122.53C332.587 122.601 331.258 122.673 329.939 122.806C329.738 122.826 329.506 122.845 329.253 122.866C328.132 122.958 326.603 123.084 325.626 123.493C324.731 122.816 323.349 123.391 323.328 124.599C323.291 126.798 323.311 128.958 323.579 131.143C323.641 131.651 323.962 134.22 324.66 135.557C324.412 136.819 325.488 137.173 326.49 137.27C330.37 137.644 334.439 137.354 338.453 137.067C340.495 136.921 342.523 136.776 344.504 136.72C345.163 136.702 345.83 136.694 346.501 136.687C348.691 136.662 350.924 136.637 353.045 136.223C353.13 136.206 353.221 136.19 353.317 136.173C354.155 136.022 355.312 135.815 355.4 134.892C355.453 134.338 355.14 133.831 354.616 133.76C354.652 133.299 354.594 132.796 354.552 132.425C354.542 132.339 354.533 132.26 354.526 132.191C354.399 130.908 354.079 129.633 353.764 128.374C353.693 128.091 353.622 127.809 353.554 127.528C353.478 127.217 353.408 126.846 353.332 126.447C353.066 125.037 352.731 123.266 351.84 122.443C350.905 121.581 349.384 121.619 348.165 121.649L348.165 121.649C348.074 121.652 347.985 121.654 347.897 121.656ZM352.628 133.898C352.31 133.064 352.216 131.935 352.128 130.863V130.863L352.128 130.863C352.072 130.189 352.018 129.538 351.912 128.995C351.831 128.588 351.766 128.159 351.699 127.722L351.699 127.722C351.537 126.662 351.369 125.56 350.971 124.631C350.438 123.387 349.964 123.435 348.842 123.548C348.633 123.568 348.402 123.592 348.144 123.609C347 123.687 345.858 123.786 344.715 123.885L344.715 123.885C344.167 123.932 343.619 123.979 343.071 124.025C340.726 124.217 338.379 124.366 336.032 124.514L336.032 124.514L336.031 124.514C334.66 124.6 333.289 124.687 331.918 124.782C330.841 124.857 329.791 125.062 328.745 125.266C327.917 125.427 327.091 125.588 326.257 125.683C326.245 125.968 326.221 126.255 326.199 126.527C326.168 126.898 326.139 127.244 326.145 127.527C326.172 128.783 326.283 130.032 326.394 131.282C326.411 131.474 326.428 131.666 326.445 131.859C326.465 132.089 326.515 132.385 326.57 132.714C326.655 133.222 326.753 133.808 326.775 134.347C326.876 134.346 326.977 134.347 327.077 134.347C327.205 134.347 327.331 134.348 327.452 134.346C330.407 134.294 333.361 134.204 336.314 134.091C336.691 134.076 337.068 134.062 337.445 134.047C340.08 133.945 342.715 133.842 345.352 133.812C346.4 133.8 347.462 133.833 348.526 133.866C349.896 133.908 351.271 133.95 352.628 133.898Z" fill="#89C5CC"/>
</g>
<path fill-rule="evenodd" clip-rule="evenodd" d="M116.057 169.997C119.542 172.099 122.967 173.115 124.574 172.701C128.605 171.661 128.975 156.905 125.857 151.088C122.738 145.271 106.705 142.736 105.897 154.261C105.617 158.261 107.295 161.831 109.775 164.744L105.328 185.484H118.245L116.057 169.997Z" fill="#B28B67"/>
<path fill-rule="evenodd" clip-rule="evenodd" d="M120.755 144.753C118.99 144.214 116.428 144.032 115.35 144.155C115.963 142.685 116.206 141.047 116.008 139.453C115.815 137.903 115.123 136.584 114.483 135.202C114.188 134.564 113.854 133.931 113.356 133.443C112.848 132.947 112.206 132.619 111.532 132.462C110.842 132.302 110.121 132.316 109.43 132.461C109.125 132.525 108.851 132.665 108.551 132.743C108.244 132.822 108.095 132.63 107.873 132.437C107.336 131.972 106.549 131.742 105.87 131.66C105.108 131.567 104.317 131.682 103.591 131.933C102.884 132.177 102.204 132.573 101.693 133.15C101.465 133.407 101.259 133.7 101.124 134.023C101.069 134.155 101.06 134.234 100.928 134.282C100.806 134.327 100.663 134.328 100.537 134.371C99.3173 134.785 98.2747 135.727 97.707 136.938C97.3758 137.644 97.2189 138.888 97.2618 140.281C97.3048 141.675 98.5624 145.312 99.7386 146.638C100.789 147.822 102.332 148.604 103.821 148.946C102.833 150.076 102.174 151.489 101.688 152.926C101.159 154.487 100.832 156.109 100.711 157.762C100.597 159.332 100.586 160.992 100.954 162.529C101.298 163.966 102.034 165.145 103.262 165.892C103.825 166.235 104.43 166.492 105.039 166.728C105.639 166.959 106.241 167.185 106.87 167.315C108.06 167.561 109.431 167.519 110.347 166.571C110.677 166.229 111.041 165.8 111.282 165.383C111.368 165.233 111.42 165.135 111.315 164.988C111.189 164.812 110.985 164.678 110.823 164.54C109.899 163.756 109.327 162.71 109.183 161.467C109.037 160.205 109.376 158.577 110.601 158.027C112.114 157.347 113.78 158.127 115.125 158.854C115.696 156.836 116.87 155.019 118.71 154.093C120.745 153.068 123.08 152.949 125.172 152.07C125.717 151.841 126.272 151.581 126.673 151.114C126.841 150.919 127.038 150.666 127.105 150.408C127.193 150.069 126.974 149.785 126.806 149.521C125.911 148.121 122.52 145.291 120.755 144.753Z" fill="#191847"/>
<path fill-rule="evenodd" clip-rule="evenodd" d="M104.252 324.433C127.138 324.433 145.692 306.71 145.692 284.848C145.692 262.987 127.138 245.264 104.252 245.264C81.3649 245.264 62.8115 262.987 62.8115 284.848C62.8115 306.71 81.3649 324.433 104.252 324.433Z" fill="#C5CFD6"/>
<path fill-rule="evenodd" clip-rule="evenodd" d="M168.679 282.737C170.68 289.754 175.667 303.053 182.563 318.325L189.115 316.412C183.383 281.269 178.612 258.002 175.879 250.92C174.074 246.241 160.413 246.79 161.985 256.204C162.644 260.152 165.251 270.723 168.679 282.737ZM141.746 257.846C131.06 260.061 108.904 267.893 102.578 270.395C98.6016 271.968 101.165 277.302 104.557 276.836C105.131 276.757 107.164 276.529 110.196 276.19C119.936 275.099 139.994 272.854 155.207 270.663C163.217 269.509 158.908 254.494 150.591 256.083C147.793 256.618 144.817 257.209 141.746 257.846Z" fill="#B28B67"/>
<path fill-rule="evenodd" clip-rule="evenodd" d="M176.298 246.954C175.205 243.387 125.543 230.723 125.543 230.723H121.474V234.518L155.695 251.951C155.649 252.514 155.677 253.108 155.788 253.735C155.541 266.659 161.068 276.314 166.54 285.873C170.119 292.124 173.674 298.333 175.576 305.39L188.149 303.513C187.782 302.575 187.203 298.349 186.411 292.571C184.415 278.001 181.066 253.563 176.368 247.097C176.352 247.075 176.335 247.052 176.318 247.03C176.312 247.005 176.305 246.979 176.298 246.954Z" fill="#1F28CF"/>
<path fill-rule="evenodd" clip-rule="evenodd" d="M124.317 262.305C121.185 261.677 118.302 261.118 115.834 260.684C99.897 257.887 95.2495 249.35 97.9973 230.723H127.362C132.158 232.102 157.087 242.563 170.021 248.127C178.581 251.81 175.883 265.085 171.035 268.54C171.009 268.752 170.922 268.896 170.766 268.961C152.387 276.584 136.714 276.015 126.649 275.65C122.434 275.497 119.202 275.38 117.168 275.915L113.98 265.853L124.317 262.305Z" fill="#2B44FF"/>
<path fill-rule="evenodd" clip-rule="evenodd" d="M105.93 269.744C105.911 269.184 105.439 268.736 104.881 268.793C103.74 268.91 101.954 269.15 101.102 269.566C99.7936 270.205 97.496 271.866 97.496 271.866C98.2363 273.385 110.803 299.168 110.803 299.168C110.803 299.168 114.837 298.516 114 296.087C113.163 293.657 112.649 292.03 112.649 292.03L112.116 276.52C112.106 276.25 111.876 276.042 111.607 276.059L109.171 276.212C109.171 276.212 107.147 274.572 106.5 273.245C106.09 272.404 105.966 270.803 105.93 269.744Z" fill="#E4E4E4"/>
<path fill-rule="evenodd" clip-rule="evenodd" d="M180.798 314.84C180.286 314.611 179.676 314.839 179.482 315.366C179.087 316.444 178.521 318.155 178.521 319.104C178.521 320.561 179.006 323.355 179.006 323.355C180.694 323.355 209.36 323.355 209.36 323.355C209.36 323.355 210.543 319.441 207.994 319.129C205.445 318.817 203.759 318.565 203.759 318.565L189.595 312.247C189.348 312.137 189.059 312.252 188.957 312.502L188.027 314.759C188.027 314.759 185.667 315.861 184.191 315.861C183.256 315.861 181.765 315.271 180.798 314.84Z" fill="#E4E4E4"/>
<path fill-rule="evenodd" clip-rule="evenodd" d="M167.047 235.912L149.88 223.297L146.085 232.685L163.085 239.739C167.893 245.391 170.582 247.747 171.151 246.807C171.63 246.015 171.255 245.273 170.91 244.59C170.641 244.058 170.39 243.561 170.574 243.104C170.997 242.059 174.226 242.169 177.287 242.405C180.347 242.64 179.455 241.278 178.717 240.605C175.593 238.734 171.703 237.169 167.047 235.912ZM77.0192 258.14C78.5963 254.938 83.9672 223.732 83.9672 223.732L95.2138 223.777C95.2138 223.777 84.7974 257.426 83.9671 259.485C82.8887 262.16 84.7206 266.046 85.9628 268.681C86.155 269.088 86.3331 269.466 86.484 269.805C84.7604 270.577 83.9324 269.644 83.0595 268.66C82.0736 267.549 81.0304 266.374 78.5746 267.517C77.6258 267.959 76.7279 268.481 75.8507 268.991C72.8208 270.754 70.0373 272.373 66.2508 270.035C65.6505 269.664 64.9926 268.269 66.5821 267.178C70.5419 264.461 76.2482 259.705 77.0192 258.14Z" fill="#B28B67"/>
<path fill-rule="evenodd" clip-rule="evenodd" d="M115.929 176.507L120.582 175.709C137.849 190.635 144.941 219.311 166.106 234.501L161.012 240.82C124.295 236.271 115.194 201.294 115.929 176.507Z" fill="#DDAAC4"/>
<path fill-rule="evenodd" clip-rule="evenodd" d="M95.6416 235.032C95.6416 235.032 123.631 235.032 136.819 235.032C138.7 235.032 138.346 232.313 138.074 230.941C134.935 215.107 122.681 198.039 122.681 175.5L110.803 173.636C100.979 189.447 97.5817 208.914 95.6416 235.032Z" fill="#DDE3E9"/>
<path fill-rule="evenodd" clip-rule="evenodd" d="M97.2187 188.992C95.0576 188.837 93.1069 187.932 91.8738 185.706C87.5326 177.867 89.1004 173.551 93.7398 172.132C96.2909 171.352 98.6903 171.885 101.562 172.522C103.913 173.044 106.581 173.636 109.908 173.636C110.231 173.636 110.524 173.657 110.791 173.699L114.731 173.924C114.731 173.924 130.733 228.195 123.558 246.341H91.0109C89.1603 250.789 87.3456 254.67 85.6357 257.651H76.8046C75.8545 226.909 87.4851 203.255 97.2187 188.992Z" fill="#DDAAC4"/>
<path fill-rule="evenodd" clip-rule="evenodd" d="M91.0117 246.341C93.4398 240.506 95.9297 233.694 98.3259 226.659C99.2178 234.406 100.703 242.187 103.176 246.341H91.0117Z" fill="black" fill-opacity="0.1"/>
<path fill-rule="evenodd" clip-rule="evenodd" d="M267.759 136.013C264.269 138.117 260.839 139.134 259.229 138.719C255.193 137.678 254.822 122.911 257.945 117.09C261.068 111.268 277.125 108.731 277.934 120.265C278.215 124.268 276.534 127.841 274.051 130.756L278.504 151.512H265.568L267.759 136.013Z" fill="#B28B67"/>
<path fill-rule="evenodd" clip-rule="evenodd" d="M287.111 197.026L266.859 263.365L257.048 319.781H249.356L259.723 197.026H287.111Z" fill="#997659"/>
<path fill-rule="evenodd" clip-rule="evenodd" d="M294.356 197.026C292.98 233.45 294.599 252.237 294.907 255.547C295.215 258.856 299.431 280.313 309.411 320.892L301.214 318.072C285.441 280.855 280.067 261.512 278.258 256.625C276.449 251.738 271.644 231.872 263.843 197.026H294.356Z" fill="#B28B67"/>
<path fill-rule="evenodd" clip-rule="evenodd" d="M307.975 317.376C308.487 317.147 309.098 317.376 309.291 317.903C309.686 318.983 310.253 320.696 310.253 321.646C310.253 323.104 309.768 325.903 309.768 325.903C308.079 325.903 279.413 325.903 279.413 325.903C279.413 325.903 278.23 321.983 280.779 321.671C283.329 321.358 285.015 321.106 285.015 321.106L299.178 314.78C299.425 314.67 299.714 314.785 299.817 315.035L300.747 317.296C300.747 317.296 303.107 318.399 304.582 318.399C305.517 318.399 307.008 317.809 307.975 317.376Z" fill="#E4E4E4"/>
<path fill-rule="evenodd" clip-rule="evenodd" d="M257.386 317.376C257.898 317.147 258.509 317.376 258.702 317.903C259.097 318.983 259.664 320.696 259.664 321.646C259.664 323.104 259.179 325.903 259.179 325.903C257.49 325.903 228.825 325.903 228.825 325.903C228.825 325.903 227.641 321.983 230.191 321.671C232.74 321.358 234.426 321.106 234.426 321.106L248.589 314.78C248.836 314.67 249.125 314.785 249.228 315.035L250.158 317.296C250.158 317.296 252.518 318.399 253.993 318.399C254.928 318.399 256.419 317.809 257.386 317.376Z" fill="#E4E4E4"/>
<path fill-rule="evenodd" clip-rule="evenodd" d="M289.802 197.026L281.191 230.825H254.89L258.811 197.026H289.802Z" fill="#A2B471"/>
<path fill-rule="evenodd" clip-rule="evenodd" d="M294.645 197.026C298.895 209.79 296.26 230.825 296.26 230.825H269.421L262.04 197.026H294.645Z" fill="#BACC89"/>
<path fill-rule="evenodd" clip-rule="evenodd" d="M323.929 214.026C321.92 211.078 308.376 171.412 308.376 171.412L296.695 173.098C296.695 173.098 316.116 214.404 317.226 216.325C318.667 218.821 317.391 222.92 316.525 225.7C316.391 226.13 316.267 226.529 316.164 226.885C317.981 227.408 318.672 226.37 319.401 225.275C320.225 224.039 321.096 222.731 323.69 223.519C324.693 223.824 325.656 224.216 326.597 224.598C329.847 225.919 332.832 227.133 336.262 224.292C336.806 223.842 337.265 222.37 335.537 221.512C331.232 219.376 324.911 215.467 323.929 214.026ZM223.263 211.976L236.314 195.128L242.555 203.096L228.133 214.558C225.062 221.311 223.123 224.315 222.316 223.57C221.636 222.942 221.792 222.126 221.937 221.375C222.049 220.789 222.154 220.243 221.85 219.855C221.155 218.968 218.077 219.965 215.195 221.035C212.314 222.105 212.797 220.551 213.322 219.701C215.814 217.043 219.127 214.468 223.263 211.976Z" fill="#B28B67"/>
<path fill-rule="evenodd" clip-rule="evenodd" d="M268.111 143.321L263.385 143.18C259.72 169.856 224.822 192.593 223.877 202.506C223.53 206.141 226.316 207.563 225.156 208.818L231.771 212.359C232.621 211.033 235.093 212.892 239.407 210.742C243.722 208.592 272.38 173.699 268.111 143.321Z" fill="#DB2721"/>
<path fill-rule="evenodd" clip-rule="evenodd" d="M275.8 136.762C276.836 136.542 277.854 137.203 278.074 138.238L278.78 141.559C288.403 147.01 312.733 163.923 323.559 200.25C324.697 204.066 323.924 206.304 323.307 208.093C322.885 209.316 322.536 210.329 322.92 211.492L315.373 214.759C315.249 213.877 314.165 213.346 312.767 212.66C310.734 211.663 308.036 210.34 306.658 207.141C305.351 204.108 303.534 200.346 301.407 196.176C302.08 202 301.728 207.493 299.947 212.251C295.505 224.123 259.175 216.894 253.976 206.151C251.202 200.418 253.233 194.993 255.919 187.817C259.329 178.709 263.794 166.78 260.826 147.825L259.621 142.158C259.401 141.123 260.062 140.105 261.097 139.886L275.8 136.762Z" fill="#FF4133"/>
<path fill-rule="evenodd" clip-rule="evenodd" d="M264.541 110.799C266.246 110.52 270.837 110.327 271.683 110.328C272.224 110.328 272.81 110.451 273.131 109.954C273.393 109.548 273.297 108.86 273.375 108.388C273.466 107.839 273.595 107.298 273.726 106.758C274.098 105.222 274.66 103.76 275.447 102.388C276.922 99.8129 279.085 97.7962 281.814 96.6226C284.828 95.3269 288.239 95.0302 291.481 95.293C294.951 95.5742 298.092 96.7196 301.368 97.7974C304.489 98.8245 307.759 99.2288 311.024 98.7272C314.314 98.2219 316.799 96.439 319.574 94.7467C322.415 93.0143 325.661 91.8812 329.019 92.1417C332.153 92.3849 335.042 93.6792 337.634 95.4082C340.059 97.0258 342.061 98.9721 343.19 101.711C344.406 104.658 344.404 107.892 342.406 110.496C339.509 114.271 334.131 115.247 329.657 115.15C327.069 115.094 324.528 114.622 322.084 113.762C318.826 112.616 316.01 110.674 312.962 109.098C311.531 108.358 310.052 107.75 308.502 107.313C306.998 106.888 305.517 106.693 304.155 107.602C302.714 108.563 301.423 109.507 299.775 110.109C298.194 110.686 296.52 111.009 294.835 110.996C291.558 110.971 288.327 109.95 285.144 109.266C282.548 108.708 279.771 108.152 277.125 108.688C276.02 108.912 274.407 109.374 274.009 110.522C280.721 111.738 283.358 120.04 281.465 126.134C280.444 129.424 274.304 133.269 271.917 131.539C270.405 130.444 271.323 129.006 271.917 128.056C273.055 126.238 273.444 123.903 271.339 122.637C269.523 121.545 267.613 124.138 267.577 124.135C267.078 124.095 262.764 121.656 259.793 118.096C256.861 118.27 256.416 116.337 257.116 114.756C257.816 113.175 262.186 111.186 264.541 110.799Z" fill="#191847"/>
</g>
</g>
</svg>
