<svg width="325" height="416" viewBox="0 0 325 416" fill="none" xmlns="http://www.w3.org/2000/svg">
<path d="M35.3157 189.873C31.4925 189.873 28.4715 188.508 26.2526 185.777V183.165C27.3791 184.94 28.6592 186.255 30.0929 187.108C31.5266 187.996 33.1992 188.439 35.1108 188.439C37.0566 188.439 38.7122 188.03 40.0776 187.211C41.4771 186.391 42.5353 185.265 43.2522 183.831C43.969 182.432 44.3275 180.861 44.3275 179.12V175.229C43.5082 176.833 42.2623 178.079 40.5896 178.967C38.9511 179.82 37.159 180.247 35.2132 180.247C33.2675 180.247 31.5437 179.82 30.0417 178.967C28.5397 178.113 27.362 176.919 26.5086 175.382C25.6894 173.846 25.2798 172.071 25.2798 170.057V156.642H26.9183V170.057C26.9183 171.901 27.2938 173.488 28.0448 174.819C28.8299 176.116 29.8539 177.106 31.117 177.789C32.38 178.472 33.7625 178.813 35.2644 178.813C36.903 178.813 38.422 178.421 39.8216 177.635C41.2211 176.816 42.3135 175.741 43.0986 174.41C43.9178 173.044 44.3275 171.593 44.3275 170.057V156.642H45.966V178.967C45.966 181.015 45.5393 182.858 44.6859 184.497C43.8666 186.169 42.6548 187.484 41.0504 188.439C39.4461 189.395 37.5345 189.873 35.3157 189.873ZM62.8511 180.503C60.5299 180.503 58.4306 179.94 56.5531 178.813C54.6756 177.653 53.2078 176.133 52.1496 174.256C51.0914 172.344 50.5623 170.279 50.5623 168.06C50.5623 165.876 51.0914 163.845 52.1496 161.967C53.2419 160.09 54.7098 158.605 56.5531 157.512C58.4306 156.386 60.5128 155.823 62.7999 155.823C65.0529 155.823 67.101 156.386 68.9444 157.512C70.8218 158.605 72.2896 160.09 73.3479 161.967C74.4061 163.845 74.9352 165.876 74.9352 168.06C74.9352 170.347 74.4231 172.447 73.3991 174.358C72.375 176.236 70.9413 177.738 69.098 178.864C67.2888 179.957 65.2065 180.503 62.8511 180.503ZM62.8511 179.069C64.7969 179.069 66.5719 178.574 68.1763 177.584C69.7807 176.594 71.0266 175.28 71.9142 173.642C72.8358 171.969 73.2966 170.143 73.2966 168.163C73.2966 166.217 72.8358 164.408 71.9142 162.735C70.9925 161.063 69.7295 159.731 68.1251 158.741C66.5207 157.751 64.7457 157.256 62.7999 157.256C60.8542 157.256 59.0621 157.768 57.4236 158.793C55.8192 159.782 54.5391 161.114 53.5833 162.786C52.6616 164.459 52.2008 166.268 52.2008 168.214C52.2008 170.16 52.6616 171.969 53.5833 173.642C54.5391 175.28 55.8192 176.594 57.4236 177.584C59.0621 178.574 60.8713 179.069 62.8511 179.069ZM90.1838 180.247C86.9409 180.247 84.4319 179.359 82.6569 177.584C80.916 175.809 80.0455 173.3 80.0455 170.057V156.642H81.684V170.057C81.684 172.856 82.4179 175.024 83.8858 176.56C85.3877 178.062 87.4871 178.813 90.1838 178.813C91.8223 178.813 93.3243 178.455 94.6897 177.738C96.0551 176.987 97.1304 175.946 97.9155 174.614C98.7007 173.283 99.0932 171.764 99.0932 170.057V156.642H100.732V179.684H99.0932V175.382C98.3081 176.816 97.1304 177.994 95.5602 178.916C93.9899 179.803 92.1978 180.247 90.1838 180.247Z" fill="#042454" fill-opacity="0.15"/>
<path d="M35.3157 364.182C31.4925 364.182 28.4715 362.816 26.2526 360.085V357.474C27.3791 359.249 28.6592 360.563 30.0929 361.417C31.5266 362.304 33.1992 362.748 35.1108 362.748C37.0566 362.748 38.7122 362.338 40.0776 361.519C41.4771 360.7 42.5353 359.573 43.2522 358.14C43.969 356.74 44.3275 355.17 44.3275 353.429V349.537C43.5082 351.142 42.2623 352.388 40.5896 353.275C38.9511 354.129 37.159 354.555 35.2132 354.555C33.2675 354.555 31.5437 354.129 30.0417 353.275C28.5397 352.422 27.362 351.227 26.5086 349.691C25.6894 348.155 25.2798 346.38 25.2798 344.366V330.951H26.9183V344.366C26.9183 346.209 27.2938 347.797 28.0448 349.128C28.8299 350.425 29.8539 351.415 31.117 352.098C32.38 352.78 33.7625 353.122 35.2644 353.122C36.903 353.122 38.422 352.729 39.8216 351.944C41.2211 351.125 42.3135 350.05 43.0986 348.718C43.9178 347.353 44.3275 345.902 44.3275 344.366V330.951H45.966V353.275C45.966 355.323 45.5393 357.167 44.6859 358.805C43.8666 360.478 42.6548 361.792 41.0504 362.748C39.4461 363.704 37.5345 364.182 35.3157 364.182ZM62.8511 354.811C60.5299 354.811 58.4306 354.248 56.5531 353.122C54.6756 351.961 53.2078 350.442 52.1496 348.565C51.0914 346.653 50.5623 344.588 50.5623 342.369C50.5623 340.184 51.0914 338.153 52.1496 336.276C53.2419 334.398 54.7098 332.913 56.5531 331.821C58.4306 330.695 60.5128 330.131 62.7999 330.131C65.0529 330.131 67.101 330.695 68.9444 331.821C70.8218 332.913 72.2896 334.398 73.3479 336.276C74.4061 338.153 74.9352 340.184 74.9352 342.369C74.9352 344.656 74.4231 346.755 73.3991 348.667C72.375 350.544 70.9413 352.046 69.098 353.173C67.2888 354.265 65.2065 354.811 62.8511 354.811ZM62.8511 353.378C64.7969 353.378 66.5719 352.883 68.1763 351.893C69.7807 350.903 71.0266 349.589 71.9142 347.95C72.8358 346.278 73.2966 344.451 73.2966 342.471C73.2966 340.526 72.8358 338.716 71.9142 337.044C70.9925 335.371 69.7295 334.04 68.1251 333.05C66.5207 332.06 64.7457 331.565 62.7999 331.565C60.8542 331.565 59.0621 332.077 57.4236 333.101C55.8192 334.091 54.5391 335.422 53.5833 337.095C52.6616 338.768 52.2008 340.577 52.2008 342.523C52.2008 344.468 52.6616 346.278 53.5833 347.95C54.5391 349.589 55.8192 350.903 57.4236 351.893C59.0621 352.883 60.8713 353.378 62.8511 353.378ZM90.1838 354.555C86.9409 354.555 84.4319 353.668 82.6569 351.893C80.916 350.118 80.0455 347.609 80.0455 344.366V330.951H81.684V344.366C81.684 347.165 82.4179 349.333 83.8858 350.869C85.3877 352.371 87.4871 353.122 90.1838 353.122C91.8223 353.122 93.3243 352.763 94.6897 352.046C96.0551 351.295 97.1304 350.254 97.9155 348.923C98.7007 347.592 99.0932 346.073 99.0932 344.366V330.951H100.732V353.992H99.0932V349.691C98.3081 351.125 97.1304 352.302 95.5602 353.224C93.9899 354.112 92.1978 354.555 90.1838 354.555Z" fill="#042454" fill-opacity="0.15"/>
<path d="M43.4274 200.165H45.0659V203.647C46.6362 200.951 49.1622 199.602 52.644 199.602C54.3167 199.602 55.7675 200.08 56.9963 201.036C58.2252 201.958 59.0786 203.357 59.5565 205.235C60.0003 203.562 60.9731 202.214 62.4751 201.19C64.0112 200.131 65.7351 199.602 67.6467 199.602C70.1386 199.602 72.0672 200.336 73.4327 201.804C74.7981 203.238 75.4808 205.286 75.4808 207.948V223.207H73.8423V207.948C73.8423 205.798 73.2791 204.108 72.1526 202.879C71.0602 201.65 69.6095 201.036 67.8003 201.036C66.4349 201.036 65.1718 201.377 64.0112 202.06C62.8506 202.709 61.9289 203.596 61.2462 204.723C60.5635 205.849 60.2222 207.095 60.2222 208.46V223.207H58.5837V208.87C58.5837 206.412 58.0033 204.501 56.8427 203.135C55.6821 201.736 54.1801 201.036 52.3368 201.036C51.1079 201.036 49.9303 201.343 48.8038 201.958C47.7114 202.572 46.8068 203.408 46.09 204.467C45.4073 205.491 45.0659 206.617 45.0659 207.846V223.207H43.4274V200.165ZM93.1436 222.388C94.9187 222.388 96.6084 221.927 98.2128 221.005C99.8171 220.084 101.148 218.821 102.207 217.216V219.828C100.944 221.227 99.5611 222.251 98.0591 222.9C96.5572 223.514 94.8504 223.821 92.9388 223.821C90.8224 223.821 88.8254 223.258 86.948 222.132C85.1047 221.005 83.6198 219.503 82.4933 217.626C81.4009 215.748 80.8548 213.751 80.8548 211.635C80.8548 209.348 81.4009 207.3 82.4933 205.491C83.5856 203.647 85.0705 202.214 86.948 201.19C88.8596 200.165 90.976 199.653 93.2972 199.653C96.8473 199.653 99.8683 201.053 102.36 203.852L86.2823 219.725C87.4088 220.647 88.5012 221.33 89.5594 221.773C90.6176 222.183 91.8123 222.388 93.1436 222.388ZM82.4933 211.481C82.4933 214.315 83.432 216.738 85.3095 218.752L100.312 203.852C99.1856 202.862 98.0933 202.162 97.0351 201.753C95.9769 201.309 94.7139 201.087 93.246 201.087C91.1637 201.087 89.3033 201.548 87.6648 202.47C86.0605 203.357 84.7974 204.586 83.8758 206.156C82.9541 207.727 82.4933 209.502 82.4933 211.481Z" fill="#042454" fill-opacity="0.15"/>
<path d="M43.4274 374.47H45.0659V377.952C46.6362 375.255 49.1622 373.907 52.644 373.907C54.3167 373.907 55.7675 374.385 56.9963 375.341C58.2252 376.262 59.0786 377.662 59.5565 379.539C60.0003 377.867 60.9731 376.518 62.4751 375.494C64.0112 374.436 65.7351 373.907 67.6467 373.907C70.1386 373.907 72.0672 374.641 73.4327 376.109C74.7981 377.542 75.4808 379.59 75.4808 382.253V397.512H73.8423V382.253C73.8423 380.103 73.2791 378.413 72.1526 377.184C71.0602 375.955 69.6095 375.341 67.8003 375.341C66.4349 375.341 65.1718 375.682 64.0112 376.365C62.8506 377.013 61.9289 377.901 61.2462 379.027C60.5635 380.154 60.2222 381.4 60.2222 382.765V397.512H58.5837V383.175C58.5837 380.717 58.0033 378.805 56.8427 377.44C55.6821 376.04 54.1801 375.341 52.3368 375.341C51.1079 375.341 49.9303 375.648 48.8038 376.262C47.7114 376.877 46.8068 377.713 46.09 378.771C45.4073 379.795 45.0659 380.922 45.0659 382.151V397.512H43.4274V374.47ZM93.1436 396.692C94.9187 396.692 96.6084 396.232 98.2128 395.31C99.8171 394.388 101.148 393.125 102.207 391.521V394.132C100.944 395.532 99.5611 396.556 98.0591 397.204C96.5572 397.819 94.8504 398.126 92.9388 398.126C90.8224 398.126 88.8254 397.563 86.948 396.436C85.1047 395.31 83.6198 393.808 82.4933 391.931C81.4009 390.053 80.8548 388.056 80.8548 385.94C80.8548 383.653 81.4009 381.604 82.4933 379.795C83.5856 377.952 85.0705 376.518 86.948 375.494C88.8596 374.47 90.976 373.958 93.2972 373.958C96.8473 373.958 99.8683 375.358 102.36 378.157L86.2823 394.03C87.4088 394.952 88.5012 395.634 89.5594 396.078C90.6176 396.488 91.8123 396.692 93.1436 396.692ZM82.4933 385.786C82.4933 388.619 83.432 391.043 85.3095 393.057L100.312 378.157C99.1856 377.167 98.0933 376.467 97.0351 376.057C95.9769 375.614 94.7139 375.392 93.246 375.392C91.1637 375.392 89.3033 375.853 87.6648 376.774C86.0605 377.662 84.7974 378.891 83.8758 380.461C82.9541 382.031 82.4933 383.806 82.4933 385.786Z" fill="#042454" fill-opacity="0.15"/>
<path d="M72.8578 265.907C74.6329 265.907 76.3226 265.446 77.927 264.525C79.5313 263.603 80.8626 262.34 81.9208 260.736V263.347C80.6578 264.747 79.2753 265.771 77.7734 266.419C76.2714 267.034 74.5646 267.341 72.653 267.341C70.5366 267.341 68.5397 266.778 66.6622 265.651C64.8189 264.525 63.334 263.023 62.2075 261.145C61.1152 259.268 60.569 257.271 60.569 255.155C60.569 252.867 61.1152 250.819 62.2075 249.01C63.2998 247.167 64.7847 245.733 66.6622 244.709C68.5738 243.685 70.6902 243.173 73.0114 243.173C76.5615 243.173 79.5825 244.573 82.0745 247.372L65.9966 263.245C67.123 264.166 68.2154 264.849 69.2736 265.293C70.3318 265.702 71.5265 265.907 72.8578 265.907ZM62.2075 255.001C62.2075 257.834 63.1462 260.258 65.0237 262.272L80.0263 247.372C78.8998 246.382 77.8075 245.682 76.7493 245.272C75.6911 244.829 74.4281 244.607 72.9602 244.607C70.878 244.607 69.0176 245.067 67.379 245.989C65.7747 246.877 64.5117 248.106 63.59 249.676C62.6683 251.246 62.2075 253.021 62.2075 255.001ZM86.0183 250.751H101.943V252.338H86.0183V250.751Z" fill="#042454" fill-opacity="0.15"/>
<path d="M68.2803 310.813L63.0575 299.651L57.7836 310.813L46.7236 287.208H48.4133L57.8348 307.229L62.2895 297.859L57.374 287.311H59.0125L63.1088 296.22L67.3074 287.208H68.946L63.928 297.91L68.2803 307.28L77.5481 287.26H79.1867L68.2803 310.813ZM92.8592 309.431C94.6342 309.431 96.324 308.97 97.9283 308.048C99.5327 307.127 100.864 305.864 101.922 304.259V306.871C100.659 308.27 99.2767 309.294 97.7747 309.943C96.2728 310.557 94.566 310.864 92.6544 310.864C90.538 310.864 88.541 310.301 86.6636 309.175C84.8202 308.048 83.3353 306.546 82.2089 304.669C81.1165 302.791 80.5703 300.794 80.5703 298.678C80.5703 296.391 81.1165 294.343 82.2089 292.534C83.3012 290.69 84.7861 289.257 86.6636 288.232C88.5752 287.208 90.6916 286.696 93.0128 286.696C96.5629 286.696 99.5839 288.096 102.076 290.895L85.9979 306.768C87.1244 307.69 88.2167 308.373 89.2749 308.816C90.3331 309.226 91.5279 309.431 92.8592 309.431ZM82.2089 298.524C82.2089 301.358 83.1476 303.781 85.0251 305.795L100.028 290.895C98.9012 289.905 97.8089 289.205 96.7507 288.796C95.6924 288.352 94.4294 288.13 92.9616 288.13C90.8793 288.13 89.0189 288.591 87.3804 289.513C85.776 290.4 84.513 291.629 83.5914 293.199C82.6697 294.769 82.2089 296.545 82.2089 298.524Z" fill="#042454" fill-opacity="0.15"/>
<path d="M58.244 113.115H59.8825V116.597C61.4528 113.9 63.9788 112.551 67.4607 112.551C69.1333 112.551 70.5841 113.029 71.813 113.985C73.0418 114.907 73.8952 116.306 74.3731 118.184C74.8169 116.511 75.7898 115.163 77.2917 114.139C78.8278 113.081 80.5517 112.551 82.4633 112.551C84.9552 112.551 86.8839 113.285 88.2493 114.753C89.6147 116.187 90.2974 118.235 90.2974 120.898V136.156H88.6589V120.898C88.6589 118.747 88.0957 117.057 86.9692 115.828C85.8768 114.6 84.4261 113.985 82.6169 113.985C81.2515 113.985 79.9884 114.326 78.8278 115.009C77.6672 115.658 76.7456 116.545 76.0628 117.672C75.3801 118.798 75.0388 120.044 75.0388 121.41V136.156H73.4003V121.819C73.4003 119.362 72.82 117.45 71.6593 116.084C70.4987 114.685 68.9968 113.985 67.1534 113.985C65.9246 113.985 64.7469 114.292 63.6204 114.907C62.5281 115.521 61.6235 116.358 60.9066 117.416C60.2239 118.44 59.8825 119.566 59.8825 120.795V136.156H58.244V113.115ZM98.7436 107.841C98.2657 107.841 97.839 107.67 97.4635 107.329C97.1221 106.987 96.9515 106.561 96.9515 106.049C96.9515 105.571 97.1221 105.161 97.4635 104.82C97.839 104.478 98.2657 104.308 98.7436 104.308C99.2215 104.308 99.6311 104.478 99.9725 104.82C100.348 105.161 100.536 105.571 100.536 106.049C100.536 106.561 100.348 106.987 99.9725 107.329C99.6311 107.67 99.2215 107.841 98.7436 107.841ZM97.9243 113.115H99.5628V136.156H97.9243V113.115Z" fill="#042454" fill-opacity="0.15"/>
<path d="M38.3116 54.3365H39.9501V77.5829L49.0643 69.5951H51.1637L40.6157 78.8118L53.8263 92.6367H51.6245L39.9501 80.3479V92.6367H38.3116V54.3365ZM67.3264 91.8175C69.1014 91.8175 70.7911 91.3566 72.3955 90.435C73.9999 89.5133 75.3312 88.2503 76.3894 86.6459V89.2573C75.1264 90.6568 73.7439 91.6809 72.2419 92.3295C70.7399 92.9439 69.0332 93.2512 67.1216 93.2512C65.0051 93.2512 63.0082 92.6879 61.1308 91.5614C59.2874 90.435 57.8025 88.933 56.676 87.0555C55.5837 85.1781 55.0375 83.1811 55.0375 81.0647C55.0375 78.7776 55.5837 76.7295 56.676 74.9203C57.7684 73.077 59.2533 71.6433 61.1308 70.6192C63.0423 69.5951 65.1588 69.0831 67.48 69.0831C71.0301 69.0831 74.0511 70.4827 76.543 73.2818L60.4651 89.1549C61.5916 90.0765 62.6839 90.7593 63.7421 91.203C64.8003 91.6126 65.9951 91.8175 67.3264 91.8175ZM56.676 80.9111C56.676 83.7444 57.6148 86.168 59.4922 88.182L74.4949 73.2818C73.3684 72.2919 72.276 71.5921 71.2178 71.1824C70.1596 70.7387 68.8966 70.5168 67.4288 70.5168C65.3465 70.5168 63.4861 70.9776 61.8476 71.8993C60.2432 72.7868 58.9802 74.0157 58.0585 75.586C57.1369 77.1562 56.676 78.9312 56.676 80.9111ZM91.1884 102.826C87.3652 102.826 84.3442 101.461 82.1254 98.7299V96.1186C83.2519 97.8936 84.532 99.2078 85.9657 100.061C87.3993 100.949 89.072 101.393 90.9836 101.393C92.9293 101.393 94.5849 100.983 95.9503 100.164C97.3499 99.3444 98.4081 98.2179 99.125 96.7842C99.8418 95.3846 100.2 93.8144 100.2 92.0735V88.182C99.381 89.7864 98.135 91.0323 96.4624 91.9199C94.8239 92.7733 93.0317 93.2 91.086 93.2C89.1403 93.2 87.4164 92.7733 85.9144 91.9199C84.4125 91.0665 83.2348 89.8717 82.3814 88.3356C81.5621 86.7995 81.1525 85.0245 81.1525 83.0105V69.5951H82.791V83.0105C82.791 84.8538 83.1665 86.4411 83.9175 87.7724C84.7026 89.0695 85.7267 90.0595 86.9897 90.7422C88.2527 91.4249 89.6352 91.7663 91.1372 91.7663C92.7757 91.7663 94.2948 91.3737 95.6943 90.5886C97.0939 89.7693 98.1862 88.694 98.9713 87.3628C99.7906 85.9973 100.2 84.5466 100.2 83.0105V69.5951H101.839V91.9199C101.839 93.968 101.412 95.8113 100.559 97.4498C99.7394 99.1225 98.5276 100.437 96.9232 101.393C95.3188 102.348 93.4072 102.826 91.1884 102.826Z" fill="#042454" fill-opacity="0.15"/>
<path d="M43.9964 26.0717H45.6349V29.5535C47.2051 26.8568 49.7312 25.5085 53.213 25.5085C54.8857 25.5085 56.3364 25.9864 57.5653 26.9422C58.7942 27.8638 59.6476 29.2634 60.1255 31.1409C60.5693 29.4682 61.5421 28.1198 63.0441 27.0958C64.5802 26.0376 66.304 25.5085 68.2156 25.5085C70.7075 25.5085 72.6362 26.2424 74.0016 27.7102C75.3671 29.1439 76.0498 31.1921 76.0498 33.8546V49.1133H74.4113V33.8546C74.4113 31.7041 73.848 30.0144 72.7215 28.7855C71.6292 27.5566 70.1784 26.9422 68.3693 26.9422C67.0038 26.9422 65.7408 27.2835 64.5802 27.9662C63.4196 28.6148 62.4979 29.5023 61.8152 30.6288C61.1325 31.7553 60.7911 33.0012 60.7911 34.3667V49.1133H59.1526V34.7763C59.1526 32.3185 58.5723 30.4069 57.4117 29.0415C56.2511 27.6419 54.7491 26.9422 52.9058 26.9422C51.6769 26.9422 50.4992 27.2494 49.3728 27.8638C48.2804 28.4783 47.3758 29.3146 46.659 30.3728C45.9763 31.3969 45.6349 32.5233 45.6349 33.7522V49.1133H43.9964V26.0717ZM93.7126 48.294C95.4876 48.294 97.1774 47.8332 98.7817 46.9115C100.386 45.9899 101.717 44.7268 102.776 43.1225V45.7339C101.513 47.1334 100.13 48.1575 98.6281 48.8061C97.1261 49.4205 95.4194 49.7277 93.5078 49.7277C91.3914 49.7277 89.3944 49.1645 87.517 48.038C85.6736 46.9115 84.1887 45.4096 83.0623 43.5321C81.9699 41.6546 81.4237 39.6577 81.4237 37.5413C81.4237 35.2542 81.9699 33.2061 83.0623 31.3969C84.1546 29.5535 85.6395 28.1198 87.517 27.0958C89.4286 26.0717 91.545 25.5597 93.8662 25.5597C97.4163 25.5597 100.437 26.9592 102.929 29.7584L86.8513 45.6314C87.9778 46.5531 89.0701 47.2358 90.1283 47.6796C91.1865 48.0892 92.3813 48.294 93.7126 48.294ZM83.0623 37.3877C83.0623 40.2209 84.001 42.6446 85.8784 44.6586L100.881 29.7584C99.7546 28.7684 98.6623 28.0686 97.604 27.659C96.5458 27.2152 95.2828 26.9934 93.815 26.9934C91.7327 26.9934 89.8723 27.4542 88.2338 28.3759C86.6294 29.2634 85.3664 30.4923 84.4447 32.0625C83.5231 33.6328 83.0623 35.4078 83.0623 37.3877Z" fill="#042454" fill-opacity="0.15"/>
<path d="M234.359 354.597C232.037 354.597 229.938 354.033 228.061 352.907C226.183 351.746 224.715 350.227 223.657 348.35C222.599 346.438 222.07 344.373 222.07 342.154C222.07 339.969 222.599 337.938 223.657 336.061C224.749 334.183 226.217 332.699 228.061 331.606C229.938 330.48 232.02 329.917 234.307 329.917C236.56 329.917 238.608 330.48 240.452 331.606C242.329 332.699 243.797 334.183 244.855 336.061C245.913 337.938 246.443 339.969 246.443 342.154C246.443 344.441 245.931 346.541 244.906 348.452C243.882 350.33 242.449 351.832 240.605 352.958C238.796 354.05 236.714 354.597 234.359 354.597ZM234.359 353.163C236.304 353.163 238.079 352.668 239.684 351.678C241.288 350.688 242.534 349.374 243.422 347.735C244.343 346.063 244.804 344.236 244.804 342.257C244.804 340.311 244.343 338.502 243.422 336.829C242.5 335.156 241.237 333.825 239.633 332.835C238.028 331.845 236.253 331.35 234.307 331.35C232.362 331.35 230.569 331.862 228.931 332.886C227.327 333.876 226.047 335.208 225.091 336.88C224.169 338.553 223.708 340.362 223.708 342.308C223.708 344.253 224.169 346.063 225.091 347.735C226.047 349.374 227.327 350.688 228.931 351.678C230.569 352.668 232.379 353.163 234.359 353.163ZM269.14 354.341L263.917 343.178L258.643 354.341L247.583 330.736H249.273L258.694 350.756L263.149 341.386L258.233 330.838H259.872L263.968 339.748L268.167 330.736H269.805L264.787 341.437L269.14 350.808L278.408 330.787H280.046L269.14 354.341Z" fill="#042454" fill-opacity="0.15"/>
<path d="M113.74 156.642H115.378V160.124C116.948 157.427 119.475 156.079 122.956 156.079C124.629 156.079 126.08 156.557 127.309 157.512C128.538 158.434 129.391 159.834 129.869 161.711C130.313 160.039 131.285 158.69 132.787 157.666C134.324 156.608 136.047 156.079 137.959 156.079C140.451 156.079 142.38 156.813 143.745 158.281C145.11 159.714 145.793 161.762 145.793 164.425V179.684H144.155V164.425C144.155 162.274 143.591 160.585 142.465 159.356C141.373 158.127 139.922 157.512 138.113 157.512C136.747 157.512 135.484 157.854 134.324 158.537C133.163 159.185 132.241 160.073 131.559 161.199C130.876 162.326 130.534 163.572 130.534 164.937V179.684H128.896V165.347C128.896 162.889 128.316 160.977 127.155 159.612C125.994 158.212 124.492 157.512 122.649 157.512C121.42 157.512 120.243 157.82 119.116 158.434C118.024 159.049 117.119 159.885 116.402 160.943C115.72 161.967 115.378 163.094 115.378 164.323V179.684H113.74V156.642ZM163.456 178.864C165.231 178.864 166.921 178.404 168.525 177.482C170.129 176.56 171.461 175.297 172.519 173.693V176.304C171.256 177.704 169.873 178.728 168.371 179.376C166.87 179.991 165.163 180.298 163.251 180.298C161.135 180.298 159.138 179.735 157.26 178.608C155.417 177.482 153.932 175.98 152.806 174.102C151.713 172.225 151.167 170.228 151.167 168.112C151.167 165.825 151.713 163.776 152.806 161.967C153.898 160.124 155.383 158.69 157.26 157.666C159.172 156.642 161.288 156.13 163.61 156.13C167.16 156.13 170.181 157.53 172.673 160.329L156.595 176.202C157.721 177.123 158.813 177.806 159.872 178.25C160.93 178.66 162.125 178.864 163.456 178.864ZM152.806 167.958C152.806 170.791 153.744 173.215 155.622 175.229L170.624 160.329C169.498 159.339 168.406 158.639 167.347 158.229C166.289 157.786 165.026 157.564 163.558 157.564C161.476 157.564 159.616 158.025 157.977 158.946C156.373 159.834 155.11 161.063 154.188 162.633C153.266 164.203 152.806 165.978 152.806 167.958ZM177.794 156.642H179.433V161.762C180.184 160.056 181.464 158.69 183.273 157.666C185.082 156.608 187.079 156.079 189.264 156.079C192.097 156.079 194.333 156.983 195.971 158.793C197.644 160.568 198.48 163.06 198.48 166.268V179.684H196.842V166.268C196.842 163.503 196.159 161.353 194.794 159.817C193.462 158.281 191.585 157.512 189.161 157.512C187.386 157.512 185.748 157.922 184.246 158.741C182.778 159.526 181.6 160.619 180.713 162.018C179.859 163.418 179.433 165.005 179.433 166.78V179.684H177.794V156.642ZM213.19 179.991C210.664 179.991 208.564 179.223 206.892 177.687C205.253 176.151 204.434 174.034 204.434 171.337V147.374H206.072V156.642H213.139V158.076H206.072V171.337C206.072 173.59 206.738 175.365 208.069 176.663C209.435 177.926 211.142 178.557 213.19 178.557V179.991Z" fill="#042454"/>
<path d="M234.358 180.503C232.037 180.503 229.938 179.94 228.06 178.813C226.183 177.653 224.715 176.133 223.657 174.256C222.599 172.344 222.069 170.279 222.069 168.06C222.069 165.876 222.599 163.845 223.657 161.967C224.749 160.09 226.217 158.605 228.06 157.512C229.938 156.386 232.02 155.823 234.307 155.823C236.56 155.823 238.608 156.386 240.452 157.512C242.329 158.605 243.797 160.09 244.855 161.967C245.913 163.845 246.442 165.876 246.442 168.06C246.442 170.347 245.93 172.447 244.906 174.358C243.882 176.236 242.448 177.738 240.605 178.864C238.796 179.957 236.714 180.503 234.358 180.503ZM234.358 179.069C236.304 179.069 238.079 178.574 239.683 177.584C241.288 176.594 242.534 175.28 243.421 173.642C244.343 171.969 244.804 170.143 244.804 168.163C244.804 166.217 244.343 164.408 243.421 162.735C242.5 161.063 241.237 159.731 239.632 158.741C238.028 157.751 236.253 157.256 234.307 157.256C232.361 157.256 230.569 157.768 228.931 158.793C227.326 159.782 226.046 161.114 225.09 162.786C224.169 164.459 223.708 166.268 223.708 168.214C223.708 170.16 224.169 171.969 225.09 173.642C226.046 175.28 227.326 176.594 228.931 177.584C230.569 178.574 232.378 179.069 234.358 179.069ZM251.053 156.642H252.691V161.967C253.374 160.295 254.364 158.98 255.661 158.025C256.992 157.069 258.494 156.591 260.167 156.591C261.225 156.591 262.3 156.813 263.393 157.256V159.151C262.403 158.4 261.293 158.025 260.064 158.025C258.836 158.025 257.641 158.4 256.48 159.151C255.354 159.902 254.432 160.909 253.715 162.172C253.033 163.435 252.691 164.783 252.691 166.217V179.684H251.053V156.642ZM269.451 151.368C268.973 151.368 268.546 151.197 268.171 150.856C267.829 150.515 267.659 150.088 267.659 149.576C267.659 149.098 267.829 148.688 268.171 148.347C268.546 148.006 268.973 147.835 269.451 147.835C269.929 147.835 270.338 148.006 270.68 148.347C271.055 148.688 271.243 149.098 271.243 149.576C271.243 150.088 271.055 150.515 270.68 150.856C270.338 151.197 269.929 151.368 269.451 151.368ZM268.631 156.642H270.27V179.684H268.631V156.642ZM288.76 180.247C286.575 180.247 284.544 179.701 282.666 178.608C280.789 177.516 279.304 176.048 278.212 174.205C277.119 172.327 276.573 170.313 276.573 168.163C276.573 166.012 277.119 164.015 278.212 162.172C279.304 160.295 280.789 158.81 282.666 157.717C284.544 156.625 286.575 156.079 288.76 156.079C290.978 156.079 293.078 156.676 295.058 157.871C297.038 159.032 298.42 160.551 299.205 162.428V156.642H300.844V179.684H299.205V173.949C298.283 175.86 296.85 177.397 294.904 178.557C292.992 179.684 290.944 180.247 288.76 180.247ZM288.862 178.813C290.739 178.813 292.48 178.335 294.085 177.379C295.689 176.39 296.952 175.092 297.874 173.488C298.83 171.849 299.308 170.074 299.308 168.163C299.308 166.285 298.83 164.527 297.874 162.889C296.918 161.25 295.638 159.953 294.034 158.997C292.429 158.007 290.688 157.512 288.811 157.512C286.933 157.512 285.175 158.007 283.537 158.997C281.932 159.987 280.635 161.302 279.645 162.94C278.69 164.579 278.212 166.337 278.212 168.214C278.212 170.091 278.69 171.849 279.645 173.488C280.635 175.092 281.95 176.39 283.588 177.379C285.227 178.335 286.985 178.813 288.862 178.813Z" fill="#042454" fill-opacity="0.15"/>
<path d="M233.823 223.77C230.581 223.77 228.072 222.883 226.297 221.108C224.556 219.333 223.685 216.824 223.685 213.581V200.165H225.324V213.581C225.324 216.38 226.058 218.548 227.525 220.084C229.027 221.586 231.127 222.337 233.823 222.337C235.462 222.337 236.964 221.978 238.329 221.261C239.695 220.51 240.77 219.469 241.555 218.138C242.34 216.807 242.733 215.288 242.733 213.581V200.165H244.371V223.207H242.733V218.906C241.948 220.34 240.77 221.517 239.2 222.439C237.63 223.327 235.837 223.77 233.823 223.77ZM250.837 200.165H252.476V205.798C253.397 203.955 254.831 202.47 256.777 201.343C258.722 200.183 260.771 199.602 262.921 199.602C265.14 199.602 267.171 200.148 269.014 201.241C270.892 202.333 272.377 203.801 273.469 205.644C274.561 207.488 275.107 209.502 275.107 211.686C275.107 213.871 274.561 215.885 273.469 217.728C272.377 219.572 270.892 221.039 269.014 222.132C267.171 223.224 265.14 223.77 262.921 223.77C260.839 223.77 258.825 223.207 256.879 222.081C254.967 220.954 253.5 219.469 252.476 217.626V233.448H250.837V200.165ZM263.023 222.337C264.901 222.337 266.642 221.859 268.246 220.903C269.851 219.913 271.114 218.616 272.035 217.011C272.991 215.373 273.469 213.598 273.469 211.686C273.469 209.809 272.991 208.051 272.035 206.412C271.079 204.774 269.799 203.477 268.195 202.521C266.591 201.531 264.85 201.036 262.972 201.036C261.095 201.036 259.337 201.531 257.698 202.521C256.094 203.511 254.797 204.825 253.807 206.463C252.851 208.102 252.373 209.86 252.373 211.737C252.373 213.615 252.851 215.373 253.807 217.011C254.797 218.616 256.111 219.913 257.75 220.903C259.388 221.859 261.146 222.337 263.023 222.337Z" fill="#042454" fill-opacity="0.15"/>
<path d="M225.398 238.411C224.92 238.411 224.493 238.24 224.118 237.899C223.776 237.558 223.606 237.131 223.606 236.619C223.606 236.141 223.776 235.731 224.118 235.39C224.493 235.049 224.92 234.878 225.398 234.878C225.876 234.878 226.285 235.049 226.627 235.39C227.002 235.731 227.19 236.141 227.19 236.619C227.19 237.131 227.002 237.558 226.627 237.899C226.285 238.24 225.876 238.411 225.398 238.411ZM224.578 243.685H226.217V266.727H224.578V243.685ZM242.095 267.034C239.569 267.034 237.47 266.266 235.797 264.73C234.159 263.194 233.339 261.077 233.339 258.38V234.417H234.978V243.685H242.044V245.119H234.978V258.38C234.978 260.633 235.644 262.408 236.975 263.706C238.34 264.969 240.047 265.6 242.095 265.6V267.034Z" fill="#042454" fill-opacity="0.15"/>
<path d="M223.401 287.208H225.039V290.69C226.61 287.994 229.136 286.645 232.617 286.645C234.29 286.645 235.741 287.123 236.97 288.079C238.199 289.001 239.052 290.4 239.53 292.278C239.974 290.605 240.946 289.257 242.448 288.232C243.985 287.174 245.708 286.645 247.62 286.645C250.112 286.645 252.041 287.379 253.406 288.847C254.771 290.281 255.454 292.329 255.454 294.991V310.25H253.816V294.991C253.816 292.841 253.252 291.151 252.126 289.922C251.034 288.693 249.583 288.079 247.774 288.079C246.408 288.079 245.145 288.42 243.985 289.103C242.824 289.752 241.902 290.639 241.22 291.766C240.537 292.892 240.195 294.138 240.195 295.503V310.25H238.557V295.913C238.557 293.455 237.977 291.544 236.816 290.178C235.655 288.779 234.153 288.079 232.31 288.079C231.081 288.079 229.904 288.386 228.777 289.001C227.685 289.615 226.78 290.451 226.063 291.51C225.381 292.534 225.039 293.66 225.039 294.889V310.25H223.401V287.208ZM273.117 309.431C274.892 309.431 276.582 308.97 278.186 308.048C279.79 307.127 281.122 305.864 282.18 304.259V306.871C280.917 308.27 279.534 309.294 278.032 309.943C276.531 310.557 274.824 310.864 272.912 310.864C270.796 310.864 268.799 310.301 266.921 309.175C265.078 308.048 263.593 306.546 262.467 304.669C261.374 302.791 260.828 300.794 260.828 298.678C260.828 296.391 261.374 294.343 262.467 292.534C263.559 290.69 265.044 289.257 266.921 288.232C268.833 287.208 270.949 286.696 273.271 286.696C276.821 286.696 279.842 288.096 282.334 290.895L266.256 306.768C267.382 307.69 268.474 308.373 269.533 308.816C270.591 309.226 271.786 309.431 273.117 309.431ZM262.467 298.524C262.467 301.358 263.405 303.781 265.283 305.795L280.285 290.895C279.159 289.905 278.067 289.205 277.008 288.796C275.95 288.352 274.687 288.13 273.219 288.13C271.137 288.13 269.277 288.591 267.638 289.513C266.034 290.4 264.771 291.629 263.849 293.199C262.927 294.769 262.467 296.545 262.467 298.524Z" fill="#042454" fill-opacity="0.15"/>
<path d="M234.358 136.976C232.037 136.976 229.938 136.412 228.06 135.286C226.183 134.125 224.715 132.606 223.657 130.729C222.599 128.817 222.07 126.752 222.07 124.533C222.07 122.348 222.599 120.317 223.657 118.44C224.749 116.562 226.217 115.077 228.06 113.985C229.938 112.859 232.02 112.295 234.307 112.295C236.56 112.295 238.608 112.859 240.452 113.985C242.329 115.077 243.797 116.562 244.855 118.44C245.913 120.317 246.442 122.348 246.442 124.533C246.442 126.82 245.93 128.919 244.906 130.831C243.882 132.709 242.449 134.211 240.605 135.337C238.796 136.429 236.714 136.976 234.358 136.976ZM234.358 135.542C236.304 135.542 238.079 135.047 239.684 134.057C241.288 133.067 242.534 131.753 243.421 130.114C244.343 128.442 244.804 126.615 244.804 124.635C244.804 122.69 244.343 120.881 243.421 119.208C242.5 117.535 241.237 116.204 239.632 115.214C238.028 114.224 236.253 113.729 234.307 113.729C232.361 113.729 230.569 114.241 228.931 115.265C227.326 116.255 226.046 117.586 225.091 119.259C224.169 120.932 223.708 122.741 223.708 124.687C223.708 126.632 224.169 128.442 225.091 130.114C226.046 131.753 227.326 133.067 228.931 134.057C230.569 135.047 232.379 135.542 234.358 135.542ZM251.053 113.115H252.691V118.44C253.374 116.767 254.364 115.453 255.661 114.497C256.992 113.541 258.494 113.063 260.167 113.063C261.225 113.063 262.3 113.285 263.393 113.729V115.624C262.403 114.873 261.293 114.497 260.065 114.497C258.836 114.497 257.641 114.873 256.48 115.624C255.354 116.375 254.432 117.382 253.715 118.645C253.033 119.908 252.691 121.256 252.691 122.69V136.156H251.053V113.115Z" fill="#042454" fill-opacity="0.15"/>
<path d="M235.183 91.8175C236.958 91.8175 238.648 91.3566 240.252 90.435C241.857 89.5133 243.188 88.2503 244.246 86.6459V89.2573C242.983 90.6568 241.601 91.6809 240.099 92.3295C238.597 92.9439 236.89 93.2512 234.978 93.2512C232.862 93.2512 230.865 92.6879 228.988 91.5614C227.144 90.435 225.659 88.933 224.533 87.0555C223.441 85.1781 222.894 83.1811 222.894 81.0647C222.894 78.7776 223.441 76.7295 224.533 74.9203C225.625 73.077 227.11 71.6433 228.988 70.6192C230.899 69.5951 233.016 69.0831 235.337 69.0831C238.887 69.0831 241.908 70.4827 244.4 73.2818L228.322 89.1549C229.448 90.0765 230.541 90.7593 231.599 91.203C232.657 91.6126 233.852 91.8175 235.183 91.8175ZM224.533 80.9111C224.533 83.7444 225.472 86.168 227.349 88.182L242.352 73.2818C241.225 72.2919 240.133 71.5921 239.075 71.1824C238.017 70.7387 236.754 70.5168 235.286 70.5168C233.203 70.5168 231.343 70.9776 229.705 71.8993C228.1 72.7868 226.837 74.0157 225.915 75.586C224.994 77.1562 224.533 78.9312 224.533 80.9111ZM260.377 93.2C258.158 93.2 256.11 92.6538 254.232 91.5614C252.389 90.4691 250.921 89.0013 249.829 87.1579C248.736 85.3146 248.19 83.3006 248.19 81.1159C248.19 78.9312 248.736 76.9172 249.829 75.0739C250.921 73.2306 252.389 71.7628 254.232 70.6704C256.11 69.5781 258.158 69.0319 260.377 69.0319C262.527 69.0319 264.575 69.6122 266.521 70.7728C268.467 71.8993 269.9 73.3842 270.822 75.2275V54.2341H272.461V92.6367H270.822V87.0555C269.798 88.8989 268.313 90.3838 266.367 91.5102C264.456 92.6367 262.459 93.2 260.377 93.2ZM260.325 91.7663C262.203 91.7663 263.944 91.2884 265.548 90.3326C267.187 89.3426 268.484 88.0455 269.44 86.4411C270.43 84.8026 270.925 83.0446 270.925 81.1671C270.925 79.2897 270.43 77.5317 269.44 75.8932C268.484 74.2547 267.187 72.9404 265.548 71.9505C263.944 70.9606 262.203 70.4656 260.325 70.4656C258.448 70.4656 256.707 70.9606 255.103 71.9505C253.498 72.9063 252.218 74.2035 251.262 75.842C250.307 77.4805 249.829 79.2385 249.829 81.1159C249.829 83.0275 250.29 84.8026 251.211 86.4411C252.167 88.0455 253.447 89.3426 255.051 90.3326C256.69 91.2884 258.448 91.7663 260.325 91.7663Z" fill="#042454" fill-opacity="0.15"/>
<path d="M242.841 49.6765L237.618 38.5142L232.344 49.6765L221.284 26.0717H222.974L232.395 46.0923L236.85 36.722L231.935 26.1741H233.573L237.669 35.0835L241.868 26.0717H243.507L238.489 36.7732L242.841 46.1435L252.109 26.1229H253.747L242.841 49.6765ZM259.203 20.7977C258.725 20.7977 258.299 20.6271 257.923 20.2857C257.582 19.9444 257.411 19.5177 257.411 19.0056C257.411 18.5277 257.582 18.1181 257.923 17.7767C258.299 17.4354 258.725 17.2647 259.203 17.2647C259.681 17.2647 260.091 17.4354 260.432 17.7767C260.808 18.1181 260.995 18.5277 260.995 19.0056C260.995 19.5177 260.808 19.9444 260.432 20.2857C260.091 20.6271 259.681 20.7977 259.203 20.7977ZM258.384 26.0717H260.023V49.1133H258.384V26.0717Z" fill="#042454" fill-opacity="0.15"/>
<path d="M234.94 394.716C236.715 394.716 238.404 394.255 240.009 393.333C241.613 392.412 242.944 391.149 244.003 389.544V392.156C242.74 393.555 241.357 394.579 239.855 395.228C238.353 395.842 236.646 396.15 234.735 396.15C232.618 396.15 230.621 395.586 228.744 394.46C226.901 393.333 225.416 391.831 224.289 389.954C223.197 388.077 222.651 386.08 222.651 383.963C222.651 381.676 223.197 379.628 224.289 377.819C225.382 375.975 226.866 374.542 228.744 373.518C230.655 372.494 232.772 371.982 235.093 371.982C238.643 371.982 241.664 373.381 244.156 376.18L228.078 392.053C229.205 392.975 230.297 393.658 231.355 394.101C232.413 394.511 233.608 394.716 234.94 394.716ZM224.289 383.81C224.289 386.643 225.228 389.066 227.105 391.08L242.108 376.18C240.982 375.19 239.889 374.491 238.831 374.081C237.773 373.637 236.51 373.415 235.042 373.415C232.96 373.415 231.099 373.876 229.461 374.798C227.856 375.685 226.593 376.914 225.672 378.484C224.75 380.055 224.289 381.83 224.289 383.81ZM260.133 396.098C257.914 396.098 255.866 395.552 253.988 394.46C252.145 393.368 250.677 391.9 249.585 390.056C248.493 388.213 247.946 386.199 247.946 384.014C247.946 381.83 248.493 379.816 249.585 377.972C250.677 376.129 252.145 374.661 253.988 373.569C255.866 372.477 257.914 371.93 260.133 371.93C262.283 371.93 264.332 372.511 266.277 373.671C268.223 374.798 269.657 376.283 270.578 378.126V357.133H272.217V395.535H270.578V389.954C269.554 391.797 268.069 393.282 266.124 394.409C264.212 395.535 262.215 396.098 260.133 396.098ZM260.082 394.665C261.959 394.665 263.7 394.187 265.304 393.231C266.943 392.241 268.24 390.944 269.196 389.34C270.186 387.701 270.681 385.943 270.681 384.066C270.681 382.188 270.186 380.43 269.196 378.792C268.24 377.153 266.943 375.839 265.304 374.849C263.7 373.859 261.959 373.364 260.082 373.364C258.204 373.364 256.463 373.859 254.859 374.849C253.254 375.805 251.974 377.102 251.019 378.74C250.063 380.379 249.585 382.137 249.585 384.014C249.585 385.926 250.046 387.701 250.967 389.34C251.923 390.944 253.203 392.241 254.808 393.231C256.446 394.187 258.204 394.665 260.082 394.665Z" fill="#042454" fill-opacity="0.15"/>
</svg>
