<svg width="414" height="380" viewBox="0 0 414 380" fill="none" xmlns="http://www.w3.org/2000/svg">
<path d="M0 0H414V371.101C414 373.807 411.842 376 409.179 376H4.82096C2.15842 376 0 373.807 0 371.101V0Z" fill="#F5F5F5"/>
<path d="M98.1883 187.322C94.9202 187.322 92.3378 186.155 90.4411 183.821V181.589C91.404 183.106 92.4982 184.229 93.7238 184.959C94.9493 185.718 96.3791 186.097 98.0132 186.097C99.6764 186.097 101.092 185.747 102.259 185.046C103.455 184.346 104.36 183.383 104.973 182.158C105.585 180.961 105.892 179.619 105.892 178.131V174.804C105.191 176.176 104.126 177.241 102.697 178C101.296 178.729 99.764 179.094 98.1007 179.094C96.4375 179.094 94.9639 178.729 93.68 178C92.3961 177.27 91.3894 176.249 90.6599 174.936C89.9596 173.623 89.6095 172.105 89.6095 170.384V158.916H91.0101V170.384C91.0101 171.959 91.3311 173.316 91.973 174.454C92.6441 175.563 93.5195 176.409 94.5992 176.993C95.6788 177.576 96.8606 177.868 98.1445 177.868C99.5451 177.868 100.844 177.533 102.04 176.862C103.236 176.161 104.17 175.242 104.841 174.104C105.542 172.937 105.892 171.697 105.892 170.384V158.916H107.292V178C107.292 179.75 106.928 181.326 106.198 182.727C105.498 184.156 104.462 185.28 103.09 186.097C101.719 186.914 100.085 187.322 98.1883 187.322ZM121.726 179.313C119.742 179.313 117.947 178.831 116.342 177.868C114.737 176.876 113.483 175.578 112.578 173.973C111.674 172.339 111.221 170.573 111.221 168.677C111.221 166.809 111.674 165.073 112.578 163.468C113.512 161.863 114.767 160.594 116.342 159.66C117.947 158.697 119.727 158.216 121.682 158.216C123.608 158.216 125.359 158.697 126.935 159.66C128.539 160.594 129.794 161.863 130.699 163.468C131.603 165.073 132.056 166.809 132.056 168.677C132.056 170.632 131.618 172.426 130.742 174.06C129.867 175.665 128.642 176.949 127.066 177.912C125.519 178.846 123.739 179.313 121.726 179.313ZM121.726 178.087C123.389 178.087 124.907 177.664 126.278 176.818C127.649 175.972 128.714 174.848 129.473 173.448C130.261 172.018 130.655 170.457 130.655 168.764C130.655 167.101 130.261 165.554 129.473 164.125C128.685 162.695 127.606 161.557 126.234 160.711C124.863 159.864 123.345 159.441 121.682 159.441C120.019 159.441 118.487 159.879 117.086 160.754C115.715 161.601 114.621 162.739 113.804 164.168C113.016 165.598 112.622 167.145 112.622 168.808C112.622 170.471 113.016 172.018 113.804 173.448C114.621 174.848 115.715 175.972 117.086 176.818C118.487 177.664 120.034 178.087 121.726 178.087ZM145.09 179.094C142.318 179.094 140.173 178.335 138.656 176.818C137.168 175.3 136.424 173.156 136.424 170.384V158.916H137.825V170.384C137.825 172.776 138.452 174.629 139.707 175.942C140.991 177.226 142.785 177.868 145.09 177.868C146.491 177.868 147.775 177.562 148.942 176.949C150.109 176.307 151.028 175.417 151.699 174.279C152.371 173.141 152.706 171.843 152.706 170.384V158.916H154.107V178.612H152.706V174.936C152.035 176.161 151.028 177.168 149.686 177.956C148.344 178.714 146.812 179.094 145.09 179.094Z" fill="#042454" fill-opacity="0.15"/>
<path d="M98.1883 336.322C94.9202 336.322 92.3378 335.155 90.4411 332.821V330.589C91.404 332.106 92.4982 333.229 93.7238 333.959C94.9493 334.718 96.3791 335.097 98.0132 335.097C99.6764 335.097 101.092 334.747 102.259 334.046C103.455 333.346 104.36 332.383 104.973 331.158C105.585 329.961 105.892 328.619 105.892 327.131V323.804C105.191 325.176 104.126 326.241 102.697 327C101.296 327.729 99.764 328.094 98.1007 328.094C96.4375 328.094 94.9639 327.729 93.68 327C92.3961 326.27 91.3894 325.249 90.6599 323.936C89.9596 322.623 89.6095 321.105 89.6095 319.384V307.916H91.0101V319.384C91.0101 320.959 91.3311 322.316 91.973 323.454C92.6441 324.563 93.5195 325.409 94.5992 325.993C95.6788 326.576 96.8606 326.868 98.1445 326.868C99.5451 326.868 100.844 326.533 102.04 325.862C103.236 325.161 104.17 324.242 104.841 323.104C105.542 321.937 105.892 320.697 105.892 319.384V307.916H107.292V327C107.292 328.75 106.928 330.326 106.198 331.727C105.498 333.156 104.462 334.28 103.09 335.097C101.719 335.914 100.085 336.322 98.1883 336.322ZM121.726 328.313C119.742 328.313 117.947 327.831 116.342 326.868C114.737 325.876 113.483 324.578 112.578 322.973C111.674 321.339 111.221 319.573 111.221 317.677C111.221 315.809 111.674 314.073 112.578 312.468C113.512 310.863 114.767 309.594 116.342 308.66C117.947 307.697 119.727 307.216 121.682 307.216C123.608 307.216 125.359 307.697 126.935 308.66C128.539 309.594 129.794 310.863 130.699 312.468C131.603 314.073 132.056 315.809 132.056 317.677C132.056 319.632 131.618 321.426 130.742 323.06C129.867 324.665 128.642 325.949 127.066 326.912C125.519 327.846 123.739 328.313 121.726 328.313ZM121.726 327.087C123.389 327.087 124.907 326.664 126.278 325.818C127.649 324.972 128.714 323.848 129.473 322.448C130.261 321.018 130.655 319.457 130.655 317.764C130.655 316.101 130.261 314.554 129.473 313.125C128.685 311.695 127.606 310.557 126.234 309.711C124.863 308.864 123.345 308.441 121.682 308.441C120.019 308.441 118.487 308.879 117.086 309.754C115.715 310.601 114.621 311.739 113.804 313.168C113.016 314.598 112.622 316.145 112.622 317.808C112.622 319.471 113.016 321.018 113.804 322.448C114.621 323.848 115.715 324.972 117.086 325.818C118.487 326.664 120.034 327.087 121.726 327.087ZM145.09 328.094C142.318 328.094 140.173 327.335 138.656 325.818C137.168 324.3 136.424 322.156 136.424 319.384V307.916H137.825V319.384C137.825 321.776 138.452 323.629 139.707 324.942C140.991 326.226 142.785 326.868 145.09 326.868C146.491 326.868 147.775 326.562 148.942 325.949C150.109 325.307 151.028 324.417 151.699 323.279C152.371 322.141 152.706 320.843 152.706 319.384V307.916H154.107V327.612H152.706V323.936C152.035 325.161 151.028 326.168 149.686 326.956C148.344 327.714 146.812 328.094 145.09 328.094Z" fill="#042454" fill-opacity="0.15"/>
<path d="M105.122 196.12H106.523V199.096C107.865 196.791 110.025 195.639 113.001 195.639C114.431 195.639 115.671 196.047 116.721 196.864C117.772 197.652 118.501 198.848 118.91 200.453C119.289 199.024 120.121 197.871 121.405 196.996C122.718 196.091 124.191 195.639 125.825 195.639C127.955 195.639 129.604 196.266 130.771 197.521C131.938 198.746 132.522 200.497 132.522 202.773V215.816H131.121V202.773C131.121 200.935 130.64 199.49 129.677 198.44C128.743 197.389 127.503 196.864 125.957 196.864C124.789 196.864 123.71 197.156 122.718 197.74C121.726 198.294 120.938 199.053 120.354 200.016C119.771 200.979 119.479 202.044 119.479 203.211V215.816H118.078V203.561C118.078 201.46 117.582 199.826 116.59 198.659C115.598 197.462 114.314 196.864 112.738 196.864C111.688 196.864 110.681 197.127 109.718 197.652C108.784 198.177 108.011 198.892 107.398 199.797C106.815 200.672 106.523 201.635 106.523 202.686V215.816H105.122V196.12ZM147.62 215.116C149.138 215.116 150.582 214.722 151.954 213.934C153.325 213.146 154.463 212.067 155.368 210.695V212.928C154.288 214.124 153.106 214.999 151.822 215.554C150.538 216.079 149.079 216.342 147.445 216.342C145.636 216.342 143.929 215.86 142.324 214.897C140.749 213.934 139.479 212.65 138.516 211.046C137.583 209.441 137.116 207.734 137.116 205.925C137.116 203.969 137.583 202.219 138.516 200.672C139.45 199.096 140.719 197.871 142.324 196.996C143.958 196.12 145.767 195.682 147.752 195.682C150.786 195.682 153.369 196.879 155.499 199.272L141.755 212.84C142.718 213.628 143.652 214.212 144.557 214.591C145.461 214.941 146.482 215.116 147.62 215.116ZM138.516 205.793C138.516 208.215 139.319 210.287 140.924 212.008L153.748 199.272C152.785 198.425 151.851 197.827 150.947 197.477C150.042 197.098 148.963 196.908 147.708 196.908C145.928 196.908 144.338 197.302 142.937 198.09C141.566 198.848 140.486 199.899 139.698 201.241C138.91 202.583 138.516 204.101 138.516 205.793Z" fill="#042454" fill-opacity="0.15"/>
<path d="M105.122 345.12H106.523V348.096C107.865 345.791 110.025 344.639 113.001 344.639C114.431 344.639 115.671 345.047 116.721 345.864C117.772 346.652 118.501 347.848 118.91 349.453C119.289 348.024 120.121 346.871 121.405 345.996C122.718 345.091 124.191 344.639 125.825 344.639C127.955 344.639 129.604 345.266 130.771 346.521C131.938 347.746 132.522 349.497 132.522 351.773V364.816H131.121V351.773C131.121 349.935 130.64 348.49 129.677 347.44C128.743 346.389 127.503 345.864 125.957 345.864C124.789 345.864 123.71 346.156 122.718 346.74C121.726 347.294 120.938 348.053 120.354 349.016C119.771 349.979 119.479 351.044 119.479 352.211V364.816H118.078V352.561C118.078 350.46 117.582 348.826 116.59 347.659C115.598 346.462 114.314 345.864 112.738 345.864C111.688 345.864 110.681 346.127 109.718 346.652C108.784 347.177 108.011 347.892 107.398 348.797C106.815 349.672 106.523 350.635 106.523 351.686V364.816H105.122V345.12ZM147.62 364.116C149.138 364.116 150.582 363.722 151.954 362.934C153.325 362.146 154.463 361.067 155.368 359.695V361.928C154.288 363.124 153.106 363.999 151.822 364.554C150.538 365.079 149.079 365.342 147.445 365.342C145.636 365.342 143.929 364.86 142.324 363.897C140.749 362.934 139.479 361.65 138.516 360.046C137.583 358.441 137.116 356.734 137.116 354.925C137.116 352.969 137.583 351.219 138.516 349.672C139.45 348.096 140.719 346.871 142.324 345.996C143.958 345.12 145.767 344.682 147.752 344.682C150.786 344.682 153.369 345.879 155.499 348.272L141.755 361.84C142.718 362.628 143.652 363.212 144.557 363.591C145.461 363.941 146.482 364.116 147.62 364.116ZM138.516 354.793C138.516 357.215 139.319 359.287 140.924 361.008L153.748 348.272C152.785 347.425 151.851 346.827 150.947 346.477C150.042 346.098 148.963 345.908 147.708 345.908C145.928 345.908 144.338 346.302 142.937 347.09C141.566 347.848 140.486 348.899 139.698 350.241C138.91 351.583 138.516 353.101 138.516 354.793Z" fill="#042454" fill-opacity="0.15"/>
<path d="M130.28 252.32C131.797 252.32 133.242 251.926 134.613 251.138C135.984 250.351 137.122 249.271 138.027 247.899V250.132C136.947 251.328 135.766 252.203 134.482 252.758C133.198 253.283 131.739 253.546 130.105 253.546C128.296 253.546 126.589 253.064 124.984 252.101C123.408 251.138 122.139 249.855 121.176 248.25C120.242 246.645 119.775 244.938 119.775 243.129C119.775 241.174 120.242 239.423 121.176 237.876C122.11 236.301 123.379 235.075 124.984 234.2C126.618 233.324 128.427 232.887 130.411 232.887C133.446 232.887 136.028 234.083 138.158 236.476L124.415 250.044C125.378 250.832 126.311 251.416 127.216 251.795C128.121 252.145 129.142 252.32 130.28 252.32ZM121.176 242.997C121.176 245.419 121.978 247.491 123.583 249.213L136.408 236.476C135.445 235.629 134.511 235.031 133.606 234.681C132.702 234.302 131.622 234.112 130.367 234.112C128.587 234.112 126.997 234.506 125.596 235.294C124.225 236.053 123.145 237.103 122.358 238.445C121.57 239.788 121.176 241.305 121.176 242.997ZM141.53 239.364H155.142V240.721H141.53V239.364Z" fill="#042454" fill-opacity="0.15"/>
<path d="M126.367 290.705L121.902 281.163L117.394 290.705L107.94 270.527H109.384L117.438 287.641L121.246 279.631L117.044 270.615H118.445L121.946 278.231L125.535 270.527H126.936L122.646 279.675L126.367 287.685L134.289 270.571H135.69L126.367 290.705ZM147.377 289.523C148.895 289.523 150.339 289.129 151.71 288.342C153.082 287.554 154.22 286.474 155.124 285.103V287.335C154.045 288.531 152.863 289.407 151.579 289.961C150.295 290.486 148.836 290.749 147.202 290.749C145.393 290.749 143.686 290.267 142.081 289.304C140.505 288.342 139.236 287.058 138.273 285.453C137.339 283.848 136.873 282.141 136.873 280.332C136.873 278.377 137.339 276.626 138.273 275.079C139.207 273.504 140.476 272.278 142.081 271.403C143.715 270.527 145.524 270.09 147.509 270.09C150.543 270.09 153.126 271.286 155.256 273.679L141.512 287.247C142.475 288.035 143.409 288.619 144.313 288.998C145.218 289.348 146.239 289.523 147.377 289.523ZM138.273 280.2C138.273 282.622 139.076 284.694 140.68 286.416L153.505 273.679C152.542 272.833 151.608 272.234 150.704 271.884C149.799 271.505 148.719 271.315 147.465 271.315C145.685 271.315 144.095 271.709 142.694 272.497C141.322 273.256 140.243 274.306 139.455 275.648C138.667 276.991 138.273 278.508 138.273 280.2Z" fill="#042454" fill-opacity="0.15"/>
<path d="M117.788 121.712H119.188V124.688C120.531 122.383 122.69 121.231 125.666 121.231C127.096 121.231 128.336 121.639 129.387 122.456C130.437 123.244 131.167 124.44 131.575 126.045C131.954 124.615 132.786 123.463 134.07 122.587C135.383 121.683 136.857 121.231 138.491 121.231C140.621 121.231 142.269 121.858 143.437 123.113C144.604 124.338 145.187 126.089 145.187 128.365V141.408H143.787V128.365C143.787 126.527 143.305 125.082 142.342 124.032C141.409 122.981 140.168 122.456 138.622 122.456C137.455 122.456 136.375 122.748 135.383 123.331C134.391 123.886 133.603 124.645 133.019 125.607C132.436 126.57 132.144 127.635 132.144 128.803V141.408H130.743V129.153C130.743 127.052 130.247 125.418 129.255 124.251C128.263 123.054 126.979 122.456 125.404 122.456C124.353 122.456 123.346 122.719 122.384 123.244C121.45 123.769 120.677 124.484 120.064 125.389C119.48 126.264 119.188 127.227 119.188 128.277V141.408H117.788V121.712ZM152.407 117.204C151.999 117.204 151.634 117.058 151.313 116.766C151.021 116.474 150.875 116.109 150.875 115.672C150.875 115.263 151.021 114.913 151.313 114.621C151.634 114.33 151.999 114.184 152.407 114.184C152.816 114.184 153.166 114.33 153.458 114.621C153.779 114.913 153.939 115.263 153.939 115.672C153.939 116.109 153.779 116.474 153.458 116.766C153.166 117.058 152.816 117.204 152.407 117.204ZM151.707 121.712H153.108V141.408H151.707V121.712Z" fill="#042454" fill-opacity="0.15"/>
<path d="M100.749 71.4646H102.15V91.3359L109.941 84.5079H111.735L102.719 92.3864L114.011 104.204H112.129L102.15 93.6994V104.204H100.749V71.4646ZM125.551 103.504C127.069 103.504 128.513 103.11 129.885 102.322C131.256 101.534 132.394 100.455 133.299 99.0831V101.315C132.219 102.512 131.037 103.387 129.753 103.941C128.469 104.467 127.01 104.729 125.376 104.729C123.567 104.729 121.86 104.248 120.255 103.285C118.68 102.322 117.41 101.038 116.447 99.4332C115.514 97.8284 115.047 96.1214 115.047 94.3122C115.047 92.3572 115.514 90.6064 116.447 89.0599C117.381 87.4842 118.65 86.2586 120.255 85.3833C121.889 84.5079 123.698 84.0702 125.683 84.0702C128.717 84.0702 131.3 85.2665 133.43 87.6593L119.686 101.228C120.649 102.016 121.583 102.599 122.488 102.979C123.392 103.329 124.413 103.504 125.551 103.504ZM116.447 94.1809C116.447 96.6028 117.25 98.6746 118.855 100.396L131.679 87.6593C130.716 86.8131 129.782 86.2149 128.878 85.8647C127.973 85.4854 126.894 85.2957 125.639 85.2957C123.859 85.2957 122.269 85.6896 120.868 86.4775C119.497 87.2362 118.417 88.2866 117.629 89.6289C116.841 90.9712 116.447 92.4885 116.447 94.1809ZM145.949 112.914C142.681 112.914 140.098 111.747 138.202 109.413V107.18C139.165 108.698 140.259 109.821 141.484 110.551C142.71 111.309 144.14 111.689 145.774 111.689C147.437 111.689 148.852 111.339 150.02 110.638C151.216 109.938 152.12 108.975 152.733 107.749C153.346 106.553 153.652 105.211 153.652 103.723V100.396C152.952 101.768 151.887 102.833 150.457 103.591C149.057 104.321 147.525 104.686 145.861 104.686C144.198 104.686 142.725 104.321 141.441 103.591C140.157 102.862 139.15 101.841 138.421 100.527C137.72 99.2144 137.37 97.6971 137.37 95.9755V84.5079H138.771V95.9755C138.771 97.5512 139.092 98.908 139.734 100.046C140.405 101.155 141.28 102.001 142.36 102.585C143.44 103.168 144.621 103.46 145.905 103.46C147.306 103.46 148.604 103.124 149.801 102.453C150.997 101.753 151.931 100.834 152.602 99.6959C153.302 98.5287 153.652 97.2885 153.652 95.9755V84.5079H155.053V103.591C155.053 105.342 154.688 106.918 153.959 108.318C153.258 109.748 152.223 110.872 150.851 111.689C149.48 112.506 147.846 112.914 145.949 112.914Z" fill="#042454" fill-opacity="0.15"/>
<path d="M105.609 47.3038H107.009V50.2801C108.352 47.9749 110.511 46.8223 113.487 46.8223C114.917 46.8223 116.157 47.2308 117.208 48.0478C118.258 48.8357 118.988 50.0321 119.396 51.6369C119.775 50.2071 120.607 49.0545 121.891 48.1792C123.204 47.2746 124.678 46.8223 126.312 46.8223C128.442 46.8223 130.09 47.4497 131.258 48.7044C132.425 49.9299 133.008 51.6807 133.008 53.9567V67H131.608V53.9567C131.608 52.1184 131.126 50.674 130.163 49.6235C129.23 48.5731 127.989 48.0478 126.443 48.0478C125.276 48.0478 124.196 48.3396 123.204 48.9232C122.212 49.4776 121.424 50.2363 120.84 51.1992C120.257 52.1622 119.965 53.2272 119.965 54.3944V67H118.564V54.7446C118.564 52.6436 118.068 51.0096 117.076 49.8424C116.084 48.646 114.8 48.0478 113.225 48.0478C112.174 48.0478 111.167 48.3105 110.204 48.8357C109.271 49.3609 108.497 50.0758 107.885 50.9804C107.301 51.8558 107.009 52.8187 107.009 53.8692V67H105.609V47.3038ZM148.107 66.2997C149.624 66.2997 151.068 65.9058 152.44 65.1179C153.811 64.3301 154.949 63.2504 155.854 61.879V64.1112C154.774 65.3076 153.592 66.183 152.309 66.7374C151.025 67.2626 149.566 67.5252 147.932 67.5252C146.122 67.5252 144.415 67.0438 142.811 66.0808C141.235 65.1179 139.966 63.834 139.003 62.2291C138.069 60.6243 137.602 58.9173 137.602 57.1081C137.602 55.1531 138.069 53.4023 139.003 51.8558C139.936 50.2801 141.206 49.0545 142.811 48.1792C144.445 47.3038 146.254 46.8661 148.238 46.8661C151.273 46.8661 153.855 48.0624 155.985 50.4552L142.242 64.0237C143.205 64.8115 144.138 65.3951 145.043 65.7745C145.947 66.1246 146.969 66.2997 148.107 66.2997ZM139.003 56.9768C139.003 59.3987 139.805 61.4705 141.41 63.1921L154.234 50.4552C153.271 49.609 152.338 49.0108 151.433 48.6606C150.529 48.2813 149.449 48.0916 148.194 48.0916C146.414 48.0916 144.824 48.4855 143.423 49.2734C142.052 50.0321 140.972 51.0825 140.184 52.4248C139.397 53.7671 139.003 55.2844 139.003 56.9768Z" fill="#042454" fill-opacity="0.15"/>
<path d="M258.966 307.732H260.367V310.708C261.709 308.403 263.869 307.25 266.845 307.25C268.275 307.25 269.515 307.659 270.565 308.476C271.616 309.263 272.345 310.46 272.754 312.065C273.133 310.635 273.965 309.482 275.249 308.607C276.562 307.702 278.035 307.25 279.669 307.25C281.799 307.25 283.448 307.877 284.615 309.132C285.783 310.358 286.366 312.108 286.366 314.384V327.428H284.965V314.384C284.965 312.546 284.484 311.102 283.521 310.051C282.587 309.001 281.347 308.476 279.801 308.476C278.634 308.476 277.554 308.767 276.562 309.351C275.57 309.905 274.782 310.664 274.198 311.627C273.615 312.59 273.323 313.655 273.323 314.822V327.428H271.922V315.172C271.922 313.071 271.426 311.437 270.434 310.27C269.442 309.074 268.158 308.476 266.582 308.476C265.532 308.476 264.525 308.738 263.562 309.263C262.628 309.789 261.855 310.504 261.242 311.408C260.659 312.284 260.367 313.246 260.367 314.297V327.428H258.966V307.732ZM301.464 326.727C302.982 326.727 304.426 326.333 305.798 325.546C307.169 324.758 308.307 323.678 309.212 322.307V324.539C308.132 325.735 306.95 326.611 305.666 327.165C304.382 327.69 302.923 327.953 301.289 327.953C299.48 327.953 297.773 327.472 296.168 326.509C294.593 325.546 293.323 324.262 292.36 322.657C291.427 321.052 290.96 319.345 290.96 317.536C290.96 315.581 291.427 313.83 292.36 312.284C293.294 310.708 294.564 309.482 296.168 308.607C297.802 307.732 299.612 307.294 301.596 307.294C304.63 307.294 307.213 308.49 309.343 310.883L295.599 324.451C296.562 325.239 297.496 325.823 298.401 326.202C299.305 326.552 300.326 326.727 301.464 326.727ZM292.36 317.405C292.36 319.826 293.163 321.898 294.768 323.62L307.592 310.883C306.629 310.037 305.696 309.439 304.791 309.088C303.886 308.709 302.807 308.519 301.552 308.519C299.772 308.519 298.182 308.913 296.781 309.701C295.41 310.46 294.33 311.51 293.542 312.853C292.754 314.195 292.36 315.712 292.36 317.405ZM313.721 307.732H315.122V312.108C315.764 310.649 316.858 309.482 318.404 308.607C319.951 307.702 321.658 307.25 323.525 307.25C325.947 307.25 327.858 308.023 329.259 309.57C330.689 311.087 331.404 313.217 331.404 315.96V327.428H330.003V315.96C330.003 313.597 329.42 311.758 328.252 310.445C327.114 309.132 325.51 308.476 323.438 308.476C321.92 308.476 320.52 308.826 319.236 309.526C317.981 310.197 316.974 311.131 316.216 312.327C315.486 313.524 315.122 314.881 315.122 316.398V327.428H313.721V307.732ZM343.978 327.69C341.818 327.69 340.024 327.034 338.594 325.721C337.193 324.408 336.493 322.599 336.493 320.293V299.809H337.894V307.732H343.934V308.957H337.894V320.293C337.894 322.219 338.463 323.737 339.601 324.845C340.768 325.925 342.227 326.465 343.978 326.465V327.69Z" fill="#042454" fill-opacity="0.15"/>
<path d="M165.226 158.916H166.627V161.892C167.969 159.587 170.128 158.435 173.105 158.435C174.535 158.435 175.775 158.843 176.825 159.66C177.876 160.448 178.605 161.644 179.014 163.249C179.393 161.819 180.225 160.667 181.508 159.791C182.822 158.887 184.295 158.435 185.929 158.435C188.059 158.435 189.708 159.062 190.875 160.317C192.042 161.542 192.626 163.293 192.626 165.569V178.612H191.225V165.569C191.225 163.731 190.744 162.286 189.781 161.236C188.847 160.185 187.607 159.66 186.06 159.66C184.893 159.66 183.814 159.952 182.822 160.536C181.829 161.09 181.042 161.849 180.458 162.812C179.874 163.774 179.583 164.84 179.583 166.007V178.612H178.182V166.357C178.182 164.256 177.686 162.622 176.694 161.455C175.702 160.258 174.418 159.66 172.842 159.66C171.792 159.66 170.785 159.923 169.822 160.448C168.888 160.973 168.115 161.688 167.502 162.593C166.919 163.468 166.627 164.431 166.627 165.481V178.612H165.226V158.916ZM207.724 177.912C209.242 177.912 210.686 177.518 212.057 176.73C213.429 175.942 214.567 174.863 215.471 173.491V175.724C214.392 176.92 213.21 177.795 211.926 178.35C210.642 178.875 209.183 179.138 207.549 179.138C205.74 179.138 204.033 178.656 202.428 177.693C200.852 176.73 199.583 175.446 198.62 173.841C197.686 172.237 197.22 170.53 197.22 168.72C197.22 166.765 197.686 165.015 198.62 163.468C199.554 161.892 200.823 160.667 202.428 159.791C204.062 158.916 205.871 158.478 207.856 158.478C210.89 158.478 213.473 159.675 215.603 162.067L201.859 175.636C202.822 176.424 203.756 177.007 204.66 177.387C205.565 177.737 206.586 177.912 207.724 177.912ZM198.62 168.589C198.62 171.011 199.423 173.083 201.028 174.804L213.852 162.067C212.889 161.221 211.955 160.623 211.051 160.273C210.146 159.894 209.067 159.704 207.812 159.704C206.032 159.704 204.442 160.098 203.041 160.886C201.669 161.644 200.59 162.695 199.802 164.037C199.014 165.379 198.62 166.897 198.62 168.589ZM219.981 158.916H221.381V163.293C222.023 161.834 223.118 160.667 224.664 159.791C226.211 158.887 227.918 158.435 229.785 158.435C232.207 158.435 234.118 159.208 235.519 160.754C236.949 162.272 237.664 164.402 237.664 167.145V178.612H236.263V167.145C236.263 164.781 235.679 162.943 234.512 161.63C233.374 160.317 231.769 159.66 229.698 159.66C228.18 159.66 226.78 160.01 225.496 160.711C224.241 161.382 223.234 162.315 222.476 163.512C221.746 164.708 221.381 166.065 221.381 167.582V178.612H219.981V158.916ZM250.237 178.875C248.078 178.875 246.284 178.218 244.854 176.905C243.453 175.592 242.753 173.783 242.753 171.478V150.994H244.153V158.916H250.194V160.142H244.153V171.478C244.153 173.404 244.722 174.921 245.86 176.03C247.028 177.11 248.487 177.649 250.237 177.649V178.875Z" fill="#042454"/>
<path d="M268.332 179.313C266.348 179.313 264.553 178.831 262.948 177.868C261.344 176.876 260.089 175.578 259.184 173.973C258.28 172.339 257.827 170.573 257.827 168.677C257.827 166.809 258.28 165.073 259.184 163.468C260.118 161.863 261.373 160.594 262.948 159.66C264.553 158.697 266.333 158.216 268.288 158.216C270.214 158.216 271.965 158.697 273.541 159.66C275.146 160.594 276.4 161.863 277.305 163.468C278.209 165.073 278.662 166.809 278.662 168.677C278.662 170.632 278.224 172.426 277.349 174.06C276.473 175.665 275.248 176.949 273.672 177.912C272.125 178.846 270.346 179.313 268.332 179.313ZM268.332 178.087C269.995 178.087 271.513 177.664 272.884 176.818C274.256 175.972 275.321 174.848 276.079 173.448C276.867 172.018 277.261 170.457 277.261 168.764C277.261 167.101 276.867 165.554 276.079 164.125C275.291 162.695 274.212 161.557 272.84 160.711C271.469 159.864 269.952 159.441 268.288 159.441C266.625 159.441 265.093 159.879 263.693 160.754C262.321 161.601 261.227 162.739 260.41 164.168C259.622 165.598 259.228 167.145 259.228 168.808C259.228 170.471 259.622 172.018 260.41 173.448C261.227 174.848 262.321 175.972 263.693 176.818C265.093 177.664 266.64 178.087 268.332 178.087ZM282.603 158.916H284.003V163.468C284.587 162.038 285.433 160.915 286.542 160.098C287.68 159.281 288.964 158.872 290.394 158.872C291.298 158.872 292.217 159.062 293.151 159.441V161.061C292.305 160.419 291.357 160.098 290.306 160.098C289.256 160.098 288.234 160.419 287.242 161.061C286.279 161.703 285.491 162.564 284.879 163.643C284.295 164.723 284.003 165.875 284.003 167.101V178.612H282.603V158.916ZM298.33 154.408C297.921 154.408 297.556 154.262 297.235 153.97C296.944 153.678 296.798 153.314 296.798 152.876C296.798 152.467 296.944 152.117 297.235 151.825C297.556 151.534 297.921 151.388 298.33 151.388C298.738 151.388 299.088 151.534 299.38 151.825C299.701 152.117 299.861 152.467 299.861 152.876C299.861 153.314 299.701 153.678 299.38 153.97C299.088 154.262 298.738 154.408 298.33 154.408ZM297.629 158.916H299.03V178.612H297.629V158.916ZM314.835 179.094C312.968 179.094 311.231 178.627 309.627 177.693C308.022 176.759 306.752 175.505 305.819 173.929C304.885 172.324 304.418 170.603 304.418 168.764C304.418 166.926 304.885 165.219 305.819 163.643C306.752 162.038 308.022 160.769 309.627 159.835C311.231 158.901 312.968 158.435 314.835 158.435C316.732 158.435 318.526 158.945 320.219 159.967C321.911 160.959 323.093 162.257 323.764 163.862V158.916H325.165V178.612H323.764V173.71C322.976 175.344 321.751 176.657 320.087 177.649C318.453 178.612 316.703 179.094 314.835 179.094ZM314.923 177.868C316.527 177.868 318.016 177.46 319.387 176.643C320.759 175.796 321.838 174.688 322.626 173.316C323.443 171.916 323.852 170.398 323.852 168.764C323.852 167.159 323.443 165.657 322.626 164.256C321.809 162.855 320.715 161.746 319.343 160.929C317.972 160.083 316.484 159.66 314.879 159.66C313.274 159.66 311.771 160.083 310.371 160.929C308.999 161.776 307.89 162.899 307.044 164.3C306.227 165.7 305.819 167.203 305.819 168.808C305.819 170.413 306.227 171.916 307.044 173.316C307.89 174.688 309.014 175.796 310.414 176.643C311.815 177.46 313.318 177.868 314.923 177.868Z" fill="#042454" fill-opacity="0.15"/>
<path d="M267.875 216.298C265.103 216.298 262.958 215.539 261.441 214.022C259.953 212.505 259.209 210.36 259.209 207.588V196.12H260.609V207.588C260.609 209.98 261.237 211.833 262.491 213.146C263.775 214.43 265.57 215.072 267.875 215.072C269.276 215.072 270.56 214.766 271.727 214.153C272.894 213.511 273.813 212.621 274.484 211.483C275.155 210.345 275.491 209.047 275.491 207.588V196.12H276.891V215.816H275.491V212.14C274.82 213.365 273.813 214.372 272.471 215.16C271.129 215.919 269.597 216.298 267.875 216.298ZM282.418 196.12H283.819V200.935C284.607 199.359 285.832 198.09 287.496 197.127C289.159 196.135 290.91 195.639 292.748 195.639C294.645 195.639 296.381 196.106 297.957 197.039C299.561 197.973 300.831 199.228 301.764 200.804C302.698 202.379 303.165 204.101 303.165 205.968C303.165 207.836 302.698 209.557 301.764 211.133C300.831 212.709 299.561 213.964 297.957 214.897C296.381 215.831 294.645 216.298 292.748 216.298C290.968 216.298 289.246 215.816 287.583 214.853C285.949 213.891 284.694 212.621 283.819 211.046V224.57H282.418V196.12ZM292.836 215.072C294.44 215.072 295.929 214.664 297.3 213.847C298.671 213.001 299.751 211.892 300.539 210.52C301.356 209.12 301.764 207.602 301.764 205.968C301.764 204.363 301.356 202.861 300.539 201.46C299.722 200.059 298.628 198.951 297.256 198.134C295.885 197.287 294.397 196.864 292.792 196.864C291.187 196.864 289.684 197.287 288.283 198.134C286.912 198.98 285.803 200.103 284.957 201.504C284.14 202.904 283.731 204.407 283.731 206.012C283.731 207.617 284.14 209.12 284.957 210.52C285.803 211.892 286.927 213.001 288.327 213.847C289.728 214.664 291.231 215.072 292.836 215.072Z" fill="#042454" fill-opacity="0.15"/>
<path d="M260.672 228.815C260.264 228.815 259.899 228.669 259.578 228.377C259.286 228.086 259.141 227.721 259.141 227.283C259.141 226.875 259.286 226.524 259.578 226.233C259.899 225.941 260.264 225.795 260.672 225.795C261.081 225.795 261.431 225.941 261.723 226.233C262.044 226.524 262.204 226.875 262.204 227.283C262.204 227.721 262.044 228.086 261.723 228.377C261.431 228.669 261.081 228.815 260.672 228.815ZM259.972 233.323H261.373V253.02H259.972V233.323ZM274.946 253.282C272.786 253.282 270.992 252.626 269.562 251.313C268.161 249.999 267.461 248.19 267.461 245.885V225.401H268.862V233.323H274.902V234.549H268.862V245.885C268.862 247.811 269.431 249.328 270.569 250.437C271.736 251.517 273.195 252.057 274.946 252.057V253.282Z" fill="#042454" fill-opacity="0.15"/>
<path d="M258.965 270.527H260.366V273.504C261.708 271.199 263.868 270.046 266.844 270.046C268.274 270.046 269.514 270.454 270.564 271.271C271.615 272.059 272.344 273.256 272.753 274.861C273.132 273.431 273.964 272.278 275.248 271.403C276.561 270.498 278.034 270.046 279.668 270.046C281.799 270.046 283.447 270.673 284.614 271.928C285.782 273.154 286.365 274.904 286.365 277.18V290.224H284.965V277.18C284.965 275.342 284.483 273.898 283.52 272.847C282.586 271.797 281.346 271.271 279.8 271.271C278.633 271.271 277.553 271.563 276.561 272.147C275.569 272.701 274.781 273.46 274.197 274.423C273.614 275.386 273.322 276.451 273.322 277.618V290.224H271.921V277.968C271.921 275.867 271.425 274.233 270.433 273.066C269.441 271.87 268.157 271.271 266.581 271.271C265.531 271.271 264.524 271.534 263.561 272.059C262.628 272.585 261.854 273.299 261.241 274.204C260.658 275.079 260.366 276.042 260.366 277.093V290.224H258.965V270.527ZM301.464 289.523C302.981 289.523 304.425 289.129 305.797 288.342C307.168 287.554 308.306 286.474 309.211 285.103V287.335C308.131 288.531 306.949 289.407 305.665 289.961C304.381 290.486 302.922 290.749 301.288 290.749C299.479 290.749 297.772 290.267 296.167 289.304C294.592 288.342 293.322 287.058 292.359 285.453C291.426 283.848 290.959 282.141 290.959 280.332C290.959 278.377 291.426 276.626 292.359 275.079C293.293 273.504 294.563 272.278 296.167 271.403C297.801 270.527 299.611 270.09 301.595 270.09C304.63 270.09 307.212 271.286 309.342 273.679L295.598 287.247C296.561 288.035 297.495 288.619 298.4 288.998C299.304 289.348 300.326 289.523 301.464 289.523ZM292.359 280.2C292.359 282.622 293.162 284.694 294.767 286.416L307.591 273.679C306.628 272.833 305.695 272.234 304.79 271.884C303.885 271.505 302.806 271.315 301.551 271.315C299.771 271.315 298.181 271.709 296.78 272.497C295.409 273.256 294.329 274.306 293.541 275.648C292.753 276.991 292.359 278.508 292.359 280.2Z" fill="#042454" fill-opacity="0.15"/>
<path d="M268.333 142.109C266.349 142.109 264.554 141.627 262.949 140.664C261.345 139.672 260.09 138.374 259.185 136.769C258.281 135.135 257.828 133.369 257.828 131.473C257.828 129.605 258.281 127.869 259.185 126.264C260.119 124.659 261.374 123.39 262.949 122.456C264.554 121.493 266.334 121.012 268.289 121.012C270.215 121.012 271.966 121.493 273.542 122.456C275.147 123.39 276.401 124.659 277.306 126.264C278.21 127.869 278.663 129.605 278.663 131.473C278.663 133.428 278.225 135.222 277.35 136.856C276.474 138.461 275.249 139.745 273.673 140.708C272.126 141.642 270.347 142.109 268.333 142.109ZM268.333 140.883C269.996 140.883 271.514 140.46 272.885 139.614C274.257 138.767 275.322 137.644 276.08 136.243C276.868 134.814 277.262 133.253 277.262 131.56C277.262 129.897 276.868 128.35 276.08 126.921C275.292 125.491 274.213 124.353 272.841 123.507C271.47 122.66 269.953 122.237 268.289 122.237C266.626 122.237 265.094 122.675 263.694 123.55C262.322 124.396 261.228 125.534 260.411 126.964C259.623 128.394 259.229 129.941 259.229 131.604C259.229 133.267 259.623 134.814 260.411 136.243C261.228 137.644 262.322 138.767 263.694 139.614C265.094 140.46 266.641 140.883 268.333 140.883ZM282.604 121.712H284.004V126.264C284.588 124.834 285.434 123.711 286.543 122.894C287.681 122.077 288.965 121.668 290.395 121.668C291.299 121.668 292.218 121.858 293.152 122.237V123.857C292.306 123.215 291.358 122.894 290.307 122.894C289.257 122.894 288.235 123.215 287.243 123.857C286.28 124.499 285.492 125.359 284.88 126.439C284.296 127.519 284.004 128.671 284.004 129.897V141.408H282.604V121.712Z" fill="#042454" fill-opacity="0.15"/>
<path d="M134.124 31.7003C132.14 31.7003 130.345 31.2188 128.74 30.2559C127.136 29.2638 125.881 27.9653 124.976 26.3604C124.072 24.7264 123.619 22.961 123.619 21.0643C123.619 19.1969 124.072 17.4607 124.976 15.8558C125.91 14.2509 127.165 12.9816 128.74 12.0478C130.345 11.0849 132.125 10.6035 134.08 10.6035C136.006 10.6035 137.757 11.0849 139.333 12.0478C140.938 12.9816 142.192 14.2509 143.097 15.8558C144.001 17.4607 144.454 19.1969 144.454 21.0643C144.454 23.0194 144.016 24.8139 143.141 26.448C142.265 28.0529 141.04 29.3368 139.464 30.2997C137.917 31.2334 136.138 31.7003 134.124 31.7003ZM134.124 30.4748C135.787 30.4748 137.305 30.0517 138.676 29.2055C140.048 28.3592 141.113 27.2358 141.871 25.8352C142.659 24.4054 143.053 22.8443 143.053 21.1519C143.053 19.4886 142.659 17.9421 141.871 16.5123C141.083 15.0825 140.004 13.9445 138.632 13.0983C137.261 12.2521 135.744 11.829 134.08 11.829C132.417 11.829 130.885 12.2667 129.485 13.1421C128.113 13.9883 127.019 15.1263 126.202 16.5561C125.414 17.9859 125.02 19.5324 125.02 21.1957C125.02 22.8589 125.414 24.4054 126.202 25.8352C127.019 27.2358 128.113 28.3592 129.485 29.2055C130.885 30.0517 132.432 30.4748 134.124 30.4748ZM148.395 11.3038H149.795V15.8558C150.379 14.426 151.225 13.3026 152.334 12.4855C153.472 11.6685 154.756 11.26 156.186 11.26C157.09 11.26 158.009 11.4497 158.943 11.829V13.4485C158.097 12.8065 157.149 12.4855 156.098 12.4855C155.048 12.4855 154.026 12.8065 153.034 13.4485C152.071 14.0904 151.283 14.9512 150.671 16.0309C150.087 17.1105 149.795 18.2631 149.795 19.4886V31H148.395V11.3038Z" fill="#042454" fill-opacity="0.15"/>
<path d="M269.037 103.504C270.555 103.504 271.999 103.11 273.37 102.322C274.742 101.534 275.88 100.455 276.784 99.0831V101.315C275.705 102.512 274.523 103.387 273.239 103.941C271.955 104.467 270.496 104.729 268.862 104.729C267.053 104.729 265.346 104.248 263.741 103.285C262.166 102.322 260.896 101.038 259.933 99.4332C259 97.8284 258.533 96.1214 258.533 94.3122C258.533 92.3572 259 90.6064 259.933 89.0599C260.867 87.4842 262.136 86.2586 263.741 85.3833C265.375 84.5079 267.184 84.0702 269.169 84.0702C272.203 84.0702 274.786 85.2665 276.916 87.6593L263.172 101.228C264.135 102.016 265.069 102.599 265.973 102.979C266.878 103.329 267.899 103.504 269.037 103.504ZM259.933 94.1809C259.933 96.6028 260.736 98.6746 262.341 100.396L275.165 87.6593C274.202 86.8131 273.268 86.2149 272.364 85.8647C271.459 85.4854 270.38 85.2957 269.125 85.2957C267.345 85.2957 265.755 85.6896 264.354 86.4775C262.983 87.2362 261.903 88.2866 261.115 89.6289C260.327 90.9712 259.933 92.4885 259.933 94.1809ZM290.573 104.686C288.676 104.686 286.925 104.219 285.321 103.285C283.745 102.351 282.49 101.096 281.556 99.5208C280.623 97.9451 280.156 96.2235 280.156 94.356C280.156 92.4885 280.623 90.7669 281.556 89.1912C282.49 87.6155 283.745 86.3608 285.321 85.427C286.925 84.4933 288.676 84.0264 290.573 84.0264C292.411 84.0264 294.162 84.5225 295.825 85.5146C297.488 86.4775 298.714 87.7468 299.502 89.3225V71.377H300.902V104.204H299.502V99.4332C298.626 101.009 297.357 102.278 295.694 103.241C294.06 104.204 292.353 104.686 290.573 104.686ZM290.529 103.46C292.134 103.46 293.622 103.052 294.994 102.234C296.394 101.388 297.503 100.279 298.32 98.908C299.166 97.5074 299.589 96.0046 299.589 94.3998C299.589 92.7949 299.166 91.2921 298.32 89.8915C297.503 88.4909 296.394 87.3675 294.994 86.5213C293.622 85.6751 292.134 85.2519 290.529 85.2519C288.924 85.2519 287.436 85.6751 286.065 86.5213C284.693 87.3383 283.599 88.4471 282.782 89.8477C281.965 91.2484 281.556 92.7511 281.556 94.356C281.556 95.99 281.95 97.5074 282.738 98.908C283.555 100.279 284.649 101.388 286.021 102.234C287.421 103.052 288.924 103.46 290.529 103.46Z" fill="#042454" fill-opacity="0.15"/>
<path d="M259.695 47.3038H261.096V50.2801C262.438 47.9749 264.597 46.8223 267.573 46.8223C269.003 46.8223 270.243 47.2308 271.294 48.0478C272.344 48.8357 273.074 50.0321 273.482 51.6369C273.862 50.2071 274.693 49.0545 275.977 48.1792C277.29 47.2746 278.764 46.8223 280.398 46.8223C282.528 46.8223 284.177 47.4497 285.344 48.7044C286.511 49.9299 287.095 51.6807 287.095 53.9567V67H285.694V53.9567C285.694 52.1184 285.213 50.674 284.25 49.6235C283.316 48.5731 282.076 48.0478 280.529 48.0478C279.362 48.0478 278.282 48.3396 277.29 48.9232C276.298 49.4776 275.51 50.2363 274.927 51.1992C274.343 52.1622 274.051 53.2272 274.051 54.3944V67H272.651V54.7446C272.651 52.6436 272.155 51.0096 271.163 49.8424C270.17 48.646 268.887 48.0478 267.311 48.0478C266.26 48.0478 265.254 48.3105 264.291 48.8357C263.357 49.3609 262.584 50.0758 261.971 50.9804C261.387 51.8558 261.096 52.8187 261.096 53.8692V67H259.695V47.3038ZM302.193 66.2997C303.71 66.2997 305.155 65.9058 306.526 65.1179C307.898 64.3301 309.036 63.2504 309.94 61.879V64.1112C308.861 65.3076 307.679 66.183 306.395 66.7374C305.111 67.2626 303.652 67.5252 302.018 67.5252C300.209 67.5252 298.502 67.0438 296.897 66.0808C295.321 65.1179 294.052 63.834 293.089 62.2291C292.155 60.6243 291.688 58.9173 291.688 57.1081C291.688 55.1531 292.155 53.4023 293.089 51.8558C294.023 50.2801 295.292 49.0545 296.897 48.1792C298.531 47.3038 300.34 46.8661 302.324 46.8661C305.359 46.8661 307.941 48.0624 310.072 50.4552L296.328 64.0237C297.291 64.8115 298.225 65.3951 299.129 65.7745C300.034 66.1246 301.055 66.2997 302.193 66.2997ZM293.089 56.9768C293.089 59.3987 293.891 61.4705 295.496 63.1921L308.321 50.4552C307.358 49.609 306.424 49.0108 305.519 48.6606C304.615 48.2813 303.535 48.0916 302.281 48.0916C300.501 48.0916 298.91 48.4855 297.51 49.2734C296.138 50.0321 295.059 51.0825 294.271 52.4248C293.483 53.7671 293.089 55.2844 293.089 56.9768Z" fill="#042454" fill-opacity="0.15"/>
<path d="M268.829 362.425C270.347 362.425 271.791 362.031 273.162 361.243C274.534 360.455 275.672 359.375 276.576 358.004V360.236C275.497 361.433 274.315 362.308 273.031 362.862C271.747 363.388 270.288 363.65 268.654 363.65C266.845 363.65 265.138 363.169 263.533 362.206C261.958 361.243 260.688 359.959 259.725 358.354C258.792 356.749 258.325 355.042 258.325 353.233C258.325 351.278 258.792 349.527 259.725 347.981C260.659 346.405 261.928 345.18 263.533 344.304C265.167 343.429 266.976 342.991 268.961 342.991C271.995 342.991 274.578 344.187 276.708 346.58L262.964 360.149C263.927 360.937 264.861 361.52 265.765 361.899C266.67 362.25 267.691 362.425 268.829 362.425ZM259.725 353.102C259.725 355.524 260.528 357.595 262.133 359.317L274.957 346.58C273.994 345.734 273.06 345.136 272.156 344.786C271.251 344.406 270.172 344.217 268.917 344.217C267.137 344.217 265.547 344.611 264.146 345.398C262.775 346.157 261.695 347.208 260.907 348.55C260.119 349.892 259.725 351.409 259.725 353.102ZM290.365 363.606C288.468 363.606 286.717 363.14 285.113 362.206C283.537 361.272 282.282 360.017 281.348 358.442C280.415 356.866 279.948 355.144 279.948 353.277C279.948 351.409 280.415 349.688 281.348 348.112C282.282 346.536 283.537 345.282 285.113 344.348C286.717 343.414 288.468 342.947 290.365 342.947C292.203 342.947 293.954 343.443 295.617 344.435C297.28 345.398 298.506 346.668 299.294 348.243V330.298H300.694V363.125H299.294V358.354C298.418 359.93 297.149 361.199 295.486 362.162C293.852 363.125 292.145 363.606 290.365 363.606ZM290.321 362.381C291.926 362.381 293.414 361.972 294.786 361.155C296.186 360.309 297.295 359.2 298.112 357.829C298.958 356.428 299.381 354.926 299.381 353.321C299.381 351.716 298.958 350.213 298.112 348.812C297.295 347.412 296.186 346.288 294.786 345.442C293.414 344.596 291.926 344.173 290.321 344.173C288.716 344.173 287.228 344.596 285.857 345.442C284.485 346.259 283.391 347.368 282.574 348.769C281.757 350.169 281.348 351.672 281.348 353.277C281.348 354.911 281.742 356.428 282.53 357.829C283.347 359.2 284.441 360.309 285.813 361.155C287.213 361.972 288.716 362.381 290.321 362.381Z" fill="#042454" fill-opacity="0.15"/>
</svg>
